<?xml version="1.0"?>
<svg version="1.1"
     xmlns="http://www.w3.org/2000/svg"
     xmlns:xlink="http://www.w3.org/1999/xlink"
     viewBox="0 0 800 600">
<g>
<text fill="#000000" font-family="sans-serif" font-size="19.0476" text-anchor="start" x="4.7619" y="591.429" >
NIST Chemistry WebBook (https://webbook.nist.gov/chemistry)
</text>
<polyline stroke="#000000" stroke-width="1.19048" fill="none" points="95.2381,514.286
742.857,514.286
742.857,66.6667
95.2381,66.6667
95.2381,514.286" />
<text fill="#000000" font-family="sans-serif" font-size="19.0476" text-anchor="middle" x="419.048" y="24.7619" >
ETHYLENEDIAMINE, N-ETHYL-N'-METHYL-
</text>
<text fill="#000000" font-family="sans-serif" font-size="19.0476" text-anchor="middle" x="419.048" y="53.3333" >
INFRARED SPECTRUM
</text>
<text fill="#000000" font-family="sans-serif" font-size="19.0476" text-anchor="middle" x="419.048" y="558.095" >
Wavenumber (cm-1)
</text>
<text fill="#000000" font-family="sans-serif" font-size="19.0476" text-anchor="middle" transform="translate(20,290.476) rotate(270)" x="0" y="0" >
Percent Transmission (Transmitance)
</text>
<text fill="#000000" font-family="sans-serif" font-size="19.0476" text-anchor="middle" x="628.728" y="534.286" >
1000
</text>
<line stroke="#000000" stroke-width="1.19048" x1="628.728" y1="514.286" x2="628.728" y2="504.762" />
<text fill="#000000" font-family="sans-serif" font-size="19.0476" text-anchor="middle" x="438.196" y="534.286" >
2000
</text>
<line stroke="#000000" stroke-width="1.19048" x1="438.196" y1="514.286" x2="438.196" y2="504.762" />
<text fill="#000000" font-family="sans-serif" font-size="19.0476" text-anchor="middle" x="247.664" y="534.286" >
3000
</text>
<line stroke="#000000" stroke-width="1.19048" x1="247.664" y1="514.286" x2="247.664" y2="504.762" />
<line stroke="#000000" stroke-width="1.19048" x1="723.994" y1="514.286" x2="723.994" y2="509.524" />
<line stroke="#000000" stroke-width="1.19048" x1="704.941" y1="514.286" x2="704.941" y2="509.524" />
<line stroke="#000000" stroke-width="1.19048" x1="685.888" y1="514.286" x2="685.888" y2="509.524" />
<line stroke="#000000" stroke-width="1.19048" x1="666.835" y1="514.286" x2="666.835" y2="509.524" />
<line stroke="#000000" stroke-width="1.19048" x1="647.782" y1="514.286" x2="647.782" y2="509.524" />
<line stroke="#000000" stroke-width="1.19048" x1="628.728" y1="514.286" x2="628.728" y2="509.524" />
<line stroke="#000000" stroke-width="1.19048" x1="609.675" y1="514.286" x2="609.675" y2="509.524" />
<line stroke="#000000" stroke-width="1.19048" x1="590.622" y1="514.286" x2="590.622" y2="509.524" />
<line stroke="#000000" stroke-width="1.19048" x1="571.569" y1="514.286" x2="571.569" y2="509.524" />
<line stroke="#000000" stroke-width="1.19048" x1="552.515" y1="514.286" x2="552.515" y2="509.524" />
<line stroke="#000000" stroke-width="1.19048" x1="533.462" y1="514.286" x2="533.462" y2="509.524" />
<line stroke="#000000" stroke-width="1.19048" x1="514.409" y1="514.286" x2="514.409" y2="509.524" />
<line stroke="#000000" stroke-width="1.19048" x1="495.356" y1="514.286" x2="495.356" y2="509.524" />
<line stroke="#000000" stroke-width="1.19048" x1="476.303" y1="514.286" x2="476.303" y2="509.524" />
<line stroke="#000000" stroke-width="1.19048" x1="457.249" y1="514.286" x2="457.249" y2="509.524" />
<line stroke="#000000" stroke-width="1.19048" x1="438.196" y1="514.286" x2="438.196" y2="509.524" />
<line stroke="#000000" stroke-width="1.19048" x1="419.143" y1="514.286" x2="419.143" y2="509.524" />
<line stroke="#000000" stroke-width="1.19048" x1="400.09" y1="514.286" x2="400.09" y2="509.524" />
<line stroke="#000000" stroke-width="1.19048" x1="381.036" y1="514.286" x2="381.036" y2="509.524" />
<line stroke="#000000" stroke-width="1.19048" x1="361.983" y1="514.286" x2="361.983" y2="509.524" />
<line stroke="#000000" stroke-width="1.19048" x1="342.93" y1="514.286" x2="342.93" y2="509.524" />
<line stroke="#000000" stroke-width="1.19048" x1="323.877" y1="514.286" x2="323.877" y2="509.524" />
<line stroke="#000000" stroke-width="1.19048" x1="304.824" y1="514.286" x2="304.824" y2="509.524" />
<line stroke="#000000" stroke-width="1.19048" x1="285.77" y1="514.286" x2="285.77" y2="509.524" />
<line stroke="#000000" stroke-width="1.19048" x1="266.717" y1="514.286" x2="266.717" y2="509.524" />
<line stroke="#000000" stroke-width="1.19048" x1="247.664" y1="514.286" x2="247.664" y2="509.524" />
<line stroke="#000000" stroke-width="1.19048" x1="228.611" y1="514.286" x2="228.611" y2="509.524" />
<line stroke="#000000" stroke-width="1.19048" x1="209.557" y1="514.286" x2="209.557" y2="509.524" />
<line stroke="#000000" stroke-width="1.19048" x1="190.504" y1="514.286" x2="190.504" y2="509.524" />
<line stroke="#000000" stroke-width="1.19048" x1="171.451" y1="514.286" x2="171.451" y2="509.524" />
<line stroke="#000000" stroke-width="1.19048" x1="152.398" y1="514.286" x2="152.398" y2="509.524" />
<line stroke="#000000" stroke-width="1.19048" x1="133.345" y1="514.286" x2="133.345" y2="509.524" />
<line stroke="#000000" stroke-width="1.19048" x1="114.291" y1="514.286" x2="114.291" y2="509.524" />
<line stroke="#000000" stroke-width="1.19048" x1="95.2381" y1="514.286" x2="95.2381" y2="509.524" />
<text fill="#000000" font-family="sans-serif" font-size="19.0476" text-anchor="end" x="90.4762" y="445.46" >
0.2
</text>
<line stroke="#000000" stroke-width="1.19048" x1="95.2381" y1="441.175" x2="104.762" y2="441.175" />
<text fill="#000000" font-family="sans-serif" font-size="19.0476" text-anchor="end" x="90.4762" y="355.478" >
0.4
</text>
<line stroke="#000000" stroke-width="1.19048" x1="95.2381" y1="351.192" x2="104.762" y2="351.192" />
<text fill="#000000" font-family="sans-serif" font-size="19.0476" text-anchor="end" x="90.4762" y="265.495" >
0.6
</text>
<line stroke="#000000" stroke-width="1.19048" x1="95.2381" y1="261.209" x2="104.762" y2="261.209" />
<text fill="#000000" font-family="sans-serif" font-size="19.0476" text-anchor="end" x="90.4762" y="175.512" >
0.8
</text>
<line stroke="#000000" stroke-width="1.19048" x1="95.2381" y1="171.227" x2="104.762" y2="171.227" />
<text fill="#000000" font-family="sans-serif" font-size="19.0476" text-anchor="end" x="90.4762" y="85.5296" >
1
</text>
<line stroke="#000000" stroke-width="1.19048" x1="95.2381" y1="81.2439" x2="104.762" y2="81.2439" />
<line stroke="#000000" stroke-width="1.19048" x1="95.2381" y1="508.662" x2="100" y2="508.662" />
<line stroke="#000000" stroke-width="1.19048" x1="95.2381" y1="486.166" x2="100" y2="486.166" />
<line stroke="#000000" stroke-width="1.19048" x1="95.2381" y1="463.67" x2="100" y2="463.67" />
<line stroke="#000000" stroke-width="1.19048" x1="95.2381" y1="441.175" x2="100" y2="441.175" />
<line stroke="#000000" stroke-width="1.19048" x1="95.2381" y1="418.679" x2="100" y2="418.679" />
<line stroke="#000000" stroke-width="1.19048" x1="95.2381" y1="396.183" x2="100" y2="396.183" />
<line stroke="#000000" stroke-width="1.19048" x1="95.2381" y1="373.688" x2="100" y2="373.688" />
<line stroke="#000000" stroke-width="1.19048" x1="95.2381" y1="351.192" x2="100" y2="351.192" />
<line stroke="#000000" stroke-width="1.19048" x1="95.2381" y1="328.696" x2="100" y2="328.696" />
<line stroke="#000000" stroke-width="1.19048" x1="95.2381" y1="306.201" x2="100" y2="306.201" />
<line stroke="#000000" stroke-width="1.19048" x1="95.2381" y1="283.705" x2="100" y2="283.705" />
<line stroke="#000000" stroke-width="1.19048" x1="95.2381" y1="261.209" x2="100" y2="261.209" />
<line stroke="#000000" stroke-width="1.19048" x1="95.2381" y1="238.714" x2="100" y2="238.714" />
<line stroke="#000000" stroke-width="1.19048" x1="95.2381" y1="216.218" x2="100" y2="216.218" />
<line stroke="#000000" stroke-width="1.19048" x1="95.2381" y1="193.722" x2="100" y2="193.722" />
<line stroke="#000000" stroke-width="1.19048" x1="95.2381" y1="171.227" x2="100" y2="171.227" />
<line stroke="#000000" stroke-width="1.19048" x1="95.2381" y1="148.731" x2="100" y2="148.731" />
<line stroke="#000000" stroke-width="1.19048" x1="95.2381" y1="126.235" x2="100" y2="126.235" />
<line stroke="#000000" stroke-width="1.19048" x1="95.2381" y1="103.74" x2="100" y2="103.74" />
<line stroke="#000000" stroke-width="1.19048" x1="95.2381" y1="81.2438" x2="100" y2="81.2438" />
<polyline stroke="#FF0000" stroke-width="1.19048" fill="none" points="742.857,79.5792
742.667,80.569
742.476,81.7388
742.286,82.9536
742.095,84.1683
741.904,85.6081
741.714,87.0928
741.523,88.5775
741.333,90.1072
741.142,91.5919
740.952,92.9866
740.761,94.3364
740.571,95.7311
740.38,97.0809
740.19,95.1012
739.999,99.7803
739.809,101.13
739.618,102.48
739.428,103.83
739.237,105.269
739.046,106.709
738.856,108.104
738.665,109.543
738.475,110.983
738.284,112.378
738.094,113.863
737.903,115.257
737.713,116.697
737.522,118.092
737.332,119.487
737.141,120.926
736.951,122.276
736.76,123.671
736.57,125.11
736.379,126.46
736.188,127.855
735.998,129.25
735.807,130.509
735.617,131.499
735.426,132.534
735.236,133.524
735.045,134.559
734.855,135.593
734.664,136.583
734.474,137.483
734.283,138.338
734.093,139.193
733.902,140.048
733.712,140.902
733.521,142.522
733.331,144.367
733.14,146.121
732.949,147.381
732.759,148.416
732.568,148.281
732.378,147.921
732.187,148.776
731.997,145.447
731.806,143.737
731.616,142.297
731.425,140.947
731.235,139.373
731.044,137.708
730.854,135.818
730.663,133.704
730.473,131.544
730.282,129.385
730.091,127.72
729.901,126.595
729.71,125.47
729.52,124.886
729.329,124.616
729.139,124.616
728.948,124.661
728.758,124.796
728.567,125.425
728.377,126.1
728.186,127.045
727.996,128.26
727.805,129.475
727.615,130.554
727.424,131.634
727.233,132.534
727.043,133.119
726.852,133.704
726.662,134.289
726.471,134.649
726.281,134.829
726.09,135.054
725.9,135.234
725.709,135.458
725.519,135.638
725.328,136.088
725.138,136.718
724.947,137.348
724.757,137.978
724.566,139.148
724.375,140.453
724.185,141.757
723.994,143.107
723.804,144.142
723.613,145.132
723.423,146.076
723.232,147.066
723.042,148.011
722.851,148.956
722.661,149.496
722.47,150.081
722.28,150.621
722.089,151.16
721.899,151.7
721.708,152.285
721.518,152.78
721.327,153.32
721.136,153.86
720.946,154.22
720.755,154.535
720.565,154.76
720.374,155.03
720.184,155.3
719.993,155.57
719.803,155.84
719.612,156.11
719.422,156.379
719.231,156.649
719.041,156.919
718.85,157.054
718.66,157.234
718.469,157.414
718.278,157.639
718.088,157.819
717.897,157.999
717.707,158.179
717.516,158.224
717.326,158.269
717.135,157.999
716.945,157.729
716.754,157.459
716.564,157.189
716.373,156.514
716.183,159.259
715.992,154.265
715.802,153.095
715.611,151.88
715.42,150.666
715.23,149.451
715.039,148.236
714.849,147.111
714.658,145.941
714.468,144.817
714.277,143.692
714.087,142.567
713.896,141.802
713.706,141.082
713.515,140.408
713.325,139.688
713.134,138.968
712.944,138.248
712.753,137.573
712.562,136.853
712.372,136.133
712.181,135.458
711.991,134.829
711.8,134.199
711.61,133.524
711.419,132.894
711.229,132.264
711.038,131.589
710.848,131.184
710.657,130.824
710.467,130.419
710.276,130.06
710.086,129.655
709.895,129.295
709.705,128.89
709.514,128.53
709.323,128.125
709.133,127.765
708.942,127.36
708.752,127
708.561,126.685
708.371,126.505
708.18,126.325
707.99,126.19
707.799,126.01
707.609,125.875
707.418,125.695
707.228,125.515
707.037,125.425
706.847,125.425
706.656,125.425
706.465,125.425
706.275,125.425
706.084,125.47
705.894,125.47
705.703,125.515
705.513,125.515
705.322,125.56
705.132,125.56
704.941,125.515
704.751,125.47
704.56,125.425
704.37,125.425
704.179,125.335
703.989,125.29
703.798,125.2
703.607,125.155
703.417,125.11
703.226,124.661
703.036,124.211
702.845,123.761
702.655,123.311
702.464,122.861
702.274,122.276
702.083,121.691
701.893,121.106
701.702,120.611
701.512,120.476
701.321,120.701
701.131,120.926
700.94,121.106
700.75,121.286
700.559,121.691
700.368,122.456
700.178,123.176
699.987,123.941
699.797,124.706
699.606,125.56
699.416,126.685
699.225,127.81
699.035,129.79
698.844,131.949
698.654,133.794
698.463,135.099
698.273,136.403
698.082,137.753
697.892,139.058
697.701,140.228
697.51,141.397
697.32,142.567
697.129,143.737
696.939,145.042
696.748,146.301
696.558,147.606
696.367,148.686
696.177,149.856
695.986,150.936
695.796,152.105
695.605,153.185
695.415,154.355
695.224,155.525
695.034,156.784
694.843,157.954
694.652,159.169
694.462,160.384
694.271,161.913
694.081,163.623
693.89,165.198
693.7,166.817
693.509,168.482
693.319,170.102
693.128,171.722
692.938,173.431
692.747,175.051
692.557,176.716
692.366,178.335
692.176,180
691.985,181.8
691.794,183.959
691.604,186.164
691.413,188.368
691.223,190.528
691.032,192.643
690.842,195.702
690.651,198.716
690.461,201.596
690.27,204.295
690.08,206.995
689.889,210.099
689.699,213.923
689.508,217.703
689.318,221.527
689.127,225.351
688.937,229.67
688.746,235.924
688.555,242.223
688.365,248.432
688.174,254.731
687.984,260.984
687.793,267.283
687.603,272.637
687.412,277.586
687.222,282.58
687.031,287.799
686.841,292.973
686.65,297.022
686.46,300.307
686.269,303.591
686.078,306.876
685.888,310.34
685.697,314.209
685.507,318.078
685.316,321.903
685.126,325.637
684.935,329.101
684.745,332.521
684.554,335.985
684.364,339.404
684.173,343.589
683.983,348.942
683.792,354.251
683.602,359.965
683.411,365.949
683.221,369.504
683.03,372.743
682.839,375.937
682.649,379.177
682.458,382.416
682.268,385.745
682.077,389.03
681.887,392.359
681.696,394.879
681.506,397.353
681.315,399.783
681.125,402.077
680.934,403.832
680.744,405.587
680.553,407.341
680.363,409.141
680.172,410.896
679.982,412.335
679.791,413.64
679.6,414.045
679.41,414.45
679.219,414.9
679.029,415.26
678.838,415.44
678.648,415.665
678.457,415.89
678.267,416.115
678.076,416.295
677.886,416.519
677.695,416.744
677.505,416.969
677.314,417.194
677.124,417.419
676.933,417.644
676.742,417.824
676.552,418.049
676.361,418.274
676.171,418.454
675.98,418.634
675.79,418.769
675.599,418.904
675.409,419.084
675.218,419.219
675.028,419.399
674.837,419.534
674.647,419.669
674.456,419.849
674.266,419.984
674.075,420.164
673.884,420.344
673.694,420.524
673.503,420.704
673.313,420.884
673.122,421.064
672.932,421.244
672.741,421.424
672.551,421.648
672.36,421.783
672.17,422.008
671.979,422.188
671.789,422.413
671.598,422.638
671.408,422.818
671.217,423.043
671.026,423.268
670.836,423.448
670.645,423.673
670.455,423.898
670.264,424.078
670.074,424.303
669.883,424.483
669.693,424.708
669.502,424.933
669.312,425.113
669.121,425.338
668.931,425.518
668.74,425.788
668.55,426.013
668.359,426.238
668.169,426.508
667.978,426.733
667.787,426.957
667.597,427.407
667.406,428.217
667.216,429.027
667.025,429.792
666.835,430.647
666.644,431.277
666.454,431.727
666.263,432.132
666.073,432.581
665.882,432.626
665.692,432.581
665.501,432.536
665.31,432.446
665.12,432.401
664.929,432.176
664.739,431.862
664.548,431.547
664.358,430.422
664.167,428.352
663.977,425.923
663.786,423.493
663.596,355.691
663.405,284.11
663.215,212.574
663.024,195.972
662.834,191.968
662.643,189.988
662.453,188.233
662.262,187.513
662.071,187.603
661.881,187.289
661.69,187.963
661.5,188.233
661.309,188.548
661.119,188.953
660.928,189.763
660.738,190.663
660.547,191.113
660.357,191.338
660.166,191.608
659.976,191.788
659.785,191.698
659.595,191.608
659.404,191.113
659.214,190.483
659.023,189.808
658.832,189.178
658.642,188.953
658.451,189.403
658.261,189.853
658.07,189.628
657.88,189.448
657.689,189.043
657.499,187.109
657.308,186.029
657.118,186.299
656.927,186.524
656.737,186.749
656.546,187.423
656.355,188.098
656.165,188.908
655.974,189.718
655.784,190.528
655.593,191.203
655.403,191.878
655.212,192.328
655.022,191.608
654.831,190.978
654.641,191.428
654.45,192.058
654.26,194.082
654.069,197.142
653.879,199.796
653.688,202.676
653.497,205.69
653.307,207.625
653.116,209.424
652.926,210.459
652.735,211.224
652.545,211.899
652.354,212.619
652.164,212.844
651.973,213.024
651.783,213.204
651.592,213.339
651.402,213.518
651.211,213.608
651.021,213.698
650.83,213.788
650.64,213.923
650.449,213.968
650.258,214.013
650.068,213.833
649.877,213.653
649.687,213.474
649.496,214.733
649.306,213.114
649.115,211.674
648.925,210.054
648.734,208.479
648.544,206.86
648.353,205.24
648.163,203.305
647.972,201.326
647.782,199.391
647.591,197.412
647.4,195.792
647.21,194.262
647.019,192.777
646.829,191.608
646.638,190.663
646.448,189.673
646.257,188.728
646.067,187.963
645.876,187.244
645.686,186.524
645.495,185.849
645.305,185.129
645.114,184.409
644.924,183.779
644.733,182.789
644.542,181.8
644.352,180.855
644.161,178.245
643.971,181.53
643.78,183.149
643.59,184.769
643.399,186.434
643.209,187.963
643.018,189.538
642.828,191.113
642.637,193.047
642.447,195.522
642.256,196.287
642.066,193.407
641.875,191.968
641.685,190.528
641.494,188.998
641.303,186.929
641.113,185.264
640.922,183.599
640.732,181.845
640.541,180.045
640.351,178.2
640.16,176.311
639.97,173.656
639.779,171.047
639.589,168.617
639.398,166.053
639.208,163.623
639.017,160.879
638.827,158.224
638.636,156.919
638.445,155.75
638.255,155.075
638.064,154.76
637.874,154.535
637.683,154.22
637.493,153.275
637.302,152.105
637.112,150.261
636.921,147.336
636.731,144.502
636.54,141.802
636.35,139.148
636.159,136.718
635.969,134.604
635.778,134.199
635.587,133.794
635.397,133.614
635.206,133.479
635.016,133.299
634.825,133.164
634.635,132.579
634.444,131.949
634.254,131.319
634.063,130.689
633.873,128.575
633.682,126.505
633.492,124.571
633.301,122.636
633.111,120.971
632.92,119.622
632.729,119.622
632.539,119.262
632.348,122.906
632.158,128.17
631.967,133.704
631.777,137.168
631.586,139.193
631.396,139.823
631.205,139.553
631.015,138.968
630.824,138.113
630.634,137.213
630.443,136.358
630.253,135.863
630.062,136.223
629.872,136.583
629.681,137.258
629.49,139.013
629.3,141.847
629.109,145.851
628.919,149.721
628.728,153.5
628.538,156.199
628.347,158.494
628.157,159.934
627.966,161.419
627.776,163.308
627.585,165.153
627.395,167.537
627.204,189.088
627.014,189.358
626.823,189.403
626.632,188.368
626.442,189.763
626.251,179.235
626.061,174.601
625.87,170.057
625.68,165.468
625.489,160.834
625.299,156.829
625.108,156.289
624.918,157.279
624.727,161.823
624.537,167.852
624.346,173.791
624.156,179.775
623.965,186.659
623.774,192.238
623.584,195.972
623.393,200.921
623.203,205.465
623.012,209.694
622.822,213.653
622.631,217.343
622.441,221.167
622.25,225.351
622.06,229.49
621.869,232.505
621.679,235.339
621.488,237.769
621.298,239.703
621.107,239.703
620.917,239.613
620.726,238.894
620.535,237.454
620.345,235.699
620.154,233.675
619.964,231.695
619.773,229.985
619.583,228.276
619.392,226.206
619.202,223.956
619.011,221.797
618.821,219.142
618.63,216.173
618.44,213.204
618.249,209.424
618.059,205.645
617.868,202.766
617.677,201.281
617.487,199.976
617.296,199.526
617.106,199.076
616.915,198.626
616.725,197.727
616.534,196.827
616.344,195.162
616.153,193.047
615.963,191.878
615.772,191.518
615.582,191.293
615.391,191.293
615.201,191.293
615.01,191.338
614.819,191.428
614.629,191.428
614.438,190.933
614.248,191.563
614.057,191.923
613.867,192.463
613.676,193.497
613.486,194.622
613.295,195.927
613.105,197.547
612.914,199.301
612.724,201.461
612.533,204.43
612.343,208.524
612.152,214.463
611.961,222.292
611.771,230.03
611.58,235.204
611.39,240.468
611.199,245.597
611.009,250.771
610.818,255.945
610.628,261.479
610.437,267.328
610.247,273.177
610.056,282.13
609.866,340.934
609.675,351.102
609.485,359.156
609.294,364.33
609.104,369.189
608.913,373.553
608.722,375.847
608.532,376.432
608.341,376.972
608.151,377.377
607.96,377.647
607.77,377.827
607.579,378.097
607.389,383.316
607.198,396.318
607.008,401.717
606.817,403.517
606.627,405.182
606.436,406.126
606.245,407.026
606.055,407.611
605.864,408.241
605.674,409.276
605.483,410.266
605.293,411.255
605.102,412.38
604.912,414.18
604.721,415.98
604.531,417.869
604.34,420.524
604.15,423.178
603.959,425.383
603.769,427.137
603.578,427.272
603.388,427.452
603.197,427.632
603.006,429.297
602.816,426.778
602.625,424.123
602.435,420.254
602.244,415.935
602.054,411.57
601.863,407.206
601.673,399.018
601.482,393.934
601.292,391.324
601.101,388.76
600.911,386.24
600.72,383.001
600.53,379.807
600.339,376.657
600.148,373.148
599.958,367.839
599.767,355.691
599.577,349.482
599.386,344.983
599.196,340.574
599.005,336.48
598.815,330.001
598.624,321.948
598.434,315.289
598.243,309.035
598.053,303.006
597.862,299.002
597.672,294.998
597.481,291.084
597.291,287.574
597.1,284.02
596.909,280.691
596.719,277.451
596.528,274.257
596.338,270.343
596.147,265.708
595.957,261.074
595.766,256.35
595.576,251.356
595.385,246.047
595.195,240.468
595.004,234.349
594.814,221.302
594.623,207.31
594.432,204.61
594.242,201.596
594.051,198.761
593.861,196.602
593.67,194.487
593.48,192.373
593.289,190.528
593.099,188.863
592.908,187.109
592.718,184.184
592.527,176.806
592.337,171.856
592.146,168.842
591.956,167.267
591.765,165.783
591.575,164.343
591.384,163.038
591.193,161.733
591.003,160.429
590.812,158.899
590.622,157.369
590.431,155.84
590.241,154.265
590.05,152.51
589.86,150.756
589.669,148.956
589.479,147.606
589.288,146.166
589.098,144.817
588.907,143.422
588.717,142.027
588.526,140.722
588.335,139.328
588.145,137.978
587.954,136.673
587.764,135.638
587.573,135.009
587.383,134.424
587.192,133.749
587.002,133.164
586.811,133.164
586.621,133.524
586.43,134.019
586.24,135.638
586.049,137.258
585.859,139.148
585.668,141.307
585.478,144.142
585.287,148.101
585.096,152.96
584.906,160.339
584.715,166.682
584.525,172.486
584.334,177.615
584.144,181.665
583.953,184.409
583.763,187.109
583.572,189.538
583.382,191.833
583.191,193.947
583.001,194.397
582.81,194.847
582.62,193.722
582.429,194.982
582.238,194.622
582.048,194.307
581.857,193.992
581.667,193.542
581.476,193.092
581.286,192.643
581.095,192.193
580.905,191.698
580.714,191.113
580.524,190.528
580.333,189.808
580.143,189.043
579.952,188.278
579.762,187.513
579.571,186.749
579.38,185.984
579.19,184.994
578.999,184.049
578.809,183.104
578.618,182.294
578.428,181.62
578.237,180.855
578.047,181.305
577.856,180.45
577.666,182.025
577.475,184.409
577.285,187.513
577.094,191.023
576.904,194.442
576.713,197.052
576.522,198.761
576.332,197.547
576.141,196.737
575.951,195.612
575.76,193.812
575.57,191.563
575.379,188.908
575.189,186.434
574.998,184.724
574.808,184.364
574.617,184.184
574.427,185.084
574.236,185.489
574.046,186.029
573.855,186.929
573.665,187.693
573.474,188.683
573.283,189.583
573.093,189.988
572.902,190.213
572.712,190.348
572.521,190.393
572.331,190.483
572.14,190.528
571.95,190.213
571.759,189.808
571.569,189.358
571.378,188.593
571.188,187.558
570.997,186.524
570.807,185.219
570.616,183.914
570.425,182.474
570.235,180.945
570.044,179.415
569.854,177.12
569.663,174.331
569.473,171.587
569.282,168.932
569.092,166.053
568.901,163.488
568.711,161.913
568.52,160.384
568.33,158.899
568.139,157.639
567.949,156.604
567.758,155.57
567.568,155.75
567.377,155.93
567.186,155.93
566.996,155.885
566.805,158.719
566.615,160.339
566.424,168.212
566.234,183.599
566.043,198.986
565.853,214.373
565.662,229.76
565.472,245.147
565.281,258.87
565.091,260.759
564.9,255.001
564.709,242.043
564.519,230.975
564.328,225.171
564.138,219.277
563.947,216.038
563.757,215.408
563.566,215.408
563.376,220.717
563.185,234.664
562.995,239.973
562.804,241.548
562.614,242.043
562.423,241.638
562.233,240.963
562.042,239.613
561.852,237.724
561.661,236.959
561.47,237.004
561.28,237.454
561.089,239.074
560.899,241.953
560.708,245.372
560.518,248.207
560.327,247.667
560.137,246.677
559.946,241.638
559.756,235.969
559.565,233.045
559.375,230.435
559.184,228.366
558.994,227.151
558.803,226.341
558.612,225.486
558.422,226.521
558.231,233.27
558.041,246.047
557.85,258.825
557.66,267.238
557.469,271.467
557.279,273.852
557.088,276.281
556.898,278.036
556.707,279.656
556.517,281.275
556.326,282.805
556.136,284.335
555.945,285.865
555.755,286.899
555.564,287.754
555.373,287.664
555.183,287.934
554.992,284.965
554.802,276.731
554.611,268.498
554.421,260.22
554.23,251.986
554.04,243.753
553.849,238.219
553.659,233.45
553.468,228.951
553.278,224.586
553.087,220.537
552.896,216.623
552.706,213.024
552.515,204.16
552.325,194.127
552.134,187.738
551.944,183.554
551.753,179.775
551.563,177.435
551.372,175.231
551.182,173.701
550.991,172.801
550.801,172.621
550.61,172.621
550.42,173.431
550.229,173.701
550.039,174.466
549.848,175.231
549.657,177.3
549.467,178.83
549.276,180.63
549.086,183.734
548.895,187.064
548.705,193.542
548.514,226.476
548.324,230.03
548.133,230.39
547.943,230.21
547.752,229.67
547.562,228.726
547.371,227.601
547.181,226.791
546.99,235.654
546.799,251.356
546.609,267.148
546.418,282.94
546.228,298.732
546.037,314.524
545.847,330.316
545.656,346.063
545.466,361.9
545.275,377.647
545.085,393.529
544.894,410.851
544.704,421.828
544.513,427.272
544.323,436.136
544.132,438.655
543.941,439.015
543.751,437.26
543.56,435.506
543.37,432.671
543.179,429.837
542.989,428.757
542.798,428.757
542.608,428.712
542.417,429.162
542.227,427.767
542.036,430.917
541.846,432.311
541.655,434.741
541.465,436.451
541.274,437.35
541.083,438.835
540.893,435.011
540.702,433.031
540.512,432.446
540.321,432.221
540.131,432.042
539.94,431.817
539.75,431.457
539.559,430.422
539.369,428.397
539.178,425.653
538.988,423.088
538.797,422.188
538.607,422.143
538.416,422.503
538.226,422.773
538.035,422.818
537.844,422.818
537.654,420.119
537.463,410.806
537.273,390.919
537.082,371.033
536.892,341.024
536.701,332.341
536.511,319.878
536.32,308.675
536.13,297.562
535.939,252.166
535.749,240.963
535.558,232.595
535.368,225.711
535.177,221.347
534.986,216.983
534.796,212.304
534.605,207.22
534.415,202.181
534.224,197.727
534.034,193.767
533.843,189.808
533.653,184.364
533.462,178.785
533.272,173.296
533.081,167.852
532.891,163.083
532.7,158.719
532.51,154.22
532.319,151.25
532.128,148.461
531.938,145.717
531.747,142.972
531.557,140.138
531.366,137.573
531.176,135.324
530.985,133.074
530.795,130.779
530.604,128.53
530.414,126.28
530.223,123.986
530.033,121.691
529.842,119.397
529.652,117.102
529.461,115.212
529.271,113.773
529.08,112.333
528.889,110.893
528.699,109.453
528.508,108.014
528.318,106.979
528.127,106.034
527.937,105.179
527.746,104.234
527.556,103.38
527.365,102.48
527.175,101.265
526.984,100.05
526.794,98.8355
526.603,97.6208
526.412,96.406
526.222,95.2812
526.031,94.2464
525.841,93.2116
525.65,92.1768
525.46,91.007
525.269,89.3423
525.079,87.6327
524.888,85.968
524.698,84.3033
524.507,82.6836
524.317,80.974
524.126,79.3993
523.936,77.8695
523.745,76.3848
523.555,74.9001
523.364,73.4154
523.173,71.8857
522.983,70.311
522.792,68.5113
522.602,67.5215
522.411,67.5665
522.221,67.8365
522.03,66.6667
521.84,69.2312
521.649,70.266
521.459,71.6158
521.268,73.4154
521.078,75.2151
520.887,77.1497
520.697,79.1293
520.506,81.019
520.315,82.3687
520.125,83.6284
519.934,84.9332
519.744,85.2931
519.553,85.5181
519.363,85.788
519.172,86.6429
518.982,87.5877
518.791,88.8924
518.601,90.4671
518.41,92.0418
518.22,93.9315
518.029,96.0461
517.839,98.1157
517.648,100.095
517.458,102.165
517.267,104.234
517.076,105.989
516.886,107.609
516.695,109.229
516.505,110.848
516.314,111.658
516.124,112.333
515.933,113.008
515.743,113.188
515.552,113.188
515.362,113.188
515.171,113.098
514.981,112.873
514.79,112.648
514.599,112.423
514.409,112.198
514.218,111.973
514.028,111.523
513.837,111.028
513.647,110.623
513.456,110.398
513.266,110.128
513.075,109.903
512.885,109.948
512.694,109.993
512.504,110.263
512.313,110.713
512.123,111.208
511.932,111.703
511.742,112.468
511.551,113.503
511.36,114.583
511.17,115.662
510.979,116.742
510.789,117.822
510.598,118.992
510.408,120.206
510.217,121.421
510.027,122.636
509.836,123.761
509.646,124.841
509.455,125.92
509.265,127
509.074,128.08
508.884,129.07
508.693,129.97
508.503,130.869
508.312,131.769
508.121,132.669
507.931,133.569
507.74,134.199
507.55,134.739
507.359,135.324
507.169,135.908
506.978,136.448
506.788,137.033
506.597,137.438
506.407,137.663
506.216,137.888
506.026,138.158
505.835,138.383
505.645,138.608
505.454,138.833
505.263,139.058
505.073,139.328
504.882,139.463
504.692,139.553
504.501,139.643
504.311,139.778
504.12,139.868
503.93,139.868
503.739,139.733
503.549,139.598
503.358,139.463
503.168,140.048
502.977,139.193
502.787,138.923
502.596,138.383
502.405,137.933
502.215,137.393
502.024,136.853
501.834,136.268
501.643,135.728
501.453,135.548
501.262,135.548
501.072,135.503
500.881,133.254
500.691,136.088
500.5,136.718
500.31,137.483
500.119,138.248
499.929,139.733
499.738,141.262
499.547,143.827
499.357,145.537
499.166,146.841
498.976,147.696
498.785,148.146
498.595,148.146
498.404,148.146
498.214,147.831
498.023,147.336
497.833,146.841
497.642,145.851
497.452,144.232
497.261,141.982
497.071,139.418
496.88,136.538
496.689,133.479
496.499,129.205
496.308,126.955
496.118,124.751
495.927,123.086
495.737,121.376
495.546,119.712
495.356,118.092
495.165,116.472
494.975,115.302
494.784,114.178
494.594,113.638
494.403,113.458
494.213,113.368
494.022,113.323
493.832,113.323
493.641,113.323
493.45,113.188
493.26,113.053
493.069,112.918
492.879,112.828
492.688,112.693
492.498,112.423
492.307,112.153
492.117,111.478
491.926,110.578
491.736,109.723
491.545,108.464
491.355,107.204
491.164,105.989
490.974,104.639
490.783,103.245
490.592,101.805
490.402,100.365
490.211,98.6555
490.021,96.316
489.83,94.6513
489.64,93.2116
489.449,92.2218
489.259,91.7269
489.068,91.232
488.878,90.872
488.687,90.6021
488.497,90.3771
488.306,90.1522
488.116,89.9272
487.925,89.6573
487.734,89.4323
487.544,89.1624
487.353,88.8924
487.163,88.6225
486.972,88.3075
486.782,88.0376
486.591,87.7677
486.401,87.4977
486.21,87.3177
486.02,87.1827
485.829,86.9578
485.639,86.7778
485.448,86.5979
485.258,86.4629
485.067,86.2829
484.876,86.103
484.686,85.968
484.495,85.788
484.305,85.6081
484.114,85.4731
483.924,85.2931
483.733,85.1581
483.543,84.9782
483.352,84.7982
483.162,84.6183
482.971,84.4833
482.781,84.2583
482.59,84.0783
482.4,83.9434
482.209,83.7634
482.019,83.5835
481.828,83.4485
481.637,83.4035
481.447,83.3585
481.256,83.3135
481.066,83.2685
480.875,83.2235
480.685,83.1785
480.494,83.1335
480.304,83.0435
480.113,82.9986
479.923,82.9536
479.732,82.9086
479.542,82.8636
479.351,82.8186
479.161,82.7736
478.97,82.9086
478.779,82.5937
478.589,82.5486
478.398,82.4137
478.208,82.2787
478.017,82.2337
477.827,82.0988
477.636,82.0988
477.446,82.0988
477.255,82.0988
477.065,82.1437
476.874,82.2337
476.684,82.3687
476.493,82.3687
476.303,82.4586
476.112,82.5486
475.921,82.6836
475.731,82.7286
475.54,82.7736
475.35,82.8186
475.159,82.9086
474.969,82.9536
474.778,82.9986
474.588,83.0886
474.397,83.2235
474.207,83.3135
474.016,83.4485
473.826,83.5835
473.635,83.6734
473.445,83.8084
473.254,83.8984
473.064,84.0334
472.873,84.1683
472.682,84.2583
472.492,84.3933
472.301,84.4833
472.111,84.6183
471.92,84.7083
471.73,84.8432
471.539,84.9782
471.349,85.0681
471.158,85.2032
470.968,85.2931
470.777,85.3831
470.587,85.4281
470.396,85.4281
470.206,85.4731
470.015,85.5181
469.824,85.5181
469.634,85.563
469.443,85.563
469.253,85.6081
469.062,85.6081
468.872,85.6531
468.681,85.743
468.491,85.833
468.3,85.878
468.11,85.968
467.919,86.058
467.729,86.103
467.538,86.1929
467.348,86.2829
467.157,86.3279
466.966,86.4179
466.776,86.4629
466.585,86.5529
466.395,86.6429
466.204,86.7778
466.014,86.8678
465.823,86.9578
465.633,87.0928
465.442,87.1827
465.252,87.3177
465.061,87.4077
464.871,87.5427
464.68,87.6327
464.49,87.7677
464.299,87.8576
464.108,87.9926
463.918,88.0826
463.727,88.2176
463.537,88.3075
463.346,88.4425
463.156,88.5325
462.965,88.6225
462.775,88.7125
462.584,88.8024
462.394,88.8924
462.203,88.9824
462.013,89.1174
461.822,89.1624
461.632,89.2974
461.441,89.4323
461.25,89.4323
461.06,89.5223
460.869,89.5673
460.679,89.6123
460.488,89.7023
460.298,89.7473
460.107,89.8372
459.917,89.8823
459.726,89.9272
459.536,90.0172
459.345,90.0622
459.155,90.1522
458.964,90.1972
458.774,90.2872
458.583,90.3771
458.393,90.4671
458.202,90.5571
458.011,90.6471
457.821,90.6921
457.63,90.7821
457.44,90.872
457.249,90.962
457.059,91.052
456.868,91.097
456.678,91.232
456.487,91.232
456.297,91.232
456.106,91.232
455.916,91.142
455.725,91.142
455.535,91.142
455.344,91.097
455.153,91.097
454.963,91.097
454.772,91.097
454.582,91.052
454.391,91.052
454.201,91.052
454.01,91.052
453.82,91.007
453.629,91.007
453.439,91.007
453.248,91.052
453.058,91.052
452.867,91.052
452.677,91.052
452.486,91.097
452.295,91.097
452.105,91.097
451.914,91.097
451.724,91.097
451.533,91.142
451.343,91.142
451.152,91.142
450.962,91.142
450.771,91.142
450.581,91.232
450.39,91.232
450.2,91.097
450.009,91.007
449.819,90.9171
449.628,90.8271
449.438,90.7371
449.247,90.6921
449.056,90.6021
448.866,90.5121
448.675,90.4221
448.485,90.3322
448.294,90.2422
448.104,90.1522
447.913,90.0622
447.723,89.9722
447.532,89.9272
447.342,89.7923
447.151,89.6123
446.961,89.4773
446.77,89.3423
446.58,89.1624
446.389,89.0274
446.198,88.8924
446.008,88.7125
445.817,88.5775
445.627,88.4425
445.436,88.2626
445.246,88.1276
445.055,88.0376
444.865,87.9926
444.674,87.9476
444.484,87.9026
444.293,87.8576
444.103,87.8126
443.912,87.8126
443.722,87.8126
443.531,87.8126
443.34,87.7677
443.15,87.7677
442.959,87.8126
442.769,87.8126
442.578,87.8576
442.388,87.9026
442.197,87.9026
442.007,87.9476
441.816,87.9926
441.626,87.9926
441.435,88.0376
441.245,88.0826
441.054,88.1276
440.864,88.1276
440.673,88.1726
440.482,88.1726
440.292,88.1276
440.101,88.1276
439.911,88.1276
439.72,88.1276
439.53,88.0826
439.339,88.0826
439.149,88.0826
438.958,88.0826
438.768,88.0376
438.577,88.0376
438.387,88.0376
438.196,88.0376
438.006,87.9926
437.815,87.9026
437.625,87.8576
437.434,87.7677
437.243,87.7227
437.053,87.6327
436.862,87.5877
436.672,87.4977
436.481,87.4527
436.291,87.3627
436.1,87.3177
435.91,87.2278
435.719,87.1827
435.529,87.0928
435.338,87.0478
435.148,86.9578
434.957,86.8678
434.767,86.7778
434.576,86.7328
434.385,86.5979
434.195,86.5079
434.004,86.4179
433.814,86.3279
433.623,86.2379
433.433,86.1929
433.242,86.148
433.052,86.103
432.861,86.058
432.671,86.058
432.48,86.013
432.29,86.013
432.099,85.968
431.909,85.923
431.718,85.878
431.527,85.878
431.337,85.833
431.146,85.788
430.956,85.788
430.765,85.833
430.575,85.878
430.384,85.923
430.194,85.968
430.003,86.058
429.813,86.103
429.622,86.148
429.432,86.1929
429.241,86.2829
429.051,86.3729
428.86,86.5079
428.669,86.6429
428.479,86.7778
428.288,86.9128
428.098,87.0478
427.907,87.1827
427.717,87.3177
427.526,87.4527
427.336,87.5877
427.145,87.6777
426.955,87.8576
426.764,88.0376
426.574,88.3075
426.383,88.5325
426.193,88.8024
426.002,89.0274
425.811,89.2974
425.621,89.5223
425.43,89.7923
425.24,90.0172
425.049,90.1522
424.859,90.2872
424.668,90.3771
424.478,90.4671
424.287,90.5571
424.097,90.6021
423.906,90.6921
423.716,90.7821
423.525,90.872
423.335,90.9171
423.144,91.007
422.954,91.007
422.763,91.007
422.572,90.9171
422.382,90.872
422.191,90.8271
422.001,90.7821
421.81,90.6921
421.62,90.6471
421.429,90.5571
421.239,90.5121
421.048,90.4221
420.858,90.3771
420.667,90.3322
420.477,90.2872
420.286,90.2422
420.096,90.1972
419.905,90.1522
419.714,90.1072
419.524,90.0172
419.333,89.9722
419.143,89.9272
418.952,89.8823
418.762,89.8823
418.571,89.8823
418.381,89.8823
418.19,89.9272
418,89.9722
417.809,90.0172
417.619,90.0622
417.428,90.1072
417.238,90.1522
417.047,90.1972
416.856,90.2422
416.666,90.3322
416.475,90.3771
416.285,90.5121
416.094,90.6021
415.904,90.7371
415.713,90.8271
415.523,90.962
415.332,91.052
415.142,91.232
414.951,91.277
414.761,91.412
414.57,91.5469
414.38,91.6819
414.189,91.7269
413.999,91.8618
413.808,91.9518
413.617,92.0868
413.427,92.1768
413.236,92.3118
413.046,92.4018
412.855,92.5367
412.665,92.6267
412.474,92.8067
412.284,92.9417
412.093,93.1666
411.903,93.3916
411.712,93.6165
411.522,93.7965
411.331,94.0215
411.141,94.2014
410.95,94.3814
410.759,94.5613
410.569,94.7413
410.378,94.8763
410.188,95.0563
409.997,95.2362
409.807,95.4162
409.616,95.5511
409.426,95.6411
409.235,95.7311
409.045,95.8661
408.854,95.8661
408.664,95.9561
408.473,96.0461
408.283,96.181
408.092,96.181
407.901,96.181
407.711,96.181
407.52,96.181
407.33,96.181
407.139,96.091
406.949,96.0461
406.758,96.0461
406.568,95.9111
406.377,95.8661
406.187,95.7761
405.996,95.7311
405.806,95.5961
405.615,95.5511
405.425,95.4612
405.234,95.4162
405.043,95.3262
404.853,95.3262
404.662,95.3262
404.472,95.3262
404.281,95.3262
404.091,95.3262
403.9,95.3262
403.71,95.3712
403.519,95.3712
403.329,95.4162
403.138,95.4612
402.948,95.5511
402.757,95.5961
402.567,95.6411
402.376,95.7311
402.186,95.7761
401.995,95.8661
401.804,95.8661
401.614,95.9111
401.423,96.0461
401.233,96.091
401.042,96.181
400.852,96.271
400.661,96.361
400.471,96.451
400.28,96.541
400.09,96.5859
399.899,96.676
399.709,96.7659
399.518,96.8559
399.328,96.9459
399.137,97.0359
398.946,97.1259
398.756,97.2158
398.565,97.3058
398.375,97.3958
398.184,97.4858
397.994,97.5758
397.803,97.6657
397.613,97.7557
397.422,97.8457
397.232,97.9807
397.041,98.0257
396.851,98.1157
396.66,98.2056
396.47,98.2956
396.279,98.4306
396.088,98.4756
395.898,98.5656
395.707,98.6555
395.517,98.7455
395.326,98.8355
395.136,98.9255
394.945,99.0155
394.755,99.0605
394.564,99.1505
394.374,99.2404
394.183,99.3304
393.993,99.4204
393.802,99.5104
393.612,99.6004
393.421,99.6904
393.23,99.7803
393.04,99.8703
392.849,99.9603
392.659,100.05
392.468,100.095
392.278,100.23
392.087,100.23
391.897,100.365
391.706,100.41
391.516,100.545
391.325,100.545
391.135,100.68
390.944,100.68
390.754,100.77
390.563,100.815
390.372,100.905
390.182,100.995
389.991,101.085
389.801,101.13
389.61,101.175
389.42,101.175
389.229,101.22
389.039,101.22
388.848,101.22
388.658,101.22
388.467,101.265
388.277,101.265
388.086,101.31
387.896,101.31
387.705,101.31
387.515,101.31
387.324,101.355
387.133,101.355
386.943,101.355
386.752,101.355
386.562,101.4
386.371,101.4
386.181,101.4
385.99,101.4
385.8,101.4
385.609,101.4
385.419,101.4
385.228,101.4
385.038,101.4
384.847,101.4
384.657,101.4
384.466,101.4
384.275,101.4
384.085,101.355
383.894,101.355
383.704,101.355
383.513,101.355
383.323,101.355
383.132,101.355
382.942,101.355
382.751,101.355
382.561,101.31
382.37,101.31
382.18,101.31
381.989,101.31
381.799,101.31
381.608,101.355
381.418,101.355
381.227,101.355
381.036,101.355
380.846,101.4
380.655,101.4
380.465,101.4
380.274,101.4
380.084,101.4
379.893,101.4
379.703,101.49
379.512,101.535
379.322,101.625
379.131,101.715
378.941,101.805
378.75,101.895
378.56,101.985
378.369,102.075
378.178,102.165
377.988,102.255
377.797,102.345
377.607,102.48
377.416,102.615
377.226,102.705
377.035,102.84
376.845,102.93
376.654,103.065
376.464,103.155
376.273,103.29
376.083,103.38
375.892,103.515
375.702,103.65
375.511,103.785
375.32,103.875
375.13,104.01
374.939,104.1
374.749,104.234
374.558,104.324
374.368,104.459
374.177,104.549
373.987,104.729
373.796,104.864
373.606,105.044
373.415,105.179
373.225,105.359
373.034,105.494
372.844,105.674
372.653,105.809
372.462,105.989
372.272,106.124
372.081,106.304
371.891,106.439
371.7,106.619
371.51,106.799
371.319,106.979
371.129,107.114
370.938,107.294
370.748,107.429
370.557,107.609
370.367,107.744
370.176,107.924
369.986,108.059
369.795,108.239
369.604,108.374
369.414,108.554
369.223,108.689
369.033,108.869
368.842,109.049
368.652,109.363
368.461,109.543
368.271,109.813
368.08,110.038
367.89,110.308
367.699,110.533
367.509,110.803
367.318,111.028
367.128,111.253
366.937,111.478
366.747,111.793
366.556,111.973
366.365,112.243
366.175,112.468
365.984,112.783
365.794,113.053
365.603,113.368
365.413,113.638
365.222,113.953
365.032,114.223
364.841,114.538
364.651,114.807
364.46,115.122
364.27,115.392
364.079,115.707
363.889,115.977
363.698,116.292
363.507,116.562
363.317,116.832
363.126,117.057
362.936,117.282
362.745,117.462
362.555,117.687
362.364,117.867
362.174,118.092
361.983,118.272
361.793,118.542
361.602,118.677
361.412,118.947
361.221,119.172
361.031,119.667
360.84,120.116
360.649,120.611
360.459,121.061
360.268,121.556
360.078,122.006
359.887,122.726
359.697,123.356
359.506,124.211
359.316,125.02
359.125,125.83
358.935,126.64
358.744,127.54
358.554,128.305
358.363,129.115
358.173,129.925
357.982,130.734
357.792,131.544
357.601,132.399
357.41,133.254
357.22,134.199
357.029,135.099
356.839,135.953
356.648,136.763
356.458,137.078
356.267,137.348
356.077,137.663
355.886,137.933
355.696,138.248
355.505,138.518
355.315,138.518
355.124,138.518
354.934,138.473
354.743,138.293
354.552,138.068
354.362,137.843
354.171,137.393
353.981,136.943
353.79,136.403
353.6,135.863
353.409,135.144
353.219,134.424
353.028,133.974
352.838,133.434
352.647,132.984
352.457,132.489
352.266,132.174
352.076,131.859
351.885,131.724
351.694,131.589
351.504,131.499
351.313,131.409
351.123,131.724
350.932,131.904
350.742,132.444
350.551,132.939
350.361,133.659
350.17,134.424
349.98,135.054
349.789,135.728
349.599,136.358
349.408,136.898
349.218,137.483
349.027,138.023
348.836,138.608
348.646,139.148
348.455,139.688
348.265,140.228
348.074,140.767
347.884,141.307
347.693,141.487
347.503,141.667
347.312,141.802
347.122,141.937
346.931,142.072
346.741,142.162
346.55,142.162
346.36,142.117
346.169,141.937
345.979,141.712
345.788,141.487
345.597,141.262
345.407,141.037
345.216,140.857
345.026,139.823
344.835,138.788
344.645,137.933
344.454,137.078
344.264,136.538
344.073,135.863
343.883,135.728
343.692,135.548
343.502,135.548
343.311,135.548
343.121,135.548
342.93,135.548
342.739,135.638
342.549,135.728
342.358,135.818
342.168,135.908
341.977,136.043
341.787,136.133
341.596,136.223
341.406,136.358
341.215,136.898
341.025,137.438
340.834,138.113
340.644,138.788
340.453,139.328
340.263,139.868
340.072,140.138
339.881,140.363
339.691,140.497
339.5,140.633
339.31,140.767
339.119,140.857
338.929,141.037
338.738,141.172
338.548,141.307
338.357,141.442
338.167,141.577
337.976,141.712
337.786,141.847
337.595,141.982
337.405,142.117
337.214,142.207
337.023,142.297
336.833,142.387
336.642,142.522
336.452,142.612
336.261,142.747
336.071,142.837
335.88,142.972
335.69,143.107
335.499,143.287
335.309,143.422
335.118,143.692
334.928,143.917
334.737,144.142
334.547,144.367
334.356,144.637
334.166,144.862
333.975,145.087
333.784,145.357
333.594,145.582
333.403,145.806
333.213,146.031
333.022,146.256
332.832,146.526
332.641,146.751
332.451,147.066
332.26,147.381
332.07,147.786
331.879,148.056
331.689,148.371
331.498,148.686
331.308,149.001
331.117,149.316
330.926,149.721
330.736,150.036
330.545,150.306
330.355,150.621
330.164,151.07
329.974,151.52
329.783,151.97
329.593,152.42
329.402,152.87
329.212,153.32
329.021,153.77
328.831,154.22
328.64,154.67
328.45,155.12
328.259,155.57
328.068,156.02
327.878,156.604
327.687,157.099
327.497,157.684
327.306,158.224
327.116,158.764
326.925,159.304
326.735,159.889
326.544,160.429
326.354,160.969
326.163,161.508
325.973,162.093
325.782,162.633
325.592,163.218
325.401,163.713
325.211,164.433
325.02,165.018
324.829,165.738
324.639,166.368
324.448,167.042
324.258,167.717
324.067,168.437
323.877,169.067
323.686,169.742
323.496,170.417
323.305,171.092
323.115,171.767
322.924,172.621
322.734,173.341
322.543,174.286
322.353,175.231
322.162,176.176
321.971,177.165
321.781,178.065
321.59,179.055
321.4,179.955
321.209,180.9
321.019,181.71
320.828,182.474
320.638,183.194
320.447,183.914
320.257,184.679
320.066,185.309
319.876,186.029
319.685,186.749
319.495,187.469
319.304,188.233
319.113,188.908
318.923,189.628
318.732,190.348
318.542,191.113
318.351,191.833
318.161,192.598
317.97,193.362
317.78,194.082
317.589,194.847
317.399,195.612
317.208,196.377
317.018,197.142
316.827,197.906
316.637,198.626
316.446,199.661
316.255,200.696
316.065,202.046
315.874,203.305
315.684,204.655
315.493,205.96
315.303,207.265
315.112,208.614
314.922,210.144
314.731,211.674
314.541,213.474
314.35,215.273
314.16,216.398
313.969,217.523
313.779,218.558
313.588,219.592
313.397,220.537
313.207,221.527
313.016,222.022
312.826,222.517
312.635,222.922
312.445,223.192
312.254,223.462
312.064,223.732
311.873,224.046
311.683,224.271
311.492,224.856
311.302,225.396
311.111,226.206
310.921,227.016
310.73,227.871
310.539,228.726
310.349,230.705
310.158,232.64
309.968,234.979
309.777,237.274
309.587,244.698
309.396,252.076
309.206,255.765
309.015,259.41
308.825,261.164
308.634,262.919
308.444,264.134
308.253,265.304
308.063,266.203
307.872,267.103
307.682,267.868
307.491,268.633
307.3,269.398
307.11,270.163
306.919,270.792
306.729,271.422
306.538,271.827
306.348,272.232
306.157,272.637
305.967,272.997
305.776,273.402
305.586,273.807
305.395,274.167
305.205,274.437
305.014,274.797
304.824,275.112
304.633,275.427
304.442,275.742
304.252,276.056
304.061,276.416
303.871,276.731
303.68,277.046
303.49,277.721
303.299,278.351
303.109,279.161
302.918,279.926
302.728,280.691
302.537,281.455
302.347,282.49
302.156,283.525
301.966,284.65
301.775,285.73
301.584,286.989
301.394,288.249
301.203,289.824
301.013,291.399
300.822,293.018
300.632,294.638
300.441,296.977
300.251,299.272
300.06,301.971
299.87,304.671
299.679,308.585
299.489,312.499
299.298,314.884
299.108,317.269
298.917,319.608
298.727,321.903
298.536,324.062
298.345,326.177
298.155,328.246
297.964,330.271
297.774,332.341
297.583,334.365
297.393,337.155
297.202,339.899
297.012,342.734
296.821,345.523
296.631,347.323
296.44,349.122
296.25,349.842
296.059,350.562
295.869,351.282
295.678,352.002
295.487,352.722
295.297,353.442
295.106,354.161
294.916,354.746
294.725,355.061
294.535,355.331
294.344,355.691
294.154,355.961
293.963,356.501
293.773,357.041
293.582,357.806
293.392,358.571
293.201,360.37
293.011,362.125
292.82,366.579
292.629,371.033
292.439,376.072
292.248,381.156
292.058,388.265
291.867,395.374
291.677,400.323
291.486,405.272
291.296,409.456
291.105,413.64
290.915,417.194
290.724,420.704
290.534,424.258
290.343,427.767
290.153,430.782
289.962,433.751
289.771,436.676
289.581,439.645
289.39,442.884
289.2,446.169
289.009,449.543
288.819,452.872
288.628,457.327
288.438,461.781
288.247,465.74
288.057,469.699
287.866,473.254
287.676,476.763
287.485,484.276
287.295,491.745
287.104,495.839
286.914,499.933
286.723,502.138
286.532,504.298
286.342,506.007
286.151,507.672
285.961,509.157
285.77,510.641
285.58,511.631
285.389,512.576
285.199,513.026
285.008,513.476
284.818,513.566
284.627,513.656
284.437,513.656
284.246,513.656
284.056,513.296
283.865,512.711
283.674,512.441
283.484,511.946
283.293,511.451
283.103,510.911
282.912,510.596
282.722,510.236
282.531,509.967
282.341,509.607
282.15,509.337
281.96,509.022
281.769,508.842
281.579,508.662
281.388,508.572
281.198,508.482
281.007,508.437
280.816,508.392
280.626,508.347
280.435,508.302
280.245,508.257
280.054,508.212
279.864,508.167
279.673,508.077
279.483,508.032
279.292,507.942
279.102,507.807
278.911,507.672
278.721,506.997
278.53,506.277
278.34,505.332
278.149,504.343
277.958,503.533
277.768,502.723
277.577,502.228
277.387,501.688
277.196,501.328
277.006,500.968
276.815,500.743
276.625,500.473
276.434,500.338
276.244,500.203
276.053,500.113
275.863,499.978
275.672,499.933
275.482,499.843
275.291,499.169
275.101,498.449
274.91,495.839
274.719,493.23
274.529,489.72
274.338,486.211
274.148,483.422
273.957,480.632
273.767,477.753
273.576,474.873
273.386,472.579
273.195,470.284
273.005,468.35
272.814,466.325
272.624,464.885
272.433,463.4
272.243,462.996
272.052,462.591
271.861,462.546
271.671,462.501
271.48,463.086
271.29,463.625
271.099,465.965
270.909,461.466
270.718,470.824
270.528,473.344
270.337,476.268
270.147,479.192
269.956,480.767
269.766,482.342
269.575,483.557
269.385,484.726
269.194,485.401
269.003,486.031
268.813,486.661
268.622,487.246
268.432,487.786
268.241,488.371
268.051,488.956
267.86,489.495
267.67,490.08
267.479,490.62
267.289,491.025
267.098,491.385
266.908,491.745
266.717,492.06
266.527,492.42
266.336,492.735
266.146,492.78
265.955,492.78
265.764,492.735
265.574,492.645
265.383,492.15
265.193,491.655
265.002,490.62
264.812,493.995
264.621,488.326
264.431,487.066
264.24,485.941
264.05,484.771
263.859,483.827
263.669,482.882
263.478,481.937
263.288,480.992
263.097,480.092
262.906,479.147
262.716,478.878
262.525,478.608
262.335,478.698
262.144,478.788
261.954,479.057
261.763,479.327
261.573,479.687
261.382,476.763
261.192,480.497
261.001,480.992
260.811,481.847
260.62,482.657
260.43,483.692
260.239,484.681
260.048,485.761
259.858,486.796
259.667,488.731
259.477,490.53
259.286,492.195
259.096,493.815
258.905,495.299
258.715,496.784
258.524,498.269
258.334,499.708
258.143,501.013
257.953,502.318
257.762,503.713
257.572,505.107
257.381,505.332
257.19,505.377
257,505.332
256.809,505.332
256.619,505.107
256.428,505.917
256.238,504.523
256.047,504.163
255.857,503.848
255.666,503.533
255.476,503.173
255.285,502.768
255.095,502.363
254.904,501.913
254.714,501.868
254.523,501.823
254.333,502.093
254.142,500.833
253.951,502.993
253.761,503.623
253.57,504.433
253.38,505.197
253.189,506.367
252.999,507.537
252.808,508.527
252.618,509.517
252.427,510.371
252.237,511.181
252.046,511.811
251.856,512.441
251.665,512.531
251.475,512.621
251.284,512.621
251.093,512.576
250.903,512.531
250.712,514.286
250.522,512.216
250.331,511.946
250.141,510.776
249.95,509.562
249.76,496.784
249.569,483.962
249.379,471.274
249.188,458.541
248.998,413.505
248.807,368.469
248.617,360.91
248.426,353.352
248.235,345.748
248.045,338.145
247.854,330.991
247.664,323.792
247.473,319.248
247.283,314.749
247.092,312.095
246.902,309.485
246.711,306.876
246.521,304.266
246.33,300.982
246.14,297.652
245.949,294.188
245.759,290.724
245.568,287.799
245.377,284.83
245.187,282.13
244.996,279.386
244.806,277.136
244.615,274.842
244.425,272.682
244.234,270.523
244.044,268.948
243.853,267.328
243.663,265.753
243.472,264.179
243.282,262.559
243.091,260.894
242.901,259.185
242.71,257.43
242.52,255.9
242.329,254.326
242.138,251.671
241.948,248.882
241.757,246.812
241.567,244.742
241.376,241.638
241.186,238.489
240.995,237.229
240.805,235.969
240.614,234.709
240.424,233.405
240.233,231.965
240.043,230.525
239.852,228.906
239.662,227.286
239.471,225.666
239.28,224.091
239.09,222.472
238.899,220.762
238.709,219.142
238.518,217.523
238.328,216.173
238.137,214.733
237.947,213.339
237.756,211.899
237.566,210.549
237.375,209.109
237.185,207.85
236.994,206.59
236.804,205.6
236.613,204.61
236.422,203.575
236.232,202.541
236.041,201.596
235.851,200.516
235.66,199.841
235.47,199.121
235.279,198.446
235.089,197.772
234.898,197.097
234.708,196.422
234.517,195.792
234.327,195.162
234.136,194.487
233.946,193.857
233.755,193.272
233.564,192.732
233.374,192.103
233.183,191.473
232.993,190.933
232.802,190.348
232.612,189.718
232.421,189.178
232.231,188.728
232.04,188.368
231.85,187.963
231.659,187.513
231.469,187.154
231.278,186.749
231.088,186.344
230.897,185.984
230.707,185.534
230.516,185.129
230.325,184.769
230.135,184.409
229.944,184.094
229.754,183.779
229.563,183.464
229.373,183.059
229.182,182.744
228.992,182.429
228.801,182.115
228.611,181.8
228.42,181.485
228.23,181.08
228.039,180.81
227.849,180.54
227.658,180.315
227.467,180.09
227.277,179.865
227.086,179.595
226.896,179.415
226.705,179.145
226.515,178.965
226.324,178.695
226.134,178.47
225.943,178.245
225.753,178.065
225.562,177.84
225.372,177.705
225.181,177.525
224.991,177.435
224.8,177.21
224.609,177.12
224.419,176.896
224.228,176.806
224.038,176.581
223.847,176.446
223.657,176.266
223.466,176.221
223.276,176.221
223.085,176.176
222.895,176.176
222.704,176.176
222.514,176.176
222.323,176.176
222.133,176.176
221.942,176.176
221.751,176.221
221.561,176.266
221.37,176.356
221.18,176.491
220.989,176.626
220.799,176.806
220.608,176.896
220.418,177.03
220.227,177.165
220.037,177.3
219.846,177.48
219.656,177.66
219.465,177.84
219.275,178.065
219.084,178.29
218.894,178.515
218.703,178.74
218.512,178.965
218.322,179.235
218.131,179.415
217.941,179.685
217.75,179.91
217.56,180.18
217.369,180.45
217.179,180.675
216.988,180.945
216.798,181.215
216.607,181.485
216.417,181.71
216.226,181.98
216.036,182.204
215.845,182.474
215.654,182.699
215.464,182.969
215.273,183.194
215.083,183.464
214.892,183.734
214.702,183.959
214.511,184.229
214.321,184.409
214.13,184.589
213.94,184.769
213.749,184.949
213.559,185.129
213.368,185.264
213.178,185.444
212.987,185.624
212.796,185.624
212.606,185.579
212.415,185.534
212.225,185.444
212.034,185.399
211.844,185.309
211.653,185.264
211.463,185.174
211.272,185.084
211.082,184.994
210.891,184.949
210.701,184.859
210.51,184.769
210.32,184.679
210.129,184.589
209.939,184.499
209.748,184.409
209.557,184.364
209.367,184.229
209.176,184.184
208.986,184.049
208.795,183.959
208.605,183.914
208.414,183.779
208.224,183.599
208.033,183.464
207.843,183.329
207.652,183.194
207.462,183.059
207.271,182.879
207.081,182.744
206.89,182.564
206.699,182.429
206.509,182.294
206.318,182.16
206.128,181.98
205.937,181.845
205.747,181.71
205.556,181.665
205.366,181.53
205.175,181.395
204.985,181.35
204.794,181.305
204.604,181.215
204.413,181.08
204.223,181.08
204.032,181.08
203.841,181.215
203.651,181.305
203.46,181.35
203.27,181.485
203.079,181.53
202.889,181.71
202.698,181.845
202.508,182.204
202.317,182.519
202.127,182.879
201.936,183.194
201.746,183.599
201.555,183.914
201.365,184.274
201.174,184.589
200.983,185.039
200.793,185.444
200.602,185.849
200.412,186.299
200.221,186.704
200.031,187.109
199.84,187.513
199.65,187.963
199.459,188.413
199.269,188.863
199.078,189.268
198.888,189.718
198.697,190.213
198.507,190.663
198.316,191.113
198.125,191.563
197.935,192.013
197.744,192.463
197.554,192.957
197.363,193.407
197.173,193.857
196.982,194.307
196.792,194.847
196.601,195.342
196.411,195.927
196.22,196.512
196.03,197.097
195.839,197.727
195.649,198.266
195.458,198.851
195.268,199.481
195.077,200.021
194.886,200.606
194.696,201.191
194.505,201.776
194.315,202.361
194.124,202.991
193.934,203.575
193.743,204.205
193.553,204.835
193.362,205.51
193.172,206.14
192.981,206.77
192.791,207.4
192.6,208.03
192.41,208.659
192.219,209.289
192.028,209.919
191.838,210.594
191.647,211.224
191.457,211.899
191.266,212.574
191.076,213.294
190.885,213.968
190.695,214.688
190.504,215.408
190.314,216.083
190.123,216.758
189.933,217.523
189.742,218.153
189.552,218.872
189.361,219.592
189.17,220.357
188.98,221.122
188.789,221.887
188.599,222.607
188.408,223.372
188.218,224.136
188.027,224.901
187.837,225.621
187.646,226.476
187.456,227.241
187.265,228.051
187.075,228.861
186.884,229.67
186.694,230.39
186.503,231.2
186.312,231.965
186.122,232.64
185.931,233.36
185.741,233.99
185.55,234.664
185.36,235.339
185.169,236.014
184.979,236.419
184.788,236.824
184.598,237.229
184.407,237.634
184.217,237.949
184.026,238.219
183.836,238.219
183.645,238.219
183.455,238.219
183.264,238.219
183.073,238.174
182.883,240.108
182.692,237.949
182.502,237.904
182.311,237.589
182.121,237.319
181.93,236.689
181.74,236.014
181.549,234.934
181.359,233.855
181.168,232.685
180.978,231.515
180.787,230.21
180.597,228.906
180.406,227.691
180.215,226.521
180.025,225.306
179.834,224.136
179.644,222.967
179.453,221.842
179.263,220.672
179.072,219.457
178.882,218.243
178.691,217.028
178.501,215.543
178.31,214.013
178.12,212.169
177.929,210.279
177.739,208.929
177.548,207.445
177.357,206.725
177.167,205.87
176.976,205.195
176.786,204.475
176.595,203.8
176.405,203.035
176.214,202.406
176.024,201.776
175.833,201.191
175.643,200.651
175.452,200.201
175.262,199.706
175.071,199.301
174.881,198.761
174.69,198.311
174.5,197.861
174.309,197.412
174.118,196.962
173.928,196.557
173.737,196.152
173.547,195.837
173.356,195.522
173.166,195.207
172.975,194.892
172.785,194.577
172.594,194.262
172.404,193.992
172.213,193.722
172.023,193.497
171.832,193.227
171.642,192.957
171.451,192.732
171.26,192.463
171.07,192.193
170.879,191.968
170.689,191.698
170.498,191.428
170.308,191.158
170.117,190.978
169.927,190.663
169.736,190.393
169.546,190.123
169.355,189.898
169.165,189.628
168.974,189.403
168.784,189.178
168.593,188.863
168.402,188.593
168.212,188.413
168.021,188.098
167.831,187.828
167.64,187.558
167.45,187.289
167.259,186.974
167.069,186.704
166.878,186.434
166.688,186.164
166.497,185.849
166.307,185.534
166.116,185.219
165.926,184.949
165.735,184.679
165.544,184.364
165.354,184.049
165.163,183.779
164.973,183.554
164.782,183.194
164.592,182.879
164.401,182.609
164.211,182.294
164.02,182.025
163.83,181.71
163.639,181.395
163.449,181.08
163.258,180.81
163.068,180.495
162.877,180.225
162.687,179.91
162.496,179.595
162.305,179.28
162.115,178.965
161.924,178.605
161.734,178.245
161.543,177.93
161.353,177.525
161.162,177.165
160.972,176.851
160.781,176.401
160.591,176.041
160.4,175.681
160.21,175.276
160.019,174.871
159.829,174.466
159.638,174.016
159.447,173.611
159.257,173.161
159.066,172.801
158.876,172.351
158.685,171.946
158.495,171.497
158.304,171.092
158.114,170.732
157.923,170.282
157.733,169.832
157.542,169.472
157.352,169.067
157.161,168.662
156.971,168.302
156.78,167.897
156.589,167.492
156.399,167.087
156.208,166.682
156.018,166.368
155.827,165.918
155.637,165.558
155.446,165.108
155.256,164.703
155.065,164.298
154.875,163.848
154.684,163.398
154.494,162.948
154.303,162.498
154.113,162.093
153.922,161.643
153.731,161.194
153.541,160.744
153.35,160.294
153.16,159.844
152.969,159.394
152.779,158.899
152.588,158.404
152.398,157.864
152.207,157.369
152.017,156.829
151.826,156.334
151.636,155.795
151.445,155.3
151.255,154.76
151.064,154.265
150.874,153.725
150.683,153.23
150.492,152.69
150.302,152.15
150.111,151.61
149.921,151.115
149.73,150.576
149.54,150.036
149.349,149.496
149.159,149.001
148.968,148.461
148.778,147.921
148.587,147.381
148.397,146.886
148.206,146.346
148.016,145.806
147.825,145.267
147.634,144.772
147.444,144.232
147.253,143.737
147.063,143.197
146.872,142.747
146.682,142.252
146.491,141.802
146.301,141.307
146.11,140.857
145.92,140.363
145.729,139.913
145.539,139.463
145.348,139.013
145.158,138.518
144.967,138.068
144.776,137.573
144.586,137.123
144.395,136.673
144.205,136.223
144.014,135.683
143.824,135.234
143.633,134.784
143.443,134.334
143.252,133.839
143.062,133.389
142.871,132.939
142.681,132.534
142.49,132.084
142.3,131.724
142.109,131.229
141.918,130.779
141.728,130.329
141.537,129.925
141.347,129.475
141.156,129.025
140.966,128.575
140.775,128.17
140.585,127.72
140.394,127.27
140.204,126.82
140.013,126.415
139.823,125.965
139.632,125.515
139.442,125.11
139.251,124.616
139.061,124.166
138.87,123.716
138.679,123.266
138.489,122.861
138.298,122.366
138.108,121.916
137.917,121.466
137.727,121.016
137.536,120.611
137.346,120.116
137.155,119.667
136.965,119.217
136.774,118.767
136.584,118.362
136.393,117.867
136.203,117.417
136.012,116.922
135.821,116.472
135.631,116.022
135.44,115.572
135.25,115.122
135.059,114.672
134.869,114.178
134.678,113.728
134.488,113.278
134.297,112.828
134.107,112.378
133.916,112.063
133.726,111.703
133.535,111.388
133.345,111.028
133.154,110.713
132.963,110.353
132.773,109.993
132.582,109.678
132.392,109.363
132.201,108.959
132.011,108.644
131.82,108.284
131.63,107.924
131.439,107.564
131.249,107.294
131.058,106.889
130.868,106.529
130.677,106.169
130.487,105.899
130.296,105.584
130.105,105.314
129.915,105.044
129.724,104.729
129.534,104.414
129.343,104.145
129.153,103.875
128.962,103.605
128.772,103.29
128.581,102.975
128.391,102.66
128.2,102.345
128.01,101.985
127.819,101.67
127.629,101.355
127.438,101.04
127.248,100.725
127.057,100.455
126.866,100.23
126.676,100.005
126.485,99.7803
126.295,99.6004
126.104,99.3754
125.914,99.1505
125.723,98.9255
125.533,98.7455
125.342,98.5206
125.152,98.3406
124.961,98.1606
124.771,98.0257
124.58,97.8457
124.39,97.6657
124.199,97.4858
124.008,97.3958
123.818,97.2608
123.627,97.2608
123.437,97.2608
123.246,97.2608
123.056,97.2608
122.865,97.3058
122.675,96.8559
122.484,97.5758
122.294,97.8457
122.103,98.1157
121.913,98.4306
121.722,98.8355
121.532,99.2854
121.341,99.9153
121.15,100.545
120.96,101.22
120.769,101.895
120.579,102.93
120.388,103.92
120.198,104.954
120.007,105.944
119.817,106.979
119.626,108.014
119.436,109.049
119.245,110.083
119.055,111.928
118.864,113.728
118.674,116.292
118.483,118.812
118.292,121.511
118.102,124.166
117.911,125.695
117.721,127.225
117.53,127.675
117.34,128.035
117.149,127.99
116.959,127.9
116.768,125.425
116.578,122.861
116.387,120.836
116.197,118.812
116.006,116.472
115.816,114.178
115.625,112.333
115.435,110.533
115.244,109.229
115.053,107.924
114.863,107.024
114.672,106.079
114.482,105.179
114.291,104.145
114.101,103.2
113.91,102.21
113.72,101.265
113.529,100.275
113.339,99.5104
113.148,98.7006
112.958,97.9807
112.767,97.1708
112.577,96.541
112.386,95.8661
112.195,95.2362
112.005,94.6063
111.814,94.1114
111.624,93.6165
111.433,93.1216
111.243,92.6267
111.052,92.3118
110.862,91.9518
110.671,91.6819
110.481,91.3669
110.29,91.052
110.1,90.7821
109.909,90.6021
109.719,90.3771
109.528,90.1972
109.337,90.0172
109.147,89.8372
108.956,89.6573
108.766,89.4773
108.575,89.2974
108.385,89.1624
108.194,88.9824
108.004,88.9824
107.813,88.8474
107.623,88.8024
107.432,88.7125
107.242,88.6675
107.051,88.6225
106.861,88.5775
106.67,88.4875
106.479,88.4425
106.289,88.3975
106.098,88.3525
105.908,88.3075
105.717,88.2626
105.527,88.1726
105.336,88.1276
105.146,88.0826
104.955,88.0826
104.765,88.0376
104.574,87.9926
104.384,87.9476
104.193,87.9026
104.003,87.8576
103.812,87.8576
103.622,87.8126
103.431,87.7677
103.24,87.7227
103.05,87.7227
102.859,87.6777
102.669,87.6777
102.478,87.6327
102.288,87.6327
102.097,87.6327
101.907,87.6327
101.716,87.5877
101.526,87.5877
101.335,87.5427
101.145,87.5427
100.954,87.4977
100.764,87.4977
100.573,87.4527
100.382,87.4077
100.192,87.3177
100.001,87.2728
99.8109,87.2278
99.6203,87.1827
99.4298,87.0928
99.2393,87.0478
99.0487,86.9578
98.8582,86.9128
98.6677,86.8678
98.4771,86.7778
98.2866,86.7328
98.0961,86.7328
97.9055,86.7328
97.715,86.7328
97.5245,86.7328
97.334,86.7328
97.1434,86.7778
96.9529,86.8678
96.7624,86.8678
96.5718,86.9128
96.3813,86.9128
96.1908,86.9578
96.0002,87.0478
95.8097,87.0478
95.6192,87.0478
95.4286,87.0928
95.2381,87.0928" />
</g>
</svg>
