<?xml version="1.0"?>
<svg version="1.1"
     xmlns="http://www.w3.org/2000/svg"
     xmlns:xlink="http://www.w3.org/1999/xlink"
     viewBox="0 0 800 600">
<g>
<text fill="#000000" font-family="sans-serif" font-size="19.0476" text-anchor="start" x="4.7619" y="591.429" >
NIST Chemistry WebBook (https://webbook.nist.gov/chemistry)
</text>
<polyline stroke="#000000" stroke-width="1.19048" fill="none" points="95.2381,514.286
742.857,514.286
742.857,66.6667
95.2381,66.6667
95.2381,514.286" />
<text fill="#000000" font-family="sans-serif" font-size="19.0476" text-anchor="middle" x="419.048" y="24.7619" >
4-NITRO PHTHALIC ACID, DIMETHYL ESTER
</text>
<text fill="#000000" font-family="sans-serif" font-size="19.0476" text-anchor="middle" x="419.048" y="53.3333" >
INFRARED SPECTRUM
</text>
<text fill="#000000" font-family="sans-serif" font-size="19.0476" text-anchor="middle" x="419.048" y="558.095" >
Micrometers
</text>
<text fill="#000000" font-family="sans-serif" font-size="19.0476" text-anchor="middle" transform="translate(20,290.476) rotate(270)" x="0" y="0" >
Transmitance
</text>
<text fill="#000000" font-family="sans-serif" font-size="19.0476" text-anchor="middle" x="651.779" y="534.286" >
4
</text>
<line stroke="#000000" stroke-width="1.19048" x1="651.779" y1="514.286" x2="651.779" y2="504.762" />
<text fill="#000000" font-family="sans-serif" font-size="19.0476" text-anchor="middle" x="466.471" y="534.286" >
8
</text>
<line stroke="#000000" stroke-width="1.19048" x1="466.471" y1="514.286" x2="466.471" y2="504.762" />
<text fill="#000000" font-family="sans-serif" font-size="19.0476" text-anchor="middle" x="281.164" y="534.286" >
12
</text>
<line stroke="#000000" stroke-width="1.19048" x1="281.164" y1="514.286" x2="281.164" y2="504.762" />
<text fill="#000000" font-family="sans-serif" font-size="19.0476" text-anchor="middle" x="95.857" y="534.286" >
16
</text>
<line stroke="#000000" stroke-width="1.19048" x1="95.857" y1="514.286" x2="95.857" y2="504.762" />
<line stroke="#000000" stroke-width="1.19048" x1="698.105" y1="514.286" x2="698.105" y2="509.524" />
<line stroke="#000000" stroke-width="1.19048" x1="651.779" y1="514.286" x2="651.779" y2="509.524" />
<line stroke="#000000" stroke-width="1.19048" x1="605.452" y1="514.286" x2="605.452" y2="509.524" />
<line stroke="#000000" stroke-width="1.19048" x1="559.125" y1="514.286" x2="559.125" y2="509.524" />
<line stroke="#000000" stroke-width="1.19048" x1="512.798" y1="514.286" x2="512.798" y2="509.524" />
<line stroke="#000000" stroke-width="1.19048" x1="466.471" y1="514.286" x2="466.471" y2="509.524" />
<line stroke="#000000" stroke-width="1.19048" x1="420.145" y1="514.286" x2="420.145" y2="509.524" />
<line stroke="#000000" stroke-width="1.19048" x1="373.818" y1="514.286" x2="373.818" y2="509.524" />
<line stroke="#000000" stroke-width="1.19048" x1="327.491" y1="514.286" x2="327.491" y2="509.524" />
<line stroke="#000000" stroke-width="1.19048" x1="281.164" y1="514.286" x2="281.164" y2="509.524" />
<line stroke="#000000" stroke-width="1.19048" x1="234.837" y1="514.286" x2="234.837" y2="509.524" />
<line stroke="#000000" stroke-width="1.19048" x1="188.511" y1="514.286" x2="188.511" y2="509.524" />
<line stroke="#000000" stroke-width="1.19048" x1="142.184" y1="514.286" x2="142.184" y2="509.524" />
<line stroke="#000000" stroke-width="1.19048" x1="95.857" y1="514.286" x2="95.857" y2="509.524" />
<text fill="#000000" font-family="sans-serif" font-size="19.0476" text-anchor="end" x="90.4762" y="445.679" >
0.2
</text>
<line stroke="#000000" stroke-width="1.19048" x1="95.2381" y1="441.394" x2="104.762" y2="441.394" />
<text fill="#000000" font-family="sans-serif" font-size="19.0476" text-anchor="end" x="90.4762" y="343.014" >
0.4
</text>
<line stroke="#000000" stroke-width="1.19048" x1="95.2381" y1="338.729" x2="104.762" y2="338.729" />
<text fill="#000000" font-family="sans-serif" font-size="19.0476" text-anchor="end" x="90.4762" y="240.349" >
0.6
</text>
<line stroke="#000000" stroke-width="1.19048" x1="95.2381" y1="236.064" x2="104.762" y2="236.064" />
<text fill="#000000" font-family="sans-serif" font-size="19.0476" text-anchor="end" x="90.4762" y="137.685" >
0.8
</text>
<line stroke="#000000" stroke-width="1.19048" x1="95.2381" y1="133.399" x2="104.762" y2="133.399" />
<line stroke="#000000" stroke-width="1.19048" x1="95.2381" y1="492.726" x2="100" y2="492.726" />
<line stroke="#000000" stroke-width="1.19048" x1="95.2381" y1="467.06" x2="100" y2="467.06" />
<line stroke="#000000" stroke-width="1.19048" x1="95.2381" y1="441.394" x2="100" y2="441.394" />
<line stroke="#000000" stroke-width="1.19048" x1="95.2381" y1="415.727" x2="100" y2="415.727" />
<line stroke="#000000" stroke-width="1.19048" x1="95.2381" y1="390.061" x2="100" y2="390.061" />
<line stroke="#000000" stroke-width="1.19048" x1="95.2381" y1="364.395" x2="100" y2="364.395" />
<line stroke="#000000" stroke-width="1.19048" x1="95.2381" y1="338.729" x2="100" y2="338.729" />
<line stroke="#000000" stroke-width="1.19048" x1="95.2381" y1="313.062" x2="100" y2="313.062" />
<line stroke="#000000" stroke-width="1.19048" x1="95.2381" y1="287.396" x2="100" y2="287.396" />
<line stroke="#000000" stroke-width="1.19048" x1="95.2381" y1="261.73" x2="100" y2="261.73" />
<line stroke="#000000" stroke-width="1.19048" x1="95.2381" y1="236.064" x2="100" y2="236.064" />
<line stroke="#000000" stroke-width="1.19048" x1="95.2381" y1="210.397" x2="100" y2="210.397" />
<line stroke="#000000" stroke-width="1.19048" x1="95.2381" y1="184.731" x2="100" y2="184.731" />
<line stroke="#000000" stroke-width="1.19048" x1="95.2381" y1="159.065" x2="100" y2="159.065" />
<line stroke="#000000" stroke-width="1.19048" x1="95.2381" y1="133.399" x2="100" y2="133.399" />
<line stroke="#000000" stroke-width="1.19048" x1="95.2381" y1="107.733" x2="100" y2="107.733" />
<line stroke="#000000" stroke-width="1.19048" x1="95.2381" y1="82.0663" x2="100" y2="82.0663" />
<polyline stroke="#FF0000" stroke-width="1.19048" fill="none" points="742.857,196.538
742.542,195.511
742.228,195.511
741.913,195.511
741.598,195.511
741.283,194.998
740.968,194.998
740.654,193.971
740.339,193.971
740.024,192.944
739.707,190.378
739.392,190.378
739.078,190.378
738.763,190.378
738.448,189.351
738.133,189.351
737.818,189.351
737.503,190.378
737.189,190.378
736.874,190.378
736.557,190.378
736.242,190.378
735.927,191.405
735.613,191.405
735.298,191.918
734.982,191.918
734.668,191.918
734.353,191.918
734.038,191.405
733.724,190.378
733.406,190.378
733.092,190.378
732.777,189.351
732.462,188.838
732.148,188.838
731.832,187.811
731.518,187.811
731.203,187.811
730.888,186.785
730.573,186.785
730.256,186.785
729.942,186.785
729.627,186.271
729.312,186.271
728.997,185.245
728.682,185.245
728.367,184.218
728.053,184.218
727.738,183.191
727.423,182.678
727.106,181.651
726.791,180.625
726.477,180.625
726.162,180.111
725.847,178.058
725.532,177.031
725.217,177.031
724.902,176.518
724.588,176.518
724.273,175.491
723.956,175.491
723.641,175.491
723.326,175.491
723.012,175.491
722.697,175.491
722.382,175.491
722.067,175.491
721.752,175.491
721.438,174.465
721.123,174.465
720.852,173.952
720.537,172.925
720.223,172.925
719.908,171.898
719.593,171.898
719.278,170.358
718.963,170.358
718.648,169.332
718.334,167.792
718.019,165.225
717.702,164.198
717.387,164.198
717.072,164.198
716.758,164.198
716.443,165.225
716.127,169.332
715.813,170.358
715.498,169.332
715.183,165.225
714.869,161.632
714.551,159.065
714.237,159.065
713.922,159.065
713.607,159.065
713.293,159.065
712.977,159.578
712.663,160.605
712.348,162.145
712.033,162.145
711.719,163.172
711.401,164.198
711.087,165.225
710.772,165.225
710.457,165.225
710.142,164.198
709.827,162.145
709.512,159.578
709.198,159.065
708.883,159.065
708.568,159.578
708.251,160.605
707.936,160.605
707.622,162.145
707.307,163.172
706.992,163.172
706.677,163.172
706.362,163.172
706.047,163.172
705.733,163.172
705.418,163.172
705.101,164.198
704.786,164.198
704.471,165.225
704.157,165.225
703.842,167.792
703.527,169.332
703.212,171.898
702.897,173.952
702.583,181.651
702.268,182.678
701.951,182.678
701.636,182.678
701.321,181.651
701.007,179.085
700.692,173.952
700.376,171.898
700.062,171.898
699.747,170.358
699.432,170.358
699.118,168.305
698.8,168.305
698.486,167.792
698.171,167.792
697.856,167.792
697.542,166.765
697.226,166.765
696.911,165.738
696.597,165.738
696.282,165.738
695.967,165.225
695.65,165.225
695.335,165.225
695.021,164.198
694.706,164.198
694.391,164.198
694.076,164.198
693.761,165.738
693.447,167.792
693.132,167.792
692.817,166.765
692.5,165.738
692.185,163.172
691.871,163.172
691.556,165.225
691.241,166.765
690.926,167.792
690.611,167.792
690.296,167.792
689.982,167.792
689.667,167.792
689.35,168.305
689.035,171.385
688.72,178.058
688.406,186.271
688.091,200.131
687.775,218.611
687.461,236.064
687.146,237.09
686.831,236.064
686.517,203.724
686.199,192.944
685.885,192.944
685.57,200.131
685.255,212.964
684.941,223.744
684.625,233.497
684.311,237.09
683.996,237.604
683.681,240.17
683.367,241.197
683.049,253.517
682.735,280.723
682.42,292.016
682.105,303.309
681.79,341.295
681.475,399.814
681.16,458.333
680.846,476.813
680.531,494.266
680.216,495.293
679.899,495.293
679.584,493.753
679.27,491.699
678.955,492.726
678.64,493.753
678.325,493.753
678.01,492.726
677.695,476.813
677.381,469.113
677.066,448.58
676.795,434.72
676.48,427.021
676.166,420.861
675.851,417.267
675.536,417.267
675.221,421.887
674.906,429.587
674.591,430.614
674.277,429.587
673.962,407.514
673.645,370.042
673.33,333.082
673.016,295.609
672.701,218.611
672.386,189.351
672.071,174.465
671.756,170.358
671.441,166.765
671.127,162.145
670.812,160.605
670.495,150.852
670.18,146.745
669.865,144.179
669.551,142.125
669.236,139.559
668.92,139.559
668.606,139.559
668.291,139.559
667.976,138.532
667.662,138.532
667.344,139.559
667.03,143.152
666.715,144.692
666.4,145.719
666.086,144.179
665.77,141.612
665.456,139.559
665.141,138.019
664.826,138.019
664.511,138.019
664.194,136.992
663.88,135.965
663.565,135.452
663.25,134.426
662.935,133.399
662.62,133.399
662.305,132.372
661.991,132.372
661.676,131.859
661.361,130.832
661.044,129.806
660.729,129.806
660.415,129.292
660.1,128.266
659.785,128.266
659.47,129.292
659.155,129.292
658.84,129.292
658.526,128.266
658.211,127.239
657.894,126.726
657.579,126.726
657.264,125.699
656.95,123.646
656.635,122.106
656.32,118.512
656.005,117.486
655.69,116.972
655.375,117.486
655.061,118.512
654.744,122.106
654.429,122.106
654.114,122.106
653.799,122.106
653.485,120.566
653.169,117.486
652.855,113.379
652.54,113.379
652.225,111.326
651.911,110.813
651.593,108.246
651.279,107.219
650.964,107.219
650.649,107.219
650.335,109.786
650.019,111.326
649.704,111.326
649.39,112.353
649.075,111.326
648.76,111.326
648.443,110.813
648.128,110.813
647.814,110.813
647.499,110.813
647.184,108.246
646.869,107.219
646.554,107.219
646.24,107.219
645.925,107.219
645.61,108.246
645.293,108.246
644.978,108.246
644.664,106.193
644.349,106.193
644.034,106.193
643.719,106.193
643.404,106.193
643.089,105.679
642.775,105.679
642.46,105.679
642.143,103.626
641.828,103.626
641.513,103.626
641.199,102.599
640.884,104.653
640.568,106.193
640.254,109.786
639.939,115.946
639.624,117.486
639.31,117.486
638.992,118.512
638.678,117.486
638.363,115.946
638.048,113.379
637.734,112.353
637.418,111.326
637.104,108.246
636.789,107.219
636.474,105.679
636.159,102.599
635.842,100.033
635.528,96.4395
635.213,92.3329
634.898,88.7396
634.583,86.173
634.268,84.633
633.953,84.633
633.639,83.6064
633.324,82.5797
633.009,82.5797
632.738,85.1464
632.424,86.173
632.109,87.713
631.794,87.713
631.48,87.713
631.164,87.1996
630.849,86.173
630.535,86.173
630.22,85.1464
629.905,85.1464
629.588,87.1996
629.273,87.713
628.959,87.713
628.644,87.1996
628.329,86.173
628.014,86.173
627.699,82.5797
627.385,81.553
627.07,81.553
626.755,84.633
626.438,84.633
626.123,83.6064
625.809,83.6064
625.494,83.6064
625.179,83.6064
624.864,81.553
624.549,81.553
624.234,81.553
623.92,81.553
623.605,82.5797
623.288,82.5797
622.973,82.5797
622.658,82.5797
622.344,81.553
622.029,81.553
621.713,81.0398
621.399,81.0398
621.084,81.0398
620.769,81.0398
620.455,80.0131
620.137,80.0131
619.823,80.0131
619.508,78.4731
619.193,78.4731
618.879,77.4465
618.563,77.4465
618.249,77.4465
617.934,77.4465
617.619,77.4465
617.304,77.4465
616.987,78.4731
616.672,78.4731
616.358,78.9864
616.043,78.9864
615.728,78.9864
615.413,78.4731
615.098,78.4731
614.784,77.4465
614.469,77.4465
614.154,77.4465
613.837,78.4731
613.522,78.9864
613.208,78.9864
612.893,78.4731
612.578,77.4465
612.263,77.4465
611.948,77.4465
611.633,78.4731
611.319,78.4731
611.004,78.4731
610.687,78.4731
610.372,77.4465
610.057,75.9065
609.743,74.8799
609.428,72.3132
609.113,72.3132
608.798,72.3132
608.483,72.3132
608.169,72.3132
607.854,72.3132
607.537,72.3132
607.222,72.3132
606.907,71.2866
606.593,71.2866
606.278,72.8266
605.962,73.8532
605.648,74.8799
605.333,74.8799
605.018,75.9065
604.704,74.8799
604.386,73.8532
604.072,72.3132
603.757,70.2599
603.442,68.7199
603.128,69.7466
602.812,71.2866
602.497,71.2866
602.183,72.3132
601.868,72.3132
601.553,70.2599
601.236,68.7199
600.921,67.6933
600.607,66.6667
600.292,67.6933
599.977,72.3132
599.662,72.8266
599.347,72.8266
599.032,73.8532
598.718,75.9065
598.403,77.4465
598.086,78.9864
597.771,78.9864
597.457,78.9864
597.142,78.9864
596.827,77.4465
596.512,76.4198
596.197,74.8799
595.882,73.8532
595.568,75.9065
595.253,76.4198
594.936,76.4198
594.621,75.9065
594.306,72.8266
593.992,71.2866
593.677,69.7466
593.361,67.6933
593.047,66.6667
592.732,66.6667
592.417,67.6933
592.103,71.2866
591.785,72.3132
591.471,76.4198
591.156,77.4465
590.841,77.4465
590.527,77.4465
590.211,75.9065
589.896,72.8266
589.582,72.8266
589.267,72.8266
588.953,72.8266
588.682,75.9065
588.367,76.4198
588.052,77.4465
587.738,76.4198
587.423,75.9065
587.107,73.8532
586.793,72.8266
586.478,74.8799
586.163,76.4198
585.849,77.4465
585.531,81.0398
585.217,82.5797
584.902,82.5797
584.587,82.5797
584.273,82.5797
583.957,82.5797
583.642,87.1996
583.328,93.8729
583.013,99.5195
582.698,101.059
582.381,100.033
582.066,96.4395
581.752,90.7929
581.437,90.7929
581.122,91.3062
580.807,94.8995
580.492,97.4661
580.177,100.033
579.863,102.086
579.548,103.626
579.231,105.679
578.916,106.193
578.601,107.219
578.287,109.786
577.972,114.919
577.657,122.106
577.342,132.372
577.027,139.559
576.713,144.179
576.398,148.285
576.081,156.498
575.766,158.038
575.451,160.605
575.137,165.225
574.822,170.358
574.506,174.465
574.192,186.271
573.877,201.671
573.562,212.964
573.248,237.604
572.93,266.863
572.616,286.883
572.301,306.903
571.986,354.128
571.672,387.495
571.356,420.861
571.042,465.52
570.727,511.206
570.412,513.772
570.097,514.286
569.78,513.772
569.466,511.719
569.151,501.453
568.836,488.106
568.521,473.22
568.206,463.98
567.891,427.021
567.577,359.262
567.262,328.976
566.947,298.176
566.63,261.217
566.315,255.057
566.001,250.95
565.686,243.764
565.371,235.037
565.056,226.311
564.741,217.584
564.426,211.424
564.112,211.424
563.797,210.398
563.48,207.318
563.165,202.698
562.85,187.811
562.536,171.898
562.221,160.605
561.906,138.532
561.591,136.992
561.276,135.965
560.961,135.452
560.647,134.426
560.33,130.832
560.015,126.726
559.7,126.726
559.385,128.266
559.071,128.266
558.755,130.832
558.441,133.399
558.126,133.399
557.811,133.399
557.497,133.399
557.179,132.372
556.865,129.806
556.55,128.266
556.235,129.292
555.921,130.832
555.605,132.372
555.29,133.399
554.976,135.965
554.661,140.585
554.346,146.745
554.029,151.879
553.714,157.012
553.4,161.632
553.085,165.738
552.77,176.518
552.455,204.238
552.14,257.623
551.826,258.65
551.511,257.11
551.196,245.817
550.879,229.904
550.564,207.831
550.25,190.378
549.935,183.191
549.62,183.191
549.305,185.245
548.99,197.564
548.675,212.964
548.361,226.311
548.046,227.851
547.729,225.284
547.414,215.017
547.099,197.564
546.785,181.651
546.47,174.465
546.154,167.792
545.84,149.312
545.525,147.259
545.21,144.692
544.896,143.152
544.625,141.612
544.31,141.612
543.995,144.179
543.681,150.339
543.366,154.445
543.051,159.065
542.736,160.605
542.421,163.172
542.106,168.305
541.792,176.518
541.474,185.245
541.16,204.238
540.845,232.47
540.53,248.897
540.216,263.783
539.9,281.75
539.586,293.043
539.271,304.336
538.956,318.196
538.642,330.516
538.324,348.995
538.01,375.175
537.695,407.001
537.38,424.454
537.066,442.934
536.75,443.447
536.435,441.907
536.121,383.388
535.806,361.315
535.491,346.429
535.174,330.516
534.859,318.196
534.545,297.149
534.23,248.384
533.915,227.337
533.6,202.698
533.285,189.351
532.97,174.465
532.656,167.792
532.341,163.172
532.024,162.145
531.709,159.578
531.395,151.879
531.08,148.285
530.765,143.152
530.45,140.585
530.135,142.125
529.82,145.719
529.506,158.038
529.191,165.225
528.874,172.925
528.559,191.918
528.244,212.964
527.93,250.95
527.615,257.623
527.299,258.65
526.985,258.65
526.67,257.11
526.355,242.224
526.041,224.771
525.723,219.124
525.409,216.557
525.094,216.044
524.779,213.991
524.465,215.017
524.149,227.337
523.834,250.95
523.52,282.263
523.205,292.016
522.89,302.796
522.573,318.196
522.259,328.976
521.944,335.135
521.629,340.269
521.314,343.862
520.999,344.375
520.684,344.375
520.37,344.375
520.055,343.862
519.74,343.862
519.423,343.862
519.108,343.862
518.794,343.862
518.479,344.375
518.164,344.375
517.849,344.375
517.534,346.429
517.219,351.562
516.905,361.315
516.59,373.635
516.273,388.521
515.958,403.921
515.643,417.267
515.329,431.127
515.014,432.154
514.698,431.127
514.384,424.967
514.069,391.088
513.755,355.155
513.44,320.762
513.123,306.903
512.808,302.796
512.493,300.743
512.178,200.131
511.864,192.944
511.548,183.191
511.234,171.898
510.919,161.632
510.604,160.605
510.29,161.632
509.972,167.792
509.658,179.085
509.343,179.085
509.028,181.651
508.714,182.678
508.398,181.651
508.083,180.625
507.769,167.792
507.454,165.225
507.139,163.172
506.822,162.145
506.507,162.145
506.193,163.172
505.878,165.225
505.563,168.305
505.248,170.358
504.933,175.491
504.618,181.651
504.304,187.811
503.989,195.511
503.672,219.124
503.357,245.817
503.042,263.27
502.728,280.723
502.413,288.423
502.098,296.636
501.783,309.469
501.468,318.196
501.154,328.976
500.839,339.242
500.568,340.269
500.253,341.809
499.939,342.835
499.624,351.562
499.309,371.581
498.994,393.654
498.679,410.081
498.364,427.021
498.05,444.474
497.735,457.82
497.418,470.653
497.103,471.68
496.788,471.68
496.474,466.547
496.159,456.793
495.844,438.314
495.529,420.861
495.214,394.681
494.899,377.741
494.585,362.342
494.268,350.022
493.953,339.242
493.638,333.082
493.323,323.329
493.009,312.036
492.693,302.796
492.379,296.636
492.064,290.99
491.749,280.723
491.435,277.13
491.117,272.51
490.803,269.943
490.488,269.943
490.173,272.51
489.859,279.696
489.543,286.883
489.228,294.583
488.914,303.309
488.599,316.656
488.284,329.489
487.967,369.015
487.652,395.194
487.338,409.568
487.023,424.454
486.708,449.607
486.393,467.06
486.078,482.973
485.763,487.593
485.449,488.106
485.134,488.106
484.817,486.566
484.502,481.433
484.187,481.433
483.873,482.973
483.558,487.593
483.243,490.673
482.928,495.293
482.613,499.399
482.299,504.019
481.984,508.639
481.667,512.746
481.352,512.746
481.037,513.772
480.723,512.746
480.408,511.206
480.092,506.586
479.778,504.019
479.463,500.426
479.148,496.319
478.834,492.726
478.516,489.133
478.202,487.593
477.887,482.973
477.572,479.38
477.258,479.38
476.942,480.406
476.628,484
476.313,489.133
475.998,493.753
475.683,496.319
475.366,497.859
475.051,497.859
474.737,497.859
474.422,496.833
474.107,492.726
473.792,487.593
473.477,484
473.163,478.866
472.848,472.706
472.533,464.493
472.216,452.173
471.901,440.88
471.587,420.861
471.272,401.354
470.957,398.274
470.642,393.654
470.327,391.088
470.012,393.654
469.698,405.974
469.383,414.701
469.066,423.427
468.751,439.854
468.436,452.173
468.122,461.927
467.807,466.547
467.491,468.086
467.177,468.086
466.862,447.04
466.547,431.127
466.233,418.807
465.915,387.495
465.601,377.228
465.286,361.315
464.971,343.862
464.657,317.682
464.341,301.769
464.027,292.016
463.712,269.43
463.397,260.703
463.083,253.517
462.765,246.33
462.451,237.604
462.136,230.931
461.821,225.284
461.507,219.124
461.191,209.884
460.876,205.264
460.562,201.158
460.247,198.078
459.932,194.998
459.615,190.378
459.3,187.811
458.986,185.245
458.671,180.625
458.356,180.111
458.041,180.111
457.726,179.085
457.411,178.058
457.097,176.518
456.782,174.465
456.511,174.465
456.196,174.465
455.882,175.491
455.567,178.058
455.252,179.085
454.937,180.111
454.622,180.111
454.308,183.191
453.993,186.271
453.678,189.351
453.361,193.971
453.046,198.078
452.732,204.238
452.417,208.858
452.102,216.044
451.787,227.337
451.472,238.63
451.157,256.083
450.843,273.536
450.528,281.75
450.211,289.45
449.896,304.336
449.581,315.629
449.267,320.249
448.952,320.762
448.636,320.762
448.322,319.222
448.007,290.476
447.692,266.863
447.378,246.33
447.061,233.497
446.746,219.124
446.431,207.831
446.116,196.538
445.802,188.838
445.486,183.191
445.172,178.058
444.857,174.465
444.542,169.332
444.228,165.225
443.91,161.632
443.596,154.445
443.281,154.445
442.966,152.905
442.652,151.879
442.336,150.339
442.021,149.312
441.707,148.285
441.392,147.259
441.077,146.745
440.76,144.692
440.445,144.179
440.131,142.125
439.816,142.125
439.501,143.152
439.186,144.179
438.871,146.745
438.556,148.285
438.242,152.905
437.927,156.498
437.61,159.065
437.295,161.632
436.98,169.332
436.666,178.058
436.351,186.785
436.036,200.131
435.721,218.611
435.406,241.197
435.092,268.403
434.777,283.29
434.46,298.176
434.145,327.949
433.83,353.102
433.516,358.748
433.201,358.748
432.885,350.535
432.571,333.082
432.256,314.089
431.941,293.043
431.627,265.837
431.309,264.81
430.995,264.81
430.68,278.156
430.365,290.99
430.051,322.816
429.735,356.182
429.42,398.274
429.106,417.267
428.791,437.287
428.476,457.82
428.159,466.547
427.844,466.547
427.53,462.953
427.215,455.767
426.9,443.447
426.585,429.587
426.27,394.681
425.956,376.201
425.641,356.695
425.326,341.809
425.009,331.542
424.694,326.409
424.38,324.356
424.065,324.356
423.75,338.215
423.435,367.475
423.12,398.274
422.805,415.727
422.491,417.267
422.176,419.834
421.859,398.788
421.544,381.335
421.229,361.315
420.915,335.649
420.6,308.443
420.284,299.203
419.97,287.396
419.655,231.444
419.34,222.204
419.026,212.964
418.708,202.698
418.394,192.944
418.079,189.351
417.764,184.218
417.45,175.491
417.134,171.898
416.82,167.792
416.505,163.172
416.19,159.578
415.876,152.905
415.605,149.312
415.29,148.285
414.975,146.745
414.661,144.179
414.346,142.125
414.03,138.532
413.716,136.992
413.401,136.992
413.086,138.019
412.772,138.019
412.454,138.532
412.14,138.532
411.825,136.992
411.51,135.965
411.196,135.452
410.88,134.426
410.565,133.399
410.251,133.399
409.936,133.399
409.621,136.992
409.304,139.559
408.989,143.152
408.675,146.745
408.36,150.852
408.045,155.472
407.73,159.578
407.415,166.765
407.101,174.465
406.786,186.271
406.471,202.698
406.154,212.964
405.839,236.064
405.525,258.65
405.21,282.263
404.895,295.609
404.58,308.443
404.265,334.109
403.95,356.695
403.636,372.608
403.321,382.361
403.004,386.468
402.689,389.035
402.374,389.035
402.06,388.521
401.745,362.855
401.429,347.455
401.115,334.109
400.8,317.682
400.485,301.769
400.171,266.863
399.853,248.897
399.539,237.09
399.224,222.717
398.909,207.831
398.595,197.564
398.279,191.405
397.965,182.678
397.65,175.491
397.335,166.765
397.02,150.339
396.703,147.259
396.389,144.692
396.074,143.152
395.759,139.559
395.445,138.532
395.129,138.019
394.814,133.399
394.5,130.832
394.185,126.726
393.87,123.646
393.553,123.646
393.238,121.079
392.924,119.539
392.609,118.512
392.294,117.486
391.979,116.972
391.664,115.946
391.349,114.919
391.035,113.379
390.72,110.813
390.403,108.759
390.088,108.246
389.773,107.219
389.459,107.219
389.144,105.679
388.829,104.653
388.514,103.626
388.199,103.626
387.885,102.599
387.57,102.086
387.253,102.086
386.938,101.059
386.623,100.033
386.309,100.033
385.994,99.5195
385.678,98.4928
385.364,97.4661
385.049,97.4661
384.734,96.4395
384.42,96.4395
384.102,95.9261
383.788,95.9261
383.473,94.8995
383.158,94.8995
382.844,93.8729
382.528,93.3595
382.213,91.3062
381.899,87.713
381.584,87.713
381.269,87.1996
380.952,86.173
380.637,86.173
380.323,86.173
380.008,86.173
379.693,85.1464
379.378,83.6064
379.063,82.5797
378.749,82.5797
378.434,82.5797
378.119,81.553
377.802,81.553
377.487,81.553
377.173,81.553
376.858,81.553
376.543,81.553
376.228,81.553
375.913,80.0131
375.598,78.4731
375.284,78.4731
374.969,77.4465
374.652,76.4198
374.337,76.4198
374.022,75.9065
373.708,75.9065
373.393,75.9065
373.077,75.9065
372.763,75.9065
372.448,75.9065
372.133,75.9065
371.819,75.9065
371.548,75.9065
371.233,76.4198
370.918,76.4198
370.604,76.4198
370.289,77.4465
369.974,77.4465
369.659,78.4731
369.344,78.4731
369.03,78.9864
368.715,80.0131
368.398,81.553
368.083,86.173
367.768,89.7663
367.454,91.3062
367.139,96.4395
366.823,109.786
366.509,122.106
366.194,135.965
365.879,156.498
365.565,162.145
365.247,168.305
364.933,180.111
364.618,181.651
364.303,180.111
363.989,173.952
363.673,165.738
363.358,148.285
363.044,147.259
362.729,147.259
362.414,148.285
362.097,152.905
361.782,156.498
361.468,160.605
361.153,171.385
360.838,181.651
360.523,194.998
360.208,211.424
359.894,224.771
359.579,237.09
359.264,238.63
358.947,237.604
358.632,234.01
358.318,224.771
358.003,216.557
357.688,205.264
357.373,192.944
357.058,183.191
356.743,173.952
356.429,160.605
356.114,150.339
355.797,145.719
355.482,142.125
355.167,141.612
354.853,141.612
354.538,142.125
354.222,143.152
353.908,145.719
353.593,152.905
353.278,157.012
352.964,161.632
352.646,175.491
352.332,190.378
352.017,210.398
351.702,238.63
351.388,274.563
351.072,290.99
350.758,307.929
350.443,326.409
350.128,341.295
349.813,348.995
349.496,350.022
349.182,348.995
348.867,340.269
348.552,325.382
348.237,305.876
347.922,290.476
347.607,263.27
347.293,248.384
346.978,235.037
346.663,221.177
346.346,210.398
346.031,199.104
345.717,189.351
345.402,181.651
345.087,174.465
344.772,168.305
344.457,161.632
344.142,157.012
343.828,152.905
343.513,148.285
343.196,144.179
342.881,141.612
342.566,138.532
342.252,138.019
341.937,135.965
341.622,133.399
341.307,131.859
340.992,128.266
340.678,125.699
340.363,123.646
340.046,123.646
339.731,123.132
339.416,123.132
339.102,123.132
338.787,123.132
338.471,122.106
338.157,118.512
337.842,116.972
337.527,116.972
337.213,118.512
336.895,120.566
336.581,120.566
336.266,122.106
335.951,122.106
335.637,122.106
335.321,123.646
335.006,127.239
334.692,128.266
334.377,131.859
334.062,135.452
333.745,144.179
333.43,151.879
333.116,159.065
332.801,166.765
332.486,182.678
332.171,205.264
331.856,235.037
331.542,269.943
331.227,285.856
330.912,285.856
330.595,284.83
330.28,270.97
329.966,252.49
329.651,234.01
329.336,212.451
329.021,192.944
328.706,175.491
328.391,164.198
328.077,147.259
327.762,142.125
327.491,136.992
327.176,133.399
326.862,130.832
326.547,130.832
326.232,130.832
325.917,132.372
325.602,149.312
325.287,156.498
324.973,164.198
324.658,182.678
324.341,205.264
324.026,233.497
323.711,263.783
323.397,278.156
323.082,292.016
322.767,294.583
322.452,295.609
322.137,295.609
321.823,287.396
321.508,254.543
321.191,241.197
320.876,225.284
320.561,212.451
320.247,202.698
319.932,195.511
319.616,189.351
319.302,181.651
318.987,175.491
318.672,167.792
318.358,161.632
318.04,146.745
317.726,145.719
317.411,143.152
317.096,134.426
316.782,133.399
316.466,130.832
316.151,128.266
315.837,125.699
315.522,120.566
315.207,116.972
314.89,113.379
314.575,110.813
314.261,108.246
313.946,108.246
313.631,106.193
313.316,105.679
313.001,104.653
312.687,104.653
312.372,104.653
312.057,103.626
311.74,102.599
311.425,101.059
311.111,100.033
310.796,98.4928
310.481,97.4661
310.166,97.4661
309.851,97.4661
309.536,97.4661
309.222,97.4661
308.907,96.4395
308.59,96.4395
308.275,96.4395
307.96,96.4395
307.646,96.4395
307.331,95.9261
307.015,95.9261
306.701,96.4395
306.386,97.4661
306.071,97.4661
305.757,98.4928
305.439,99.5195
305.125,101.059
304.81,102.599
304.495,103.626
304.181,106.193
303.865,107.219
303.551,108.246
303.236,108.759
302.921,112.353
302.606,116.972
302.289,122.106
301.975,128.266
301.66,135.452
301.345,141.612
301.03,150.852
300.715,157.012
300.4,163.172
300.086,179.085
299.771,198.078
299.456,222.204
299.139,242.737
298.824,262.243
298.51,276.103
298.195,285.856
297.88,289.45
297.565,293.043
297.25,293.556
296.935,293.043
296.621,263.27
296.306,245.817
295.989,227.851
295.674,209.884
295.359,191.918
295.045,175.491
294.73,161.632
294.415,143.152
294.1,135.452
293.785,127.239
293.471,120.566
293.156,113.379
292.839,108.759
292.524,103.626
292.209,100.033
291.895,95.9261
291.58,91.3062
291.264,90.7929
290.95,88.7396
290.635,86.173
290.32,84.633
290.006,82.5797
289.688,82.5797
289.374,81.0398
289.059,81.0398
288.744,78.9864
288.43,78.9864
288.114,78.4731
287.799,78.4731
287.485,77.4465
287.17,76.4198
286.855,75.9065
286.538,74.8799
286.223,72.8266
285.909,72.8266
285.594,72.8266
285.279,72.8266
284.964,72.8266
284.649,72.8266
284.335,72.8266
284.02,72.8266
283.705,74.8799
283.434,74.8799
283.12,75.9065
282.805,76.4198
282.49,78.4731
282.175,77.4465
281.86,78.9864
281.545,81.0398
281.231,82.5797
280.916,84.633
280.601,87.713
280.284,90.7929
279.969,93.8729
279.655,98.4928
279.34,102.599
279.025,110.813
278.71,122.106
278.395,135.965
278.08,153.419
277.766,164.198
277.451,175.491
277.134,202.698
276.819,235.037
276.504,273.536
276.19,292.016
275.875,310.496
275.56,350.022
275.245,367.475
274.93,367.988
274.615,367.988
274.301,366.448
273.984,338.215
273.669,324.356
273.354,313.062
273.039,298.176
272.725,273.536
272.409,258.65
272.095,243.764
271.78,227.851
271.465,215.017
271.151,209.884
270.833,199.104
270.519,184.218
270.204,171.898
269.889,148.285
269.575,140.585
269.259,133.399
268.944,128.266
268.63,123.132
268.315,118.512
268,113.379
267.683,108.246
267.368,106.193
267.054,102.599
266.739,101.059
266.424,97.4661
266.109,96.4395
265.794,93.3595
265.479,91.3062
265.165,87.713
264.85,87.1996
264.533,86.173
264.218,85.1464
263.904,85.1464
263.589,85.1464
263.274,84.633
262.959,84.633
262.644,83.6064
262.329,82.5797
262.015,81.553
261.7,81.553
261.383,81.553
261.068,81.0398
260.753,80.0131
260.439,80.0131
260.124,80.0131
259.808,80.0131
259.494,80.0131
259.179,78.9864
258.864,78.9864
258.55,78.9864
258.232,78.9864
257.918,78.9864
257.603,78.9864
257.288,80.0131
256.974,80.0131
256.658,81.0398
256.344,81.553
256.029,82.5797
255.714,82.5797
255.399,83.6064
255.082,85.1464
254.768,87.1996
254.453,87.713
254.138,89.7663
253.823,93.8729
253.508,99.5195
253.193,107.219
252.879,116.972
252.564,128.266
252.249,143.152
251.932,151.879
251.617,161.632
251.303,176.518
250.988,187.811
250.673,199.104
250.358,200.131
250.043,199.104
249.728,190.378
249.414,181.651
249.099,168.305
248.782,145.719
248.467,135.452
248.152,127.239
247.838,123.132
247.523,122.106
247.208,121.079
246.893,117.486
246.578,114.919
246.263,113.379
245.949,113.379
245.632,113.379
245.317,114.919
245.002,117.486
244.687,124.672
244.373,130.832
244.057,135.452
243.743,139.559
243.428,141.612
243.113,146.745
242.799,155.472
242.481,160.605
242.167,166.765
241.852,179.085
241.537,192.944
241.223,206.291
240.907,220.151
240.592,240.17
240.278,254.543
239.963,263.783
239.648,274.563
239.377,282.263
239.063,284.316
238.748,284.316
238.433,283.29
238.119,276.103
237.803,270.97
237.489,254.543
237.174,237.604
236.859,221.177
236.544,207.831
236.227,195.511
235.913,186.785
235.598,179.085
235.283,172.925
234.968,147.259
234.653,141.612
234.338,136.992
234.024,132.372
233.709,126.726
233.394,118.512
233.077,113.379
232.762,113.379
232.448,112.353
232.133,110.813
231.818,108.246
231.503,106.193
231.188,106.193
230.873,106.193
230.559,106.193
230.244,105.679
229.927,105.679
229.612,105.679
229.297,105.679
228.983,105.679
228.668,105.679
228.353,106.193
228.038,106.193
227.723,106.193
227.408,106.193
227.094,106.193
226.777,107.219
226.462,107.219
226.147,108.759
225.832,112.353
225.518,114.919
225.202,115.946
224.888,116.972
224.573,117.486
224.258,121.079
223.944,125.699
223.626,128.266
223.312,132.372
222.997,135.452
222.682,140.585
222.368,145.719
222.052,150.852
221.737,159.065
221.423,161.632
221.108,164.198
220.793,171.385
220.476,180.111
220.161,191.918
219.847,201.158
219.532,212.451
219.217,227.337
218.902,241.197
218.587,254.543
218.272,270.97
217.958,278.67
217.643,287.396
217.326,305.363
217.011,322.816
216.697,340.269
216.382,356.182
216.067,370.042
215.752,381.335
215.437,392.114
215.122,397.248
214.808,400.841
214.493,401.354
214.176,401.354
213.861,400.841
213.546,393.654
213.232,385.955
212.917,376.201
212.601,365.422
212.287,354.128
211.972,343.862
211.657,332.569
211.343,320.249
211.025,309.469
210.711,299.203
210.396,289.45
210.081,264.81
209.767,256.083
209.451,248.897
209.137,238.63
208.822,233.497
208.507,226.311
208.192,225.284
207.875,224.771
207.561,222.717
207.246,222.717
206.931,223.744
206.616,226.311
206.301,233.497
205.986,239.657
205.672,250.95
205.357,258.65
205.042,265.837
204.725,272.51
204.41,274.563
204.096,277.13
203.781,280.723
203.466,280.723
203.151,279.696
202.836,264.81
202.521,255.057
202.207,242.737
201.892,230.931
201.575,221.177
201.26,210.398
200.945,199.104
200.631,191.918
200.316,182.678
200.001,174.465
199.686,164.198
199.371,148.285
199.056,143.152
198.742,139.559
198.425,138.532
198.11,135.965
197.795,127.239
197.48,122.106
197.166,120.566
196.85,118.512
196.536,117.486
196.221,115.946
195.906,113.379
195.592,111.326
195.321,110.813
195.006,108.246
194.691,107.219
194.377,106.193
194.062,104.653
193.746,104.653
193.432,103.626
193.117,103.626
192.802,103.626
192.488,102.599
192.17,102.599
191.856,102.086
191.541,101.059
191.226,98.4928
190.912,96.4395
190.596,93.3595
190.281,90.7929
189.967,89.7663
189.652,87.713
189.337,87.1996
189.02,86.173
188.706,85.1464
188.391,83.6064
188.076,81.553
187.761,81.0398
187.446,80.0131
187.131,80.0131
186.817,78.9864
186.502,78.9864
186.187,78.9864
185.87,78.9864
185.555,78.4731
185.241,78.4731
184.926,77.4465
184.611,77.4465
184.296,76.4198
183.981,76.4198
183.666,76.4198
183.352,76.4198
183.037,75.9065
182.72,75.9065
182.405,75.9065
182.09,75.9065
181.776,75.9065
181.461,74.8799
181.145,74.8799
180.831,74.8799
180.516,74.8799
180.201,74.8799
179.887,74.8799
179.57,74.8799
179.255,72.8266
178.94,72.8266
178.625,72.8266
178.311,72.3132
177.995,72.3132
177.681,72.3132
177.366,72.3132
177.051,71.2866
176.737,71.2866
176.419,71.2866
176.105,72.3132
175.79,72.3132
175.475,72.3132
175.161,72.3132
174.845,72.3132
174.53,72.3132
174.216,72.3132
173.901,72.3132
173.586,72.3132
173.269,72.3132
172.954,72.3132
172.64,72.3132
172.325,72.3132
172.01,72.3132
171.695,72.3132
171.38,72.3132
171.065,72.3132
170.751,72.3132
170.436,72.3132
170.119,72.3132
169.804,72.8266
169.489,72.8266
169.175,73.8532
168.86,74.8799
168.545,74.8799
168.23,75.9065
167.915,75.9065
167.601,76.4198
167.286,77.4465
166.969,77.4465
166.654,78.4731
166.339,78.4731
166.025,78.4731
165.71,78.9864
165.394,78.9864
165.08,78.9864
164.765,80.0131
164.45,81.0398
164.136,81.553
163.818,81.553
163.504,81.553
163.189,81.553
162.874,81.553
162.56,81.553
162.244,81.553
161.93,82.5797
161.615,82.5797
161.3,81.553
160.985,81.553
160.668,81.553
160.353,81.553
160.039,81.553
159.724,81.553
159.409,81.0398
159.094,80.0131
158.779,80.0131
158.465,80.0131
158.15,80.0131
157.835,81.0398
157.518,81.0398
157.203,81.0398
156.889,81.0398
156.574,81.0398
156.259,77.4465
155.944,77.4465
155.629,77.4465
155.314,77.4465
155,77.4465
154.685,80.0131
154.368,81.553
154.053,81.553
153.738,81.553
153.424,81.0398
153.109,81.0398
152.794,82.5797
152.479,82.5797
152.164,83.6064
151.849,84.633
151.535,85.1464
151.264,85.1464
150.949,85.1464
150.634,85.1464
150.32,85.1464
150.005,85.1464
149.69,85.1464
149.375,85.1464
149.06,85.1464
148.746,85.1464
148.431,85.1464
148.114,85.1464
147.799,85.1464
147.484,85.1464
147.17,85.1464
146.855,86.173
146.539,87.1996
146.225,87.1996
145.91,88.7396
145.595,88.7396
145.281,89.7663
144.963,90.7929
144.649,90.7929
144.334,91.3062
144.019,92.3329
143.705,94.8995
143.389,96.4395
143.074,97.4661
142.76,101.059
142.445,103.626
142.13,107.219
141.813,109.786
141.499,114.406
141.184,114.919
140.869,120.566
140.554,123.132
140.239,127.239
139.924,131.859
139.61,134.426
139.295,138.019
138.98,138.019
138.663,138.532
138.348,138.532
138.034,138.532
137.719,138.019
137.404,135.452
137.089,133.399
136.774,133.399
136.459,132.372
136.145,132.372
135.83,132.372
135.513,132.372
135.198,132.372
134.883,132.372
134.569,132.372
134.254,132.372
133.938,132.372
133.624,132.372
133.309,132.372
132.994,132.372
132.68,132.372
132.363,131.859
132.048,131.859
131.733,129.806
131.418,128.266
131.104,127.239
130.788,126.726
130.474,124.672
130.159,123.132
129.844,122.106
129.53,121.079
129.212,121.079
128.898,121.079
128.583,120.566
128.268,120.566
127.954,119.539
127.638,119.539
127.323,119.539
127.009,119.539
126.694,119.539
126.379,119.539
126.062,119.539
125.747,120.566
125.433,120.566
125.118,121.079
124.803,121.079
124.488,121.079
124.173,121.079
123.858,121.079
123.544,122.106
123.229,123.132
122.912,123.646
122.597,123.646
122.282,124.672
121.968,125.699
121.653,125.699
121.338,126.726
121.023,127.239
120.708,128.266
120.394,129.292
120.079,131.859
119.762,132.372
119.447,133.399
119.132,133.399
118.818,134.426
118.503,135.452
118.187,135.452
117.873,135.452
117.558,135.965
117.243,135.965
116.929,135.965
116.611,136.992
116.297,136.992
115.982,138.019
115.667,138.019
115.353,138.019
115.037,138.019
114.722,138.019
114.408,138.019
114.093,139.559
113.778,139.559
113.461,139.559
113.146,140.585
112.832,141.612
112.517,141.612
112.202,142.125
111.887,143.152
111.572,144.179
111.258,144.179
110.943,144.692
110.628,144.692
110.311,145.719
109.996,146.745
109.682,146.745
109.367,148.285
109.052,148.285
108.737,149.312
108.422,150.339
108.107,152.905
107.793,153.419
107.478,154.445
107.207,155.472
106.892,155.472
106.578,156.498
106.263,156.498
105.948,156.498
105.633,157.012
105.318,157.012
105.003,158.038
104.689,159.065
104.374,159.065
104.057,159.578
103.742,161.632
103.427,163.172
103.113,165.225
102.798,165.738
102.483,166.765
102.168,166.765
101.853,166.765
101.539,166.765
101.224,166.765
100.907,166.765
100.592,167.792
100.277,168.305
99.9626,168.305
99.6479,169.332
99.3324,169.332
99.0177,170.358
98.703,170.358
98.3883,171.898
98.0736,172.925
97.7564,173.952
97.4417,174.465
97.127,175.491
96.8123,174.465
96.4976,176.518
96.1822,177.031
95.8675,179.085
95.5527,176.518
95.2381,177.031" />
</g>
</svg>
