<?xml version="1.0"?>
<svg version="1.1"
     xmlns="http://www.w3.org/2000/svg"
     xmlns:xlink="http://www.w3.org/1999/xlink"
     viewBox="0 0 800 600">
<g>
<text fill="#000000" font-family="sans-serif" font-size="19.0476" text-anchor="start" x="4.7619" y="591.429" >
NIST Chemistry WebBook (https://webbook.nist.gov/chemistry)
</text>
<polyline stroke="#000000" stroke-width="1.19048" fill="none" points="95.2381,514.286
742.857,514.286
742.857,66.6667
95.2381,66.6667
95.2381,514.286" />
<text fill="#000000" font-family="sans-serif" font-size="19.0476" text-anchor="middle" x="419.048" y="24.7619" >
PHENYL-1,2-ETHANEDIOL
</text>
<text fill="#000000" font-family="sans-serif" font-size="19.0476" text-anchor="middle" x="419.048" y="53.3333" >
INFRARED SPECTRUM
</text>
<text fill="#000000" font-family="sans-serif" font-size="19.0476" text-anchor="middle" x="419.048" y="558.095" >
Micrometers
</text>
<text fill="#000000" font-family="sans-serif" font-size="19.0476" text-anchor="middle" transform="translate(20,290.476) rotate(270)" x="0" y="0" >
Transmitance
</text>
<text fill="#000000" font-family="sans-serif" font-size="19.0476" text-anchor="middle" x="648.236" y="534.286" >
4
</text>
<line stroke="#000000" stroke-width="1.19048" x1="648.236" y1="514.286" x2="648.236" y2="504.762" />
<text fill="#000000" font-family="sans-serif" font-size="19.0476" text-anchor="middle" x="458.518" y="534.286" >
8
</text>
<line stroke="#000000" stroke-width="1.19048" x1="458.518" y1="514.286" x2="458.518" y2="504.762" />
<text fill="#000000" font-family="sans-serif" font-size="19.0476" text-anchor="middle" x="268.801" y="534.286" >
12
</text>
<line stroke="#000000" stroke-width="1.19048" x1="268.801" y1="514.286" x2="268.801" y2="504.762" />
<line stroke="#000000" stroke-width="1.19048" x1="695.665" y1="514.286" x2="695.665" y2="509.524" />
<line stroke="#000000" stroke-width="1.19048" x1="648.236" y1="514.286" x2="648.236" y2="509.524" />
<line stroke="#000000" stroke-width="1.19048" x1="600.806" y1="514.286" x2="600.806" y2="509.524" />
<line stroke="#000000" stroke-width="1.19048" x1="553.377" y1="514.286" x2="553.377" y2="509.524" />
<line stroke="#000000" stroke-width="1.19048" x1="505.947" y1="514.286" x2="505.947" y2="509.524" />
<line stroke="#000000" stroke-width="1.19048" x1="458.518" y1="514.286" x2="458.518" y2="509.524" />
<line stroke="#000000" stroke-width="1.19048" x1="411.089" y1="514.286" x2="411.089" y2="509.524" />
<line stroke="#000000" stroke-width="1.19048" x1="363.659" y1="514.286" x2="363.659" y2="509.524" />
<line stroke="#000000" stroke-width="1.19048" x1="316.23" y1="514.286" x2="316.23" y2="509.524" />
<line stroke="#000000" stroke-width="1.19048" x1="268.801" y1="514.286" x2="268.801" y2="509.524" />
<line stroke="#000000" stroke-width="1.19048" x1="221.371" y1="514.286" x2="221.371" y2="509.524" />
<line stroke="#000000" stroke-width="1.19048" x1="173.942" y1="514.286" x2="173.942" y2="509.524" />
<line stroke="#000000" stroke-width="1.19048" x1="126.512" y1="514.286" x2="126.512" y2="509.524" />
<text fill="#000000" font-family="sans-serif" font-size="19.0476" text-anchor="end" x="90.4762" y="433.795" >
0.2
</text>
<line stroke="#000000" stroke-width="1.19048" x1="95.2381" y1="429.509" x2="104.762" y2="429.509" />
<text fill="#000000" font-family="sans-serif" font-size="19.0476" text-anchor="end" x="90.4762" y="336.908" >
0.4
</text>
<line stroke="#000000" stroke-width="1.19048" x1="95.2381" y1="332.622" x2="104.762" y2="332.622" />
<text fill="#000000" font-family="sans-serif" font-size="19.0476" text-anchor="end" x="90.4762" y="240.021" >
0.6
</text>
<line stroke="#000000" stroke-width="1.19048" x1="95.2381" y1="235.735" x2="104.762" y2="235.735" />
<text fill="#000000" font-family="sans-serif" font-size="19.0476" text-anchor="end" x="90.4762" y="143.133" >
0.8
</text>
<line stroke="#000000" stroke-width="1.19048" x1="95.2381" y1="138.848" x2="104.762" y2="138.848" />
<line stroke="#000000" stroke-width="1.19048" x1="95.2381" y1="502.175" x2="100" y2="502.175" />
<line stroke="#000000" stroke-width="1.19048" x1="95.2381" y1="477.953" x2="100" y2="477.953" />
<line stroke="#000000" stroke-width="1.19048" x1="95.2381" y1="453.731" x2="100" y2="453.731" />
<line stroke="#000000" stroke-width="1.19048" x1="95.2381" y1="429.509" x2="100" y2="429.509" />
<line stroke="#000000" stroke-width="1.19048" x1="95.2381" y1="405.288" x2="100" y2="405.288" />
<line stroke="#000000" stroke-width="1.19048" x1="95.2381" y1="381.066" x2="100" y2="381.066" />
<line stroke="#000000" stroke-width="1.19048" x1="95.2381" y1="356.844" x2="100" y2="356.844" />
<line stroke="#000000" stroke-width="1.19048" x1="95.2381" y1="332.622" x2="100" y2="332.622" />
<line stroke="#000000" stroke-width="1.19048" x1="95.2381" y1="308.4" x2="100" y2="308.4" />
<line stroke="#000000" stroke-width="1.19048" x1="95.2381" y1="284.178" x2="100" y2="284.178" />
<line stroke="#000000" stroke-width="1.19048" x1="95.2381" y1="259.957" x2="100" y2="259.957" />
<line stroke="#000000" stroke-width="1.19048" x1="95.2381" y1="235.735" x2="100" y2="235.735" />
<line stroke="#000000" stroke-width="1.19048" x1="95.2381" y1="211.513" x2="100" y2="211.513" />
<line stroke="#000000" stroke-width="1.19048" x1="95.2381" y1="187.291" x2="100" y2="187.291" />
<line stroke="#000000" stroke-width="1.19048" x1="95.2381" y1="163.069" x2="100" y2="163.069" />
<line stroke="#000000" stroke-width="1.19048" x1="95.2381" y1="138.848" x2="100" y2="138.848" />
<line stroke="#000000" stroke-width="1.19048" x1="95.2381" y1="114.626" x2="100" y2="114.626" />
<line stroke="#000000" stroke-width="1.19048" x1="95.2381" y1="90.404" x2="100" y2="90.404" />
<polyline stroke="#FF0000" stroke-width="1.19048" fill="none" points="742.857,243.97
742.551,242.517
742.244,241.548
741.938,241.064
741.631,238.642
741.324,236.704
741.017,236.219
740.711,236.219
740.404,232.344
740.098,228.953
739.822,228.953
739.515,232.344
739.209,234.766
738.902,235.25
738.596,236.219
738.288,235.25
737.982,233.797
737.675,232.828
737.369,232.344
737.062,230.406
736.739,230.406
736.432,229.922
736.126,228.953
735.819,226.531
735.513,226.046
735.206,225.077
734.899,223.624
734.593,221.202
734.286,219.749
733.98,218.78
733.656,218.78
733.349,218.78
733.043,218.78
732.736,220.233
732.43,221.202
732.123,222.171
731.816,222.655
731.51,223.624
731.203,226.531
730.897,227.5
730.62,228.468
730.314,228.468
730.007,228.468
729.701,228.468
729.394,227.5
729.087,226.046
728.781,225.077
728.474,223.624
728.168,220.233
727.861,218.78
727.537,217.326
727.231,216.357
726.924,213.935
726.618,212.482
726.311,211.998
726.004,211.029
725.698,209.575
725.391,209.575
725.085,207.638
724.778,206.184
724.455,204.731
724.148,204.731
723.842,203.762
723.535,203.762
723.229,205.7
722.921,207.638
722.615,208.606
722.308,208.606
722.002,208.606
721.695,207.638
721.419,204.731
721.113,202.309
720.806,200.855
720.5,199.887
720.193,199.887
719.886,200.855
719.579,200.855
719.273,200.855
718.966,199.402
718.66,197.464
718.336,195.527
718.03,194.558
717.723,193.589
717.417,191.167
717.11,189.713
716.803,186.807
716.496,184.869
716.19,181.962
715.883,179.54
715.577,178.087
715.301,175.665
714.994,172.758
714.688,169.367
714.381,166.461
714.075,162.101
713.767,160.163
713.461,158.225
713.154,160.163
712.848,166.461
712.542,167.914
712.218,174.696
711.911,174.696
711.605,166.461
711.298,164.038
710.992,158.225
710.685,156.287
710.378,155.319
710.072,154.35
709.765,152.896
709.459,151.443
709.135,149.021
708.828,148.052
708.522,147.568
708.215,146.599
707.909,145.145
707.602,145.145
707.295,145.145
706.989,144.176
706.682,142.723
706.376,141.27
706.099,138.848
705.793,137.879
705.486,135.457
705.18,134.972
704.873,135.457
704.566,135.457
704.26,136.425
703.953,136.425
703.647,137.394
703.34,137.879
703.016,139.332
702.71,141.754
702.403,143.692
702.097,145.63
701.79,149.021
701.483,155.319
701.177,160.163
700.87,168.398
700.564,173.243
700.257,183.416
699.934,192.136
699.627,200.855
699.321,209.575
699.014,218.78
698.708,228.468
698.4,237.673
698.094,248.815
697.787,259.472
697.481,272.068
697.174,290.961
696.898,303.072
696.592,315.667
696.285,330.2
695.979,344.249
695.672,358.782
695.365,375.253
695.058,394.146
694.752,418.367
694.445,444.042
694.139,460.029
693.815,468.749
693.509,476.984
693.202,490.548
692.896,499.268
692.589,504.597
692.282,507.019
691.975,508.472
691.669,509.926
691.362,509.926
691.056,510.895
690.78,510.895
690.473,510.895
690.167,510.895
689.86,510.895
689.554,511.864
689.246,512.348
688.94,512.348
688.633,512.348
688.327,511.864
688.021,511.864
687.697,511.864
687.39,511.864
687.084,510.895
686.777,509.926
686.471,509.926
686.164,508.472
685.857,507.019
685.551,505.566
685.244,503.144
684.938,499.753
684.614,495.393
684.307,489.579
684.001,482.797
683.694,474.078
683.388,468.749
683.081,464.389
682.774,462.935
682.468,461.482
682.161,458.091
681.855,456.638
681.578,454.216
681.272,452.762
680.965,448.887
680.659,447.918
680.352,446.465
680.045,445.98
679.739,444.042
679.432,441.136
679.126,436.292
678.819,440.167
678.495,450.34
678.189,462.451
677.882,478.922
677.576,485.704
677.269,499.268
676.962,507.019
676.656,513.317
676.349,514.286
676.043,514.286
675.736,513.317
675.46,513.317
675.154,512.348
674.847,512.348
674.541,512.348
674.234,511.864
673.927,510.895
673.62,510.895
673.314,509.926
673.007,509.441
672.701,508.472
672.377,508.472
672.071,507.988
671.764,507.988
671.458,507.988
671.151,507.988
670.844,508.472
670.537,508.472
670.231,507.988
669.924,503.144
669.618,497.815
669.294,489.579
668.988,460.029
668.681,438.714
668.375,418.367
668.068,394.146
667.761,379.612
667.455,372.83
667.148,366.533
666.842,357.813
666.535,348.609
666.259,341.342
665.952,332.622
665.646,328.747
665.339,320.996
665.033,316.151
664.726,313.729
664.419,313.729
664.113,313.245
663.806,313.245
663.5,313.245
663.176,312.276
662.869,311.307
662.563,310.823
662.256,309.369
661.95,306.947
661.643,303.072
661.336,299.68
661.03,295.805
660.723,294.352
660.417,290.476
660.093,288.054
659.786,288.054
659.48,287.085
659.173,286.601
658.867,283.21
658.56,278.365
658.253,275.943
657.947,275.459
657.64,274.49
657.334,272.068
657.057,270.13
656.751,266.739
656.444,263.832
656.138,258.988
655.831,251.721
655.524,249.299
655.218,247.361
654.911,243.001
654.605,237.673
654.298,233.797
653.974,229.922
653.668,227.5
653.362,226.046
653.055,223.624
652.749,218.295
652.441,215.873
652.135,215.873
651.828,219.749
651.522,219.749
651.215,218.295
650.939,214.904
650.633,212.482
650.326,210.06
650.02,210.06
649.713,209.575
649.406,208.606
649.099,208.606
648.793,207.638
648.486,207.638
648.18,207.153
647.856,206.184
647.55,205.7
647.243,203.762
646.937,203.278
646.63,201.824
646.323,199.887
646.016,199.402
645.71,199.402
645.403,197.464
645.097,195.527
644.773,192.136
644.467,189.713
644.16,187.291
643.854,187.291
643.547,185.838
643.24,183.416
642.934,182.931
642.627,181.962
642.321,180.994
642.014,180.509
641.738,179.54
641.431,179.54
641.125,178.087
640.818,177.118
640.512,175.665
640.205,173.243
639.898,171.789
639.592,170.336
639.285,169.367
638.979,167.914
638.655,166.461
638.348,164.038
638.042,162.101
637.735,160.647
637.429,160.647
637.122,156.772
636.815,156.772
636.509,157.741
636.202,159.194
635.896,164.038
635.572,168.398
635.265,171.789
634.959,179.056
634.652,180.994
634.346,180.994
634.039,179.54
633.732,178.087
633.426,173.243
633.119,170.82
632.813,167.914
632.536,166.461
632.23,166.461
631.923,164.523
631.617,164.523
631.31,168.398
631.003,168.398
630.697,160.163
630.39,151.443
630.084,146.599
629.777,141.27
629.453,135.457
629.147,131.097
628.841,127.706
628.534,126.252
628.228,126.252
627.92,127.221
627.614,127.706
627.307,127.706
627.001,128.675
626.694,128.675
626.418,130.128
626.112,131.097
625.805,131.581
625.499,131.097
625.192,130.128
624.885,128.675
624.578,127.706
624.272,127.706
623.965,126.252
623.659,125.283
623.335,124.799
623.029,123.83
622.722,123.83
622.416,122.377
622.109,121.408
621.802,121.408
621.495,120.924
621.189,119.955
620.883,118.501
620.576,116.564
620.252,114.626
619.946,113.657
619.639,113.657
619.333,115.11
619.026,116.564
618.719,116.564
618.413,116.079
618.106,115.11
617.8,114.626
617.493,112.204
617.217,111.235
616.91,110.75
616.604,110.75
616.297,109.781
615.991,109.781
615.684,110.75
615.377,110.75
615.071,112.204
614.764,112.204
614.458,111.235
614.134,108.813
613.827,108.328
613.521,107.359
613.214,105.906
612.908,105.906
612.601,108.328
612.294,108.328
611.988,107.359
611.681,106.39
611.375,105.906
611.051,104.937
610.744,104.937
610.438,104.937
610.131,105.906
609.825,107.359
609.518,107.359
609.211,105.906
608.905,104.937
608.598,104.453
608.292,102.031
608.015,102.031
607.709,101.062
607.402,100.093
607.096,100.093
606.789,99.6083
606.482,100.093
606.176,100.093
605.869,100.093
605.563,100.093
605.256,100.093
604.932,100.093
604.626,100.093
604.32,99.6083
604.013,98.6395
603.707,97.1862
603.399,95.7328
603.093,93.7951
602.786,93.3107
602.48,93.3107
602.173,91.8574
601.897,89.9196
601.591,89.4352
601.284,89.4352
600.978,88.4663
600.671,87.9819
600.364,87.9819
600.057,87.013
599.751,87.9819
599.444,87.9819
599.138,87.9819
598.814,87.9819
598.508,89.4352
598.201,89.4352
597.895,89.9196
597.588,91.8574
597.281,93.7951
596.974,94.764
596.668,91.8574
596.361,91.8574
596.055,92.3418
595.731,93.3107
595.425,93.7951
595.118,95.7328
594.812,98.155
594.505,102.515
594.198,104.937
593.892,108.328
593.585,109.781
593.279,113.657
592.972,123.83
592.696,127.706
592.389,127.706
592.083,124.799
591.776,116.079
591.47,112.204
591.163,107.359
590.856,101.062
590.55,96.2173
590.243,91.8574
589.937,89.4352
589.613,89.4352
589.306,88.4663
589,87.9819
588.693,86.0441
588.387,85.5597
588.08,85.5597
587.773,86.0441
587.467,88.4663
587.16,89.4352
586.854,91.8574
586.577,94.764
586.271,98.155
585.964,103.484
585.658,109.781
585.351,113.657
585.044,113.657
584.738,110.75
584.431,95.7328
584.125,94.764
583.818,95.7328
583.494,98.155
583.188,108.328
582.881,108.328
582.575,105.906
582.268,93.7951
581.961,77.3243
581.655,75.871
581.348,75.871
581.042,76.8398
580.735,78.2932
580.411,79.262
580.105,80.7153
579.799,81.6842
579.492,87.013
579.186,88.4663
578.878,88.4663
578.572,87.013
578.265,75.871
577.959,75.871
577.652,77.3243
577.376,84.5908
577.07,89.9196
576.763,91.8574
576.457,91.8574
576.15,89.9196
575.843,83.1375
575.536,83.1375
575.23,83.6219
574.923,87.013
574.617,88.4663
574.293,89.4352
573.987,92.3418
573.68,93.7951
573.374,93.7951
573.067,92.3418
572.76,85.5597
572.453,80.7153
572.147,78.2932
571.84,69.5733
571.534,66.6667
571.21,66.6667
570.904,69.5733
570.597,76.8398
570.291,81.6842
569.984,85.5597
569.677,89.9196
569.371,96.2173
569.064,97.1862
568.758,96.2173
568.451,80.7153
568.175,78.2932
567.868,78.2932
567.562,82.1686
567.255,86.0441
566.949,92.3418
566.642,97.1862
566.335,98.155
566.029,97.1862
565.722,96.2173
565.416,89.9196
565.092,89.4352
564.785,89.4352
564.479,94.764
564.172,95.7328
563.866,93.7951
563.559,77.3243
563.252,75.871
562.946,77.3243
562.639,97.1862
562.333,99.6083
562.056,99.6083
561.75,85.5597
561.443,73.4488
561.137,72.9644
560.83,79.262
560.523,79.7465
560.217,84.5908
559.91,88.4663
559.604,93.3107
559.297,93.3107
558.973,90.8885
558.667,83.6219
558.36,72.9644
558.054,71.9955
557.747,72.9644
557.44,83.1375
557.134,88.4663
556.827,93.7951
556.521,94.764
556.214,92.3418
555.891,92.3418
555.584,92.3418
555.278,93.3107
554.971,94.764
554.665,96.2173
554.357,96.2173
554.051,95.7328
553.744,89.4352
553.438,83.6219
553.131,83.6219
552.855,85.5597
552.549,89.9196
552.242,90.8885
551.936,94.764
551.629,96.2173
551.322,96.2173
551.015,95.7328
550.709,86.0441
550.402,83.6219
550.096,83.1375
549.772,83.1375
549.466,97.1862
549.159,96.2173
548.853,87.9819
548.546,87.013
548.239,82.1686
547.932,83.6219
547.626,87.013
547.319,89.4352
547.013,92.3418
546.689,87.9819
546.383,89.9196
546.076,91.8574
545.77,95.7328
545.463,97.1862
545.156,98.6395
544.85,103.484
544.543,112.688
544.237,120.924
543.93,131.097
543.654,132.55
543.347,134.003
543.041,134.003
542.734,131.581
542.428,112.204
542.121,105.906
541.814,99.6083
541.508,98.155
541.201,99.6083
540.895,104.937
540.571,108.328
540.264,112.204
539.958,114.626
539.651,114.626
539.345,109.781
539.038,107.359
538.731,104.937
538.425,102.031
538.118,98.6395
537.812,93.3107
537.535,98.155
537.229,101.062
536.922,104.453
536.616,107.359
536.309,111.235
536.002,118.986
535.696,119.955
535.389,119.955
535.083,118.986
534.776,114.626
534.452,108.813
534.146,107.359
533.839,118.501
533.533,122.377
533.226,123.83
532.919,125.283
532.613,128.675
532.306,131.097
532,133.519
531.693,137.394
531.37,137.879
531.063,137.394
530.757,132.55
530.45,125.283
530.144,120.924
529.836,120.924
529.53,123.83
529.223,128.675
528.917,131.581
528.61,134.972
528.334,137.879
528.028,141.754
527.721,145.145
527.415,149.021
527.108,150.474
526.801,150.474
526.494,151.443
526.188,152.896
525.881,156.772
525.575,161.616
525.251,166.945
524.945,171.789
524.638,175.665
524.332,179.54
524.025,183.416
523.718,185.838
523.411,188.26
523.105,194.558
522.798,210.06
522.492,226.046
522.168,245.424
521.862,265.77
521.555,287.085
521.249,307.431
520.942,326.324
520.635,334.075
520.329,336.498
520.022,336.498
519.716,331.169
519.409,331.169
519.133,332.622
518.826,342.795
518.52,357.813
518.213,361.688
517.907,380.581
517.6,386.879
517.293,397.052
516.987,407.225
516.68,417.398
516.374,427.087
516.05,445.011
515.743,454.216
515.437,462.451
515.13,470.686
514.824,474.078
514.517,475.046
514.21,475.531
513.904,475.046
513.597,475.046
513.291,473.109
513.014,473.109
512.708,470.686
512.401,469.233
512.095,467.78
511.788,467.78
511.481,468.749
511.175,485.22
510.868,485.22
510.562,461.482
510.255,445.011
509.931,440.167
509.625,438.714
509.319,429.509
509.012,420.79
508.706,404.319
508.398,389.301
508.092,374.284
507.785,363.142
507.479,352.968
507.172,347.64
506.849,344.249
506.542,342.311
506.236,339.889
505.929,336.013
505.623,328.747
505.315,327.293
505.009,321.48
504.702,316.151
504.396,313.729
504.089,309.369
503.813,301.134
503.507,292.898
503.2,284.179
502.894,276.912
502.587,274.49
502.28,274.49
501.973,272.068
501.667,270.614
501.36,270.13
501.054,268.192
500.73,265.77
500.424,262.863
500.117,259.472
499.811,255.597
499.504,251.237
499.197,247.361
498.891,242.517
498.584,238.642
498.277,231.375
497.971,229.922
497.695,228.953
497.388,230.406
497.082,239.126
496.775,248.815
496.469,255.597
496.162,264.317
495.855,272.068
495.549,282.241
495.242,292.898
494.936,305.978
494.612,317.605
494.305,328.747
493.999,337.467
493.692,341.342
493.386,354.906
493.079,354.906
492.772,342.311
492.466,329.716
492.159,316.151
491.853,305.009
491.529,281.756
491.222,279.334
490.916,278.365
490.609,277.881
490.303,275.943
489.996,270.614
489.689,262.863
489.383,254.143
489.076,247.361
488.77,247.361
488.493,251.237
488.187,270.13
487.88,284.663
487.574,305.978
487.267,326.324
486.96,343.764
486.654,353.937
486.347,359.266
486.041,361.204
485.734,361.688
485.41,362.657
485.104,363.142
484.798,364.11
484.491,364.11
484.185,363.142
483.877,350.546
483.571,338.435
483.264,325.84
482.958,314.698
482.651,303.072
482.328,286.601
482.021,280.787
481.715,278.365
481.408,273.036
481.102,265.286
480.794,256.566
480.488,246.392
480.181,236.219
479.875,227.5
479.568,221.202
479.292,217.326
478.986,215.873
478.679,213.935
478.373,213.451
478.066,213.451
477.759,215.873
477.452,221.202
477.146,225.077
476.839,229.922
476.533,231.375
476.209,232.344
475.903,229.922
475.596,222.171
475.29,217.326
474.983,212.482
474.676,207.638
474.37,205.7
474.063,199.887
473.757,199.402
473.45,198.433
473.174,196.98
472.867,195.527
472.561,195.527
472.254,194.558
471.948,194.558
471.641,193.589
471.334,193.589
471.028,193.105
470.721,193.105
470.415,192.136
470.091,190.682
469.784,188.26
469.478,183.416
469.171,182.931
468.865,182.931
468.558,182.931
468.251,182.931
467.945,182.931
467.638,182.931
467.332,183.416
467.008,187.291
466.701,191.167
466.395,197.464
466.088,206.184
465.782,214.904
465.475,223.624
465.168,232.828
464.862,240.095
464.555,246.392
464.249,250.268
463.972,252.69
463.666,258.019
463.359,258.988
463.053,258.019
462.746,253.175
462.439,247.846
462.133,234.766
461.826,228.468
461.52,221.202
461.213,215.873
460.889,211.998
460.583,211.029
460.277,208.606
459.97,207.638
459.664,207.153
459.356,207.153
459.05,207.153
458.743,207.638
458.437,209.575
458.13,210.06
457.807,211.029
457.5,211.998
457.194,213.451
456.887,215.873
456.581,219.749
456.273,223.624
455.967,228.953
455.66,233.797
455.354,240.095
455.047,246.392
454.771,253.175
454.465,260.441
454.158,267.708
453.852,275.459
453.545,284.179
453.238,289.507
452.931,294.836
452.625,301.134
452.318,306.947
452.012,311.307
451.688,313.245
451.382,313.245
451.075,311.307
450.769,303.072
450.462,294.836
450.155,287.085
449.849,279.334
449.542,270.614
449.236,261.41
448.929,250.268
448.653,237.673
448.346,226.531
448.04,218.78
447.733,212.482
447.427,207.638
447.12,203.278
446.813,199.887
446.507,195.527
446.2,194.558
445.894,193.589
445.57,196.98
445.263,202.309
444.957,210.06
444.65,216.357
444.344,222.171
444.037,227.5
443.73,234.766
443.424,238.642
443.117,244.939
442.811,247.361
442.487,247.361
442.18,241.548
441.874,241.548
441.567,251.237
441.261,252.69
440.954,258.988
440.647,259.472
440.341,269.161
440.034,269.161
439.728,250.268
439.451,222.655
439.145,206.184
438.838,196.011
438.532,189.229
438.225,180.509
437.918,167.914
437.612,160.647
437.305,160.163
436.999,160.163
436.692,160.647
436.368,160.647
436.062,161.616
435.756,163.069
435.449,164.523
435.143,166.461
434.835,168.398
434.529,167.914
434.222,159.194
433.916,154.35
433.609,150.474
433.286,148.052
432.979,145.145
432.673,143.692
432.366,138.848
432.06,137.879
431.752,137.394
431.446,136.425
431.139,145.63
430.833,153.865
430.526,155.319
430.25,164.038
429.944,170.82
429.637,170.82
429.331,160.163
429.024,150.474
428.717,144.176
428.41,137.879
428.104,131.581
427.797,130.128
427.491,129.159
427.167,129.159
426.861,129.159
426.554,130.128
426.248,131.097
425.941,131.581
425.634,132.55
425.328,131.581
425.021,128.675
424.715,122.377
424.408,115.11
424.132,113.657
423.825,109.781
423.519,107.359
423.212,106.39
422.906,105.906
422.599,105.906
422.292,105.906
421.986,104.937
421.679,104.937
421.373,103.484
421.049,102.515
420.742,103.484
420.436,104.453
420.129,105.906
419.823,107.359
419.516,108.328
419.209,109.781
418.903,112.204
418.596,114.626
418.29,116.079
417.966,116.564
417.659,118.501
417.353,121.408
417.046,125.283
416.74,134.972
416.433,137.879
416.126,144.176
415.82,153.865
415.513,164.523
415.207,177.118
414.93,191.167
414.624,205.7
414.317,221.202
414.011,236.704
413.704,256.566
413.397,265.286
413.091,266.739
412.784,266.739
412.478,265.286
412.171,261.894
411.848,261.41
411.541,261.41
411.235,272.068
410.928,302.103
410.622,319.542
410.314,340.373
410.008,355.391
409.701,377.675
409.395,399.474
409.088,426.118
408.812,466.327
408.506,474.078
408.199,485.22
407.893,485.22
407.586,481.828
407.279,477.953
406.972,476.5
406.666,471.655
406.359,461.482
406.053,456.638
405.729,452.278
405.423,450.34
405.116,449.856
404.81,450.34
404.503,456.153
404.196,462.935
403.889,468.749
403.583,470.686
403.276,475.531
402.97,480.86
402.646,480.86
402.34,479.406
402.033,473.109
401.727,467.78
401.42,460.029
401.113,449.856
400.807,447.434
400.5,443.558
400.194,439.683
399.887,437.26
399.611,436.292
399.304,438.714
398.998,442.589
398.691,447.434
398.385,452.278
398.078,452.278
397.771,449.856
397.465,443.558
397.158,436.292
396.852,432.416
396.528,429.509
396.221,423.696
395.915,404.803
395.608,389.301
395.302,383.972
394.995,377.675
394.688,374.284
394.382,373.315
394.075,373.315
393.769,374.284
393.445,376.706
393.138,382.035
392.832,389.786
392.525,399.474
392.219,410.616
391.912,422.243
391.605,444.042
391.299,454.216
390.992,462.935
390.686,466.327
390.409,467.78
390.103,467.78
389.796,469.233
389.49,473.109
389.183,476.984
388.876,481.828
388.57,484.251
388.263,487.157
387.957,490.548
387.65,492.002
387.327,491.517
387.02,487.157
386.714,476.984
386.407,466.327
386.101,456.638
385.793,445.98
385.487,433.385
385.18,429.994
384.874,427.572
384.567,414.976
384.291,404.803
383.985,399.474
383.678,392.208
383.372,390.754
383.065,389.301
382.758,389.301
382.451,389.786
382.145,397.052
381.838,400.443
381.532,405.772
381.208,408.679
380.902,413.523
380.595,415.945
380.289,418.367
379.982,421.274
379.675,423.696
379.368,421.274
379.062,408.194
378.755,400.443
378.449,391.723
378.125,382.035
377.819,372.83
377.512,364.11
377.206,346.186
376.899,346.186
376.592,367.986
376.286,383.004
375.979,387.848
375.673,398.505
375.366,402.381
375.09,416.914
374.783,416.914
374.477,402.381
374.17,383.972
373.864,382.035
373.557,364.11
373.25,347.64
372.944,323.902
372.637,305.009
372.331,290.961
372.007,278.365
371.7,269.161
371.394,260.441
371.087,253.175
370.781,245.424
370.474,236.704
370.167,232.344
369.861,226.531
369.554,222.655
369.248,219.749
368.924,209.575
368.617,204.731
368.311,202.309
368.004,199.887
367.698,196.011
367.391,190.682
367.084,186.807
366.778,184.385
366.471,182.931
366.165,180.994
365.888,179.54
365.582,178.087
365.275,179.056
364.969,180.994
364.662,189.229
364.355,190.682
364.049,207.153
363.742,214.904
363.436,214.904
363.129,209.575
362.806,183.416
362.499,174.212
362.193,166.461
361.886,165.492
361.58,166.461
361.272,170.336
360.966,176.634
360.659,179.056
360.353,179.54
360.046,179.056
359.77,169.367
359.464,164.523
359.157,161.616
358.851,157.741
358.544,157.741
358.237,155.319
357.93,154.35
357.624,152.896
357.317,151.927
357.011,151.443
356.687,151.443
356.381,151.927
356.074,152.896
355.768,153.865
355.461,153.865
355.154,152.896
354.848,150.474
354.541,146.599
354.234,143.692
353.928,144.176
353.604,151.443
353.298,151.927
352.991,151.443
352.685,151.443
352.378,150.474
352.071,149.021
351.765,148.052
351.458,145.63
351.152,144.176
350.845,141.27
350.569,138.848
350.262,138.848
349.956,137.879
349.649,137.879
349.343,137.879
349.036,139.332
348.729,139.332
348.423,140.301
348.116,139.332
347.81,138.848
347.486,137.879
347.179,137.879
346.873,137.394
346.566,137.879
346.26,138.848
345.953,138.848
345.646,138.848
345.34,138.848
345.033,138.848
344.727,137.879
344.45,137.879
344.144,137.394
343.837,137.394
343.531,137.394
343.224,135.457
342.917,133.519
342.611,131.581
342.304,131.581
341.998,131.097
341.691,131.097
341.367,130.128
341.061,129.159
340.754,128.675
340.448,127.706
340.141,128.675
339.834,132.55
339.528,132.55
339.221,131.581
338.915,131.097
338.608,130.128
338.285,129.159
337.978,128.675
337.672,127.706
337.365,127.706
337.059,127.221
336.751,127.221
336.445,126.252
336.138,126.252
335.832,125.283
335.525,124.799
335.249,124.799
334.943,123.83
334.636,122.861
334.33,123.83
334.023,124.799
333.716,125.283
333.409,125.283
333.103,125.283
332.796,125.283
332.49,124.799
332.166,124.799
331.86,124.799
331.553,124.799
331.247,124.799
330.94,125.283
330.633,126.252
330.327,127.221
330.02,126.252
329.714,127.706
329.407,128.675
329.083,130.128
328.777,131.097
328.47,131.097
328.164,131.581
327.857,131.581
327.55,135.457
327.244,137.394
326.937,137.879
326.631,138.848
326.324,140.301
326.048,141.754
325.741,145.145
325.435,147.568
325.128,150.474
324.822,153.865
324.515,157.741
324.208,161.616
323.902,166.461
323.595,171.789
323.289,182.931
322.965,196.98
322.658,213.935
322.352,232.344
322.045,250.268
321.739,257.535
321.432,264.317
321.125,280.303
320.819,298.227
320.512,298.227
320.206,280.303
319.929,275.459
319.623,274.005
319.316,259.472
319.01,259.472
318.703,276.912
318.396,293.383
318.09,302.103
317.783,308.4
317.477,317.12
317.17,338.92
316.846,338.92
316.54,320.027
316.233,288.538
315.927,255.112
315.621,225.077
315.313,207.638
315.007,196.011
314.7,193.105
314.394,189.713
314.087,189.229
313.764,187.291
313.457,187.291
313.151,185.838
312.844,185.838
312.538,191.167
312.23,209.575
311.924,215.873
311.617,225.077
311.311,234.766
311.004,248.815
310.728,265.286
310.422,282.241
310.115,299.68
309.809,316.151
309.502,331.169
309.195,342.311
308.888,349.093
308.582,355.391
308.275,361.688
307.969,362.657
307.645,361.688
307.339,356.844
307.032,349.093
306.726,343.764
306.419,338.435
306.112,336.013
305.806,334.075
305.499,332.622
305.193,335.044
304.886,338.435
304.562,346.671
304.256,355.391
303.949,365.079
303.643,375.737
303.336,382.035
303.029,391.723
302.723,400.928
302.416,402.381
302.11,413.523
301.803,413.523
301.527,404.319
301.22,394.146
300.914,383.004
300.607,372.83
300.301,365.079
299.994,337.467
299.687,315.667
299.381,296.774
299.074,281.756
298.768,269.161
298.444,257.535
298.137,246.392
297.831,234.766
297.524,222.171
297.218,207.638
296.911,201.824
296.604,195.527
296.298,189.229
295.991,181.962
295.685,174.696
295.408,168.398
295.102,164.038
294.795,159.194
294.489,156.772
294.182,155.319
293.875,151.443
293.569,149.99
293.262,145.63
292.956,143.692
292.649,143.692
292.326,141.754
292.019,140.301
291.713,139.332
291.406,138.848
291.1,137.879
290.792,137.879
290.486,136.425
290.179,136.425
289.873,135.457
289.566,135.457
289.243,135.457
288.936,134.972
288.63,135.457
288.323,136.425
288.017,137.394
287.709,137.879
287.403,138.848
287.096,141.754
286.79,146.599
286.483,149.99
286.207,151.927
285.901,155.319
285.594,160.647
285.288,162.101
284.981,162.101
284.674,158.225
284.367,145.145
284.061,144.176
283.754,144.176
283.448,144.176
283.124,144.176
282.818,145.145
282.511,145.145
282.205,145.145
281.898,145.63
281.591,146.599
281.285,149.021
280.978,150.474
280.672,152.896
280.365,153.865
280.041,155.319
279.735,156.772
279.428,158.225
279.122,162.101
278.815,167.914
278.508,173.243
278.202,175.665
277.895,177.118
277.589,180.994
277.282,187.291
277.006,199.402
276.699,207.153
276.393,214.904
276.086,222.171
275.78,226.046
275.473,227.5
275.166,228.468
274.86,229.922
274.553,230.406
274.247,230.406
273.923,228.468
273.616,228.468
273.31,232.828
273.003,241.548
272.697,252.69
272.39,262.863
272.083,270.614
271.777,278.365
271.47,287.085
271.164,305.009
270.887,310.823
270.581,317.12
270.274,324.871
269.968,335.044
269.661,349.093
269.354,358.782
269.048,359.266
268.741,365.079
268.435,371.861
268.128,377.675
267.805,384.457
267.498,392.208
267.192,400.443
266.885,406.741
266.579,412.554
266.271,415.945
265.965,416.914
265.658,415.945
265.352,413.523
265.045,404.319
264.722,385.426
264.415,379.128
264.109,352.484
263.802,329.716
263.496,307.431
263.188,289.507
262.882,273.036
262.575,258.019
262.269,243.001
261.962,228.953
261.686,213.451
261.38,201.824
261.073,192.136
260.767,183.416
260.46,176.634
260.153,169.367
259.846,164.038
259.54,157.741
259.233,152.896
258.927,149.99
258.603,146.599
258.297,143.692
257.99,140.301
257.684,138.848
257.377,136.425
257.07,135.457
256.764,134.003
256.457,134.003
256.151,133.519
255.844,133.519
255.568,132.55
255.261,132.55
254.955,132.55
254.648,132.55
254.342,133.519
254.035,133.519
253.728,134.003
253.422,134.972
253.115,134.972
252.809,134.972
252.485,135.457
252.178,135.457
251.872,136.425
251.565,136.425
251.259,136.425
250.952,136.425
250.645,137.394
250.339,137.879
250.032,137.879
249.726,138.848
249.402,138.848
249.095,139.332
248.789,139.332
248.482,140.301
248.176,141.27
247.869,141.754
247.562,141.754
247.256,141.754
246.949,143.692
246.643,143.692
246.366,142.723
246.06,141.754
245.753,141.27
245.447,141.27
245.14,140.301
244.833,138.848
244.527,138.848
244.22,138.848
243.914,137.879
243.607,137.394
243.284,136.425
242.977,136.425
242.671,137.394
242.364,137.879
242.058,138.848
241.75,139.332
241.444,138.848
241.137,138.848
240.831,139.332
240.524,141.27
240.201,141.754
239.894,142.723
239.588,142.723
239.281,143.692
238.975,144.176
238.667,145.145
238.361,146.599
238.054,149.021
237.748,150.474
237.441,151.443
237.165,151.927
236.859,154.35
236.552,156.772
236.246,157.741
235.939,157.741
235.632,158.225
235.326,159.194
235.019,160.163
234.713,164.038
234.406,165.492
234.082,166.461
233.776,166.461
233.469,166.945
233.163,170.336
232.856,173.243
232.549,175.665
232.243,176.634
231.936,178.087
231.63,179.056
231.323,179.54
231.047,183.416
230.74,187.291
230.434,189.713
230.127,191.167
229.821,193.105
229.514,196.011
229.207,196.011
228.901,197.464
228.594,198.433
228.288,201.824
227.964,204.731
227.657,207.153
227.351,208.606
227.044,210.06
226.738,211.998
226.431,214.904
226.124,216.357
225.818,219.749
225.511,221.202
225.205,224.593
224.881,226.531
224.574,230.406
224.268,232.828
223.961,236.219
223.655,239.126
223.348,241.548
223.041,245.424
222.735,248.815
222.428,253.175
222.122,258.019
221.845,263.832
221.539,265.77
221.232,267.708
220.926,272.068
220.619,280.787
220.312,287.085
220.006,294.352
219.699,298.227
219.393,303.556
219.086,310.823
218.763,317.605
218.456,326.324
218.15,335.044
217.843,342.795
217.537,350.062
217.229,356.359
216.923,374.284
216.616,378.159
216.31,388.332
216.003,398.505
215.68,409.647
215.373,414.492
215.067,427.572
214.76,452.278
214.454,458.091
214.146,465.358
213.84,470.686
213.533,475.531
213.227,476.984
212.921,482.797
212.644,482.797
212.338,480.86
212.031,466.327
211.725,453.731
211.418,444.042
211.111,432.416
210.805,429.509
210.498,426.118
210.192,416.914
209.885,410.616
209.561,404.803
209.255,401.897
208.948,398.021
208.642,393.177
208.335,393.177
208.028,394.63
207.722,395.599
207.415,400.443
207.109,404.319
206.802,409.647
206.526,416.914
206.219,421.274
205.913,427.572
205.606,440.167
205.3,449.856
204.993,459.06
204.686,466.327
204.38,469.233
204.073,476.5
203.767,481.828
203.443,483.282
203.136,485.704
202.83,486.673
202.523,487.157
202.217,487.157
201.91,486.673
201.603,480.86
201.297,475.531
200.99,468.749
200.684,462.935
200.36,448.887
200.053,441.62
199.747,430.963
199.44,427.572
199.134,425.149
198.827,418.852
198.52,414.976
198.214,406.741
197.907,398.021
197.601,392.208
197.324,386.879
197.018,380.581
196.711,376.706
196.405,371.861
196.098,369.439
195.791,367.986
195.485,365.564
195.178,360.235
194.872,358.782
194.565,357.813
194.242,356.844
193.935,353.937
193.629,351.515
193.322,350.546
193.016,350.062
192.708,349.093
192.402,346.671
192.095,346.186
191.789,345.217
191.482,342.795
191.159,342.311
190.852,342.795
190.546,342.795
190.239,345.217
189.933,345.217
189.625,344.249
189.319,343.764
189.012,342.795
188.706,342.311
188.4,342.795
188.123,342.795
187.817,342.795
187.51,342.795
187.204,342.311
186.897,341.342
186.59,340.373
186.284,339.889
185.977,339.889
185.671,340.373
185.364,342.795
185.04,342.795
184.734,341.342
184.427,341.342
184.121,341.342
183.814,342.311
183.507,342.795
183.201,344.249
182.894,345.217
182.588,346.186
182.281,346.671
182.005,347.64
181.698,348.609
181.392,349.093
181.085,349.093
180.779,349.093
180.472,350.062
180.165,350.546
179.859,350.546
179.552,351.515
179.246,353.937
178.922,354.906
178.615,354.906
178.309,355.391
178.002,355.391
177.696,355.391
177.389,356.359
177.082,356.359
176.776,356.359
176.469,356.359
176.163,358.782
175.839,359.266
175.532,359.266
175.226,360.235
174.919,360.235
174.613,361.204
174.306,361.688
173.999,364.11
173.693,365.079
173.386,365.564
173.08,366.533
172.803,367.017
172.497,368.955
172.19,371.861
171.884,372.83
171.577,374.284
171.27,375.737
170.964,376.706
170.657,378.159
170.351,379.612
170.044,382.035
169.721,384.457
169.414,385.91
169.108,388.332
168.801,391.723
168.495,394.146
168.187,395.599
167.881,398.505
167.574,400.443
167.268,403.35
166.961,406.741
166.685,411.101
166.379,412.554
166.072,416.914
165.766,420.79
165.459,426.118
165.152,428.54
164.845,429.994
164.539,437.745
164.232,441.62
163.926,445.011
163.602,448.887
163.296,455.185
162.989,458.091
162.683,461.482
162.376,466.327
162.069,474.078
161.763,476.984
161.456,479.406
161.15,482.797
160.843,485.704
160.519,491.517
160.213,493.455
159.906,495.877
159.6,496.846
159.293,498.299
158.986,499.753
158.68,501.69
158.373,503.144
158.067,503.628
157.76,504.597
157.484,504.597
157.177,503.628
156.871,503.628
156.564,503.144
156.258,503.144
155.951,501.69
155.644,500.721
155.338,498.299
155.031,495.877
154.725,494.424
154.401,489.579
154.094,486.673
153.788,482.797
153.481,478.922
153.175,472.624
152.868,463.904
152.561,455.185
152.255,451.309
151.948,449.856
151.642,441.136
151.318,436.292
151.011,431.447
150.705,427.572
150.398,423.212
150.092,418.852
149.785,407.225
149.478,398.505
149.172,398.021
148.865,397.052
148.559,395.599
148.282,377.675
147.976,375.253
147.669,372.83
147.363,370.408
147.056,367.986
146.749,365.564
146.443,363.142
146.136,360.235
145.83,356.359
145.523,355.391
145.2,352.484
144.893,350.546
144.587,350.062
144.28,348.609
143.974,346.671
143.666,346.671
143.36,345.217
143.053,343.764
142.747,343.764
142.44,342.795
142.164,342.795
141.858,342.795
141.551,341.342
141.245,341.342
140.938,341.342
140.631,340.373
140.324,339.889
140.018,339.889
139.711,338.92
139.405,338.92
139.081,339.889
138.775,340.373
138.468,341.342
138.162,341.342
137.855,341.342
137.548,341.342
137.242,340.373
136.935,340.373
136.629,341.342
136.322,342.311
135.998,342.311
135.692,344.249
135.385,344.249
135.079,345.217
134.772,345.217
134.465,345.217
134.159,346.186
133.852,346.186
133.546,346.186
133.239,346.671
132.963,346.671
132.656,346.671
132.35,347.64
132.043,348.609
131.737,349.093
131.43,349.093
131.123,349.093
130.817,349.093
130.51,348.609
130.204,348.609
129.88,347.64
129.573,346.671
129.267,347.64
128.96,348.609
128.654,348.609
128.347,348.609
128.04,349.093
127.734,349.093
127.427,349.093
127.121,349.093
126.797,349.093
126.49,350.062
126.184,350.062
125.877,350.546
125.571,350.546
125.264,350.546
124.957,350.546
124.651,350.546
124.344,351.515
124.038,352.484
123.762,352.484
123.455,352.484
123.149,352.484
122.842,352.484
122.536,351.515
122.228,351.515
121.922,352.968
121.615,352.968
121.309,353.937
121.002,353.937
120.679,352.484
120.372,350.546
120.066,349.093
119.759,349.093
119.453,349.093
119.145,348.609
118.839,347.64
118.532,347.64
118.226,347.64
117.919,347.64
117.643,348.609
117.337,349.093
117.03,350.062
116.724,350.062
116.417,350.062
116.11,350.062
115.803,349.093
115.497,349.093
115.19,349.093
114.884,349.093
114.56,349.093
114.254,348.609
113.947,347.64
113.641,346.671
113.334,346.671
113.027,346.671
112.721,347.64
112.414,348.609
112.108,348.609
111.801,347.64
111.477,347.64
111.171,347.64
110.864,346.671
110.558,346.671
110.251,346.671
109.944,346.186
109.638,346.186
109.331,345.217
109.025,345.217
108.718,344.249
108.442,344.249
108.135,343.764
107.829,342.795
107.522,342.795
107.216,342.311
106.909,341.342
106.602,341.342
106.296,340.373
105.989,340.373
105.683,339.889
105.359,339.889
105.052,338.92
104.746,338.92
104.439,338.435
104.133,338.435
103.826,338.435
103.519,337.467
103.213,337.467
102.906,336.498
102.6,336.498
102.276,336.498
101.97,336.013
101.663,336.013
101.357,335.044
101.05,335.044
100.743,334.075
100.436,334.075
100.13,333.591
99.8233,333.591
99.5168,332.622
99.2405,332.622
98.934,332.138
98.6275,331.169
98.321,331.169
98.0145,330.2
97.7074,330.2
97.4009,329.716
97.0944,329.716
96.7879,328.747
96.4814,328.747
96.1576,328.747
95.8511,328.747
95.5446,328.747
95.2381,328.747" />
</g>
</svg>
