<?xml version="1.0"?>
<svg version="1.1"
     xmlns="http://www.w3.org/2000/svg"
     xmlns:xlink="http://www.w3.org/1999/xlink"
     viewBox="0 0 800 600">
<g>
<text fill="#000000" font-family="sans-serif" font-size="19.0476" text-anchor="start" x="4.7619" y="591.429" >
NIST Chemistry WebBook (https://webbook.nist.gov/chemistry)
</text>
<polyline stroke="#000000" stroke-width="1.19048" fill="none" points="95.2381,514.286
742.857,514.286
742.857,66.6667
95.2381,66.6667
95.2381,514.286" />
<text fill="#000000" font-family="sans-serif" font-size="19.0476" text-anchor="middle" x="419.048" y="24.7619" >
1,2-BENZENEDIAMINE, 4-METHYL-
</text>
<text fill="#000000" font-family="sans-serif" font-size="19.0476" text-anchor="middle" x="419.048" y="53.3333" >
INFRARED SPECTRUM
</text>
<text fill="#000000" font-family="sans-serif" font-size="19.0476" text-anchor="middle" x="419.048" y="558.095" >
Wavenumber (cm-1)
</text>
<text fill="#000000" font-family="sans-serif" font-size="19.0476" text-anchor="middle" transform="translate(20,290.476) rotate(270)" x="0" y="0" >
Transmitance
</text>
<text fill="#000000" font-family="sans-serif" font-size="19.0476" text-anchor="middle" x="627.785" y="534.286" >
1000
</text>
<line stroke="#000000" stroke-width="1.19048" x1="627.785" y1="514.286" x2="627.785" y2="504.762" />
<text fill="#000000" font-family="sans-serif" font-size="19.0476" text-anchor="middle" x="437.578" y="534.286" >
2000
</text>
<line stroke="#000000" stroke-width="1.19048" x1="437.578" y1="514.286" x2="437.578" y2="504.762" />
<text fill="#000000" font-family="sans-serif" font-size="19.0476" text-anchor="middle" x="247.37" y="534.286" >
3000
</text>
<line stroke="#000000" stroke-width="1.19048" x1="247.37" y1="514.286" x2="247.37" y2="504.762" />
<line stroke="#000000" stroke-width="1.19048" x1="741.91" y1="514.286" x2="741.91" y2="509.524" />
<line stroke="#000000" stroke-width="1.19048" x1="722.889" y1="514.286" x2="722.889" y2="509.524" />
<line stroke="#000000" stroke-width="1.19048" x1="703.868" y1="514.286" x2="703.868" y2="509.524" />
<line stroke="#000000" stroke-width="1.19048" x1="684.847" y1="514.286" x2="684.847" y2="509.524" />
<line stroke="#000000" stroke-width="1.19048" x1="665.827" y1="514.286" x2="665.827" y2="509.524" />
<line stroke="#000000" stroke-width="1.19048" x1="646.806" y1="514.286" x2="646.806" y2="509.524" />
<line stroke="#000000" stroke-width="1.19048" x1="627.785" y1="514.286" x2="627.785" y2="509.524" />
<line stroke="#000000" stroke-width="1.19048" x1="608.764" y1="514.286" x2="608.764" y2="509.524" />
<line stroke="#000000" stroke-width="1.19048" x1="589.744" y1="514.286" x2="589.744" y2="509.524" />
<line stroke="#000000" stroke-width="1.19048" x1="570.723" y1="514.286" x2="570.723" y2="509.524" />
<line stroke="#000000" stroke-width="1.19048" x1="551.702" y1="514.286" x2="551.702" y2="509.524" />
<line stroke="#000000" stroke-width="1.19048" x1="532.681" y1="514.286" x2="532.681" y2="509.524" />
<line stroke="#000000" stroke-width="1.19048" x1="513.661" y1="514.286" x2="513.661" y2="509.524" />
<line stroke="#000000" stroke-width="1.19048" x1="494.64" y1="514.286" x2="494.64" y2="509.524" />
<line stroke="#000000" stroke-width="1.19048" x1="475.619" y1="514.286" x2="475.619" y2="509.524" />
<line stroke="#000000" stroke-width="1.19048" x1="456.598" y1="514.286" x2="456.598" y2="509.524" />
<line stroke="#000000" stroke-width="1.19048" x1="437.578" y1="514.286" x2="437.578" y2="509.524" />
<line stroke="#000000" stroke-width="1.19048" x1="418.557" y1="514.286" x2="418.557" y2="509.524" />
<line stroke="#000000" stroke-width="1.19048" x1="399.536" y1="514.286" x2="399.536" y2="509.524" />
<line stroke="#000000" stroke-width="1.19048" x1="380.515" y1="514.286" x2="380.515" y2="509.524" />
<line stroke="#000000" stroke-width="1.19048" x1="361.494" y1="514.286" x2="361.494" y2="509.524" />
<line stroke="#000000" stroke-width="1.19048" x1="342.474" y1="514.286" x2="342.474" y2="509.524" />
<line stroke="#000000" stroke-width="1.19048" x1="323.453" y1="514.286" x2="323.453" y2="509.524" />
<line stroke="#000000" stroke-width="1.19048" x1="304.432" y1="514.286" x2="304.432" y2="509.524" />
<line stroke="#000000" stroke-width="1.19048" x1="285.411" y1="514.286" x2="285.411" y2="509.524" />
<line stroke="#000000" stroke-width="1.19048" x1="266.391" y1="514.286" x2="266.391" y2="509.524" />
<line stroke="#000000" stroke-width="1.19048" x1="247.37" y1="514.286" x2="247.37" y2="509.524" />
<line stroke="#000000" stroke-width="1.19048" x1="228.349" y1="514.286" x2="228.349" y2="509.524" />
<line stroke="#000000" stroke-width="1.19048" x1="209.328" y1="514.286" x2="209.328" y2="509.524" />
<line stroke="#000000" stroke-width="1.19048" x1="190.308" y1="514.286" x2="190.308" y2="509.524" />
<line stroke="#000000" stroke-width="1.19048" x1="171.287" y1="514.286" x2="171.287" y2="509.524" />
<line stroke="#000000" stroke-width="1.19048" x1="152.266" y1="514.286" x2="152.266" y2="509.524" />
<line stroke="#000000" stroke-width="1.19048" x1="133.245" y1="514.286" x2="133.245" y2="509.524" />
<line stroke="#000000" stroke-width="1.19048" x1="114.225" y1="514.286" x2="114.225" y2="509.524" />
<line stroke="#000000" stroke-width="1.19048" x1="95.2038" y1="514.286" x2="95.2038" y2="509.524" />
<text fill="#000000" font-family="sans-serif" font-size="19.0476" text-anchor="end" x="90.4762" y="459.112" >
0.2
</text>
<line stroke="#000000" stroke-width="1.19048" x1="95.2381" y1="454.826" x2="104.762" y2="454.826" />
<text fill="#000000" font-family="sans-serif" font-size="19.0476" text-anchor="end" x="90.4762" y="362.193" >
0.4
</text>
<line stroke="#000000" stroke-width="1.19048" x1="95.2381" y1="357.907" x2="104.762" y2="357.907" />
<text fill="#000000" font-family="sans-serif" font-size="19.0476" text-anchor="end" x="90.4762" y="265.274" >
0.6
</text>
<line stroke="#000000" stroke-width="1.19048" x1="95.2381" y1="260.989" x2="104.762" y2="260.989" />
<text fill="#000000" font-family="sans-serif" font-size="19.0476" text-anchor="end" x="90.4762" y="168.356" >
0.8
</text>
<line stroke="#000000" stroke-width="1.19048" x1="95.2381" y1="164.07" x2="104.762" y2="164.07" />
<text fill="#000000" font-family="sans-serif" font-size="19.0476" text-anchor="end" x="90.4762" y="71.437" >
1
</text>
<line stroke="#000000" stroke-width="1.19048" x1="95.2381" y1="67.1513" x2="104.762" y2="67.1513" />
<line stroke="#000000" stroke-width="1.19048" x1="95.2381" y1="503.285" x2="100" y2="503.285" />
<line stroke="#000000" stroke-width="1.19048" x1="95.2381" y1="479.056" x2="100" y2="479.056" />
<line stroke="#000000" stroke-width="1.19048" x1="95.2381" y1="454.826" x2="100" y2="454.826" />
<line stroke="#000000" stroke-width="1.19048" x1="95.2381" y1="430.596" x2="100" y2="430.596" />
<line stroke="#000000" stroke-width="1.19048" x1="95.2381" y1="406.367" x2="100" y2="406.367" />
<line stroke="#000000" stroke-width="1.19048" x1="95.2381" y1="382.137" x2="100" y2="382.137" />
<line stroke="#000000" stroke-width="1.19048" x1="95.2381" y1="357.907" x2="100" y2="357.907" />
<line stroke="#000000" stroke-width="1.19048" x1="95.2381" y1="333.678" x2="100" y2="333.678" />
<line stroke="#000000" stroke-width="1.19048" x1="95.2381" y1="309.448" x2="100" y2="309.448" />
<line stroke="#000000" stroke-width="1.19048" x1="95.2381" y1="285.218" x2="100" y2="285.218" />
<line stroke="#000000" stroke-width="1.19048" x1="95.2381" y1="260.989" x2="100" y2="260.989" />
<line stroke="#000000" stroke-width="1.19048" x1="95.2381" y1="236.759" x2="100" y2="236.759" />
<line stroke="#000000" stroke-width="1.19048" x1="95.2381" y1="212.529" x2="100" y2="212.529" />
<line stroke="#000000" stroke-width="1.19048" x1="95.2381" y1="188.3" x2="100" y2="188.3" />
<line stroke="#000000" stroke-width="1.19048" x1="95.2381" y1="164.07" x2="100" y2="164.07" />
<line stroke="#000000" stroke-width="1.19048" x1="95.2381" y1="139.84" x2="100" y2="139.84" />
<line stroke="#000000" stroke-width="1.19048" x1="95.2381" y1="115.611" x2="100" y2="115.611" />
<line stroke="#000000" stroke-width="1.19048" x1="95.2381" y1="91.3809" x2="100" y2="91.3809" />
<line stroke="#000000" stroke-width="1.19048" x1="95.2381" y1="67.1512" x2="100" y2="67.1512" />
<polyline stroke="#FF0000" stroke-width="1.19048" fill="none" points="742.857,265.35
742.677,265.35
742.497,265.35
742.317,265.35
742.138,265.35
741.958,265.35
741.778,266.319
741.598,266.319
741.418,266.319
741.238,266.804
741.058,266.804
740.878,266.804
740.698,266.804
740.518,266.319
740.339,261.958
740.159,257.597
739.979,255.658
739.799,253.235
739.619,251.781
739.439,248.389
739.259,245.482
739.079,244.028
738.899,242.574
738.72,237.728
738.54,236.759
738.36,231.428
738.18,227.067
738,222.706
737.82,220.767
737.64,216.406
737.46,208.653
737.28,204.291
737.101,199.93
736.921,197.022
736.741,193.63
736.561,191.207
736.381,187.331
736.201,183.454
736.021,182.969
735.841,180.546
735.661,179.092
735.482,177.639
735.302,176.185
735.122,175.7
734.942,175.216
734.762,175.216
734.582,175.7
734.402,177.154
734.222,181.515
734.042,183.454
733.862,191.207
733.683,197.022
733.503,207.199
733.323,213.499
733.143,220.767
732.963,253.138
732.783,296.703
732.603,340.753
732.423,355.921
732.243,370.895
732.063,400.067
731.884,429.627
731.704,458.703
731.524,458.703
731.344,423.861
731.164,348.845
730.984,291.179
730.804,245.142
730.624,179.335
730.444,157.383
730.265,154.863
730.085,142.263
729.905,137.417
729.725,128.695
729.545,125.303
729.365,119.487
729.185,118.518
729.005,117.064
728.825,115.611
728.646,112.219
728.466,110.765
728.286,110.28
728.106,109.311
727.926,109.311
727.746,109.311
727.566,108.826
727.386,108.826
727.206,108.826
727.026,107.857
726.847,107.857
726.667,106.403
726.487,105.919
726.307,104.95
726.127,104.465
725.947,103.496
725.767,102.527
725.587,101.557
725.407,100.104
725.227,99.619
725.048,98.1653
724.868,96.7115
724.688,95.7423
724.508,95.2578
724.328,94.2885
724.148,94.2885
723.968,93.804
723.788,93.804
723.608,92.8347
723.429,92.8347
723.249,92.8347
723.069,92.3502
722.889,90.8964
722.709,90.8964
722.529,90.4118
722.349,89.4426
722.169,89.4426
721.989,88.958
721.81,88.958
721.63,88.958
721.45,88.958
721.27,87.9888
721.09,87.5042
720.91,86.5351
720.73,86.0504
720.55,84.5967
720.37,84.5967
720.19,83.6275
720.011,83.1429
719.831,83.1429
719.651,82.1737
719.471,81.6891
719.291,80.7199
719.111,80.7199
718.931,80.2354
718.751,79.2661
718.571,79.2661
718.392,78.7816
718.212,78.7816
718.032,78.297
717.852,78.297
717.672,78.297
717.492,77.3278
717.312,77.3278
717.132,77.3278
716.952,77.3278
716.773,76.8432
716.593,76.8432
716.413,76.8432
716.233,75.874
716.053,75.874
715.873,75.874
715.693,75.874
715.513,75.874
715.333,75.3894
715.153,75.3894
714.974,75.3894
714.794,75.3894
714.614,75.874
714.434,75.874
714.254,75.874
714.074,76.8432
713.894,76.8432
713.714,76.8432
713.534,77.3278
713.355,77.3278
713.175,78.297
712.995,78.7816
712.815,78.7816
712.635,78.7816
712.455,79.2661
712.275,80.2354
712.095,81.6891
711.915,82.1737
711.735,83.1429
711.556,84.5967
711.376,86.0504
711.196,87.9888
711.016,89.4426
710.836,89.4426
710.656,95.2093
710.476,98.1653
710.296,106.403
710.116,117.064
709.937,144.202
709.757,166.445
709.577,174.246
709.397,175.7
709.217,176.185
709.037,183.405
708.857,205.648
708.677,214.952
708.497,224.644
708.317,224.644
708.138,219.314
707.958,207.683
707.778,196.538
707.598,165.621
707.418,165.039
707.238,165.524
707.058,182.872
706.878,187.331
706.698,191.207
706.518,191.207
706.339,172.793
706.159,140.858
705.979,127.289
705.799,116.628
705.619,104.513
705.439,103.011
705.259,100.104
705.079,98.6499
704.899,97.1961
704.72,95.7423
704.54,95.7423
704.36,95.2578
704.18,95.2578
704,94.2885
703.82,94.2885
703.64,93.804
703.46,93.804
703.28,94.2885
703.101,94.2885
702.921,95.2578
702.741,95.7423
702.561,97.1961
702.381,98.1653
702.201,98.6499
702.021,99.619
701.841,99.619
701.661,100.104
701.482,101.073
701.302,101.557
701.122,102.527
700.942,102.527
700.762,103.496
700.582,104.95
700.402,105.919
700.222,107.373
700.042,108.826
699.862,109.311
699.682,110.28
699.503,110.765
699.323,112.219
699.143,115.126
698.963,116.58
698.783,118.034
698.603,119.487
698.423,119.487
698.243,120.941
698.063,123.849
697.884,125.303
697.704,125.787
697.524,127.725
697.344,129.179
697.164,130.148
696.984,130.633
696.804,133.056
696.624,134.51
696.444,135.964
696.265,137.902
696.085,139.356
695.905,139.84
695.725,142.748
695.545,145.655
695.365,147.109
695.185,148.078
695.005,148.563
694.825,149.532
694.646,151.955
694.466,155.832
694.286,159.224
694.106,160.678
693.926,162.132
693.746,165.039
693.566,166.493
693.386,166.978
693.206,172.308
693.026,175.216
692.847,175.7
692.667,176.185
692.487,182
692.307,185.877
692.127,187.331
691.947,189.753
691.767,192.176
691.587,195.569
691.407,197.992
691.228,199.445
691.048,199.93
690.868,200.415
690.688,204.776
690.508,208.653
690.328,211.56
690.148,213.983
689.968,216.406
689.788,219.798
689.608,221.252
689.429,222.706
689.249,223.675
689.069,224.16
688.889,225.613
688.709,229.975
688.529,234.821
688.349,239.667
688.169,243.543
687.989,245.482
687.81,252.751
687.63,257.597
687.45,260.989
687.27,266.755
687.09,272.619
686.91,278.919
686.73,284.734
686.55,291.034
686.37,296.849
686.19,303.148
686.011,308.479
685.831,314.779
685.651,319.14
685.471,325.391
685.291,333.193
685.111,340.462
684.931,348.216
684.751,355.484
684.571,358.877
684.392,363.238
684.212,367.599
684.032,375.353
683.852,376.807
683.672,387.419
683.492,387.952
683.312,391.829
683.132,396.675
682.952,402.49
682.772,407.336
682.593,409.274
682.413,410.728
682.233,411.697
682.053,411.697
681.873,412.182
681.693,412.182
681.513,411.697
681.333,410.243
681.153,407.336
680.974,402.49
680.794,354.128
680.614,348.7
680.434,333.726
680.254,322.581
680.074,321.078
679.894,314.779
679.714,308.479
679.534,301.695
679.354,295.395
679.175,212.626
678.995,212.529
678.815,219.798
678.635,227.067
678.455,239.134
678.275,251.733
678.095,264.865
677.915,276.98
677.735,289.58
677.556,302.664
677.376,319.625
677.196,324.47
677.016,330.286
676.836,335.131
676.656,339.008
676.476,340.462
676.296,340.947
676.116,343.854
675.937,344.823
675.757,345.308
675.577,345.308
675.397,345.308
675.217,344.823
675.037,343.37
674.857,340.462
674.677,339.493
674.497,336.585
674.318,334.647
674.138,331.255
673.958,330.286
673.778,328.347
673.598,325.44
673.418,323.986
673.238,319.14
673.058,316.717
672.878,314.779
672.698,313.325
672.518,308.963
672.339,308.479
672.159,306.056
671.979,305.571
671.799,302.664
671.619,300.241
671.439,297.333
671.259,296.849
671.079,296.849
670.899,297.333
670.72,297.333
670.54,298.302
670.36,298.302
670.18,297.333
670,296.849
669.82,295.395
669.64,289.58
669.46,283.28
669.28,277.029
669.101,272.619
668.921,270.681
668.741,266.319
668.561,260.02
668.381,257.112
668.201,253.235
668.021,251.781
667.841,249.843
667.661,249.843
667.481,252.751
667.302,257.597
667.122,264.865
666.942,277.465
666.762,296.364
666.582,308.479
666.402,323.937
666.222,351.511
666.042,364.643
665.862,377.243
665.683,378.745
665.503,390.86
665.323,396.675
665.143,402.49
664.963,408.79
664.783,413.636
664.603,419.451
664.423,424.297
664.243,430.596
664.063,435.927
663.884,442.663
663.704,449.496
663.524,449.496
663.344,448.526
663.164,447.073
662.984,445.619
662.804,444.165
662.624,441.742
662.444,437.865
662.265,433.504
662.085,430.596
661.905,427.204
661.725,421.389
661.545,419.451
661.365,418.482
661.185,415.089
661.005,414.605
660.825,412.182
660.646,408.79
660.466,407.821
660.286,405.398
660.106,404.428
659.926,401.036
659.746,398.129
659.566,396.675
659.386,395.221
659.206,390.86
659.026,387.468
658.847,383.591
658.667,379.714
658.487,375.837
658.307,372.93
658.127,368.084
657.947,366.63
657.767,360.33
657.587,356.938
657.407,354.515
657.227,350.154
657.048,348.7
656.868,345.308
656.688,343.854
656.508,340.947
656.328,339.008
656.148,336.101
655.968,335.131
655.788,334.647
655.608,332.709
655.429,330.286
655.249,329.801
655.069,325.44
654.889,324.47
654.709,322.532
654.529,319.625
654.349,313.809
654.169,308.479
653.989,307.025
653.81,301.21
653.63,295.395
653.45,289.58
653.27,278.967
653.09,263.945
652.91,253.235
652.73,251.297
652.55,251.297
652.37,272.134
652.19,284.249
652.011,289.58
651.831,296.849
651.651,300.241
651.471,303.148
651.291,307.025
651.111,308.479
650.931,310.902
650.751,319.14
650.571,328.347
650.392,336.585
650.212,340.462
650.032,345.308
649.852,349.669
649.672,351.123
649.492,349.669
649.312,345.793
649.132,340.947
648.952,334.647
648.772,324.47
648.593,313.809
648.413,307.025
648.233,303.148
648.053,296.849
647.873,291.034
647.693,285.218
647.513,278.919
647.333,277.465
647.153,272.619
646.974,263.412
646.794,258.566
646.614,256.143
646.434,246.451
646.254,245.482
646.074,243.543
645.894,237.728
645.714,234.336
645.534,231.428
645.354,227.552
645.175,224.16
644.995,223.675
644.815,216.406
644.635,212.529
644.455,208.653
644.275,207.683
644.095,204.291
643.915,201.384
643.735,200.415
643.556,199.445
643.376,197.992
643.196,192.661
643.016,191.207
642.836,189.753
642.656,189.269
642.476,187.815
642.296,186.361
642.116,185.877
641.936,186.361
641.757,189.753
641.577,195.084
641.397,204.291
641.217,224.16
641.037,244.949
640.857,290.937
640.677,291.034
640.497,257.693
640.317,231.38
640.138,212.045
639.958,196.538
639.778,191.207
639.598,189.269
639.418,189.269
639.238,192.176
639.058,200.415
638.878,207.199
638.698,210.591
638.518,214.952
638.339,208.653
638.159,202.837
637.979,201.384
637.799,189.753
637.619,180.546
637.439,172.793
637.259,160.242
637.079,158.739
636.899,151.519
636.72,148.078
636.54,146.625
636.36,143.717
636.18,142.263
636,139.356
635.82,138.871
635.64,136.448
635.46,134.51
635.28,132.087
635.101,131.602
634.921,130.148
634.741,130.148
634.561,129.179
634.381,128.695
634.201,127.725
634.021,127.241
633.841,126.756
633.661,126.756
633.482,125.787
633.302,125.303
633.122,124.333
632.942,123.849
632.762,123.849
632.582,123.849
632.402,122.88
632.222,122.395
632.042,121.426
631.862,121.426
631.683,119.972
631.503,119.972
631.323,119.487
631.143,119.487
630.963,119.487
630.783,118.518
630.603,118.518
630.423,118.518
630.243,118.034
630.063,118.034
629.884,118.034
629.704,118.034
629.524,118.034
629.344,118.034
629.164,118.518
628.984,118.518
628.804,119.487
628.624,119.972
628.444,120.941
628.265,121.426
628.085,122.395
627.905,122.88
627.725,123.849
627.545,123.849
627.365,122.88
627.185,122.88
627.005,121.426
626.825,120.941
626.646,119.972
626.466,119.487
626.286,118.518
626.106,118.034
625.926,115.611
625.746,113.188
625.566,112.219
625.386,112.219
625.206,110.765
625.026,110.765
624.847,110.28
624.667,110.28
624.487,110.28
624.307,110.28
624.127,110.28
623.947,110.28
623.767,110.765
623.587,111.734
623.407,113.188
623.227,113.672
623.048,113.672
622.868,115.126
622.688,116.58
622.508,118.518
622.328,119.487
622.148,119.972
621.968,122.88
621.788,125.303
621.608,127.241
621.429,129.179
621.249,132.087
621.069,134.994
620.889,136.448
620.709,138.871
620.529,139.84
620.349,140.81
620.169,142.263
619.989,142.748
619.81,142.748
619.63,142.263
619.45,140.81
619.27,139.356
619.09,137.902
618.91,135.964
618.73,130.148
618.55,128.695
618.37,126.756
618.19,122.395
618.011,121.426
617.831,119.487
617.651,119.487
617.471,118.518
617.291,116.58
617.111,115.611
616.931,113.672
616.751,113.188
616.571,111.734
616.392,110.765
616.212,110.765
616.032,110.28
615.852,110.28
615.672,110.765
615.492,110.765
615.312,112.219
615.132,114.641
614.952,115.611
614.772,115.611
614.593,119.972
614.413,125.303
614.233,128.695
614.053,133.056
613.873,135.964
613.693,138.871
613.513,139.356
613.333,142.748
613.153,143.717
612.974,144.202
612.794,144.202
612.614,143.717
612.434,138.871
612.254,137.902
612.074,134.994
611.894,130.148
611.714,128.695
611.534,125.303
611.354,119.972
611.175,118.518
610.995,118.034
610.815,115.126
610.635,112.219
610.455,110.28
610.275,109.311
610.095,107.373
609.915,105.919
609.735,104.95
609.556,104.465
609.376,103.496
609.196,103.011
609.016,102.527
608.836,101.073
608.656,101.073
608.476,100.104
608.296,100.104
608.116,100.104
607.937,100.104
607.757,101.073
607.577,101.073
607.397,101.073
607.217,101.557
607.037,102.527
606.857,103.496
606.677,104.465
606.497,104.95
606.318,105.919
606.138,105.919
605.958,105.919
605.778,106.403
605.598,106.403
605.418,106.403
605.238,106.403
605.058,106.403
604.878,106.403
604.698,106.403
604.519,105.919
604.339,105.919
604.159,105.919
603.979,105.919
603.799,105.919
603.619,105.919
603.439,105.919
603.259,105.919
603.079,105.919
602.899,106.403
602.72,107.857
602.54,108.826
602.36,109.311
602.18,110.28
602,115.126
601.82,115.611
601.64,118.034
601.46,118.518
601.28,119.972
601.101,122.88
600.921,123.849
600.741,123.849
600.561,124.333
600.381,124.333
600.201,125.303
600.021,127.241
599.841,127.725
599.661,128.695
599.481,129.179
599.302,130.148
599.122,133.541
598.942,137.902
598.762,139.356
598.582,145.171
598.402,150.986
598.222,156.317
598.042,160.678
597.862,165.524
597.683,175.7
597.503,184.423
597.323,184.423
597.143,177.106
596.963,166.493
596.783,164.07
596.603,164.07
596.423,182.969
596.243,199.93
596.063,207.683
595.884,215.437
595.704,223.675
595.524,223.675
595.344,202.789
595.164,184.423
594.984,181.515
594.804,165.524
594.624,148.078
594.444,138.871
594.265,128.695
594.085,119.487
593.905,117.064
593.725,113.188
593.545,109.311
593.365,103.496
593.185,103.011
593.005,102.527
592.825,101.557
592.646,101.073
592.466,100.104
592.286,100.104
592.106,99.619
591.926,99.619
591.746,99.619
591.566,99.619
591.386,99.619
591.206,99.619
591.026,99.619
590.847,99.619
590.667,100.104
590.487,100.104
590.307,100.104
590.127,100.104
589.947,101.557
589.767,103.011
589.587,104.95
589.407,105.919
589.228,106.403
589.048,105.919
588.868,104.95
588.688,104.95
588.508,105.919
588.328,106.403
588.148,106.403
587.968,107.857
587.788,108.826
587.608,110.28
587.429,110.28
587.249,112.219
587.069,113.672
586.889,114.641
586.709,115.611
586.529,116.58
586.349,118.034
586.169,118.518
585.989,119.487
585.81,119.972
585.63,120.941
585.45,122.395
585.27,124.333
585.09,126.756
584.91,127.725
584.73,129.179
584.55,129.179
584.37,132.087
584.19,134.51
584.011,138.871
583.831,145.171
583.651,148.563
583.471,154.378
583.291,163.585
583.111,166.493
582.931,183.405
582.751,200.415
582.571,209.137
582.392,221.252
582.212,233.415
582.032,265.35
581.852,291.034
581.672,303.148
581.492,322.968
581.312,337.991
581.132,351.075
580.952,351.123
580.772,344.823
580.593,338.039
580.413,327.33
580.233,285.218
580.053,199.978
579.873,197.022
579.693,182.048
579.513,166.541
579.333,157.334
579.153,146.625
578.974,138.871
578.794,130.148
578.614,129.179
578.434,127.241
578.254,125.303
578.074,123.849
577.894,122.88
577.714,122.88
577.534,122.88
577.354,123.849
577.175,123.849
576.995,125.303
576.815,126.756
576.635,127.725
576.455,130.148
576.275,133.056
576.095,137.902
575.915,139.84
575.735,144.202
575.556,148.563
575.376,154.863
575.196,157.77
575.016,166.978
574.836,175.216
574.656,191.207
574.476,208.653
574.296,212.045
574.116,215.437
573.937,236.711
573.757,253.284
573.577,277.513
573.397,291.034
573.217,307.025
573.037,313.325
572.857,325.44
572.677,332.709
572.497,332.709
572.317,329.801
572.138,319.673
571.958,308.43
571.778,285.17
571.598,264.865
571.418,245.482
571.238,206.23
571.058,188.3
570.878,172.308
570.698,152.004
570.519,150.986
570.339,136.497
570.159,134.994
569.979,130.148
569.799,127.725
569.619,125.303
569.439,125.303
569.259,123.849
569.079,123.849
568.899,123.849
568.72,123.849
568.54,123.849
568.36,122.88
568.18,119.487
568,118.034
567.82,114.641
567.64,110.765
567.46,110.28
567.28,109.311
567.101,108.826
566.921,107.857
566.741,107.373
566.561,107.373
566.381,107.373
566.201,107.373
566.021,107.373
565.841,107.857
565.661,108.826
565.481,109.311
565.302,109.311
565.122,109.311
564.942,108.826
564.762,107.857
564.582,107.373
564.402,106.403
564.222,105.919
564.042,104.95
563.862,104.465
563.682,104.465
563.503,103.496
563.323,103.011
563.143,103.011
562.963,102.527
562.783,101.557
562.603,101.557
562.423,101.073
562.243,100.104
562.063,100.104
561.884,100.104
561.704,99.619
561.524,99.619
561.344,99.619
561.164,98.6499
560.984,98.6499
560.804,99.619
560.624,99.619
560.444,99.619
560.265,99.619
560.085,99.619
559.905,99.619
559.725,99.619
559.545,100.104
559.365,100.104
559.185,101.073
559.005,101.557
558.825,103.011
558.646,103.496
558.466,104.465
558.286,104.95
558.106,107.373
557.926,108.826
557.746,109.311
557.566,110.28
557.386,116.58
557.206,118.518
557.026,119.972
556.847,129.179
556.667,135.964
556.487,142.748
556.307,142.748
556.127,133.541
555.947,127.241
555.767,120.941
555.587,118.034
555.407,117.064
555.228,116.58
555.048,114.641
554.868,113.672
554.688,113.672
554.508,113.188
554.328,113.188
554.148,113.188
553.968,113.188
553.788,114.641
553.608,114.641
553.429,115.126
553.249,115.126
553.069,115.126
552.889,115.611
552.709,116.58
552.529,116.58
552.349,117.064
552.169,117.064
551.989,117.064
551.81,118.034
551.63,118.034
551.45,118.518
551.27,118.518
551.09,119.487
550.91,119.487
550.73,119.972
550.55,120.941
550.37,120.941
550.19,120.941
550.011,121.426
549.831,121.426
549.651,122.395
549.471,122.88
549.291,123.849
549.111,123.849
548.931,124.333
548.751,125.787
548.571,126.756
548.392,127.241
548.212,129.179
548.032,130.148
547.852,130.633
547.672,133.056
547.492,137.417
547.312,138.871
547.132,142.748
546.952,148.078
546.772,154.863
546.593,157.286
546.413,165.524
546.233,175.7
546.053,184.908
545.873,193.63
545.693,199.93
545.513,204.291
545.333,207.683
545.153,208.653
544.974,210.591
544.794,213.499
544.614,215.437
544.434,216.406
544.254,217.86
544.074,220.767
543.894,221.252
543.714,222.221
543.534,222.221
543.354,222.221
543.175,222.221
542.995,222.221
542.815,222.221
542.635,221.252
542.455,221.252
542.275,220.767
542.095,220.767
541.915,220.767
541.735,219.798
541.556,219.314
541.376,218.344
541.196,216.891
541.016,216.891
540.836,216.406
540.656,214.952
540.476,209.137
540.296,207.683
540.116,205.745
539.937,204.291
539.757,202.837
539.577,200.415
539.397,199.93
539.217,197.022
539.037,192.661
538.857,191.207
538.677,189.269
538.497,184.908
538.317,182.969
538.138,181.515
537.958,180.546
537.778,178.608
537.598,175.7
537.418,175.216
537.238,173.762
537.058,171.339
536.878,169.885
536.698,169.401
536.519,167.947
536.339,166.978
536.159,166.493
535.979,166.493
535.799,166.493
535.619,166.493
535.439,166.493
535.259,166.978
535.079,167.947
534.899,168.431
534.72,169.401
534.54,169.885
534.36,171.339
534.18,172.308
534,174.246
533.82,175.7
533.64,179.092
533.46,182
533.28,184.423
533.101,187.815
532.921,198.476
532.741,211.512
532.561,216.406
532.381,221.3
532.201,231.477
532.021,242.09
531.841,251.83
531.661,272.134
531.482,284.734
531.302,302.664
531.122,310.902
530.942,323.986
530.762,338.96
530.582,354.515
530.402,357.423
530.222,360.33
530.042,370.991
529.862,375.837
529.682,383.106
529.503,387.468
529.323,390.375
529.143,390.86
528.963,390.375
528.783,383.009
528.603,353.013
528.423,339.493
528.243,329.801
528.063,313.809
527.884,295.395
527.704,278.434
527.524,260.02
527.344,245.482
527.164,239.182
526.984,223.627
526.804,200.415
526.624,197.022
526.444,189.753
526.265,184.423
526.085,178.608
525.905,174.246
525.725,169.885
525.545,169.401
525.365,168.431
525.185,165.524
525.005,164.07
524.825,163.101
524.646,162.132
524.466,161.647
524.286,160.678
524.106,160.678
523.926,160.678
523.746,160.678
523.566,161.647
523.386,162.132
523.206,163.585
523.026,165.039
522.847,165.524
522.667,166.493
522.487,167.947
522.307,169.401
522.127,171.339
521.947,173.762
521.767,175.216
521.587,176.185
521.407,180.546
521.228,184.423
521.048,185.877
520.868,189.753
520.688,192.661
520.508,197.992
520.328,200.415
520.148,205.745
519.968,207.683
519.788,209.137
519.608,212.529
519.429,216.406
519.249,221.252
519.069,224.644
518.889,230.459
518.709,231.913
518.529,231.913
518.349,236.759
518.169,239.182
517.989,242.09
517.809,244.997
517.63,246.451
517.45,251.297
517.27,253.235
517.09,253.235
516.91,256.143
516.73,259.05
516.55,260.504
516.37,263.412
516.19,265.35
516.011,266.804
515.831,271.165
515.651,278.434
515.471,285.218
515.291,302.664
515.111,307.51
514.931,313.809
514.751,318.171
514.571,320.594
514.391,321.078
514.212,320.545
514.032,310.417
513.852,301.695
513.672,293.456
513.492,280.372
513.312,264.865
513.132,252.751
512.952,246.451
512.773,244.997
512.593,243.543
512.413,242.574
512.233,245.482
512.053,246.451
511.873,259.05
511.693,263.896
511.513,272.619
511.333,278.919
511.153,289.095
510.974,301.161
510.794,313.809
510.614,319.625
510.434,324.47
510.254,325.44
510.074,325.924
509.894,325.924
509.714,325.924
509.534,325.44
509.354,325.44
509.175,324.47
508.995,320.594
508.815,319.14
508.635,313.809
508.455,308.479
508.275,302.664
508.095,297.333
507.915,296.364
507.735,292.003
507.556,290.549
507.376,286.188
507.196,284.734
507.016,278.434
506.836,274.073
506.656,272.086
506.476,253.235
506.296,238.213
506.116,229.006
505.937,207.199
505.757,199.93
505.577,197.022
505.397,191.159
505.217,183.454
505.037,175.216
504.857,166.493
504.677,163.101
504.497,156.317
504.317,148.563
504.138,146.625
503.958,134.994
503.778,132.087
503.598,130.148
503.418,129.179
503.238,123.849
503.058,119.487
502.878,117.064
502.698,115.611
502.518,110.765
502.339,109.311
502.159,107.857
501.979,104.465
501.799,103.011
501.619,100.104
501.439,98.6499
501.259,96.7115
501.079,95.7423
500.899,95.2578
500.72,93.804
500.54,91.381
500.36,89.4426
500.18,88.958
500,87.5042
499.82,86.5351
499.64,85.0813
499.46,84.5967
499.28,83.6275
499.1,81.6891
498.921,80.7199
498.741,80.2354
498.561,79.2661
498.381,78.7816
498.201,78.7816
498.021,78.297
497.841,78.297
497.661,78.297
497.481,77.3278
497.302,76.8432
497.122,75.3894
496.942,74.4202
496.762,73.9356
496.582,73.9356
496.402,72.9664
496.222,72.4818
496.042,72.4818
495.862,72.4818
495.683,72.4818
495.503,72.4818
495.323,72.4818
495.143,72.4818
494.963,72.4818
494.783,72.4818
494.603,71.5127
494.423,71.5127
494.243,71.0281
494.063,69.5743
493.884,68.1205
493.704,67.1513
493.524,67.1513
493.344,66.6667
493.164,66.6667
492.984,66.6667
492.804,66.6667
492.624,67.1513
492.444,67.1513
492.265,67.1513
492.085,67.1513
491.905,68.1205
491.725,68.1205
491.545,68.6051
491.365,68.6051
491.185,69.5743
491.005,69.5743
490.825,70.0589
490.646,72.4818
490.466,72.4818
490.286,72.9664
490.106,73.9356
489.926,75.3894
489.746,76.8432
489.566,77.3278
489.386,78.297
489.206,78.297
489.026,78.7816
488.847,78.7816
488.667,81.6891
488.487,81.6891
488.307,83.1429
488.127,83.1429
487.947,83.1429
487.767,83.6275
487.587,83.6275
487.407,83.6275
487.227,83.1429
487.048,83.1429
486.868,82.1737
486.688,82.1737
486.508,81.6891
486.328,80.7199
486.148,80.2354
485.968,79.2661
485.788,78.7816
485.608,78.297
485.429,77.3278
485.249,77.3278
485.069,76.8432
484.889,75.874
484.709,75.3894
484.529,75.3894
484.349,74.4202
484.169,73.9356
483.989,72.9664
483.81,72.9664
483.63,72.4818
483.45,71.5127
483.27,71.5127
483.09,71.0281
482.91,71.0281
482.73,70.0589
482.55,70.0589
482.37,70.0589
482.19,70.0589
482.011,70.0589
481.831,70.0589
481.651,70.0589
481.471,70.0589
481.291,69.5743
481.111,69.5743
480.931,69.5743
480.751,69.5743
480.571,70.0589
480.392,70.0589
480.212,70.0589
480.032,71.0281
479.852,71.0281
479.672,71.0281
479.492,71.0281
479.312,71.5127
479.132,71.5127
478.952,71.5127
478.772,71.5127
478.593,71.5127
478.413,72.4818
478.233,72.4818
478.053,72.4818
477.873,72.4818
477.693,72.4818
477.513,72.9664
477.333,73.9356
477.153,73.9356
476.974,73.9356
476.794,74.4202
476.614,74.4202
476.434,75.3894
476.254,75.874
476.074,75.874
475.894,76.8432
475.714,77.3278
475.534,78.297
475.354,78.7816
475.175,78.7816
474.995,79.2661
474.815,79.2661
474.635,79.2661
474.455,79.2661
474.275,79.2661
474.095,78.7816
473.915,78.7816
473.735,78.7816
473.556,78.7816
473.376,78.297
473.196,78.297
473.016,78.297
472.836,78.297
472.656,77.3278
472.476,77.3278
472.296,77.3278
472.116,77.3278
471.936,77.3278
471.757,77.3278
471.577,77.3278
471.397,76.8432
471.217,76.8432
471.037,76.8432
470.857,76.8432
470.677,76.8432
470.497,76.8432
470.317,76.8432
470.138,76.8432
469.958,76.8432
469.778,76.8432
469.598,76.8432
469.418,76.8432
469.238,76.8432
469.058,76.8432
468.878,77.3278
468.698,77.3278
468.518,77.3278
468.339,77.3278
468.159,77.3278
467.979,77.3278
467.799,77.3278
467.619,78.297
467.439,78.297
467.259,78.297
467.079,78.297
466.899,78.297
466.72,78.7816
466.54,78.7816
466.36,79.2661
466.18,80.2354
466,81.6891
465.82,83.1429
465.64,84.5967
465.46,86.5351
465.28,87.9888
465.101,89.4426
464.921,94.2885
464.741,96.7115
464.561,99.619
464.381,102.527
464.201,105.919
464.021,109.311
463.841,110.765
463.661,110.28
463.481,108.826
463.302,106.403
463.122,103.496
462.942,101.557
462.762,100.104
462.582,98.1653
462.402,92.8347
462.222,88.958
462.042,86.5351
461.862,85.0813
461.683,84.5967
461.503,84.5967
461.323,83.6275
461.143,83.6275
460.963,83.6275
460.783,83.6275
460.603,83.6275
460.423,83.6275
460.243,83.1429
460.063,83.1429
459.884,83.1429
459.704,83.1429
459.524,83.1429
459.344,83.1429
459.164,82.1737
458.984,82.1737
458.804,82.1737
458.624,81.6891
458.444,81.6891
458.265,80.7199
458.085,80.7199
457.905,81.6891
457.725,81.6891
457.545,81.6891
457.365,81.6891
457.185,81.6891
457.005,81.6891
456.825,81.6891
456.646,81.6891
456.466,80.7199
456.286,80.7199
456.106,80.7199
455.926,80.7199
455.746,80.7199
455.566,80.7199
455.386,80.7199
455.206,81.6891
455.026,81.6891
454.847,81.6891
454.667,81.6891
454.487,81.6891
454.307,82.1737
454.127,82.1737
453.947,82.1737
453.767,82.1737
453.587,82.1737
453.407,82.1737
453.228,82.1737
453.048,83.1429
452.868,83.1429
452.688,83.1429
452.508,83.6275
452.328,83.6275
452.148,83.6275
451.968,83.6275
451.788,83.6275
451.608,83.6275
451.429,83.6275
451.249,83.6275
451.069,83.6275
450.889,83.6275
450.709,83.6275
450.529,83.6275
450.349,83.6275
450.169,83.6275
449.989,83.6275
449.81,83.6275
449.63,84.5967
449.45,84.5967
449.27,84.5967
449.09,84.5967
448.91,84.5967
448.73,84.5967
448.55,84.5967
448.37,85.0813
448.19,85.0813
448.011,85.0813
447.831,85.0813
447.651,85.0813
447.471,85.0813
447.291,86.0504
447.111,86.0504
446.931,86.0504
446.751,86.0504
446.571,86.0504
446.392,86.0504
446.212,86.0504
446.032,86.0504
445.852,86.5351
445.672,86.5351
445.492,86.5351
445.312,86.5351
445.132,86.5351
444.952,86.5351
444.772,86.5351
444.593,86.5351
444.413,86.5351
444.233,86.5351
444.053,87.5042
443.873,87.5042
443.693,87.5042
443.513,87.5042
443.333,87.5042
443.153,87.5042
442.974,87.9888
442.794,87.9888
442.614,87.9888
442.434,87.9888
442.254,87.9888
442.074,87.9888
441.894,87.9888
441.714,87.9888
441.534,87.9888
441.354,87.9888
441.175,87.9888
440.995,87.9888
440.815,87.9888
440.635,87.9888
440.455,87.9888
440.275,88.958
440.095,88.958
439.915,88.958
439.735,88.958
439.556,88.958
439.376,89.4426
439.196,89.4426
439.016,89.4426
438.836,90.4118
438.656,92.3502
438.476,95.7423
438.296,98.6499
438.116,98.6499
437.936,97.1961
437.757,95.2578
437.577,94.2885
437.397,94.0462
437.217,93.804
437.037,93.3194
436.857,92.8347
436.677,92.8347
436.497,92.8347
436.317,92.8347
436.138,92.8347
435.958,92.5925
435.778,92.3502
435.598,92.3502
435.418,92.3502
435.238,92.3502
435.058,92.3502
434.878,91.8656
434.698,91.381
434.519,91.381
434.339,91.381
434.159,91.381
433.979,91.381
433.799,91.1387
433.619,90.8964
433.439,90.8964
433.259,90.8964
433.079,91.1387
432.899,91.381
432.72,91.381
432.54,91.4295
432.36,91.914
432.18,92.3502
432,92.3502
431.82,92.3502
431.64,92.3502
431.46,92.3502
431.28,92.3502
431.101,92.3502
430.921,92.5925
430.741,92.8347
430.561,92.8347
430.381,92.8347
430.201,92.8347
430.021,92.8347
429.841,92.8347
429.661,92.8347
429.481,92.8347
429.302,92.8832
429.122,93.3678
428.942,93.804
428.762,93.804
428.582,93.804
428.402,93.804
428.222,93.804
428.042,93.804
427.862,93.8524
427.683,94.0947
427.503,94.337
427.323,94.8216
427.143,95.2578
426.963,95.2578
426.783,95.2578
426.603,95.2578
426.423,95.2578
426.243,95.2578
426.063,95.2578
425.884,95.2578
425.704,95.2578
425.524,95.2578
425.344,95.2578
425.164,95.2578
424.984,95.2578
424.804,95.2578
424.624,95.3062
424.444,95.5485
424.265,95.7423
424.085,95.7423
423.905,95.8392
423.725,96.3238
423.545,96.7115
423.365,96.7115
423.185,96.76
423.005,97.0023
422.825,97.1961
422.646,97.1961
422.466,97.1961
422.286,97.1961
422.106,97.1961
421.926,97.1961
421.746,97.1961
421.566,97.1961
421.386,97.1961
421.206,97.1961
421.026,97.293
420.847,97.7776
420.667,98.1653
420.487,98.1653
420.307,98.1653
420.127,98.1653
419.947,98.2138
419.767,98.4561
419.587,98.6499
419.407,98.6499
419.228,98.6499
419.048,98.6499
418.868,98.7953
418.688,99.2798
418.508,99.619
418.328,99.619
418.148,99.619
417.968,99.619
417.788,99.619
417.608,99.619
417.429,99.619
417.249,99.619
417.069,99.619
416.889,99.619
416.709,99.619
416.529,99.619
416.349,99.619
416.169,99.619
415.989,99.619
415.81,99.619
415.63,99.619
415.45,99.619
415.27,99.716
415.09,99.9583
414.91,100.104
414.73,100.104
414.55,100.104
414.37,100.104
414.19,100.104
414.011,100.104
413.831,100.104
413.651,100.104
413.471,100.104
413.291,100.104
413.111,100.104
412.931,100.104
412.751,100.249
412.571,100.782
412.392,101.073
412.212,101.073
412.032,101.073
411.852,101.073
411.672,101.073
411.492,101.073
411.312,101.073
411.132,101.073
410.952,101.073
410.772,101.073
410.593,101.073
410.413,101.073
410.233,101.17
410.053,101.412
409.873,101.557
409.693,101.557
409.513,101.557
409.333,101.557
409.153,101.751
408.974,102.236
408.794,102.527
408.614,102.527
408.434,102.527
408.254,102.527
408.074,102.527
407.894,102.527
407.714,102.527
407.534,102.527
407.354,102.624
407.175,102.866
406.995,103.011
406.815,103.011
406.635,103.011
406.455,103.011
406.275,103.011
406.095,103.011
405.915,103.108
405.735,103.35
405.556,103.496
405.376,103.496
405.196,103.496
405.016,103.496
404.836,103.738
404.656,104.223
404.476,104.465
404.296,104.465
404.116,104.465
403.937,104.465
403.757,104.562
403.577,104.804
403.397,104.95
403.217,104.95
403.037,104.95
402.857,104.95
402.677,104.95
402.497,104.95
402.317,105.192
402.138,105.677
401.958,105.919
401.778,105.919
401.598,105.919
401.418,105.919
401.238,105.919
401.058,105.919
400.878,106.064
400.698,106.306
400.518,106.403
400.339,106.403
400.159,106.403
399.979,106.403
399.799,106.403
399.619,106.403
399.439,106.646
399.259,107.13
399.079,107.373
398.899,107.373
398.72,107.518
398.54,107.76
398.36,107.857
398.18,107.857
398,107.857
397.82,107.857
397.64,107.857
397.46,107.857
397.28,108.148
397.1,108.633
396.921,108.826
396.741,108.826
396.561,108.972
396.381,109.214
396.201,109.311
396.021,109.311
395.841,109.602
395.661,110.086
395.481,110.28
395.302,110.28
395.122,110.426
394.942,110.668
394.762,111.055
394.582,111.54
394.402,112.17
394.222,112.897
394.042,113.333
393.862,113.575
393.683,114.108
393.503,114.835
393.323,115.271
393.143,115.514
392.963,115.611
392.783,115.611
392.603,115.901
392.423,116.386
392.243,116.725
392.063,116.968
391.884,117.355
391.704,117.84
391.524,118.179
391.344,118.421
391.164,118.809
390.984,119.342
390.804,119.633
390.624,119.875
390.444,120.311
390.265,120.796
390.085,120.941
389.905,120.941
389.725,121.087
389.545,121.329
389.365,121.426
389.185,121.426
389.005,121.426
388.825,121.426
388.646,121.765
388.466,122.25
388.286,122.395
388.106,122.395
387.926,122.54
387.746,122.783
387.566,122.88
387.386,122.88
387.206,122.88
387.026,122.88
386.847,122.88
386.667,122.88
386.487,123.219
386.307,123.703
386.127,124.043
385.947,124.285
385.767,124.673
385.587,125.157
385.407,125.496
385.227,125.739
385.048,126.126
384.868,126.611
384.688,126.756
384.508,126.756
384.328,126.756
384.148,126.756
383.968,126.95
383.788,127.192
383.608,127.241
383.429,127.241
383.249,127.241
383.069,127.241
382.889,127.435
382.709,127.677
382.529,127.725
382.349,127.725
382.169,127.725
381.989,127.725
381.81,127.725
381.63,127.725
381.45,127.725
381.27,127.725
381.09,127.725
380.91,127.725
380.73,128.113
380.55,128.598
380.37,128.695
380.19,128.695
380.011,128.889
379.831,129.131
379.651,129.179
379.471,129.179
379.291,129.567
379.111,130.052
378.931,130.148
378.751,130.148
378.571,130.342
378.392,130.585
378.212,130.633
378.032,130.633
377.852,131.021
377.672,131.505
377.492,131.602
377.312,131.602
377.132,131.796
376.952,132.038
376.772,132.087
376.593,132.087
376.413,132.523
376.233,133.008
376.053,133.056
375.873,133.056
375.693,133.25
375.513,133.492
375.333,133.541
375.153,133.541
374.974,133.977
374.794,134.461
374.614,134.51
374.434,134.51
374.254,134.51
374.074,134.51
373.894,134.51
373.714,134.51
373.534,134.704
373.355,134.946
373.175,134.994
372.995,134.994
372.815,135.431
372.635,135.915
372.455,135.964
372.275,135.964
372.095,135.964
371.915,135.964
371.735,135.527
371.556,135.043
371.376,134.994
371.196,134.994
371.016,134.994
370.836,134.994
370.656,134.994
370.476,134.994
370.296,134.994
370.116,134.994
369.936,134.994
369.757,134.994
369.577,135.431
369.397,135.964
369.217,135.964
369.037,135.964
368.857,135.964
368.677,135.964
368.497,136.206
368.317,136.448
368.138,136.448
367.958,136.448
367.778,136.448
367.598,136.448
367.418,136.448
367.238,136.448
367.058,136.448
366.878,136.448
366.698,136.206
366.518,135.964
366.339,135.479
366.159,134.994
365.979,134.267
365.799,133.541
365.619,132.571
365.439,131.602
365.259,131.118
365.079,130.633
364.899,130.391
364.72,130.148
364.54,130.148
364.36,130.148
364.18,130.148
364,130.148
363.82,130.148
363.64,130.148
363.46,130.148
363.28,130.148
363.101,130.148
362.921,130.148
362.741,130.391
362.561,130.633
362.381,130.633
362.201,130.633
362.021,130.633
361.841,130.633
361.661,130.633
361.481,130.682
361.302,131.166
361.122,131.602
360.942,131.602
360.762,131.602
360.582,131.602
360.402,131.602
360.222,131.602
360.042,131.602
359.862,131.602
359.683,131.602
359.503,131.602
359.323,131.602
359.143,131.602
358.963,131.602
358.783,131.602
358.603,131.602
358.423,131.602
358.243,131.602
358.063,131.602
357.884,131.554
357.704,131.069
357.524,130.633
357.344,130.633
357.164,130.633
356.984,130.633
356.804,130.633
356.624,130.633
356.444,130.585
356.265,130.342
356.085,130.148
355.905,130.148
355.725,130.197
355.545,130.439
355.365,130.633
355.185,130.633
355.005,130.633
354.825,130.633
354.645,130.633
354.466,130.633
354.286,130.73
354.106,131.215
353.926,131.651
353.746,131.893
353.566,132.087
353.386,132.087
353.206,132.184
353.026,132.668
352.847,133.056
352.667,133.056
352.487,133.104
352.307,133.347
352.127,133.541
351.947,133.541
351.767,133.541
351.587,133.541
351.407,133.541
351.228,133.541
351.048,133.541
350.868,133.541
350.688,133.541
350.508,133.541
350.328,133.638
350.148,134.122
349.968,134.51
349.788,134.51
349.608,134.51
349.429,134.51
349.249,134.558
349.069,134.801
348.889,135.188
348.709,135.915
348.529,136.448
348.349,136.448
348.169,136.545
347.989,137.078
347.81,137.417
347.63,137.417
347.45,137.417
347.27,137.417
347.09,137.466
346.91,137.708
346.73,137.902
346.55,137.902
346.37,138.047
346.19,138.532
346.011,138.871
345.831,138.871
345.651,138.871
345.471,138.871
345.291,138.871
345.111,138.871
344.931,138.871
344.751,138.871
344.571,138.871
344.392,138.871
344.212,138.871
344.032,138.871
343.852,138.726
343.672,138.241
343.492,137.902
343.312,137.902
343.132,137.805
342.952,137.563
342.772,137.417
342.593,137.417
342.413,137.272
342.233,136.787
342.053,136.448
341.873,136.448
341.693,136.448
341.513,136.448
341.333,136.351
341.153,136.109
340.974,135.964
340.794,135.964
340.614,135.77
340.434,135.285
340.254,134.994
340.074,134.994
339.894,134.994
339.714,134.994
339.534,134.897
339.354,134.655
339.175,134.316
338.995,133.831
338.815,133.541
338.635,133.541
338.455,133.541
338.275,133.541
338.095,133.734
337.915,134.219
337.735,134.801
337.556,135.527
337.376,136.06
337.196,136.303
337.016,136.642
336.836,137.127
336.656,137.417
336.476,137.417
336.296,137.514
336.116,137.757
335.937,138.096
335.757,138.58
335.577,138.871
335.397,138.871
335.217,138.968
335.037,139.21
334.857,139.356
334.677,139.356
334.497,139.356
334.317,139.356
334.138,139.356
333.958,139.356
333.778,139.356
333.598,139.356
333.418,139.356
333.238,139.356
333.058,139.453
332.878,139.695
332.698,140.083
332.519,140.567
332.339,140.81
332.159,140.81
331.979,140.906
331.799,141.149
331.619,141.536
331.439,142.021
331.259,142.263
331.079,142.263
330.899,142.263
330.72,142.263
330.54,142.36
330.36,142.603
330.18,142.748
330,142.748
329.82,142.748
329.64,142.748
329.46,142.99
329.28,143.475
329.1,143.717
328.921,143.717
328.741,143.717
328.561,143.717
328.381,143.717
328.201,143.717
328.021,143.717
327.841,143.717
327.661,143.717
327.481,143.717
327.302,143.717
327.122,143.717
326.942,143.717
326.762,143.717
326.582,143.862
326.402,144.105
326.222,144.202
326.042,144.202
325.862,144.202
325.683,144.202
325.503,144.492
325.323,144.977
325.143,145.171
324.963,145.171
324.783,145.171
324.603,145.171
324.423,145.171
324.243,145.171
324.063,145.316
323.884,145.559
323.704,145.655
323.524,145.655
323.344,145.655
323.164,145.655
322.984,145.655
322.804,145.655
322.624,145.946
322.444,146.431
322.265,146.625
322.085,146.625
321.905,146.625
321.725,146.625
321.545,146.77
321.365,147.012
321.185,147.109
321.005,147.109
320.825,147.109
320.646,147.109
320.466,147.4
320.286,147.885
320.106,148.078
319.926,148.078
319.746,148.078
319.566,148.078
319.386,148.224
319.206,148.466
319.026,148.563
318.847,148.563
318.667,148.563
318.487,148.563
318.307,148.902
318.127,149.387
317.947,149.532
317.767,149.532
317.587,149.678
317.407,149.92
317.228,150.017
317.048,150.017
316.868,150.017
316.688,150.017
316.508,150.356
316.328,150.841
316.148,150.986
315.968,150.986
315.788,150.986
315.608,150.986
315.429,151.18
315.249,151.422
315.069,151.664
314.889,151.907
314.709,151.955
314.529,151.955
314.349,152.294
314.169,152.779
313.989,152.924
313.81,152.924
313.63,153.651
313.45,154.62
313.27,155.202
313.09,155.687
312.91,156.365
312.73,157.092
312.55,157.48
312.37,157.722
312.19,158.158
312.011,158.643
311.831,158.739
311.651,158.739
311.471,158.739
311.291,158.739
311.111,158.739
310.931,158.739
310.751,158.933
310.571,159.176
310.392,159.612
310.212,160.096
310.032,160.193
309.852,160.193
309.672,160.387
309.492,160.629
309.312,161.066
309.132,161.55
308.952,161.647
308.772,161.647
308.593,161.841
308.413,162.083
308.233,162.132
308.053,162.132
307.873,162.132
307.693,162.132
307.513,162.519
307.333,163.004
307.153,163.101
306.974,163.101
306.794,163.101
306.614,163.101
306.434,163.101
306.254,163.101
306.074,163.101
305.894,163.101
305.714,163.101
305.534,163.101
305.354,163.101
305.175,163.101
304.995,163.295
304.815,163.537
304.635,163.585
304.455,163.585
304.275,163.585
304.095,163.585
303.915,163.779
303.735,164.022
303.556,164.7
303.376,165.427
303.196,165.96
303.016,166.445
302.836,166.493
302.656,166.493
302.476,166.687
302.296,166.929
302.116,167.414
301.936,167.898
301.757,168.141
301.577,168.383
301.397,169.546
301.217,170.757
301.037,171.533
300.857,172.26
300.677,173.18
300.497,174.15
300.317,175.167
300.138,176.136
299.958,177.978
299.778,179.916
299.598,180.062
299.418,180.062
299.238,178.026
299.058,175.846
298.878,174.101
298.698,172.405
298.518,171.63
298.339,170.903
298.159,170.854
297.979,170.854
297.799,170.37
297.619,169.885
297.439,169.885
297.259,169.885
297.079,169.643
296.899,169.401
296.72,169.401
296.54,169.401
296.36,169.643
296.18,169.885
296,169.885
295.82,169.885
295.64,170.37
295.46,170.854
295.28,171.097
295.101,171.339
294.921,171.339
294.741,171.339
294.561,171.824
294.381,172.308
294.201,172.308
294.021,172.308
293.841,172.308
293.661,172.308
293.481,172.308
293.302,172.308
293.122,172.308
292.942,172.308
292.762,172.308
292.582,172.308
292.402,172.308
292.222,172.308
292.042,172.55
291.862,172.793
291.683,172.793
291.503,172.793
291.323,172.793
291.143,172.793
290.963,173.277
290.783,173.762
290.603,173.762
290.423,173.762
290.243,174.004
290.063,174.246
289.884,174.246
289.704,174.295
289.524,174.78
289.344,175.216
289.164,175.216
288.984,175.216
288.804,175.458
288.624,175.7
288.444,175.7
288.265,175.7
288.085,175.7
287.905,175.7
287.725,175.943
287.545,176.185
287.365,176.185
287.185,176.233
287.005,176.718
286.825,177.154
286.645,177.154
286.466,177.202
286.286,177.445
286.106,177.687
285.926,178.172
285.746,178.656
285.566,178.899
285.386,179.141
285.206,179.625
285.026,180.11
284.847,180.352
284.667,180.595
284.487,181.079
284.307,181.612
284.127,182.339
283.947,183.018
283.767,183.26
283.587,183.502
283.407,184.035
283.227,184.471
283.048,184.714
282.868,185.004
282.688,185.489
282.508,186.071
282.328,187.04
282.148,188.009
281.968,188.978
281.788,189.753
281.608,189.753
281.429,189.899
281.249,190.626
281.069,191.304
280.889,191.789
280.709,192.322
280.529,193.049
280.349,193.679
280.169,193.921
279.989,194.26
279.81,194.987
279.63,195.665
279.45,196.15
279.27,196.877
279.09,198.331
278.91,199.494
278.73,199.736
278.55,200.415
278.37,202.595
278.19,204.63
278.011,206.084
277.831,207.393
277.651,208.12
277.471,208.701
277.291,208.943
277.111,209.67
276.931,211.851
276.751,214.032
276.571,216.212
276.392,218.296
276.212,219.992
276.032,221.64
275.852,223.093
275.672,224.838
275.492,227.261
275.312,229.539
275.132,231.477
274.952,233.415
274.772,235.354
274.593,237.098
274.413,238.31
274.233,239.618
274.053,241.072
273.873,242.09
273.693,242.09
273.513,241.653
273.333,240.2
273.153,238.988
272.974,238.261
272.794,237.001
272.614,234.53
272.434,232.204
272.254,229.975
272.074,227.746
271.894,225.323
271.714,223.53
271.534,223.045
271.354,222.706
271.175,222.706
270.995,222.609
270.815,222.367
270.635,222.076
270.455,221.591
270.275,221.397
270.095,221.882
269.915,222.318
269.735,222.56
269.556,222.851
269.376,223.336
269.196,223.772
269.016,224.014
268.836,224.79
268.656,226.486
268.476,227.988
268.296,229.199
268.116,230.265
267.936,230.992
267.757,231.525
267.577,231.768
267.397,232.398
267.217,233.609
267.037,236.129
266.857,240.733
266.677,245.046
266.497,248.922
266.317,252.751
266.138,256.385
265.958,260.504
265.778,265.35
265.598,269.033
265.418,271.02
265.238,272.958
265.058,274.897
264.878,277.949
264.698,282.602
264.518,286.672
264.339,290.064
264.159,292.1
263.979,292.342
263.799,292.39
263.619,292.148
263.439,291.663
263.259,290.937
263.079,289.677
262.899,287.738
262.72,286.333
262.54,285.606
262.36,282.747
262.18,277.126
262,273.734
261.82,273.007
261.64,272.28
261.46,271.553
261.28,269.76
261.101,266.852
260.921,264.672
260.741,263.218
260.561,261.861
260.381,260.649
260.201,259.777
260.021,259.293
259.841,258.711
259.661,257.984
259.481,257.257
259.302,256.53
259.122,255.416
258.942,253.962
258.762,253.138
258.582,252.896
258.402,252.363
258.222,251.636
258.042,250.667
257.862,249.455
257.682,248.244
257.503,247.032
257.323,246.209
257.143,245.724
256.963,244.949
256.783,243.979
256.603,242.138
256.423,239.424
256.243,238.067
256.063,237.825
255.884,237.486
255.704,237.001
255.524,236.517
255.344,236.032
255.164,235.014
254.984,233.561
254.804,232.592
254.624,232.107
254.444,231.768
254.265,231.525
254.085,231.138
253.905,230.653
253.725,230.459
253.545,230.459
253.365,230.023
253.185,229.296
253.005,228.569
252.825,227.842
252.645,227.552
252.466,227.552
252.286,227.406
252.106,227.164
251.926,227.067
251.746,227.067
251.566,227.067
251.386,227.067
251.206,226.631
251.026,225.904
250.847,225.613
250.667,225.613
250.487,225.323
250.307,224.838
250.127,224.644
249.947,224.644
249.767,224.499
249.587,224.257
249.407,224.014
249.228,223.772
249.048,223.675
248.868,223.675
248.688,223.675
248.508,223.675
248.328,223.675
248.148,223.675
247.968,223.384
247.788,222.9
247.608,222.706
247.429,222.706
247.249,222.706
247.069,222.706
246.889,222.706
246.709,222.706
246.529,223.045
246.349,223.53
246.169,223.82
245.989,224.063
245.81,225.662
245.63,227.842
245.45,229.539
245.27,230.992
245.09,233.609
244.91,236.759
244.73,239.424
244.55,241.847
244.37,243.592
244.19,245.046
244.011,246.693
243.831,248.389
243.651,251.878
243.471,255.997
243.291,259.39
243.111,262.539
242.931,265.011
242.751,267.191
242.571,267.967
242.392,268.209
242.212,268.258
242.032,268.258
241.852,268.064
241.672,267.821
241.492,266.852
241.312,265.641
241.132,263.024
240.952,259.826
240.772,258.323
240.593,257.354
240.413,255.077
240.233,252.411
240.053,249.358
239.873,246.16
239.693,242.671
239.513,238.988
239.333,235.16
239.153,231.283
238.974,229.684
238.794,228.715
238.614,226.97
238.434,225.032
238.254,224.257
238.074,223.772
237.894,222.706
237.714,221.494
237.534,220.671
237.354,219.944
237.175,219.023
236.995,218.054
236.815,217.472
236.635,216.988
236.455,216.891
236.275,216.891
236.095,217.278
235.915,217.763
235.735,218.441
235.556,219.168
235.376,219.508
235.196,219.75
235.016,220.186
234.836,220.671
234.656,220.38
234.476,219.895
234.296,219.168
234.116,218.441
233.937,217.715
233.757,216.988
233.577,216.261
233.397,215.534
233.217,214.177
233.037,212.723
232.857,212.093
232.677,211.609
232.497,211.124
232.317,210.639
232.138,210.397
231.958,210.155
231.778,209.67
231.598,209.186
231.418,209.137
231.238,209.137
231.058,209.573
230.878,210.058
230.698,210.3
230.518,210.543
230.339,211.027
230.159,211.512
229.979,211.754
229.799,212.045
229.619,212.287
229.439,212.529
229.259,212.529
229.079,212.529
228.899,212.965
228.72,213.45
228.54,214.419
228.36,215.388
228.18,215.873
228,216.358
227.82,216.648
227.64,216.891
227.46,217.327
227.28,217.811
227.101,218.538
226.921,219.265
226.741,219.556
226.561,219.798
226.381,220.961
226.201,222.173
226.021,222.464
225.841,222.706
225.661,223.19
225.481,223.675
225.302,223.917
225.122,224.16
224.942,224.402
224.762,224.644
224.582,225.856
224.402,227.067
224.222,227.309
224.042,227.552
223.862,228.036
223.683,228.521
223.503,228.763
223.323,229.006
223.143,229.732
222.963,230.459
222.783,230.944
222.603,231.428
222.423,231.671
222.243,231.913
222.063,232.398
221.884,232.931
221.704,233.9
221.524,234.821
221.344,235.305
221.164,235.838
220.984,236.807
220.804,237.728
220.624,237.971
220.444,238.261
220.265,238.988
220.085,239.715
219.905,240.927
219.725,242.138
219.545,243.592
219.365,244.997
219.185,245.239
219.005,245.53
218.825,246.257
218.646,247.032
218.466,248.486
218.286,249.892
218.106,250.618
217.926,251.297
217.746,251.539
217.566,251.878
217.386,253.09
217.206,254.301
217.026,255.27
216.847,256.191
216.667,256.918
216.487,257.645
216.307,258.372
216.127,259.099
215.947,259.583
215.767,260.068
215.587,260.31
215.407,260.698
215.227,262.394
215.048,264.042
214.868,265.253
214.688,266.368
214.508,266.61
214.328,266.998
214.148,268.451
213.968,269.857
213.788,271.068
213.608,272.183
213.429,272.425
213.249,272.91
213.069,275.09
212.889,277.077
212.709,277.804
212.529,278.531
212.349,279.258
212.169,280.13
211.989,281.584
211.81,282.844
211.63,283.086
211.45,283.571
211.27,285.267
211.09,286.769
210.91,287.254
210.73,287.787
210.55,288.514
210.37,289.24
210.19,289.967
210.011,290.694
209.831,291.421
209.651,292.148
209.471,292.875
209.291,293.602
209.111,294.329
208.931,295.056
208.751,295.783
208.571,296.461
208.392,296.946
208.212,297.479
208.032,298.206
207.852,298.932
207.672,299.659
207.492,300.338
207.312,300.822
207.132,301.404
206.952,302.131
206.772,302.712
206.593,302.954
206.413,303.342
206.233,304.069
206.053,304.699
205.873,305.184
205.693,305.765
205.513,306.492
205.333,307.219
205.153,307.946
204.974,308.527
204.794,308.77
204.614,309.012
204.434,309.254
204.254,309.593
204.074,310.078
203.894,310.466
203.714,310.708
203.534,311.047
203.354,311.532
203.175,312.162
202.995,313.131
202.815,314.003
202.635,314.73
202.455,315.409
202.275,315.893
202.095,316.426
201.915,317.153
201.735,317.88
201.556,318.655
201.376,319.237
201.196,319.479
201.016,320.061
200.836,321.563
200.656,322.629
200.476,322.871
200.296,323.162
200.116,323.647
199.936,324.228
199.757,324.955
199.577,325.682
199.397,326.409
199.217,327.136
199.037,327.863
198.857,328.589
198.677,329.316
198.497,329.898
198.317,330.14
198.138,331.061
197.958,333.242
197.778,334.889
197.598,335.616
197.418,336.731
197.238,338.427
197.058,339.687
196.878,340.171
196.698,340.559
196.518,340.801
196.339,341.674
196.159,343.612
195.979,345.744
195.799,348.167
195.619,350.638
195.439,353.061
195.259,355.097
195.079,356.551
194.899,357.52
194.72,357.762
194.54,358.392
194.36,359.603
194.18,360.718
194,361.687
193.82,363.044
193.64,365.031
193.46,366.872
193.28,368.568
193.101,369.974
192.921,370.943
192.741,372.445
192.561,374.626
192.381,376.177
192.201,376.903
192.021,377.824
191.841,379.036
191.661,380.247
191.481,381.459
191.302,382.331
191.122,382.815
190.942,383.106
190.762,383.106
190.582,382.864
190.402,382.379
190.222,381.895
190.042,381.41
189.862,379.908
189.683,377.243
189.503,375.11
189.323,373.657
189.143,372.009
188.963,370.022
188.783,365.37
188.603,357.859
188.423,350.348
188.243,342.788
188.063,334.695
187.884,325.973
187.704,319.867
187.524,316.475
187.344,313.325
187.164,310.417
186.984,308.818
186.804,308.576
186.624,307.122
186.444,304.408
186.265,302.615
186.085,301.646
185.905,300.968
185.725,300.483
185.545,300.483
185.365,300.968
185.185,301.355
185.005,301.598
184.825,302.082
184.645,302.809
184.466,304.602
184.286,307.267
184.106,309.933
183.926,312.598
183.746,315.263
183.566,317.928
183.386,321.272
183.206,325.149
183.026,333.29
182.847,344.823
182.667,352.044
182.487,356.211
182.307,360.476
182.127,364.837
181.947,371.476
181.767,379.714
181.587,384.802
181.407,387.71
181.227,393.525
181.048,401.279
180.868,407.045
180.688,411.406
180.508,413.151
180.328,413.151
180.148,412.424
179.968,411.213
179.788,410.583
179.608,410.34
179.429,409.953
179.249,409.468
179.069,409.71
178.889,410.486
178.709,414.896
178.529,421.438
178.349,431.081
178.169,442.469
177.989,453.566
177.81,464.518
177.63,473.241
177.45,480.752
177.27,487.197
177.09,493.012
176.91,498.973
176.73,505.03
176.55,508.568
176.37,510.748
176.19,512.154
176.011,513.123
175.831,513.801
175.651,514.286
175.471,514.092
175.291,513.607
175.111,493.69
174.931,464.809
174.751,438.592
174.571,413.587
174.392,382.912
174.212,349.669
174.032,330.916
173.852,318.51
173.672,307.025
173.492,295.831
173.312,285.509
173.132,275.575
172.952,267.337
172.772,259.826
172.593,254.156
172.413,249.31
172.233,246.839
172.053,245.385
171.873,241.266
171.693,236.178
171.513,234.288
171.333,233.561
171.153,233.173
170.974,232.931
170.794,231.816
170.614,230.362
170.434,229.054
170.254,227.842
170.074,227.358
169.894,227.116
169.714,226.534
169.534,225.807
169.354,225.08
169.175,224.353
168.995,224.16
168.815,224.16
168.635,223.578
168.455,222.851
168.275,222.512
168.095,222.27
167.915,221.834
167.735,221.349
167.556,221.058
167.376,220.816
167.196,220.38
167.016,219.895
166.836,219.798
166.656,219.798
166.476,219.604
166.296,219.362
166.116,219.314
165.936,219.314
165.757,218.926
165.577,218.441
165.397,218.151
165.217,217.908
165.037,217.472
164.857,216.988
164.677,216.891
164.497,216.891
164.317,216.891
164.138,216.891
163.958,216.891
163.778,216.891
163.598,216.891
163.418,216.891
163.238,216.891
163.058,216.891
162.878,216.891
162.698,216.891
162.519,216.891
162.339,216.891
162.159,216.891
161.979,216.891
161.799,217.327
161.619,217.811
161.439,217.86
161.259,217.86
161.079,217.86
160.899,217.86
160.72,218.054
160.54,218.296
160.36,218.344
160.18,218.344
160,218.344
159.82,218.344
159.64,218.344
159.46,218.344
159.28,218.344
159.1,218.344
158.921,218.344
158.741,218.344
158.561,218.781
158.381,219.265
158.201,219.314
158.021,219.314
157.841,219.556
157.661,219.798
157.481,219.798
157.302,219.798
157.122,219.798
156.942,219.798
156.762,219.798
156.582,219.798
156.402,220.234
156.222,220.719
156.042,220.767
155.862,220.767
155.683,220.767
155.503,220.767
155.323,220.767
155.143,220.767
154.963,220.767
154.783,220.767
154.603,220.767
154.423,220.767
154.243,220.767
154.063,220.767
153.884,220.767
153.704,220.767
153.524,220.767
153.344,220.767
153.164,221.01
152.984,221.252
152.804,221.252
152.624,221.252
152.444,221.252
152.265,221.252
152.085,221.737
151.905,222.221
151.725,222.221
151.545,222.221
151.365,222.221
151.185,222.221
151.005,222.221
150.825,222.221
150.645,222.221
150.466,222.221
150.286,222.221
150.106,222.221
149.926,222.464
149.746,222.706
149.566,222.706
149.386,222.706
149.206,222.706
149.026,222.706
148.847,222.706
148.667,222.706
148.487,222.706
148.307,222.706
148.127,222.706
147.947,222.706
147.767,222.706
147.587,222.706
147.407,222.706
147.228,222.706
147.048,222.706
146.868,222.754
146.688,223.239
146.508,223.675
146.328,223.675
146.148,223.675
145.968,223.675
145.788,223.675
145.608,223.675
145.429,223.675
145.249,223.675
145.069,223.675
144.889,223.675
144.709,223.723
144.529,223.966
144.349,224.208
144.169,224.45
143.989,224.644
143.809,224.644
143.63,224.644
143.45,224.644
143.27,224.693
143.09,225.177
142.91,225.613
142.73,225.613
142.55,225.662
142.37,225.904
142.19,226.098
142.011,226.098
141.831,226.098
141.651,226.098
141.471,226.098
141.291,226.098
141.111,226.098
140.931,226.098
140.751,226.098
140.571,226.098
140.392,226.098
140.212,226.098
140.032,226.195
139.852,226.68
139.672,227.067
139.492,227.067
139.312,227.067
139.132,227.067
138.952,227.067
138.772,227.067
138.593,227.213
138.413,227.939
138.233,228.569
138.053,228.812
137.873,229.006
137.693,229.006
137.513,229.006
137.333,229.006
137.153,229.102
136.974,229.587
136.794,229.975
136.614,229.975
136.434,229.975
136.254,229.975
136.074,230.023
135.894,230.265
135.714,230.459
135.534,230.459
135.354,230.459
135.175,230.459
134.995,230.556
134.815,231.041
134.635,231.428
134.455,231.428
134.275,231.428
134.095,231.428
133.915,231.428
133.735,231.428
133.556,231.428
133.376,231.428
133.196,231.428
133.016,231.428
132.836,231.477
132.656,231.719
132.476,231.913
132.296,231.913
132.116,231.913
131.937,231.913
131.757,231.913
131.577,231.913
131.397,231.913
131.217,231.913
131.037,231.913
130.857,231.913
130.677,232.058
130.497,232.543
130.317,232.882
130.138,232.882
129.958,232.882
129.778,232.882
129.598,232.882
129.418,232.882
129.238,232.979
129.058,233.221
128.878,233.367
128.698,233.367
128.518,233.367
128.339,233.367
128.159,233.367
127.979,233.367
127.799,233.367
127.619,233.367
127.439,233.512
127.259,233.997
127.079,234.433
126.899,234.675
126.72,234.821
126.54,234.821
126.36,234.821
126.18,234.821
126,234.821
125.82,234.821
125.64,235.014
125.46,235.499
125.28,235.79
125.101,235.79
124.921,235.79
124.741,235.79
124.561,235.79
124.381,235.79
124.201,235.79
124.021,235.79
123.841,235.887
123.661,236.129
123.481,236.274
123.302,236.274
123.122,236.371
122.942,236.614
122.762,236.759
122.582,236.759
122.402,236.953
122.222,237.437
122.042,237.728
121.862,237.728
121.683,237.728
121.503,237.728
121.323,237.728
121.143,237.728
120.963,237.728
120.783,237.728
120.603,237.728
120.423,237.728
120.243,237.825
120.063,238.067
119.884,238.213
119.704,238.213
119.524,238.213
119.344,238.213
119.164,238.213
118.984,238.213
118.804,238.455
118.624,238.94
118.444,239.182
118.265,239.182
118.085,239.182
117.905,239.182
117.725,239.279
117.545,239.521
117.365,239.667
117.185,239.667
117.005,239.909
116.825,240.393
116.645,240.636
116.466,240.636
116.286,240.781
116.106,241.023
115.926,241.12
115.746,241.12
115.566,241.12
115.386,241.12
115.206,241.363
115.026,241.847
114.847,242.09
114.667,242.09
114.487,242.09
114.307,242.09
114.127,242.235
113.947,242.477
113.767,242.574
113.587,242.574
113.407,242.574
113.227,242.574
113.048,242.816
112.868,243.35
112.688,243.689
112.508,243.931
112.328,244.028
112.148,244.028
111.968,244.319
111.788,244.803
111.608,244.997
111.429,244.997
111.249,245.142
111.069,245.385
110.889,245.482
110.709,245.482
110.529,245.772
110.349,246.257
110.169,246.451
109.989,246.451
109.81,246.451
109.63,246.451
109.45,246.596
109.27,246.839
109.09,246.935
108.91,246.935
108.73,246.935
108.55,246.935
108.37,247.226
108.19,247.711
108.011,247.905
107.831,247.905
107.651,247.905
107.471,247.905
107.291,248.05
107.111,248.292
106.931,248.389
106.751,248.389
106.571,248.389
106.392,248.389
106.212,248.535
106.032,248.777
105.852,248.874
105.672,248.874
105.492,248.874
105.312,248.874
105.132,249.213
104.952,249.698
104.772,249.843
104.593,249.843
104.413,249.843
104.233,249.843
104.053,249.988
103.873,250.231
103.693,250.328
103.513,250.328
103.333,250.328
103.153,250.328
102.974,250.328
102.794,250.328
102.614,250.667
102.434,251.151
102.254,251.297
102.074,251.297
101.894,251.297
101.714,251.297
101.534,251.491
101.354,251.733
101.175,251.781
100.995,251.781
100.815,252.121
100.635,252.605
100.455,252.751
100.275,252.751
100.095,252.751
99.9153,252.751
99.7354,252.944
99.5555,253.187
99.3756,253.235
99.1957,253.235
99.0159,253.235
98.836,253.235
98.6561,253.623
98.4762,254.107
98.2963,254.204
98.1164,254.204
97.9365,254.204
97.7566,254.204
97.5767,254.204
97.3968,254.204
97.2169,254.204
97.037,254.204
96.8571,254.204
96.6772,254.204
96.4973,254.204
96.3174,254.204
96.1375,253.817
95.9576,253.332
95.7777,253.235
95.5978,253.235
95.418,253.235
95.2381,253.235" />
</g>
</svg>
