<?xml version="1.0"?>
<svg version="1.1"
     xmlns="http://www.w3.org/2000/svg"
     xmlns:xlink="http://www.w3.org/1999/xlink"
     viewBox="0 0 800 600">
<g>
<text fill="#000000" font-family="sans-serif" font-size="19.0476" text-anchor="start" x="4.7619" y="591.429" >
NIST Chemistry WebBook (https://webbook.nist.gov/chemistry)
</text>
<polyline stroke="#000000" stroke-width="1.19048" fill="none" points="95.2381,514.286
742.857,514.286
742.857,66.6667
95.2381,66.6667
95.2381,514.286" />
<text fill="#000000" font-family="sans-serif" font-size="19.0476" text-anchor="middle" x="419.048" y="24.7619" >
3-NITROPHTHALIC ACID
</text>
<text fill="#000000" font-family="sans-serif" font-size="19.0476" text-anchor="middle" x="419.048" y="53.3333" >
INFRARED SPECTRUM
</text>
<text fill="#000000" font-family="sans-serif" font-size="19.0476" text-anchor="middle" x="419.048" y="558.095" >
Micrometers
</text>
<text fill="#000000" font-family="sans-serif" font-size="19.0476" text-anchor="middle" transform="translate(20,290.476) rotate(270)" x="0" y="0" >
Transmitance
</text>
<text fill="#000000" font-family="sans-serif" font-size="19.0476" text-anchor="middle" x="651.413" y="534.286" >
4
</text>
<line stroke="#000000" stroke-width="1.19048" x1="651.413" y1="514.286" x2="651.413" y2="504.762" />
<text fill="#000000" font-family="sans-serif" font-size="19.0476" text-anchor="middle" x="466.022" y="534.286" >
8
</text>
<line stroke="#000000" stroke-width="1.19048" x1="466.022" y1="514.286" x2="466.022" y2="504.762" />
<text fill="#000000" font-family="sans-serif" font-size="19.0476" text-anchor="middle" x="280.631" y="534.286" >
12
</text>
<line stroke="#000000" stroke-width="1.19048" x1="280.631" y1="514.286" x2="280.631" y2="504.762" />
<text fill="#000000" font-family="sans-serif" font-size="19.0476" text-anchor="middle" x="95.2402" y="534.286" >
16
</text>
<line stroke="#000000" stroke-width="1.19048" x1="95.2402" y1="514.286" x2="95.2402" y2="504.762" />
<line stroke="#000000" stroke-width="1.19048" x1="697.761" y1="514.286" x2="697.761" y2="509.524" />
<line stroke="#000000" stroke-width="1.19048" x1="651.413" y1="514.286" x2="651.413" y2="509.524" />
<line stroke="#000000" stroke-width="1.19048" x1="605.065" y1="514.286" x2="605.065" y2="509.524" />
<line stroke="#000000" stroke-width="1.19048" x1="558.718" y1="514.286" x2="558.718" y2="509.524" />
<line stroke="#000000" stroke-width="1.19048" x1="512.37" y1="514.286" x2="512.37" y2="509.524" />
<line stroke="#000000" stroke-width="1.19048" x1="466.022" y1="514.286" x2="466.022" y2="509.524" />
<line stroke="#000000" stroke-width="1.19048" x1="419.674" y1="514.286" x2="419.674" y2="509.524" />
<line stroke="#000000" stroke-width="1.19048" x1="373.327" y1="514.286" x2="373.327" y2="509.524" />
<line stroke="#000000" stroke-width="1.19048" x1="326.979" y1="514.286" x2="326.979" y2="509.524" />
<line stroke="#000000" stroke-width="1.19048" x1="280.631" y1="514.286" x2="280.631" y2="509.524" />
<line stroke="#000000" stroke-width="1.19048" x1="234.283" y1="514.286" x2="234.283" y2="509.524" />
<line stroke="#000000" stroke-width="1.19048" x1="187.936" y1="514.286" x2="187.936" y2="509.524" />
<line stroke="#000000" stroke-width="1.19048" x1="141.588" y1="514.286" x2="141.588" y2="509.524" />
<line stroke="#000000" stroke-width="1.19048" x1="95.2402" y1="514.286" x2="95.2402" y2="509.524" />
<text fill="#000000" font-family="sans-serif" font-size="19.0476" text-anchor="end" x="90.4762" y="445.626" >
0.2
</text>
<line stroke="#000000" stroke-width="1.19048" x1="95.2381" y1="441.34" x2="104.762" y2="441.34" />
<text fill="#000000" font-family="sans-serif" font-size="19.0476" text-anchor="end" x="90.4762" y="350.892" >
0.4
</text>
<line stroke="#000000" stroke-width="1.19048" x1="95.2381" y1="346.606" x2="104.762" y2="346.606" />
<text fill="#000000" font-family="sans-serif" font-size="19.0476" text-anchor="end" x="90.4762" y="256.158" >
0.6
</text>
<line stroke="#000000" stroke-width="1.19048" x1="95.2381" y1="251.872" x2="104.762" y2="251.872" />
<text fill="#000000" font-family="sans-serif" font-size="19.0476" text-anchor="end" x="90.4762" y="161.424" >
0.8
</text>
<line stroke="#000000" stroke-width="1.19048" x1="95.2381" y1="157.138" x2="104.762" y2="157.138" />
<line stroke="#000000" stroke-width="1.19048" x1="95.2381" y1="512.391" x2="100" y2="512.391" />
<line stroke="#000000" stroke-width="1.19048" x1="95.2381" y1="488.707" x2="100" y2="488.707" />
<line stroke="#000000" stroke-width="1.19048" x1="95.2381" y1="465.024" x2="100" y2="465.024" />
<line stroke="#000000" stroke-width="1.19048" x1="95.2381" y1="441.34" x2="100" y2="441.34" />
<line stroke="#000000" stroke-width="1.19048" x1="95.2381" y1="417.657" x2="100" y2="417.657" />
<line stroke="#000000" stroke-width="1.19048" x1="95.2381" y1="393.973" x2="100" y2="393.973" />
<line stroke="#000000" stroke-width="1.19048" x1="95.2381" y1="370.29" x2="100" y2="370.29" />
<line stroke="#000000" stroke-width="1.19048" x1="95.2381" y1="346.606" x2="100" y2="346.606" />
<line stroke="#000000" stroke-width="1.19048" x1="95.2381" y1="322.923" x2="100" y2="322.923" />
<line stroke="#000000" stroke-width="1.19048" x1="95.2381" y1="299.239" x2="100" y2="299.239" />
<line stroke="#000000" stroke-width="1.19048" x1="95.2381" y1="275.556" x2="100" y2="275.556" />
<line stroke="#000000" stroke-width="1.19048" x1="95.2381" y1="251.872" x2="100" y2="251.872" />
<line stroke="#000000" stroke-width="1.19048" x1="95.2381" y1="228.188" x2="100" y2="228.188" />
<line stroke="#000000" stroke-width="1.19048" x1="95.2381" y1="204.505" x2="100" y2="204.505" />
<line stroke="#000000" stroke-width="1.19048" x1="95.2381" y1="180.821" x2="100" y2="180.821" />
<line stroke="#000000" stroke-width="1.19048" x1="95.2381" y1="157.138" x2="100" y2="157.138" />
<line stroke="#000000" stroke-width="1.19048" x1="95.2381" y1="133.454" x2="100" y2="133.454" />
<line stroke="#000000" stroke-width="1.19048" x1="95.2381" y1="109.771" x2="100" y2="109.771" />
<line stroke="#000000" stroke-width="1.19048" x1="95.2381" y1="86.0871" x2="100" y2="86.0871" />
<polyline stroke="#FF0000" stroke-width="1.19048" fill="none" points="742.857,236.715
742.55,236.715
742.243,235.767
741.935,232.925
741.628,230.557
741.32,229.609
741.013,228.188
740.706,228.188
740.399,227.241
740.091,227.241
739.798,226.767
739.491,226.767
739.184,225.82
738.877,225.82
738.569,225.82
738.261,225.82
737.954,225.82
737.647,226.767
737.34,227.241
737.032,228.188
736.739,228.662
736.432,230.557
736.125,231.978
735.818,233.399
735.51,235.294
735.202,237.662
734.895,238.136
734.588,243.82
734.281,244.767
733.974,245.241
733.68,244.767
733.373,243.82
733.066,242.872
732.759,242.399
732.451,241.451
732.143,240.504
731.836,239.083
731.529,236.715
731.222,235.767
730.915,235.294
730.575,234.346
730.268,232.925
729.961,231.978
729.653,231.03
729.346,229.609
729.038,228.662
728.731,228.188
728.424,227.241
728.116,226.767
727.809,225.82
727.516,224.873
727.209,224.399
726.902,224.399
726.594,223.452
726.287,223.452
725.979,222.504
725.672,220.136
725.365,215.399
725.057,214.926
724.75,213.978
724.457,213.031
724.15,212.557
723.843,212.557
723.535,212.557
723.228,212.557
722.92,212.557
722.613,212.557
722.306,212.557
721.999,211.61
721.691,211.61
721.352,210.663
721.045,210.663
720.737,210.189
720.43,210.189
720.123,210.189
719.815,209.242
719.508,207.821
719.2,204.031
718.893,201.663
718.586,198.347
718.293,196.926
717.986,195.031
717.678,193.611
717.371,192.663
717.064,192.663
716.756,193.611
716.449,195.031
716.141,197.4
715.834,198.347
715.527,198.347
715.234,196.926
714.927,186.505
714.619,185.558
714.312,184.137
714.005,183.19
713.697,183.19
713.39,182.716
713.083,181.769
712.775,180.821
712.468,180.821
712.175,180.821
711.868,180.348
711.56,180.348
711.253,179.4
710.946,178.927
710.638,177.032
710.331,176.558
710.024,174.664
709.716,173.243
709.409,171.822
709.07,169.927
708.762,167.085
708.455,166.138
708.148,166.138
707.841,166.138
707.533,165.19
707.226,165.19
706.918,165.19
706.611,165.19
706.304,164.717
706.011,164.717
705.703,163.769
705.396,162.822
705.089,162.348
704.782,162.348
704.474,162.348
704.167,162.348
703.859,162.348
703.552,162.822
703.245,164.717
702.952,165.19
702.645,167.085
702.337,169.453
702.03,170.874
701.723,171.822
701.415,172.295
701.108,173.243
700.8,174.664
700.493,176.558
700.186,178.927
699.846,183.19
699.539,186.505
699.232,187.926
698.925,191.242
698.618,195.031
698.31,199.768
698.002,204.505
697.695,210.189
697.388,216.347
697.081,222.031
696.787,228.662
696.48,235.767
696.173,242.872
695.866,249.977
695.559,258.503
695.251,266.556
694.943,275.082
694.636,284.555
694.329,294.029
694.022,296.397
693.729,299.239
693.421,308.239
693.114,316.765
692.807,326.238
692.5,334.764
692.192,339.501
691.884,344.238
691.577,350.396
691.27,357.501
690.963,363.185
690.67,368.395
690.362,370.29
690.055,372.184
689.748,376.447
689.441,381.184
689.133,383.553
688.825,386.395
688.518,391.131
688.211,395.868
687.904,400.605
687.564,402.973
687.257,402.973
686.95,403.92
686.643,404.394
686.335,405.341
686.027,406.289
685.72,406.762
685.413,406.762
685.106,407.71
684.799,409.131
684.505,411.499
684.198,413.394
683.891,414.815
683.584,418.604
683.276,425.709
682.968,439.919
682.661,453.182
682.354,475.918
682.047,496.286
681.74,512.865
681.446,514.286
681.139,514.286
680.832,514.286
680.525,514.286
680.218,513.338
679.909,513.338
679.602,513.338
679.295,512.865
678.988,512.865
678.681,512.865
678.341,512.865
678.034,512.865
677.727,512.865
677.419,512.865
677.112,512.865
676.804,512.865
676.497,512.865
676.19,512.865
675.883,512.865
675.575,511.917
675.282,511.444
674.975,511.444
674.668,510.496
674.36,510.496
674.053,509.075
673.745,506.707
673.438,500.076
673.131,494.865
672.824,489.181
672.516,450.814
672.223,418.604
671.916,393.5
671.609,378.816
671.302,370.763
670.994,362.237
670.686,353.711
670.379,346.606
670.072,338.554
669.765,331.449
669.457,326.238
669.164,320.081
668.857,315.344
668.55,311.081
668.243,308.713
667.935,308.239
667.627,306.344
667.32,306.344
667.013,307.292
666.706,308.239
666.398,309.66
666.059,310.607
665.752,310.607
665.445,310.607
665.137,308.713
664.83,305.87
664.522,301.134
664.215,294.029
663.908,293.081
663.6,291.66
663.293,290.713
663,290.713
662.693,290.713
662.386,289.292
662.078,289.292
661.771,288.345
661.463,288.345
661.156,288.345
660.849,288.345
660.541,289.292
660.234,289.292
659.941,289.292
659.634,288.345
659.327,283.608
659.019,278.871
658.712,277.45
658.404,276.029
658.097,274.608
657.79,271.293
657.482,267.977
657.175,265.608
656.836,264.187
656.529,262.766
656.221,260.872
655.914,259.451
655.607,257.082
655.299,253.767
654.992,249.504
654.684,247.135
654.377,245.241
654.07,243.82
653.777,242.872
653.47,241.451
653.162,240.03
652.855,237.662
652.548,235.767
652.24,234.346
651.933,231.978
651.625,231.03
651.318,231.03
651.011,231.978
650.718,231.978
650.411,235.294
650.103,239.083
649.796,247.135
649.489,253.293
649.181,253.767
648.874,253.293
648.567,252.346
648.259,244.767
647.952,242.872
647.659,241.451
647.352,239.083
647.044,235.294
646.737,228.188
646.43,224.399
646.122,220.136
645.815,217.294
645.508,214.926
645.2,213.978
644.893,213.031
644.554,211.61
644.246,210.663
643.939,208.294
643.632,205.926
643.325,204.031
643.017,204.031
642.71,203.084
642.402,201.663
642.095,199.295
641.788,197.4
641.495,197.4
641.187,197.4
640.88,197.4
640.573,198.347
640.266,199.295
639.958,200.716
639.651,201.663
639.343,203.084
639.036,204.031
638.729,205.452
638.436,205.926
638.128,205.926
637.821,205.452
637.514,204.505
637.207,204.031
636.899,203.084
636.592,202.137
636.284,201.663
635.977,199.768
635.67,198.347
635.33,196.926
635.023,195.979
634.716,195.031
634.409,194.558
634.102,187.453
633.794,181.769
633.486,176.558
633.179,172.295
632.872,169.453
632.565,167.085
632.271,166.138
631.964,165.19
631.657,164.717
631.35,162.822
631.043,162.822
630.735,162.822
630.427,162.822
630.12,162.822
629.813,162.348
629.506,159.98
629.212,159.033
628.905,158.085
628.598,157.611
628.291,157.611
627.984,156.664
627.676,156.664
627.368,156.19
627.061,155.243
626.754,152.875
626.447,151.454
626.154,150.506
625.846,150.506
625.539,149.559
625.232,148.138
624.925,147.191
624.617,147.191
624.309,147.191
624.002,146.717
623.695,145.77
623.388,145.77
623.048,145.77
622.741,145.77
622.434,144.822
622.127,144.822
621.819,144.349
621.511,142.454
621.204,141.033
620.897,140.086
620.59,139.612
620.282,138.665
619.989,137.244
619.682,136.296
619.375,136.296
619.068,135.349
618.76,135.349
618.452,133.928
618.145,133.454
617.838,131.56
617.531,129.191
617.224,129.191
616.93,128.718
616.623,126.823
616.316,125.402
616.009,124.455
615.701,123.981
615.393,123.034
615.086,123.034
614.779,121.613
614.472,120.665
614.165,119.718
613.825,119.718
613.518,119.718
613.211,119.718
612.903,119.718
612.596,119.718
612.288,119.718
611.981,119.718
611.674,119.718
611.366,121.613
611.059,121.613
610.766,121.613
610.459,121.613
610.152,121.613
609.844,120.665
609.537,120.665
609.229,119.244
608.922,118.297
608.615,118.297
608.307,117.349
608,117.349
607.707,116.876
607.4,115.928
607.093,115.928
606.785,114.981
606.478,114.981
606.17,114.507
605.863,111.192
605.556,109.771
605.249,107.402
604.941,106.455
604.648,105.981
604.341,105.034
604.034,104.087
603.727,103.613
603.419,102.666
603.111,104.087
602.804,106.455
602.497,109.771
602.19,110.244
601.882,110.244
601.543,110.244
601.236,109.771
600.928,105.034
600.621,101.718
600.314,97.929
600.006,94.1396
599.699,91.7712
599.392,88.4555
599.084,88.4555
598.777,87.5082
598.484,87.0345
598.177,87.0345
597.87,87.5082
597.562,87.5082
597.255,88.4555
596.947,88.4555
596.64,89.4029
596.333,92.2449
596.025,94.6133
595.718,95.5606
595.425,95.5606
595.118,94.6133
594.811,93.1923
594.503,89.8766
594.196,88.4555
593.888,87.0345
593.581,86.0872
593.274,85.6135
592.966,84.6662
592.659,83.2452
592.32,82.2978
592.012,82.2978
591.705,82.2978
591.398,83.2452
591.091,84.6662
590.783,85.6135
590.476,86.0872
590.168,86.0872
589.861,85.6135
589.554,83.7188
589.261,81.3505
588.953,80.8768
588.646,79.9295
588.339,78.5085
588.032,78.5085
587.724,76.6138
587.417,76.1401
587.109,73.7717
586.802,71.4034
586.495,67.1404
586.202,66.6667
585.895,66.6667
585.587,68.0877
585.28,69.5087
584.973,71.4034
584.665,72.8244
584.358,74.2454
584.05,78.5085
583.743,78.5085
583.436,76.1401
583.143,71.877
582.836,71.877
582.528,74.2454
582.221,78.9821
581.914,79.9295
581.606,80.8768
581.299,80.8768
580.992,81.3505
580.684,82.2978
580.377,84.6662
580.038,85.6135
579.73,85.6135
579.423,86.0872
579.116,87.5082
578.809,90.8239
578.501,92.2449
578.193,94.6133
577.886,97.929
577.579,101.718
577.272,108.35
576.979,112.613
576.671,117.349
576.364,126.349
576.057,133.454
575.75,140.086
575.442,146.717
575.135,151.927
574.827,156.19
574.52,159.033
574.213,161.401
573.92,166.138
573.612,173.243
573.305,180.821
572.998,191.242
572.691,203.084
572.383,215.399
572.076,230.557
571.768,247.609
571.461,261.819
571.154,289.292
570.814,304.923
570.507,321.502
570.2,350.396
569.893,381.184
569.585,411.025
569.277,431.393
568.97,443.709
568.663,452.235
568.356,453.182
568.049,452.235
567.755,449.393
567.448,444.656
567.141,440.867
566.834,436.604
566.526,434.235
566.219,424.288
565.911,416.236
565.604,410.078
565.297,404.394
564.99,399.184
564.696,393.5
564.389,385.921
564.082,376.447
563.775,370.29
563.468,367.921
563.16,367.921
562.852,368.395
562.545,370.29
562.238,372.184
561.931,377.868
561.637,387.342
561.33,395.868
561.023,397.289
560.716,396.815
560.409,393.5
560.101,388.763
559.793,375.5
559.486,363.185
559.179,350.396
558.872,339.501
558.532,330.028
558.225,322.923
557.918,320.081
557.611,316.765
557.303,313.449
556.995,309.66
556.688,301.134
556.381,279.819
556.074,267.977
555.766,260.872
555.473,255.661
555.166,251.872
554.859,247.135
554.552,242.399
554.244,237.662
553.936,233.399
553.629,229.609
553.322,226.767
553.015,223.452
552.707,222.504
552.414,222.504
552.107,224.399
551.8,235.767
551.493,250.925
551.185,276.503
550.877,278.398
550.57,277.45
550.263,263.24
549.956,257.082
549.648,235.294
549.309,219.662
549.002,206.873
548.695,199.295
548.387,192.189
548.08,187.453
547.772,181.769
547.465,175.611
547.158,168.506
546.85,162.348
546.543,157.611
546.25,156.664
545.943,157.611
545.636,167.085
545.328,180.348
545.021,199.295
544.713,220.136
544.406,247.609
544.099,275.082
543.792,303.502
543.484,331.449
543.191,332.396
542.884,331.449
542.577,311.081
542.269,288.345
541.962,278.398
541.654,264.187
541.347,257.082
541.04,253.767
540.733,253.293
540.425,255.661
540.086,258.503
539.779,267.503
539.471,276.029
539.164,290.713
538.857,298.765
538.549,307.292
538.242,317.712
537.934,326.712
537.627,337.133
537.32,350.396
537.027,367.921
536.72,384.026
536.412,403.92
536.105,404.394
535.798,402.026
535.49,384.026
535.183,373.132
534.875,364.606
534.568,359.869
534.261,351.343
533.968,340.922
533.661,327.659
533.354,313.449
533.046,300.186
532.739,274.608
532.431,265.135
532.124,257.082
531.817,252.346
531.509,247.609
531.202,244.767
530.909,240.03
530.602,235.294
530.295,230.557
529.987,228.188
529.68,225.82
529.372,224.873
529.065,224.873
528.758,225.82
528.45,226.767
528.143,228.662
527.804,231.978
527.496,236.715
527.189,240.504
526.882,247.609
526.575,255.661
526.267,275.082
525.959,287.871
525.652,300.186
525.345,322.923
525.038,348.027
524.745,366.974
524.438,384.026
524.13,398.236
523.823,410.078
523.516,431.867
523.208,460.287
522.901,480.655
522.593,490.602
522.286,492.497
521.979,495.339
521.686,496.286
521.379,496.286
521.071,494.865
520.764,491.549
520.457,489.181
520.149,487.76
519.842,486.339
519.534,484.444
519.227,482.076
518.92,479.234
518.58,474.971
518.273,468.813
517.966,461.235
517.659,451.761
517.352,441.34
517.044,432.814
516.736,425.709
516.429,417.657
516.122,409.131
515.815,398.236
515.521,384.974
515.214,366.974
514.907,345.185
514.6,325.291
514.293,310.607
513.985,285.503
513.677,277.45
513.37,270.345
513.063,263.24
512.756,258.03
512.463,255.661
512.155,254.714
511.848,254.714
511.541,255.661
511.234,274.608
510.926,294.029
510.618,300.186
510.311,307.292
510.004,320.081
509.697,330.028
509.404,349.448
509.096,381.184
508.789,391.131
508.482,397.289
508.175,409.131
507.867,410.078
507.559,409.131
507.252,406.289
506.945,399.657
506.638,391.131
506.298,386.395
505.991,384.026
505.684,384.026
505.377,383.553
505.069,384.026
504.761,386.395
504.454,391.131
504.147,394.447
503.84,395.868
503.533,399.184
503.239,405.341
502.932,415.762
502.625,433.762
502.318,442.288
502.01,447.498
501.702,454.13
501.395,457.919
501.088,461.708
500.781,464.077
500.474,465.024
500.18,464.077
499.873,449.393
499.566,429.499
499.259,418.604
498.952,412.446
498.644,411.025
498.336,410.078
498.029,409.131
497.722,410.078
497.415,417.183
497.075,425.709
496.768,437.551
496.461,449.866
496.153,461.708
495.846,471.182
495.538,475.918
495.231,477.339
494.924,477.339
494.617,475.918
494.309,464.077
494.016,449.866
493.709,440.867
493.402,433.762
493.094,427.13
492.787,420.025
492.479,410.078
492.172,395.868
491.865,392.079
491.558,385.921
491.25,376.921
490.957,368.395
490.65,359.869
490.343,354.185
490.036,348.975
489.728,344.238
489.42,336.185
489.113,327.659
488.806,322.923
488.499,320.554
488.191,317.712
487.898,315.818
487.591,313.449
487.284,310.607
486.977,308.239
486.669,306.344
486.361,305.87
486.054,305.87
485.747,305.87
485.44,305.87
485.132,305.87
484.793,305.87
484.486,304.923
484.178,303.502
483.871,301.607
483.564,300.186
483.256,294.976
482.949,292.608
482.642,289.292
482.334,286.924
482.027,282.187
481.734,277.45
481.427,272.24
481.12,267.503
480.812,262.766
480.505,259.451
480.197,256.135
479.89,251.872
479.583,247.135
479.275,240.504
478.968,236.715
478.675,235.294
478.368,233.399
478.061,231.978
477.753,229.609
477.446,226.767
477.138,225.82
476.831,225.82
476.524,225.82
476.216,226.767
475.909,230.557
475.57,234.346
475.263,240.03
474.955,245.241
474.648,249.504
474.341,255.661
474.033,265.608
473.726,276.503
473.418,288.345
473.111,297.818
472.804,301.607
472.511,305.87
472.204,313.449
471.896,326.712
471.589,341.87
471.282,357.501
470.974,372.184
470.667,386.395
470.359,399.657
470.052,411.499
469.745,423.341
469.452,433.762
469.145,442.288
468.837,454.13
468.53,466.445
468.223,475.918
467.915,480.655
467.608,483.023
467.301,483.971
466.993,486.339
466.686,487.76
466.393,488.707
466.086,489.181
465.778,488.707
465.471,479.234
465.164,477.339
464.856,474.971
464.549,470.234
464.242,465.024
463.934,460.287
463.627,454.603
463.288,449.866
462.98,444.656
462.673,438.972
462.366,434.235
462.059,429.499
461.751,424.762
461.444,421.92
461.136,417.657
460.829,413.394
460.522,406.762
460.229,401.552
459.921,394.921
459.614,390.658
459.307,385.921
459,383.553
458.692,380.237
458.385,378.816
458.077,374.079
457.77,364.606
457.463,363.658
457.17,362.237
456.862,359.869
456.555,358.922
456.248,358.448
455.941,358.922
455.633,361.29
455.326,363.185
455.018,363.658
454.711,363.658
454.404,363.185
454.064,359.869
453.757,356.08
453.45,350.396
453.143,345.185
452.836,342.817
452.528,339.501
452.22,337.133
451.913,333.817
451.606,330.975
451.299,326.712
451.005,323.87
450.698,320.554
450.391,317.712
450.084,315.344
449.777,312.028
449.469,309.66
449.161,307.292
448.854,305.87
448.547,303.976
448.24,301.607
447.946,299.239
447.639,292.608
447.332,287.871
447.025,285.976
446.718,285.503
446.41,283.608
446.102,279.819
445.795,276.029
445.488,276.029
445.181,275.082
444.888,273.661
444.58,271.293
444.273,269.872
443.966,267.977
443.659,265.608
443.351,263.24
443.043,259.451
442.736,256.135
442.429,253.293
442.122,253.293
441.782,251.872
441.475,249.977
441.168,249.504
440.861,248.556
440.553,247.609
440.245,247.609
439.938,247.609
439.631,248.556
439.324,249.504
439.016,249.977
438.723,259.451
438.416,265.135
438.109,270.345
437.802,271.293
437.494,284.555
437.186,293.081
436.879,301.607
436.572,311.081
436.265,325.291
435.958,337.133
435.664,345.185
435.357,348.975
435.05,350.396
434.743,351.343
434.435,351.343
434.127,350.396
433.82,345.659
433.513,340.922
433.206,337.133
432.899,332.396
432.559,328.607
432.252,323.87
431.945,320.554
431.637,316.765
431.33,312.028
431.022,307.292
430.715,302.555
430.408,292.608
430.101,285.976
429.793,280.766
429.5,276.029
429.193,268.924
428.886,265.135
428.578,260.872
428.271,258.503
427.963,254.714
427.656,249.977
427.349,246.188
427.042,242.872
426.734,240.504
426.441,240.504
426.134,242.399
425.827,244.767
425.519,249.504
425.212,258.503
424.904,271.293
424.597,285.503
424.29,294.029
423.983,298.765
423.675,298.765
423.382,299.239
423.075,299.239
422.768,286.924
422.461,279.819
422.153,273.661
421.845,267.977
421.538,263.24
421.231,258.503
420.924,254.714
420.616,250.925
420.277,247.135
419.97,242.872
419.662,240.03
419.355,235.767
419.048,232.925
418.74,231.03
418.433,228.188
418.126,227.241
417.818,226.767
417.511,225.82
417.218,225.82
416.911,224.399
416.603,223.452
416.296,222.504
415.989,222.504
415.681,221.083
415.374,218.715
415.067,216.347
414.759,216.347
414.452,215.399
414.159,214.926
413.852,213.978
413.545,213.978
413.237,213.978
412.93,213.978
412.622,213.031
412.315,213.031
412.008,213.031
411.7,212.557
411.393,211.61
411.054,209.242
410.746,205.926
410.439,204.505
410.132,204.505
409.825,204.505
409.517,204.031
409.21,204.031
408.902,203.084
408.595,202.137
408.288,199.768
407.995,199.295
407.688,199.295
407.38,198.347
407.073,198.347
406.766,199.295
406.458,199.295
406.151,201.663
405.843,205.452
405.536,213.031
405.229,227.241
404.936,242.399
404.629,260.398
404.321,277.45
404.014,288.345
403.707,289.292
403.399,289.292
403.092,285.503
402.784,274.608
402.477,265.608
402.17,259.451
401.877,254.714
401.57,249.504
401.262,243.82
400.955,240.504
400.648,238.136
400.34,236.715
400.033,235.294
399.726,232.925
399.418,229.609
399.111,224.873
398.772,222.504
398.464,221.083
398.157,219.662
397.85,218.715
397.543,216.347
397.235,212.557
396.927,210.663
396.62,209.242
396.313,208.294
396.006,208.294
395.713,207.821
395.405,207.821
395.098,206.873
394.791,204.505
394.484,204.031
394.176,204.031
393.868,203.084
393.561,201.663
393.254,201.663
392.947,200.716
392.654,199.768
392.346,199.295
392.039,199.295
391.732,199.295
391.425,199.295
391.117,199.295
390.81,199.295
390.502,198.347
390.195,198.347
389.888,198.347
389.548,197.4
389.241,196.926
388.934,195.979
388.627,195.979
388.319,195.979
388.011,195.979
387.704,195.979
387.397,195.979
387.09,195.031
386.783,193.611
386.489,192.189
386.182,190.295
385.875,189.821
385.568,188.874
385.26,187.926
384.953,186.505
384.645,185.558
384.338,184.137
384.031,183.19
383.724,183.19
383.43,183.19
383.123,182.716
382.816,182.716
382.509,182.716
382.202,182.716
381.894,182.716
381.586,182.716
381.279,182.716
380.972,182.716
380.665,182.716
380.372,182.716
380.064,182.716
379.757,181.769
379.45,181.769
379.143,181.769
378.835,181.769
378.527,180.348
378.22,178.927
377.913,177.979
377.606,176.558
377.266,175.611
376.959,175.611
376.652,175.611
376.345,175.611
376.037,175.611
375.729,176.558
375.422,176.558
375.115,176.558
374.808,177.979
374.5,179.4
374.207,181.769
373.9,185.084
373.593,185.558
373.286,185.558
372.978,185.084
372.67,185.084
372.363,185.084
372.056,185.084
371.749,186.505
371.441,187.453
371.148,187.926
370.841,188.874
370.534,189.821
370.227,188.874
369.919,183.19
369.611,180.348
369.304,178.927
368.997,177.032
368.69,176.558
368.383,176.558
368.043,176.558
367.736,176.558
367.429,179.4
367.121,179.4
366.814,179.4
366.506,177.979
366.199,177.979
365.892,177.979
365.584,177.032
365.277,177.032
364.984,177.032
364.677,177.979
364.37,177.979
364.062,179.4
363.755,180.821
363.447,182.716
363.14,182.716
362.833,182.716
362.526,182.716
362.218,182.716
361.925,182.716
361.618,182.716
361.311,184.137
361.003,184.137
360.696,183.19
360.388,183.19
360.081,182.716
359.774,182.716
359.467,182.716
359.159,183.19
358.82,183.19
358.513,184.137
358.205,185.084
357.898,185.084
357.591,184.137
357.283,183.19
356.976,182.716
356.668,182.716
356.361,182.716
356.054,182.716
355.761,180.821
355.454,180.821
355.146,180.821
354.839,180.821
354.532,180.821
354.224,182.716
353.917,182.716
353.61,182.716
353.302,181.769
352.995,181.769
352.702,180.348
352.395,179.4
352.087,179.4
351.78,180.348
351.473,180.348
351.165,179.4
350.858,179.4
350.551,180.348
350.243,180.348
349.936,180.348
349.643,180.348
349.336,179.4
349.029,178.927
348.721,178.927
348.414,178.927
348.106,180.348
347.799,182.716
347.492,182.716
347.184,182.716
346.877,180.821
346.538,178.927
346.23,178.927
345.923,177.032
345.616,176.558
345.309,175.611
345.001,174.664
344.694,174.664
344.386,174.664
344.079,174.19
343.772,173.243
343.479,171.822
343.172,171.822
342.864,171.822
342.557,171.822
342.25,172.295
341.942,172.295
341.635,171.822
341.327,170.874
341.02,169.927
340.713,169.927
340.42,170.874
340.112,170.874
339.805,170.874
339.498,170.874
339.191,170.874
338.883,169.927
338.576,169.927
338.268,169.453
337.961,169.453
337.654,169.453
337.314,168.506
337.007,168.506
336.7,167.559
336.393,167.559
336.086,167.559
335.778,167.085
335.47,167.085
335.163,166.138
334.856,165.19
334.549,164.717
334.255,163.769
333.948,163.769
333.641,162.348
333.334,162.348
333.027,162.822
332.719,164.717
332.411,165.19
332.104,167.559
331.797,169.927
331.49,173.243
331.197,177.979
330.889,182.716
330.582,189.821
330.275,196.926
329.968,205.926
329.66,218.715
329.352,231.978
329.045,247.609
328.738,270.345
328.431,289.292
328.138,297.818
327.83,306.344
327.523,315.344
327.216,330.028
326.909,351.343
326.601,351.817
326.293,351.343
325.986,345.659
325.679,338.08
325.372,327.659
325.032,318.186
324.725,308.239
324.418,287.871
324.111,277.45
323.803,268.924
323.495,263.24
323.188,253.767
322.881,247.135
322.574,241.451
322.267,236.715
321.973,233.399
321.666,231.03
321.359,228.188
321.052,225.82
320.745,223.452
320.436,222.031
320.129,221.083
319.822,221.083
319.515,220.136
319.208,218.715
318.914,217.294
318.607,216.347
318.3,215.399
317.993,213.978
317.686,213.978
317.378,214.926
317.07,215.399
316.763,215.399
316.456,217.294
316.149,218.715
315.809,219.662
315.502,221.083
315.195,222.504
314.887,223.452
314.58,223.452
314.272,224.399
313.965,226.767
313.658,227.241
313.351,228.188
313.043,228.662
312.75,231.03
312.443,231.03
312.136,232.925
311.828,234.346
311.521,237.662
311.213,240.03
310.906,241.451
310.599,242.872
310.292,249.977
309.984,251.872
309.691,253.767
309.384,255.661
309.077,255.661
308.77,256.135
308.462,257.082
308.154,260.872
307.847,265.608
307.54,268.924
307.233,269.872
306.925,269.872
306.632,270.345
306.325,270.345
306.018,270.345
305.711,269.872
305.403,268.924
305.095,267.977
304.788,267.977
304.481,267.503
304.174,266.556
303.866,265.135
303.527,263.24
303.22,260.872
302.912,258.503
302.605,257.082
302.298,253.767
301.99,252.346
301.683,249.977
301.376,248.556
301.068,247.609
300.761,246.188
300.468,245.241
300.161,243.82
299.854,242.399
299.546,240.504
299.239,237.662
298.931,235.767
298.624,234.346
298.317,234.346
298.009,234.346
297.702,233.399
297.409,232.925
297.102,231.978
296.795,229.609
296.487,227.241
296.18,225.82
295.872,222.504
295.565,221.083
295.258,218.715
294.951,215.399
294.643,214.926
294.304,213.031
293.997,210.663
293.689,208.294
293.382,205.452
293.075,202.137
292.767,199.295
292.46,198.347
292.152,197.4
291.845,195.979
291.538,194.558
291.245,193.611
290.938,192.663
290.63,191.242
290.323,189.821
290.016,186.505
289.708,185.558
289.401,184.137
289.093,182.716
288.786,180.821
288.479,180.348
288.186,179.4
287.879,177.032
287.571,175.611
287.264,172.295
286.957,170.874
286.649,169.453
286.342,168.506
286.035,167.559
285.727,167.085
285.42,166.138
285.127,165.19
284.82,164.717
284.512,163.769
284.205,163.769
283.898,163.769
283.59,165.19
283.283,167.085
282.976,169.927
282.668,177.032
282.361,185.084
282.022,195.979
281.714,203.084
281.407,212.557
281.1,228.662
280.793,242.399
280.485,253.293
280.177,260.872
279.87,266.556
279.563,271.293
279.256,273.661
278.963,274.608
278.655,275.082
278.348,274.608
278.041,269.872
277.734,264.187
277.426,258.503
277.119,252.346
276.811,246.188
276.504,241.451
276.197,238.136
275.904,235.294
275.596,231.978
275.289,228.662
274.982,226.767
274.675,224.399
274.367,222.504
274.06,222.031
273.752,221.083
273.445,219.662
273.138,218.715
272.798,217.768
272.491,217.768
272.184,217.768
271.877,218.715
271.57,218.715
271.262,219.662
270.954,222.504
270.647,225.82
270.34,230.557
270.033,232.925
269.739,235.767
269.432,240.03
269.125,244.767
268.818,249.504
268.511,253.293
268.203,254.714
267.895,254.714
267.588,253.767
267.281,250.925
266.974,248.556
266.681,241.451
266.373,238.136
266.066,233.399
265.759,229.609
265.452,225.82
265.144,222.504
264.836,219.662
264.529,217.768
264.222,216.347
263.915,215.399
263.622,215.399
263.314,215.399
263.007,214.926
262.7,214.926
262.393,214.926
262.085,214.926
261.777,217.294
261.47,218.715
261.163,219.662
260.856,222.031
260.516,222.031
260.209,223.452
259.902,227.241
259.595,229.609
259.287,235.294
258.979,238.136
258.672,242.872
258.365,247.609
258.058,252.346
257.75,255.661
257.457,261.819
257.15,266.556
256.843,273.661
256.536,279.819
256.228,284.555
255.92,289.292
255.613,292.608
255.306,297.344
254.999,298.765
254.692,300.186
254.398,302.555
254.091,303.976
253.784,307.292
253.477,311.081
253.169,312.976
252.861,313.449
252.554,314.397
252.247,314.397
251.94,313.449
251.633,312.976
251.293,310.607
250.986,308.239
250.679,306.344
250.371,304.923
250.064,303.502
249.756,300.186
249.449,293.081
249.142,291.66
248.835,290.713
248.527,290.713
248.234,290.713
247.927,290.713
247.62,292.608
247.312,293.081
247.005,294.029
246.697,294.976
246.39,294.976
246.083,297.344
245.776,298.765
245.468,298.765
245.175,299.239
244.868,301.134
244.561,301.607
244.254,302.555
243.946,302.555
243.638,303.502
243.331,305.87
243.024,309.66
242.717,313.449
242.409,315.818
242.116,318.186
241.809,319.133
241.502,321.502
241.195,322.923
240.887,323.87
240.579,325.291
240.272,325.291
239.965,326.238
239.658,326.238
239.35,325.291
239.011,324.344
238.704,322.449
238.396,321.502
238.089,318.186
237.782,315.818
237.474,312.976
237.167,308.713
236.86,302.555
236.552,288.345
236.245,280.766
235.952,272.714
235.645,266.556
235.338,261.819
235.03,259.451
234.723,256.135
234.415,251.872
234.108,248.556
233.801,245.241
233.493,241.451
233.186,239.083
232.893,237.662
232.586,235.767
232.279,235.767
231.971,235.767
231.664,235.767
231.356,235.767
231.049,236.715
230.742,238.136
230.434,241.451
230.127,244.767
229.788,247.135
229.48,247.609
229.173,250.925
228.866,253.767
228.559,257.082
228.251,259.451
227.944,261.819
227.636,265.135
227.329,268.924
227.022,273.661
226.729,279.819
226.422,286.924
226.114,292.608
225.807,297.344
225.5,297.818
225.192,299.239
224.885,303.502
224.577,312.028
224.27,319.133
223.963,325.291
223.67,332.396
223.363,338.08
223.055,343.29
222.748,348.975
222.441,352.764
222.133,356.553
221.826,360.816
221.518,361.29
221.211,365.553
220.904,369.342
220.611,370.763
220.304,372.184
219.996,373.132
219.689,374.079
219.382,374.079
219.074,374.079
218.767,374.079
218.46,374.079
218.152,374.553
217.845,374.553
217.506,375.5
217.198,375.5
216.891,375.5
216.584,374.553
216.277,374.079
215.969,373.132
215.661,372.184
215.354,372.184
215.047,371.711
214.74,370.763
214.447,369.342
214.139,366.027
213.832,363.658
213.525,361.29
213.218,358.922
212.91,356.553
212.602,356.553
212.295,355.132
211.988,351.817
211.681,347.08
211.388,346.606
211.08,344.238
210.773,340.448
210.466,337.133
210.159,334.764
209.851,331.449
209.544,328.607
209.236,326.712
208.929,323.87
208.622,321.502
208.282,319.133
207.975,315.818
207.668,312.976
207.361,308.713
207.053,305.87
206.745,301.607
206.438,300.186
206.131,292.608
205.824,287.871
205.517,284.555
205.223,280.766
204.916,276.503
204.609,275.082
204.302,271.293
203.995,269.872
203.686,267.503
203.379,263.24
203.072,260.872
202.765,258.03
202.458,253.767
202.164,251.872
201.857,249.504
201.55,246.188
201.243,244.767
200.936,242.872
200.628,242.399
200.32,240.504
200.013,238.136
199.706,234.346
199.399,231.03
199.105,230.557
198.798,228.188
198.491,224.399
198.184,223.452
197.877,222.504
197.569,221.083
197.261,218.715
196.954,215.399
196.647,212.557
196.34,210.189
196,210.189
195.693,209.242
195.386,209.242
195.079,209.242
194.771,208.294
194.463,207.821
194.156,207.821
193.849,205.926
193.542,204.505
193.234,204.031
192.941,203.084
192.634,203.084
192.327,201.663
192.02,201.663
191.712,199.768
191.404,199.295
191.097,199.295
190.79,198.347
190.483,197.4
190.175,195.031
189.882,194.558
189.575,193.611
189.268,192.663
188.961,192.663
188.653,192.663
188.345,192.663
188.038,192.663
187.731,193.611
187.424,193.611
187.117,193.611
186.777,195.031
186.47,195.979
186.163,196.926
185.855,197.4
185.548,199.295
185.24,200.716
184.933,202.137
184.626,204.031
184.318,205.452
184.011,208.294
183.718,210.663
183.411,211.61
183.104,213.978
182.796,214.926
182.489,217.294
182.181,219.662
181.874,222.504
181.567,224.399
181.259,227.241
180.952,229.609
180.659,232.925
180.352,233.399
180.045,233.399
179.737,235.294
179.43,238.136
179.122,241.451
178.815,243.82
178.508,249.504
178.201,251.872
177.893,253.293
177.6,253.293
177.293,256.135
176.986,258.503
176.678,261.819
176.371,264.187
176.063,265.135
175.756,265.608
175.449,266.556
175.142,269.872
174.834,272.24
174.495,275.082
174.188,277.45
173.88,278.871
173.573,279.819
173.266,279.819
172.958,279.819
172.651,280.766
172.344,283.608
172.036,286.924
171.729,288.345
171.436,288.345
171.129,288.345
170.821,289.292
170.514,290.239
170.207,290.239
169.899,290.713
169.592,292.608
169.285,294.029
168.977,296.397
168.67,297.344
168.377,297.344
168.07,298.765
167.763,298.765
167.455,298.765
167.148,299.239
166.84,300.186
166.533,303.502
166.226,307.292
165.918,309.66
165.611,312.976
165.272,315.818
164.964,318.186
164.657,321.502
164.35,325.291
164.043,329.08
163.735,333.343
163.428,337.133
163.12,340.448
162.813,342.817
162.506,345.659
162.213,348.975
161.905,353.711
161.598,357.501
161.291,358.922
160.984,360.816
160.676,362.237
160.369,362.237
160.061,363.185
159.754,363.185
159.447,363.185
159.154,363.185
158.847,362.237
158.539,361.29
158.232,359.869
157.925,356.553
157.617,356.08
157.31,353.711
157.002,349.448
156.695,346.606
156.388,341.87
156.048,339.501
155.741,334.764
155.434,330.975
155.127,327.659
154.82,325.291
154.512,322.449
154.204,321.502
153.897,319.133
153.59,318.186
153.283,315.818
152.99,309.66
152.682,307.292
152.375,303.976
152.068,301.607
151.761,293.081
151.453,290.239
151.145,289.292
150.838,288.345
150.531,285.976
150.224,284.555
149.931,282.187
149.623,279.819
149.316,276.029
149.009,274.608
148.702,272.24
148.394,272.24
148.086,269.872
147.779,265.608
147.472,265.135
147.165,263.24
146.872,262.766
146.564,261.819
146.257,260.872
145.95,259.451
145.643,258.03
145.335,257.082
145.027,256.135
144.72,254.714
144.413,249.977
144.106,247.609
143.766,247.135
143.459,247.609
143.152,248.556
142.845,249.504
142.537,249.977
142.229,249.977
141.922,250.925
141.615,251.872
141.308,251.872
141.001,251.872
140.707,251.872
140.4,251.872
140.093,252.346
139.786,253.293
139.478,254.714
139.17,256.135
138.863,259.451
138.556,262.766
138.249,265.135
137.942,266.556
137.648,269.872
137.341,271.293
137.034,273.661
136.727,274.608
136.42,275.082
136.111,276.029
135.804,276.029
135.497,276.029
135.19,276.503
134.883,277.45
134.543,277.45
134.236,277.45
133.929,277.45
133.621,276.503
133.314,276.503
133.006,276.029
132.699,275.082
132.392,274.608
132.085,274.608
131.777,272.714
131.484,272.24
131.177,271.293
130.87,270.345
130.562,269.872
130.255,269.872
129.947,269.872
129.64,269.872
129.333,269.872
129.026,269.872
128.718,269.872
128.425,269.872
128.118,269.872
127.811,269.872
127.504,269.872
127.196,270.345
126.888,270.345
126.581,270.345
126.274,270.345
125.967,270.345
125.659,270.345
125.366,269.872
125.059,269.872
124.752,267.977
124.445,267.503
124.137,265.608
123.829,264.187
123.522,264.187
123.215,263.24
122.908,262.766
122.6,262.766
122.261,260.872
121.954,260.398
121.647,258.03
121.339,258.03
121.032,257.082
120.724,257.082
120.417,257.082
120.11,257.082
119.802,257.082
119.495,256.135
119.202,255.661
118.895,253.767
118.588,253.767
118.28,253.293
117.973,253.293
117.665,252.346
117.358,251.872
117.051,250.925
116.743,250.925
116.436,249.977
116.143,249.977
115.836,249.504
115.529,249.504
115.221,249.504
114.914,249.504
114.606,249.504
114.299,249.504
113.992,249.977
113.684,249.977
113.377,249.977
113.038,249.504
112.731,249.504
112.423,249.504
112.116,249.504
111.809,249.504
111.501,248.556
111.194,248.556
110.886,248.556
110.579,248.556
110.272,248.556
109.979,248.556
109.672,249.504
109.364,249.977
109.057,249.977
108.75,249.977
108.442,249.977
108.135,250.925
107.827,250.925
107.52,250.925
107.213,250.925
106.92,250.925
106.613,251.872
106.305,252.346
105.998,252.346
105.691,252.346
105.383,252.346
105.076,252.346
104.769,252.346
104.461,252.346
104.154,253.293
103.861,253.767
103.554,254.714
103.246,256.135
102.939,256.135
102.632,256.135
102.324,256.135
102.017,257.082
101.71,257.082
101.402,258.03
101.095,258.03
100.756,258.03
100.448,258.03
100.141,258.03
99.8339,258.503
99.5267,258.503
99.2187,258.503
98.9115,258.503
98.6043,258.503
98.2971,259.451
97.9899,259.451
97.6967,260.398
97.3894,260.398
97.0822,260.872
96.775,260.872
96.4678,261.819
96.1598,261.819
95.8525,261.819
95.5453,262.766
95.2381,261.819" />
</g>
</svg>
