<?xml version="1.0"?>
<svg version="1.1"
     xmlns="http://www.w3.org/2000/svg"
     xmlns:xlink="http://www.w3.org/1999/xlink"
     viewBox="0 0 800 600">
<g>
<text fill="#000000" font-family="sans-serif" font-size="19.0476" text-anchor="start" x="4.7619" y="591.429" >
NIST Chemistry WebBook (https://webbook.nist.gov/chemistry)
</text>
<polyline stroke="#000000" stroke-width="1.19048" fill="none" points="95.2381,514.286
742.857,514.286
742.857,66.6667
95.2381,66.6667
95.2381,514.286" />
<text fill="#000000" font-family="sans-serif" font-size="19.0476" text-anchor="middle" x="419.048" y="24.7619" >
1-PHENYL-1,2-PROPANE-DIONE-2-OXIME
</text>
<text fill="#000000" font-family="sans-serif" font-size="19.0476" text-anchor="middle" x="419.048" y="53.3333" >
INFRARED SPECTRUM
</text>
<text fill="#000000" font-family="sans-serif" font-size="19.0476" text-anchor="middle" x="419.048" y="558.095" >
Micrometers
</text>
<text fill="#000000" font-family="sans-serif" font-size="19.0476" text-anchor="middle" transform="translate(20,290.476) rotate(270)" x="0" y="0" >
Transmitance
</text>
<text fill="#000000" font-family="sans-serif" font-size="19.0476" text-anchor="middle" x="650.81" y="534.286" >
4
</text>
<line stroke="#000000" stroke-width="1.19048" x1="650.81" y1="514.286" x2="650.81" y2="504.762" />
<text fill="#000000" font-family="sans-serif" font-size="19.0476" text-anchor="middle" x="465.513" y="534.286" >
8
</text>
<line stroke="#000000" stroke-width="1.19048" x1="465.513" y1="514.286" x2="465.513" y2="504.762" />
<text fill="#000000" font-family="sans-serif" font-size="19.0476" text-anchor="middle" x="280.215" y="534.286" >
12
</text>
<line stroke="#000000" stroke-width="1.19048" x1="280.215" y1="514.286" x2="280.215" y2="504.762" />
<text fill="#000000" font-family="sans-serif" font-size="19.0476" text-anchor="middle" x="94.9171" y="534.286" >
16
</text>
<line stroke="#000000" stroke-width="1.19048" x1="94.9171" y1="514.286" x2="94.9171" y2="504.762" />
<line stroke="#000000" stroke-width="1.19048" x1="697.135" y1="514.286" x2="697.135" y2="509.524" />
<line stroke="#000000" stroke-width="1.19048" x1="650.81" y1="514.286" x2="650.81" y2="509.524" />
<line stroke="#000000" stroke-width="1.19048" x1="604.486" y1="514.286" x2="604.486" y2="509.524" />
<line stroke="#000000" stroke-width="1.19048" x1="558.162" y1="514.286" x2="558.162" y2="509.524" />
<line stroke="#000000" stroke-width="1.19048" x1="511.837" y1="514.286" x2="511.837" y2="509.524" />
<line stroke="#000000" stroke-width="1.19048" x1="465.513" y1="514.286" x2="465.513" y2="509.524" />
<line stroke="#000000" stroke-width="1.19048" x1="419.188" y1="514.286" x2="419.188" y2="509.524" />
<line stroke="#000000" stroke-width="1.19048" x1="372.864" y1="514.286" x2="372.864" y2="509.524" />
<line stroke="#000000" stroke-width="1.19048" x1="326.539" y1="514.286" x2="326.539" y2="509.524" />
<line stroke="#000000" stroke-width="1.19048" x1="280.215" y1="514.286" x2="280.215" y2="509.524" />
<line stroke="#000000" stroke-width="1.19048" x1="233.89" y1="514.286" x2="233.89" y2="509.524" />
<line stroke="#000000" stroke-width="1.19048" x1="187.566" y1="514.286" x2="187.566" y2="509.524" />
<line stroke="#000000" stroke-width="1.19048" x1="141.242" y1="514.286" x2="141.242" y2="509.524" />
<line stroke="#000000" stroke-width="1.19048" x1="94.9171" y1="514.286" x2="94.9171" y2="509.524" />
<text fill="#000000" font-family="sans-serif" font-size="19.0476" text-anchor="end" x="90.4762" y="445.089" >
0.2
</text>
<line stroke="#000000" stroke-width="1.19048" x1="95.2381" y1="440.804" x2="104.762" y2="440.804" />
<text fill="#000000" font-family="sans-serif" font-size="19.0476" text-anchor="end" x="90.4762" y="341.594" >
0.4
</text>
<line stroke="#000000" stroke-width="1.19048" x1="95.2381" y1="337.308" x2="104.762" y2="337.308" />
<text fill="#000000" font-family="sans-serif" font-size="19.0476" text-anchor="end" x="90.4762" y="238.098" >
0.6
</text>
<line stroke="#000000" stroke-width="1.19048" x1="95.2381" y1="233.812" x2="104.762" y2="233.812" />
<text fill="#000000" font-family="sans-serif" font-size="19.0476" text-anchor="end" x="90.4762" y="134.602" >
0.8
</text>
<line stroke="#000000" stroke-width="1.19048" x1="95.2381" y1="130.317" x2="104.762" y2="130.317" />
<line stroke="#000000" stroke-width="1.19048" x1="95.2381" y1="492.552" x2="100" y2="492.552" />
<line stroke="#000000" stroke-width="1.19048" x1="95.2381" y1="466.678" x2="100" y2="466.678" />
<line stroke="#000000" stroke-width="1.19048" x1="95.2381" y1="440.804" x2="100" y2="440.804" />
<line stroke="#000000" stroke-width="1.19048" x1="95.2381" y1="414.93" x2="100" y2="414.93" />
<line stroke="#000000" stroke-width="1.19048" x1="95.2381" y1="389.056" x2="100" y2="389.056" />
<line stroke="#000000" stroke-width="1.19048" x1="95.2381" y1="363.182" x2="100" y2="363.182" />
<line stroke="#000000" stroke-width="1.19048" x1="95.2381" y1="337.308" x2="100" y2="337.308" />
<line stroke="#000000" stroke-width="1.19048" x1="95.2381" y1="311.434" x2="100" y2="311.434" />
<line stroke="#000000" stroke-width="1.19048" x1="95.2381" y1="285.56" x2="100" y2="285.56" />
<line stroke="#000000" stroke-width="1.19048" x1="95.2381" y1="259.686" x2="100" y2="259.686" />
<line stroke="#000000" stroke-width="1.19048" x1="95.2381" y1="233.812" x2="100" y2="233.812" />
<line stroke="#000000" stroke-width="1.19048" x1="95.2381" y1="207.938" x2="100" y2="207.938" />
<line stroke="#000000" stroke-width="1.19048" x1="95.2381" y1="182.064" x2="100" y2="182.064" />
<line stroke="#000000" stroke-width="1.19048" x1="95.2381" y1="156.19" x2="100" y2="156.19" />
<line stroke="#000000" stroke-width="1.19048" x1="95.2381" y1="130.316" x2="100" y2="130.316" />
<line stroke="#000000" stroke-width="1.19048" x1="95.2381" y1="104.443" x2="100" y2="104.443" />
<line stroke="#000000" stroke-width="1.19048" x1="95.2381" y1="78.5686" x2="100" y2="78.5686" />
<polyline stroke="#FF0000" stroke-width="1.19048" fill="none" points="742.857,338.343
742.55,337.308
742.243,336.791
741.935,336.791
741.628,334.721
741.32,334.721
741.013,334.203
740.706,333.168
740.399,333.168
740.091,332.133
739.753,332.133
739.446,331.616
739.139,330.581
738.832,329.028
738.525,327.993
738.217,327.993
737.909,326.958
737.602,326.958
737.295,326.958
736.988,326.958
736.696,326.441
736.389,326.441
736.082,326.441
735.774,326.441
735.467,326.441
735.159,326.441
734.852,326.441
734.545,326.441
734.237,326.441
733.93,327.993
733.639,327.993
733.331,327.993
733.024,327.993
732.717,327.993
732.41,326.958
732.102,325.406
731.795,323.854
731.487,322.819
731.18,322.819
730.873,321.784
730.535,321.784
730.228,320.231
729.92,318.679
729.613,316.609
729.306,315.056
728.998,313.504
728.691,312.469
728.384,312.469
728.076,312.469
727.769,312.469
727.477,312.469
727.17,312.469
726.863,312.469
726.556,312.469
726.249,312.469
725.941,312.469
725.633,311.434
725.326,309.882
725.019,309.882
724.712,308.847
724.42,308.847
724.113,307.294
723.806,306.259
723.498,306.259
723.191,306.259
722.883,306.259
722.576,306.259
722.269,306.259
721.962,305.742
721.654,303.672
721.363,302.119
721.055,301.085
720.748,300.567
720.441,299.532
720.134,298.497
719.826,297.98
719.519,296.945
719.211,295.91
718.904,295.392
718.597,295.392
718.259,295.392
717.952,294.357
717.644,294.357
717.337,293.322
717.03,292.805
716.722,292.805
716.415,292.805
716.108,291.77
715.8,290.735
715.493,290.217
715.201,289.182
714.894,288.148
714.587,288.148
714.28,285.56
713.973,285.043
713.665,285.043
713.357,284.008
713.05,282.455
712.743,281.42
712.436,280.903
712.144,280.903
711.837,280.903
711.53,280.903
711.222,280.903
710.915,280.903
710.607,280.903
710.3,279.868
709.993,279.868
709.686,278.833
709.378,278.833
709.04,277.281
708.733,276.246
708.426,276.246
708.119,276.246
707.811,275.728
707.503,275.728
707.196,275.728
706.889,275.728
706.582,275.728
706.275,276.246
705.983,276.246
705.676,276.246
705.368,277.281
705.061,277.281
704.754,278.833
704.446,279.868
704.139,280.903
703.832,282.455
703.524,285.56
703.217,286.595
702.925,290.217
702.618,293.322
702.311,295.91
702.004,298.497
701.697,301.085
701.389,303.672
701.081,308.847
700.774,313.504
700.467,317.644
700.16,321.784
699.822,325.406
699.515,329.546
699.207,334.721
698.9,339.895
698.593,346.105
698.285,353.867
697.978,356.455
697.67,363.182
697.363,371.979
697.056,380.259
696.764,389.056
696.457,397.336
696.15,407.168
695.843,415.447
695.535,425.279
695.228,433.559
694.92,442.356
694.613,446.496
694.306,450.118
693.999,453.223
693.707,457.881
693.4,459.433
693.092,459.433
692.785,458.398
692.478,456.846
692.17,455.293
691.863,452.706
691.556,449.083
691.248,445.461
690.941,441.321
690.603,437.181
690.296,433.042
689.989,425.279
689.681,418.035
689.374,412.342
689.066,408.72
688.759,406.133
688.452,406.133
688.145,405.098
687.837,405.098
687.546,404.58
687.239,404.58
686.931,403.545
686.624,403.545
686.317,403.545
686.009,402.51
685.702,402.51
685.394,404.58
685.087,406.133
684.78,407.168
684.488,406.133
684.181,400.958
683.874,394.748
683.567,392.161
683.259,392.161
682.952,392.161
682.644,393.196
682.337,398.37
682.03,412.342
681.723,429.419
681.385,448.048
681.077,466.16
680.77,483.754
680.463,497.209
680.156,508.593
679.848,513.768
679.541,513.768
679.233,513.768
678.926,514.286
678.619,514.286
678.327,514.286
678.02,514.286
677.713,513.768
677.406,511.181
677.098,506.524
676.79,503.419
676.483,497.209
676.176,493.069
675.869,488.929
675.561,486.342
675.27,485.307
674.963,486.342
674.655,487.894
674.348,488.929
674.041,487.894
673.733,476.51
673.426,463.055
673.119,441.321
672.811,415.447
672.504,384.916
672.166,355.42
671.859,325.406
671.552,304.707
671.244,290.735
670.937,283.49
670.629,278.315
670.322,273.141
670.015,268.483
669.708,265.896
669.4,263.309
669.109,260.204
668.801,256.581
668.494,252.959
668.187,251.407
667.88,247.267
667.572,245.197
667.265,244.679
666.957,244.679
666.65,244.679
666.343,244.679
666.051,244.679
665.744,244.679
665.437,244.679
665.13,244.679
664.822,243.644
664.514,242.609
664.207,239.505
663.9,235.882
663.593,234.33
663.286,233.295
662.947,232.777
662.64,232.777
662.333,234.33
662.026,234.33
661.719,234.847
661.411,234.847
661.103,234.33
660.796,232.777
660.489,230.19
660.182,228.12
659.89,227.603
659.583,226.568
659.276,225.015
658.968,223.98
658.661,223.98
658.353,222.428
658.046,220.358
657.739,218.805
657.432,218.805
657.124,217.77
656.833,217.77
656.525,217.253
656.218,217.253
655.911,215.183
655.604,215.183
655.296,213.631
654.989,212.596
654.681,210.008
654.374,208.456
654.067,207.421
653.729,207.421
653.422,208.456
653.114,208.456
652.807,207.421
652.5,206.903
652.192,206.903
651.885,205.868
651.578,205.868
651.27,204.316
650.963,203.281
650.672,202.246
650.364,201.729
650.057,201.729
649.75,201.729
649.443,201.729
649.135,202.246
648.827,203.281
648.52,203.281
648.213,202.246
647.906,202.246
647.614,201.729
647.307,200.694
647,200.694
646.692,199.659
646.385,199.659
646.077,199.141
645.77,197.071
645.463,194.484
645.156,192.931
644.848,192.931
644.557,191.897
644.249,191.897
643.942,191.897
643.635,191.379
643.328,191.379
643.02,190.344
642.713,190.344
642.405,189.309
642.098,189.309
641.791,189.309
641.453,188.792
641.146,188.792
640.839,188.792
640.531,187.757
640.224,187.757
639.916,187.757
639.609,187.757
639.302,188.792
638.994,190.344
638.687,191.379
638.396,193.966
638.088,194.484
637.781,194.484
637.474,193.966
637.167,193.966
636.859,192.931
636.551,192.931
636.244,191.897
635.937,191.379
635.63,188.792
635.338,187.757
635.031,186.722
634.724,185.169
634.416,182.582
634.109,182.064
633.801,179.994
633.494,178.442
633.187,174.82
632.88,172.232
632.572,169.127
632.234,166.54
631.927,165.505
631.62,164.47
631.313,163.953
631.005,163.953
630.698,162.918
630.39,162.918
630.083,162.918
629.776,162.918
629.469,162.918
629.177,162.918
628.87,162.918
628.562,163.953
628.255,163.953
627.948,163.953
627.64,163.953
627.333,162.918
627.026,161.883
626.718,161.365
626.411,161.365
626.12,160.33
625.812,159.295
625.505,157.743
625.198,156.708
624.891,156.19
624.583,155.156
624.276,154.121
623.968,154.121
623.661,153.603
623.354,153.603
623.016,152.568
622.709,152.568
622.401,152.568
622.094,151.533
621.787,151.533
621.479,151.533
621.172,151.016
620.865,151.016
620.557,149.981
620.25,149.981
619.958,148.946
619.651,148.946
619.344,148.428
619.037,148.428
618.729,147.393
618.422,145.841
618.114,143.771
617.807,141.184
617.5,140.666
617.193,139.631
616.901,139.631
616.594,138.596
616.286,138.596
615.979,138.079
615.672,138.079
615.364,137.044
615.057,137.044
614.75,136.009
614.443,135.491
614.135,134.456
613.797,134.456
613.49,133.421
613.183,132.904
612.876,132.904
612.568,131.869
612.26,130.834
611.953,130.834
611.646,130.834
611.339,130.317
611.032,130.317
610.74,129.282
610.433,129.282
610.125,129.282
609.818,129.282
609.511,129.282
609.203,129.282
608.896,129.282
608.589,128.764
608.281,127.729
607.974,126.694
607.682,126.694
607.375,126.177
607.068,126.177
606.761,125.142
606.454,124.107
606.146,123.589
605.838,122.554
605.531,121.002
605.224,121.002
604.917,121.002
604.579,121.002
604.271,119.967
603.964,119.967
603.657,119.967
603.35,119.967
603.042,119.967
602.735,119.967
602.427,119.967
602.12,119.967
601.813,119.967
601.521,126.177
601.214,130.834
600.907,131.869
600.6,131.869
600.292,131.869
599.984,130.834
599.677,129.282
599.37,129.282
599.063,128.764
598.756,128.764
598.464,129.282
598.157,129.282
597.849,129.282
597.542,129.282
597.235,128.764
596.927,127.729
596.62,125.142
596.313,118.415
596.005,115.827
595.698,115.827
595.36,113.757
595.053,112.205
594.746,110.652
594.438,110.652
594.131,111.17
593.823,113.24
593.516,113.757
593.209,114.792
592.902,115.827
592.594,117.38
592.303,118.415
591.995,118.932
591.688,119.967
591.381,121.002
591.074,121.002
590.766,121.002
590.459,119.967
590.151,113.24
589.844,110.652
589.537,109.617
589.245,107.03
588.938,105.478
588.631,103.408
588.324,100.303
588.016,98.2329
587.708,98.2329
587.401,97.7154
587.094,97.7154
586.787,95.6455
586.48,95.6455
586.142,94.093
585.834,92.5406
585.527,90.4707
585.22,88.9182
584.913,88.9182
584.605,88.9182
584.298,88.9182
583.99,88.9182
583.683,89.9532
583.376,89.9532
583.084,89.9532
582.777,89.9532
582.47,90.4707
582.162,91.5056
581.855,92.5406
581.547,92.5406
581.24,96.6804
580.933,97.7154
580.626,97.7154
580.318,97.7154
580.027,96.6804
579.719,93.0581
579.412,87.8833
579.105,87.3658
578.798,86.3309
578.49,86.3309
578.183,85.2959
577.875,84.7784
577.568,84.7784
577.261,84.7784
576.923,84.7784
576.616,84.7784
576.309,85.2959
576.001,87.3658
575.694,87.8833
575.386,88.9182
575.079,88.9182
574.772,88.9182
574.464,88.9182
574.157,88.9182
573.866,88.9182
573.558,87.3658
573.251,84.7784
572.944,82.7085
572.637,81.1561
572.329,79.6036
572.021,78.5687
571.714,78.0512
571.407,78.0512
571.1,78.0512
570.808,78.0512
570.501,78.0512
570.194,75.9813
569.886,75.9813
569.579,75.4638
569.271,73.3939
568.964,73.3939
568.657,73.3939
568.35,73.3939
568.042,73.3939
567.751,73.3939
567.443,73.3939
567.136,73.3939
566.829,74.4289
566.522,78.0512
566.214,78.5687
565.907,78.5687
565.599,73.3939
565.292,66.6667
564.985,66.6667
564.647,70.289
564.34,73.3939
564.033,74.4289
563.725,77.0162
563.418,78.0512
563.11,79.6036
562.803,80.1211
562.496,80.1211
562.189,82.191
561.881,86.3309
561.59,94.093
561.282,101.855
560.975,109.617
560.668,121.002
560.361,140.666
560.053,167.058
559.746,198.106
559.438,229.155
559.131,261.756
558.824,298.497
558.532,367.322
558.225,443.909
557.918,460.468
557.61,460.985
557.303,459.433
556.995,450.636
556.688,443.909
556.381,435.629
556.074,430.454
555.766,425.797
555.428,420.622
555.121,413.895
554.814,403.545
554.507,389.056
554.2,369.392
553.892,358.007
553.584,332.133
553.277,304.707
552.97,286.595
552.663,276.246
552.371,269.518
552.064,264.344
551.757,258.134
551.449,247.267
551.142,244.679
550.834,236.917
550.527,228.12
550.22,215.183
549.913,204.833
549.605,197.071
549.314,194.484
549.006,194.484
548.699,198.106
548.392,217.77
548.085,260.721
547.777,303.154
547.47,303.672
547.162,302.119
546.855,284.008
546.548,258.134
546.21,234.847
545.903,220.358
545.595,203.281
545.288,200.694
544.981,200.694
544.673,202.246
544.366,207.421
544.059,208.456
543.751,207.421
543.444,203.281
543.152,199.141
542.845,192.931
542.538,185.169
542.231,182.064
541.924,177.407
541.616,176.89
541.308,175.855
541.001,175.855
540.694,174.82
540.387,174.302
540.095,173.267
539.788,167.058
539.481,159.295
539.173,156.19
538.866,153.603
538.558,151.533
538.251,151.533
537.944,154.121
537.637,158.778
537.329,159.295
536.991,159.295
536.684,158.778
536.377,156.19
536.07,153.603
535.762,151.533
535.454,148.946
535.147,145.841
534.84,145.841
534.533,145.841
534.226,146.358
533.934,146.358
533.627,148.428
533.319,149.981
533.012,151.016
532.705,151.016
532.397,151.533
532.09,151.016
531.783,149.981
531.475,149.981
531.168,149.981
530.876,149.981
530.569,149.981
530.262,153.603
529.955,156.708
529.648,160.33
529.34,161.365
529.032,161.365
528.725,161.365
528.418,164.47
528.111,165.505
527.773,168.092
527.466,171.715
527.158,173.267
526.851,177.407
526.544,182.064
526.236,187.757
525.929,194.484
525.621,201.729
525.314,210.008
525.007,218.805
524.715,228.12
524.408,238.47
524.101,247.784
523.794,258.134
523.486,269.518
523.179,279.868
522.871,290.735
522.564,312.469
522.257,346.105
521.95,400.958
521.658,419.07
521.351,428.384
521.043,435.629
520.736,446.496
520.429,448.048
520.121,448.048
519.814,449.083
519.507,449.083
519.199,450.118
518.892,450.118
518.554,451.671
518.247,455.293
517.94,455.811
517.633,455.293
517.325,451.671
517.017,447.531
516.71,440.804
516.403,430.454
516.096,420.105
515.788,409.755
515.497,401.993
515.19,392.161
514.882,381.294
514.575,369.909
514.268,356.972
513.96,345.07
513.653,334.721
513.346,324.371
513.038,317.644
512.731,313.504
512.439,306.259
512.132,301.085
511.825,296.945
511.518,293.322
511.21,290.735
510.903,289.182
510.595,287.63
510.288,285.56
509.981,283.49
509.674,280.903
509.336,274.693
509.028,270.553
508.721,268.483
508.414,266.931
508.107,264.344
507.799,261.756
507.492,260.204
507.184,259.169
506.877,256.581
506.57,253.994
506.278,250.372
505.971,248.819
505.664,247.267
505.357,245.197
505.049,244.679
504.741,242.609
504.434,240.022
504.127,235.882
503.82,230.707
503.512,230.19
503.221,231.742
502.914,235.882
502.606,241.057
502.299,246.232
501.992,258.134
501.684,272.106
501.377,285.043
501.07,295.91
500.762,308.847
500.455,311.434
500.163,316.609
499.856,319.196
499.549,320.231
499.242,319.196
498.934,308.329
498.627,303.672
498.319,303.672
498.012,306.259
497.705,336.791
497.398,350.245
497.06,360.595
496.752,361.63
496.445,359.56
496.138,325.406
495.831,295.91
495.523,269.518
495.216,255.546
494.908,247.784
494.601,241.057
494.294,235.882
494.002,230.707
493.695,226.568
493.388,222.428
493.081,219.84
492.773,217.253
492.465,215.183
492.158,213.631
491.851,213.631
491.544,213.631
491.237,213.631
490.945,213.631
490.638,216.218
490.33,217.77
490.023,219.84
489.716,222.428
489.408,225.533
489.101,231.742
488.794,241.057
488.486,260.204
488.179,278.833
487.841,303.672
487.534,326.441
487.227,344.035
486.919,354.385
486.612,362.147
486.304,369.392
485.997,369.909
485.69,367.322
485.383,356.972
485.075,346.623
484.784,336.791
484.476,325.406
484.169,316.609
483.862,316.609
483.555,316.609
483.247,320.231
482.94,335.756
482.632,346.623
482.325,347.658
482.018,346.623
481.726,340.93
481.419,336.791
481.112,323.854
480.805,303.672
480.497,287.63
480.189,277.281
479.882,267.966
479.575,261.756
479.268,255.546
478.961,252.441
478.622,251.407
478.315,252.441
478.008,255.029
477.701,262.791
477.394,269.518
477.086,269.518
476.778,268.483
476.471,260.204
476.164,252.441
475.857,229.155
475.565,213.631
475.258,210.008
474.951,204.833
474.643,200.694
474.336,195.519
474.028,191.379
473.721,186.204
473.414,183.617
473.107,176.89
472.799,172.232
472.508,169.127
472.2,167.058
471.893,164.47
471.586,161.365
471.279,158.778
470.971,156.19
470.664,156.19
470.356,155.156
470.049,153.603
469.742,151.533
469.404,148.428
469.097,145.841
468.789,142.219
468.482,141.184
468.175,139.631
467.867,138.079
467.56,137.044
467.253,136.009
466.945,136.009
466.638,135.491
466.346,134.456
466.039,134.456
465.732,134.456
465.425,133.421
465.118,133.421
464.81,132.904
464.503,131.869
464.195,130.834
463.888,130.834
463.581,130.317
463.289,130.317
462.982,129.282
462.675,127.729
462.367,125.142
462.06,122.554
461.752,119.967
461.445,118.932
461.138,118.932
460.831,118.415
460.523,116.345
460.185,113.757
459.878,111.17
459.571,109.617
459.264,108.065
458.956,105.995
458.649,105.478
458.341,104.443
458.034,103.408
457.727,102.89
457.42,102.89
457.128,102.89
456.821,102.89
456.514,102.89
456.206,102.89
455.899,103.408
455.591,104.443
455.284,105.995
454.977,108.582
454.669,109.617
454.362,109.617
454.071,109.617
453.763,109.617
453.456,109.617
453.149,109.617
452.842,108.582
452.534,108.582
452.227,104.443
451.919,103.408
451.612,102.89
451.305,102.89
450.967,103.408
450.66,103.408
450.352,104.443
450.045,107.03
449.738,109.617
449.43,116.345
449.123,126.694
448.816,135.491
448.508,143.771
448.201,156.708
447.909,174.302
447.602,196.554
447.295,222.945
446.988,253.994
446.681,291.77
446.373,334.721
446.065,383.881
445.758,392.161
445.451,399.923
445.144,400.958
444.852,399.923
444.545,394.231
444.238,382.846
443.93,369.909
443.623,355.42
443.315,340.93
443.008,325.406
442.701,311.434
442.393,297.98
442.086,286.595
441.748,275.728
441.441,265.378
441.134,255.546
440.827,246.232
440.519,238.47
440.211,230.707
439.904,223.98
439.597,217.253
439.29,212.078
438.983,205.868
438.691,200.694
438.384,196.554
438.076,191.897
437.769,185.169
437.462,179.477
437.154,174.82
436.847,171.715
436.54,170.68
436.232,170.68
435.925,169.645
435.633,169.645
435.326,169.127
435.019,164.47
434.712,159.295
434.405,156.19
434.097,152.568
433.789,148.946
433.482,145.841
433.175,142.219
432.868,139.631
432.53,136.009
432.222,132.904
431.915,130.834
431.608,130.317
431.301,129.282
430.993,127.729
430.686,126.177
430.378,124.107
430.071,121.519
429.764,118.415
429.472,114.792
429.165,110.652
428.858,108.582
428.551,105.995
428.243,105.478
427.935,103.408
427.628,102.89
427.321,101.855
427.014,100.82
426.707,99.2678
426.415,97.7154
426.108,96.6804
425.8,96.6804
425.493,95.6455
425.186,95.6455
424.878,95.6455
424.571,95.6455
424.264,95.6455
423.956,95.6455
423.649,95.6455
423.357,95.6455
423.05,96.6804
422.743,96.6804
422.436,96.6804
422.129,96.6804
421.821,96.6804
421.513,96.6804
421.206,96.6804
420.899,96.6804
420.592,97.7154
420.254,97.7154
419.946,98.2329
419.639,98.2329
419.332,99.2678
419.025,100.303
418.717,100.303
418.41,100.303
418.102,99.2678
417.795,99.2678
417.488,98.2329
417.196,98.2329
416.889,97.7154
416.582,97.7154
416.275,96.6804
415.967,96.6804
415.659,96.6804
415.352,96.6804
415.045,95.6455
414.738,95.6455
414.431,95.1281
414.139,95.1281
413.832,95.1281
413.524,95.1281
413.217,95.1281
412.91,94.093
412.602,94.093
412.295,94.093
411.988,94.093
411.68,95.1281
411.373,95.1281
411.035,96.6804
410.728,99.2678
410.421,103.408
410.113,108.065
409.806,116.345
409.498,126.694
409.191,137.044
408.884,151.016
408.577,164.47
408.269,166.54
407.978,165.505
407.671,161.883
407.363,157.743
407.056,151.533
406.749,144.806
406.441,139.631
406.134,133.421
405.826,131.869
405.519,130.317
405.212,128.764
404.92,126.694
404.613,126.177
404.306,126.177
403.999,125.142
403.691,125.142
403.383,125.142
403.076,125.142
402.769,125.142
402.462,124.107
402.155,123.589
401.817,122.554
401.509,121.519
401.202,121.002
400.895,119.967
400.588,117.38
400.28,115.827
399.973,113.757
399.665,113.24
399.358,113.24
399.051,113.24
398.759,113.24
398.452,113.24
398.145,113.24
397.837,113.757
397.53,114.792
397.222,116.345
396.915,117.38
396.608,118.415
396.301,119.967
395.993,121.002
395.702,121.519
395.395,122.554
395.087,123.589
394.78,125.142
394.473,125.142
394.165,126.177
393.858,128.764
393.55,129.282
393.243,131.869
392.936,134.456
392.598,143.254
392.291,146.358
391.984,151.533
391.676,156.708
391.369,163.953
391.061,170.68
390.754,179.477
390.447,187.757
390.14,196.554
389.832,205.868
389.541,215.183
389.233,225.533
388.926,235.882
388.619,247.267
388.312,257.616
388.004,268.483
387.697,280.903
387.389,290.735
387.082,298.497
386.775,307.294
386.483,311.434
386.176,311.434
385.869,308.847
385.561,301.085
385.254,291.77
384.946,290.735
384.639,290.217
384.332,290.735
384.025,302.119
383.717,312.469
383.379,322.819
383.072,335.756
382.765,347.658
382.458,359.56
382.151,371.979
381.843,382.846
381.535,394.231
381.228,404.58
380.921,413.895
380.614,421.657
380.322,427.867
380.015,433.042
379.708,434.594
379.4,436.146
379.093,436.146
378.785,435.629
378.478,432.007
378.171,427.867
377.864,422.692
377.556,417.517
377.265,412.342
376.957,407.168
376.65,400.958
376.343,399.405
376.036,399.405
375.728,399.923
375.421,405.098
375.113,414.93
374.806,425.279
374.499,436.146
374.161,452.706
373.854,468.23
373.546,469.783
373.239,473.405
372.932,473.922
372.624,472.37
372.317,468.748
372.01,463.573
371.702,458.398
371.395,451.671
371.103,444.944
370.796,437.181
370.489,428.384
370.182,419.07
369.875,408.72
369.567,399.405
369.259,389.056
368.952,378.706
368.645,368.357
368.338,358.007
368.046,347.658
367.739,338.86
367.432,330.581
367.124,317.644
366.817,304.707
366.509,295.91
366.202,288.148
365.895,283.49
365.588,274.693
365.28,265.378
364.942,258.134
364.635,252.441
364.328,247.267
364.021,241.057
363.713,234.847
363.405,233.295
363.098,232.777
362.791,232.777
362.484,230.707
362.177,230.19
361.885,229.155
361.578,226.568
361.27,223.98
360.963,220.358
360.656,216.218
360.348,211.043
360.041,205.868
359.734,201.729
359.426,196.554
359.119,191.897
358.827,189.309
358.52,188.792
358.213,186.204
357.906,183.617
357.599,179.994
357.291,174.82
356.983,174.302
356.676,173.267
356.369,172.232
356.062,171.715
355.77,169.645
355.463,168.092
355.156,165.505
354.848,162.918
354.541,160.33
354.233,157.743
353.926,156.708
353.619,156.708
353.312,156.19
353.004,155.156
352.666,154.121
352.359,154.121
352.052,153.603
351.745,152.568
351.437,152.568
351.13,151.533
350.822,151.533
350.515,151.016
350.208,149.981
349.901,148.946
349.609,148.428
349.302,147.393
348.994,147.393
348.687,146.358
348.38,146.358
348.072,146.358
347.765,146.358
347.458,146.358
347.15,146.358
346.843,146.358
346.552,146.358
346.244,146.358
345.937,146.358
345.63,146.358
345.323,145.841
345.015,144.806
344.707,143.254
344.4,140.666
344.093,138.596
343.786,137.044
343.448,137.044
343.141,137.044
342.833,136.009
342.526,135.491
342.219,134.456
341.911,133.421
341.604,133.421
341.297,133.421
340.989,135.491
340.682,137.044
340.39,141.184
340.083,144.806
339.776,153.603
339.469,159.295
339.161,161.365
338.854,161.883
338.546,161.365
338.239,159.295
337.932,157.743
337.625,154.121
337.333,147.393
337.026,141.184
336.719,137.044
336.411,132.904
336.104,129.282
335.796,126.177
335.489,124.107
335.182,122.554
334.874,121.519
334.567,118.932
334.229,118.932
333.922,118.932
333.615,118.415
333.307,118.415
333,118.415
332.692,118.415
332.385,118.415
332.078,118.415
331.771,118.415
331.464,118.415
331.172,118.415
330.865,118.415
330.557,118.415
330.25,118.415
329.943,118.415
329.635,118.932
329.328,118.932
329.021,119.967
328.713,119.967
328.406,121.002
328.114,121.002
327.807,121.519
327.5,122.554
327.193,123.589
326.885,124.107
326.578,125.142
326.27,126.177
325.963,126.694
325.656,127.729
325.349,128.764
325.011,129.282
324.703,130.834
324.396,133.421
324.089,138.596
323.782,144.806
323.474,151.533
323.167,157.743
322.859,163.953
322.552,172.232
322.245,181.029
321.953,192.931
321.646,206.903
321.339,225.015
321.032,245.197
320.724,271.071
320.416,294.357
320.109,324.371
319.802,347.658
319.495,376.119
319.188,393.196
318.896,412.342
318.589,429.419
318.281,433.042
317.974,438.734
317.667,439.769
317.359,438.734
317.052,437.181
316.745,425.279
316.437,412.86
316.13,399.923
315.792,387.503
315.485,374.566
315.178,360.595
314.87,347.658
314.563,334.203
314.255,320.231
313.948,307.294
313.641,294.357
313.334,281.42
313.026,270.553
312.735,259.169
312.427,247.784
312.12,238.47
311.813,230.19
311.506,221.393
311.198,215.183
310.891,209.491
310.583,205.868
310.276,199.141
309.969,193.966
309.677,188.792
309.37,185.169
309.063,181.029
308.756,178.442
308.448,174.82
308.14,172.232
307.833,169.127
307.526,164.47
307.219,160.33
306.912,156.19
306.574,154.121
306.266,151.533
305.959,149.981
305.652,147.393
305.345,145.841
305.037,143.254
304.729,142.219
304.422,140.666
304.115,138.079
303.808,133.421
303.516,131.869
303.209,130.834
302.902,130.317
302.594,128.764
302.287,126.177
301.979,125.142
301.672,125.142
301.365,123.589
301.058,122.554
300.75,121.002
300.459,119.967
300.151,118.932
299.844,118.415
299.537,117.38
299.23,116.345
298.922,114.792
298.615,113.757
298.307,113.24
298,113.24
297.693,112.205
297.355,112.205
297.048,111.17
296.74,110.652
296.433,110.652
296.126,109.617
295.818,109.617
295.511,109.617
295.204,109.617
294.896,108.582
294.589,108.582
294.298,108.582
293.99,108.582
293.683,108.065
293.376,108.065
293.069,105.995
292.761,105.995
292.453,105.478
292.146,105.478
291.839,105.478
291.532,104.443
291.24,102.89
290.933,101.855
290.626,101.855
290.318,101.855
290.011,101.855
289.703,101.855
289.396,101.855
289.089,100.82
288.782,100.82
288.474,100.303
288.136,100.303
287.829,98.2329
287.522,97.7154
287.215,95.1281
286.907,94.093
286.6,94.093
286.292,94.093
285.985,93.0581
285.678,93.0581
285.371,93.0581
285.079,93.0581
284.772,93.0581
284.464,92.5406
284.157,92.5406
283.85,92.5406
283.542,92.5406
283.235,92.5406
282.928,91.5056
282.62,90.4707
282.313,90.4707
282.022,90.4707
281.714,90.4707
281.407,90.4707
281.1,90.4707
280.793,89.9532
280.485,89.9532
280.178,88.9182
279.87,88.9182
279.563,87.8833
279.256,87.8833
278.964,87.3658
278.657,87.3658
278.35,86.3309
278.042,84.7784
277.735,83.7435
277.427,83.7435
277.12,82.7085
276.813,82.191
276.506,81.1561
276.198,81.1561
275.86,81.1561
275.553,81.1561
275.246,81.1561
274.939,81.1561
274.632,81.1561
274.324,81.1561
274.016,81.1561
273.709,81.1561
273.402,82.191
273.095,82.191
272.803,82.191
272.496,82.191
272.189,82.191
271.881,82.191
271.574,82.191
271.266,82.191
270.959,82.191
270.652,81.1561
270.344,81.1561
270.037,80.1211
269.746,80.1211
269.438,80.1211
269.131,80.1211
268.824,79.6036
268.517,79.6036
268.209,79.6036
267.902,80.1211
267.594,80.1211
267.287,81.1561
266.98,81.1561
266.642,81.1561
266.335,80.1211
266.027,80.1211
265.72,79.6036
265.413,79.6036
265.105,79.6036
264.798,79.6036
264.491,79.6036
264.183,79.6036
263.876,79.6036
263.584,79.6036
263.277,80.1211
262.97,80.1211
262.663,80.1211
262.356,79.6036
262.048,79.6036
261.74,79.6036
261.433,79.6036
261.126,78.5687
260.819,78.5687
260.527,78.5687
260.22,78.5687
259.913,78.5687
259.605,78.5687
259.298,78.0512
258.99,78.0512
258.683,78.0512
258.376,78.0512
258.068,78.5687
257.761,78.5687
257.423,78.5687
257.116,78.5687
256.809,79.6036
256.502,80.1211
256.194,80.1211
255.886,80.1211
255.579,79.6036
255.272,79.6036
254.965,80.1211
254.658,80.1211
254.366,81.1561
254.059,82.191
253.751,82.7085
253.444,83.7435
253.137,86.3309
252.829,87.8833
252.522,88.9182
252.215,90.4707
251.907,93.0581
251.6,95.6455
251.308,98.2329
251.001,102.89
250.694,110.652
250.387,118.415
250.08,129.282
249.772,145.841
249.464,163.953
249.157,184.134
248.85,204.833
248.543,223.98
248.205,240.022
247.897,241.057
247.59,240.022
247.283,229.155
246.976,216.218
246.668,203.281
246.361,186.204
246.053,170.68
245.746,155.156
245.439,145.841
245.147,138.596
244.84,132.904
244.533,128.764
244.226,124.107
243.918,119.967
243.61,118.415
243.303,117.38
242.996,113.24
242.689,110.652
242.382,108.582
242.09,108.582
241.783,108.582
241.475,109.617
241.168,110.652
240.861,111.17
240.553,111.17
240.246,113.24
239.939,113.757
239.631,114.792
239.324,114.792
238.986,116.345
238.679,117.38
238.372,119.967
238.064,121.519
237.757,123.589
237.449,124.107
237.142,125.142
236.835,126.177
236.528,126.177
236.22,126.694
235.929,130.317
235.621,131.869
235.314,133.421
235.007,135.491
234.7,137.044
234.392,138.079
234.085,139.631
233.777,141.184
233.47,143.771
233.163,146.358
232.871,148.946
232.564,151.533
232.257,155.156
231.95,159.295
231.642,163.953
231.335,168.092
231.027,172.232
230.72,177.407
230.413,182.582
230.106,188.792
229.768,199.141
229.46,206.903
229.153,215.183
228.846,227.603
228.539,236.917
228.231,247.267
227.924,261.756
227.616,273.141
227.309,288.148
227.002,302.119
226.71,313.504
226.403,326.958
226.096,335.756
225.788,344.035
225.481,352.832
225.173,353.867
224.866,352.832
224.559,351.28
224.252,346.623
223.944,341.448
223.653,332.133
223.346,326.958
223.038,321.266
222.731,314.021
222.424,305.742
222.116,297.98
221.809,290.217
221.501,284.008
221.194,278.833
220.887,276.246
220.549,273.141
220.242,269.518
219.935,266.931
219.627,264.344
219.32,260.721
219.012,256.581
218.705,255.546
218.398,252.959
218.091,252.441
217.783,251.407
217.492,250.372
217.184,249.854
216.877,248.819
216.57,248.819
216.263,248.819
215.955,247.784
215.648,247.784
215.34,247.784
215.033,247.784
214.726,247.784
214.434,247.784
214.127,248.819
213.82,248.819
213.513,248.819
213.205,249.854
212.897,249.854
212.59,249.854
212.283,250.372
211.976,251.407
211.668,251.407
211.377,251.407
211.07,252.441
210.762,252.959
210.455,255.029
210.148,255.546
209.84,255.546
209.533,255.546
209.225,255.546
208.918,255.546
208.611,256.581
208.273,256.581
207.966,257.616
207.659,258.134
207.351,259.169
207.044,260.204
206.736,260.204
206.429,260.721
206.122,260.721
205.815,260.721
205.507,261.756
205.216,261.756
204.908,261.756
204.601,260.721
204.294,260.721
203.987,260.721
203.679,260.721
203.372,260.721
203.064,260.721
202.757,260.721
202.45,260.721
202.158,260.721
201.851,260.721
201.544,260.721
201.237,260.721
200.929,263.309
200.621,263.309
200.314,263.309
200.007,263.309
199.7,263.309
199.393,263.309
199.054,263.309
198.747,264.344
198.44,265.378
198.133,265.896
197.826,266.931
197.518,266.931
197.21,267.966
196.903,268.483
196.596,269.518
196.289,273.141
195.997,275.728
195.69,277.281
195.383,279.868
195.075,279.868
194.768,280.903
194.46,283.49
194.153,285.043
193.846,288.148
193.539,291.77
193.231,295.392
192.94,297.98
192.632,301.085
192.325,304.707
192.018,309.882
191.711,315.056
191.403,321.266
191.096,325.406
190.788,333.168
190.481,341.448
190.174,351.797
189.836,363.182
189.529,373.531
189.221,383.881
188.914,392.161
188.607,399.405
188.299,407.168
187.992,413.895
187.685,419.07
187.377,423.209
187.07,425.797
186.778,432.007
186.471,436.146
186.164,438.216
185.857,439.769
185.55,440.804
185.242,442.356
184.934,442.874
184.627,444.944
184.32,445.461
184.013,446.496
183.721,446.496
183.414,446.496
183.107,446.496
182.799,446.496
182.492,446.496
182.184,445.461
181.877,444.944
181.57,442.874
181.263,441.321
180.955,438.216
180.617,433.559
180.31,428.384
180.003,425.797
179.696,422.692
179.388,420.105
179.081,416.482
178.773,412.342
178.466,410.272
178.159,407.168
177.852,401.993
177.56,395.783
177.253,388.021
176.945,381.294
176.638,375.084
176.331,370.944
176.023,365.769
175.716,361.63
175.409,355.42
175.101,350.245
174.794,346.105
174.503,340.93
174.195,336.791
173.888,332.133
173.581,326.958
173.274,322.819
172.966,319.196
172.658,314.021
172.351,312.469
172.044,309.882
171.737,307.294
171.399,307.294
171.092,306.259
170.784,306.259
170.477,307.294
170.17,309.882
169.862,312.469
169.555,316.091
169.247,321.784
168.94,327.993
168.633,336.791
168.341,346.105
168.034,356.972
167.727,365.769
167.42,373.531
167.112,383.881
166.805,394.231
166.497,398.37
166.19,404.58
165.883,407.685
165.576,414.93
165.284,415.447
164.977,415.447
164.669,415.447
164.362,414.93
164.055,409.755
163.747,407.168
163.44,402.51
163.133,398.37
162.825,392.161
162.518,385.434
162.18,378.706
161.873,369.909
161.566,362.147
161.259,353.867
160.951,346.105
160.643,338.343
160.336,330.581
160.029,321.784
159.722,313.504
159.415,306.259
159.123,300.567
158.816,294.357
158.508,288.148
158.201,283.49
157.894,278.833
157.586,273.658
157.279,269.518
156.972,265.378
156.664,261.756
156.357,256.581
156.065,251.407
155.758,245.197
155.451,240.022
155.144,236.917
154.836,234.33
154.529,232.777
154.221,230.19
153.914,227.603
153.607,225.015
153.3,223.98
152.962,222.428
152.654,219.84
152.347,217.77
152.04,217.253
151.733,215.183
151.425,214.666
151.118,213.631
150.81,212.078
150.503,210.008
150.196,210.008
149.904,209.491
149.597,209.491
149.29,207.421
148.983,206.903
148.675,206.903
148.367,205.868
148.06,205.868
147.753,205.868
147.446,205.868
147.139,205.868
146.847,205.868
146.54,205.868
146.232,206.903
145.925,207.421
145.618,209.491
145.31,212.078
145.003,213.631
144.696,216.218
144.388,221.393
144.081,222.945
143.743,225.015
143.436,225.533
143.129,229.155
142.821,232.777
142.514,237.435
142.206,240.022
141.899,243.644
141.592,245.197
141.285,248.819
140.977,252.441
140.686,257.616
140.378,262.791
140.071,268.483
139.764,275.728
139.457,281.42
139.149,287.63
138.842,294.357
138.534,300.567
138.227,307.294
137.92,315.056
137.628,320.231
137.321,326.441
137.014,333.168
136.707,335.756
136.399,340.93
136.091,345.07
135.784,347.658
135.477,349.21
135.17,350.245
134.863,351.28
134.571,350.245
134.264,348.693
133.956,346.623
133.649,343.518
133.342,338.86
133.034,333.168
132.727,325.406
132.42,320.231
132.112,316.609
131.805,314.021
131.467,308.329
131.16,303.154
130.853,296.945
130.545,291.77
130.238,285.56
129.93,279.868
129.623,273.658
129.316,267.966
129.009,263.309
128.701,259.169
128.41,255.546
128.102,252.441
127.795,250.372
127.488,248.819
127.181,246.232
126.873,244.679
126.566,241.057
126.258,239.505
125.951,236.917
125.644,235.882
125.352,234.33
125.045,234.33
124.738,233.295
124.431,231.742
124.123,230.707
123.815,230.707
123.508,230.707
123.201,230.707
122.894,230.707
122.587,230.19
122.249,229.155
121.941,229.155
121.634,229.155
121.327,228.12
121.02,228.12
120.712,227.603
120.404,227.603
120.097,226.568
119.79,226.568
119.483,226.568
119.191,226.568
118.884,226.568
118.577,226.568
118.269,226.568
117.962,225.533
117.654,225.533
117.347,225.533
117.04,225.533
116.733,225.015
116.425,225.015
116.134,223.98
115.826,222.945
115.519,222.945
115.212,222.945
114.905,222.945
114.597,222.945
114.29,223.98
113.982,225.015
113.675,225.015
113.368,225.015
113.03,225.533
112.723,225.533
112.416,226.568
112.108,226.568
111.801,227.603
111.493,229.155
111.186,230.19
110.879,230.707
110.571,231.742
110.264,231.742
109.973,231.742
109.665,232.777
109.358,233.295
109.051,233.295
108.744,234.33
108.436,234.847
108.129,234.847
107.821,235.882
107.514,236.917
107.207,236.917
106.915,237.435
106.608,238.47
106.301,239.505
105.993,241.057
105.686,242.609
105.378,243.644
105.071,244.679
104.764,245.197
104.457,245.197
104.149,246.232
103.811,247.267
103.504,247.784
103.197,248.819
102.89,250.372
102.582,251.407
102.275,252.959
101.967,255.029
101.66,255.546
101.353,256.581
101.046,256.581
100.754,256.581
100.447,257.616
100.14,258.134
99.8323,258.134
99.5251,258.134
99.2172,259.169
98.9099,259.169
98.6027,260.204
98.2955,260.721
97.9883,261.756
97.6966,262.791
97.3893,262.791
97.0821,264.344
96.7749,265.896
96.4677,265.896
96.1598,265.896
95.8525,266.931
95.5453,266.931
95.2381,268.483" />
</g>
</svg>
