<?xml version="1.0"?>
<svg version="1.1"
     xmlns="http://www.w3.org/2000/svg"
     xmlns:xlink="http://www.w3.org/1999/xlink"
     viewBox="0 0 800 600">
<g>
<text fill="#000000" font-family="sans-serif" font-size="19.0476" text-anchor="start" x="4.7619" y="591.429" >
NIST Chemistry WebBook (https://webbook.nist.gov/chemistry)
</text>
<polyline stroke="#000000" stroke-width="1.19048" fill="none" points="95.2381,514.286
742.857,514.286
742.857,66.6667
95.2381,66.6667
95.2381,514.286" />
<text fill="#000000" font-family="sans-serif" font-size="19.0476" text-anchor="middle" x="419.048" y="24.7619" >
1,2-CYCLOBUTANE, BIS-(METHYLAMINE)-
</text>
<text fill="#000000" font-family="sans-serif" font-size="19.0476" text-anchor="middle" x="419.048" y="53.3333" >
INFRARED SPECTRUM
</text>
<text fill="#000000" font-family="sans-serif" font-size="19.0476" text-anchor="middle" x="419.048" y="558.095" >
Wavenumber (cm-1)
</text>
<text fill="#000000" font-family="sans-serif" font-size="19.0476" text-anchor="middle" transform="translate(20,290.476) rotate(270)" x="0" y="0" >
Percent Transmission (Transmitance)
</text>
<text fill="#000000" font-family="sans-serif" font-size="19.0476" text-anchor="middle" x="637.665" y="534.286" >
1000
</text>
<line stroke="#000000" stroke-width="1.19048" x1="637.665" y1="514.286" x2="637.665" y2="504.762" />
<text fill="#000000" font-family="sans-serif" font-size="19.0476" text-anchor="middle" x="443.941" y="534.286" >
2000
</text>
<line stroke="#000000" stroke-width="1.19048" x1="443.941" y1="514.286" x2="443.941" y2="504.762" />
<text fill="#000000" font-family="sans-serif" font-size="19.0476" text-anchor="middle" x="250.217" y="534.286" >
3000
</text>
<line stroke="#000000" stroke-width="1.19048" x1="250.217" y1="514.286" x2="250.217" y2="504.762" />
<line stroke="#000000" stroke-width="1.19048" x1="734.527" y1="514.286" x2="734.527" y2="509.524" />
<line stroke="#000000" stroke-width="1.19048" x1="715.155" y1="514.286" x2="715.155" y2="509.524" />
<line stroke="#000000" stroke-width="1.19048" x1="695.782" y1="514.286" x2="695.782" y2="509.524" />
<line stroke="#000000" stroke-width="1.19048" x1="676.41" y1="514.286" x2="676.41" y2="509.524" />
<line stroke="#000000" stroke-width="1.19048" x1="657.037" y1="514.286" x2="657.037" y2="509.524" />
<line stroke="#000000" stroke-width="1.19048" x1="637.665" y1="514.286" x2="637.665" y2="509.524" />
<line stroke="#000000" stroke-width="1.19048" x1="618.293" y1="514.286" x2="618.293" y2="509.524" />
<line stroke="#000000" stroke-width="1.19048" x1="598.92" y1="514.286" x2="598.92" y2="509.524" />
<line stroke="#000000" stroke-width="1.19048" x1="579.548" y1="514.286" x2="579.548" y2="509.524" />
<line stroke="#000000" stroke-width="1.19048" x1="560.175" y1="514.286" x2="560.175" y2="509.524" />
<line stroke="#000000" stroke-width="1.19048" x1="540.803" y1="514.286" x2="540.803" y2="509.524" />
<line stroke="#000000" stroke-width="1.19048" x1="521.431" y1="514.286" x2="521.431" y2="509.524" />
<line stroke="#000000" stroke-width="1.19048" x1="502.058" y1="514.286" x2="502.058" y2="509.524" />
<line stroke="#000000" stroke-width="1.19048" x1="482.686" y1="514.286" x2="482.686" y2="509.524" />
<line stroke="#000000" stroke-width="1.19048" x1="463.314" y1="514.286" x2="463.314" y2="509.524" />
<line stroke="#000000" stroke-width="1.19048" x1="443.941" y1="514.286" x2="443.941" y2="509.524" />
<line stroke="#000000" stroke-width="1.19048" x1="424.569" y1="514.286" x2="424.569" y2="509.524" />
<line stroke="#000000" stroke-width="1.19048" x1="405.196" y1="514.286" x2="405.196" y2="509.524" />
<line stroke="#000000" stroke-width="1.19048" x1="385.824" y1="514.286" x2="385.824" y2="509.524" />
<line stroke="#000000" stroke-width="1.19048" x1="366.452" y1="514.286" x2="366.452" y2="509.524" />
<line stroke="#000000" stroke-width="1.19048" x1="347.079" y1="514.286" x2="347.079" y2="509.524" />
<line stroke="#000000" stroke-width="1.19048" x1="327.707" y1="514.286" x2="327.707" y2="509.524" />
<line stroke="#000000" stroke-width="1.19048" x1="308.334" y1="514.286" x2="308.334" y2="509.524" />
<line stroke="#000000" stroke-width="1.19048" x1="288.962" y1="514.286" x2="288.962" y2="509.524" />
<line stroke="#000000" stroke-width="1.19048" x1="269.59" y1="514.286" x2="269.59" y2="509.524" />
<line stroke="#000000" stroke-width="1.19048" x1="250.217" y1="514.286" x2="250.217" y2="509.524" />
<line stroke="#000000" stroke-width="1.19048" x1="230.845" y1="514.286" x2="230.845" y2="509.524" />
<line stroke="#000000" stroke-width="1.19048" x1="211.472" y1="514.286" x2="211.472" y2="509.524" />
<line stroke="#000000" stroke-width="1.19048" x1="192.1" y1="514.286" x2="192.1" y2="509.524" />
<line stroke="#000000" stroke-width="1.19048" x1="172.728" y1="514.286" x2="172.728" y2="509.524" />
<line stroke="#000000" stroke-width="1.19048" x1="153.355" y1="514.286" x2="153.355" y2="509.524" />
<line stroke="#000000" stroke-width="1.19048" x1="133.983" y1="514.286" x2="133.983" y2="509.524" />
<line stroke="#000000" stroke-width="1.19048" x1="114.61" y1="514.286" x2="114.61" y2="509.524" />
<line stroke="#000000" stroke-width="1.19048" x1="95.2381" y1="514.286" x2="95.2381" y2="509.524" />
<text fill="#000000" font-family="sans-serif" font-size="19.0476" text-anchor="end" x="90.4762" y="439.641" >
0.2
</text>
<line stroke="#000000" stroke-width="1.19048" x1="95.2381" y1="435.355" x2="104.762" y2="435.355" />
<text fill="#000000" font-family="sans-serif" font-size="19.0476" text-anchor="end" x="90.4762" y="345.898" >
0.4
</text>
<line stroke="#000000" stroke-width="1.19048" x1="95.2381" y1="341.613" x2="104.762" y2="341.613" />
<text fill="#000000" font-family="sans-serif" font-size="19.0476" text-anchor="end" x="90.4762" y="252.156" >
0.6
</text>
<line stroke="#000000" stroke-width="1.19048" x1="95.2381" y1="247.87" x2="104.762" y2="247.87" />
<text fill="#000000" font-family="sans-serif" font-size="19.0476" text-anchor="end" x="90.4762" y="158.414" >
0.8
</text>
<line stroke="#000000" stroke-width="1.19048" x1="95.2381" y1="154.128" x2="104.762" y2="154.128" />
<line stroke="#000000" stroke-width="1.19048" x1="95.2381" y1="505.661" x2="100" y2="505.661" />
<line stroke="#000000" stroke-width="1.19048" x1="95.2381" y1="482.226" x2="100" y2="482.226" />
<line stroke="#000000" stroke-width="1.19048" x1="95.2381" y1="458.79" x2="100" y2="458.79" />
<line stroke="#000000" stroke-width="1.19048" x1="95.2381" y1="435.355" x2="100" y2="435.355" />
<line stroke="#000000" stroke-width="1.19048" x1="95.2381" y1="411.919" x2="100" y2="411.919" />
<line stroke="#000000" stroke-width="1.19048" x1="95.2381" y1="388.484" x2="100" y2="388.484" />
<line stroke="#000000" stroke-width="1.19048" x1="95.2381" y1="365.048" x2="100" y2="365.048" />
<line stroke="#000000" stroke-width="1.19048" x1="95.2381" y1="341.613" x2="100" y2="341.613" />
<line stroke="#000000" stroke-width="1.19048" x1="95.2381" y1="318.177" x2="100" y2="318.177" />
<line stroke="#000000" stroke-width="1.19048" x1="95.2381" y1="294.741" x2="100" y2="294.741" />
<line stroke="#000000" stroke-width="1.19048" x1="95.2381" y1="271.306" x2="100" y2="271.306" />
<line stroke="#000000" stroke-width="1.19048" x1="95.2381" y1="247.87" x2="100" y2="247.87" />
<line stroke="#000000" stroke-width="1.19048" x1="95.2381" y1="224.435" x2="100" y2="224.435" />
<line stroke="#000000" stroke-width="1.19048" x1="95.2381" y1="200.999" x2="100" y2="200.999" />
<line stroke="#000000" stroke-width="1.19048" x1="95.2381" y1="177.564" x2="100" y2="177.564" />
<line stroke="#000000" stroke-width="1.19048" x1="95.2381" y1="154.128" x2="100" y2="154.128" />
<line stroke="#000000" stroke-width="1.19048" x1="95.2381" y1="130.693" x2="100" y2="130.693" />
<line stroke="#000000" stroke-width="1.19048" x1="95.2381" y1="107.257" x2="100" y2="107.257" />
<line stroke="#000000" stroke-width="1.19048" x1="95.2381" y1="83.8214" x2="100" y2="83.8214" />
<polyline stroke="#FF0000" stroke-width="1.19048" fill="none" points="742.857,166.362
742.663,165.94
742.47,165.705
742.276,165.471
742.082,165.19
741.888,165.049
741.695,165.002
741.501,164.862
741.307,164.674
741.114,164.534
740.92,164.534
740.726,164.44
740.532,164.44
740.339,164.534
740.145,164.534
739.951,164.534
739.758,164.627
739.564,164.674
739.37,164.721
739.176,164.862
738.983,164.862
738.789,165.002
738.595,165.049
738.401,165.143
738.208,165.33
738.014,165.518
737.82,165.705
737.627,165.893
737.433,166.08
737.239,166.268
737.045,166.268
736.852,166.315
736.658,166.315
736.464,166.362
736.271,166.362
736.077,166.362
735.883,166.362
735.689,166.315
735.496,166.315
735.302,166.268
735.108,166.221
734.914,166.174
734.721,165.94
734.527,165.658
734.333,165.471
734.14,165.143
733.946,164.862
733.752,164.346
733.558,163.924
733.365,163.456
733.171,163.034
732.977,162.659
732.783,162.19
732.59,161.628
732.396,160.971
732.202,160.315
732.009,159.565
731.815,158.909
731.621,158.253
731.427,157.503
731.234,156.8
731.04,156.144
730.846,155.487
730.653,154.737
730.459,154.081
730.265,153.331
730.071,152.628
729.878,151.925
729.684,151.41
729.49,150.988
729.296,150.613
729.103,150.144
728.909,149.722
728.715,149.3
728.522,148.972
728.328,148.785
728.134,148.597
727.94,148.457
727.747,148.269
727.553,148.129
727.359,147.894
727.165,147.707
726.972,147.66
726.778,147.613
726.584,147.613
726.391,147.566
726.197,147.519
726.003,147.472
725.809,147.472
725.616,147.519
725.422,147.566
725.228,147.613
725.034,147.66
724.841,147.707
724.647,147.754
724.453,147.801
724.26,147.847
724.066,147.894
723.872,147.988
723.678,148.457
723.485,148.879
723.291,149.3
723.097,149.722
722.904,150.144
722.71,150.613
722.516,151.41
722.322,152.253
722.129,153.144
721.935,153.941
721.741,154.784
721.547,155.675
721.354,156.519
721.16,157.409
720.966,158.3
720.773,159.05
720.579,159.425
720.385,159.753
720.191,160.034
719.998,159.471
719.804,158.909
719.61,158.347
719.417,158.112
719.223,157.831
719.029,157.503
718.835,157.175
718.642,156.894
718.448,156.612
718.254,156.612
718.06,156.565
717.867,156.8
717.673,157.315
717.479,158.3
717.286,159.143
717.092,160.128
716.898,161.112
716.704,162.377
716.511,163.596
716.317,164.862
716.123,165.565
715.93,165.987
715.736,166.455
715.542,166.502
715.348,166.362
715.155,166.268
714.961,166.174
714.767,166.08
714.573,166.033
714.38,165.94
714.186,166.736
713.992,167.627
713.799,168.424
713.605,169.83
713.411,171.142
713.217,172.548
713.024,176.111
712.83,181.079
712.636,185.907
712.442,186.235
712.249,186.141
712.055,185.954
711.861,185.063
711.668,186.282
711.474,183.001
711.28,180.845
711.086,177.798
710.893,176.158
710.699,177.282
710.505,177.236
710.311,177.236
710.118,177.986
709.924,179.204
709.73,180.938
709.537,182.063
709.343,182.532
709.149,181.876
708.955,180.751
708.762,177.892
708.568,175.08
708.374,172.22
708.181,169.361
707.987,166.502
707.793,163.643
707.599,160.831
707.406,157.784
707.212,156.894
707.018,156.19
706.824,155.487
706.631,156.003
706.437,156.331
706.243,156.706
706.05,157.128
705.856,157.643
705.662,158.112
705.468,158.628
705.275,159.003
705.081,159.425
704.887,159.846
704.693,160.315
704.5,160.69
704.306,160.784
704.112,160.784
703.919,160.784
703.725,160.784
703.531,160.784
703.337,160.784
703.144,161.112
702.95,161.393
702.756,161.721
702.563,162.096
702.369,162.612
702.175,163.362
701.981,164.159
701.788,164.393
701.594,160.456
701.4,157.972
701.206,156.425
701.013,155.066
700.819,155.3
700.625,155.675
700.432,156.097
700.238,156.519
700.044,157.128
699.85,157.831
699.657,158.44
699.463,159.471
699.269,160.643
699.076,161.862
698.882,163.127
698.688,164.44
698.494,166.033
698.301,167.627
698.107,169.08
697.913,170.486
697.719,171.892
697.526,173.298
697.332,174.705
697.138,176.251
696.945,177.751
696.751,179.345
696.557,180.798
696.363,182.345
696.17,183.891
695.976,185.391
695.782,186.891
695.589,188.391
695.395,189.844
695.201,191.297
695.007,193.078
694.814,194.859
694.62,196.64
694.426,198.421
694.232,200.624
694.039,203.108
693.845,205.639
693.651,208.124
693.458,210.655
693.264,213.936
693.07,217.357
692.876,220.779
692.683,232.309
692.489,241.027
692.295,247.402
692.101,253.635
691.908,259.776
691.714,266.666
691.52,274.587
691.327,282.789
691.133,291.367
690.939,300.178
690.745,308.943
690.552,317.099
690.358,322.63
690.164,328.161
689.97,351.362
689.777,445.104
689.583,493.709
689.389,507.911
689.196,512.739
689.002,514.098
688.808,514.286
688.614,514.286
688.421,514.098
688.227,513.958
688.033,513.817
687.84,513.489
687.646,513.161
687.452,512.786
687.258,512.27
687.065,511.755
686.871,511.239
686.677,510.724
686.483,510.161
686.29,509.599
686.096,508.989
685.902,508.427
685.709,507.771
685.515,507.021
685.321,506.271
685.127,505.521
684.934,504.724
684.74,503.927
684.546,503.13
684.352,502.38
684.159,501.677
683.965,500.974
683.771,500.318
683.578,499.615
683.384,498.912
683.19,498.209
682.996,497.506
682.803,496.85
682.609,496.428
682.415,495.959
682.221,495.49
682.028,495.022
681.834,494.6
681.64,494.131
681.447,493.662
681.253,493.241
681.059,492.819
680.865,492.397
680.672,492.022
680.478,491.6
680.284,491.178
680.091,490.756
679.897,490.381
679.703,489.913
679.509,489.585
679.316,489.163
679.122,488.835
678.928,488.46
678.734,488.085
678.541,487.71
678.347,487.429
678.153,487.054
677.96,486.632
677.766,486.257
677.572,485.882
677.378,485.46
677.185,485.085
676.991,484.616
676.797,484.241
676.604,483.819
676.41,483.538
676.216,483.21
676.022,482.976
675.829,482.741
675.635,482.413
675.441,482.179
675.247,481.898
675.054,481.617
674.86,481.382
674.666,481.101
674.473,480.913
674.279,480.726
674.085,480.539
673.891,480.351
673.698,480.164
673.504,479.929
673.31,479.742
673.117,479.601
672.923,479.554
672.729,479.46
672.535,479.414
672.342,479.367
672.148,479.32
671.954,479.273
671.76,479.179
671.567,479.179
671.373,479.179
671.179,479.039
670.986,478.476
670.792,477.914
670.598,476.883
670.404,475.758
670.211,474.117
670.017,472.477
669.823,470.742
669.629,469.102
669.436,467.461
669.242,465.821
669.048,463.946
668.855,462.024
668.661,460.103
668.467,458.181
668.273,455.837
668.08,453.306
667.886,450.728
667.692,448.197
667.499,445.713
667.305,443.417
667.111,441.12
666.917,438.823
666.724,436.527
666.53,434.183
666.336,431.511
666.142,428.887
665.949,426.215
665.755,423.731
665.561,421.387
665.368,419.044
665.174,416.653
664.98,414.31
664.786,411.169
664.593,407.982
664.399,404.701
664.205,401.795
664.011,398.889
663.818,396.264
663.624,393.968
663.43,391.999
663.237,390.827
663.043,389.702
662.849,388.624
662.655,387.499
662.462,386.187
662.268,384.265
662.074,382.531
661.88,381.5
661.687,380.984
661.493,380.516
661.299,380.047
661.106,379.625
660.912,379.016
660.718,377.703
660.524,376.391
660.331,374.61
660.137,372.829
659.943,370.345
659.75,368.001
659.556,366.22
659.362,364.486
659.168,362.705
658.975,360.877
658.781,358.955
658.587,356.658
658.393,354.315
658.2,352.018
658.006,349.768
657.812,347.612
657.619,345.456
657.425,343.394
657.231,341.331
657.037,339.316
656.844,337.3
656.65,336.363
656.456,335.519
656.263,335.051
656.069,334.816
655.875,334.582
655.681,334.348
655.488,334.113
655.294,333.832
655.1,333.598
654.906,333.082
654.713,332.566
654.519,331.535
654.325,329.66
654.132,326.848
653.938,323.848
653.744,318.739
653.55,314.709
653.357,311.053
653.163,307.209
652.969,304.069
652.776,302.991
652.582,302.335
652.388,302.381
652.194,302.991
652.001,303.694
651.807,304.397
651.613,305.147
651.419,305.522
651.226,305.569
651.032,305.616
650.838,305.334
650.645,304.866
650.451,303.834
650.257,302.428
650.063,300.788
649.87,298.96
649.676,296.898
649.482,294.648
649.288,291.601
649.095,287.898
648.901,283.117
648.707,278.805
648.514,274.962
648.32,271.868
648.126,269.009
647.932,264.041
647.739,256.87
647.545,253.635
647.351,250.683
647.157,248.245
646.964,246.089
646.77,242.011
646.576,238.309
646.383,236.012
646.189,234.325
645.995,232.637
645.801,230.997
645.608,229.263
645.414,227.153
645.22,224.81
645.027,222.466
644.833,219.841
644.639,217.123
644.445,215.014
644.252,212.764
644.058,210.842
643.864,209.061
643.67,207.186
643.477,204.468
643.283,201.655
643.089,198.281
642.896,192.984
642.702,188.157
642.508,184.032
642.314,180.376
642.121,177.048
641.927,174.048
641.733,171.892
641.539,170.814
641.346,169.689
641.152,168.611
640.958,167.721
640.765,167.018
640.571,166.362
640.377,165.893
640.183,165.565
639.99,165.565
639.796,165.33
639.602,165.799
639.409,165.846
639.215,166.221
639.021,166.549
638.827,166.877
638.634,167.346
638.44,167.861
638.246,168.377
638.052,169.502
637.859,170.814
637.665,172.502
637.471,174.517
637.278,176.767
637.084,179.626
636.89,182.438
636.696,185.204
636.503,187.969
636.309,190.078
636.115,192.234
635.922,194.39
635.728,196.828
635.534,199.546
635.34,202.312
635.147,205.124
634.953,207.983
634.759,210.936
634.565,214.545
634.372,218.904
634.178,222.466
633.984,225.607
633.791,228.841
633.597,232.122
633.403,235.403
633.209,239.621
633.016,244.402
632.822,249.136
632.628,253.261
632.434,258.041
632.241,263.01
632.047,266.478
631.853,268.259
631.66,268.212
631.466,267.65
631.272,262.307
631.078,254.432
630.885,246.558
630.691,238.684
630.497,230.809
630.304,222.888
630.11,215.014
629.916,207.186
629.722,199.312
629.529,192.047
629.335,187.547
629.141,185.063
628.947,183.469
628.754,182.673
628.56,182.626
628.366,182.626
628.173,182.438
627.979,183.048
627.785,183.423
627.591,183.891
627.398,184.313
627.204,184.876
627.01,185.438
626.816,186.094
626.623,186.75
626.429,187.453
626.235,188.11
626.042,188.719
625.848,189.235
625.654,189.891
625.46,190.594
625.267,191.25
625.073,191.953
624.879,192.656
624.686,193.312
624.492,194.062
624.298,194.765
624.104,195.515
623.911,196.64
623.717,197.953
623.523,199.687
623.329,201.702
623.136,203.483
622.942,204.89
622.748,205.78
622.555,207.889
622.361,206.858
622.167,206.718
621.973,206.389
621.78,205.968
621.586,205.452
621.392,204.89
621.198,204.28
621.005,203.53
620.811,202.78
620.617,201.655
620.424,200.624
620.23,199.687
620.036,198.796
619.842,197.953
619.649,197.484
619.455,196.172
619.261,196.734
619.068,196.734
618.874,196.734
618.68,197.343
618.486,198.093
618.293,199.031
618.099,200.015
617.905,201.046
617.711,202.452
617.518,203.483
617.324,204.14
617.13,204.843
616.937,204.702
616.743,204.28
616.549,204.233
616.355,202.499
616.162,200.952
615.968,199.453
615.774,197.671
615.581,195.468
615.387,193.312
615.193,191.063
614.999,188.766
614.806,185.626
614.612,181.688
614.418,177.657
614.224,175.173
614.031,172.595
613.837,169.83
613.643,166.455
613.45,161.956
613.256,156.519
613.062,152.581
612.868,146.816
612.675,144.895
612.481,142.973
612.287,140.957
612.093,138.895
611.9,137.489
611.706,136.13
611.512,135.005
611.319,134.114
611.125,133.224
610.931,132.567
610.737,132.192
610.544,131.771
610.35,131.349
610.156,131.161
609.963,130.974
609.769,130.833
609.575,130.646
609.381,130.505
609.188,130.318
608.994,130.177
608.8,130.036
608.606,129.896
608.413,129.708
608.219,129.568
608.025,129.427
607.832,129.286
607.638,129.052
607.444,128.677
607.25,128.302
607.057,127.88
606.863,127.177
606.669,126.474
606.475,125.818
606.282,125.302
606.088,124.834
605.894,124.271
605.701,123.99
605.507,123.943
605.313,123.849
605.119,123.803
604.926,123.709
604.732,123.615
604.538,123.615
604.344,123.615
604.151,123.615
603.957,123.568
603.763,123.474
603.57,123.381
603.376,123.287
603.182,123.099
602.988,122.35
602.795,121.459
602.601,120.475
602.407,119.397
602.214,118.412
602.02,116.959
601.826,115.46
601.632,114.756
601.439,114.194
601.245,114.147
601.051,114.1
600.857,114.053
600.664,113.96
600.47,111.475
600.276,113.678
600.083,113.585
599.889,113.585
599.695,113.585
599.501,113.725
599.308,114.288
599.114,114.85
598.92,115.553
598.727,116.256
598.533,117.006
598.339,117.803
598.145,118.975
597.952,120.193
597.758,121.412
597.564,122.818
597.37,124.131
597.177,125.537
596.983,127.084
596.789,129.615
596.596,132.192
596.402,135.052
596.208,136.411
596.014,136.551
595.821,136.223
595.627,135.473
595.433,134.677
595.24,133.552
595.046,132.38
594.852,131.208
594.658,130.693
594.465,130.411
594.271,130.458
594.077,130.739
593.883,131.208
593.69,132.052
593.496,133.224
593.302,134.302
593.109,135.333
592.915,136.177
592.721,136.786
592.527,137.208
592.334,137.395
592.14,137.442
591.946,137.442
591.752,137.348
591.559,137.208
591.365,137.067
591.171,137.348
590.978,138.051
590.784,138.801
590.59,139.598
590.396,140.395
590.203,141.145
590.009,141.895
589.815,142.598
589.621,143.067
589.428,143.582
589.234,143.582
589.04,143.582
588.847,143.16
588.653,142.738
588.459,142.223
588.265,140.723
588.072,139.223
587.878,137.77
587.684,136.317
587.491,134.911
587.297,132.052
587.103,130.505
586.909,129.849
586.716,129.849
586.522,129.99
586.328,129.099
586.134,130.786
585.941,131.255
585.747,132.286
585.553,133.505
585.36,134.911
585.166,137.02
584.972,139.223
584.778,140.817
584.585,142.41
584.391,144.051
584.197,145.598
584.004,147.051
583.81,148.457
583.616,149.91
583.422,151.269
583.229,152.628
583.035,153.988
582.841,155.347
582.647,156.847
582.454,158.534
582.26,160.268
582.066,161.909
581.873,163.362
581.679,164.674
581.485,165.893
581.291,167.205
581.098,168.799
580.904,169.361
580.71,169.221
580.516,169.127
580.323,169.033
580.129,168.893
579.935,168.799
579.742,168.611
579.548,168.424
579.354,168.236
579.16,168.049
578.967,167.861
578.773,167.721
578.579,167.533
578.385,167.393
578.192,167.205
577.998,167.065
577.804,166.971
577.611,166.877
577.417,166.783
577.223,166.736
577.029,166.643
576.836,166.596
576.642,166.502
576.448,166.268
576.255,166.08
576.061,165.893
575.867,165.658
575.673,165.471
575.48,165.33
575.286,165.33
575.092,165.33
574.898,165.518
574.705,165.705
574.511,165.846
574.317,166.736
574.124,167.815
573.93,168.986
573.736,170.158
573.542,171.33
573.349,172.502
573.155,174.095
572.961,176.017
572.768,177.892
572.574,179.86
572.38,181.735
572.186,183.751
571.993,185.813
571.799,186.891
571.605,187.125
571.411,186.704
571.218,186.235
571.024,185.766
570.83,185.297
570.637,184.922
570.443,184.594
570.249,184.594
570.055,184.548
569.862,185.344
569.668,186.422
569.474,187.735
569.281,189.094
569.087,190.641
568.893,192.094
568.699,193.594
568.506,195.656
568.312,197.437
568.118,197.531
567.924,196.921
567.731,196.265
567.537,195.609
567.343,194.625
567.15,193.594
566.956,192.656
566.762,191.578
566.568,190.734
566.375,190.5
566.181,194.765
565.987,198.984
565.793,203.577
565.6,208.077
565.406,212.53
565.212,217.029
565.019,221.529
564.825,226.075
564.631,230.669
564.437,239.527
564.244,246.839
564.05,252.792
563.856,256.495
563.662,261.135
563.469,262.072
563.275,260.76
563.081,258.651
562.888,256.073
562.694,252.979
562.5,249.886
562.306,246.23
562.113,244.121
561.919,240.512
561.725,235.684
561.531,231.7
561.338,226.497
561.144,220.357
560.95,212.436
560.757,206.061
560.563,195.937
560.369,167.815
560.175,153.753
559.982,134.864
559.788,126.287
559.594,120.662
559.401,117.803
559.207,115.647
559.013,113.725
558.819,112.835
558.626,111.944
558.432,111.335
558.238,111.147
558.044,110.96
557.851,110.022
557.657,110.866
557.463,110.96
557.27,111.382
557.076,111.944
556.882,112.507
556.688,113.21
556.495,114.194
556.301,115.225
556.107,116.209
555.914,117.475
555.72,118.74
555.526,120.006
555.332,121.553
555.139,123.474
554.945,125.443
554.751,128.115
554.557,131.114
554.364,135.942
554.17,141.473
553.976,144.988
553.783,148.597
553.589,153.425
553.395,160.784
553.201,169.83
553.008,187.641
552.814,208.452
552.62,229.122
552.427,229.919
552.233,215.717
552.039,196.406
551.845,191.063
551.652,191.109
551.458,189.469
551.264,199.312
551.07,207.842
550.877,213.233
550.683,217.685
550.489,221.576
550.296,224.857
550.102,228.138
549.908,231.512
549.714,235.403
549.521,240.137
549.327,243.371
549.133,245.855
548.939,246.933
548.746,247.402
548.552,247.308
548.358,247.636
548.165,246.464
547.971,244.777
547.777,242.902
547.583,239.012
547.39,234.887
547.196,229.872
547.002,222.607
546.808,215.529
546.615,170.486
546.421,164.159
546.227,160.315
546.034,156.097
545.84,152.722
545.646,149.254
545.452,147.238
545.259,145.223
545.065,143.348
544.871,142.41
544.678,141.473
544.484,140.536
544.29,139.504
544.096,138.942
543.903,138.52
543.709,138.333
543.515,137.958
543.321,137.958
543.128,138.098
542.934,138.286
542.74,138.52
542.547,138.754
542.353,139.083
542.159,139.317
541.965,139.692
541.772,140.161
541.578,140.629
541.384,141.239
541.191,141.942
540.997,142.645
540.803,143.348
540.609,144.145
540.416,144.941
540.222,145.785
540.028,146.629
539.834,147.472
539.641,148.316
539.447,149.16
539.253,150.238
539.06,151.456
538.866,152.675
538.672,153.894
538.478,155.066
538.285,156.284
538.091,157.503
537.897,158.768
537.703,159.987
537.51,161.159
537.316,162.377
537.122,163.549
536.929,164.815
536.735,166.08
536.541,167.674
536.347,169.221
536.154,170.767
535.96,172.361
535.766,173.908
535.573,175.408
535.379,177.048
535.185,178.735
534.991,180.423
534.798,182.11
534.604,183.798
534.41,185.485
534.216,187.172
534.023,188.766
533.829,190.453
533.635,192
533.442,193.594
533.248,195.281
533.054,196.828
532.86,198.656
532.667,200.624
532.473,202.499
532.279,204.468
532.086,206.343
531.892,208.264
531.698,210.233
531.504,212.201
531.311,214.076
531.117,216.092
530.923,218.013
530.729,219.982
530.536,221.951
530.342,223.966
530.148,225.935
529.955,227.95
529.761,229.872
529.567,231.747
529.373,233.528
529.18,235.262
528.986,237.043
528.792,238.777
528.599,240.558
528.405,242.293
528.211,244.074
528.017,245.808
527.824,247.636
527.63,249.886
527.436,252.089
527.242,254.339
527.049,256.542
526.855,258.791
526.661,260.994
526.468,263.244
526.274,265.541
526.08,267.837
525.886,270.181
525.693,272.478
525.499,274.774
525.305,277.024
525.111,278.852
524.918,280.727
524.724,282.555
524.53,284.43
524.337,286.258
524.143,288.086
523.949,289.586
523.755,291.086
523.562,292.585
523.368,294.085
523.174,295.585
522.98,297.085
522.787,298.585
522.593,299.85
522.399,301.21
522.206,302.428
522.012,303.694
521.818,305.006
521.624,306.272
521.431,307.537
521.237,308.522
521.043,309.412
520.849,310.256
520.656,311.146
520.462,312.037
520.268,312.927
520.075,313.818
519.881,314.755
519.687,315.74
519.493,316.677
519.3,317.521
519.106,318.083
518.912,316.302
518.719,317.849
518.525,317.427
518.331,317.005
518.137,316.396
517.944,315.365
517.75,313.818
517.556,311.803
517.362,308.475
517.169,305.006
516.975,300.835
516.781,296.757
516.588,292.82
516.394,289.07
516.2,285.461
516.006,281.852
515.813,277.493
515.619,272.946
515.425,268.494
515.232,264.416
515.038,260.338
514.844,256.26
514.65,253.12
514.457,249.98
514.263,246.886
514.069,243.746
513.875,240.371
513.682,236.434
513.488,232.497
513.294,228.653
513.101,224.997
512.907,221.294
512.713,217.638
512.519,214.076
512.326,210.514
512.132,206.999
511.938,203.296
511.744,199.593
511.551,196.828
511.357,194.109
511.163,191.578
510.97,189.094
510.776,187.828
510.582,186.891
510.388,185.954
510.195,185.204
510.001,184.454
509.807,183.751
509.614,182.11
509.42,178.923
509.226,170.814
509.032,166.08
508.839,162.049
508.645,158.44
508.451,155.159
508.257,152.16
508.064,147.566
507.87,144.707
507.676,142.457
507.483,140.489
507.289,138.567
507.095,136.739
506.901,134.817
506.708,132.849
506.514,130.599
506.32,128.349
506.126,126.146
505.933,123.943
505.739,122.115
505.545,120.522
505.352,118.928
505.158,117.334
504.964,116.069
504.77,114.944
504.577,113.866
504.383,112.741
504.189,111.663
503.996,110.632
503.802,109.554
503.608,108.476
503.414,107.398
503.221,106.413
503.027,105.242
502.833,104.117
502.639,103.039
502.446,101.914
502.252,100.789
502.058,99.6171
501.865,98.4453
501.671,97.3204
501.477,96.1955
501.283,95.4455
501.09,94.6956
500.896,93.9456
500.702,93.3832
500.509,93.0082
500.315,92.6332
500.121,92.2583
499.927,91.8833
499.734,91.5084
499.54,91.1334
499.346,90.7584
499.152,90.3835
498.959,90.0554
498.765,89.6804
498.571,89.3054
498.378,88.9304
498.184,88.6023
497.99,88.2274
497.796,87.8524
497.603,87.5243
497.409,87.1962
497.215,86.7744
497.021,86.4463
496.828,86.0713
496.634,85.7432
496.44,85.3683
496.247,85.0402
496.053,84.6652
495.859,84.3371
495.665,84.009
495.472,83.7278
495.278,83.3997
495.084,83.1184
494.891,82.8372
494.697,82.5091
494.503,82.181
494.309,81.8998
494.116,81.5717
493.922,81.3373
493.728,81.103
493.534,80.9155
493.341,80.6811
493.147,80.4937
492.953,80.3062
492.76,80.0249
492.566,79.8374
492.372,79.7437
492.178,79.6031
491.985,79.5093
491.791,79.3687
491.597,79.275
491.403,79.1344
491.21,79.1344
491.016,79.1344
490.822,79.1344
490.629,79.1344
490.435,79.1812
490.241,79.1812
490.047,79.2281
489.854,79.275
489.66,79.3687
489.466,79.4156
489.273,79.5093
489.079,79.6031
488.885,79.6968
488.691,79.7906
488.498,79.8843
488.304,79.9312
488.11,80.0249
487.916,80.1656
487.723,80.3062
487.529,80.4937
487.335,80.6343
487.142,80.8217
486.948,81.0092
486.754,81.1967
486.56,81.3842
486.367,81.5717
486.173,81.7592
485.979,81.8998
485.785,82.0872
485.592,82.2747
485.398,82.3685
485.204,82.5091
485.011,82.6497
484.817,82.6966
484.623,82.8372
484.429,82.9778
484.236,83.0716
484.042,83.1653
483.848,83.3059
483.655,83.3997
483.461,83.5403
483.267,83.634
483.073,83.7278
482.88,83.8684
482.686,83.9621
482.492,84.1027
482.298,84.1965
482.105,84.3839
481.911,84.5246
481.717,84.7121
481.524,84.8995
481.33,85.0402
481.136,85.2276
480.942,85.4151
480.749,85.5557
480.555,85.7432
480.361,85.9307
480.167,86.1182
479.974,86.2588
479.78,86.3994
479.586,86.4932
479.393,86.5869
479.199,86.6806
479.005,86.7744
478.811,86.8681
478.618,87.0087
478.424,87.1025
478.23,87.1962
478.037,87.3368
477.843,87.3837
477.649,87.5243
477.455,87.5712
477.262,87.6649
477.068,87.7587
476.874,87.8524
476.68,87.9461
476.487,88.0399
476.293,88.1336
476.099,88.2274
475.906,88.3211
475.712,88.4149
475.518,88.5086
475.324,88.6023
475.131,88.6961
474.937,88.743
474.743,88.743
474.549,88.7898
474.356,88.8367
474.162,88.8836
473.968,88.8836
473.775,88.8836
473.581,88.8836
473.387,88.9304
473.193,88.9304
473,88.9304
472.806,88.9773
472.612,88.9773
472.419,88.9773
472.225,88.9773
472.031,88.9304
471.837,88.8836
471.644,88.7898
471.45,88.743
471.256,88.6961
471.062,88.6492
470.869,88.5555
470.675,88.5086
470.481,88.4617
470.288,88.368
470.094,88.3211
469.9,88.1805
469.706,88.0868
469.513,87.993
469.319,87.8993
469.125,87.7587
468.932,87.6649
468.738,87.5712
468.544,87.5712
468.35,87.6649
468.157,87.6649
467.963,87.7118
467.769,87.7587
467.575,87.8055
467.382,87.8055
467.188,87.8524
466.994,87.8993
466.801,87.9461
466.607,87.993
466.413,88.0399
466.219,88.0399
466.026,88.0399
465.832,88.0399
465.638,88.0399
465.444,88.0399
465.251,88.0399
465.057,87.993
464.863,87.993
464.67,87.993
464.476,87.993
464.282,87.993
464.088,87.993
463.895,87.993
463.701,87.9461
463.507,87.9461
463.314,87.8993
463.12,87.8524
462.926,87.8055
462.732,87.7587
462.539,87.7118
462.345,87.6649
462.151,87.6649
461.957,87.5712
461.764,87.5712
461.57,87.5243
461.376,87.5243
461.183,87.4306
460.989,87.3837
460.795,87.3368
460.601,87.3368
460.408,87.3368
460.214,87.3368
460.02,87.3368
459.826,87.3837
459.633,87.3837
459.439,87.3837
459.245,87.4306
459.052,87.4306
458.858,87.5243
458.664,87.5243
458.47,87.5243
458.277,87.5243
458.083,87.5243
457.889,87.5243
457.696,87.5712
457.502,87.5712
457.308,87.5712
457.114,87.5712
456.921,87.5243
456.727,87.5243
456.533,87.5243
456.339,87.5243
456.146,87.4306
455.952,87.4306
455.758,87.3837
455.565,87.3837
455.371,87.3368
455.177,87.3368
454.983,87.3368
454.79,87.2431
454.596,87.2431
454.402,87.1962
454.208,87.1962
454.015,87.1962
453.821,87.1025
453.627,87.0556
453.434,87.0087
453.24,87.0087
453.046,86.9619
452.852,86.915
452.659,86.915
452.465,86.8681
452.271,86.8681
452.078,86.8681
451.884,86.8213
451.69,86.8213
451.496,86.8213
451.303,86.8213
451.109,86.8213
450.915,86.8213
450.721,86.8213
450.528,86.8213
450.334,86.7744
450.14,86.7744
449.947,86.7744
449.753,86.7744
449.559,86.7744
449.365,86.7744
449.172,86.7744
448.978,86.7744
448.784,86.7275
448.59,86.7275
448.397,86.7275
448.203,86.7275
448.009,86.7275
447.816,86.7275
447.622,86.7275
447.428,86.6806
447.234,86.6338
447.041,86.5869
446.847,86.54
446.653,86.4932
446.46,86.4463
446.266,86.3994
446.072,86.3525
445.878,86.3057
445.685,85.9307
445.491,84.2902
445.297,82.556
445.103,80.728
444.91,78.9
444.716,77.1189
444.522,76.0878
444.329,75.6191
444.135,75.5253
443.941,75.4784
443.747,75.4784
443.554,75.4784
443.36,75.3847
443.166,75.3847
442.973,75.4784
442.779,75.4784
442.585,75.5253
442.391,75.5253
442.198,75.6191
442.004,75.6191
441.81,75.6191
441.616,75.6191
441.423,75.6659
441.229,75.6659
441.035,75.6659
440.842,75.6659
440.648,75.8065
440.454,75.8065
440.26,75.9472
440.067,75.9472
439.873,76.0409
439.679,76.0878
439.485,76.1346
439.292,76.1815
439.098,76.2753
438.904,76.3221
438.711,76.4159
438.517,76.4627
438.323,76.5096
438.129,76.5565
437.936,76.6034
437.742,76.6502
437.548,76.6971
437.355,76.6971
437.161,76.744
436.967,76.7908
436.773,76.8377
436.58,76.8377
436.386,76.8846
436.192,76.9315
435.998,76.9783
435.805,76.9783
435.611,77.0252
435.417,77.0252
435.224,77.0721
435.03,77.1189
434.836,77.1658
434.642,77.2127
434.449,77.2596
434.255,77.3064
434.061,77.4001
433.867,77.447
433.674,77.4939
433.48,77.5408
433.286,77.5876
433.093,77.6345
432.899,77.7282
432.705,77.822
432.511,77.822
432.318,77.8689
432.124,77.9626
431.93,78.0095
431.737,78.0563
431.543,78.1501
431.349,78.197
431.155,78.2907
430.962,78.2907
430.768,78.3376
430.574,78.3845
430.38,78.4313
430.187,78.5251
429.993,78.5719
429.799,78.6188
429.606,78.6656
429.412,78.7126
429.218,78.7594
429.024,78.8531
428.831,78.9
428.637,78.9469
428.443,78.9937
428.249,79.0406
428.056,79.0875
427.862,79.1812
427.668,79.2281
427.475,79.275
427.281,79.3219
427.087,79.4156
426.893,79.4625
426.7,79.5093
426.506,79.5562
426.312,79.65
426.119,79.6968
425.925,79.7906
425.731,79.8843
425.537,79.9781
425.344,80.0249
425.15,80.1656
424.956,80.2124
424.762,80.3062
424.569,80.353
424.375,80.4937
424.181,80.5405
423.988,80.6343
423.794,80.6811
423.6,80.7749
423.406,80.8217
423.213,80.9155
423.019,81.0092
422.825,81.103
422.632,81.1498
422.438,81.2436
422.244,81.3373
422.05,81.4311
421.857,81.4779
421.663,81.5717
421.469,81.6186
421.275,81.7123
421.082,81.806
420.888,81.8529
420.694,81.8998
420.501,81.9467
420.307,81.9935
420.113,82.0872
419.919,82.1342
419.726,82.181
419.532,82.2279
419.338,82.2747
419.144,82.3216
418.951,82.3685
418.757,82.4153
418.563,82.5091
418.37,82.556
418.176,82.6497
417.982,82.6497
417.788,82.6966
417.595,82.6966
417.401,82.7435
417.207,82.7435
417.013,82.7435
416.82,82.7435
416.626,82.7435
416.432,82.7435
416.239,82.8372
416.045,82.8372
415.851,82.8372
415.657,82.8372
415.464,82.8372
415.27,82.8372
415.076,82.8372
414.883,82.8372
414.689,82.8372
414.495,82.8372
414.301,82.8372
414.108,82.8372
413.914,82.8372
413.72,82.8372
413.526,82.6966
413.333,82.556
413.139,82.5091
412.945,82.3216
412.752,82.2279
412.558,82.0872
412.364,81.9467
412.17,81.7592
411.977,81.6186
411.783,81.4779
411.589,81.3373
411.396,81.1498
411.202,81.0092
411.008,80.8686
410.814,80.728
410.621,80.6343
410.427,80.4937
410.233,80.3062
410.039,80.2124
409.846,80.0718
409.652,79.9312
409.458,79.7906
409.265,79.7437
409.071,79.65
408.877,79.65
408.683,79.6031
408.49,79.6031
408.296,79.5562
408.102,79.5562
407.908,79.5562
407.715,79.5562
407.521,79.5093
407.327,79.5093
407.134,79.4625
406.94,79.4625
406.746,79.4625
406.552,79.5093
406.359,79.5093
406.165,79.5562
405.971,79.6031
405.778,79.65
405.584,79.65
405.39,79.6968
405.196,79.6968
405.003,79.7437
404.809,79.7437
404.615,79.7906
404.421,79.7906
404.228,79.7906
404.034,79.7906
403.84,79.7906
403.647,79.7437
403.453,79.7437
403.259,79.6968
403.065,79.6968
402.872,79.6968
402.678,79.6968
402.484,79.65
402.29,79.65
402.097,79.6031
401.903,79.6031
401.709,79.6031
401.516,79.6031
401.322,79.5562
401.128,79.5093
400.934,79.4625
400.741,79.4156
400.547,79.3219
400.353,79.2281
400.16,79.1344
399.966,79.0875
399.772,78.9937
399.578,78.9469
399.385,78.9
399.191,78.8531
398.997,78.8063
398.803,78.7594
398.61,78.7126
398.416,78.6656
398.222,78.6188
398.029,78.5719
397.835,78.5251
397.641,78.4782
397.447,78.4313
397.254,78.3845
397.06,78.2907
396.866,78.2907
396.672,78.197
396.479,78.1501
396.285,78.1501
396.091,78.0563
395.898,78.0095
395.704,77.9626
395.51,77.9626
395.316,77.822
395.123,77.6814
394.929,77.5408
394.735,77.4001
394.542,77.3064
394.348,77.1658
394.154,77.0721
393.96,76.9315
393.767,76.7908
393.573,76.6502
393.379,76.5565
393.185,76.4159
392.992,76.369
392.798,76.2753
392.604,76.2753
392.411,76.2284
392.217,76.1815
392.023,76.1346
391.829,76.1346
391.636,76.0878
391.442,76.0409
391.248,75.994
391.055,75.994
390.861,75.994
390.667,75.994
390.473,75.994
390.28,76.0878
390.086,76.1815
389.892,76.2753
389.698,76.369
389.505,76.4627
389.311,76.5565
389.117,76.6502
388.924,76.744
388.73,76.8846
388.536,76.9783
388.342,77.0721
388.149,77.1658
387.955,77.3064
387.761,77.3064
387.567,77.3064
387.374,77.3064
387.18,77.1189
386.986,76.8846
386.793,76.4627
386.599,75.994
386.405,75.6191
386.211,75.1035
386.018,74.7285
385.824,74.3066
385.63,73.9317
385.436,73.5099
385.243,73.1349
385.049,72.713
384.855,72.3381
384.662,71.9163
384.468,71.5413
384.274,71.1194
384.08,70.9788
383.887,70.9319
383.693,70.9319
383.499,70.9319
383.306,70.9788
383.112,71.0257
382.918,71.1194
382.724,71.26
382.531,71.3538
382.337,71.4475
382.143,71.5881
381.949,71.7288
381.756,71.9163
381.562,72.0569
381.368,72.2912
381.175,72.5256
380.981,72.7599
380.787,72.9474
380.593,73.1818
380.4,73.463
380.206,73.6505
380.012,73.8848
379.819,74.1192
379.625,74.3066
379.431,74.541
379.237,74.7754
379.044,74.9629
378.85,75.1035
378.656,75.291
378.462,75.4784
378.269,75.6191
378.075,75.8065
377.881,75.994
377.688,76.1346
377.494,76.3221
377.3,76.4627
377.106,76.6502
376.913,76.7908
376.719,76.9783
376.525,77.1658
376.331,77.3533
376.138,77.4939
375.944,77.6814
375.75,77.822
375.557,77.9626
375.363,78.0095
375.169,78.1501
374.975,78.2907
374.782,78.3376
374.588,78.4313
374.394,78.5719
374.201,78.6656
374.007,78.7594
373.813,78.8531
373.619,78.9937
373.426,79.0875
373.232,79.1812
373.038,79.275
372.844,79.4156
372.651,79.5093
372.457,79.6031
372.263,79.6968
372.07,79.8374
371.876,79.9312
371.682,80.0249
371.488,80.1656
371.295,80.3062
371.101,80.353
370.907,80.4937
370.714,80.4937
370.52,80.6343
370.326,80.6811
370.132,80.7749
369.939,80.8217
369.745,80.9155
369.551,81.0092
369.357,81.103
369.164,81.1498
368.97,81.2436
368.776,81.3373
368.583,81.4311
368.389,81.4779
368.195,81.5717
368.001,81.6654
367.808,81.7592
367.614,81.806
367.42,81.8998
367.226,81.9935
367.033,82.0872
366.839,82.1342
366.645,82.2747
366.452,82.3685
366.258,82.5091
366.064,82.556
365.87,82.6966
365.677,82.8372
365.483,82.9778
365.289,83.0247
365.095,83.1184
364.902,83.2122
364.708,83.3528
364.514,83.4465
364.321,83.5871
364.127,83.6809
363.933,83.7746
363.739,83.8684
363.546,84.009
363.352,84.1027
363.158,84.1965
362.965,84.2902
362.771,84.4308
362.577,84.5246
362.383,84.6652
362.19,84.7589
361.996,84.8527
361.802,84.9933
361.608,85.087
361.415,85.1808
361.221,85.3214
361.027,85.3683
360.834,85.462
360.64,85.5557
360.446,85.6495
360.252,85.6964
360.059,85.7901
359.865,85.8839
359.671,85.9776
359.478,86.0713
359.284,86.165
359.09,86.2588
358.896,86.3525
358.703,86.4463
358.509,86.54
358.315,86.6338
358.121,86.7275
357.928,86.7744
357.734,86.8681
357.54,86.9619
357.347,87.0556
357.153,87.1962
356.959,87.2431
356.765,87.3368
356.572,87.4306
356.378,87.5243
356.184,87.6649
355.99,87.7118
355.797,87.8055
355.603,87.8993
355.409,87.993
355.216,88.0399
355.022,88.1336
354.828,88.2274
354.634,88.3211
354.441,88.4149
354.247,88.5086
354.053,88.6023
353.859,88.6961
353.666,88.7898
353.472,88.8836
353.278,88.9304
353.085,89.0242
352.891,89.1179
352.697,89.2117
352.503,89.3054
352.31,89.3992
352.116,89.5398
351.922,89.5866
351.729,89.6804
351.535,89.7741
351.341,89.8679
351.147,89.9148
350.954,90.0085
350.76,90.1022
350.566,90.196
350.372,90.2897
350.179,90.3835
349.985,90.4772
349.791,90.5241
349.598,90.6178
349.404,90.7115
349.21,90.8053
349.016,90.899
348.823,90.9928
348.629,91.0865
348.435,91.1803
348.242,91.274
348.048,91.3677
347.854,91.4146
347.66,91.5084
347.467,91.6021
347.273,91.6958
347.079,91.7896
346.885,91.9302
346.692,92.0708
346.498,92.2114
346.304,92.352
346.111,92.4458
345.917,92.5864
345.723,92.727
345.529,92.8207
345.336,92.9614
345.142,93.102
344.948,93.2426
344.754,93.3363
344.561,93.4769
344.367,93.6176
344.173,93.7582
343.98,93.8519
343.786,93.9925
343.592,94.1331
343.398,94.2738
343.205,94.3675
343.011,94.555
342.817,94.6956
342.624,94.7893
342.43,94.8831
342.236,95.0237
342.042,95.1643
341.849,95.3049
341.655,95.3987
341.461,95.5393
341.267,95.6799
341.074,95.8205
340.88,95.9142
340.686,96.0548
340.493,96.1955
340.299,96.3829
340.105,96.5704
339.911,96.7579
339.718,96.8985
339.524,97.086
339.33,97.2266
339.136,97.4141
338.943,97.6016
338.749,97.7891
338.555,97.9297
338.362,98.1172
338.168,98.3047
337.974,98.4922
337.78,98.6328
337.587,98.8203
337.393,99.0546
337.199,99.2421
337.006,99.3827
336.812,99.5233
336.618,99.6639
336.424,99.8514
336.231,100.039
336.037,100.226
335.843,100.367
335.649,100.554
335.456,100.742
335.262,100.929
335.068,101.07
334.875,101.258
334.681,101.445
334.487,101.633
334.293,101.773
334.1,102.007
333.906,102.195
333.712,102.429
333.518,102.664
333.325,102.898
333.131,103.132
332.937,103.367
332.744,103.601
332.55,103.789
332.356,104.07
332.162,104.257
331.969,104.492
331.775,104.726
331.581,104.914
331.388,105.148
331.194,105.382
331,105.617
330.806,105.851
330.613,106.085
330.419,106.32
330.225,106.554
330.031,106.741
329.838,106.976
329.644,107.21
329.45,107.491
329.257,107.726
329.063,108.054
328.869,108.335
328.675,108.663
328.482,108.944
328.288,109.273
328.094,109.554
327.901,109.882
327.707,110.163
327.513,110.491
327.319,110.772
327.126,111.1
326.932,111.382
326.738,111.71
326.544,111.991
326.351,112.319
326.157,112.6
325.963,112.975
325.77,113.21
325.576,113.632
325.382,114.007
325.188,114.475
324.995,114.897
324.801,115.319
324.607,115.788
324.413,116.209
324.22,116.631
324.026,117.1
323.832,117.522
323.639,117.991
323.445,118.412
323.251,118.881
323.057,119.303
322.864,119.772
322.67,120.193
322.476,120.662
322.283,121.131
322.089,121.834
321.895,122.537
321.701,123.24
321.508,123.896
321.314,124.599
321.12,125.302
320.926,126.005
320.733,126.662
320.539,127.365
320.345,128.068
320.152,128.771
319.958,129.521
319.764,130.177
319.57,130.833
319.377,131.63
319.183,132.38
318.989,133.177
318.795,133.927
318.602,134.677
318.408,135.427
318.214,136.223
318.021,136.973
317.827,137.77
317.633,138.52
317.439,139.317
317.246,140.067
317.052,140.723
316.858,141.332
316.665,141.285
316.471,141.239
316.277,141.145
316.083,141.098
315.89,140.957
315.696,140.817
315.502,140.676
315.308,140.489
315.115,140.207
314.921,139.879
314.727,139.598
314.534,139.27
314.34,138.989
314.146,138.661
313.952,138.426
313.759,138.145
313.565,137.911
313.371,137.676
313.177,137.489
312.984,137.301
312.79,137.348
312.596,137.395
312.403,137.442
312.209,137.489
312.015,137.583
311.821,137.63
311.628,137.77
311.434,137.911
311.24,138.145
311.047,138.379
310.853,138.614
310.659,138.895
310.465,139.129
310.272,139.411
310.078,139.786
309.884,140.114
309.69,140.817
309.497,141.473
309.303,142.176
309.109,142.879
308.916,143.582
308.722,144.238
308.528,145.27
308.334,146.301
308.141,147.332
307.947,148.316
307.753,149.394
307.56,150.378
307.366,151.597
307.172,152.816
306.978,154.269
306.785,155.675
306.591,157.081
306.397,158.487
306.203,159.706
306.01,160.924
305.816,162.096
305.622,163.268
305.429,164.44
305.235,165.565
305.041,166.736
304.847,167.908
304.654,169.08
304.46,170.205
304.266,171.377
304.072,172.548
303.879,173.908
303.685,175.173
303.491,176.533
303.298,177.798
303.104,179.11
302.91,180.423
302.716,181.735
302.523,183.048
302.329,184.407
302.135,185.766
301.941,187.407
301.748,189.094
301.554,190.828
301.36,192.516
301.167,194.25
300.973,195.984
300.779,197.765
300.585,199.406
300.392,202.359
300.198,205.218
300.004,207.655
299.811,209.999
299.617,210.092
299.423,209.811
299.229,209.999
299.036,209.67
298.842,209.389
298.648,209.061
298.454,208.733
298.261,208.405
298.067,207.561
297.873,206.718
297.68,205.03
297.486,203.39
297.292,200.484
297.098,197.484
296.905,194.156
296.711,190.828
296.517,189.797
296.323,188.766
296.13,188.438
295.936,188.063
295.742,188.157
295.549,188.297
295.355,188.438
295.161,188.766
294.967,188.907
294.774,189.235
294.58,189.563
294.386,189.891
294.193,190.5
293.999,191.109
293.805,192.562
293.611,193.969
293.418,195.797
293.224,197.625
293.03,199.968
292.836,202.218
292.643,204.468
292.449,206.577
292.255,208.546
292.062,210.514
291.868,212.67
291.674,214.779
291.48,217.498
291.287,220.216
291.093,223.122
290.899,226.075
290.706,229.122
290.512,232.169
290.318,234.934
290.124,237.652
289.931,240.09
289.737,242.527
289.543,245.058
289.349,247.542
289.156,252.089
288.962,256.542
288.768,262.916
288.575,269.29
288.381,275.665
288.187,281.993
287.993,288.367
287.8,294.741
287.606,301.116
287.412,307.444
287.219,313.818
287.025,320.192
286.831,326.567
286.637,332.941
286.444,339.316
286.25,345.643
286.056,357.83
285.862,369.97
285.669,375.453
285.475,380.937
285.281,387.124
285.088,393.265
284.894,401.795
284.7,410.326
284.506,413.372
284.313,416.466
284.119,419.465
283.925,422.418
283.731,435.87
283.538,449.322
283.344,450.963
283.15,452.556
282.957,453.072
282.763,453.541
282.569,453.634
282.375,453.681
282.182,453.775
281.988,453.822
281.794,453.916
281.6,454.009
281.407,454.291
281.213,454.572
281.019,455.322
280.826,456.025
280.632,458.087
280.438,460.103
280.244,465.305
280.051,470.461
279.857,475.992
279.663,481.523
279.47,485.413
279.276,489.303
279.082,491.694
278.888,494.084
278.695,494.881
278.501,495.678
278.307,495.584
278.113,497.318
277.92,495.022
277.726,494.553
277.532,493.334
277.339,492.116
277.145,490.569
276.951,488.882
276.757,478.992
276.564,469.102
276.37,465.118
276.176,461.134
275.982,459.306
275.789,457.478
275.595,457.337
275.401,456.119
275.208,457.103
275.014,457.056
274.82,457.384
274.626,457.665
274.433,458.978
274.239,460.196
274.045,462.024
273.852,463.852
273.658,465.634
273.464,467.415
273.27,469.336
273.077,471.258
272.883,473.367
272.689,475.43
272.495,477.492
272.302,479.507
272.108,481.757
271.914,483.96
271.721,486.913
271.527,489.819
271.333,493.897
271.139,497.975
270.946,500.506
270.752,502.99
270.558,504.302
270.365,505.755
270.171,505.708
269.977,505.708
269.783,505.708
269.59,505.661
269.396,505.615
269.202,505.568
269.008,505.521
268.815,505.474
268.621,505.427
268.427,505.38
268.234,505.38
268.04,505.333
267.846,505.333
267.652,505.333
267.459,505.333
267.265,505.333
267.071,505.333
266.877,505.333
266.684,505.38
266.49,505.474
266.296,505.849
266.103,506.224
265.909,506.646
265.715,507.114
265.521,507.583
265.328,508.099
265.134,508.614
264.94,509.177
264.747,509.364
264.553,509.599
264.359,509.645
264.165,509.645
263.972,509.552
263.778,509.458
263.584,509.364
263.39,510.489
263.197,508.896
263.003,508.567
262.809,508.286
262.616,508.005
262.422,501.49
262.228,494.928
262.034,492.538
261.841,490.147
261.647,489.444
261.453,488.647
261.259,488.741
261.066,487.147
260.872,489.257
260.678,489.678
260.485,490.897
260.291,492.116
260.097,493.475
259.903,494.834
259.71,495.631
259.516,496.428
259.322,497.225
259.129,498.021
258.935,498.912
258.741,499.756
258.547,500.646
258.354,501.49
258.16,501.912
257.966,502.334
257.772,502.709
257.579,502.709
257.385,502.755
257.191,502.427
256.998,501.959
256.804,503.412
256.61,500.787
256.416,500.084
256.223,499.287
256.029,498.443
255.835,494.647
255.641,490.85
255.448,486.913
255.254,482.976
255.06,479.132
254.867,475.289
254.673,469.43
254.479,463.571
254.285,422.465
254.092,381.359
253.898,373.11
253.704,364.861
253.511,355.44
253.317,346.018
253.123,335.613
252.929,325.208
252.736,317.474
252.542,309.693
252.348,303.178
252.154,296.663
251.961,290.101
251.767,283.492
251.573,278.008
251.38,272.525
251.186,269.056
250.992,265.588
250.798,262.916
250.605,260.197
250.411,254.526
250.217,248.808
250.023,237.184
249.83,225.607
249.636,218.342
249.442,211.123
249.249,206.014
249.055,200.952
248.861,198.187
248.667,195.468
248.474,193.172
248.28,190.922
248.086,184.876
247.893,178.923
247.699,177.423
247.505,175.923
247.311,174.986
247.118,174.048
246.924,173.111
246.73,172.22
246.536,171.33
246.343,170.392
246.149,169.549
245.955,168.658
245.762,167.815
245.568,167.018
245.374,166.127
245.18,165.33
244.987,164.534
244.793,163.69
244.599,162.94
244.406,162.096
244.212,161.581
244.018,161.018
243.824,160.596
243.631,160.034
243.437,159.565
243.243,159.05
243.049,158.581
242.856,158.112
242.662,157.925
242.468,157.643
242.275,157.503
242.081,157.269
241.887,157.081
241.693,156.894
241.5,156.706
241.306,156.519
241.112,156.425
240.918,156.284
240.725,156.19
240.531,156.097
240.337,155.956
240.144,155.815
239.95,155.769
239.756,155.628
239.562,155.581
239.369,155.441
239.175,155.3
238.981,155.253
238.788,155.159
238.594,155.159
238.4,155.159
238.206,155.066
238.013,155.019
237.819,154.644
237.625,154.925
237.431,154.878
237.238,154.878
237.044,154.878
236.85,154.878
236.657,154.925
236.463,154.972
236.269,154.972
236.075,155.019
235.882,155.066
235.688,155.159
235.494,155.159
235.3,155.3
235.107,155.347
234.913,155.487
234.719,155.628
234.526,155.769
234.332,155.909
234.138,156.003
233.944,156.097
233.751,156.237
233.557,156.425
233.363,156.612
233.17,156.8
232.976,156.987
232.782,157.175
232.588,157.409
232.395,157.643
232.201,157.831
232.007,157.972
231.813,158.253
231.62,158.44
231.426,158.768
231.232,159.05
231.039,159.378
230.845,159.706
230.651,160.128
230.457,160.456
230.264,160.784
230.07,161.112
229.876,161.44
229.682,161.768
229.489,162.19
229.295,162.518
229.101,162.846
228.908,163.221
228.714,163.596
228.52,163.924
228.326,164.299
228.133,164.674
227.939,165.19
227.745,165.705
227.552,166.221
227.358,166.69
227.164,167.205
226.97,167.721
226.777,168.236
226.583,168.705
226.389,169.314
226.195,169.83
226.002,170.58
225.808,171.283
225.614,172.033
225.421,172.736
225.227,173.439
225.033,174.189
224.839,174.892
224.646,175.595
224.452,176.392
224.258,177.048
224.064,177.845
223.871,178.689
223.677,179.532
223.483,180.329
223.29,181.22
223.096,182.016
222.902,182.86
222.708,183.751
222.515,184.548
222.321,185.344
222.127,186.235
221.934,187.032
221.74,187.969
221.546,188.813
221.352,189.75
221.159,190.641
220.965,191.578
220.771,192.422
220.577,193.312
220.384,194.203
220.19,195.14
219.996,196.031
219.803,196.968
219.609,197.953
219.415,198.89
219.221,199.874
219.028,200.859
218.834,201.843
218.64,202.827
218.447,203.812
218.253,204.702
218.059,205.452
217.865,206.155
217.672,206.858
217.478,207.514
217.284,208.171
217.09,208.546
216.897,208.874
216.703,208.874
216.509,208.827
216.316,208.78
216.122,208.733
215.928,208.686
215.734,208.639
215.541,208.639
215.347,208.592
215.153,208.546
214.959,208.452
214.766,208.264
214.572,208.077
214.378,207.889
214.185,207.702
213.991,207.374
213.797,207.046
213.603,206.624
213.41,206.249
213.216,205.968
213.022,205.686
212.829,205.452
212.635,205.218
212.441,204.983
212.247,204.796
212.054,204.796
211.86,204.702
211.666,204.702
211.472,204.702
211.279,204.655
211.085,204.561
210.891,204.796
210.698,204.89
210.504,205.218
210.31,205.546
210.116,205.874
209.923,206.155
209.729,206.483
209.535,206.858
209.341,207.233
209.148,207.655
208.954,208.264
208.76,208.874
208.567,209.53
208.373,210.139
208.179,210.795
207.985,211.405
207.792,212.201
207.598,212.998
207.404,213.842
207.211,214.592
207.017,215.389
206.823,216.232
206.629,217.029
206.436,217.873
206.242,218.763
206.048,219.701
205.854,220.591
205.661,221.529
205.467,222.372
205.273,223.263
205.08,224.154
204.886,225.044
204.692,226.403
204.498,227.81
204.305,229.122
204.111,230.434
203.917,231.794
203.723,233.153
203.53,234.512
203.336,235.871
203.142,237.324
202.949,238.777
202.755,240.277
202.561,241.73
202.367,243.23
202.174,244.683
201.98,246.136
201.786,247.589
201.593,249.136
201.399,250.683
201.205,252.276
201.011,253.87
200.818,255.463
200.624,257.057
200.43,258.51
200.236,259.963
200.043,261.135
199.849,262.307
199.655,263.478
199.462,264.603
199.268,265.775
199.074,266.9
198.88,267.791
198.687,268.681
198.493,269.478
198.299,270.228
198.105,270.368
197.912,270.509
197.718,270.603
197.524,273.321
197.331,270.743
197.137,270.743
196.943,270.603
196.749,270.462
196.556,270.275
196.362,270.04
196.168,269.712
195.975,269.337
195.781,268.962
195.587,268.587
195.393,268.166
195.2,267.744
195.006,267.087
194.812,266.384
194.618,265.728
194.425,265.072
194.231,264.135
194.037,263.15
193.844,262.166
193.65,261.182
193.456,260.338
193.262,259.494
193.069,258.698
192.875,257.901
192.681,256.307
192.487,254.714
192.294,253.307
192.1,251.901
191.906,250.589
191.713,249.23
191.519,247.917
191.325,246.605
191.131,245.292
190.938,243.933
190.744,242.621
190.55,241.308
190.357,239.949
190.163,238.59
189.969,237.277
189.775,235.918
189.582,234.653
189.388,233.387
189.194,232.122
189,230.903
188.807,229.778
188.613,228.747
188.419,227.903
188.226,227.013
188.032,226.216
187.838,225.325
187.644,224.529
187.451,223.732
187.257,223.31
187.063,222.888
186.87,222.654
186.676,221.857
186.482,222.372
186.288,222.326
186.095,222.701
185.901,223.029
185.707,223.591
185.513,224.06
185.32,224.716
185.126,225.372
184.932,226.216
184.739,226.919
184.545,227.95
184.351,228.934
184.157,230.059
183.964,231.184
183.77,232.497
183.576,233.762
183.382,235.121
183.189,236.481
182.995,237.84
182.801,239.152
182.608,240.512
182.414,241.871
182.22,243.23
182.026,244.543
181.833,245.667
181.639,246.792
181.445,247.917
181.252,248.995
181.058,250.12
180.864,251.198
180.67,252.323
180.477,253.401
180.283,254.526
180.089,255.651
179.895,256.823
179.702,257.948
179.508,259.119
179.314,260.244
179.121,261.463
178.927,262.541
178.733,263.15
178.539,263.807
178.346,264.369
178.152,264.978
177.958,265.213
177.764,265.26
177.571,265.213
177.377,265.213
177.183,264.838
176.99,264.463
176.796,264.041
176.602,263.619
176.408,263.103
176.215,262.588
176.021,261.557
175.827,260.479
175.634,258.885
175.44,257.245
175.246,251.808
175.052,246.37
174.859,242.34
174.665,238.309
174.471,231.372
174.277,224.388
174.084,219.373
173.89,214.358
173.696,210.608
173.503,206.905
173.309,203.202
173.115,199.499
172.921,194.625
172.728,189.703
172.534,186.704
172.34,183.751
172.146,182.204
171.953,180.657
171.759,179.204
171.565,177.704
171.372,176.345
171.178,174.845
170.984,173.298
170.79,171.752
170.597,170.533
170.403,169.361
170.209,168.752
170.016,168.189
169.822,167.674
169.628,167.018
169.434,166.455
169.241,165.846
169.047,165.33
168.853,164.721
168.659,164.159
168.466,163.549
168.272,163.034
168.078,162.518
167.885,161.956
167.691,161.393
167.497,160.784
167.303,160.174
167.11,159.425
166.916,158.768
166.722,158.018
166.529,157.269
166.335,156.519
166.141,155.769
165.947,154.925
165.754,154.128
165.56,153.472
165.366,152.816
165.172,152.16
164.979,151.503
164.785,150.941
164.591,150.238
164.398,149.582
164.204,148.925
164.01,148.316
163.816,147.66
163.623,147.051
163.429,146.394
163.235,145.785
163.041,145.129
162.848,144.52
162.654,143.91
162.46,143.254
162.267,142.598
162.073,141.989
161.879,141.332
161.685,140.723
161.492,140.067
161.298,139.411
161.104,138.754
160.91,138.145
160.717,137.489
160.523,136.88
160.329,136.223
160.136,135.567
159.942,134.911
159.748,134.302
159.554,133.645
159.361,133.13
159.167,132.567
158.973,132.099
158.78,131.583
158.586,131.068
158.392,130.552
158.198,130.036
158.005,129.521
157.811,129.052
157.617,128.537
157.423,128.021
157.23,127.505
157.036,127.037
156.842,126.521
156.649,126.005
156.455,125.49
156.261,125.021
156.067,124.459
155.874,123.99
155.68,123.474
155.486,122.959
155.293,122.49
155.099,121.975
154.905,121.506
154.711,121.084
154.518,120.615
154.324,120.193
154.13,119.725
153.936,119.303
153.743,118.834
153.549,118.366
153.355,117.897
153.162,117.475
152.968,117.006
152.774,116.584
152.58,116.116
152.387,115.694
152.193,115.225
151.999,114.756
151.805,114.288
151.612,113.866
151.418,113.444
151.224,112.975
151.031,112.507
150.837,112.038
150.643,111.522
150.449,111.1
150.256,110.538
150.062,110.022
149.868,109.507
149.675,109.038
149.481,108.523
149.287,108.054
149.093,107.538
148.9,107.023
148.706,106.507
148.512,106.085
148.318,105.523
148.125,105.007
147.931,104.492
147.737,104.07
147.544,103.507
147.35,102.992
147.156,102.476
146.962,102.007
146.769,101.586
146.575,101.07
146.381,100.554
146.187,100.086
145.994,99.6171
145.8,99.1483
145.606,98.6328
145.413,98.1641
145.219,97.6953
145.025,97.2266
144.831,96.711
144.638,96.2423
144.444,95.7736
144.25,95.3049
144.057,94.8362
143.863,94.4144
143.669,93.9456
143.475,93.6176
143.282,93.2895
143.088,92.9614
142.894,92.6332
142.7,92.352
142.507,92.0239
142.313,91.649
142.119,91.274
141.926,90.9459
141.732,90.6178
141.538,90.2897
141.344,90.0085
141.151,89.6804
140.957,89.3054
140.763,89.0711
140.569,88.8367
140.376,88.6023
140.182,88.3211
139.988,88.0868
139.795,87.8524
139.601,87.6649
139.407,87.3837
139.213,87.1962
139.02,86.915
138.826,86.6806
138.632,86.4463
138.439,86.2119
138.245,85.9776
138.051,85.7432
137.857,85.5089
137.664,85.3214
137.47,84.9933
137.276,84.7121
137.082,84.4308
136.889,84.1496
136.695,83.8684
136.501,83.5871
136.308,83.259
136.114,82.9778
135.92,82.6966
135.726,82.4153
135.533,82.1342
135.339,81.8529
135.145,81.5717
134.952,81.3842
134.758,81.1967
134.564,81.0561
134.37,80.8686
134.177,80.728
133.983,80.5405
133.789,80.3999
133.595,80.2124
133.402,80.0718
133.208,79.8843
133.014,79.7437
132.821,79.6031
132.627,79.5562
132.433,79.4625
132.239,79.3687
132.046,77.3064
131.852,79.1812
131.658,79.0875
131.464,79.0406
131.271,78.9469
131.077,78.8531
130.883,78.7594
130.69,78.7126
130.496,78.6188
130.302,78.6188
130.108,78.6188
129.915,78.6188
129.721,78.6188
129.527,78.6188
129.333,78.6188
129.14,78.6188
128.946,78.6188
128.752,78.6188
128.559,78.6188
128.365,78.6656
128.171,78.7126
127.977,78.7594
127.784,78.8063
127.59,78.9
127.396,78.9469
127.203,79.275
127.009,79.5562
126.815,80.0249
126.621,80.4937
126.428,81.3842
126.234,82.2747
126.04,83.0247
125.846,83.7746
125.653,84.5714
125.459,85.3214
125.265,86.2119
125.072,87.1025
124.878,88.0868
124.684,89.0711
124.49,90.1491
124.297,91.1803
124.103,92.352
123.909,93.5238
123.716,94.6956
123.522,95.8205
123.328,97.086
123.134,98.3047
122.941,99.9452
122.747,101.586
122.553,103.273
122.359,104.96
122.166,106.085
121.972,107.21
121.778,107.304
121.585,107.351
121.391,106.929
121.197,110.163
121.003,105.945
120.81,105.242
120.616,103.46
120.422,101.633
120.228,99.7108
120.035,97.7422
119.841,96.1486
119.647,94.555
119.454,91.6021
119.26,88.6492
119.066,86.3057
118.872,83.9152
118.679,82.4153
118.485,80.8686
118.291,79.7906
118.098,78.7126
117.904,78.2907
117.71,77.822
117.516,77.3064
117.323,76.7908
117.129,76.2284
116.935,75.6659
116.741,75.2441
116.548,74.7754
116.354,74.3066
116.16,73.838
115.967,73.6036
115.773,73.3692
115.579,73.1818
115.385,72.9943
115.192,72.8068
114.998,72.5724
114.804,72.3849
114.61,72.1506
114.417,71.9631
114.223,71.7756
114.029,71.5881
113.836,71.3538
113.642,71.26
113.448,71.1194
113.254,71.0257
113.061,70.9319
112.867,70.9319
112.673,70.7913
112.48,70.6976
112.286,68.9165
112.092,70.557
111.898,70.4632
111.705,70.4164
111.511,70.3226
111.317,70.2757
111.123,70.182
110.93,70.182
110.736,70.1351
110.542,70.0883
110.349,70.0414
110.155,70.0414
109.961,69.9945
109.767,69.9945
109.574,69.9476
109.38,69.9008
109.186,69.8539
108.992,69.8539
108.799,69.807
108.605,69.807
108.411,69.7602
108.218,69.7602
108.024,69.7133
107.83,69.7133
107.636,69.7133
107.443,69.7133
107.249,69.6664
107.055,69.6664
106.862,69.6664
106.668,69.6664
106.474,69.6195
106.28,69.6195
106.087,69.5727
105.893,69.5727
105.699,69.5727
105.505,69.5727
105.312,69.5258
105.118,69.5258
104.924,69.5258
104.731,69.5258
104.537,69.5258
104.343,69.5258
104.149,69.5258
103.956,69.5258
103.762,69.4789
103.568,69.4789
103.375,69.4789
103.181,69.4789
102.987,69.4789
102.793,69.4321
102.6,69.3383
102.406,69.2446
102.212,69.1508
102.018,69.104
101.825,69.0102
101.631,68.9633
101.437,68.9165
101.244,68.8228
101.05,68.7759
100.856,68.6821
100.662,68.5884
100.469,68.5884
100.275,68.4478
100.081,68.4478
99.8875,68.3072
99.6937,68.2134
99.5,68.1197
99.3063,68.0728
99.1126,67.9791
98.9189,67.9322
98.7251,67.8385
98.5314,67.7916
98.3377,67.6978
98.144,67.651
97.9502,67.5572
97.7565,67.5104
97.5628,67.4166
97.3691,67.3698
97.1753,67.276
96.9816,67.2291
96.7879,67.1354
96.5942,67.0416
96.4004,66.9479
96.2067,66.901
96.013,66.8073
95.8193,66.7604
95.6255,66.6667
95.4318,66.6667
95.2381,66.6667" />
</g>
</svg>
