<?xml version="1.0"?>
<svg version="1.1"
     xmlns="http://www.w3.org/2000/svg"
     xmlns:xlink="http://www.w3.org/1999/xlink"
     viewBox="0 0 800 600">
<g>
<text fill="#000000" font-family="sans-serif" font-size="19.0476" text-anchor="start" x="4.7619" y="591.429" >
NIST Chemistry WebBook (https://webbook.nist.gov/chemistry)
</text>
<polyline stroke="#000000" stroke-width="1.19048" fill="none" points="95.2381,514.286
742.857,514.286
742.857,66.6667
95.2381,66.6667
95.2381,514.286" />
<text fill="#000000" font-family="sans-serif" font-size="19.0476" text-anchor="middle" x="419.048" y="24.7619" >
Ethylphthalyl ethyl glycolate
</text>
<text fill="#000000" font-family="sans-serif" font-size="19.0476" text-anchor="middle" x="419.048" y="53.3333" >
INFRARED SPECTRUM
</text>
<text fill="#000000" font-family="sans-serif" font-size="19.0476" text-anchor="middle" x="419.048" y="558.095" >
Wavenumber (cm-1)
</text>
<text fill="#000000" font-family="sans-serif" font-size="19.0476" text-anchor="middle" transform="translate(20,290.476) rotate(270)" x="0" y="0" >
Transmitance
</text>
<text fill="#000000" font-family="sans-serif" font-size="19.0476" text-anchor="middle" x="627.742" y="534.286" >
1000
</text>
<line stroke="#000000" stroke-width="1.19048" x1="627.742" y1="514.286" x2="627.742" y2="504.762" />
<text fill="#000000" font-family="sans-serif" font-size="19.0476" text-anchor="middle" x="437.154" y="534.286" >
2000
</text>
<line stroke="#000000" stroke-width="1.19048" x1="437.154" y1="514.286" x2="437.154" y2="504.762" />
<text fill="#000000" font-family="sans-serif" font-size="19.0476" text-anchor="middle" x="246.565" y="534.286" >
3000
</text>
<line stroke="#000000" stroke-width="1.19048" x1="246.565" y1="514.286" x2="246.565" y2="504.762" />
<line stroke="#000000" stroke-width="1.19048" x1="742.095" y1="514.286" x2="742.095" y2="509.524" />
<line stroke="#000000" stroke-width="1.19048" x1="723.036" y1="514.286" x2="723.036" y2="509.524" />
<line stroke="#000000" stroke-width="1.19048" x1="703.977" y1="514.286" x2="703.977" y2="509.524" />
<line stroke="#000000" stroke-width="1.19048" x1="684.918" y1="514.286" x2="684.918" y2="509.524" />
<line stroke="#000000" stroke-width="1.19048" x1="665.859" y1="514.286" x2="665.859" y2="509.524" />
<line stroke="#000000" stroke-width="1.19048" x1="646.801" y1="514.286" x2="646.801" y2="509.524" />
<line stroke="#000000" stroke-width="1.19048" x1="627.742" y1="514.286" x2="627.742" y2="509.524" />
<line stroke="#000000" stroke-width="1.19048" x1="608.683" y1="514.286" x2="608.683" y2="509.524" />
<line stroke="#000000" stroke-width="1.19048" x1="589.624" y1="514.286" x2="589.624" y2="509.524" />
<line stroke="#000000" stroke-width="1.19048" x1="570.565" y1="514.286" x2="570.565" y2="509.524" />
<line stroke="#000000" stroke-width="1.19048" x1="551.506" y1="514.286" x2="551.506" y2="509.524" />
<line stroke="#000000" stroke-width="1.19048" x1="532.448" y1="514.286" x2="532.448" y2="509.524" />
<line stroke="#000000" stroke-width="1.19048" x1="513.389" y1="514.286" x2="513.389" y2="509.524" />
<line stroke="#000000" stroke-width="1.19048" x1="494.33" y1="514.286" x2="494.33" y2="509.524" />
<line stroke="#000000" stroke-width="1.19048" x1="475.271" y1="514.286" x2="475.271" y2="509.524" />
<line stroke="#000000" stroke-width="1.19048" x1="456.212" y1="514.286" x2="456.212" y2="509.524" />
<line stroke="#000000" stroke-width="1.19048" x1="437.154" y1="514.286" x2="437.154" y2="509.524" />
<line stroke="#000000" stroke-width="1.19048" x1="418.095" y1="514.286" x2="418.095" y2="509.524" />
<line stroke="#000000" stroke-width="1.19048" x1="399.036" y1="514.286" x2="399.036" y2="509.524" />
<line stroke="#000000" stroke-width="1.19048" x1="379.977" y1="514.286" x2="379.977" y2="509.524" />
<line stroke="#000000" stroke-width="1.19048" x1="360.918" y1="514.286" x2="360.918" y2="509.524" />
<line stroke="#000000" stroke-width="1.19048" x1="341.859" y1="514.286" x2="341.859" y2="509.524" />
<line stroke="#000000" stroke-width="1.19048" x1="322.801" y1="514.286" x2="322.801" y2="509.524" />
<line stroke="#000000" stroke-width="1.19048" x1="303.742" y1="514.286" x2="303.742" y2="509.524" />
<line stroke="#000000" stroke-width="1.19048" x1="284.683" y1="514.286" x2="284.683" y2="509.524" />
<line stroke="#000000" stroke-width="1.19048" x1="265.624" y1="514.286" x2="265.624" y2="509.524" />
<line stroke="#000000" stroke-width="1.19048" x1="246.565" y1="514.286" x2="246.565" y2="509.524" />
<line stroke="#000000" stroke-width="1.19048" x1="227.506" y1="514.286" x2="227.506" y2="509.524" />
<line stroke="#000000" stroke-width="1.19048" x1="208.448" y1="514.286" x2="208.448" y2="509.524" />
<line stroke="#000000" stroke-width="1.19048" x1="189.389" y1="514.286" x2="189.389" y2="509.524" />
<line stroke="#000000" stroke-width="1.19048" x1="170.33" y1="514.286" x2="170.33" y2="509.524" />
<line stroke="#000000" stroke-width="1.19048" x1="151.271" y1="514.286" x2="151.271" y2="509.524" />
<line stroke="#000000" stroke-width="1.19048" x1="132.212" y1="514.286" x2="132.212" y2="509.524" />
<line stroke="#000000" stroke-width="1.19048" x1="113.153" y1="514.286" x2="113.153" y2="509.524" />
<text fill="#000000" font-family="sans-serif" font-size="19.0476" text-anchor="end" x="90.4762" y="417.739" >
0.2
</text>
<line stroke="#000000" stroke-width="1.19048" x1="95.2381" y1="413.453" x2="104.762" y2="413.453" />
<text fill="#000000" font-family="sans-serif" font-size="19.0476" text-anchor="end" x="90.4762" y="316.855" >
0.4
</text>
<line stroke="#000000" stroke-width="1.19048" x1="95.2381" y1="312.57" x2="104.762" y2="312.57" />
<text fill="#000000" font-family="sans-serif" font-size="19.0476" text-anchor="end" x="90.4762" y="215.972" >
0.6
</text>
<line stroke="#000000" stroke-width="1.19048" x1="95.2381" y1="211.686" x2="104.762" y2="211.686" />
<text fill="#000000" font-family="sans-serif" font-size="19.0476" text-anchor="end" x="90.4762" y="115.089" >
0.8
</text>
<line stroke="#000000" stroke-width="1.19048" x1="95.2381" y1="110.803" x2="104.762" y2="110.803" />
<line stroke="#000000" stroke-width="1.19048" x1="95.2381" y1="489.115" x2="100" y2="489.115" />
<line stroke="#000000" stroke-width="1.19048" x1="95.2381" y1="463.895" x2="100" y2="463.895" />
<line stroke="#000000" stroke-width="1.19048" x1="95.2381" y1="438.674" x2="100" y2="438.674" />
<line stroke="#000000" stroke-width="1.19048" x1="95.2381" y1="413.453" x2="100" y2="413.453" />
<line stroke="#000000" stroke-width="1.19048" x1="95.2381" y1="388.232" x2="100" y2="388.232" />
<line stroke="#000000" stroke-width="1.19048" x1="95.2381" y1="363.011" x2="100" y2="363.011" />
<line stroke="#000000" stroke-width="1.19048" x1="95.2381" y1="337.79" x2="100" y2="337.79" />
<line stroke="#000000" stroke-width="1.19048" x1="95.2381" y1="312.57" x2="100" y2="312.57" />
<line stroke="#000000" stroke-width="1.19048" x1="95.2381" y1="287.349" x2="100" y2="287.349" />
<line stroke="#000000" stroke-width="1.19048" x1="95.2381" y1="262.128" x2="100" y2="262.128" />
<line stroke="#000000" stroke-width="1.19048" x1="95.2381" y1="236.907" x2="100" y2="236.907" />
<line stroke="#000000" stroke-width="1.19048" x1="95.2381" y1="211.686" x2="100" y2="211.686" />
<line stroke="#000000" stroke-width="1.19048" x1="95.2381" y1="186.465" x2="100" y2="186.465" />
<line stroke="#000000" stroke-width="1.19048" x1="95.2381" y1="161.245" x2="100" y2="161.245" />
<line stroke="#000000" stroke-width="1.19048" x1="95.2381" y1="136.024" x2="100" y2="136.024" />
<line stroke="#000000" stroke-width="1.19048" x1="95.2381" y1="110.803" x2="100" y2="110.803" />
<line stroke="#000000" stroke-width="1.19048" x1="95.2381" y1="85.5822" x2="100" y2="85.5822" />
<polyline stroke="#FF0000" stroke-width="1.19048" fill="none" points="95.2381,75.7462
95.4287,75.7462
95.6193,75.7462
95.8099,75.6957
96.0005,75.6453
96.191,75.6453
96.3816,75.5948
96.5722,75.5948
96.7628,75.5444
96.9534,75.5444
97.144,75.494
97.3346,75.494
97.5252,75.4435
97.7157,75.4435
97.9063,75.3931
98.0969,75.3931
98.2875,75.3426
98.4781,75.3426
98.6687,75.2922
98.8593,75.2922
99.0499,75.2417
99.2405,75.2417
99.431,75.1913
99.6216,75.1409
99.8122,75.0904
100.003,75.0904
100.193,75.0904
100.384,75.0904
100.575,75.0904
100.765,75.0904
100.956,75.0904
101.146,75.0904
101.337,75.0904
101.528,75.0904
101.718,75.0904
101.909,75.0904
102.099,75.04
102.29,75.04
102.48,75.04
102.671,75.04
102.862,75.04
103.052,75.04
103.243,75.04
103.433,75.04
103.624,75.04
103.815,75.04
104.005,75.04
104.196,75.04
104.386,74.9895
104.577,74.9895
104.768,74.9391
104.958,74.9391
105.149,74.8886
105.339,74.8886
105.53,74.8382
105.72,74.8382
105.911,74.7878
106.102,74.7878
106.292,74.7373
106.483,74.7373
106.673,74.6869
106.864,74.6869
107.055,74.6869
107.245,74.6869
107.436,74.6364
107.626,74.6364
107.817,74.586
108.008,74.586
108.198,74.586
108.389,74.586
108.579,74.586
108.77,74.586
108.96,74.586
109.151,74.586
109.342,74.586
109.532,74.586
109.723,74.586
109.913,74.586
110.104,74.586
110.295,74.6364
110.485,74.6364
110.676,74.6364
110.866,74.6364
111.057,74.6869
111.248,74.6869
111.438,74.7373
111.629,74.7878
111.819,74.8382
112.01,74.8886
112.2,74.9391
112.391,74.9895
112.582,75.04
112.772,75.0904
112.963,75.1409
113.153,75.1913
113.344,75.4435
113.535,75.6957
113.725,75.9479
113.916,76.1497
114.106,76.4019
114.297,76.6541
114.488,76.9568
114.678,77.1081
114.869,77.3603
115.059,77.6125
115.25,77.8143
115.44,78.016
115.631,78.2178
115.822,78.3691
116.012,78.5709
116.203,78.7727
116.393,78.9744
116.584,79.1258
116.775,79.3275
116.965,79.5293
117.156,79.731
117.346,79.8824
117.537,80.0337
117.728,80.185
117.918,80.3363
118.109,79.2771
118.299,80.639
118.49,80.6894
118.68,80.7399
118.871,80.6894
119.062,80.5886
119.252,80.4373
119.443,80.3363
119.633,80.2355
119.824,80.1346
120.015,79.9832
120.205,79.8824
120.396,79.7815
120.586,79.6806
120.777,79.6302
120.968,79.4789
121.158,79.3275
121.349,79.2771
121.539,79.1258
121.73,79.0249
121.92,78.924
122.111,78.8231
122.302,78.7222
122.492,78.6213
122.683,78.5204
122.873,78.4196
123.064,78.3187
123.255,78.2178
123.445,78.1169
123.636,78.016
123.826,77.9152
124.017,77.9152
124.208,77.8647
124.398,77.8143
124.589,77.7639
124.779,77.7639
124.97,77.7134
125.16,77.7134
125.351,77.6629
125.542,77.6629
125.732,77.6125
125.923,77.5621
126.113,77.5116
126.304,77.5116
126.495,77.4612
126.685,77.4612
126.876,77.4108
127.066,77.4108
127.257,77.3603
127.448,77.3603
127.638,77.3098
127.829,77.3098
128.019,77.3098
128.21,77.3603
128.4,77.3603
128.591,77.4108
128.782,77.4108
128.972,77.4612
129.163,77.4612
129.353,77.4612
129.544,77.4612
129.735,77.5116
129.925,77.5116
130.116,77.5621
130.306,77.5621
130.497,77.5621
130.688,77.5621
130.878,77.6125
131.069,77.6125
131.259,77.6629
131.45,77.6629
131.64,77.6629
131.831,77.6629
132.022,77.7134
132.212,77.7134
132.403,77.7639
132.593,77.7639
132.784,77.8143
132.975,77.8647
133.165,77.9152
133.356,77.9656
133.546,78.0665
133.737,78.1169
133.928,78.1674
134.118,78.2178
134.309,78.3187
134.499,78.3691
134.69,78.4196
134.88,78.47
135.071,78.6718
135.262,78.8231
135.452,79.1258
135.643,79.2771
135.833,79.5293
136.024,79.7815
136.215,80.0337
136.405,80.2859
136.596,80.5381
136.786,80.7399
136.977,80.9921
137.168,81.2443
137.358,81.4965
137.549,81.6983
137.739,82.0009
137.93,82.1523
138.12,82.354
138.311,82.5558
138.502,82.7575
138.692,82.9593
138.883,83.2115
139.073,83.4133
139.264,83.6151
139.455,83.8168
139.645,84.069
139.836,84.3212
140.026,84.523
140.217,84.6743
140.408,84.8761
140.598,85.0779
140.789,85.2292
140.979,85.3301
141.17,85.4309
141.36,85.4814
141.551,85.5823
141.742,85.6327
141.932,85.7336
142.123,85.784
142.313,85.8849
142.504,85.9354
142.695,86.0363
142.885,86.0867
143.076,86.1876
143.266,86.2885
143.457,86.3893
143.648,86.4398
143.838,86.5407
144.029,86.5911
144.219,86.692
144.41,86.7424
144.6,86.8433
144.791,86.8938
144.982,87.0451
145.172,87.0451
145.363,87.1964
145.553,87.1964
145.744,87.2973
145.935,87.3477
146.125,87.4486
146.316,87.4991
146.506,87.5495
146.697,87.5999
146.888,87.7008
147.078,87.7513
147.269,87.8017
147.459,87.8522
147.65,87.953
147.84,88.0035
148.031,88.0539
148.222,88.1043
148.412,88.1548
148.603,88.2053
148.793,88.3061
148.984,88.3566
149.175,88.407
149.365,88.4575
149.556,88.5583
149.746,88.6088
149.937,88.6592
150.128,88.7097
150.318,88.8105
150.509,88.861
150.699,88.9114
150.89,88.9619
151.08,89.0123
151.271,89.0627
151.462,89.2141
151.652,89.2141
151.843,89.2645
152.033,89.3654
152.224,89.3654
152.415,89.3654
152.605,89.4158
152.796,89.4663
152.986,89.5672
153.177,89.5672
153.368,89.6176
153.558,89.7185
153.749,89.7185
153.939,89.7185
154.13,89.7689
154.32,89.8194
154.511,89.8698
154.702,89.9203
154.892,89.9707
155.083,89.9707
155.273,90.0211
155.464,90.0716
155.655,90.122
155.845,90.1725
156.036,90.2229
156.226,90.2229
156.417,90.2734
156.608,90.3238
156.798,90.3742
156.989,90.4247
157.179,90.4247
157.37,90.4247
157.56,90.4247
157.751,90.4247
157.942,90.4247
158.132,90.4247
158.323,90.4247
158.513,90.4247
158.704,90.4751
158.895,90.4751
159.085,90.4751
159.276,90.4751
159.466,90.4751
159.657,90.4751
159.848,90.4751
160.038,90.4751
160.229,90.4751
160.419,90.4751
160.61,90.4247
160.8,90.3238
160.991,90.2229
161.182,90.122
161.372,90.0211
161.563,89.9203
161.753,89.8194
161.944,89.7185
162.135,89.6176
162.325,89.5672
162.516,89.4663
162.706,89.3654
162.897,89.2645
163.088,89.2141
163.278,89.0627
163.469,88.9619
163.659,88.7601
163.85,88.5583
164.04,88.3566
164.231,88.1548
164.422,87.953
164.612,87.7513
164.803,87.5495
164.993,87.3477
165.184,87.1964
165.375,86.9442
165.565,86.7424
165.756,86.4902
165.946,86.2885
166.137,86.0867
166.328,85.8849
166.518,85.6327
166.709,85.3301
166.899,85.0274
167.09,84.7248
167.28,84.3717
167.471,84.069
167.662,83.7159
167.852,83.4133
168.043,83.1107
168.233,82.808
168.424,82.4549
168.615,82.1523
168.805,81.7992
168.996,81.4965
169.186,81.1939
169.377,80.9417
169.568,80.639
169.758,80.3868
169.949,80.1346
170.139,79.8824
170.33,79.6302
170.52,79.378
170.711,79.1258
170.902,78.8231
171.092,78.5709
171.283,78.3691
171.473,78.1169
171.664,77.9656
171.855,77.7639
172.045,77.5621
172.236,77.3603
172.426,77.209
172.617,77.0072
172.808,76.8055
172.998,76.6037
173.189,76.4019
173.379,76.2001
173.57,76.1497
173.76,76.0993
173.951,76.0993
174.142,76.0993
174.332,76.0993
174.523,76.0993
174.713,76.0993
174.904,76.0993
175.095,76.0993
175.285,76.0993
175.476,76.1497
175.666,76.1497
175.857,76.301
176.048,76.4019
176.238,76.6037
176.429,76.755
176.619,76.8559
176.81,76.9568
177,77.1081
177.191,77.209
177.382,77.3603
177.572,77.5116
177.763,77.6629
177.953,77.7639
178.144,77.9656
178.335,78.1674
178.525,78.4196
178.716,78.6213
178.906,78.8231
179.097,79.0249
179.288,79.2771
179.478,79.4789
179.669,79.6806
179.859,79.8824
180.05,80.0842
180.24,80.2859
180.431,80.4877
180.622,80.6894
180.812,80.8912
181.003,81.093
181.193,81.2947
181.384,81.4461
181.575,81.6478
181.765,81.7992
181.956,82.0009
182.146,82.1523
182.337,82.3036
182.528,82.4549
182.718,82.6567
182.909,82.808
183.099,83.0098
183.29,83.1611
183.48,83.3629
183.671,83.5142
183.862,83.7159
184.052,83.8673
184.243,84.069
184.433,84.2204
184.624,84.3717
184.815,84.523
185.005,84.7248
185.196,84.8761
185.386,85.0779
185.577,85.2292
185.768,85.4309
185.958,85.5823
186.149,85.784
186.339,85.9354
186.53,86.1371
186.72,86.2885
186.911,86.4398
187.102,86.5911
187.292,86.8433
187.483,86.9442
187.673,87.1964
187.864,87.2973
188.055,87.3477
188.245,87.3982
188.436,87.4486
188.626,87.4486
188.817,87.4991
189.008,87.5495
189.198,87.5999
189.389,87.6504
189.579,87.7008
189.77,87.7513
189.96,87.8017
190.151,87.8522
190.342,87.9026
190.532,87.9026
190.723,87.953
190.913,88.0035
191.104,88.0539
191.295,88.1043
191.485,88.1043
191.676,88.1043
191.866,88.1548
192.057,88.1548
192.248,88.2053
192.438,88.2053
192.629,88.2557
192.819,88.2557
193.01,88.3061
193.2,88.3061
193.391,88.3061
193.582,88.3061
193.772,88.3566
193.963,88.3566
194.153,88.407
194.344,88.407
194.535,88.4575
194.725,88.4575
194.916,88.5079
195.106,88.5079
195.297,88.5079
195.488,88.5079
195.678,88.5583
195.869,88.5583
196.059,88.6088
196.25,88.6088
196.44,88.6592
196.631,88.6592
196.822,88.7097
197.012,88.7097
197.203,88.7097
197.393,88.7097
197.584,88.7601
197.775,88.8105
197.965,88.861
198.156,88.861
198.346,88.9114
198.537,88.9619
198.728,89.0123
198.918,89.0123
199.109,89.0627
199.299,89.1132
199.49,89.2141
199.68,89.2141
199.871,89.2141
200.062,89.2141
200.252,89.2645
200.443,89.3654
200.633,89.3654
200.824,89.3654
201.015,89.4158
201.205,89.4663
201.396,89.5672
201.586,89.5672
201.777,89.5672
201.968,89.5672
202.158,89.6176
202.349,89.6176
202.539,89.6176
202.73,89.6176
202.92,89.7185
203.111,89.7185
203.302,89.7185
203.492,89.7185
203.683,89.7185
203.873,89.7185
204.064,89.7689
204.255,89.8194
204.445,89.9203
204.636,90.0211
204.826,90.122
205.017,90.1725
205.208,90.2734
205.398,90.3238
205.589,90.4247
205.779,90.4751
205.97,90.576
206.16,90.6769
206.351,90.7778
206.542,90.8282
206.732,90.9291
206.923,90.9796
207.113,91.0804
207.304,91.1813
207.495,91.2822
207.685,91.3326
207.876,91.4335
208.066,91.4839
208.257,91.5848
208.448,91.6353
208.638,91.7361
208.829,91.7866
209.019,91.8875
209.21,91.9379
209.4,92.0892
209.591,92.0892
209.782,92.2406
209.972,92.2406
210.163,92.3415
210.353,92.3919
210.544,92.4928
210.735,92.5432
210.925,92.6441
211.116,92.6945
211.306,92.745
211.497,92.7954
211.688,92.8963
211.878,92.9468
212.069,93.0476
212.259,93.0981
212.45,93.0981
212.64,93.0981
212.831,93.0476
213.022,92.9972
213.212,92.9468
213.403,92.8963
213.593,92.8459
213.784,92.7954
213.975,92.745
214.165,92.6441
214.356,92.5937
214.546,92.5432
214.737,92.4928
214.928,92.4424
215.118,92.3919
215.309,92.3415
215.499,92.291
215.69,92.2406
215.88,92.2406
216.071,92.2406
216.262,92.2406
216.452,92.1397
216.643,92.0892
216.833,92.0892
217.024,92.0892
217.215,91.9884
217.405,91.9884
217.596,91.9379
217.786,91.8875
217.977,91.8875
218.168,91.8875
218.358,91.7866
218.549,91.7866
218.739,91.7361
218.93,91.7361
219.12,91.7361
219.311,91.7361
219.502,91.7361
219.692,91.7361
219.883,91.7361
220.073,91.7361
220.264,91.7361
220.455,91.7361
220.645,91.7361
220.836,91.7361
221.026,91.7361
221.217,91.7361
221.408,91.7361
221.598,91.7361
221.789,91.7361
221.979,91.8875
222.17,91.8875
222.36,91.9884
222.551,92.0892
222.742,92.2406
222.932,92.2406
223.123,92.3415
223.313,92.3919
223.504,92.4928
223.695,92.5937
223.885,92.6945
224.076,92.745
224.266,92.8459
224.457,92.9468
224.648,93.0476
224.838,93.1485
225.029,93.2494
225.219,93.3503
225.41,93.4512
225.6,93.5521
225.791,93.653
225.982,93.7538
226.172,93.8547
226.363,93.9556
226.553,94.0565
226.744,94.1573
226.935,94.46
227.125,94.7627
227.316,95.0653
227.506,95.368
227.697,95.721
227.888,96.0237
228.078,96.3768
228.269,96.6794
228.459,97.1334
228.65,97.5369
228.84,97.9405
229.031,98.344
229.222,99.1006
229.412,99.8573
229.603,101.118
229.793,102.379
229.984,103.842
230.175,105.255
230.365,108.685
230.556,112.064
230.746,116.301
230.937,120.488
231.128,124.675
231.318,128.861
231.509,133.098
231.699,137.285
231.89,138.395
232.08,141.673
232.271,139.656
232.462,139.656
232.652,139.656
232.843,139.656
233.033,139.404
233.224,139.202
233.415,138.647
233.605,138.042
233.796,137.335
233.986,136.579
234.177,135.62
234.368,134.612
234.558,133.552
234.749,132.594
234.939,131.686
235.13,130.778
235.32,129.921
235.511,129.013
235.702,128.155
235.892,127.348
236.083,126.44
236.273,125.532
236.464,124.675
236.655,123.817
236.845,123.01
237.036,122.102
237.226,121.194
237.417,120.337
237.608,119.479
237.798,118.571
237.989,118.42
238.179,118.369
238.37,118.218
238.561,118.218
238.751,118.218
238.942,118.218
239.132,118.319
239.323,118.369
239.513,118.924
239.704,119.479
239.895,119.983
240.085,120.538
240.276,121.144
240.466,121.749
240.657,122.455
240.848,123.01
241.038,123.666
241.229,124.271
241.419,125.179
241.61,125.936
241.8,127.146
241.991,128.205
242.182,129.567
242.372,130.929
242.563,132.644
242.753,134.309
242.944,137.285
243.135,140.311
243.325,143.691
243.516,147.071
243.706,157.663
243.897,168.206
244.088,176.932
244.278,185.709
244.469,194.486
244.659,203.263
244.85,212.039
245.04,220.816
245.231,229.593
245.422,238.32
245.612,247.096
245.803,255.873
245.993,264.65
246.184,273.427
246.375,282.204
246.565,290.93
246.756,299.707
246.946,308.534
247.137,317.261
247.328,326.088
247.518,334.814
247.709,343.642
247.899,352.419
248.09,361.094
248.281,367.097
248.471,373.15
248.662,373.251
248.852,373.402
249.043,373.453
249.233,373.503
249.424,373.251
249.615,372.948
249.805,372.293
249.996,371.586
250.186,361.044
250.377,350.502
250.568,330.123
250.758,309.694
250.949,293.957
251.139,278.219
251.33,277.563
251.521,276.857
251.711,276.1
251.902,275.344
252.092,274.587
252.283,273.83
252.473,273.023
252.664,272.216
252.855,271.409
253.045,270.602
253.236,269.745
253.426,268.887
253.617,268.03
253.808,267.122
253.998,266.113
254.189,265.054
254.379,264.045
254.57,262.885
254.76,260.564
254.951,258.244
255.142,254.915
255.332,251.586
255.523,248.257
255.713,244.927
255.904,242.859
256.095,240.741
256.285,240.993
256.476,241.195
256.666,243.666
256.857,246.138
257.048,248.61
257.238,251.081
257.429,252.948
257.619,254.764
257.81,254.864
258,254.915
258.191,251.535
258.382,248.004
258.572,243.263
258.763,238.471
258.953,233.679
259.144,228.887
259.335,224.145
259.525,219.353
259.716,214.562
259.906,209.77
260.097,205.028
260.288,200.236
260.478,195.444
260.669,190.652
260.859,186.566
261.05,182.43
261.241,180.867
261.431,179.252
261.622,178.143
261.812,176.932
262.003,176.529
262.193,172.947
262.384,175.822
262.575,175.469
262.765,176.075
262.956,176.68
263.146,180.665
263.337,184.498
263.528,188.433
263.718,192.317
263.909,196.201
264.099,200.085
264.29,200.892
264.48,201.749
264.671,201.749
264.862,201.749
265.052,199.026
265.243,196.302
265.433,192.821
265.624,189.29
265.815,185.86
266.005,182.329
266.196,178.849
266.386,175.318
266.577,171.837
266.768,168.307
266.958,164.877
267.149,161.295
267.339,157.815
267.53,154.334
267.721,150.854
267.911,147.373
268.102,144.195
268.292,141.068
268.483,140.362
268.673,139.656
268.864,139.252
269.055,138.849
269.245,138.596
269.436,138.596
269.626,138.596
269.817,138.849
270.008,140.513
270.198,142.178
270.389,143.842
270.579,145.557
270.77,146.617
270.961,147.726
271.151,147.777
271.342,147.777
271.532,147.575
271.723,147.222
271.913,142.834
272.104,138.344
272.295,133.905
272.485,129.466
272.676,127.55
272.866,125.633
273.057,124.019
273.248,122.354
273.438,120.841
273.629,119.328
273.819,117.815
274.01,116.251
274.201,115.292
274.391,114.284
274.582,113.325
274.772,112.417
274.963,111.408
275.153,110.45
275.344,109.542
275.535,108.533
275.725,107.777
275.916,107.02
276.106,106.516
276.297,106.011
276.488,105.507
276.678,105.002
276.869,104.498
277.059,103.893
277.25,103.388
277.44,102.833
277.631,102.48
277.822,102.026
278.012,101.623
278.203,101.219
278.393,100.816
278.584,100.362
278.775,99.9582
278.965,99.5546
279.156,99.1511
279.346,98.7476
279.537,98.4953
279.728,98.2431
279.918,97.9909
280.109,97.6883
280.299,97.4361
280.49,97.1838
280.681,96.9317
280.871,96.629
281.062,96.4272
281.252,96.175
281.443,95.9228
281.633,95.6706
281.824,95.4184
282.015,95.1662
282.205,94.914
282.396,94.6618
282.586,94.4096
282.777,94.1573
282.968,93.8043
283.158,93.4007
283.349,93.0476
283.539,92.6945
283.73,92.3415
283.921,91.9379
284.111,91.5344
284.302,91.1309
284.492,90.6769
284.683,90.1725
284.873,89.7185
285.064,89.2645
285.255,88.8105
285.445,88.3566
285.636,87.9026
285.826,87.4486
286.017,87.2469
286.208,87.0451
286.398,86.8433
286.589,86.5911
286.779,86.3893
286.97,86.1371
287.161,86.0363
287.351,85.9858
287.542,85.9858
287.732,85.9858
287.923,86.0363
288.113,86.0363
288.304,86.0867
288.495,86.0867
288.685,86.1371
288.876,86.1371
289.066,86.1876
289.257,86.1876
289.448,86.238
289.638,86.238
289.829,86.2885
290.019,86.2885
290.21,86.3389
290.401,86.3389
290.591,86.3893
290.782,86.3893
290.972,86.3893
291.163,86.3893
291.353,86.4398
291.544,86.4398
291.735,86.4902
291.925,86.4902
292.116,86.5407
292.306,86.5407
292.497,86.4902
292.688,86.4398
292.878,86.3893
293.069,86.3389
293.259,86.2885
293.45,86.238
293.641,86.1876
293.831,86.1371
294.022,86.0867
294.212,86.0363
294.403,85.9858
294.593,85.9354
294.784,85.8849
294.975,85.8345
295.165,85.784
295.356,85.7336
295.546,85.6832
295.737,85.5823
295.928,85.5319
296.118,85.4309
296.309,85.3301
296.499,85.2292
296.69,85.1788
296.88,85.0779
297.071,84.977
297.262,84.8761
297.452,84.8257
297.643,84.7248
297.833,84.6743
298.024,84.523
298.215,84.523
298.405,84.3717
298.596,84.3212
298.786,84.1699
298.977,84.1699
299.168,84.0186
299.358,83.8168
299.549,83.6151
299.739,83.4637
299.93,83.262
300.121,83.1107
300.311,82.9089
300.502,82.7575
300.692,82.5558
300.883,82.354
301.073,82.1523
301.264,82.0009
301.455,81.7992
301.645,81.6478
301.836,81.4965
302.026,81.3956
302.217,81.2443
302.408,81.1434
302.598,81.0425
302.789,80.9417
302.979,80.7903
303.17,80.6894
303.361,80.5886
303.551,80.4877
303.742,80.3363
303.932,80.2355
304.123,80.1346
304.313,80.0842
304.504,79.9832
304.695,79.9328
304.885,79.8824
305.076,79.8824
305.266,79.8319
305.457,79.7815
305.648,79.731
305.838,79.731
306.029,79.6806
306.219,79.6302
306.41,79.6302
306.601,79.6302
306.791,79.5293
306.982,79.5293
307.172,79.4789
307.363,79.4789
307.553,79.378
307.744,79.378
307.935,79.3275
308.125,79.2771
308.316,79.2771
308.506,79.2771
308.697,79.1762
308.888,79.1762
309.078,79.1762
309.269,79.1762
309.459,79.1258
309.65,79.1258
309.841,79.1258
310.031,79.1258
310.222,79.1258
310.412,79.1258
310.603,79.1258
310.793,79.1258
310.984,79.0249
311.175,79.0249
311.365,79.0249
311.556,79.0249
311.746,78.9744
311.937,78.9744
312.128,78.9744
312.318,78.9744
312.509,78.924
312.699,78.924
312.89,78.924
313.081,78.924
313.271,78.8735
313.462,78.8735
313.652,78.8735
313.843,78.8735
314.033,78.8231
314.224,78.8231
314.415,78.8231
314.605,78.8231
314.796,78.8231
314.986,78.8231
315.177,78.8735
315.368,78.924
315.558,78.924
315.749,78.9744
315.939,79.0249
316.13,79.1258
316.321,79.1258
316.511,79.1258
316.702,79.1762
316.892,79.2771
317.083,79.2771
317.273,79.2771
317.464,79.3275
317.655,79.378
317.845,79.378
318.036,79.4789
318.226,79.4789
318.417,79.5293
318.608,79.5293
318.798,79.6302
318.989,79.6302
319.179,79.6806
319.37,79.731
319.561,79.7815
319.751,79.7815
319.942,79.8824
320.132,79.9328
320.323,80.0337
320.513,80.1346
320.704,80.2355
320.895,80.2859
321.085,80.3868
321.276,80.4373
321.466,80.5381
321.657,80.5886
321.848,80.6894
322.038,80.7399
322.229,80.8408
322.419,80.8912
322.61,80.9921
322.801,81.0425
322.991,81.1434
323.182,81.2443
323.372,81.3452
323.563,81.3956
323.753,81.4965
323.944,81.547
324.135,81.6478
324.325,81.6983
324.516,81.7992
324.706,81.8496
324.897,82.0009
325.088,82.0514
325.278,82.1523
325.469,82.2531
325.659,82.354
325.85,82.4044
326.041,82.5053
326.231,82.6062
326.422,82.7071
326.612,82.7575
326.803,82.8584
326.993,82.9593
327.184,83.0602
327.375,83.1611
327.565,83.262
327.756,83.3124
327.946,83.4133
328.137,83.5142
328.328,83.6151
328.518,83.7159
328.709,83.8168
328.899,83.8673
329.09,83.8673
329.281,83.8673
329.471,83.8673
329.662,83.8168
329.852,83.8168
330.043,83.7664
330.233,83.7664
330.424,83.7159
330.615,83.7159
330.805,83.6655
330.996,83.6655
331.186,83.6151
331.377,83.6151
331.568,83.5646
331.758,83.5646
331.949,83.5142
332.139,83.5142
332.33,83.4637
332.521,83.4637
332.711,83.4133
332.902,83.3124
333.092,83.2115
333.283,83.1611
333.473,83.0602
333.664,82.9593
333.855,82.8584
334.045,82.7575
334.236,82.6567
334.426,82.6062
334.617,82.5053
334.808,82.4044
334.998,82.3036
335.189,82.2531
335.379,82.1523
335.57,82.0514
335.761,82.0009
335.951,81.8496
336.142,81.7992
336.332,81.6983
336.523,81.6478
336.713,81.4965
336.904,81.3956
337.095,81.2947
337.285,81.1939
337.476,81.1434
337.666,81.0425
337.857,80.9417
338.048,80.7903
338.238,80.6894
338.429,80.5381
338.619,80.4373
338.81,80.3363
339.001,80.2355
339.191,80.0842
339.382,79.9832
339.572,79.8824
339.763,79.7815
339.953,79.6302
340.144,79.5293
340.335,79.4789
340.525,79.3275
340.716,79.1762
340.906,79.1258
341.097,78.9744
341.288,78.8735
341.478,78.7222
341.669,78.6213
341.859,78.5204
342.05,78.4196
342.241,78.2682
342.431,78.1674
342.622,78.0665
342.812,77.9656
343.003,77.8143
343.193,77.7134
343.384,77.5621
343.575,77.4612
343.765,77.3603
343.956,77.2594
344.146,77.1081
344.337,77.0072
344.528,76.8559
344.718,76.755
344.909,76.6037
345.099,76.5028
345.29,76.3514
345.481,76.2506
345.671,76.1497
345.862,76.0488
346.052,75.8975
346.243,75.7966
346.433,75.6453
346.624,75.5444
346.815,75.3931
347.005,75.2922
347.196,75.1409
347.386,75.0904
347.577,74.9895
347.768,74.8886
347.958,74.7878
348.149,74.6869
348.339,74.586
348.53,74.586
348.721,74.4347
348.911,74.3338
349.102,74.2329
349.292,74.132
349.483,74.0816
349.673,73.9807
349.864,73.8798
350.055,73.8294
350.245,73.7285
350.436,73.678
350.626,73.6276
350.817,73.5772
351.008,73.5267
351.198,73.4763
351.389,73.4258
351.579,73.3754
351.77,73.325
351.961,73.2745
352.151,73.2241
352.342,73.1736
352.532,73.1232
352.723,73.0728
352.913,73.0223
353.104,73.0223
353.295,73.0223
353.485,73.1232
353.676,73.2241
353.866,73.325
354.057,73.4258
354.248,73.5267
354.438,73.5772
354.629,73.678
354.819,73.779
355.01,73.8798
355.201,73.9807
355.391,74.132
355.582,74.2834
355.772,74.4851
355.963,74.6869
356.153,74.8886
356.344,75.0904
356.535,75.3426
356.725,75.5444
356.916,75.7462
357.106,75.9479
357.297,76.1497
357.488,76.3514
357.678,76.6037
357.869,76.755
358.059,76.9568
358.25,77.1081
358.441,77.2594
358.631,77.4108
358.822,77.6125
359.012,77.7639
359.203,77.8647
359.393,77.9656
359.584,78.016
359.775,78.016
359.965,78.0665
360.156,78.1169
360.346,78.1674
360.537,78.1674
360.728,78.2178
360.918,78.2682
361.109,78.2682
361.299,78.2682
361.49,78.2178
361.681,78.1169
361.871,78.0665
362.062,78.016
362.252,77.9656
362.443,77.9152
362.633,77.8647
362.824,77.8143
363.015,77.7639
363.205,77.6629
363.396,77.6125
363.586,77.5621
363.777,77.5116
363.968,77.4612
364.158,77.3098
364.349,77.1585
364.539,77.0072
364.73,76.8559
364.921,76.755
365.111,76.5028
365.302,76.3514
365.492,76.2001
365.683,76.0488
365.873,75.8975
366.064,75.7462
366.255,75.5948
366.445,75.4435
366.636,75.2922
366.826,75.1913
367.017,75.0904
367.208,75.04
367.398,74.9391
367.589,74.8382
367.779,74.7373
367.97,74.6869
368.161,74.586
368.351,74.586
368.542,74.4347
368.732,74.4347
368.923,74.2834
369.113,74.2329
369.304,74.132
369.495,74.0816
369.685,74.0816
369.876,73.9807
370.066,73.9303
370.257,73.9303
370.448,73.8798
370.638,73.8294
370.829,73.779
371.019,73.7285
371.21,73.678
371.401,73.6276
371.591,73.5772
371.782,73.5772
371.972,73.5267
372.163,73.5267
372.353,73.5267
372.544,73.5267
372.735,73.5267
372.925,73.5267
373.116,73.5267
373.306,73.5267
373.497,73.5267
373.688,73.5267
373.878,73.5267
374.069,73.5772
374.259,73.5772
374.45,73.6276
374.641,73.6276
374.831,73.7285
375.022,73.779
375.212,73.8798
375.403,73.9807
375.593,74.0816
375.784,74.132
375.975,74.2329
376.165,74.2834
376.356,74.4347
376.546,74.4851
376.737,74.586
376.928,74.6364
377.118,74.7373
377.309,74.8382
377.499,74.9391
377.69,74.9895
377.881,75.04
378.071,75.04
378.262,75.04
378.452,75.04
378.643,75.04
378.833,75.04
379.024,75.04
379.215,75.04
379.405,75.04
379.596,75.04
379.786,75.04
379.977,75.04
380.168,75.04
380.358,75.04
380.549,75.04
380.739,75.04
380.93,75.04
381.121,74.9895
381.311,74.9895
381.502,74.9895
381.692,74.9895
381.883,74.9895
382.073,74.9895
382.264,74.9895
382.455,74.9895
382.645,74.9895
382.836,74.9895
383.026,74.9391
383.217,74.9391
383.408,74.8886
383.598,74.8886
383.789,74.8382
383.979,74.8382
384.17,74.7878
384.361,74.7878
384.551,74.7373
384.742,74.7373
384.932,74.7373
385.123,74.7373
385.313,74.6869
385.504,74.6869
385.695,74.6364
385.885,74.6364
386.076,74.586
386.266,74.586
386.457,74.586
386.648,74.586
386.838,74.586
387.029,74.586
387.219,74.4851
387.41,74.4851
387.601,74.4347
387.791,74.4347
387.982,74.4347
388.172,74.4347
388.363,74.4347
388.553,74.4347
388.744,74.3338
388.935,74.3338
389.125,74.2834
389.316,74.2834
389.506,74.2329
389.697,74.132
389.888,74.0816
390.078,73.8798
390.269,73.7285
390.459,73.5772
390.65,73.4258
390.841,73.2745
391.031,73.1232
391.222,72.9719
391.412,72.8206
391.603,72.6692
391.793,72.5179
391.984,72.3666
392.175,72.2152
392.365,72.0639
392.556,71.9126
392.746,71.7613
392.937,71.61
393.128,71.4586
393.318,71.3073
393.509,71.156
393.699,70.9542
393.89,70.7524
394.081,70.5507
394.271,70.3489
394.462,70.1472
394.652,69.9454
394.843,69.7436
395.033,69.5418
395.224,69.2896
395.415,69.1888
395.605,68.9365
395.796,68.7852
395.986,68.6339
396.177,68.4826
396.368,68.3313
396.558,68.1799
396.749,68.0286
396.939,67.8773
397.13,67.726
397.321,67.5746
397.511,67.4233
397.702,67.3224
397.892,67.2215
398.083,67.1711
398.273,67.0702
398.464,67.0702
398.655,67.0702
398.845,67.0702
399.036,67.0702
399.226,67.1206
399.417,67.1206
399.608,67.2215
399.798,67.2719
399.989,67.3729
400.179,67.4233
400.37,67.4737
400.561,67.5242
400.751,67.5746
400.942,67.6251
401.132,67.6251
401.323,67.6251
401.513,67.5746
401.704,67.5242
401.895,67.3729
402.085,67.2215
402.276,67.0198
402.466,66.7171
402.657,66.7171
402.848,66.6667
403.038,67.2215
403.229,67.726
403.419,68.2808
403.61,68.8357
403.801,69.4409
403.991,70.0463
404.182,70.5002
404.372,70.9542
404.563,71.4082
404.753,71.9126
404.944,72.3161
405.135,72.7197
405.325,73.0223
405.516,73.2745
405.706,73.5772
405.897,73.8798
406.088,74.2329
406.278,74.4851
406.469,74.7878
406.659,75.04
406.85,75.2417
407.041,75.3931
407.231,75.5948
407.422,75.7462
407.612,75.9479
407.803,76.0993
407.993,76.1497
408.184,76.2001
408.375,76.2506
408.565,76.2506
408.756,76.2506
408.946,76.2506
409.137,76.301
409.328,76.3514
409.518,76.4019
409.709,76.4524
409.899,76.5028
410.09,76.6037
410.281,76.6541
410.471,76.755
410.662,76.755
410.852,76.8055
411.043,76.9568
411.233,76.9568
411.424,77.0072
411.615,77.0072
411.805,77.1081
411.996,77.1081
412.186,77.1585
412.377,77.209
412.568,77.2594
412.758,77.3098
412.949,77.3603
413.139,77.4108
413.33,77.5116
413.521,77.5621
413.711,77.6125
413.902,77.6629
414.092,77.7134
414.283,77.7639
414.473,77.8647
414.664,77.9152
414.855,77.9656
415.045,78.016
415.236,78.0665
415.426,78.1169
415.617,78.1169
415.808,78.1169
415.998,78.0665
416.189,78.016
416.379,77.9656
416.57,77.9152
416.761,77.8647
416.951,77.8143
417.142,77.7639
417.332,77.7134
417.523,77.6629
417.714,77.6125
417.904,77.5621
418.095,77.5116
418.285,77.4612
418.476,77.3603
418.666,77.3098
418.857,77.2594
419.048,77.209
419.238,77.1081
419.429,77.1081
419.619,76.9568
419.81,76.9568
420.001,76.8055
420.191,76.755
420.382,76.6541
420.572,76.6037
420.763,76.5028
420.953,76.4524
421.144,76.3514
421.335,76.301
421.525,76.2001
421.716,76.1497
421.906,76.0488
422.097,75.9984
422.288,75.8975
422.478,75.847
422.669,75.7966
422.859,75.7462
423.05,75.6453
423.241,75.494
423.431,75.2922
423.622,75.1409
423.812,74.9391
424.003,74.7373
424.193,74.586
424.384,74.4347
424.575,74.2329
424.765,74.0816
424.956,73.8294
425.146,73.678
425.337,73.5267
425.528,73.4258
425.718,73.2745
425.909,73.1736
426.099,73.0728
426.29,72.9719
426.481,72.871
426.671,72.7701
426.862,72.6188
427.052,72.5179
427.243,72.417
427.434,72.3161
427.624,72.1648
427.815,72.0639
428.005,71.963
428.196,71.9126
428.386,71.7613
428.577,71.7108
428.768,71.5595
428.958,71.4082
429.149,71.3073
429.339,71.2064
429.53,71.1055
429.721,71.1055
429.911,71.1055
430.102,71.1055
430.292,71.1055
430.483,71.156
430.673,71.156
430.864,71.156
431.055,71.156
431.245,71.156
431.436,71.156
431.626,71.156
431.817,71.156
432.008,71.156
432.198,71.156
432.389,71.156
432.579,71.156
432.77,71.156
432.961,71.1055
433.151,71.1055
433.342,71.1055
433.532,71.1055
433.723,71.1055
433.914,71.1055
434.104,71.1055
434.295,71.1055
434.485,71.1055
434.676,71.1055
434.866,71.0551
435.057,71.0551
435.248,71.0551
435.438,71.0551
435.629,71.0551
435.819,71.156
436.01,71.2064
436.201,71.3073
436.391,71.4082
436.582,71.5595
436.772,71.5595
436.963,71.7613
437.154,71.9126
437.344,72.1144
437.535,72.3161
437.725,72.5179
437.916,72.7197
438.106,72.9214
438.297,73.1232
438.488,73.325
438.678,73.4763
438.869,73.678
439.059,73.8798
439.25,74.0816
439.441,74.2834
439.631,74.4851
439.822,74.6869
440.012,74.8886
440.203,75.0904
440.393,75.2922
440.584,75.494
440.775,75.6453
440.965,75.847
441.156,76.2001
441.346,76.6541
441.537,77.1081
441.728,77.6629
441.918,78.2682
442.109,78.9744
442.299,79.8319
442.49,80.639
442.681,81.4461
442.871,81.8496
443.062,82.2027
443.252,82.4549
443.443,82.4549
443.634,82.5053
443.824,82.3036
444.015,82.1523
444.205,81.8496
444.396,81.547
444.586,81.0425
444.777,80.5886
444.968,80.1346
445.158,79.6806
445.349,79.2771
445.539,78.8735
445.73,78.7222
445.921,78.6718
446.111,78.6213
446.302,79.0249
446.492,79.6806
446.683,81.093
446.874,82.5558
447.064,84.1699
447.255,85.8345
447.445,87.5495
447.636,89.2645
447.826,91.03
448.017,92.8459
448.208,93.653
448.398,94.3087
448.589,94.5104
448.779,94.46
448.97,94.9644
449.161,94.8635
449.351,94.5104
449.542,93.2999
449.732,92.0892
449.923,90.2734
450.113,88.4575
450.304,86.9442
450.495,85.4814
450.685,84.1699
450.876,83.3629
451.066,82.5558
451.257,81.7992
451.448,81.0425
451.638,80.639
451.829,80.2859
452.019,79.9328
452.21,79.6302
452.401,79.2771
452.591,79.0249
452.782,78.924
452.972,78.8231
453.163,78.7222
453.354,78.6718
453.544,78.5709
453.735,78.47
453.925,78.3187
454.116,78.2178
454.306,78.2178
454.497,78.2178
454.688,78.47
454.878,78.7222
455.069,79.0249
455.259,79.2771
455.45,79.6302
455.641,79.9832
455.831,80.3868
456.022,80.7399
456.212,81.1434
456.403,81.6478
456.594,82.2531
456.784,82.9089
456.975,83.6655
457.165,84.4221
457.356,85.2292
457.546,85.6327
457.737,85.7336
457.928,85.8849
458.118,86.0363
458.309,86.1876
458.499,86.2885
458.69,86.3389
458.881,86.3893
459.071,86.4398
459.262,86.4902
459.452,86.5407
459.643,86.692
459.833,86.8433
460.024,86.8938
460.215,87.0955
460.405,87.2469
460.596,87.4486
460.786,87.5999
460.977,88.2053
461.168,88.861
461.358,89.4663
461.549,90.0211
461.739,90.6265
461.93,91.1813
462.121,91.7361
462.311,92.2406
462.502,92.745
462.692,93.1485
462.883,93.2999
463.074,93.5016
463.264,93.653
463.455,93.8547
463.645,94.006
463.836,94.0565
464.026,94.1069
464.217,94.1573
464.408,94.1573
464.598,94.2583
464.789,94.46
464.979,94.7627
465.17,94.914
465.361,95.8219
465.551,96.8307
465.742,98.0918
465.932,99.5546
466.123,100.866
466.314,102.178
466.504,103.439
466.695,104.7
466.885,105.961
467.076,107.07
467.266,108.231
467.457,109.239
467.648,110.299
467.838,110.551
468.029,110.551
468.219,110.551
468.41,110.5
468.601,110.45
468.791,110.4
468.982,110.4
469.172,110.4
469.363,110.4
469.553,110.5
469.744,110.551
469.935,110.601
470.125,110.652
470.316,110.753
470.506,111.207
470.697,111.661
470.888,112.115
471.078,112.569
471.269,112.972
471.459,113.426
471.65,114.132
471.841,114.788
472.031,115.444
472.222,116.15
472.412,117.159
472.603,118.369
472.794,119.681
472.984,120.942
473.175,122.304
473.365,123.514
473.556,124.523
473.746,125.532
473.937,126.541
474.128,127.852
474.318,129.466
474.509,130.98
474.699,132.543
474.89,134.006
475.081,135.671
475.271,137.588
475.462,139.353
475.652,141.421
475.843,143.641
476.034,145.91
476.224,150.652
476.415,155.595
476.605,160.539
476.796,165.331
476.986,169.668
477.177,174.259
477.368,183.036
477.558,195.646
477.749,202.102
477.939,209.316
478.13,219.707
478.321,229.795
478.511,237.21
478.702,245.734
478.892,256.63
479.083,269.341
479.273,278.32
479.464,284.928
479.655,290.779
479.845,300.716
480.036,318.925
480.226,342.381
480.417,365.735
480.608,389.14
480.798,412.595
480.989,436
481.179,461.978
481.37,479.38
481.561,483.97
481.751,487.905
481.942,492.999
482.132,496.984
482.323,499.204
482.514,500.414
482.704,500.616
482.895,500.868
483.085,501.02
483.276,501.272
483.466,501.474
483.657,501.474
483.848,501.524
484.038,501.423
484.229,501.726
484.419,503.189
484.61,504.55
484.801,505.711
484.991,506.871
485.182,507.728
485.372,508.535
485.563,509.342
485.754,509.796
485.944,510.099
486.135,510.452
486.325,510.755
486.516,511.057
486.706,511.158
486.897,511.259
487.088,511.36
487.278,511.461
487.469,511.562
487.659,511.562
487.85,511.562
488.041,511.511
488.231,511.461
488.422,511.461
488.612,511.31
488.803,512.873
488.994,510.957
489.184,510.755
489.375,510.553
489.565,510.402
489.756,510.25
489.946,510.049
490.137,509.897
490.328,509.645
490.518,509.393
490.709,509.141
490.899,508.737
491.09,508.334
491.281,507.123
491.471,505.408
491.662,503.743
491.852,501.978
492.043,498.8
492.234,451.486
492.424,426.114
492.615,411.183
492.805,397.362
492.996,387.475
493.186,378.346
493.377,365.079
493.568,351.712
493.758,343.44
493.949,335.167
494.139,326.996
494.33,318.673
494.521,310.401
494.711,302.179
494.902,293.906
495.092,285.634
495.283,279.278
495.474,275.394
495.664,271.611
495.855,267.777
496.045,257.235
496.236,247.702
496.426,241.245
496.617,234.839
496.808,229.543
496.998,224.246
497.189,218.95
497.379,213.704
497.57,208.357
497.761,203.061
497.951,197.764
498.142,192.67
498.332,188.231
498.523,183.691
498.714,179.202
498.904,174.763
499.095,170.829
499.285,166.945
499.476,163.01
499.666,159.328
499.857,155.898
500.048,152.417
500.238,148.937
500.429,145.86
500.619,142.884
500.81,139.958
501.001,136.932
501.191,134.965
501.382,132.997
501.572,130.98
501.763,129.567
501.954,128.508
502.144,127.499
502.335,126.39
502.525,125.532
502.716,124.876
502.906,124.12
503.097,123.414
503.288,122.808
503.478,122.152
503.669,121.648
503.859,121.194
504.05,120.74
504.241,120.337
504.431,119.933
504.622,119.58
504.812,119.277
505.003,118.975
505.194,118.722
505.384,118.521
505.575,118.319
505.765,118.117
505.956,117.966
506.146,117.764
506.337,117.663
506.528,117.613
506.718,117.461
506.909,117.461
507.099,116.352
507.29,117.26
507.481,117.159
507.671,117.159
507.862,117.108
508.052,117.108
508.243,117.058
508.434,116.957
508.624,116.957
508.815,116.957
509.005,116.957
509.196,116.957
509.386,116.957
509.577,117.058
509.768,117.058
509.958,117.108
510.149,117.108
510.339,117.26
510.53,117.461
510.721,117.613
510.911,117.966
511.102,118.571
511.292,119.126
511.483,119.983
511.674,120.942
511.864,122.707
512.055,125.885
512.245,138.243
512.436,189.442
512.626,231.813
512.817,259.001
513.008,255.52
513.198,245.634
513.389,235.797
513.579,225.961
513.77,216.125
513.961,206.239
514.151,196.403
514.342,186.566
514.532,176.73
514.723,166.844
514.914,157.008
515.104,148.281
515.295,147.222
515.485,146.062
515.676,146.415
515.866,146.718
516.057,147.575
516.248,170.122
516.438,212.393
516.629,254.612
516.819,265.054
517.01,264.347
517.201,249.265
517.391,233.78
517.582,218.294
517.772,202.758
517.963,187.273
518.154,171.737
518.344,156.251
518.535,148.584
518.725,142.329
518.916,139
519.106,136.125
519.297,133.25
519.488,130.425
519.678,127.852
519.869,125.885
520.059,123.817
520.25,121.85
520.441,119.933
520.631,117.865
520.822,115.948
521.012,114.031
521.203,112.115
521.394,110.5
521.584,109.088
521.775,107.726
521.965,106.263
522.156,104.901
522.346,103.59
522.537,102.329
522.728,101.068
522.918,100.009
523.109,98.9493
523.299,97.89
523.49,96.8307
523.681,96.0237
523.871,95.4184
524.062,94.8131
524.252,94.4096
524.443,94.0565
524.634,93.8043
524.824,93.5016
525.015,94.914
525.205,93.3503
525.396,93.4007
525.586,93.4512
525.777,93.7034
525.968,94.0565
526.158,94.4096
526.349,94.7627
526.539,95.2671
526.73,96.4272
526.921,97.5369
527.111,98.6467
527.302,99.6555
527.492,100.009
527.683,100.463
527.874,100.917
528.064,101.371
528.255,101.724
528.445,102.127
528.636,102.48
528.826,102.833
529.017,103.186
529.208,103.539
529.398,103.893
529.589,104.498
529.779,105.154
529.97,105.708
530.161,106.263
530.351,106.869
530.542,107.524
530.732,108.331
530.923,109.139
531.114,109.946
531.304,110.854
531.495,111.913
531.685,112.972
531.876,114.031
532.066,115.645
532.257,117.461
532.448,119.277
532.638,122.707
532.829,126.642
533.019,132.796
533.21,139.353
533.401,176.377
533.591,206.945
533.782,234.436
533.972,233.074
534.163,227.273
534.354,220.564
534.544,213.906
534.735,207.197
534.925,200.488
535.116,194.688
535.306,193.981
535.497,193.426
535.688,193.578
535.878,197.361
536.069,276.403
536.259,276.907
536.45,271.863
536.641,265.76
536.831,259.656
537.022,253.603
537.212,247.5
537.403,241.447
537.594,235.293
537.784,234.587
537.975,245.18
538.165,253.402
538.356,261.624
538.547,269.846
538.737,272.922
538.928,265.608
539.118,258.093
539.309,250.627
539.499,243.162
539.69,235.697
539.881,228.181
540.071,224.852
540.262,225.306
540.452,224.499
540.643,227.777
540.833,229.644
541.024,232.014
541.215,235.344
541.405,246.693
541.596,274.738
541.786,312.368
541.977,344.247
542.168,341.523
542.358,328.358
542.549,315.193
542.739,302.027
542.93,288.912
543.121,275.747
543.311,262.582
543.502,252.04
543.692,246.491
543.883,242.103
544.074,238.975
544.264,237.21
544.455,235.848
544.645,234.738
544.836,234.032
545.026,233.427
545.217,230.4
545.408,233.124
545.598,233.023
545.789,239.883
545.979,262.229
546.17,284.575
546.361,306.92
546.551,329.215
546.742,351.561
546.932,364.474
547.123,364.121
547.314,346.366
547.504,319.43
547.695,292.595
547.885,265.709
548.076,245.533
548.266,239.984
548.457,236.453
548.648,235.041
548.838,234.335
549.029,233.78
549.219,232.216
549.41,234.032
549.601,234.335
549.791,236.05
549.982,238.975
550.172,243.969
550.363,254.209
550.554,263.339
550.744,272.418
550.935,281.548
551.125,290.678
551.316,299.757
551.506,308.887
551.697,318.017
551.888,326.592
552.078,327.097
552.269,327.299
552.459,327.299
552.65,325.987
552.841,324.272
553.031,322.557
553.222,320.943
553.412,319.228
553.603,318.522
553.794,318.421
553.984,344.096
554.175,370.174
554.365,396.252
554.556,422.381
554.746,441.196
554.937,440.994
555.128,416.732
555.318,397.16
555.509,377.639
555.699,358.118
555.89,339.959
556.081,338.9
556.271,348.938
556.462,360.237
556.652,371.586
556.843,382.885
557.034,394.184
557.224,412.646
557.415,411.032
557.605,387.929
557.796,357.11
557.986,320.035
558.177,318.976
558.368,321.346
558.558,331.687
558.749,345.811
558.939,344.197
559.13,335.42
559.321,319.682
559.511,303.843
559.702,288.055
559.892,272.216
560.083,256.479
560.274,240.64
560.464,224.852
560.655,209.063
560.845,197.008
561.036,192.569
561.226,189.492
561.417,187.121
561.608,184.902
561.798,183.943
561.989,183.086
562.179,183.036
562.37,183.036
562.561,182.279
562.751,182.279
562.942,182.329
563.132,182.329
563.323,182.43
563.514,182.531
563.704,182.884
563.895,183.187
564.085,183.439
564.276,183.893
564.466,184.397
564.657,185.205
564.848,186.112
565.038,189.996
565.229,195.142
565.419,200.69
565.61,207.147
565.801,216.731
565.991,226.668
566.182,231.661
566.372,236.655
566.563,241.699
566.754,249.366
566.944,261.775
567.135,273.427
567.325,280.489
567.516,303.541
567.706,318.875
567.897,335.874
568.088,352.923
568.278,369.972
568.469,386.971
568.659,404.02
568.85,459.859
569.041,465.66
569.231,469.998
569.422,473.68
569.612,476.303
569.803,478.876
569.994,481.499
570.184,484.576
570.375,487.854
570.565,490.679
570.756,492.999
570.946,495.269
571.137,497.539
571.328,498.951
571.518,500.313
571.709,501.726
571.899,503.441
572.09,505.105
572.281,506.518
572.471,507.829
572.662,509.141
572.852,510.15
573.043,510.957
573.234,511.612
573.424,511.915
573.615,512.268
573.805,512.571
573.996,512.772
574.187,513.025
574.377,513.126
574.568,513.277
574.758,513.378
574.949,513.529
575.139,514.286
575.33,513.731
575.521,513.832
575.711,513.882
575.902,513.882
576.092,513.781
576.283,513.731
576.474,513.63
576.664,513.327
576.855,512.722
577.045,512.066
577.236,511.259
577.427,510.099
577.617,509.04
577.808,507.829
577.998,506.669
578.189,505.105
578.379,503.441
578.57,501.625
578.761,499.91
578.951,498.144
579.142,495.975
579.332,493.554
579.523,491.183
579.714,488.762
579.904,486.391
580.095,483.113
580.285,479.834
580.476,476.505
580.667,471.36
580.857,466.215
581.048,459.052
581.238,451.789
581.429,446.543
581.619,441.246
581.81,435.899
582.001,428.031
582.191,419.708
582.382,411.385
582.572,403.011
582.763,394.689
582.954,386.366
583.144,377.992
583.335,369.67
583.525,361.347
583.716,352.973
583.906,348.282
584.097,348.686
584.288,348.484
584.478,349.342
584.669,350.451
584.859,351.712
585.05,357.564
585.241,369.165
585.431,377.74
585.622,386.315
585.812,394.89
586.003,403.465
586.194,412.041
586.384,420.616
586.575,429.14
586.765,437.715
586.956,446.29
587.146,454.865
587.337,463.441
587.528,472.016
587.718,480.591
587.909,489.115
588.099,497.69
588.29,501.574
588.481,503.441
588.671,505.004
588.862,505.963
589.052,506.669
589.243,509.141
589.434,507.173
589.624,507.173
589.815,506.568
590.005,505.559
590.196,501.625
590.386,496.631
590.577,488.107
590.768,453.251
590.958,434.386
591.149,415.471
591.339,396.605
591.53,377.69
591.721,358.774
591.911,350.703
592.102,342.835
592.292,336.782
592.483,330.678
592.674,324.676
592.864,318.623
593.055,312.57
593.245,306.466
593.436,300.817
593.626,299.858
593.817,299.556
594.008,300.514
594.198,304.953
594.389,309.594
594.579,314.184
594.77,316.403
594.961,316.504
595.151,311.662
595.342,303.742
595.532,295.873
595.723,292.696
595.914,292.292
596.104,292.141
596.295,293.906
596.485,296.983
596.676,299.657
596.866,299.808
597.057,296.227
597.248,290.88
597.438,285.533
597.629,281.296
597.819,280.337
598.01,277.664
598.201,279.379
598.391,279.278
598.582,279.177
598.772,279.48
598.963,280.388
599.154,282.456
599.344,285.886
599.535,299.657
599.725,318.774
599.916,337.891
600.107,357.009
600.297,376.126
600.488,395.243
600.678,414.361
600.869,433.478
601.059,452.596
601.25,471.663
601.441,488.46
601.631,494.967
601.822,498.397
602.012,500.717
602.203,502.886
602.394,505.458
602.584,506.719
602.775,507.627
602.965,508.031
603.156,508.485
603.346,508.687
603.537,508.888
603.728,509.09
603.918,509.292
604.109,509.443
604.299,509.544
604.49,511.36
604.681,509.09
604.871,508.888
605.062,508.031
605.252,506.165
605.443,503.542
605.634,498.497
605.824,491.839
606.015,484.021
606.205,474.891
606.396,468.586
606.586,462.331
606.777,454.664
606.968,438.573
607.158,423.894
607.349,409.216
607.539,394.537
607.73,379.859
607.921,365.18
608.111,350.552
608.302,339.253
608.492,339.253
608.683,338.9
608.874,340.161
609.064,345.962
609.255,351.763
609.445,357.564
609.636,363.415
609.826,369.216
610.017,375.016
610.208,377.942
610.398,379.102
610.589,380.061
610.779,382.229
610.97,398.32
611.161,414.411
611.351,430.452
611.542,446.543
611.732,462.633
611.923,474.487
612.114,479.935
612.304,491.083
612.495,493.403
612.685,494.462
612.876,495.118
613.066,493.806
613.257,493.857
613.448,493.857
613.638,490.376
613.829,484.878
614.019,476.908
614.21,466.77
614.401,421.322
614.591,388.787
614.782,356.252
614.972,323.667
615.163,291.081
615.354,268.887
615.544,261.775
615.735,254.713
615.925,247.702
616.116,241.245
616.307,235.898
616.497,232.418
616.688,230.753
616.878,230.198
617.069,229.038
617.259,229.543
617.45,229.744
617.641,230.854
617.831,233.477
618.022,246.39
618.212,262.481
618.403,278.572
618.594,294.663
618.784,310.703
618.975,326.794
619.165,342.885
619.356,358.925
619.547,375.016
619.737,391.107
619.928,404.172
620.118,403.768
620.309,400.288
620.499,390.3
620.69,380.313
620.881,370.325
621.071,367.45
621.262,367.601
621.452,368.055
621.643,369.367
621.834,366.492
622.024,359.026
622.215,351.561
622.405,344.096
622.596,336.63
622.786,329.165
622.977,321.75
623.168,317.513
623.358,317.109
623.549,317.109
623.739,317.008
623.93,317.311
624.121,319.329
624.311,322.456
624.502,322.456
624.692,320.439
624.883,313.478
625.074,306.113
625.264,298.749
625.455,291.334
625.645,284.978
625.836,282.305
626.026,280.59
626.217,278.925
626.408,278.118
626.598,278.32
626.789,279.076
626.979,280.287
627.17,281.044
627.361,281.498
627.551,281.548
627.742,281.548
627.932,266.062
628.123,248.761
628.314,231.459
628.504,214.208
628.695,200.791
628.885,194.788
629.076,186.617
629.266,176.125
629.457,167.903
629.648,161.396
629.838,154.99
630.029,148.584
630.219,140.513
630.41,137.134
630.601,134.46
630.791,131.787
630.982,128.105
631.172,124.17
631.363,121.497
631.554,118.924
631.744,116.806
631.935,114.637
632.125,112.821
632.316,111.307
632.507,110.046
632.697,109.038
632.888,108.432
633.078,107.877
633.269,107.373
633.459,107.02
633.65,106.768
633.841,107.575
634.031,107.02
634.222,107.373
634.412,108.029
634.603,110.248
634.794,113.073
634.984,117.461
635.175,126.036
635.365,138.243
635.556,150.45
635.747,155.696
635.937,156.503
636.128,148.584
636.318,141.825
636.509,135.116
636.699,128.407
636.89,121.648
637.081,116.352
637.271,114.939
637.462,114.334
637.652,114.132
637.843,114.132
638.034,114.536
638.224,114.939
638.415,115.847
638.605,116.856
638.796,117.966
638.987,119.076
639.177,120.135
639.368,121.144
639.558,121.85
639.749,122.152
639.939,122.152
640.13,122.102
640.321,121.799
640.511,121.547
640.702,121.295
640.892,121.043
641.083,120.69
641.274,120.387
641.464,120.135
641.655,119.782
641.845,119.479
642.036,119.126
642.227,118.823
642.417,118.47
642.608,118.117
642.798,117.815
642.989,117.411
643.179,117.058
643.37,116.705
643.561,116.402
643.751,116.049
643.942,115.797
644.132,115.141
644.323,114.435
644.514,112.367
644.704,109.542
644.895,106.869
645.085,104.649
645.276,102.682
645.466,101.068
645.657,99.8068
645.848,99.1511
646.038,98.4953
646.229,97.9909
646.419,98.9493
646.61,97.4865
646.801,97.4865
646.991,97.4361
647.182,97.5369
647.372,97.7892
647.563,98.0918
647.754,98.4449
647.944,98.9998
648.135,99.6555
648.325,100.513
648.516,101.471
648.706,103.539
648.897,116.755
649.088,117.411
649.278,117.815
649.469,118.47
649.659,119.378
649.85,120.337
650.041,121.345
650.231,122.506
650.422,123.918
650.612,125.885
650.803,127.903
650.994,129.921
651.184,133.098
651.375,136.377
651.565,139.857
651.756,142.682
651.947,144.851
652.137,147.071
652.328,149.643
652.518,152.266
652.709,154.586
652.899,156.604
653.09,158.571
653.281,160.639
653.471,162.708
653.662,164.675
653.852,166.743
654.043,168.761
654.234,170.778
654.424,177.134
654.615,183.54
654.805,189.946
654.996,196.352
655.187,201.901
655.377,201.85
655.568,201.8
655.758,191.51
655.949,179.555
656.139,167.55
656.33,155.595
656.521,143.54
656.711,138.243
656.902,135.116
657.092,131.989
657.283,129.113
657.474,126.49
657.664,123.767
657.855,121.245
658.045,119.782
658.236,118.369
658.427,117.461
658.617,116.957
658.808,116.604
658.998,116.402
659.189,117.058
659.379,116.553
659.57,116.755
659.761,117.058
659.951,118.016
660.142,122.859
660.332,127.701
660.523,132.443
660.714,137.285
660.904,142.077
661.095,146.869
661.285,151.711
661.476,156.503
661.667,161.295
661.857,165.583
662.048,165.381
662.238,164.523
662.429,160.993
662.619,157.462
662.81,153.981
663.001,150.45
663.191,146.97
663.382,143.439
663.572,141.018
663.763,139.656
663.954,139.101
664.144,138.647
664.335,138.294
664.525,138.344
664.716,137.991
664.906,137.991
665.097,137.991
665.288,137.991
665.478,138.748
665.669,142.733
665.859,170.274
666.05,177.689
666.241,183.036
666.431,189.391
666.622,195.797
666.812,199.631
667.003,203.414
667.194,207.147
667.384,210.577
667.575,214.057
667.765,217.689
667.956,221.573
668.146,225.205
668.337,228.635
668.528,231.258
668.718,233.528
668.909,236.201
669.099,236.806
669.29,237.311
669.481,237.361
669.671,237.462
669.862,237.26
670.052,237.059
670.243,236.806
670.434,236.453
670.624,235.999
670.815,235.545
671.005,235.243
671.196,231.813
671.387,234.839
671.577,234.688
671.768,235.142
671.958,235.545
672.149,236.554
672.339,238.118
672.53,240.741
672.721,244.726
672.911,253.149
673.102,259.001
673.292,264.65
673.483,269.997
673.674,275.949
673.864,284.221
674.055,290.325
674.245,298.042
674.436,311.208
674.627,324.373
674.817,337.538
675.008,350.703
675.198,363.869
675.389,376.984
675.579,390.149
675.77,403.314
675.961,416.479
676.151,425.66
676.342,428.636
676.532,429.897
676.723,430.906
676.914,430.754
677.104,430.956
677.295,430.502
677.485,428.989
677.676,414.613
677.867,388.736
678.057,362.86
678.248,336.983
678.438,311.107
678.629,285.281
678.819,259.404
679.01,240.388
679.201,233.881
679.391,228.937
679.582,224.801
679.772,220.867
679.963,217.84
680.154,214.814
680.344,212.847
680.535,211.182
680.725,209.971
680.916,208.761
681.107,207.903
681.297,207.348
681.488,206.794
681.678,206.794
681.869,206.844
682.059,206.491
682.25,207.096
682.441,207.802
682.631,208.458
682.822,209.87
683.012,211.636
683.203,217.084
683.394,226.314
683.584,235.394
683.775,244.524
683.965,253.654
684.156,262.784
684.346,269.19
684.537,269.19
684.728,269.24
684.918,269.24
685.109,258.093
685.299,240.993
685.49,223.893
685.681,209.82
685.871,202.052
686.062,196.352
686.252,190.551
686.443,183.994
686.634,177.588
686.824,171.787
687.015,166.087
687.205,161.547
687.396,158.42
687.587,155.293
687.777,152.064
687.968,148.231
688.158,144.095
688.349,139.958
688.539,136.175
688.73,132.997
688.921,129.87
689.111,127.6
689.302,125.734
689.492,123.867
689.683,122.001
689.874,120.286
690.064,118.571
690.255,116.957
690.445,115.242
690.636,113.477
690.827,111.711
691.017,109.895
691.208,107.978
691.398,106.112
691.589,104.347
691.779,102.531
691.97,101.572
692.161,101.724
692.351,100.715
692.542,100.816
692.732,101.824
692.923,102.833
693.114,105.91
693.304,117.058
693.495,124.675
693.685,137.991
693.876,142.733
694.067,146.667
694.257,148.281
694.448,148.13
694.638,149.29
694.829,149.24
695.019,148.281
695.21,147.323
695.401,145.053
695.591,142.531
695.782,140.009
695.972,137.285
696.163,134.511
696.354,131.736
696.544,129.013
696.735,126.44
696.925,124.271
697.116,122.152
697.307,119.983
697.497,117.815
697.688,115.545
697.878,113.275
698.069,111.055
698.259,108.785
698.45,106.97
698.641,105.355
698.831,103.943
699.022,103.237
699.212,102.48
699.403,101.824
699.594,101.32
699.784,101.068
699.975,100.765
700.165,100.513
700.356,100.261
700.547,100.009
700.737,99.7059
700.928,99.5042
701.118,99.4537
701.309,99.3528
701.499,98.5458
701.69,99.1511
701.881,99.0502
702.071,98.9493
702.262,98.8484
702.452,98.7476
702.643,98.6467
702.834,98.6467
703.024,98.6467
703.215,98.7476
703.405,98.8484
703.596,98.8989
703.786,98.9998
703.977,99.0502
704.168,99.1511
704.358,99.4537
704.549,99.9582
704.739,100.463
704.93,100.967
705.121,101.471
705.311,102.278
705.502,103.338
705.692,104.447
705.883,105.456
706.074,106.516
706.264,107.928
706.455,109.693
706.645,111.358
706.836,113.073
707.027,114.788
707.217,116.604
707.408,118.722
707.598,120.841
707.789,123.01
707.979,125.078
708.17,127.197
708.361,129.567
708.551,132.19
708.742,134.763
708.932,137.285
709.123,140.11
709.314,143.237
709.504,145.91
709.695,148.079
709.885,150.198
710.076,152.468
710.267,154.032
710.457,155.242
710.648,155.848
710.838,156.352
711.029,156.402
711.219,156.453
711.41,156.352
711.601,154.99
711.791,153.376
711.982,149.946
712.172,146.516
712.363,143.338
712.554,140.463
712.744,137.588
712.935,134.612
713.125,132.089
713.316,129.719
713.507,127.398
713.697,125.381
713.888,123.363
714.078,122.354
714.269,121.547
714.459,120.74
714.65,119.983
714.841,119.126
715.031,118.319
715.222,117.512
715.412,116.705
715.603,115.898
715.794,115.091
715.984,114.183
716.175,113.376
716.365,112.72
716.556,112.115
716.747,111.509
716.937,110.954
717.128,110.4
717.318,109.845
717.509,109.189
717.699,108.584
717.89,108.029
718.081,107.424
718.271,106.869
718.462,106.314
718.652,105.708
718.843,105.204
719.034,104.649
719.224,104.044
719.415,103.439
719.605,102.884
719.796,102.329
719.987,101.724
720.177,101.169
720.368,100.917
720.558,100.664
720.749,100.463
720.939,100.261
721.13,100.059
721.321,99.8068
721.511,99.6555
721.702,99.5042
721.892,99.4537
722.083,99.3024
722.274,99.1511
722.464,98.9998
722.655,99.0502
722.845,99.0502
723.036,99.0502
723.227,99.0502
723.417,99.1006
723.608,99.5042
723.798,99.8573
723.989,100.21
724.179,100.614
724.37,100.967
724.561,101.371
724.751,101.824
724.942,102.329
725.132,102.833
725.323,103.338
725.514,103.842
725.704,104.347
725.895,104.901
726.085,105.406
726.276,105.91
726.467,106.465
726.657,107.02
726.848,107.524
727.038,107.928
727.229,108.331
727.419,108.735
727.61,109.139
727.801,109.542
727.991,109.946
728.182,110.4
728.372,110.753
728.563,111.106
728.754,111.509
728.944,111.913
729.135,112.367
729.325,112.619
729.516,112.77
729.707,112.922
729.897,113.073
730.088,113.174
730.278,113.325
730.469,113.477
730.659,113.628
730.85,113.779
731.041,113.93
731.231,114.082
731.422,114.233
731.612,114.435
731.803,114.586
731.994,114.637
732.184,114.738
732.375,114.788
732.565,114.788
732.756,114.889
732.947,114.939
733.137,114.939
733.328,114.99
733.518,115.091
733.709,115.091
733.899,115.141
734.09,115.242
734.281,115.292
734.471,115.292
734.662,115.292
734.852,115.343
735.043,115.343
735.234,115.343
735.424,115.444
735.615,115.444
735.805,115.444
735.996,115.444
736.187,115.494
736.377,115.494
736.568,115.444
736.758,115.292
736.949,115.141
737.139,114.99
737.33,114.939
737.521,114.788
737.711,114.586
737.902,114.536
738.092,114.334
738.283,114.183
738.474,114.082
738.664,113.93
738.855,113.88
739.045,113.779
739.236,113.729
739.427,113.628
739.617,113.577
739.808,113.477
739.998,113.426
740.189,113.325
740.379,113.275
740.57,113.174
740.761,113.073
740.951,112.972
741.142,112.922
741.332,112.77
741.523,112.72
741.714,112.569
741.904,112.468
742.095,112.417
742.285,112.115
742.476,111.812
742.667,111.509
742.857,111.207" />
</g>
</svg>
