<?xml version="1.0"?>
<svg version="1.1"
     xmlns="http://www.w3.org/2000/svg"
     xmlns:xlink="http://www.w3.org/1999/xlink"
     viewBox="0 0 800 600">
<g>
<text fill="#000000" font-family="sans-serif" font-size="19.0476" text-anchor="start" x="4.7619" y="591.429" >
NIST Chemistry WebBook (https://webbook.nist.gov/chemistry)
</text>
<polyline stroke="#000000" stroke-width="1.19048" fill="none" points="95.2381,514.286
742.857,514.286
742.857,66.6667
95.2381,66.6667
95.2381,514.286" />
<text fill="#000000" font-family="sans-serif" font-size="19.0476" text-anchor="middle" x="419.048" y="24.7619" >
p-n-BUTYRALDEHYDE
</text>
<text fill="#000000" font-family="sans-serif" font-size="19.0476" text-anchor="middle" x="419.048" y="53.3333" >
INFRARED SPECTRUM
</text>
<text fill="#000000" font-family="sans-serif" font-size="19.0476" text-anchor="middle" x="419.048" y="558.095" >
Micrometers
</text>
<text fill="#000000" font-family="sans-serif" font-size="19.0476" text-anchor="middle" transform="translate(20,290.476) rotate(270)" x="0" y="0" >
Transmitance
</text>
<text fill="#000000" font-family="sans-serif" font-size="19.0476" text-anchor="middle" x="651" y="534.286" >
4
</text>
<line stroke="#000000" stroke-width="1.19048" x1="651" y1="514.286" x2="651" y2="504.762" />
<text fill="#000000" font-family="sans-serif" font-size="19.0476" text-anchor="middle" x="465.431" y="534.286" >
8
</text>
<line stroke="#000000" stroke-width="1.19048" x1="465.431" y1="514.286" x2="465.431" y2="504.762" />
<text fill="#000000" font-family="sans-serif" font-size="19.0476" text-anchor="middle" x="279.861" y="534.286" >
12
</text>
<line stroke="#000000" stroke-width="1.19048" x1="279.861" y1="514.286" x2="279.861" y2="504.762" />
<line stroke="#000000" stroke-width="1.19048" x1="697.393" y1="514.286" x2="697.393" y2="509.524" />
<line stroke="#000000" stroke-width="1.19048" x1="651" y1="514.286" x2="651" y2="509.524" />
<line stroke="#000000" stroke-width="1.19048" x1="604.608" y1="514.286" x2="604.608" y2="509.524" />
<line stroke="#000000" stroke-width="1.19048" x1="558.216" y1="514.286" x2="558.216" y2="509.524" />
<line stroke="#000000" stroke-width="1.19048" x1="511.823" y1="514.286" x2="511.823" y2="509.524" />
<line stroke="#000000" stroke-width="1.19048" x1="465.431" y1="514.286" x2="465.431" y2="509.524" />
<line stroke="#000000" stroke-width="1.19048" x1="419.038" y1="514.286" x2="419.038" y2="509.524" />
<line stroke="#000000" stroke-width="1.19048" x1="372.646" y1="514.286" x2="372.646" y2="509.524" />
<line stroke="#000000" stroke-width="1.19048" x1="326.254" y1="514.286" x2="326.254" y2="509.524" />
<line stroke="#000000" stroke-width="1.19048" x1="279.861" y1="514.286" x2="279.861" y2="509.524" />
<line stroke="#000000" stroke-width="1.19048" x1="233.469" y1="514.286" x2="233.469" y2="509.524" />
<line stroke="#000000" stroke-width="1.19048" x1="187.077" y1="514.286" x2="187.077" y2="509.524" />
<line stroke="#000000" stroke-width="1.19048" x1="140.684" y1="514.286" x2="140.684" y2="509.524" />
<text fill="#000000" font-family="sans-serif" font-size="19.0476" text-anchor="end" x="90.4762" y="434.844" >
0.2
</text>
<line stroke="#000000" stroke-width="1.19048" x1="95.2381" y1="430.558" x2="104.762" y2="430.558" />
<text fill="#000000" font-family="sans-serif" font-size="19.0476" text-anchor="end" x="90.4762" y="342.836" >
0.4
</text>
<line stroke="#000000" stroke-width="1.19048" x1="95.2381" y1="338.55" x2="104.762" y2="338.55" />
<text fill="#000000" font-family="sans-serif" font-size="19.0476" text-anchor="end" x="90.4762" y="250.828" >
0.6
</text>
<line stroke="#000000" stroke-width="1.19048" x1="95.2381" y1="246.542" x2="104.762" y2="246.542" />
<text fill="#000000" font-family="sans-serif" font-size="19.0476" text-anchor="end" x="90.4762" y="158.82" >
0.8
</text>
<line stroke="#000000" stroke-width="1.19048" x1="95.2381" y1="154.534" x2="104.762" y2="154.534" />
<line stroke="#000000" stroke-width="1.19048" x1="95.2381" y1="499.564" x2="100" y2="499.564" />
<line stroke="#000000" stroke-width="1.19048" x1="95.2381" y1="476.562" x2="100" y2="476.562" />
<line stroke="#000000" stroke-width="1.19048" x1="95.2381" y1="453.56" x2="100" y2="453.56" />
<line stroke="#000000" stroke-width="1.19048" x1="95.2381" y1="430.558" x2="100" y2="430.558" />
<line stroke="#000000" stroke-width="1.19048" x1="95.2381" y1="407.556" x2="100" y2="407.556" />
<line stroke="#000000" stroke-width="1.19048" x1="95.2381" y1="384.554" x2="100" y2="384.554" />
<line stroke="#000000" stroke-width="1.19048" x1="95.2381" y1="361.552" x2="100" y2="361.552" />
<line stroke="#000000" stroke-width="1.19048" x1="95.2381" y1="338.55" x2="100" y2="338.55" />
<line stroke="#000000" stroke-width="1.19048" x1="95.2381" y1="315.548" x2="100" y2="315.548" />
<line stroke="#000000" stroke-width="1.19048" x1="95.2381" y1="292.546" x2="100" y2="292.546" />
<line stroke="#000000" stroke-width="1.19048" x1="95.2381" y1="269.544" x2="100" y2="269.544" />
<line stroke="#000000" stroke-width="1.19048" x1="95.2381" y1="246.542" x2="100" y2="246.542" />
<line stroke="#000000" stroke-width="1.19048" x1="95.2381" y1="223.54" x2="100" y2="223.54" />
<line stroke="#000000" stroke-width="1.19048" x1="95.2381" y1="200.538" x2="100" y2="200.538" />
<line stroke="#000000" stroke-width="1.19048" x1="95.2381" y1="177.536" x2="100" y2="177.536" />
<line stroke="#000000" stroke-width="1.19048" x1="95.2381" y1="154.534" x2="100" y2="154.534" />
<line stroke="#000000" stroke-width="1.19048" x1="95.2381" y1="131.532" x2="100" y2="131.532" />
<line stroke="#000000" stroke-width="1.19048" x1="95.2381" y1="108.53" x2="100" y2="108.53" />
<line stroke="#000000" stroke-width="1.19048" x1="95.2381" y1="85.5283" x2="100" y2="85.5283" />
<polyline stroke="#FF0000" stroke-width="1.19048" fill="none" points="742.857,66.6667
742.542,66.6667
742.226,66.6667
741.91,66.6667
741.595,66.6667
741.278,66.6667
740.963,66.6667
740.647,66.6667
740.332,66.6667
740.016,66.6667
739.702,66.6667
739.387,66.6667
739.071,66.6667
738.756,67.5868
738.44,67.5868
738.124,67.5868
737.808,68.0468
737.492,68.0468
737.177,68.0468
736.861,68.0468
736.548,69.887
736.232,71.2671
735.917,73.1072
735.601,74.4874
735.285,77.7076
734.969,82.308
734.653,88.7486
734.338,95.6492
734.022,103.93
733.707,103.93
733.393,105.77
733.077,106.69
732.762,105.77
732.446,104.85
732.131,104.85
731.814,103.47
731.499,101.63
731.183,100.25
730.868,98.8695
730.552,97.9494
730.192,97.0293
729.876,96.5693
729.561,95.6492
729.245,94.7291
728.93,95.6492
728.613,95.6492
728.298,95.6492
727.982,96.5693
727.666,97.0293
727.351,97.9494
727.037,98.8695
726.722,100.25
726.406,103.47
726.091,104.85
725.775,104.85
725.459,104.85
725.143,103.93
724.827,103.93
724.512,103.47
724.196,103.47
723.883,98.8695
723.567,97.0293
723.251,97.0293
722.936,99.3295
722.62,99.3295
722.304,100.25
721.988,100.25
721.673,99.3295
721.357,96.5693
721.041,94.7291
720.728,93.349
720.412,92.4289
720.097,91.5089
719.781,91.5089
719.466,91.5089
719.149,91.5089
718.834,91.0488
718.518,91.0488
718.202,91.0488
717.887,91.0488
717.573,91.0488
717.258,91.0488
716.942,91.0488
716.626,91.5089
716.311,91.5089
715.995,92.4289
715.679,92.4289
715.363,92.4289
715.048,91.5089
714.732,90.1287
714.419,89.2087
714.103,87.8286
713.787,87.8286
713.472,87.8286
713.156,86.9084
712.84,86.9084
712.524,86.9084
712.209,86.9084
711.893,85.9884
711.577,85.5284
711.264,85.5284
710.948,85.5284
710.633,85.5284
710.317,85.9884
710.002,85.9884
709.685,85.9884
709.37,85.9884
709.054,85.9884
708.738,85.9884
708.423,85.9884
708.109,86.9084
707.794,87.8286
707.478,88.7486
707.162,91.5089
706.847,94.7291
706.531,96.5693
706.215,97.9494
705.899,99.3295
705.584,100.25
705.268,101.17
704.955,102.55
704.639,103.93
704.323,108.07
704.008,109.45
703.692,112.671
703.376,113.591
703.06,113.591
702.745,114.511
702.429,114.511
702.113,115.891
701.8,116.811
701.484,117.271
701.169,118.191
700.853,119.111
700.537,119.111
700.221,119.571
699.906,119.571
699.59,120.491
699.274,120.491
698.959,121.411
698.645,121.411
698.33,122.332
698.014,122.332
697.698,122.792
697.383,122.792
697.066,123.712
696.751,123.712
696.435,124.632
696.12,125.092
695.804,125.092
695.491,126.012
695.175,126.932
694.859,127.392
694.544,129.232
694.228,130.612
693.912,132.452
693.596,133.833
693.281,135.213
692.965,137.513
692.649,139.353
692.336,140.733
692.02,143.033
691.705,145.334
691.389,148.094
691.073,150.854
690.757,152.694
690.442,154.994
690.126,156.375
689.81,159.595
689.495,162.815
689.181,163.735
688.866,164.195
688.55,165.115
688.234,166.035
687.919,166.035
687.602,166.495
687.287,168.796
686.971,171.096
686.656,173.856
686.34,176.156
686.026,178.456
685.711,181.677
685.395,184.437
685.08,188.577
684.764,194.098
684.448,200.078
684.132,207.439
683.817,216.64
683.501,225.841
683.185,238.722
682.872,251.603
682.556,267.244
682.241,285.186
681.925,306.348
681.609,328.89
681.293,362.472
680.977,365.693
680.662,442.519
680.346,481.623
680.031,513.366
679.717,514.286
679.401,512.446
679.086,507.385
678.77,505.545
678.455,502.325
678.138,501.865
677.823,501.865
677.507,501.865
677.192,500.945
676.876,494.044
676.562,486.683
676.247,483.003
675.931,480.703
675.616,478.403
675.3,479.783
674.984,483.003
674.668,488.983
674.352,499.564
674.037,500.024
673.721,499.564
673.408,487.603
673.092,480.703
672.777,475.182
672.461,474.262
672.145,472.882
671.829,468.282
671.513,454.941
671.198,429.638
670.882,389.155
670.567,367.993
670.253,347.751
669.938,321.989
669.622,300.827
669.306,290.706
668.991,290.706
668.674,292.546
668.359,302.667
668.043,303.127
667.728,301.747
667.412,290.246
667.098,284.726
666.783,278.285
666.467,274.605
666.152,266.784
665.836,258.963
665.52,250.223
665.204,244.702
664.888,241.022
664.573,238.722
664.257,238.722
663.944,236.882
663.628,235.961
663.312,235.501
662.997,235.501
662.681,234.581
662.365,234.581
662.049,233.661
661.734,220.32
661.418,208.819
661.103,194.098
660.789,173.856
660.473,172.936
660.158,172.936
659.842,172.936
659.527,173.856
659.21,184.437
658.895,195.478
658.579,204.679
658.263,205.599
657.948,204.679
657.634,194.558
657.319,182.137
657.003,172.016
656.688,164.195
656.372,157.295
656.056,151.774
655.74,147.174
655.424,143.953
655.109,140.733
654.793,138.433
654.48,137.053
654.164,135.213
653.849,133.833
653.533,132.452
653.217,130.612
652.901,128.312
652.585,126.932
652.27,126.012
651.954,124.632
651.639,123.712
651.325,123.712
651.009,123.712
650.694,123.712
650.378,122.792
650.063,122.792
649.746,122.792
649.431,122.792
649.115,122.792
648.799,123.712
648.484,123.712
648.17,123.712
647.855,123.712
647.539,122.792
647.224,122.792
646.908,122.792
646.592,122.332
646.276,122.332
645.96,122.332
645.645,122.332
645.329,122.332
645.016,122.332
644.7,122.332
644.384,122.332
644.069,122.332
643.753,122.332
643.437,122.332
643.121,122.332
642.806,122.332
642.49,122.792
642.174,122.792
641.861,124.632
641.545,125.092
641.23,129.232
640.914,130.612
640.599,130.612
640.282,130.612
639.967,129.232
639.651,126.932
639.335,124.632
639.02,122.332
638.706,119.571
638.391,117.271
638.075,115.891
637.759,114.511
637.444,113.591
637.128,112.671
636.812,111.751
636.496,111.751
636.181,111.291
635.865,110.37
635.552,110.37
635.236,110.37
634.92,110.37
634.605,110.37
634.289,110.37
633.973,111.291
633.657,111.291
633.342,111.751
633.026,114.511
632.71,114.511
632.397,115.891
632.081,115.891
631.766,116.811
631.45,116.811
631.134,118.191
630.818,122.332
630.503,122.792
630.187,121.411
629.871,120.491
629.556,119.571
629.242,119.111
628.927,119.111
628.611,119.111
628.295,118.191
627.98,119.111
627.664,119.111
627.348,119.571
627.032,120.491
626.717,119.571
626.401,119.111
626.088,119.111
625.772,118.191
625.456,119.111
625.141,118.191
624.825,116.811
624.509,114.971
624.193,114.511
623.878,115.891
623.562,119.111
623.246,121.411
622.933,122.332
622.617,122.332
622.302,122.332
621.986,119.111
621.67,118.191
621.354,118.191
621.039,118.191
620.723,119.111
620.407,119.571
620.092,119.571
619.778,119.571
619.463,119.571
619.147,119.111
618.831,119.111
618.516,117.271
618.199,116.811
617.884,117.271
617.568,117.271
617.253,117.271
616.937,118.191
616.623,119.111
616.308,120.491
615.992,122.792
615.677,125.092
615.361,127.392
615.045,128.312
614.729,130.152
614.414,129.232
614.098,128.312
613.782,127.392
613.422,126.012
613.107,125.092
612.791,125.092
612.476,125.092
612.16,124.632
611.844,124.632
611.528,124.632
611.212,125.092
610.897,125.092
610.581,125.092
610.268,126.012
609.952,126.932
609.637,127.392
609.321,128.312
609.005,128.312
608.689,128.312
608.373,130.152
608.058,130.612
607.742,130.612
607.427,132.452
607.113,132.912
606.797,132.912
606.482,132.452
606.166,130.152
605.851,130.152
605.534,129.232
605.219,129.232
604.903,128.312
604.588,128.312
604.272,128.312
603.958,129.232
603.643,129.232
603.327,130.152
603.012,130.612
602.696,130.612
602.38,131.532
602.064,131.532
601.748,132.452
601.433,132.452
601.117,132.452
600.804,132.452
600.488,132.452
600.172,132.912
599.857,132.912
599.541,132.912
599.225,132.912
598.909,132.912
598.594,132.912
598.278,132.912
597.963,132.452
597.649,130.612
597.333,128.312
597.018,128.312
596.702,127.392
596.387,129.232
596.07,130.152
595.755,130.612
595.439,132.912
595.124,134.753
594.808,137.513
594.494,139.353
594.179,140.273
593.863,140.733
593.548,140.273
593.232,140.273
592.916,139.353
592.6,138.433
592.284,137.513
591.969,134.753
591.653,131.532
591.34,130.152
591.024,130.152
590.708,130.152
590.393,132.452
590.077,134.753
589.761,138.433
589.445,140.733
589.13,141.653
588.814,140.733
588.499,140.733
588.185,139.353
587.869,138.433
587.554,137.053
587.238,136.133
586.923,135.213
586.606,134.753
586.291,133.833
585.975,132.452
585.659,132.452
585.344,132.452
585.03,131.532
584.715,130.612
584.399,128.312
584.083,127.392
583.768,127.392
583.452,130.152
583.136,133.833
582.82,135.213
582.505,132.912
582.189,130.612
581.876,127.392
581.56,126.012
581.244,126.012
580.929,128.312
580.613,130.612
580.297,131.532
579.981,132.452
579.666,132.452
579.35,132.452
579.034,132.452
578.721,132.452
578.405,132.452
578.09,132.452
577.774,131.532
577.458,130.612
577.142,128.312
576.827,128.312
576.511,130.152
576.195,131.532
575.88,132.452
575.566,132.912
575.251,135.213
574.935,139.353
574.619,140.273
574.304,141.653
573.988,142.573
573.672,143.033
573.356,145.334
573.041,147.174
572.725,148.554
572.412,151.774
572.096,157.295
571.78,165.115
571.465,172.936
571.149,182.137
570.833,193.178
570.517,195.478
570.202,195.478
569.886,195.478
569.57,192.258
569.257,183.057
568.941,183.057
568.626,183.057
568.31,183.977
567.995,184.437
567.678,189.497
567.363,194.098
567.047,200.078
566.731,211.119
566.416,224.46
566.102,225.381
565.787,224.46
565.471,202.379
565.155,194.098
564.84,186.277
564.523,180.757
564.208,175.236
563.892,170.636
563.577,166.495
563.261,163.735
562.948,160.975
562.632,158.675
562.316,157.295
562.001,155.914
561.685,154.074
561.369,152.694
561.053,150.854
560.738,148.554
560.422,148.554
560.106,148.094
559.793,148.094
559.477,147.174
559.162,147.174
558.846,146.254
558.53,146.254
558.214,146.254
557.899,146.254
557.583,146.254
557.267,146.254
556.952,146.254
556.638,146.254
556.323,146.254
556.007,146.254
555.691,146.254
555.376,146.254
555.059,146.254
554.744,146.254
554.428,147.174
554.113,147.174
553.797,147.174
553.484,148.094
553.168,148.094
552.852,148.094
552.537,148.554
552.221,149.474
551.905,150.394
551.589,150.394
551.274,150.854
550.958,150.854
550.642,151.774
550.329,151.774
550.013,152.694
549.698,154.074
549.382,154.994
549.066,154.994
548.75,154.994
548.434,154.994
548.119,154.994
547.803,154.994
547.488,154.074
547.174,154.074
546.859,154.074
546.543,154.074
546.227,154.074
545.912,154.074
545.595,154.074
545.28,154.074
544.964,154.074
544.649,154.074
544.333,153.154
544.019,153.154
543.704,153.154
543.388,153.154
543.073,153.154
542.757,153.154
542.441,153.154
542.125,153.154
541.81,154.074
541.494,154.074
541.178,154.074
540.865,154.074
540.549,154.074
540.234,154.994
539.918,154.994
539.602,154.994
539.286,155.914
538.97,155.914
538.655,155.914
538.339,156.375
538.024,156.375
537.71,157.295
537.395,158.675
537.079,159.595
536.763,160.515
536.448,160.515
536.131,161.895
535.816,162.815
535.5,162.815
535.185,162.815
534.869,163.735
534.555,164.195
534.24,165.115
533.924,166.035
533.609,166.035
533.293,166.495
532.977,168.336
532.661,170.636
532.346,171.096
532.03,172.016
531.714,173.856
531.401,174.316
531.085,175.236
530.77,177.536
530.454,178.916
530.138,181.677
529.822,185.357
529.506,186.737
529.191,188.577
528.875,189.497
528.56,190.878
528.246,193.178
527.93,196.398
527.615,201.918
527.299,203.299
526.984,206.519
526.667,212.039
526.352,217.56
526.036,224.46
525.721,233.201
525.405,241.482
525.091,250.223
524.776,260.344
524.46,271.385
524.145,285.186
523.829,302.667
523.513,325.209
523.197,353.272
522.881,390.995
522.566,439.299
522.25,486.683
521.937,488.983
521.621,486.683
521.306,478.863
520.99,475.182
520.674,472.882
520.358,471.042
520.042,469.662
519.727,467.362
519.411,464.141
519.096,458.621
518.782,452.64
518.466,446.2
518.151,440.679
517.835,435.159
517.52,429.638
517.203,425.038
516.888,420.438
516.572,418.137
516.256,414.457
515.941,410.317
515.627,404.796
515.312,399.276
514.996,392.375
514.681,384.554
514.365,375.354
514.049,364.313
513.733,352.352
513.417,347.751
513.102,340.851
512.786,331.65
512.473,321.069
512.157,310.488
511.841,300.827
511.526,294.847
511.21,288.406
510.894,288.406
510.578,287.486
510.263,288.406
509.947,294.847
509.632,298.067
509.318,305.888
509.002,314.168
508.687,324.289
508.371,333.03
508.056,340.851
507.739,354.652
507.424,371.213
507.108,390.995
506.792,405.716
506.477,419.517
506.163,428.258
505.848,435.159
505.532,437.459
505.216,445.28
504.901,446.2
504.585,445.28
504.269,425.958
503.953,410.317
503.638,399.276
503.322,398.816
503.009,400.196
502.693,411.237
502.377,425.958
502.062,434.699
501.746,445.28
501.43,456.321
501.114,465.061
500.799,471.042
500.483,476.562
500.167,479.783
499.808,483.003
499.492,486.683
499.176,490.824
498.861,496.804
498.545,496.804
498.229,500.945
497.913,502.325
497.598,501.865
497.282,501.865
496.966,500.945
496.653,499.564
496.337,497.724
496.022,496.804
495.706,492.204
495.39,489.904
495.074,489.904
494.759,488.983
494.443,488.983
494.127,489.904
493.812,489.904
493.498,491.744
493.183,493.124
492.867,494.044
492.551,494.504
492.236,494.044
491.919,488.523
491.604,480.703
491.288,474.262
490.973,464.141
490.657,438.379
490.344,414.457
490.028,389.155
489.712,366.613
489.397,350.971
489.081,341.771
488.765,336.71
488.449,339.931
488.134,342.231
487.818,348.671
487.502,361.092
487.189,367.993
486.873,380.874
486.558,382.254
486.242,380.874
485.926,364.313
485.61,347.751
485.294,328.89
484.979,314.168
484.663,300.827
484.348,290.706
484.034,281.505
483.719,275.065
483.403,267.244
483.087,261.264
482.772,259.423
482.455,260.344
482.14,262.644
481.824,266.784
481.509,269.544
481.193,276.905
480.879,281.505
480.564,286.106
480.248,289.326
479.933,290.246
479.617,289.326
479.301,286.106
478.985,282.886
478.67,279.205
478.354,273.685
478.038,268.164
477.725,265.864
477.409,264.484
477.094,260.344
476.778,258.963
476.462,258.963
476.146,261.264
475.83,270.464
475.515,283.806
475.199,296.227
474.884,309.568
474.57,321.989
474.254,345.451
473.939,357.412
473.623,371.213
473.308,384.554
472.991,385.474
472.676,384.554
472.36,376.734
472.045,362.012
471.729,345.451
471.415,328.43
471.1,313.248
470.784,300.367
470.469,292.546
470.153,287.486
469.837,286.106
469.521,286.106
469.206,287.026
468.89,295.307
468.574,304.047
468.261,313.248
467.945,322.909
467.63,338.55
467.314,350.971
466.998,363.393
466.682,376.734
466.366,389.155
466.051,401.116
465.735,411.237
465.42,419.517
465.106,426.878
464.79,428.258
464.475,426.878
464.159,421.818
463.844,418.137
463.527,414.917
463.212,415.837
462.896,416.757
462.581,418.137
462.265,418.137
461.951,417.217
461.636,407.096
461.32,392.375
461.005,375.814
460.689,365.693
460.373,349.591
460.057,328.89
459.741,310.488
459.426,296.227
459.11,292.546
458.797,287.486
458.481,282.886
458.165,279.205
457.85,278.285
457.534,275.985
457.218,275.985
456.902,275.985
456.587,276.905
456.271,276.905
455.956,277.365
455.642,277.365
455.326,279.205
455.011,280.585
454.695,281.505
454.38,284.726
454.063,288.406
453.748,291.626
453.432,293.006
453.116,294.847
452.801,297.147
452.487,301.747
452.172,304.047
451.856,308.188
451.541,310.488
451.225,312.788
450.909,316.468
450.593,320.609
450.277,325.209
449.962,329.81
449.646,335.33
449.333,340.851
449.017,347.751
448.701,354.652
448.386,360.172
448.07,367.533
447.754,373.513
447.438,387.775
447.123,398.816
446.807,408.016
446.492,414.917
446.178,421.358
445.862,429.178
445.547,436.999
445.231,447.12
444.916,460.921
444.599,471.962
444.284,478.863
443.968,484.383
443.652,488.523
443.337,492.204
443.023,496.804
442.708,500.945
442.392,501.865
442.077,503.245
441.761,505.545
441.445,505.545
441.129,506.465
440.813,507.385
440.498,507.845
440.182,507.845
439.869,507.845
439.553,507.845
439.237,507.845
438.922,507.845
438.606,507.385
438.29,507.385
437.974,506.465
437.659,505.545
437.343,505.545
437.027,505.545
436.714,505.545
436.398,505.545
436.083,505.545
435.767,506.465
435.452,506.465
435.135,506.465
434.82,506.465
434.504,506.465
434.188,505.545
433.873,506.465
433.559,506.465
433.244,506.465
432.928,506.465
432.612,505.545
432.297,504.625
431.981,503.245
431.665,500.945
431.349,498.644
431.034,495.424
430.718,492.204
430.405,488.983
430.089,486.683
429.773,486.683
429.458,488.523
429.142,489.904
428.826,493.124
428.51,494.504
428.195,497.724
427.879,500.024
427.563,502.325
427.25,504.165
426.934,504.625
426.619,504.165
426.303,504.165
425.987,502.325
425.671,502.325
425.356,500.024
425.04,500.024
424.724,500.024
424.409,500.024
424.095,500.024
423.78,500.024
423.464,500.945
423.148,501.865
422.833,504.165
422.517,504.625
422.201,505.545
421.885,506.465
421.57,507.385
421.254,507.385
420.941,507.385
420.625,507.385
420.309,507.845
419.994,508.765
419.678,508.765
419.362,508.765
419.046,507.845
418.731,507.845
418.415,507.845
418.099,507.385
417.786,507.385
417.47,507.385
417.155,507.385
416.839,507.385
416.523,507.385
416.207,507.385
415.892,507.385
415.576,507.385
415.26,507.385
414.945,506.465
414.631,506.465
414.316,506.465
414,506.465
413.684,505.545
413.369,504.165
413.052,502.325
412.737,500.945
412.421,498.644
412.106,496.804
411.79,490.824
411.477,485.303
411.161,478.403
410.845,471.962
410.53,468.282
410.214,458.621
409.898,450.34
409.582,440.679
409.267,432.859
408.951,426.878
408.635,421.818
408.322,419.057
408.006,417.217
407.691,417.217
407.375,416.757
407.059,415.837
406.743,415.837
406.428,416.757
406.112,421.818
405.796,427.338
405.481,431.478
405.167,436.079
404.852,440.679
404.536,448.04
404.22,451.72
403.905,456.321
403.588,460.921
403.273,464.141
402.957,467.362
402.642,469.662
402.326,470.582
402.012,471.962
401.697,472.882
401.381,473.802
401.066,472.882
400.75,468.742
400.434,465.061
400.118,459.541
399.803,459.541
399.487,454.941
399.171,448.5
398.858,440.679
398.542,435.159
398.227,429.638
397.911,429.178
397.595,427.338
397.279,426.878
396.963,424.578
396.648,422.738
396.332,420.438
396.017,419.517
395.703,419.517
395.388,419.057
395.072,416.757
394.756,413.537
394.441,408.937
394.124,403.876
393.809,399.276
393.493,394.675
393.178,390.075
392.862,385.474
392.548,382.254
392.233,380.874
391.917,379.034
391.602,378.114
391.286,376.734
390.97,375.814
390.654,374.434
390.338,373.513
390.023,373.513
389.707,373.513
389.394,374.434
389.078,374.434
388.763,373.513
388.447,366.613
388.131,360.172
387.815,358.792
387.499,355.572
387.184,354.192
386.868,354.192
386.553,353.272
386.239,354.192
385.923,357.872
385.608,363.393
385.292,371.213
384.977,380.874
384.66,391.455
384.345,403.416
384.029,414.917
383.714,427.338
383.398,439.299
383.038,451.72
382.722,462.761
382.407,471.962
382.091,480.703
381.776,487.603
381.459,492.204
381.144,494.044
380.828,496.344
380.512,496.804
380.197,498.644
379.883,498.644
379.568,499.564
379.252,499.564
378.936,500.024
378.621,500.945
378.305,500.945
377.989,501.865
377.673,502.325
377.358,503.245
377.042,503.245
376.729,504.165
376.413,504.165
376.097,503.245
375.782,502.325
375.466,501.865
375.15,501.865
374.834,500.945
374.519,499.564
374.203,497.724
373.887,495.424
373.574,494.504
373.258,492.204
372.943,488.983
372.627,486.223
372.312,482.083
371.995,478.863
371.68,476.102
371.364,474.262
371.048,471.042
370.733,470.582
370.419,468.282
370.104,467.362
369.788,465.061
369.472,465.061
369.157,464.141
368.841,463.221
368.525,461.841
368.209,459.541
367.894,456.321
367.578,454.02
367.265,450.34
366.949,447.12
366.633,442.979
366.318,439.299
366.002,433.779
365.686,429.178
365.37,423.658
365.055,420.438
364.739,417.217
364.423,415.837
364.11,413.537
363.794,411.697
363.479,413.537
363.163,414.917
362.847,415.837
362.531,417.217
362.216,419.057
361.9,422.738
361.584,426.878
361.269,428.258
360.955,432.399
360.64,433.779
360.324,436.999
360.008,440.679
359.693,444.82
359.376,450.8
359.061,455.401
358.745,458.161
358.43,460.461
358.114,462.761
357.801,465.982
357.485,468.742
357.169,473.802
356.854,473.802
356.538,476.102
356.222,476.562
355.906,476.562
355.591,477.482
355.275,478.403
354.959,477.482
354.646,476.102
354.33,473.802
354.015,471.042
353.699,468.282
353.383,464.141
353.067,459.541
352.752,455.401
352.436,450.34
352.12,445.28
351.805,439.299
351.491,433.779
351.176,428.258
350.86,421.818
350.544,416.757
350.229,411.237
349.912,403.876
349.597,396.055
349.281,388.235
348.966,378.114
348.65,368.913
348.336,357.872
348.021,346.831
347.705,335.33
347.39,322.909
347.074,310.948
346.758,299.447
346.442,292.546
346.127,287.026
345.811,280.585
345.495,274.605
345.182,264.944
344.866,260.344
344.551,253.443
344.235,250.223
343.919,247.002
343.603,243.782
343.288,241.022
342.972,237.802
342.656,234.581
342.341,231.361
342.027,229.061
341.712,225.841
341.396,223.54
341.08,222.16
340.765,219.86
340.448,218.94
340.133,217.56
339.817,217.56
339.502,217.56
339.186,217.56
338.872,217.56
338.557,217.56
338.241,217.56
337.926,216.64
337.61,216.64
337.294,215.26
336.978,214.34
336.663,214.34
336.347,214.34
336.031,214.34
335.718,214.34
335.402,215.26
335.087,215.26
334.771,215.72
334.455,215.72
334.139,215.26
333.823,215.26
333.508,215.26
333.192,214.34
332.877,213.419
332.563,212.499
332.247,212.039
331.932,210.199
331.616,206.519
331.301,204.679
330.984,204.679
330.669,204.679
330.353,205.599
330.038,205.599
329.722,205.599
329.408,206.519
329.093,210.199
328.777,212.499
328.462,215.26
328.146,215.72
327.83,218.02
327.514,222.16
327.198,227.681
326.883,235.501
326.567,247.922
326.254,258.963
325.938,267.244
325.623,271.385
325.307,282.886
324.991,289.326
324.675,298.067
324.359,301.747
324.044,304.967
323.728,306.348
323.413,306.348
323.099,306.348
322.783,304.047
322.468,299.447
322.152,293.927
321.837,287.486
321.52,283.806
321.205,279.665
320.889,275.985
320.574,272.305
320.258,266.784
319.944,261.264
319.629,255.743
319.313,251.143
318.998,246.082
318.682,242.402
318.366,238.722
318.05,235.961
317.734,233.201
317.419,230.901
317.103,227.681
316.79,225.841
316.474,224.46
316.159,224.46
315.843,223.08
315.527,223.08
315.211,223.08
314.895,223.08
314.58,223.54
314.264,224.46
313.949,225.381
313.635,226.761
313.319,228.141
313.004,229.981
312.688,230.901
312.373,233.201
312.056,234.581
311.741,236.882
311.425,239.182
311.109,241.022
310.794,243.782
310.48,244.702
310.165,246.082
309.849,246.082
309.534,246.082
309.218,246.082
308.902,246.082
308.586,246.082
308.27,247.002
307.955,250.223
307.639,251.143
307.326,252.523
307.01,253.903
306.694,254.823
306.379,256.663
306.063,258.043
305.747,258.043
305.431,258.043
305.116,257.123
304.8,257.123
304.484,256.663
304.171,255.743
303.855,254.823
303.54,253.903
303.224,253.443
302.909,251.603
302.592,250.223
302.277,247.922
301.961,245.622
301.645,245.622
301.33,244.702
301.016,243.782
300.701,243.782
300.385,242.402
300.07,241.482
299.754,239.182
299.438,238.722
299.122,238.722
298.806,237.802
298.491,237.802
298.175,238.722
297.862,243.322
297.546,245.622
297.23,247.002
296.915,247.002
296.599,247.002
296.283,249.303
295.967,251.603
295.652,254.823
295.336,259.423
295.02,264.484
294.707,269.084
294.391,275.065
294.076,281.505
293.76,287.486
293.445,293.927
293.128,300.367
292.813,306.348
292.497,312.788
292.181,318.769
291.866,325.209
291.552,330.73
291.237,335.33
290.921,339.47
290.605,343.151
290.29,346.371
289.974,349.591
289.658,354.652
289.342,357.872
289.027,358.792
288.711,357.872
288.398,357.872
288.082,357.412
287.766,357.412
287.451,355.572
287.135,354.192
286.819,348.671
286.503,343.151
286.188,338.55
285.872,333.95
285.556,328.43
285.243,324.289
284.927,319.689
284.612,316.008
284.296,310.948
283.98,307.268
283.664,304.047
283.349,300.367
283.033,297.147
282.717,293.927
282.402,291.626
282.088,290.706
281.773,289.326
281.457,289.326
281.141,288.406
280.826,288.406
280.51,288.406
280.194,288.406
279.878,288.406
279.563,292.546
279.247,295.307
278.934,299.447
278.618,303.127
278.302,308.188
277.987,312.788
277.671,317.389
277.355,320.609
277.039,322.909
276.724,326.129
276.408,329.81
276.092,330.73
275.779,329.81
275.463,328.43
275.148,325.209
274.832,320.609
274.516,315.088
274.2,308.188
273.885,300.827
273.569,295.307
273.253,290.706
272.938,284.726
272.624,279.205
272.309,272.765
271.993,266.784
271.677,260.344
271.362,255.743
271.045,250.223
270.73,244.702
270.414,241.022
270.099,237.802
269.783,234.581
269.469,233.661
269.154,230.901
268.838,228.141
268.523,226.761
268.207,224.46
267.891,222.16
267.575,218.94
267.26,215.72
266.944,212.499
266.628,211.119
266.268,210.199
265.953,208.819
265.637,206.519
265.322,204.679
265.006,201.918
264.69,199.618
264.374,197.318
264.058,196.398
263.743,195.478
263.427,194.098
263.114,192.258
262.798,191.798
262.483,190.878
262.167,189.957
261.851,189.497
261.535,187.657
261.219,187.657
260.904,186.737
260.588,186.737
260.273,186.277
259.959,185.357
259.643,185.357
259.328,185.357
259.012,185.357
258.697,185.357
258.38,184.437
258.065,184.437
257.749,184.437
257.434,184.437
257.118,184.437
256.804,184.437
256.489,184.437
256.173,184.437
255.858,184.437
255.542,184.437
255.226,184.437
254.91,184.437
254.594,184.437
254.279,184.437
253.963,184.437
253.65,185.357
253.334,185.357
253.019,186.277
252.703,186.277
252.387,186.737
252.071,188.577
251.755,189.497
251.44,189.957
251.124,190.878
250.809,192.258
250.495,193.178
250.179,193.178
249.864,194.098
249.548,194.558
249.233,195.478
248.916,196.398
248.601,198.698
248.285,198.698
247.969,200.078
247.654,200.078
247.34,200.998
247.025,200.998
246.709,201.918
246.394,202.379
246.078,203.299
245.762,204.679
245.446,206.519
245.13,209.739
244.815,209.739
244.499,210.199
244.186,211.119
243.87,212.039
243.554,212.039
243.239,212.499
242.923,212.499
242.607,214.34
242.291,215.72
241.976,216.64
241.66,218.02
241.344,218.94
241.031,219.86
240.715,220.32
240.4,220.32
240.084,220.32
239.769,221.24
239.452,221.24
239.137,221.24
238.821,221.24
238.505,221.24
238.19,222.16
237.876,222.16
237.561,223.08
237.245,223.08
236.93,223.08
236.614,224.46
236.298,225.381
235.982,225.841
235.666,226.761
235.351,228.141
235.035,230.901
234.722,233.201
234.406,233.661
234.09,235.501
233.775,237.802
233.459,240.102
233.143,242.402
232.827,244.702
232.512,246.082
232.196,247.002
231.88,251.143
231.567,251.603
231.251,252.523
230.936,252.523
230.62,252.523
230.305,251.603
229.988,251.603
229.673,251.603
229.357,251.603
229.041,251.143
228.726,251.143
228.412,251.143
228.097,251.603
227.781,251.603
227.465,251.603
227.15,251.603
226.834,252.523
226.518,251.603
226.202,252.523
225.887,253.443
225.571,253.443
225.258,253.903
224.942,253.903
224.626,253.903
224.311,253.903
223.995,253.903
223.679,253.903
223.363,253.903
223.048,254.823
222.732,255.743
222.416,259.423
222.103,262.644
221.787,265.864
221.472,269.544
221.156,272.765
220.84,275.985
220.524,279.205
220.209,282.425
219.893,285.186
219.577,288.406
219.262,292.546
218.948,298.067
218.633,300.827
218.317,302.667
218.001,303.127
217.686,304.967
217.37,305.888
217.054,306.348
216.738,306.348
216.423,306.348
216.107,306.348
215.794,306.348
215.478,305.888
215.162,303.127
214.847,297.147
214.531,293.927
214.215,293.006
213.899,291.626
213.584,287.486
213.268,282.886
212.952,277.365
212.639,273.685
212.323,269.544
212.008,266.784
211.692,263.564
211.376,260.344
211.06,257.123
210.745,253.903
210.429,251.603
210.113,248.843
209.798,245.622
209.484,243.322
209.169,242.402
208.853,241.482
208.537,241.022
208.222,239.182
207.905,235.961
207.59,232.281
207.274,230.901
206.959,229.981
206.643,228.141
206.329,225.841
206.014,223.54
205.698,221.24
205.383,219.86
205.067,218.94
204.751,217.56
204.435,215.26
204.12,213.419
203.804,211.119
203.488,208.819
203.175,206.519
202.859,204.219
202.544,200.998
202.228,198.698
201.912,196.398
201.596,194.098
201.28,192.258
200.965,189.497
200.649,186.277
200.334,183.977
200.02,182.137
199.705,181.677
199.389,179.837
199.073,178.916
198.758,178.456
198.441,176.616
198.126,175.236
197.81,172.936
197.495,172.016
197.179,172.016
196.865,171.096
196.55,170.636
196.234,169.716
195.919,168.796
195.603,167.415
195.287,166.495
194.971,166.035
194.656,166.035
194.34,165.115
194.024,165.115
193.711,164.195
193.395,163.735
193.08,163.735
192.764,163.735
192.448,162.815
192.132,161.895
191.816,161.895
191.501,161.895
191.185,161.895
190.87,161.895
190.556,160.975
190.241,160.975
189.925,160.515
189.609,160.515
189.294,160.515
188.977,160.515
188.662,159.595
188.346,158.675
188.031,158.675
187.715,158.675
187.401,158.675
187.086,158.675
186.77,158.675
186.455,159.595
186.139,159.595
185.823,159.595
185.507,159.595
185.191,159.595
184.876,159.595
184.56,159.595
184.247,160.515
183.931,160.515
183.616,160.515
183.3,159.595
182.984,159.595
182.668,159.595
182.352,159.595
182.037,158.675
181.721,158.675
181.406,158.675
181.092,158.675
180.776,158.675
180.461,158.215
180.145,158.215
179.83,158.215
179.513,158.215
179.198,158.215
178.882,158.215
178.567,158.215
178.251,158.215
177.937,158.215
177.622,158.215
177.306,158.215
176.991,158.215
176.675,158.215
176.359,158.675
176.043,158.675
175.727,158.675
175.412,159.595
175.096,159.595
174.783,159.595
174.467,159.595
174.152,159.595
173.836,159.595
173.52,159.595
173.204,159.595
172.888,159.595
172.573,159.595
172.257,159.595
171.942,160.515
171.628,159.595
171.312,159.595
170.997,159.595
170.681,159.595
170.366,159.595
170.049,158.675
169.734,158.675
169.418,158.675
169.102,158.675
168.787,158.675
168.473,158.675
168.158,158.675
167.842,158.675
167.527,158.675
167.211,158.675
166.895,159.595
166.579,160.515
166.263,160.975
165.948,160.515
165.632,160.975
165.319,160.975
165.003,161.895
164.687,161.895
164.372,161.895
164.056,162.815
163.74,162.815
163.424,163.735
163.109,163.735
162.793,163.735
162.477,164.195
162.164,164.195
161.848,165.115
161.533,164.195
161.217,165.115
160.902,165.115
160.585,164.195
160.27,164.195
159.954,164.195
159.638,164.195
159.323,164.195
159.009,164.195
158.694,166.495
158.378,167.415
158.062,168.336
157.747,168.336
157.431,168.336
157.115,168.336
156.799,168.336
156.484,166.495
156.168,167.415
155.855,167.415
155.539,167.415
155.223,168.796
154.908,168.796
154.592,169.716
154.276,169.716
153.96,168.796
153.645,168.796
153.329,169.716
153.013,169.716
152.7,170.636
152.384,170.636
152.069,170.636
151.753,171.096
151.438,171.096
151.121,172.016
150.806,172.016
150.49,172.016
150.174,172.936
149.859,173.856
149.499,174.316
149.183,175.236
148.868,175.236
148.552,175.236
148.236,175.236
147.92,175.236
147.605,174.316
147.289,173.856
146.973,173.856
146.658,173.856
146.344,173.856
146.029,173.856
145.713,173.856
145.397,173.856
145.082,174.316
144.765,174.316
144.45,175.236
144.134,175.236
143.819,176.156
143.503,176.156
143.189,176.156
142.874,176.616
142.558,177.536
142.243,178.456
141.927,179.837
141.611,182.137
141.295,183.977
140.98,186.737
140.664,189.497
140.348,192.258
140.035,193.178
139.719,194.098
139.404,194.098
139.088,194.098
138.772,194.098
138.456,193.178
138.141,192.258
137.825,191.798
137.509,189.957
137.194,188.577
136.88,186.737
136.565,184.437
136.249,183.977
135.933,183.057
135.618,183.057
135.301,182.137
134.986,182.137
134.67,182.137
134.355,182.137
134.039,182.137
133.725,182.137
133.41,182.137
133.094,182.137
132.779,183.057
132.463,183.977
132.147,183.977
131.831,184.437
131.516,184.437
131.2,185.357
130.884,186.277
130.571,187.657
130.255,188.577
129.94,189.497
129.624,189.497
129.308,189.957
128.992,189.957
128.676,189.957
128.361,189.957
128.045,189.957
127.73,190.878
127.416,191.798
127.101,191.798
126.785,191.798
126.469,191.798
126.154,191.798
125.837,191.798
125.522,192.258
125.206,192.258
124.891,193.178
124.575,193.178
124.261,194.098
123.946,194.098
123.63,194.098
123.315,194.098
122.999,194.098
122.683,194.558
122.367,194.558
122.051,195.478
121.736,196.398
121.42,197.318
121.107,197.778
120.791,198.698
120.476,199.618
120.16,199.618
119.844,199.618
119.528,199.618
119.212,199.618
118.897,199.618
118.581,199.618
118.266,199.618
117.952,199.618
117.636,199.618
117.321,199.618
117.005,200.078
116.69,200.998
116.373,201.918
116.058,202.379
115.742,202.379
115.427,203.299
115.111,203.299
114.797,204.219
114.482,204.219
114.166,204.219
113.851,204.679
113.535,204.679
113.219,205.599
112.903,205.599
112.587,205.599
112.272,206.519
111.956,207.439
111.643,207.439
111.327,207.439
111.012,207.439
110.696,207.439
110.38,207.439
110.064,207.439
109.748,207.439
109.433,207.439
109.117,207.439
108.802,207.899
108.488,211.119
108.172,212.039
107.857,212.039
107.541,212.499
107.226,213.419
106.909,214.34
106.594,214.34
106.278,214.34
105.962,214.34
105.647,214.34
105.333,214.34
105.018,214.34
104.702,214.34
104.387,214.34
104.071,214.34
103.755,214.34
103.439,214.34
103.123,214.34
102.808,214.34
102.492,214.34
102.179,214.34
101.863,214.34
101.547,215.26
101.232,215.26
100.916,215.72
100.6,216.64
100.284,216.64
99.9687,217.56
99.6531,218.02
99.3375,218.94
99.024,219.86
98.7084,219.86
98.3928,219.86
98.0772,220.32
97.7616,220.32
97.4453,221.24
97.1296,221.24
96.814,221.24
96.4985,221.24
96.1828,221.24
95.8693,221.24
95.5537,221.24
95.2381,222.16" />
</g>
</svg>
