<?xml version="1.0"?>
<svg version="1.1"
     xmlns="http://www.w3.org/2000/svg"
     xmlns:xlink="http://www.w3.org/1999/xlink"
     viewBox="0 0 800 600">
<g>
<text fill="#000000" font-family="sans-serif" font-size="19.0476" text-anchor="start" x="4.7619" y="591.429" >
NIST Chemistry WebBook (https://webbook.nist.gov/chemistry)
</text>
<polyline stroke="#000000" stroke-width="1.19048" fill="none" points="95.2381,514.286
742.857,514.286
742.857,66.6667
95.2381,66.6667
95.2381,514.286" />
<text fill="#000000" font-family="sans-serif" font-size="19.0476" text-anchor="middle" x="419.048" y="24.7619" >
1,3,4,5-TETRAHYDROXYCYCLOHEXANECARBOXYLIC ACID, Gamma-LACTONE
</text>
<text fill="#000000" font-family="sans-serif" font-size="19.0476" text-anchor="middle" x="419.048" y="53.3333" >
INFRARED SPECTRUM
</text>
<text fill="#000000" font-family="sans-serif" font-size="19.0476" text-anchor="middle" x="419.048" y="558.095" >
Wavenumber (cm-1)
</text>
<text fill="#000000" font-family="sans-serif" font-size="19.0476" text-anchor="middle" transform="translate(20,290.476) rotate(270)" x="0" y="0" >
Transmitance
</text>
<text fill="#000000" font-family="sans-serif" font-size="19.0476" text-anchor="middle" x="645.337" y="534.286" >
1000
</text>
<line stroke="#000000" stroke-width="1.19048" x1="645.337" y1="514.286" x2="645.337" y2="504.762" />
<text fill="#000000" font-family="sans-serif" font-size="19.0476" text-anchor="middle" x="461.876" y="534.286" >
2000
</text>
<line stroke="#000000" stroke-width="1.19048" x1="461.876" y1="514.286" x2="461.876" y2="504.762" />
<text fill="#000000" font-family="sans-serif" font-size="19.0476" text-anchor="middle" x="278.415" y="534.286" >
3000
</text>
<line stroke="#000000" stroke-width="1.19048" x1="278.415" y1="514.286" x2="278.415" y2="504.762" />
<line stroke="#000000" stroke-width="1.19048" x1="737.067" y1="514.286" x2="737.067" y2="509.524" />
<line stroke="#000000" stroke-width="1.19048" x1="718.721" y1="514.286" x2="718.721" y2="509.524" />
<line stroke="#000000" stroke-width="1.19048" x1="700.375" y1="514.286" x2="700.375" y2="509.524" />
<line stroke="#000000" stroke-width="1.19048" x1="682.029" y1="514.286" x2="682.029" y2="509.524" />
<line stroke="#000000" stroke-width="1.19048" x1="663.683" y1="514.286" x2="663.683" y2="509.524" />
<line stroke="#000000" stroke-width="1.19048" x1="645.337" y1="514.286" x2="645.337" y2="509.524" />
<line stroke="#000000" stroke-width="1.19048" x1="626.991" y1="514.286" x2="626.991" y2="509.524" />
<line stroke="#000000" stroke-width="1.19048" x1="608.645" y1="514.286" x2="608.645" y2="509.524" />
<line stroke="#000000" stroke-width="1.19048" x1="590.299" y1="514.286" x2="590.299" y2="509.524" />
<line stroke="#000000" stroke-width="1.19048" x1="571.952" y1="514.286" x2="571.952" y2="509.524" />
<line stroke="#000000" stroke-width="1.19048" x1="553.606" y1="514.286" x2="553.606" y2="509.524" />
<line stroke="#000000" stroke-width="1.19048" x1="535.26" y1="514.286" x2="535.26" y2="509.524" />
<line stroke="#000000" stroke-width="1.19048" x1="516.914" y1="514.286" x2="516.914" y2="509.524" />
<line stroke="#000000" stroke-width="1.19048" x1="498.568" y1="514.286" x2="498.568" y2="509.524" />
<line stroke="#000000" stroke-width="1.19048" x1="480.222" y1="514.286" x2="480.222" y2="509.524" />
<line stroke="#000000" stroke-width="1.19048" x1="461.876" y1="514.286" x2="461.876" y2="509.524" />
<line stroke="#000000" stroke-width="1.19048" x1="443.53" y1="514.286" x2="443.53" y2="509.524" />
<line stroke="#000000" stroke-width="1.19048" x1="425.184" y1="514.286" x2="425.184" y2="509.524" />
<line stroke="#000000" stroke-width="1.19048" x1="406.838" y1="514.286" x2="406.838" y2="509.524" />
<line stroke="#000000" stroke-width="1.19048" x1="388.492" y1="514.286" x2="388.492" y2="509.524" />
<line stroke="#000000" stroke-width="1.19048" x1="370.145" y1="514.286" x2="370.145" y2="509.524" />
<line stroke="#000000" stroke-width="1.19048" x1="351.799" y1="514.286" x2="351.799" y2="509.524" />
<line stroke="#000000" stroke-width="1.19048" x1="333.453" y1="514.286" x2="333.453" y2="509.524" />
<line stroke="#000000" stroke-width="1.19048" x1="315.107" y1="514.286" x2="315.107" y2="509.524" />
<line stroke="#000000" stroke-width="1.19048" x1="296.761" y1="514.286" x2="296.761" y2="509.524" />
<line stroke="#000000" stroke-width="1.19048" x1="278.415" y1="514.286" x2="278.415" y2="509.524" />
<line stroke="#000000" stroke-width="1.19048" x1="260.069" y1="514.286" x2="260.069" y2="509.524" />
<line stroke="#000000" stroke-width="1.19048" x1="241.723" y1="514.286" x2="241.723" y2="509.524" />
<line stroke="#000000" stroke-width="1.19048" x1="223.377" y1="514.286" x2="223.377" y2="509.524" />
<line stroke="#000000" stroke-width="1.19048" x1="205.031" y1="514.286" x2="205.031" y2="509.524" />
<line stroke="#000000" stroke-width="1.19048" x1="186.685" y1="514.286" x2="186.685" y2="509.524" />
<line stroke="#000000" stroke-width="1.19048" x1="168.339" y1="514.286" x2="168.339" y2="509.524" />
<line stroke="#000000" stroke-width="1.19048" x1="149.992" y1="514.286" x2="149.992" y2="509.524" />
<line stroke="#000000" stroke-width="1.19048" x1="131.646" y1="514.286" x2="131.646" y2="509.524" />
<line stroke="#000000" stroke-width="1.19048" x1="113.3" y1="514.286" x2="113.3" y2="509.524" />
<text fill="#000000" font-family="sans-serif" font-size="19.0476" text-anchor="end" x="90.4762" y="427.39" >
0.2
</text>
<line stroke="#000000" stroke-width="1.19048" x1="95.2381" y1="423.104" x2="104.762" y2="423.104" />
<text fill="#000000" font-family="sans-serif" font-size="19.0476" text-anchor="end" x="90.4762" y="329.869" >
0.4
</text>
<line stroke="#000000" stroke-width="1.19048" x1="95.2381" y1="325.584" x2="104.762" y2="325.584" />
<text fill="#000000" font-family="sans-serif" font-size="19.0476" text-anchor="end" x="90.4762" y="232.349" >
0.6
</text>
<line stroke="#000000" stroke-width="1.19048" x1="95.2381" y1="228.063" x2="104.762" y2="228.063" />
<text fill="#000000" font-family="sans-serif" font-size="19.0476" text-anchor="end" x="90.4762" y="134.828" >
0.8
</text>
<line stroke="#000000" stroke-width="1.19048" x1="95.2381" y1="130.543" x2="104.762" y2="130.543" />
<line stroke="#000000" stroke-width="1.19048" x1="95.2381" y1="496.244" x2="100" y2="496.244" />
<line stroke="#000000" stroke-width="1.19048" x1="95.2381" y1="471.864" x2="100" y2="471.864" />
<line stroke="#000000" stroke-width="1.19048" x1="95.2381" y1="447.484" x2="100" y2="447.484" />
<line stroke="#000000" stroke-width="1.19048" x1="95.2381" y1="423.104" x2="100" y2="423.104" />
<line stroke="#000000" stroke-width="1.19048" x1="95.2381" y1="398.724" x2="100" y2="398.724" />
<line stroke="#000000" stroke-width="1.19048" x1="95.2381" y1="374.344" x2="100" y2="374.344" />
<line stroke="#000000" stroke-width="1.19048" x1="95.2381" y1="349.964" x2="100" y2="349.964" />
<line stroke="#000000" stroke-width="1.19048" x1="95.2381" y1="325.584" x2="100" y2="325.584" />
<line stroke="#000000" stroke-width="1.19048" x1="95.2381" y1="301.203" x2="100" y2="301.203" />
<line stroke="#000000" stroke-width="1.19048" x1="95.2381" y1="276.823" x2="100" y2="276.823" />
<line stroke="#000000" stroke-width="1.19048" x1="95.2381" y1="252.443" x2="100" y2="252.443" />
<line stroke="#000000" stroke-width="1.19048" x1="95.2381" y1="228.063" x2="100" y2="228.063" />
<line stroke="#000000" stroke-width="1.19048" x1="95.2381" y1="203.683" x2="100" y2="203.683" />
<line stroke="#000000" stroke-width="1.19048" x1="95.2381" y1="179.303" x2="100" y2="179.303" />
<line stroke="#000000" stroke-width="1.19048" x1="95.2381" y1="154.923" x2="100" y2="154.923" />
<line stroke="#000000" stroke-width="1.19048" x1="95.2381" y1="130.543" x2="100" y2="130.543" />
<line stroke="#000000" stroke-width="1.19048" x1="95.2381" y1="106.162" x2="100" y2="106.162" />
<line stroke="#000000" stroke-width="1.19048" x1="95.2381" y1="81.7823" x2="100" y2="81.7823" />
<polyline stroke="#FF0000" stroke-width="1.19048" fill="none" points="742.857,204.171
742.687,204.171
742.517,204.658
742.346,204.658
742.176,205.146
742.006,205.146
741.835,205.633
741.665,206.121
741.495,206.121
741.324,207.096
741.154,207.096
740.984,207.584
740.814,208.071
740.643,208.071
740.473,208.559
740.303,208.559
740.132,209.047
739.962,209.047
739.792,209.534
739.622,210.509
739.451,210.509
739.281,210.997
739.111,210.997
738.94,211.485
738.77,211.485
738.6,211.972
738.43,212.46
738.259,212.46
738.089,212.947
737.919,212.947
737.748,213.923
737.578,213.923
737.408,214.41
737.237,215.385
737.067,215.873
736.897,215.873
736.727,216.361
736.556,217.336
736.386,217.336
736.216,217.823
736.045,217.823
735.875,218.311
735.705,218.799
735.535,218.799
735.364,219.286
735.194,220.261
735.024,220.261
734.853,221.237
734.683,221.724
734.513,221.724
734.343,222.212
734.172,222.699
734.002,222.699
733.832,223.187
733.661,223.675
733.491,225.137
733.321,225.625
733.15,226.113
732.98,226.6
732.81,228.551
732.64,229.038
732.469,230.013
732.299,231.476
732.129,232.452
731.958,232.939
731.788,237.328
731.618,246.543
731.448,250.005
731.277,252.931
731.107,255.369
730.937,270.484
730.766,287.063
730.596,306.079
730.426,324.072
730.255,342.601
730.085,360.642
729.915,360.691
729.745,352.938
729.574,341.236
729.404,292.183
729.234,272.922
729.063,268.534
728.893,264.146
728.723,260.245
728.553,251.956
728.382,248.055
728.212,244.154
728.042,240.741
727.871,237.328
727.701,233.914
727.531,231.476
727.361,228.551
727.19,225.137
727.02,222.212
726.85,219.774
726.679,218.311
726.509,214.41
726.339,212.46
726.169,209.534
725.998,209.534
725.828,209.534
725.658,211.972
725.487,214.898
725.317,220.261
725.147,228.063
724.976,230.501
724.806,231.476
724.636,229.526
724.466,224.65
724.295,217.385
724.125,209.047
723.955,204.658
723.784,201.245
723.614,198.319
723.444,196.857
723.274,194.906
723.103,193.443
722.933,192.956
722.763,191.98
722.592,191.493
722.422,191.005
722.252,190.518
722.081,190.518
721.911,190.03
721.741,189.542
721.571,189.542
721.4,189.055
721.23,189.055
721.06,188.08
720.889,187.104
720.719,186.617
720.549,185.642
720.379,184.666
720.208,184.179
720.038,184.179
719.868,183.691
719.697,183.204
719.527,183.204
719.357,183.204
719.187,182.716
719.016,182.716
718.846,182.716
718.676,182.716
718.505,183.204
718.335,183.204
718.165,183.204
717.995,184.179
717.824,184.666
717.654,184.666
717.484,185.642
717.313,187.104
717.143,189.055
716.973,192.956
716.802,198.319
716.632,204.171
716.462,218.75
716.292,224.65
716.121,226.113
715.951,227.088
715.781,226.113
715.61,222.212
715.44,217.336
715.27,210.509
715.1,203.683
714.929,200.757
714.759,196.857
714.589,193.931
714.418,191.493
714.248,189.542
714.078,188.08
713.907,186.617
713.737,185.642
713.567,184.666
713.397,184.179
713.226,183.691
713.056,183.204
712.886,183.204
712.715,183.204
712.545,182.716
712.375,182.716
712.205,182.228
712.034,181.253
711.864,180.278
711.694,180.278
711.523,179.79
711.353,179.79
711.183,179.79
711.013,180.278
710.842,180.278
710.672,180.278
710.502,180.766
710.331,182.228
710.161,182.716
709.991,183.204
709.82,184.179
709.65,185.642
709.48,186.129
709.31,187.104
709.139,187.592
708.969,189.055
708.799,190.03
708.628,191.98
708.458,193.931
708.288,194.419
708.118,194.419
707.947,196.369
707.777,197.344
707.607,198.807
707.436,200.27
707.266,201.733
707.096,203.195
706.926,204.658
706.755,205.633
706.585,207.584
706.415,208.559
706.244,208.559
706.074,215.385
705.904,221.724
705.734,227.088
705.563,233.378
705.393,240.741
705.223,249.518
705.052,254.881
704.882,260.732
704.712,275.361
704.541,283.65
704.371,285.113
704.201,283.162
704.031,279.749
703.86,271.508
703.69,265.608
703.52,262.195
703.349,260.245
703.179,258.782
703.009,257.807
702.839,257.319
702.668,256.344
702.498,256.344
702.328,255.369
702.157,256.344
701.987,256.832
701.817,258.294
701.647,259.757
701.476,260.732
701.306,261.22
701.136,261.22
700.965,260.732
700.795,259.757
700.625,258.294
700.454,257.319
700.284,256.344
700.114,254.881
699.944,251.956
699.773,250.98
699.603,249.518
699.433,247.08
699.262,245.617
699.092,243.666
698.922,242.204
698.752,240.253
698.581,238.79
698.411,236.84
698.241,235.865
698.07,234.402
697.9,233.914
697.73,233.914
697.56,233.427
697.389,232.452
697.219,232.452
697.049,231.476
696.878,230.013
696.708,229.038
696.538,228.063
696.367,226.113
696.197,224.65
696.027,223.187
695.857,222.212
695.686,221.724
695.516,219.774
695.346,219.286
695.175,218.799
695.005,218.799
694.835,218.311
694.665,218.311
694.494,218.799
694.324,218.799
694.154,227.039
693.983,243.13
693.813,253.857
693.643,264.585
693.473,277.799
693.302,294.377
693.132,310.956
692.962,327.485
692.791,327.534
692.621,313.442
692.451,299.302
692.28,285.161
692.11,271.021
691.94,268.047
691.77,242.204
691.599,230.013
691.429,217.336
691.259,210.509
691.088,209.047
690.918,200.27
690.748,198.807
690.578,189.591
690.407,180.814
690.237,176.865
690.067,172.964
689.896,169.551
689.726,167.113
689.556,166.625
689.385,166.138
689.215,166.138
689.045,166.138
688.875,166.625
688.704,169.551
688.534,172.964
688.364,176.377
688.193,182.716
688.023,195.394
687.853,218.75
687.683,239.229
687.512,239.278
687.342,237.328
687.172,229.087
687.001,219.335
686.831,198.904
686.661,184.179
686.491,172.964
686.32,165.162
686.15,158.824
685.98,154.435
685.809,149.559
685.639,146.633
685.469,144.683
685.299,143.22
685.128,141.757
684.958,141.757
684.788,141.27
684.617,140.782
684.447,140.782
684.277,140.295
684.107,140.295
683.936,139.807
683.766,139.807
683.596,138.832
683.425,138.344
683.255,137.369
683.085,136.881
682.914,136.881
682.744,136.881
682.574,136.394
682.404,135.419
682.233,135.419
682.063,134.931
681.893,134.443
681.722,134.443
681.552,133.956
681.382,133.956
681.211,133.468
681.041,133.468
680.871,132.981
680.701,132.981
680.53,132.493
680.36,132.493
680.19,131.518
680.019,132.493
679.849,131.518
679.679,131.518
679.509,131.518
679.338,131.518
679.168,131.518
678.998,132.981
678.827,133.956
678.657,134.443
678.487,135.419
678.317,137.369
678.146,139.807
677.976,143.22
677.806,144.683
677.635,143.22
677.465,137.857
677.295,135.419
677.125,133.956
676.954,132.981
676.784,132.493
676.614,130.543
676.443,130.055
676.273,129.567
676.103,129.567
675.932,129.08
675.762,129.08
675.592,128.105
675.422,128.105
675.251,128.105
675.081,127.617
674.911,127.617
674.74,127.617
674.57,127.617
674.4,127.617
674.23,127.617
674.059,127.617
673.889,127.617
673.719,127.129
673.548,127.129
673.378,126.642
673.208,126.154
673.038,125.667
672.867,125.667
672.697,125.667
672.527,124.691
672.356,124.691
672.186,124.204
672.016,124.204
671.845,124.204
671.675,123.716
671.505,123.716
671.335,123.716
671.164,123.229
670.994,123.229
670.824,123.229
670.653,122.741
670.483,122.741
670.313,122.741
670.143,122.741
669.972,122.741
669.802,123.229
669.632,123.229
669.461,123.229
669.291,123.716
669.121,123.716
668.951,124.204
668.78,124.204
668.61,125.667
668.44,126.154
668.269,127.617
668.099,129.567
667.929,132.493
667.758,135.419
667.588,139.807
667.418,144.195
667.248,149.072
667.077,155.41
666.907,163.7
666.737,180.229
666.566,196.808
666.396,217.238
666.226,242.204
666.056,253.906
665.885,266.096
665.715,251.517
665.545,247.567
665.374,211.582
665.204,189.152
665.034,173.5
664.864,165.211
664.693,159.848
664.523,157.848
664.353,155.41
664.182,151.997
664.012,148.584
663.842,146.633
663.671,144.683
663.501,143.22
663.331,142.245
663.161,141.757
662.99,141.27
662.82,141.27
662.65,141.27
662.479,141.27
662.309,141.757
662.139,141.757
661.969,143.22
661.798,144.683
661.628,145.658
661.458,148.096
661.287,149.559
661.117,151.022
660.947,152.485
660.777,152.972
660.606,154.923
660.436,157.361
660.266,160.774
660.095,166.138
659.925,173.89
659.755,184.13
659.584,198.271
659.414,216.409
659.244,257.319
659.074,297.79
658.903,330.411
658.733,362.105
658.563,393.263
658.392,393.36
658.222,362.251
658.052,330.606
657.882,241.667
657.711,194.419
657.541,179.303
657.371,169.551
657.2,161.749
657.03,157.361
656.86,153.948
656.69,151.997
656.519,151.022
656.349,150.534
656.179,151.022
656.008,151.997
655.838,152.485
655.668,154.435
655.497,155.898
655.327,155.898
655.157,157.848
654.987,169.014
654.816,187.007
654.646,204.561
654.476,221.627
654.305,237.815
654.135,237.815
653.965,218.799
653.795,203.244
653.624,196.369
653.454,191.005
653.284,182.765
653.113,167.162
652.943,166.625
652.773,168.088
652.603,169.063
652.432,170.038
652.262,176.865
652.092,180.278
651.921,187.592
651.751,196.808
651.581,203.683
651.411,210.948
651.24,222.651
651.07,242.106
650.9,257.807
650.729,273.898
650.559,301.203
650.389,317.294
650.218,335.774
650.048,355.279
649.878,371.857
649.708,392.288
649.537,392.385
649.367,349.184
649.197,303.641
649.026,300.228
648.856,226.161
648.686,208.071
648.516,196.369
648.345,185.69
648.175,179.303
648.005,169.6
647.834,163.7
647.664,159.799
647.494,157.361
647.323,154.923
647.153,152.972
646.983,151.997
646.813,150.534
646.642,149.072
646.472,147.609
646.302,147.121
646.131,146.633
645.961,147.121
645.791,148.096
645.621,149.559
645.45,151.997
645.28,154.435
645.11,157.361
644.939,159.311
644.769,161.749
644.599,163.7
644.429,168.088
644.258,172.915
644.088,179.303
643.918,185.642
643.747,202.22
643.577,217.775
643.407,241.18
643.237,271.85
643.066,303.056
642.896,316.758
642.726,330.411
642.555,343.576
642.385,356.79
642.215,356.79
642.044,338.749
641.874,321.732
641.704,306.128
641.534,306.079
641.363,306.079
641.193,307.055
641.023,321.146
640.852,338.651
640.682,356.303
640.512,371.418
640.342,386.046
640.171,398.236
640.001,408.476
639.831,416.278
639.66,421.154
639.49,423.592
639.32,426.03
639.15,426.517
638.979,426.517
638.809,426.03
638.639,418.716
638.468,412.864
638.298,379.269
638.128,333.97
637.957,302.276
637.787,285.161
637.617,268.583
637.447,268.047
637.276,268.047
637.106,270.972
636.936,289.94
636.765,306.031
636.595,336.701
636.425,377.611
636.255,416.619
636.084,431.832
635.914,447.387
635.744,462.502
635.573,469.914
635.403,477.716
635.233,465.525
635.062,449.483
634.892,434.855
634.722,420.227
634.552,406.574
634.381,387.119
634.211,353.523
634.041,330.606
633.87,306.567
633.7,293.889
633.53,274.873
633.36,262.683
633.189,243.715
633.019,243.179
632.849,243.179
632.678,243.666
632.508,251.419
632.338,260.196
632.168,269.509
631.997,286.088
631.827,304.617
631.657,329.436
631.486,356.741
631.316,384.535
631.146,408.378
630.975,426.469
630.805,442.559
630.635,457.626
630.465,458.211
630.294,457.724
630.124,441.633
629.954,419.252
629.783,391.946
629.613,363.178
629.443,325.681
629.273,293.987
629.102,243.374
628.932,222.797
628.762,206.121
628.591,193.931
628.421,183.204
628.251,174.914
628.081,168.088
627.91,162.724
627.74,158.336
627.57,155.41
627.399,152.485
627.229,151.022
627.059,149.559
626.888,148.584
626.718,147.609
626.548,145.658
626.378,144.195
626.207,144.195
626.037,143.708
625.867,143.708
625.696,144.195
625.526,144.683
625.356,146.633
625.186,148.584
625.015,151.022
624.845,153.948
624.675,155.898
624.504,158.336
624.334,160.774
624.164,162.724
623.994,166.625
623.823,171.452
623.653,172.476
623.483,179.79
623.312,184.179
623.142,191.493
622.972,202.22
622.802,215.824
622.631,230.452
622.461,247.518
622.291,256.783
622.12,265.56
621.95,284.625
621.78,303.154
621.609,321.683
621.439,340.163
621.269,357.717
621.099,373.807
620.928,391.361
620.758,408.915
620.588,426.42
620.417,442.023
620.247,455.773
620.077,466.501
619.907,466.988
619.736,466.501
619.566,450.946
619.396,427.054
619.225,404.624
619.055,377.855
618.885,341.821
618.714,317.392
618.544,294.377
618.374,251.029
618.204,234.402
618.033,221.285
617.863,210.558
617.693,201.781
617.522,195.394
617.352,190.518
617.182,186.617
617.012,184.179
616.841,182.228
616.671,180.766
616.501,173.452
616.33,170.526
616.16,170.526
615.99,172.476
615.82,174.914
615.649,180.278
615.479,184.179
615.309,193.882
615.138,203.195
614.968,209.047
614.798,226.113
614.628,246.056
614.457,253.418
614.287,260.732
614.117,275.799
613.946,298.668
613.776,298.765
613.606,287.112
613.435,275.361
613.265,265.121
613.095,239.766
612.925,226.113
612.754,223.187
612.584,212.509
612.414,211.972
612.243,212.947
612.073,214.41
611.903,226.064
611.732,251.956
611.562,256.832
611.392,261.22
611.222,271.947
611.051,282.675
610.881,286.088
610.711,293.889
610.541,293.889
610.37,251.175
610.2,230.111
610.03,212.46
609.859,198.807
609.689,189.055
609.519,182.228
609.348,179.303
609.178,179.303
609.008,176.377
608.838,175.89
608.667,176.377
608.497,177.352
608.327,179.79
608.156,182.716
607.986,186.129
607.816,190.03
607.646,194.419
607.475,199.782
607.305,205.146
607.135,211.923
606.964,218.75
606.794,226.552
606.624,229.526
606.453,237.328
606.283,237.815
606.113,237.328
605.943,229.526
605.772,226.113
605.602,221.237
605.432,213.971
605.261,206.17
605.091,198.856
604.921,191.98
604.751,186.617
604.58,181.253
604.41,177.352
604.24,173.452
604.069,170.038
603.899,167.113
603.729,165.162
603.559,163.212
603.388,161.262
603.218,159.799
603.048,158.824
602.877,157.361
602.707,156.386
602.537,153.948
602.367,152.972
602.196,152.972
602.026,152.972
601.856,153.948
601.685,155.41
601.515,157.848
601.345,158.824
601.174,160.774
601.004,161.749
600.834,162.724
600.664,164.675
600.493,169.063
600.323,172.476
600.153,175.89
599.982,178.815
599.812,182.228
599.642,205.146
599.472,218.799
599.301,228.063
599.131,238.742
598.961,247.518
598.79,256.783
598.62,280.139
598.45,289.452
598.279,306.957
598.109,324.608
597.939,324.608
597.769,291.5
597.598,290.476
597.428,291.939
597.258,291.939
597.087,302.617
596.917,313.832
596.747,324.072
596.577,336.75
596.406,346.55
596.236,355.327
596.066,374.344
595.895,375.319
595.725,374.344
595.555,361.227
595.385,348.062
595.214,335.872
595.044,303.3
594.874,244.008
594.703,235.377
594.533,226.6
594.363,213.923
594.193,206.121
594.022,203.195
593.852,201.733
593.682,199.782
593.511,200.27
593.341,198.807
593.171,198.319
593,197.832
592.83,198.319
592.66,201.733
592.49,207.096
592.319,212.46
592.149,218.799
591.979,226.113
591.808,233.866
591.638,242.155
591.468,250.444
591.298,254.881
591.127,259.757
590.957,268.047
590.787,276.823
590.616,285.6
590.446,294.377
590.276,317.733
590.106,319.732
589.935,317.782
589.765,311.979
589.595,307.055
589.424,302.179
589.254,296.815
589.084,291.939
588.913,268.095
588.743,267.559
588.573,268.047
588.403,274.824
588.232,279.261
588.062,295.255
587.892,310.956
587.721,325.584
587.551,339.236
587.381,351.914
587.211,362.593
587.04,371.857
586.87,374.831
586.7,388.923
586.529,389.46
586.359,388.972
586.189,386.046
586.019,367.517
585.848,354.352
585.678,340.212
585.508,325.145
585.337,310.029
585.167,294.426
584.997,280.285
584.826,267.12
584.656,247.665
584.486,239.766
584.316,239.278
584.145,239.278
583.975,240.741
583.805,251.468
583.634,257.807
583.464,264.633
583.294,278.725
583.124,291.89
582.953,302.617
582.783,310.468
582.613,313.393
582.442,321.683
582.272,322.17
582.102,321.683
581.932,321.195
581.761,315.344
581.591,305.641
581.421,292.475
581.25,278.823
581.08,266.096
580.91,249.518
580.739,248.542
580.569,237.815
580.399,237.328
580.229,237.328
580.058,238.79
579.888,246.543
579.718,249.518
579.547,254.832
579.377,260.732
579.207,282.187
579.036,293.889
578.866,310.907
578.696,311.443
578.526,310.956
578.355,293.938
578.185,282.236
578.015,272.484
577.844,261.756
577.674,260.732
577.504,260.732
577.334,262.195
577.163,272.435
576.993,275.361
576.823,284.576
576.652,285.113
576.482,283.65
576.312,276.872
576.142,267.12
575.971,257.807
575.801,255.369
575.631,250.005
575.46,244.642
575.29,239.766
575.12,235.377
574.95,230.013
574.779,225.137
574.609,222.212
574.439,214.947
574.268,208.071
574.098,203.683
573.928,194.419
573.758,187.104
573.587,180.766
573.417,175.89
573.247,170.526
573.076,167.113
572.906,163.7
572.736,161.262
572.565,159.311
572.395,157.848
572.225,155.898
572.055,154.435
571.884,152.972
571.714,151.997
571.544,151.022
571.373,150.534
571.203,149.072
571.033,149.072
570.863,147.121
570.692,146.633
570.522,146.633
570.352,146.633
570.181,147.121
570.011,147.609
569.841,148.584
569.671,148.584
569.5,149.559
569.33,151.022
569.16,151.509
568.989,152.485
568.819,155.41
568.649,157.848
568.479,159.799
568.308,162.237
568.138,163.7
567.968,165.65
567.797,167.113
567.627,169.551
567.457,171.501
567.286,173.452
567.116,175.89
566.946,178.815
566.776,182.228
566.605,185.642
566.435,190.03
566.265,194.906
566.094,200.709
565.924,207.047
565.754,214.41
565.583,222.699
565.413,231.964
565.243,242.691
565.073,248.055
564.902,254.394
564.732,267.51
564.562,299.107
564.391,313.345
564.221,316.319
564.051,316.807
563.881,316.319
563.71,315.344
563.54,308.517
563.37,303.641
563.199,302.179
563.029,301.203
562.859,300.716
562.689,301.203
562.518,309.444
562.348,313.881
562.178,317.782
562.007,320.708
561.837,322.658
561.667,325.096
561.497,327.534
561.326,331.435
561.156,335.823
560.986,342.601
560.815,348.452
560.645,349.476
560.475,349.964
560.304,349.476
560.134,343.137
559.964,336.798
559.794,331.922
559.623,316.855
559.453,301.252
559.283,281.309
559.112,248.25
558.942,233.914
558.772,222.212
558.602,211.972
558.431,202.22
558.261,193.443
558.091,185.642
557.92,179.79
557.75,175.89
557.58,168.624
557.41,162.773
557.239,159.311
557.069,155.898
556.899,153.948
556.728,151.997
556.558,149.072
556.388,146.633
556.218,143.22
556.047,140.295
555.877,137.857
555.707,135.419
555.536,133.468
555.366,131.518
555.196,130.055
555.025,128.105
554.855,126.642
554.685,125.667
554.515,124.204
554.344,123.229
554.174,122.253
554.004,120.791
553.833,120.303
553.663,119.328
553.493,118.84
553.323,118.353
553.152,117.377
552.982,116.89
552.812,116.402
552.641,115.915
552.471,115.427
552.301,114.939
552.13,113.964
551.96,113.477
551.79,112.989
551.62,112.014
551.449,111.526
551.279,110.551
551.109,110.063
550.938,109.576
550.768,109.576
550.598,109.088
550.428,108.6
550.257,108.6
550.087,108.113
549.917,107.138
549.746,107.138
549.576,107.138
549.406,106.65
549.235,106.65
549.065,106.162
548.895,105.675
548.725,105.187
548.554,104.7
548.384,104.212
548.214,103.237
548.043,102.749
547.873,102.262
547.703,101.774
547.533,101.286
547.362,100.799
547.192,100.799
547.022,101.286
546.851,101.774
546.681,102.262
546.511,104.212
546.341,105.675
546.17,106.65
546,108.113
545.83,108.113
545.659,108.6
545.489,108.6
545.319,108.113
545.149,106.65
544.978,105.675
544.808,104.7
544.638,103.237
544.467,102.262
544.297,100.799
544.127,98.8484
543.956,97.3857
543.786,95.4352
543.616,94.46
543.446,93.9724
543.275,93.9724
543.105,93.9724
542.935,92.9972
542.764,92.5096
542.594,92.5096
542.424,92.5096
542.254,92.022
542.083,92.022
541.913,91.5344
541.743,91.5344
541.572,90.5592
541.402,88.6088
541.232,87.6336
541.062,87.146
540.891,87.146
540.721,87.146
540.551,87.6336
540.38,89.0964
540.21,89.0964
540.04,90.5592
539.87,91.0468
539.699,91.5344
539.529,91.5344
539.359,92.022
539.188,92.022
539.018,92.022
538.848,92.022
538.677,92.5096
538.507,92.5096
538.337,92.022
538.167,92.022
537.996,91.5344
537.826,91.5344
537.656,91.5344
537.485,91.0468
537.315,90.5592
537.145,90.0716
536.975,90.0716
536.804,90.0716
536.634,90.0716
536.464,90.0716
536.293,89.0964
536.123,89.0964
535.953,89.0964
535.782,89.0964
535.612,88.6088
535.442,88.6088
535.272,88.6088
535.101,88.1212
534.931,88.1212
534.761,88.1212
534.59,87.6336
534.42,87.146
534.25,87.146
534.08,86.6584
533.909,86.6584
533.739,86.6584
533.569,85.6832
533.398,86.6584
533.228,87.146
533.058,87.146
532.888,87.146
532.717,87.146
532.547,87.146
532.377,87.146
532.206,87.146
532.036,86.6584
531.866,86.6584
531.695,85.1956
531.525,85.1956
531.355,85.6832
531.185,86.6584
531.014,86.6584
530.844,87.146
530.674,87.146
530.503,87.6336
530.333,87.6336
530.163,88.1212
529.993,88.1212
529.822,88.1212
529.652,88.1212
529.482,87.6336
529.311,87.6336
529.141,87.6336
528.971,87.6336
528.801,87.6336
528.63,88.1212
528.46,87.6336
528.29,88.1212
528.119,88.1212
527.949,88.6088
527.779,89.0964
527.609,90.0716
527.438,90.5592
527.268,91.0468
527.098,90.5592
526.927,87.146
526.757,87.146
526.587,86.6584
526.416,86.6584
526.246,87.146
526.076,88.1212
525.906,89.0964
525.735,90.0716
525.565,89.0964
525.395,89.0964
525.224,88.6088
525.054,88.1212
524.884,87.6336
524.714,86.6584
524.543,85.6832
524.373,84.708
524.203,84.2204
524.032,84.2204
523.862,84.708
523.692,84.708
523.521,85.1956
523.351,85.6832
523.181,87.146
523.011,87.146
522.84,87.6336
522.67,88.1212
522.5,89.0964
522.329,90.0716
522.159,90.5592
521.989,90.5592
521.819,90.5592
521.648,90.5592
521.478,90.0716
521.308,89.0964
521.137,88.6088
520.967,88.6088
520.797,88.6088
520.627,89.0964
520.456,90.0716
520.286,90.5592
520.116,91.0468
519.945,91.5344
519.775,91.5344
519.605,91.5344
519.434,91.0468
519.264,90.0716
519.094,89.0964
518.924,89.0964
518.753,89.0964
518.583,88.6088
518.413,88.6088
518.242,88.6088
518.072,88.6088
517.902,88.6088
517.732,88.6088
517.561,89.0964
517.391,89.0964
517.221,90.0716
517.05,91.0468
516.88,91.5344
516.71,91.5344
516.54,91.5344
516.369,92.022
516.199,92.022
516.029,92.5096
515.858,92.5096
515.688,92.9972
515.518,92.9972
515.347,93.9724
515.177,93.9724
515.007,93.9724
514.837,93.9724
514.666,93.9724
514.496,94.46
514.326,94.46
514.155,94.9476
513.985,94.9476
513.815,95.4352
513.645,95.9229
513.474,95.9229
513.304,96.4104
513.134,97.3857
512.963,97.3857
512.793,97.3857
512.623,98.3608
512.453,98.8484
512.282,99.336
512.112,99.336
511.942,99.8237
511.771,99.8237
511.601,100.799
511.431,100.799
511.26,101.286
511.09,101.286
510.92,101.774
510.75,102.262
510.579,104.212
510.409,105.187
510.239,106.162
510.068,106.65
509.898,107.138
509.728,108.113
509.558,109.088
509.387,110.551
509.217,112.989
509.047,116.402
508.876,121.278
508.706,124.204
508.536,128.105
508.366,134.882
508.195,141.221
508.025,147.56
507.855,147.609
507.684,143.708
507.514,138.832
507.344,135.419
507.174,134.931
507.003,134.931
506.833,135.419
506.663,136.394
506.492,139.807
506.322,142.245
506.152,144.683
505.981,147.121
505.811,148.096
505.641,149.072
505.471,150.534
505.3,151.509
505.13,152.972
504.96,155.41
504.789,155.41
504.619,158.336
504.449,162.724
504.279,168.576
504.108,173.939
503.938,179.303
503.768,183.204
503.597,184.666
503.427,193.882
503.257,203.634
503.086,212.899
502.916,223.138
502.746,233.427
502.576,244.642
502.405,253.418
502.235,262.195
502.065,288.965
501.894,306.518
501.724,330.362
501.554,357.619
501.384,386.875
501.213,416.131
501.043,443.583
500.873,466.988
500.702,476.74
500.532,486.492
500.362,498.146
500.192,502.096
500.021,505.021
499.851,508.434
499.681,510.872
499.51,512.335
499.34,512.823
499.17,512.823
498.999,512.335
498.829,508.434
498.659,467.573
498.489,441.243
498.318,416.375
498.148,397.846
497.978,389.021
497.807,372.979
497.637,352.889
497.467,335.336
497.297,317.782
497.126,300.277
496.956,283.699
496.786,268.583
496.615,241.326
496.445,231.525
496.275,223.236
496.105,212.509
495.934,204.171
495.764,196.369
495.594,189.542
495.423,183.691
495.253,179.303
495.083,175.402
494.913,171.501
494.742,168.576
494.572,165.65
494.402,162.724
494.231,159.799
494.061,157.361
493.891,153.948
493.72,149.559
493.55,145.658
493.38,140.782
493.21,134.931
493.039,128.153
492.869,124.691
492.699,122.741
492.528,119.328
492.358,113.964
492.188,109.576
492.018,106.162
491.847,103.237
491.677,100.799
491.507,98.8484
491.336,96.4104
491.166,95.4352
490.996,94.46
490.826,92.9972
490.655,92.5096
490.485,92.022
490.315,90.5592
490.144,89.0964
489.974,88.1212
489.804,87.6336
489.633,86.6584
489.463,85.6832
489.293,85.6832
489.123,85.1956
488.952,84.708
488.782,83.7328
488.612,82.27
488.441,81.2947
488.271,80.8072
488.101,80.8072
487.931,80.3195
487.76,80.3195
487.59,79.832
487.42,79.832
487.249,78.8568
487.079,78.8568
486.909,78.8568
486.738,79.832
486.568,79.832
486.398,80.3195
486.228,80.3195
486.057,80.3195
485.887,80.3195
485.717,80.3195
485.546,80.3195
485.376,80.3195
485.206,80.3195
485.036,79.832
484.865,79.832
484.695,79.832
484.525,79.832
484.354,79.832
484.184,78.8568
484.014,78.8568
483.844,78.8568
483.673,78.8568
483.503,78.8568
483.333,78.3691
483.162,78.3691
482.992,78.3691
482.822,78.3691
482.651,78.3691
482.481,77.8816
482.311,77.8816
482.141,77.8816
481.97,77.394
481.8,77.394
481.63,77.394
481.459,77.394
481.289,76.9063
481.119,76.9063
480.949,76.9063
480.778,76.4187
480.608,76.4187
480.438,76.4187
480.267,76.4187
480.097,76.4187
479.927,75.9312
479.757,75.9312
479.586,75.9312
479.416,75.9312
479.246,75.9312
479.075,74.9559
478.905,74.9559
478.735,74.9559
478.565,74.9559
478.394,74.9559
478.224,74.4683
478.054,74.4683
477.883,74.4683
477.713,74.4683
477.543,74.4683
477.372,74.4683
477.202,74.4683
477.032,74.4683
476.862,74.4683
476.691,74.4683
476.521,74.4683
476.351,74.4683
476.18,74.4683
476.01,74.4683
475.84,74.4683
475.67,74.4683
475.499,74.4683
475.329,74.4683
475.159,74.4683
474.988,74.4683
474.818,73.9807
474.648,73.9807
474.478,73.9807
474.307,73.4931
474.137,73.4931
473.967,73.4931
473.796,73.0055
473.626,73.0055
473.456,73.0055
473.285,72.5179
473.115,72.5179
472.945,72.5179
472.775,71.5427
472.604,71.0551
472.434,70.5675
472.264,70.5675
472.093,70.0799
471.923,70.0799
471.753,69.5923
471.583,69.5923
471.412,69.5923
471.242,69.5923
471.072,69.1047
470.901,69.1047
470.731,69.1047
470.561,69.5923
470.391,69.5923
470.22,69.5923
470.05,70.0799
469.88,70.0799
469.709,70.0799
469.539,70.5675
469.369,70.5675
469.198,71.0551
469.028,71.0551
468.858,71.0551
468.688,71.0551
468.517,71.0551
468.347,71.0551
468.177,71.0551
468.006,71.0551
467.836,71.0551
467.666,71.0551
467.496,70.5675
467.325,70.5675
467.155,70.5675
466.985,70.5675
466.814,70.0799
466.644,70.0799
466.474,70.0799
466.303,69.5923
466.133,69.5923
465.963,70.0799
465.793,70.0799
465.622,70.0799
465.452,70.5675
465.282,70.5675
465.111,71.0551
464.941,71.0551
464.771,71.5427
464.601,72.5179
464.43,73.0055
464.26,73.0055
464.09,73.0055
463.919,73.0055
463.749,73.0055
463.579,72.5179
463.409,71.5427
463.238,71.5427
463.068,71.0551
462.898,71.0551
462.727,70.5675
462.557,70.5675
462.387,70.0799
462.217,70.0799
462.046,69.1047
461.876,68.1295
461.706,67.8857
461.535,67.6419
461.365,67.3981
461.195,67.1543
461.024,67.1543
460.854,67.1543
460.684,66.9105
460.514,66.6667
460.343,66.6667
460.173,66.6667
460.003,66.6667
459.832,66.6667
459.662,66.6667
459.492,66.6667
459.322,66.6667
459.151,66.6667
458.981,66.9105
458.811,67.1543
458.64,67.1543
458.47,67.1543
458.3,67.1543
458.13,67.1543
457.959,67.3981
457.789,67.6419
457.619,67.8857
457.448,68.1295
457.278,68.1295
457.108,68.1295
456.937,68.6171
456.767,69.1047
456.597,69.3485
456.427,69.5923
456.256,69.8361
456.086,70.0799
455.916,70.3237
455.745,70.5675
455.575,70.3237
455.405,70.0799
455.235,69.8361
455.064,69.5923
454.894,69.3485
454.724,69.1047
454.553,68.6171
454.383,68.1295
454.213,68.1295
454.043,68.1295
453.872,67.8857
453.702,67.6419
453.532,67.6419
453.361,67.6419
453.191,67.6419
453.021,67.6419
452.85,67.6419
452.68,67.6419
452.51,67.6419
452.34,67.6419
452.169,67.8857
451.999,68.1295
451.829,68.1295
451.658,68.1295
451.488,68.6171
451.318,69.1047
451.148,69.3485
450.977,69.5923
450.807,69.8361
450.637,70.0799
450.466,70.0799
450.296,70.0799
450.126,70.3237
449.956,70.5675
449.785,70.8113
449.615,71.0551
449.445,71.0551
449.274,71.0551
449.104,71.2989
448.934,71.5427
448.763,72.0303
448.593,72.5179
448.423,72.5179
448.253,72.5179
448.082,72.5179
447.912,72.5179
447.742,72.5179
447.571,72.5179
447.401,72.7617
447.231,73.0055
447.061,73.2493
446.89,73.4931
446.72,73.7369
446.55,73.9807
446.379,73.9807
446.209,73.9807
446.039,74.2245
445.869,74.4683
445.698,74.7121
445.528,74.9559
445.358,74.9559
445.187,74.9559
445.017,75.4435
444.847,75.9312
444.676,76.175
444.506,76.4187
444.336,76.4187
444.166,76.4187
443.995,76.4187
443.825,76.4187
443.655,76.6625
443.484,76.9063
443.314,76.9063
443.144,76.9063
442.974,77.1501
442.803,77.394
442.633,77.1501
442.463,76.9063
442.292,76.9063
442.122,76.9063
441.952,77.394
441.781,77.8816
441.611,77.8816
441.441,77.8816
441.271,77.8816
441.1,77.8816
440.93,78.1253
440.76,78.3691
440.589,78.3691
440.419,78.3691
440.249,78.6129
440.079,78.8568
439.908,79.3444
439.738,79.832
439.568,80.0757
439.397,80.3195
439.227,80.5634
439.057,80.8072
438.887,80.8072
438.716,80.8072
438.546,81.051
438.376,81.2947
438.205,81.5386
438.035,81.7824
437.865,82.0262
437.695,82.27
437.524,82.7576
437.354,83.2452
437.184,83.2452
437.013,83.2452
436.843,83.489
436.673,83.7328
436.502,83.9766
436.332,84.2204
436.162,84.708
435.992,85.1956
435.821,85.1956
435.651,85.1956
435.481,85.927
435.31,86.6584
435.14,87.146
434.97,87.6336
434.8,88.8526
434.629,90.0716
434.459,90.5592
434.289,91.0468
434.118,91.2906
433.948,91.5344
433.778,91.2906
433.607,91.0468
433.437,90.0716
433.267,89.0964
433.097,88.6088
432.926,88.1212
432.756,87.8774
432.586,87.6336
432.415,87.6336
432.245,87.6336
432.075,87.3898
431.905,87.146
431.734,87.146
431.564,87.146
431.394,86.9022
431.223,86.6584
431.053,86.1708
430.883,85.6832
430.713,85.6832
430.542,85.6832
430.372,85.4394
430.202,85.1956
430.031,85.1956
429.861,85.1956
429.691,85.1956
429.521,85.1956
429.35,85.1956
429.18,85.1956
429.01,85.4394
428.839,85.6832
428.669,86.1708
428.499,86.6584
428.328,87.6336
428.158,88.6088
427.988,88.6088
427.818,88.6088
427.647,88.8526
427.477,89.0964
427.307,89.584
427.136,90.0716
426.966,90.3154
426.796,90.5592
426.626,90.5592
426.455,90.5592
426.285,90.803
426.115,91.0468
425.944,91.0468
425.774,91.0468
425.604,91.2906
425.434,91.5344
425.263,91.7782
425.093,92.022
424.923,92.2658
424.752,92.5096
424.582,92.5096
424.412,92.5096
424.241,92.7534
424.071,92.9972
423.901,93.4848
423.731,93.9724
423.56,94.2162
423.39,94.46
423.22,94.7038
423.049,94.9476
422.879,94.9476
422.709,94.9476
422.539,94.9476
422.368,94.9476
422.198,95.1914
422.028,95.4352
421.857,95.679
421.687,95.9229
421.517,96.1666
421.347,96.4104
421.176,96.898
421.006,97.3857
420.836,97.3857
420.665,97.3857
420.495,97.3857
420.325,97.3857
420.154,97.3857
419.984,97.3857
419.814,97.3857
419.644,97.3857
419.473,97.6295
419.303,97.8733
419.133,98.117
418.962,98.3608
418.792,98.6047
418.622,98.8484
418.452,99.0923
418.281,99.336
418.111,99.5799
417.941,99.8237
417.77,99.8237
417.6,99.8237
417.43,100.311
417.259,100.799
417.089,100.799
416.919,100.799
416.749,100.799
416.578,100.799
416.408,101.043
416.238,101.286
416.068,101.286
415.897,101.286
415.727,101.286
415.557,101.286
415.386,101.53
415.216,101.774
415.046,101.774
414.875,101.774
414.705,102.018
414.535,102.262
414.365,102.505
414.194,102.749
414.024,102.749
413.854,102.749
413.683,102.993
413.513,103.237
413.343,103.237
413.173,103.237
413.002,103.724
412.832,104.212
412.662,104.456
412.491,104.7
412.321,104.7
412.151,104.7
411.98,104.943
411.81,105.187
411.64,105.187
411.47,105.187
411.299,105.431
411.129,105.675
410.959,105.675
410.788,105.675
410.618,105.675
410.448,105.675
410.278,105.919
410.107,106.162
409.937,106.162
409.767,106.162
409.596,106.162
409.426,106.162
409.256,106.162
409.086,106.162
408.915,106.162
408.745,106.162
408.575,106.162
408.404,106.162
408.234,106.162
408.064,106.162
407.893,106.162
407.723,106.162
407.553,106.162
407.383,106.162
407.212,106.162
407.042,106.162
406.872,106.406
406.701,106.65
406.531,106.65
406.361,106.65
406.191,106.894
406.02,107.138
405.85,107.625
405.68,108.113
405.509,108.357
405.339,108.6
405.169,108.6
404.999,108.6
404.828,108.844
404.658,109.088
404.488,109.088
404.317,109.088
404.147,109.088
403.977,109.088
403.806,109.332
403.636,109.576
403.466,109.576
403.296,109.576
403.125,109.82
402.955,110.063
402.785,110.063
402.614,110.063
402.444,110.063
402.274,110.063
402.104,110.307
401.933,110.551
401.763,110.551
401.593,110.551
401.422,110.551
401.252,110.551
401.082,111.039
400.911,111.526
400.741,111.526
400.571,111.526
400.401,111.77
400.23,112.014
400.06,112.258
399.89,112.501
399.72,112.501
399.549,112.501
399.379,112.745
399.209,112.989
399.038,112.989
398.868,112.989
398.698,113.233
398.527,113.477
398.357,113.477
398.187,113.477
398.017,113.72
397.846,113.964
397.676,113.964
397.506,113.964
397.335,114.5
397.165,114.939
396.995,115.183
396.825,115.427
396.654,115.427
396.484,115.427
396.314,115.671
396.143,115.915
395.973,116.158
395.803,116.402
395.632,116.646
395.462,116.89
395.292,117.134
395.122,117.377
394.951,117.865
394.781,118.401
394.611,119.133
394.44,119.864
394.27,121.083
394.1,122.302
393.93,123.034
393.759,123.716
393.589,123.96
393.419,124.204
393.248,124.204
393.078,124.204
392.908,124.448
392.738,124.691
392.567,124.691
392.397,124.691
392.227,124.691
392.056,124.643
391.886,124.155
391.716,123.716
391.546,123.716
391.375,123.716
391.205,123.472
391.035,123.229
390.864,122.985
390.694,122.741
390.524,122.497
390.353,122.253
390.183,122.253
390.013,122.253
389.843,122.253
389.672,122.253
389.502,122.497
389.332,122.741
389.161,122.741
388.991,122.741
388.821,122.741
388.651,122.741
388.48,122.985
388.31,123.229
388.14,123.472
387.969,123.716
387.799,123.96
387.629,124.204
387.458,124.448
387.288,124.74
387.118,125.228
386.948,125.667
386.777,125.667
386.607,125.667
386.437,125.91
386.266,126.154
386.096,126.398
385.926,126.642
385.756,126.886
385.585,127.129
385.415,127.373
385.245,127.617
385.074,127.861
384.904,128.105
384.734,128.105
384.564,128.105
384.393,128.105
384.223,128.105
384.053,128.105
383.882,128.153
383.712,128.641
383.542,129.08
383.372,129.08
383.201,129.08
383.031,129.08
382.861,129.08
382.69,129.08
382.52,129.031
382.35,128.543
382.179,128.105
382.009,128.105
381.839,128.105
381.669,128.105
381.498,128.105
381.328,128.105
381.158,128.105
380.987,128.105
380.817,128.105
380.647,128.105
380.477,128.105
380.306,128.105
380.136,128.105
379.966,128.105
379.795,128.153
379.625,128.641
379.455,129.08
379.284,129.324
379.114,129.567
378.944,129.811
378.774,130.055
378.603,130.299
378.433,130.591
378.263,131.079
378.092,131.518
377.922,131.518
377.752,131.567
377.582,132.054
377.411,132.493
377.241,132.493
377.071,132.493
376.9,132.493
376.73,132.493
376.56,132.737
376.39,132.981
376.219,132.981
376.049,132.981
375.879,133.224
375.708,133.468
375.538,133.468
375.368,133.468
375.198,133.712
375.027,133.956
374.857,133.956
374.687,133.956
374.516,134.2
374.346,134.443
374.176,134.443
374.005,134.443
373.835,134.687
373.665,134.931
373.495,134.931
373.324,134.931
373.154,135.175
372.984,135.419
372.813,135.419
372.643,135.467
372.473,135.955
372.303,136.394
372.132,136.394
371.962,136.394
371.792,136.638
371.621,136.881
371.451,136.881
371.281,136.881
371.111,136.881
370.94,136.881
370.77,137.125
370.6,137.369
370.429,137.369
370.259,137.369
370.089,137.613
369.918,137.857
369.748,138.1
369.578,138.344
369.408,138.588
369.237,138.881
369.067,139.368
368.897,139.807
368.726,140.051
368.556,140.295
368.386,140.538
368.216,140.782
368.045,141.026
367.875,141.27
367.705,141.514
367.534,141.757
367.364,141.757
367.194,141.806
367.024,142.538
366.853,143.22
366.683,143.464
366.513,143.708
366.342,143.952
366.172,144.195
366.002,144.439
365.831,144.683
365.661,144.683
365.491,144.683
365.321,144.683
365.15,144.683
364.98,144.683
364.81,144.683
364.639,144.683
364.469,144.683
364.299,144.439
364.129,144.195
363.958,144.195
363.788,144.195
363.618,144.195
363.447,144.195
363.277,143.952
363.107,143.708
362.936,143.708
362.766,143.708
362.596,143.708
362.426,143.708
362.255,143.464
362.085,143.22
361.915,143.22
361.744,143.22
361.574,143.22
361.404,143.22
361.234,143.22
361.063,143.22
360.893,143.22
360.723,143.22
360.552,143.22
360.382,143.22
360.212,143.22
360.042,143.22
359.871,143.22
359.701,143.22
359.531,143.22
359.36,143.22
359.19,143.22
359.02,143.22
358.85,143.22
358.679,143.22
358.509,143.464
358.339,143.708
358.168,143.708
357.998,143.708
357.828,143.708
357.657,143.708
357.487,143.708
357.317,143.757
357.147,144.244
356.976,144.683
356.806,144.927
356.636,145.171
356.465,145.414
356.295,145.707
356.125,146.438
355.955,147.121
355.784,147.365
355.614,147.609
355.444,147.852
355.273,148.145
355.103,148.633
354.933,149.072
354.763,149.315
354.592,149.608
354.422,150.339
354.252,151.022
354.081,151.266
353.911,151.509
353.741,151.753
353.57,151.997
353.4,152.241
353.23,152.485
353.06,152.729
352.889,153.021
352.719,153.509
352.549,153.948
352.378,154.191
352.208,154.435
352.038,154.679
351.868,154.923
351.697,154.923
351.527,154.971
351.357,155.459
351.186,155.898
351.016,156.142
350.846,156.434
350.676,157.166
350.505,157.848
350.335,158.092
350.165,158.336
349.994,158.58
349.824,158.824
349.654,159.067
349.483,159.311
349.313,159.311
349.143,159.311
348.973,159.311
348.802,159.311
348.632,159.067
348.462,158.775
348.291,158.287
348.121,157.8
347.951,157.068
347.781,156.337
347.61,155.849
347.44,155.41
347.27,155.167
347.099,154.825
346.929,153.606
346.759,152.436
346.589,151.948
346.418,151.461
346.248,150.973
346.078,150.486
345.907,149.998
345.737,149.51
345.567,149.267
345.396,149.072
345.226,149.072
345.056,149.072
344.886,149.072
344.715,149.072
344.545,148.828
344.375,148.584
344.204,148.34
344.034,148.096
343.864,147.852
343.694,147.609
343.523,147.365
343.353,147.072
343.183,146.341
343.012,145.61
342.842,145.122
342.672,144.634
342.502,144.147
342.331,143.659
342.161,143.415
341.991,143.123
341.82,142.391
341.65,141.709
341.48,141.221
341.309,140.733
341.139,140.246
340.969,139.758
340.799,139.271
340.628,138.832
340.458,138.832
340.288,138.832
340.117,138.588
339.947,138.344
339.777,138.1
339.607,137.857
339.436,137.564
339.266,137.32
339.096,137.076
338.925,136.833
338.755,136.589
338.585,136.345
338.414,135.857
338.244,135.37
338.074,135.126
337.904,134.882
337.733,134.638
337.563,134.443
337.393,134.443
337.222,134.492
337.052,134.736
336.882,134.931
336.712,135.175
336.541,135.467
336.371,135.955
336.201,136.394
336.03,136.394
335.86,136.345
335.69,135.857
335.52,135.37
335.349,135.126
335.179,134.882
335.009,134.638
334.838,134.395
334.668,134.151
334.498,133.956
334.328,133.956
334.157,134.005
333.987,134.248
333.817,134.492
333.646,134.98
333.476,135.467
333.306,135.955
333.135,136.443
332.965,136.638
332.795,136.93
332.625,137.418
332.454,137.857
332.284,137.857
332.114,138.003
331.943,139.222
331.773,140.392
331.603,141.367
331.433,142.343
331.262,143.074
331.092,143.757
330.922,144.244
330.751,144.732
330.581,145.219
330.411,145.805
330.241,147.267
330.07,148.633
329.9,149.12
329.73,149.657
329.559,150.632
329.389,151.558
329.219,151.802
329.048,151.948
328.878,151.705
328.708,151.461
328.538,151.217
328.367,150.924
328.197,150.193
328.027,149.51
327.856,149.267
327.686,149.023
327.516,148.779
327.346,148.584
327.175,148.584
327.005,148.584
326.835,148.584
326.664,148.535
326.494,148.291
326.324,148.096
326.154,148.096
325.983,148.096
325.813,148.096
325.643,148.145
325.472,148.389
325.302,148.584
325.132,148.584
324.961,148.633
324.791,148.876
324.621,149.12
324.451,149.364
324.28,149.608
324.11,150.095
323.94,150.583
323.769,150.827
323.599,151.071
323.429,151.314
323.259,151.558
323.088,152.046
322.918,152.582
322.748,153.314
322.577,153.996
322.407,154.24
322.237,154.484
322.067,154.971
321.896,155.459
321.726,155.703
321.556,155.947
321.385,156.19
321.215,156.434
321.045,156.922
320.874,157.41
320.704,157.653
320.534,157.897
320.364,158.141
320.193,158.385
320.023,158.872
319.853,159.409
319.682,160.14
319.512,160.871
319.342,161.603
319.172,162.334
319.001,163.066
318.831,163.797
318.661,164.529
318.49,165.211
318.32,165.699
318.15,166.186
317.98,166.674
317.809,167.162
317.639,167.649
317.469,168.137
317.298,168.381
317.128,168.624
316.958,168.868
316.787,169.112
316.617,169.356
316.447,169.551
316.277,169.551
316.106,169.551
315.936,169.551
315.766,169.6
315.595,169.843
315.425,170.087
315.255,170.331
315.085,170.624
314.914,171.355
314.744,172.038
314.574,172.281
314.403,172.574
314.233,173.305
314.063,174.037
313.893,174.768
313.722,175.5
313.552,176.231
313.382,177.011
313.211,178.23
313.041,179.4
312.871,180.132
312.7,180.912
312.53,182.131
312.36,183.35
312.19,184.569
312.019,185.788
311.849,187.007
311.679,188.275
311.508,189.738
311.338,191.347
311.168,194.028
310.998,196.661
310.827,198.856
310.657,201.099
310.487,203.488
310.316,206.023
310.146,209.193
309.976,212.411
309.806,215.824
309.635,219.384
309.465,224.016
309.295,228.794
309.124,234.646
308.954,240.204
308.784,243.618
308.613,247.08
308.443,250.737
308.273,255.125
308.103,264.146
307.932,273.459
307.762,284.674
307.592,296.961
307.421,316.222
307.251,334.75
307.081,348.891
306.911,362.885
306.74,376.05
306.57,388.436
306.4,395.506
306.229,402.625
306.059,410.183
305.889,417.643
305.719,424.713
305.548,431.588
305.378,437.293
305.208,442.657
305.037,446.314
304.867,449.483
304.697,449.727
304.526,449.873
304.356,449.63
304.186,449.386
304.016,449.142
303.845,448.898
303.675,448.654
303.505,448.411
303.334,448.167
303.164,447.923
302.994,447.435
302.824,446.948
302.653,446.46
302.483,445.973
302.313,445.485
302.142,444.949
301.972,444.217
301.802,443.535
301.632,443.047
301.461,442.072
301.291,438.171
301.121,434.416
300.95,431.735
300.78,428.858
300.61,424.713
300.44,419.593
300.269,408.378
300.099,398.675
299.929,398.431
299.758,398.236
299.588,398.236
299.418,398.285
299.247,398.529
299.077,399.212
298.907,402.869
298.737,406.526
298.566,410.231
298.396,413.84
298.226,417.009
298.055,420.178
297.885,423.592
297.715,426.956
297.545,430.126
297.374,433.295
297.204,436.221
297.034,439.244
296.863,442.901
296.693,446.606
296.523,450.751
296.352,454.701
296.182,457.626
296.012,460.552
295.842,463.478
295.671,466.306
295.501,468.5
295.331,470.548
295.16,471.523
294.99,472.498
294.82,473.473
294.65,474.644
294.479,477.082
294.309,479.471
294.139,481.421
293.968,483.469
293.798,486.151
293.628,488.882
293.458,492.051
293.287,495.415
293.117,499.804
292.947,504.241
292.776,509.117
292.606,513.359
292.436,513.847
292.266,514.286
292.095,514.286
291.925,514.042
291.755,512.335
291.584,510.629
291.414,509.166
291.244,507.703
291.073,505.996
290.903,504.29
290.733,502.827
290.563,501.559
290.392,501.072
290.222,500.438
290.052,498.975
289.881,497.22
289.711,494.099
289.541,491.027
289.371,488.589
289.2,486.151
289.03,483.713
288.86,481.421
288.689,480.202
288.519,479.081
288.349,478.349
288.178,477.862
288.008,478.837
287.838,479.715
287.668,479.958
287.497,480.349
287.327,481.568
287.157,482.982
286.986,485.42
286.816,487.809
286.646,490.003
286.476,492.002
286.305,492.977
286.135,493.66
285.965,492.685
285.794,491.515
285.624,489.077
285.454,485.81
285.284,477.764
285.113,470.401
284.943,466.94
284.773,463.136
284.602,457.285
284.432,451.044
284.262,442.754
284.091,434.221
283.921,424.518
283.751,414.912
283.581,406.135
283.41,397.456
283.24,389.167
283.07,381.073
282.899,374.003
282.729,366.932
282.559,359.862
282.389,352.938
282.218,346.843
282.048,340.748
281.878,334.409
281.707,328.168
281.537,322.512
281.367,316.807
281.197,311.004
281.026,305.104
280.856,299.009
280.686,292.914
280.515,286.819
280.345,279.359
280.175,264.487
280.004,251.127
279.834,245.763
279.664,240.594
279.494,236.45
279.323,232.695
279.153,231.233
278.983,229.916
278.812,229.185
278.642,228.453
278.472,227.722
278.302,226.844
278.131,225.089
277.961,223.48
277.791,222.261
277.62,220.847
277.45,218.409
277.28,216.214
277.11,215.239
276.939,214.361
276.769,214.118
276.599,213.728
276.428,212.509
276.258,211.29
276.088,210.071
275.917,208.9
275.747,207.925
275.577,206.901
275.407,205.682
275.236,204.561
275.066,203.829
274.896,203.049
274.725,202.074
274.555,201.099
274.385,200.367
274.215,199.636
274.044,198.904
273.874,198.271
273.704,198.027
273.533,197.783
273.363,197.539
273.193,197.344
273.023,197.344
272.852,197.344
272.682,197.344
272.512,197.295
272.341,197.052
272.171,196.905
272.001,197.149
271.83,197.393
271.66,197.637
271.49,197.929
271.32,198.417
271.149,198.904
270.979,199.392
270.809,199.831
270.638,200.075
270.468,200.367
270.298,200.855
270.128,201.294
269.957,201.538
269.787,201.83
269.617,202.561
269.446,203.244
269.276,203.488
269.106,203.78
268.936,204.268
268.765,204.707
268.595,204.951
268.425,205.243
268.254,205.731
268.084,206.219
267.914,206.706
267.743,207.194
267.573,207.681
267.403,208.169
267.233,208.657
267.062,209.095
266.892,209.339
266.722,209.68
266.551,210.412
266.381,211.095
266.211,211.582
266.041,212.07
265.87,212.557
265.7,213.045
265.53,213.776
265.359,214.459
265.189,214.703
265.019,214.995
264.849,215.483
264.678,215.971
264.508,216.751
264.338,217.433
264.167,217.921
263.997,218.457
263.827,219.189
263.656,219.92
263.486,220.652
263.316,221.334
263.146,221.822
262.975,222.309
262.805,222.797
262.635,223.333
262.464,224.065
262.294,224.796
262.124,225.528
261.954,226.21
261.783,226.698
261.613,227.234
261.443,228.209
261.272,229.136
261.102,229.623
260.932,230.209
260.762,231.184
260.591,232.11
260.421,232.842
260.251,233.622
260.08,234.597
259.91,235.475
259.74,235.962
259.57,236.499
259.399,237.23
259.229,237.961
259.059,238.937
258.888,239.961
258.718,241.18
258.548,242.35
258.377,243.081
258.207,243.813
258.037,244.788
257.867,245.763
257.696,246.494
257.526,247.323
257.356,248.542
257.185,249.664
257.015,250.395
256.845,251.078
256.675,251.566
256.504,252.102
256.334,252.833
256.164,253.613
255.993,254.589
255.823,255.564
255.653,256.783
255.482,258.002
255.312,259.221
255.142,260.391
254.972,261.366
254.801,262.39
254.631,263.609
254.461,264.828
254.29,266.096
254.12,267.266
253.95,268.242
253.78,269.314
253.609,270.777
253.439,272.24
253.269,273.703
253.098,275.214
252.928,277.165
252.758,279.066
252.588,280.773
252.417,282.48
252.247,284.186
252.077,285.844
251.906,287.307
251.736,288.721
251.566,289.696
251.396,290.622
251.225,291.354
251.055,292.037
250.885,292.524
250.714,293.207
250.544,294.67
250.374,296.035
250.203,297.01
250.033,298.034
249.863,299.253
249.693,300.423
249.522,301.398
249.352,302.276
249.182,302.764
249.011,303.3
248.841,304.032
248.671,304.763
248.501,305.494
248.33,306.177
248.16,306.665
247.99,307.152
247.819,307.64
247.649,308.225
247.479,309.2
247.308,310.127
247.138,310.858
246.968,311.638
246.798,312.613
246.627,313.686
246.457,315.149
246.287,316.417
246.116,316.904
245.946,317.441
245.776,318.172
245.606,318.952
245.435,319.927
245.265,320.854
245.095,321.585
244.924,322.414
244.754,323.633
244.584,324.852
244.414,326.071
244.243,327.241
244.073,328.217
243.903,329.289
243.732,330.752
243.562,332.215
243.392,333.678
243.222,335.141
243.051,336.603
242.881,338.017
242.711,339.236
242.54,340.553
242.37,342.26
242.2,343.917
242.029,345.38
241.859,346.892
241.689,348.598
241.519,350.305
241.348,352.012
241.178,353.718
241.008,355.669
240.837,357.57
240.667,359.326
240.497,361.081
240.327,363.031
240.156,364.933
239.986,366.64
239.816,368.395
239.645,370.345
239.475,372.345
239.305,374.539
239.134,376.684
238.964,378.635
238.794,380.585
238.624,382.536
238.453,384.535
238.283,386.729
238.113,388.874
237.942,390.825
237.772,392.775
237.602,394.677
237.432,396.676
237.261,398.626
237.091,400.674
236.921,403.112
236.75,405.453
236.58,407.403
236.41,409.354
236.24,411.304
236.069,413.303
235.899,415.497
235.729,417.643
235.558,419.593
235.388,421.544
235.218,423.494
235.048,425.493
234.877,427.688
234.707,429.833
234.537,431.783
234.366,433.783
234.196,435.977
234.026,437.976
233.855,439.195
233.685,440.365
233.515,441.34
233.345,442.169
233.174,442.413
233.004,442.559
232.834,442.316
232.663,441.779
232.493,440.073
232.323,438.512
232.153,437.537
231.982,436.416
231.812,434.709
231.642,433.051
231.471,431.588
231.301,430.077
231.131,428.37
230.96,426.664
230.79,424.957
230.62,423.202
230.45,421.251
230.279,419.252
230.109,417.058
229.939,414.961
229.768,413.254
229.598,411.597
229.428,410.134
229.258,408.573
229.087,406.623
228.917,404.77
228.747,403.307
228.576,401.796
228.406,400.089
228.236,398.48
228.066,397.261
227.895,396.091
227.725,395.116
227.555,394.238
227.384,393.75
227.214,393.312
227.044,393.068
226.874,392.873
226.703,392.873
226.533,392.921
226.363,393.165
226.192,393.36
226.022,393.36
225.852,393.507
225.681,394.238
225.511,394.969
225.341,395.701
225.171,396.335
225,396.578
224.83,396.92
224.66,397.651
224.489,398.383
224.319,399.114
224.149,399.943
223.979,401.162
223.808,402.43
223.638,403.893
223.468,405.307
223.297,406.526
223.127,407.842
222.957,409.549
222.786,411.255
222.616,412.962
222.446,414.669
222.276,416.375
222.105,418.13
221.935,420.081
221.765,422.08
221.594,424.274
221.424,426.42
221.254,428.37
221.084,430.369
220.913,432.564
220.743,434.758
220.573,436.952
220.402,439.39
220.232,442.852
220.062,446.119
219.892,448.801
219.721,451.336
219.551,453.287
219.381,454.993
219.21,455.968
219.04,456.895
218.87,457.626
218.7,458.26
218.529,458.504
218.359,458.699
218.189,458.699
218.018,458.65
217.848,458.406
217.678,458.163
217.507,457.919
217.337,457.626
217.167,457.139
216.997,456.7
216.826,456.456
216.656,456.212
216.486,455.968
216.315,455.676
216.145,455.188
215.975,454.847
215.805,455.091
215.634,455.335
215.464,455.578
215.294,455.968
215.123,456.944
214.953,457.821
214.783,458.309
214.612,458.797
214.442,459.284
214.272,459.674
214.102,459.674
213.931,459.723
213.761,459.967
213.591,460.113
213.42,459.869
213.25,459.625
213.08,459.382
212.91,458.845
212.739,457.383
212.569,455.871
212.399,454.164
212.228,452.214
212.058,449.288
211.888,446.314
211.718,443.145
211.547,439.975
211.377,436.806
211.207,433.685
211.036,430.759
210.866,427.834
210.696,424.908
210.526,421.934
210.355,418.764
210.185,415.595
210.015,412.426
209.844,409.207
209.674,406.038
209.504,402.82
209.333,399.407
209.163,396.091
208.993,393.214
208.823,390.142
208.652,386.729
208.482,383.316
208.312,379.951
208.141,376.977
207.971,375.807
207.801,374.295
207.631,371.857
207.46,369.175
207.29,365.518
207.12,361.91
206.949,358.497
206.779,355.181
206.609,352.207
206.439,349.817
206.268,349.086
206.098,347.867
205.928,345.185
205.757,342.65
205.587,340.455
205.417,338.31
205.246,336.36
205.076,334.409
204.906,332.459
204.736,330.508
204.565,328.558
204.395,326.656
204.225,324.95
204.054,323.243
203.884,321.536
203.714,319.781
203.544,317.831
203.373,315.929
203.203,314.222
203.033,312.565
202.862,311.102
202.692,309.59
202.522,307.884
202.352,306.177
202.181,304.47
202.011,302.764
201.841,301.057
201.67,299.302
201.5,297.351
201.33,295.45
201.159,293.743
200.989,292.037
200.819,290.33
200.649,288.575
200.478,286.624
200.308,284.674
200.138,282.723
199.967,280.675
199.797,278.189
199.627,275.799
199.457,273.605
199.286,271.411
199.116,269.217
198.946,267.364
198.775,266.632
198.605,265.121
198.435,260.976
198.264,257.709
198.094,257.222
197.924,256.832
197.754,256.832
197.583,256.929
197.413,257.417
197.243,258.538
197.072,261.708
196.902,264.682
196.732,267.12
196.562,269.851
196.391,273.556
196.221,278.725
196.051,288.721
195.88,297.79
195.71,303.885
195.54,311.833
195.37,325.681
195.199,338.359
195.029,347.136
194.859,355.132
194.688,360.496
194.518,365.274
194.348,368.2
194.178,370.833
194.007,372.54
193.837,374.246
193.667,375.953
193.496,377.611
193.326,379.074
193.156,380.244
192.985,380.488
192.815,380.634
192.645,380.39
192.475,378.245
192.304,370.199
192.134,362.398
191.964,355.327
191.793,347.282
191.623,336.067
191.453,324.511
191.283,311.833
191.112,299.692
190.942,289.208
190.772,279.7
190.601,273.41
190.431,264.536
190.261,247.518
190.091,232.647
189.92,225.089
189.75,217.97
189.58,212.314
189.409,207.73
189.239,206.267
189.069,204.366
188.898,201.196
188.728,197.978
188.558,194.565
188.388,191.2
188.217,188.031
188.047,185.105
187.877,182.911
187.706,180.863
187.536,179.157
187.366,177.645
187.196,176.914
187.025,176.182
186.855,175.451
186.685,174.671
186.514,173.695
186.344,172.671
186.174,171.452
186.004,170.282
185.833,169.307
185.663,168.234
185.493,166.771
185.322,165.309
185.152,163.846
184.982,162.383
184.811,160.92
184.641,159.506
184.471,158.287
184.301,156.971
184.13,155.264
183.96,153.606
183.79,152.143
183.619,150.681
183.449,149.218
183.279,147.755
183.109,146.292
182.938,144.829
182.768,143.367
182.598,142.001
182.427,141.026
182.257,140.002
182.087,138.783
181.917,137.662
181.746,136.93
181.576,135.955
181.406,134.248
181.235,132.542
181.065,130.835
180.895,129.226
180.724,127.763
180.554,126.349
180.384,125.13
180.214,124.009
180.043,123.277
179.873,122.448
179.703,121.229
179.532,120.205
179.362,119.669
179.192,119.181
179.022,118.694
178.851,118.353
178.681,118.353
178.511,118.109
178.34,117.134
178.17,116.353
178,116.11
177.83,115.915
177.659,115.915
177.489,115.866
177.319,115.622
177.148,115.427
176.978,115.427
176.808,115.476
176.637,115.72
176.467,116.207
176.297,117.426
176.127,118.548
175.956,119.279
175.786,120.108
175.616,121.327
175.445,122.741
175.275,124.691
175.105,126.642
174.935,128.592
174.764,130.055
174.594,130.055
174.424,129.762
174.253,128.543
174.083,126.447
173.913,121.815
173.743,117.572
173.572,114.403
173.402,111.429
173.232,108.991
173.061,106.796
172.891,105.334
172.721,103.968
172.55,102.993
172.38,102.115
172.21,101.628
172.04,101.043
171.869,100.067
171.699,99.1898
171.529,98.7022
171.358,98.0683
171.188,96.8493
171.018,95.7278
170.848,94.9964
170.677,94.2162
170.507,93.241
170.337,92.4609
170.166,92.2171
169.996,91.8757
169.826,91.3882
169.656,90.998
169.485,90.7542
169.315,90.5105
169.145,90.2666
168.974,89.9253
168.804,89.4377
168.634,89.0964
168.463,89.0964
168.293,89.0476
168.123,88.8039
167.953,88.5601
167.782,88.3162
167.612,88.0724
167.442,87.8286
167.271,87.4873
167.101,86.9997
166.931,86.4633
166.761,85.7319
166.59,85.1468
166.42,84.903
166.25,84.708
166.079,84.708
165.909,84.5129
165.739,83.7815
165.569,83.2452
165.398,83.2452
165.228,83.2452
165.058,83.2452
164.887,83.2939
164.717,83.5378
164.547,83.7328
164.376,83.7328
164.206,83.7328
164.036,83.7328
163.866,83.7815
163.695,84.0253
163.525,84.2204
163.355,84.2204
163.184,84.3667
163.014,84.8542
162.844,85.2444
162.674,85.4881
162.503,85.8782
162.333,86.6096
162.163,87.1948
161.992,87.4385
161.822,87.6824
161.652,87.9262
161.482,88.17
161.311,88.4138
161.141,88.6576
160.971,88.9014
160.8,89.2914
160.63,90.0229
160.46,90.7055
160.289,91.1931
160.119,91.6807
159.949,92.1683
159.779,92.5584
159.608,92.8022
159.438,93.1435
159.268,93.6311
159.097,94.0212
158.927,94.265
158.757,94.5088
158.587,94.7526
158.416,94.9964
158.246,95.2402
158.076,95.484
157.905,95.7278
157.735,95.9716
157.565,96.2154
157.395,96.5567
157.224,97.0443
157.054,97.4344
156.884,97.6782
156.713,97.8733
156.543,97.8733
156.373,97.8733
156.202,97.8733
156.032,97.8733
155.862,97.8733
155.692,97.8733
155.521,97.8733
155.351,97.8245
155.181,97.5807
155.01,97.3857
154.84,97.3857
154.67,97.2393
154.5,96.7518
154.329,96.4104
154.159,96.4104
153.989,96.4104
153.818,96.4104
153.648,96.3617
153.478,96.1179
153.308,95.8741
153.137,95.6303
152.967,95.4352
152.797,95.4352
152.626,95.3865
152.456,95.1427
152.286,94.8989
152.115,94.6551
151.945,94.4113
151.775,94.1675
151.605,93.9724
151.434,93.9724
151.264,93.8261
151.094,93.3386
150.923,92.9485
150.753,92.7047
150.583,92.4609
150.413,92.2171
150.242,92.022
150.072,92.022
149.902,91.9732
149.731,91.7295
149.561,91.4857
149.391,91.2419
149.221,90.998
149.05,90.7542
148.88,90.5592
148.71,90.5592
148.539,90.5592
148.369,90.5592
148.199,90.5592
148.028,90.5592
147.858,90.608
147.688,90.8518
147.518,91.0468
147.347,91.0468
147.177,91.0956
147.007,91.3394
146.836,91.5344
146.666,91.5344
146.496,91.5832
146.326,91.827
146.155,92.0708
145.985,92.3146
145.815,92.5096
145.644,92.5096
145.474,92.5584
145.304,92.8022
145.134,92.9972
144.963,92.9972
144.793,93.1435
144.623,93.6311
144.452,94.0212
144.282,94.265
144.112,94.46
143.941,94.46
143.771,94.5088
143.601,94.7526
143.431,94.9476
143.26,94.9476
143.09,94.9964
142.92,95.2402
142.749,95.484
142.579,95.7278
142.409,95.9716
142.239,96.2154
142.068,96.4104
141.898,96.4104
141.728,96.5567
141.557,97.0443
141.387,97.3857
141.217,97.3857
141.047,97.4344
140.876,97.6782
140.706,97.922
140.536,98.1658
140.365,98.3608
140.195,98.3608
140.025,98.4096
139.854,98.6534
139.684,98.8484
139.514,98.8484
139.344,98.8972
139.173,99.141
139.003,99.336
138.833,99.336
138.662,99.3848
138.492,99.6286
138.322,99.8237
138.152,99.8237
137.981,99.9699
137.811,100.458
137.641,100.799
137.47,100.799
137.3,100.799
137.13,100.799
136.96,100.848
136.789,101.091
136.619,101.286
136.449,101.286
136.278,101.335
136.108,101.579
135.938,101.823
135.768,102.067
135.597,102.262
135.427,102.262
135.257,102.31
135.086,102.554
134.916,102.749
134.746,102.749
134.575,102.798
134.405,103.042
134.235,103.383
134.065,103.871
133.894,104.212
133.724,104.212
133.554,104.212
133.383,104.212
133.213,104.261
133.043,104.505
132.873,104.7
132.702,104.7
132.532,104.7
132.362,104.7
132.191,104.7
132.021,104.7
131.851,104.7
131.68,104.7
131.51,104.7
131.34,104.7
131.17,104.7
130.999,104.7
130.829,104.7
130.659,104.7
130.488,104.651
130.318,104.407
130.148,104.212
129.978,104.212
129.807,104.212
129.637,104.212
129.467,104.212
129.296,104.212
129.126,104.066
128.956,103.578
128.786,103.237
128.615,103.237
128.445,103.188
128.275,102.944
128.104,102.603
127.934,102.115
127.764,101.677
127.594,101.433
127.423,101.238
127.253,100.945
127.083,100.604
126.912,99.8724
126.742,99.2873
126.572,99.0435
126.401,98.7022
126.231,98.2146
126.061,97.6782
125.891,96.9468
125.72,96.2642
125.55,95.7766
125.38,95.3865
125.209,95.1427
125.039,94.8013
124.869,94.3138
124.699,93.8261
124.528,93.3386
124.358,92.8509
124.188,92.3633
124.017,91.9245
123.847,91.6807
123.677,91.4857
123.506,91.1931
123.336,90.998
123.166,90.7542
122.996,90.5105
122.825,90.2666
122.655,90.0716
122.485,90.0716
122.314,90.0716
122.144,90.0716
121.974,89.9253
121.804,89.4377
121.633,88.9501
121.463,88.4625
121.293,88.0237
121.122,87.7799
120.952,87.5361
120.782,87.2923
120.612,87.0485
120.441,86.8047
120.271,86.4146
120.101,85.6832
119.93,85.0981
119.76,84.8542
119.59,84.6104
119.42,84.4154
119.249,84.1229
119.079,83.9278
118.909,83.5378
118.738,82.8063
118.568,82.2212
118.398,81.9774
118.227,81.7336
118.057,81.4411
117.887,81.1972
117.717,80.9534
117.546,80.7097
117.376,80.4659
117.206,80.222
117.035,79.9782
116.865,79.6857
116.695,79.1981
116.525,78.7592
116.354,78.5154
116.184,78.2716
116.014,78.0278
115.843,77.784
115.673,77.5402
115.503,77.2964
115.332,77.1014
115.162,76.8088
114.992,76.6138
114.822,76.3212
114.651,76.0774
114.481,75.7849
114.311,75.2973
114.14,74.9559
113.97,74.9559
113.8,74.8584
113.63,74.6146
113.459,74.4683
113.289,74.4683
113.119,74.4683
112.948,74.4683
112.778,74.4683
112.608,74.4683
112.438,74.4683
112.267,74.4683
112.097,74.4683
111.927,74.4683
111.756,74.4683
111.586,74.4683
111.416,74.4683
111.246,74.4683
111.075,74.4683
110.905,74.4683
110.735,74.4683
110.564,74.4683
110.394,74.4683
110.224,74.4683
110.053,74.4683
109.883,74.4683
109.713,74.3708
109.543,74.127
109.372,73.9807
109.202,73.9807
109.032,73.9807
108.861,73.9807
108.691,73.9807
108.521,73.9807
108.351,73.8832
108.18,73.6394
108.01,73.4931
107.84,73.4931
107.669,73.4931
107.499,73.4931
107.329,73.4931
107.158,73.4931
106.988,73.3956
106.818,73.1518
106.648,73.0055
106.477,73.0055
106.307,73.0055
106.137,73.0055
105.966,73.0055
105.796,73.0055
105.626,72.908
105.456,72.6642
105.285,72.5179
105.115,72.5179
104.945,72.5179
104.774,72.5179
104.604,72.5179
104.434,72.5179
104.264,72.3716
104.093,71.884
103.923,71.5427
103.753,71.5427
103.582,71.5427
103.412,71.5427
103.242,71.5427
103.072,71.5427
102.901,71.4452
102.731,71.2014
102.561,71.0551
102.39,71.0551
102.22,70.9576
102.05,70.7138
101.879,70.5675
101.709,70.5675
101.539,70.5675
101.369,70.5675
101.198,70.47
101.028,70.2262
100.858,70.0799
100.687,70.0799
100.517,69.9824
100.347,69.7386
100.177,69.5923
100.006,69.5923
99.836,69.5923
99.6657,69.5923
99.4954,69.4948
99.3251,69.251
99.1548,69.1047
98.9845,69.1047
98.8142,68.9584
98.6439,68.4708
98.4736,68.1295
98.3033,68.1295
98.133,68.1295
97.9627,68.1295
97.7925,68.032
97.6222,67.7882
97.4519,67.6419
97.2816,67.6419
97.1113,67.6419
96.941,67.6419
96.7707,67.5444
96.6004,67.3006
96.4301,67.1543
96.2599,67.1543
96.0896,67.1543
95.9193,67.1543
95.749,67.1543
95.5787,67.1543
95.4084,67.1543
95.2381,67.1543" />
</g>
</svg>
