<?xml version="1.0"?>
<svg version="1.1"
     xmlns="http://www.w3.org/2000/svg"
     xmlns:xlink="http://www.w3.org/1999/xlink"
     viewBox="0 0 800 600">
<g>
<text fill="#000000" font-family="sans-serif" font-size="19.0476" text-anchor="start" x="4.7619" y="591.429" >
NIST Chemistry WebBook (https://webbook.nist.gov/chemistry)
</text>
<polyline stroke="#000000" stroke-width="1.19048" fill="none" points="95.2381,514.286
742.857,514.286
742.857,66.6667
95.2381,66.6667
95.2381,514.286" />
<text fill="#000000" font-family="sans-serif" font-size="19.0476" text-anchor="middle" x="419.048" y="24.7619" >
Triallyl-s-triazine-2,4,6-(1H,3H,5H)-trione
</text>
<text fill="#000000" font-family="sans-serif" font-size="19.0476" text-anchor="middle" x="419.048" y="53.3333" >
INFRARED SPECTRUM
</text>
<text fill="#000000" font-family="sans-serif" font-size="19.0476" text-anchor="middle" x="419.048" y="558.095" >
Wavenumber (cm-1)
</text>
<text fill="#000000" font-family="sans-serif" font-size="19.0476" text-anchor="middle" transform="translate(20,290.476) rotate(270)" x="0" y="0" >
Transmitance
</text>
<text fill="#000000" font-family="sans-serif" font-size="19.0476" text-anchor="middle" x="626.148" y="534.286" >
1000
</text>
<line stroke="#000000" stroke-width="1.19048" x1="626.148" y1="514.286" x2="626.148" y2="504.762" />
<text fill="#000000" font-family="sans-serif" font-size="19.0476" text-anchor="middle" x="435.448" y="534.286" >
2000
</text>
<line stroke="#000000" stroke-width="1.19048" x1="435.448" y1="514.286" x2="435.448" y2="504.762" />
<text fill="#000000" font-family="sans-serif" font-size="19.0476" text-anchor="middle" x="244.747" y="534.286" >
3000
</text>
<line stroke="#000000" stroke-width="1.19048" x1="244.747" y1="514.286" x2="244.747" y2="504.762" />
<line stroke="#000000" stroke-width="1.19048" x1="740.569" y1="514.286" x2="740.569" y2="509.524" />
<line stroke="#000000" stroke-width="1.19048" x1="721.499" y1="514.286" x2="721.499" y2="509.524" />
<line stroke="#000000" stroke-width="1.19048" x1="702.429" y1="514.286" x2="702.429" y2="509.524" />
<line stroke="#000000" stroke-width="1.19048" x1="683.359" y1="514.286" x2="683.359" y2="509.524" />
<line stroke="#000000" stroke-width="1.19048" x1="664.289" y1="514.286" x2="664.289" y2="509.524" />
<line stroke="#000000" stroke-width="1.19048" x1="645.218" y1="514.286" x2="645.218" y2="509.524" />
<line stroke="#000000" stroke-width="1.19048" x1="626.148" y1="514.286" x2="626.148" y2="509.524" />
<line stroke="#000000" stroke-width="1.19048" x1="607.078" y1="514.286" x2="607.078" y2="509.524" />
<line stroke="#000000" stroke-width="1.19048" x1="588.008" y1="514.286" x2="588.008" y2="509.524" />
<line stroke="#000000" stroke-width="1.19048" x1="568.938" y1="514.286" x2="568.938" y2="509.524" />
<line stroke="#000000" stroke-width="1.19048" x1="549.868" y1="514.286" x2="549.868" y2="509.524" />
<line stroke="#000000" stroke-width="1.19048" x1="530.798" y1="514.286" x2="530.798" y2="509.524" />
<line stroke="#000000" stroke-width="1.19048" x1="511.728" y1="514.286" x2="511.728" y2="509.524" />
<line stroke="#000000" stroke-width="1.19048" x1="492.658" y1="514.286" x2="492.658" y2="509.524" />
<line stroke="#000000" stroke-width="1.19048" x1="473.588" y1="514.286" x2="473.588" y2="509.524" />
<line stroke="#000000" stroke-width="1.19048" x1="454.518" y1="514.286" x2="454.518" y2="509.524" />
<line stroke="#000000" stroke-width="1.19048" x1="435.448" y1="514.286" x2="435.448" y2="509.524" />
<line stroke="#000000" stroke-width="1.19048" x1="416.378" y1="514.286" x2="416.378" y2="509.524" />
<line stroke="#000000" stroke-width="1.19048" x1="397.308" y1="514.286" x2="397.308" y2="509.524" />
<line stroke="#000000" stroke-width="1.19048" x1="378.238" y1="514.286" x2="378.238" y2="509.524" />
<line stroke="#000000" stroke-width="1.19048" x1="359.168" y1="514.286" x2="359.168" y2="509.524" />
<line stroke="#000000" stroke-width="1.19048" x1="340.098" y1="514.286" x2="340.098" y2="509.524" />
<line stroke="#000000" stroke-width="1.19048" x1="321.028" y1="514.286" x2="321.028" y2="509.524" />
<line stroke="#000000" stroke-width="1.19048" x1="301.957" y1="514.286" x2="301.957" y2="509.524" />
<line stroke="#000000" stroke-width="1.19048" x1="282.887" y1="514.286" x2="282.887" y2="509.524" />
<line stroke="#000000" stroke-width="1.19048" x1="263.817" y1="514.286" x2="263.817" y2="509.524" />
<line stroke="#000000" stroke-width="1.19048" x1="244.747" y1="514.286" x2="244.747" y2="509.524" />
<line stroke="#000000" stroke-width="1.19048" x1="225.677" y1="514.286" x2="225.677" y2="509.524" />
<line stroke="#000000" stroke-width="1.19048" x1="206.607" y1="514.286" x2="206.607" y2="509.524" />
<line stroke="#000000" stroke-width="1.19048" x1="187.537" y1="514.286" x2="187.537" y2="509.524" />
<line stroke="#000000" stroke-width="1.19048" x1="168.467" y1="514.286" x2="168.467" y2="509.524" />
<line stroke="#000000" stroke-width="1.19048" x1="149.397" y1="514.286" x2="149.397" y2="509.524" />
<line stroke="#000000" stroke-width="1.19048" x1="130.327" y1="514.286" x2="130.327" y2="509.524" />
<line stroke="#000000" stroke-width="1.19048" x1="111.257" y1="514.286" x2="111.257" y2="509.524" />
<text fill="#000000" font-family="sans-serif" font-size="19.0476" text-anchor="end" x="90.4762" y="518.571" >
0.0
</text>
<line stroke="#000000" stroke-width="1.19048" x1="95.2381" y1="514.286" x2="104.762" y2="514.286" />
<text fill="#000000" font-family="sans-serif" font-size="19.0476" text-anchor="end" x="90.4762" y="424.037" >
0.2
</text>
<line stroke="#000000" stroke-width="1.19048" x1="95.2381" y1="419.752" x2="104.762" y2="419.752" />
<text fill="#000000" font-family="sans-serif" font-size="19.0476" text-anchor="end" x="90.4762" y="329.503" >
0.4
</text>
<line stroke="#000000" stroke-width="1.19048" x1="95.2381" y1="325.217" x2="104.762" y2="325.217" />
<text fill="#000000" font-family="sans-serif" font-size="19.0476" text-anchor="end" x="90.4762" y="234.969" >
0.6
</text>
<line stroke="#000000" stroke-width="1.19048" x1="95.2381" y1="230.683" x2="104.762" y2="230.683" />
<text fill="#000000" font-family="sans-serif" font-size="19.0476" text-anchor="end" x="90.4762" y="140.435" >
0.8
</text>
<line stroke="#000000" stroke-width="1.19048" x1="95.2381" y1="136.149" x2="104.762" y2="136.149" />
<line stroke="#000000" stroke-width="1.19048" x1="95.2381" y1="514.286" x2="100" y2="514.286" />
<line stroke="#000000" stroke-width="1.19048" x1="95.2381" y1="490.652" x2="100" y2="490.652" />
<line stroke="#000000" stroke-width="1.19048" x1="95.2381" y1="467.019" x2="100" y2="467.019" />
<line stroke="#000000" stroke-width="1.19048" x1="95.2381" y1="443.385" x2="100" y2="443.385" />
<line stroke="#000000" stroke-width="1.19048" x1="95.2381" y1="419.752" x2="100" y2="419.752" />
<line stroke="#000000" stroke-width="1.19048" x1="95.2381" y1="396.118" x2="100" y2="396.118" />
<line stroke="#000000" stroke-width="1.19048" x1="95.2381" y1="372.485" x2="100" y2="372.485" />
<line stroke="#000000" stroke-width="1.19048" x1="95.2381" y1="348.851" x2="100" y2="348.851" />
<line stroke="#000000" stroke-width="1.19048" x1="95.2381" y1="325.217" x2="100" y2="325.217" />
<line stroke="#000000" stroke-width="1.19048" x1="95.2381" y1="301.584" x2="100" y2="301.584" />
<line stroke="#000000" stroke-width="1.19048" x1="95.2381" y1="277.95" x2="100" y2="277.95" />
<line stroke="#000000" stroke-width="1.19048" x1="95.2381" y1="254.317" x2="100" y2="254.317" />
<line stroke="#000000" stroke-width="1.19048" x1="95.2381" y1="230.683" x2="100" y2="230.683" />
<line stroke="#000000" stroke-width="1.19048" x1="95.2381" y1="207.05" x2="100" y2="207.05" />
<line stroke="#000000" stroke-width="1.19048" x1="95.2381" y1="183.416" x2="100" y2="183.416" />
<line stroke="#000000" stroke-width="1.19048" x1="95.2381" y1="159.783" x2="100" y2="159.783" />
<line stroke="#000000" stroke-width="1.19048" x1="95.2381" y1="136.149" x2="100" y2="136.149" />
<line stroke="#000000" stroke-width="1.19048" x1="95.2381" y1="112.516" x2="100" y2="112.516" />
<line stroke="#000000" stroke-width="1.19048" x1="95.2381" y1="88.8821" x2="100" y2="88.8821" />
<polyline stroke="#FF0000" stroke-width="1.19048" fill="none" points="95.2381,74.1822
95.4288,74.513
95.6195,74.513
95.8102,73.8986
96.0009,73.7568
96.1916,74.513
96.3823,73.9931
96.573,73.8986
96.7637,73.8986
96.9544,74.7967
97.1451,73.9931
97.3358,74.0404
97.5265,74.0876
97.7172,74.1349
97.9079,74.1349
98.0986,74.1822
98.2893,74.2294
98.48,74.324
98.6707,74.3712
98.8614,74.4185
99.0521,74.4658
99.2428,74.513
99.4335,74.513
99.6242,74.5603
99.8149,74.1822
100.006,74.2767
100.196,74.7021
100.387,74.7494
100.578,74.7494
100.768,74.7967
100.959,74.8439
101.15,74.8912
101.341,74.8912
101.531,74.9384
101.722,74.9384
101.913,74.9857
102.103,74.9857
102.294,74.9857
102.485,74.9857
102.675,75.0803
102.866,75.0803
103.057,75.0803
103.248,75.0803
103.438,75.0803
103.629,75.0803
103.82,74.8439
104.01,74.2294
104.201,74.2294
104.392,74.2294
104.582,74.2767
104.773,74.6548
104.964,75.222
105.155,74.7494
105.345,74.3712
105.536,74.3712
105.727,74.3712
105.917,74.3712
106.108,74.4185
106.299,74.4185
106.489,74.4658
106.68,74.4658
106.871,74.5603
107.062,74.5603
107.252,74.5603
107.443,74.5603
107.634,75.4584
107.824,75.4111
108.015,74.6076
108.206,74.6076
108.396,74.7494
108.587,74.7494
108.778,74.8439
108.969,74.7021
109.159,74.4185
109.35,74.8439
109.541,74.3712
109.731,74.4658
109.922,74.5603
110.113,74.6548
110.303,74.7494
110.494,74.8912
110.685,74.9857
110.876,75.0803
111.066,75.1748
111.257,75.2693
111.448,75.4111
111.638,75.5056
111.829,75.8838
112.02,76.8764
112.21,77.3491
112.401,77.6327
112.592,77.9635
112.783,78.2471
112.973,78.6253
113.164,78.9089
113.355,79.2397
113.545,79.6179
113.736,80.1378
113.927,81.225
114.117,81.6504
114.308,82.0758
114.499,82.4539
114.69,82.832
114.88,83.1157
115.071,83.4465
115.262,83.541
115.452,83.541
115.643,83.541
115.834,83.4465
116.024,83.3993
116.215,83.3047
116.406,83.1629
116.597,83.1157
116.787,82.9738
116.978,82.0758
117.169,82.5012
117.359,82.5012
117.55,82.4066
117.741,82.2176
117.931,82.0758
118.122,81.934
118.313,81.7921
118.504,81.6504
118.694,81.6031
118.885,81.5086
119.076,81.4613
119.266,81.3668
119.457,81.225
119.648,81.1304
119.838,81.0832
120.029,80.9886
120.22,80.9413
120.411,80.8468
120.601,80.7523
120.792,80.6577
120.983,80.6577
121.173,80.516
121.364,80.4214
121.555,80.3269
121.745,80.3269
121.936,80.1851
122.127,80.1378
122.318,80.0433
122.508,79.996
122.699,79.9488
122.89,79.9015
123.08,79.8542
123.271,79.8069
123.462,79.7597
123.652,79.7124
123.843,79.6652
124.034,79.4761
124.225,78.8144
124.415,78.8616
124.606,79.1452
124.797,79.8069
124.987,79.5233
125.178,79.0979
125.369,79.1452
125.559,79.1925
125.75,79.3343
125.941,79.3343
126.132,79.3816
126.322,79.4761
126.513,79.5233
126.704,79.6652
126.894,79.6652
127.085,79.8069
127.276,79.8069
127.466,79.9015
127.657,80.0433
127.848,80.1378
128.039,80.1851
128.229,80.2796
128.42,80.3269
128.611,80.516
128.801,81.225
128.992,80.5632
129.183,80.6577
129.373,80.7523
129.564,80.7996
129.755,81.0832
129.946,81.414
130.136,80.8941
130.327,81.225
130.518,81.7449
130.708,81.3195
130.899,80.9413
131.09,80.9413
131.281,80.9886
131.471,80.9886
131.662,81.0359
131.853,81.0359
132.043,81.0832
132.234,81.1304
132.425,81.1777
132.615,81.225
132.806,81.3195
132.997,81.3668
133.188,81.414
133.378,81.4613
133.569,81.5558
133.76,81.6031
133.95,81.6504
134.141,81.6976
134.332,81.8394
134.522,81.8394
134.713,82.2176
134.904,82.6902
135.095,83.8246
135.285,84.0137
135.476,84.8645
135.667,86.0935
135.857,86.9443
136.048,87.3697
136.239,87.5115
136.429,87.7006
136.62,87.8896
136.811,87.9842
137.002,88.1259
137.192,88.2205
137.383,88.3623
137.574,88.5041
137.764,88.6932
137.955,88.7877
138.146,88.7877
138.336,88.7877
138.527,88.835
138.718,88.7877
138.909,88.0314
139.099,88.835
139.29,88.6932
139.481,87.9842
139.671,88.0314
139.862,88.2678
140.053,88.6459
140.243,88.0314
140.434,88.0787
140.625,88.0787
140.816,88.4568
141.006,88.5514
141.197,88.1259
141.388,88.1259
141.578,88.1732
141.769,88.6932
141.96,88.5041
142.15,88.7877
142.341,88.4095
142.532,88.2205
142.723,88.2205
142.913,88.1732
143.104,88.1732
143.295,88.1732
143.485,88.1732
143.676,88.1259
143.867,88.9295
144.057,88.9295
144.248,88.9295
144.439,88.9767
144.63,88.9767
144.82,88.8822
145.011,88.8822
145.202,88.9295
145.392,88.9295
145.583,88.9295
145.774,88.9295
145.964,88.8822
146.155,88.8822
146.346,88.8822
146.537,88.8822
146.727,88.8822
146.918,88.8822
147.109,88.835
147.299,88.835
147.49,88.835
147.681,88.835
147.871,88.835
148.062,88.8822
148.253,88.8822
148.444,88.9295
148.634,88.9295
148.825,88.9767
149.016,88.9767
149.206,88.9767
149.397,88.9767
149.588,89.024
149.778,89.024
149.969,89.0713
150.16,89.0713
150.351,89.1186
150.541,89.1186
150.732,89.1658
150.923,89.1658
151.113,89.2131
151.304,89.2131
151.495,89.2603
151.685,89.2603
151.876,89.3549
152.067,89.3549
152.258,89.4022
152.448,89.4022
152.639,89.4494
152.83,89.4494
153.02,89.4967
153.211,89.544
153.402,89.6858
153.592,89.7803
153.783,89.9221
153.974,90.1111
154.165,90.3002
154.355,90.442
154.546,90.8674
154.737,91.1983
154.927,91.5764
155.118,91.9546
155.309,92.3327
155.499,92.7108
155.69,93.2781
155.881,93.8452
156.072,94.6015
156.262,95.3105
156.453,96.0668
156.644,96.7758
156.834,97.8157
157.025,98.761
157.216,100.226
157.406,101.644
157.597,103.157
157.788,104.669
157.979,106.324
158.169,107.931
158.36,109.538
158.551,111.145
158.741,113.272
158.932,115.305
159.123,117.337
159.313,119.322
159.504,120.977
159.695,125.42
159.886,122.82
160.076,122.962
160.267,123.198
160.458,123.34
160.648,122.536
160.839,121.733
161.03,119.889
161.22,118.046
161.411,116.25
161.602,114.406
161.793,112.61
161.983,110.814
162.174,108.923
162.365,107.08
162.555,106.182
162.746,105.189
162.937,104.669
163.127,104.15
163.318,103.582
163.509,103.015
163.7,103.251
163.89,102.07
164.081,101.455
164.272,100.888
164.462,100.699
164.653,100.368
164.844,100.179
165.034,99.9427
165.225,99.7064
165.416,99.4228
165.607,99.281
165.797,99.1392
165.988,99.0919
166.179,98.572
166.369,98.9029
166.56,98.8083
166.751,98.7138
166.941,98.6192
167.132,98.052
167.323,98.052
167.514,98.3356
167.704,98.3356
167.895,98.9974
168.086,99.6591
168.276,100.51
168.467,101.219
168.658,102.164
168.849,103.11
169.039,104.055
169.23,104.953
169.421,106.513
169.611,108.025
169.802,109.869
169.993,111.712
170.183,113.745
170.374,115.872
170.565,117.621
170.756,119.417
170.946,120.693
171.137,121.875
171.328,123.34
171.518,124.663
171.709,124.474
171.9,125.372
172.09,123.954
172.281,123.718
172.472,122.867
172.663,122.016
172.853,121.071
173.044,120.126
173.235,119.228
173.425,118.235
173.616,117.242
173.807,116.203
173.997,115.21
174.188,113.508
174.379,113.272
174.57,112.279
174.76,111.381
174.951,110.483
175.142,109.68
175.332,108.876
175.523,108.167
175.714,107.316
175.904,106.513
176.095,105.757
176.286,105
176.477,104.197
176.667,103.535
176.858,102.873
177.049,102.542
177.239,102.117
177.43,101.739
177.621,101.361
177.811,100.983
178.002,100.604
178.193,100.226
178.384,99.8482
178.574,99.5173
178.765,99.0919
178.956,98.0993
179.146,97.5793
179.337,97.9575
179.528,96.9176
179.718,97.3903
179.909,97.2485
180.1,97.0122
180.291,96.0196
180.481,95.8305
180.672,95.7359
180.863,96.2559
181.053,96.0196
181.244,95.925
181.435,95.7832
181.625,95.7359
181.816,95.5941
182.007,95.5469
182.198,95.4524
182.388,95.4051
182.579,95.2633
182.77,95.1688
182.96,95.0742
183.151,94.9797
183.342,94.8851
183.532,94.7433
183.723,94.7433
183.914,94.7433
184.105,94.8851
184.295,94.9797
184.486,95.0742
184.677,95.1688
184.867,95.2633
185.058,95.4051
185.249,94.6015
185.439,94.7433
185.63,94.7906
185.821,94.9324
186.012,95.1215
186.202,95.7832
186.393,95.216
186.584,95.3105
186.774,95.6414
186.965,96.3977
187.156,96.5395
187.346,96.6813
187.537,96.7758
187.728,96.9176
187.919,97.0594
188.109,97.2485
188.3,97.343
188.491,97.3903
188.681,97.4376
188.872,97.4848
189.063,97.5321
189.253,97.6266
189.444,97.6739
189.635,97.7212
189.826,97.7684
190.016,97.863
190.207,97.9575
190.398,97.9575
190.588,97.9575
190.779,97.2485
190.97,97.3903
191.16,98.0993
191.351,97.9575
191.542,97.343
191.733,97.5321
191.923,98.1938
192.114,97.9102
192.305,97.4848
192.495,97.4848
192.686,97.4848
192.877,97.4848
193.067,97.4848
193.258,97.4848
193.449,97.5321
193.64,97.5321
193.83,97.6266
194.021,97.6266
194.212,97.6266
194.402,97.6266
194.593,97.6739
194.784,97.6739
194.974,97.7212
195.165,97.7212
195.356,97.7684
195.547,97.8157
195.737,97.863
195.928,98.6192
196.119,97.9102
196.309,97.9102
196.5,97.9575
196.691,97.9575
196.881,98.0048
197.072,98.0048
197.263,98.052
197.454,98.052
197.644,98.0993
197.835,98.0993
198.026,98.572
198.216,98.5247
198.407,98.1938
198.598,98.1938
198.788,98.2411
198.979,98.2411
199.17,98.2884
199.361,98.2884
199.551,98.3829
199.742,98.3829
199.933,98.4302
200.123,98.4302
200.314,98.4774
200.505,98.4774
200.695,98.5247
200.886,98.5247
201.077,98.572
201.268,98.572
201.458,98.761
201.649,99.4228
201.84,99.3282
202.03,98.6665
202.221,98.7138
202.412,98.761
202.602,98.8083
202.793,98.8083
202.984,98.8556
203.175,98.8556
203.365,98.9029
203.556,98.9974
203.747,99.0446
203.937,99.0446
204.128,99.0919
204.319,99.1392
204.51,99.1864
204.7,99.1864
204.891,99.2337
205.082,99.9427
205.272,100.085
205.463,100.132
205.654,100.226
205.844,100.226
206.035,100.274
206.226,100.321
206.417,100.368
206.607,100.226
206.798,99.7537
206.989,100.226
207.179,99.8954
207.37,100.274
207.561,99.7537
207.751,99.7537
207.942,99.7537
208.133,99.7064
208.324,99.7064
208.514,100.132
208.705,100.085
208.896,99.7064
209.086,99.7064
209.277,100.226
209.468,100.51
209.658,100.51
209.849,100.51
210.04,100.51
210.231,100.51
210.421,100.51
210.612,100.51
210.803,100.51
210.993,100.51
211.184,100.51
211.375,100.51
211.565,100.415
211.756,100.415
211.947,100.415
212.138,100.51
212.328,100.51
212.519,100.51
212.71,100.51
212.9,100.604
213.091,100.604
213.282,100.604
213.472,100.226
213.663,99.8482
213.854,100.321
214.045,100.226
214.235,99.8482
214.426,99.9427
214.617,100.463
214.807,100.132
214.998,100.557
215.189,100.794
215.379,100.132
215.57,100.085
215.761,100.085
215.952,100.085
216.142,100.085
216.333,100.226
216.524,101.03
216.714,101.077
216.905,101.172
217.096,101.219
217.286,101.266
217.477,101.313
217.668,101.361
217.859,101.124
218.049,100.652
218.24,100.699
218.431,100.746
218.621,100.794
218.812,100.794
219.003,100.841
219.193,100.841
219.384,100.888
219.575,100.888
219.766,100.935
219.956,100.983
220.147,101.03
220.338,101.03
220.528,101.077
220.719,101.172
220.91,101.266
221.1,101.313
221.291,101.408
221.482,101.503
221.673,101.597
221.863,101.692
222.054,102.117
222.245,102.495
222.435,102.921
222.626,103.299
222.817,103.819
223.007,104.291
223.198,104.906
223.389,105.473
223.58,106.04
223.77,106.56
223.961,107.175
224.152,107.789
224.342,107.884
224.533,108.073
224.724,109.349
224.914,110.483
225.105,111.996
225.296,113.508
225.487,115.777
225.677,117.384
225.868,121.638
226.059,126.129
226.249,133.739
226.44,141.301
226.631,147.257
226.821,153.922
227.012,205.963
227.203,258.098
227.394,259.989
227.584,261.549
227.775,262.305
227.966,262.872
228.156,262.872
228.347,265.708
228.538,261.974
228.728,260.887
228.919,251.292
229.11,241.649
229.301,236.45
229.491,231.156
229.682,219.387
229.873,207.239
230.063,191.499
230.254,176.184
230.445,164.699
230.635,152.693
230.826,149.384
231.017,146.879
231.208,144.846
231.398,142.672
231.589,141.349
231.78,138.465
231.97,137.189
232.161,135.204
232.352,134.259
232.542,133.361
232.733,133.03
232.924,132.084
233.115,131.044
233.305,129.863
233.496,128.303
233.687,127.216
233.877,126.838
234.068,126.554
234.259,125.561
234.449,124.852
234.64,124.569
234.831,123.86
235.022,122.678
235.212,121.686
235.403,121.118
235.594,120.457
235.784,120.031
235.975,118.991
236.166,118.519
236.356,117.432
236.547,116.628
236.738,115.824
236.929,115.021
237.119,114.454
237.31,114.454
237.501,114.454
237.691,114.737
237.882,115.73
238.073,117.006
238.263,117.857
238.454,119.748
238.645,121.402
238.836,122.914
239.026,124.758
239.217,131.092
239.408,136.953
239.598,144.941
239.789,152.882
239.98,156.474
240.171,160.019
240.361,163.044
240.552,166.069
240.743,168.149
240.933,171.411
241.124,169.709
241.315,169.567
241.505,169.662
241.696,170.276
241.887,167.771
242.078,165.124
242.268,163.139
242.459,161.201
242.65,160.066
242.84,159.027
243.031,158.081
243.222,157.325
243.412,157.183
243.603,156.143
243.794,155.671
243.985,155.623
244.175,154.773
244.366,155.056
244.557,155.056
244.747,154.678
244.938,154.773
245.129,155.292
245.319,155.623
245.51,155.86
245.701,157.23
245.892,158.554
246.082,165.786
246.273,173.348
246.464,185.165
246.654,219.812
246.845,203.93
247.036,210.831
247.226,213.147
247.417,215.416
247.608,216.74
247.799,218.063
247.989,218.158
248.18,218.205
248.371,217.307
248.561,216.22
248.752,209.366
248.943,203.079
249.133,196.935
249.324,190.081
249.515,184.598
249.706,179.021
249.896,179.021
250.087,179.021
250.278,179.068
250.468,179.21
250.659,180.06
250.85,181.006
251.04,182.518
251.231,184.031
251.422,199.44
251.613,214.754
251.803,225.2
251.994,235.599
252.185,237.821
252.375,240.042
252.566,240.751
252.757,242.075
252.947,243.824
253.138,247.936
253.329,245.809
253.52,246.471
253.71,246.423
253.901,246.801
254.092,245.336
254.282,243.824
254.473,238.624
254.664,233.472
254.854,226.666
255.045,219.859
255.236,194.619
255.427,168.953
255.617,166.353
255.808,163.47
255.999,160.87
256.189,157.75
256.38,154.253
256.571,150.944
256.761,148.864
256.952,146.69
257.143,145.697
257.334,144.043
257.524,142.389
257.715,140.592
257.906,139.505
258.096,138.324
258.287,137.331
258.478,136.338
258.668,135.96
258.859,135.582
259.05,135.251
259.241,134.826
259.431,134.448
259.622,134.4
259.813,134.495
260.003,134.117
260.194,133.739
260.385,133.408
260.575,132.888
260.766,132.415
260.957,131.943
261.148,131.423
261.338,131.044
261.529,130.525
261.72,129.957
261.91,129.437
262.101,128.823
262.292,127.547
262.482,126.885
262.673,126.979
262.864,126.412
263.055,125.798
263.245,124.852
263.436,124.002
263.627,123.104
263.817,122.111
264.008,121.213
264.199,120.315
264.389,119.606
264.58,118.85
264.771,118.282
264.962,117.621
265.152,117.006
265.343,116.344
265.534,115.919
265.724,115.399
265.915,115.115
266.106,114.785
266.296,114.595
266.487,114.359
266.678,114.076
266.869,113.839
267.059,113.65
267.25,113.414
267.441,113.367
267.631,113.272
267.822,113.272
268.013,113.225
268.203,113.886
268.394,113.083
268.585,112.941
268.776,112.752
268.966,112.61
269.157,112.421
269.348,112.279
269.538,112.138
269.729,111.854
269.92,111.523
270.11,111.24
270.301,110.909
270.492,110.72
270.683,110.578
270.873,110.578
271.064,110.578
271.255,110.578
271.445,110.578
271.636,110.72
271.827,110.767
272.017,110.956
272.208,110.956
272.399,111.098
272.59,111.807
272.78,111.901
272.971,111.759
273.162,111.665
273.352,111.523
273.543,111.381
273.734,111.192
273.924,110.247
274.115,108.829
274.306,107.789
274.497,106.891
274.687,106.135
274.878,104.433
275.069,103.582
275.259,103.062
275.45,102.637
275.641,101.644
275.831,101.124
276.022,101.03
276.213,100.841
276.404,100.274
276.594,99.8009
276.785,99.2337
276.976,98.9501
277.166,98.6665
277.357,97.8157
277.548,98.052
277.739,97.2485
277.929,96.9176
278.12,97.4848
278.311,97.2957
278.501,96.3032
278.692,96.7758
278.883,95.8305
279.073,95.5469
279.264,95.4996
279.455,95.9723
279.646,95.8777
279.836,95.8305
280.027,95.8305
280.218,95.6887
280.408,95.6414
280.599,95.5469
280.79,95.4996
280.98,95.6887
281.171,95.3578
281.362,94.7906
281.553,94.4125
281.743,94.318
281.934,94.318
282.125,94.2707
282.315,94.2707
282.506,94.2234
282.697,94.2234
282.887,94.1761
283.078,94.1761
283.269,94.1289
283.46,94.1289
283.65,94.1289
283.841,94.1289
284.032,94.1761
284.222,94.2234
284.413,94.3652
284.604,94.9324
284.794,94.4597
284.985,95.1688
285.176,95.1688
285.367,95.216
285.557,95.2633
285.748,95.0269
285.939,94.6488
286.129,95.1688
286.32,95.6414
286.511,95.5469
286.701,95.4524
286.892,96.3032
287.083,97.154
287.274,98.572
287.464,99.99
287.655,101.503
287.846,103.062
288.036,104.15
288.227,108.687
288.418,105.757
288.608,106.135
288.799,106.229
288.99,106.276
289.181,106.466
289.371,106.513
289.562,106.324
289.753,106.135
289.943,105.142
290.134,104.15
290.325,103.062
290.515,101.786
290.706,100.604
290.897,99.3755
291.088,98.4302
291.278,97.4376
291.469,96.6813
291.66,95.8777
291.85,95.1215
292.041,94.318
292.232,93.9398
292.422,93.6089
292.613,93.2781
292.804,92.9472
292.995,92.6163
293.185,92.2382
293.376,91.9546
293.567,91.5764
293.757,91.2928
293.948,90.962
294.139,90.6311
294.329,90.3002
294.52,90.0166
294.711,89.6858
294.902,89.4022
295.092,89.0713
295.283,88.835
295.474,88.5514
295.664,88.2205
295.855,87.9369
296.046,87.6533
296.236,87.3697
296.427,87.0861
296.618,86.7552
296.809,86.5189
296.999,86.2353
297.19,85.999
297.381,85.7626
297.571,85.5735
297.762,85.3845
297.953,85.1481
298.143,85.0063
298.334,84.77
298.525,84.5337
298.716,84.2973
298.906,84.1083
299.097,83.9665
299.288,83.7774
299.478,83.6356
299.669,83.4465
299.86,83.3047
300.05,83.1157
300.241,83.0211
300.432,83.0211
300.623,83.0211
300.813,83.1157
301.004,83.2102
301.195,83.3047
301.385,83.4938
301.576,83.5883
301.767,83.7301
301.957,83.8719
302.148,84.0137
302.339,84.2028
302.53,84.3446
302.72,84.4864
302.911,84.6282
303.102,84.77
303.292,84.9591
303.483,85.1009
303.674,85.1954
303.864,85.2899
304.055,85.3845
304.246,85.3845
304.437,85.3845
304.627,85.3845
304.818,85.4317
305.009,85.4317
305.199,85.5735
305.39,85.5735
305.581,85.5735
305.771,85.5735
305.962,85.5735
306.153,85.5735
306.344,85.4317
306.534,85.3845
306.725,85.2899
306.916,85.1954
307.106,85.1009
307.297,85.0536
307.488,84.9591
307.678,84.8645
307.869,84.8173
308.06,84.7227
308.251,84.7227
308.441,84.7227
308.632,84.9118
308.823,85.0536
309.013,85.1954
309.204,85.4317
309.395,85.5735
309.586,85.6681
309.776,85.8571
309.967,85.9517
310.158,85.3372
310.348,85.479
310.539,85.6681
310.73,85.8571
310.92,86.188
311.111,86.5661
311.302,87.4169
311.492,88.5041
311.683,89.0713
311.874,89.2131
312.065,89.3076
312.255,89.8748
312.446,90.962
312.637,91.9073
312.827,92.5218
313.018,92.5691
313.209,93.4671
313.4,94.2234
313.59,94.6488
313.781,95.0269
313.972,95.4996
314.162,95.925
314.353,96.3032
314.544,95.8777
314.734,96.3032
314.925,96.7285
315.116,97.7212
315.307,97.8157
315.497,97.0122
315.688,96.8704
315.879,96.7285
316.069,96.5868
316.26,96.3504
316.451,96.0668
316.641,95.7359
316.832,95.4051
317.023,95.0742
317.214,94.7433
317.404,94.507
317.595,94.0816
317.786,93.9398
317.976,93.798
318.167,93.798
318.358,93.7507
318.548,93.7507
318.739,93.7035
318.93,93.7035
319.121,93.6562
319.311,93.6089
319.502,93.5144
319.693,93.4199
319.883,93.3253
320.074,93.2308
320.265,93.089
320.455,92.9944
320.646,92.8999
320.837,92.8054
321.028,92.6163
321.218,92.4273
321.409,92.1909
321.6,92.0018
321.79,91.6237
321.981,91.3401
322.172,91.0092
322.362,90.7256
322.553,90.442
322.744,90.1111
322.935,89.8276
323.125,89.6858
323.316,89.4494
323.507,89.3076
323.697,89.1658
323.888,89.0713
324.079,88.9767
324.269,88.8822
324.46,88.8822
324.651,88.835
324.842,88.9295
325.032,89.1186
325.223,89.3076
325.414,89.4967
325.604,89.6858
325.795,89.8276
325.986,89.9694
326.176,90.1584
326.367,90.3002
326.558,90.6311
326.749,91.0092
326.939,91.4347
327.13,91.9073
327.321,92.4273
327.511,92.8527
327.702,93.3726
327.893,93.8452
328.083,94.1289
328.274,94.3652
328.465,94.6488
328.656,94.8851
328.846,94.7906
329.037,94.7433
329.228,94.6488
329.418,94.5543
329.609,94.5543
329.8,94.3652
329.99,94.2234
330.181,94.0816
330.372,93.7507
330.563,93.3726
330.753,93.0417
330.944,92.6163
331.135,92.2855
331.325,91.9073
331.516,91.5764
331.707,91.151
331.897,90.8202
332.088,90.3948
332.279,90.2057
332.47,89.9694
332.66,89.733
332.851,89.4967
333.042,89.2131
333.232,88.9767
333.423,88.6932
333.614,88.4568
333.804,88.4095
333.995,88.4095
334.186,88.4095
334.377,88.4095
334.567,88.4568
334.758,88.4568
334.949,88.5041
335.139,88.5514
335.33,88.5986
335.521,88.5986
335.711,88.6932
335.902,88.7877
336.093,88.8822
336.284,88.9295
336.474,89.024
336.665,89.0713
336.856,89.1658
337.046,89.2131
337.237,89.2603
337.428,89.2603
337.618,89.2603
337.809,89.2603
338,89.4022
338.191,89.4022
338.381,89.4022
338.572,89.4022
338.763,89.4022
338.953,89.4022
339.144,89.2131
339.335,89.1186
339.525,89.0713
339.716,88.9767
339.907,88.8822
340.098,88.7877
340.288,88.7404
340.479,88.6459
340.67,88.5514
340.86,88.4568
341.051,88.2678
341.242,88.1259
341.432,88.0314
341.623,87.8896
341.814,87.7478
342.005,87.5587
342.195,87.5587
342.386,87.606
342.577,87.606
342.767,87.6533
342.958,87.7006
343.149,87.7006
343.339,87.7478
343.53,87.7478
343.721,87.2279
343.912,86.8498
344.102,86.8025
344.293,86.7079
344.484,86.6134
344.674,86.5661
344.865,86.4243
345.056,86.3771
345.246,86.2825
345.437,86.188
345.628,86.0462
345.819,85.7626
346.009,85.479
346.2,85.2427
346.391,85.0063
346.581,84.7227
346.772,84.4864
346.963,84.2028
347.154,84.1555
347.344,84.061
347.535,84.0137
347.726,84.0137
347.916,84.0137
348.107,84.3446
348.298,84.2973
348.488,84.3446
348.679,84.6282
348.87,84.5809
349.06,84.2501
349.251,84.1555
349.442,84.3446
349.633,85.1954
349.823,84.9591
350.014,85.0063
350.205,85.1954
350.395,85.4317
350.586,85.6681
350.777,85.8571
350.968,86.0462
351.158,86.2825
351.349,86.5661
351.54,86.7079
351.73,87.1806
351.921,87.6533
352.112,88.2678
352.302,88.835
352.493,89.4494
352.684,90.0639
352.875,90.962
353.065,91.8128
353.256,92.8999
353.447,93.9871
353.637,94.6488
353.828,95.3105
354.019,95.8305
354.209,96.3504
354.4,96.7758
354.591,97.2485
354.782,97.7684
354.972,98.1938
355.163,98.6192
355.354,98.9501
355.544,99.0446
355.735,99.0919
355.926,98.5247
356.116,97.9575
356.307,97.4376
356.498,96.9176
356.689,96.3504
356.879,95.7832
357.07,95.2633
357.261,94.7906
357.451,94.4125
357.642,93.8452
357.833,93.9871
358.023,93.3253
358.214,93.1835
358.405,92.9944
358.596,92.8527
358.786,92.5691
358.977,92.4273
359.168,92.2382
359.358,92.1909
359.549,92.1909
359.74,92.1909
359.93,92.2382
360.121,92.3327
360.312,92.4273
360.503,92.5691
360.693,92.6636
360.884,92.8527
361.075,92.8999
361.265,92.1909
361.456,92.2855
361.647,92.4273
361.837,92.5218
362.028,92.5691
362.219,91.9546
362.41,92.0491
362.6,91.9546
362.791,91.4819
362.982,91.5764
363.172,91.4347
363.363,91.0092
363.554,90.7729
363.744,90.3948
363.935,90.6311
364.126,90.3002
364.317,90.1111
364.507,90.253
364.698,90.442
364.889,90.5839
365.079,91.3874
365.27,91.7655
365.461,91.86
365.651,91.9546
365.842,92.0018
366.033,92.0018
366.224,92.0491
366.414,92.0491
366.605,92.0491
366.796,91.1038
366.986,90.962
367.177,90.1111
367.368,89.9221
367.558,88.9295
367.749,88.2205
367.94,88.1259
368.131,88.0787
368.321,88.0314
368.512,88.2205
368.703,88.6459
368.893,88.5986
369.084,88.0314
369.275,87.0388
369.465,86.5661
369.656,86.4243
369.847,86.8025
370.038,86.897
370.228,86.7079
370.419,86.5661
370.61,86.3298
370.8,86.897
370.991,86.0935
371.182,85.9044
371.372,86.5661
371.563,86.5189
371.754,85.5735
371.945,85.5262
372.135,85.479
372.326,85.2427
372.517,84.4864
372.707,84.3918
372.898,84.2501
373.089,83.9665
373.279,83.2574
373.47,82.8793
373.661,82.2649
373.852,82.2176
374.042,82.0758
374.233,82.0285
374.424,81.9812
374.614,81.934
374.805,81.8867
374.996,81.8394
375.186,81.7921
375.377,81.7449
375.568,81.7449
375.759,81.7449
375.949,81.8394
376.14,81.9812
376.331,82.123
376.521,82.2176
376.712,82.3121
376.903,82.4539
377.093,82.5957
377.284,82.9266
377.475,83.1629
377.666,83.541
377.856,83.9192
378.047,84.3446
378.238,84.7227
378.428,84.7227
378.619,84.5337
378.81,84.6754
379,84.9118
379.191,85.1009
379.382,85.2427
379.573,85.479
379.763,85.6208
379.954,85.7153
380.145,85.8099
380.335,85.9044
380.526,86.5189
380.717,86.8498
380.908,86.897
381.098,86.9443
381.289,86.9915
381.48,87.8423
381.67,87.9369
381.861,87.9842
382.052,88.0787
382.242,88.1259
382.433,88.8822
382.624,88.9767
382.815,89.1186
383.005,89.7803
383.196,89.7803
383.387,89.7803
383.577,90.0639
383.768,90.5839
383.959,90.4893
384.149,90.7729
384.34,91.151
384.531,91.0565
384.721,90.962
384.912,91.3874
385.103,91.671
385.294,91.5764
385.484,91.4347
385.675,92.0018
385.866,92.1436
386.056,91.86
386.247,92.2382
386.438,91.9073
386.629,91.3874
386.819,91.0092
387.01,91.3874
387.201,91.0565
387.391,90.6784
387.582,90.3948
387.773,90.7729
387.963,90.5366
388.154,90.253
388.345,89.9694
388.536,89.6858
388.726,89.6858
388.917,89.9694
389.108,89.733
389.298,89.4494
389.489,89.2603
389.68,89.0713
389.87,88.835
390.061,88.6459
390.252,88.5041
390.443,88.3623
390.633,88.835
390.824,88.9295
391.015,88.835
391.205,88.7404
391.396,88.7404
391.587,88.7404
391.777,88.7877
391.968,88.835
392.159,88.9295
392.35,88.9767
392.54,89.024
392.731,89.0713
392.922,89.1658
393.112,89.3076
393.303,90.0639
393.494,90.0639
393.684,90.1584
393.875,90.1584
394.066,90.1584
394.257,90.2057
394.447,90.1584
394.638,89.9694
394.829,89.8276
395.019,89.6385
395.21,89.4967
395.401,89.3549
395.591,89.1658
395.782,88.9767
395.973,88.7877
396.164,88.5514
396.354,88.2205
396.545,87.9369
396.736,87.606
396.926,87.3224
397.117,87.0861
397.308,86.7552
397.498,86.5189
397.689,86.2825
397.88,85.9517
398.071,85.8099
398.261,86.188
398.452,85.1481
398.643,85.1481
398.833,85.5735
399.024,85.5735
399.215,85.5262
399.405,85.5262
399.596,85.479
399.787,85.479
399.978,85.3845
400.168,85.3845
400.359,84.8645
400.55,85.0063
400.74,85.3372
400.931,85.3372
401.122,85.2899
401.312,85.2899
401.503,84.5809
401.694,84.4391
401.885,84.3446
402.075,84.2973
402.266,84.2501
402.457,84.2501
402.647,84.2501
402.838,84.1555
403.029,84.1083
403.219,84.2028
403.41,84.9591
403.601,84.8645
403.792,84.8173
403.982,84.8173
404.173,84.77
404.364,84.77
404.554,84.6754
404.745,84.6282
404.936,84.5337
405.126,84.4864
405.317,84.4391
405.508,84.3918
405.699,84.3446
405.889,84.2501
406.08,84.2028
406.271,84.1555
406.461,84.1083
406.652,84.1083
406.843,84.061
407.033,84.2973
407.224,84.4864
407.415,85.0063
407.606,85.4317
407.796,85.9517
407.987,86.3771
408.178,86.8498
408.368,87.3224
408.559,87.8423
408.75,88.4095
408.94,89.0713
409.131,89.6858
409.322,90.3475
409.513,91.0092
409.703,91.7655
409.894,92.5691
410.085,92.8054
410.275,93.0417
410.466,93.3253
410.657,93.5617
410.847,93.8452
411.038,94.1289
411.229,94.3652
411.42,94.6015
411.61,94.8851
411.801,95.0742
411.992,94.7433
412.182,94.9797
412.373,93.9871
412.564,93.4671
412.754,93.1835
412.945,92.8054
413.136,92.5691
413.327,92.2855
413.517,92.0018
413.708,91.7655
413.899,91.5292
414.089,91.2456
414.28,91.0565
414.471,90.8202
414.661,90.6784
414.852,90.4893
415.043,90.3475
415.234,90.2057
415.424,90.0639
415.615,89.8748
415.806,89.8748
415.996,89.6858
416.187,89.6858
416.378,89.6858
416.568,89.6858
416.759,90.2057
416.95,90.442
417.141,89.733
417.331,89.544
417.522,90.253
417.713,89.5912
417.903,89.4494
418.094,89.4494
418.285,89.4022
418.475,89.4022
418.666,89.3549
418.857,89.3549
419.048,89.3076
419.238,89.3076
419.429,89.2603
419.62,89.2131
419.81,89.1658
420.001,89.1658
420.192,89.1186
420.383,89.1186
420.573,89.0713
420.764,89.0713
420.955,89.024
421.145,89.024
421.336,88.9767
421.527,88.9295
421.717,88.8822
421.908,88.835
422.099,88.7404
422.29,88.6932
422.48,88.6459
422.671,88.5986
422.862,88.5041
423.052,88.4568
423.243,88.4095
423.434,88.3623
423.624,88.315
423.815,88.2678
424.006,88.1732
424.197,88.1259
424.387,88.0787
424.578,87.8423
424.769,87.1334
424.959,87.0861
425.15,86.9915
425.341,86.9443
425.531,87.2279
425.722,87.2279
425.913,86.7552
426.104,87.0861
426.294,87.3697
426.485,87.3697
426.676,87.2279
426.866,87.2279
427.057,87.0861
427.248,87.0861
427.438,87.0388
427.629,87.0388
427.82,86.9915
428.011,86.9915
428.201,86.9915
428.392,86.9915
428.583,86.9443
428.773,86.9443
428.964,86.897
429.155,86.897
429.345,86.897
429.536,86.897
429.727,86.897
429.918,86.9443
430.108,86.7079
430.299,86.3771
430.49,86.9443
430.68,86.7552
430.871,86.4243
431.062,86.5661
431.252,86.6134
431.443,86.7552
431.634,86.897
431.825,87.0388
432.015,87.1806
432.206,87.3224
432.397,87.4169
432.587,87.5587
432.778,87.6533
432.969,87.8423
433.159,87.9369
433.35,88.0314
433.541,88.1259
433.732,88.5514
433.922,88.9295
434.113,89.4494
434.304,89.8748
434.494,90.5839
434.685,91.1983
434.876,91.9546
435.066,92.6163
435.257,94.0343
435.448,95.4051
435.639,96.7758
435.829,98.5247
436.02,100.51
436.211,102.07
436.401,103.582
436.592,105.757
436.783,108.545
436.973,109.963
437.164,108.687
437.355,107.411
437.546,106.087
437.736,105.048
437.927,104.386
438.118,104.811
438.308,104.906
438.499,104.906
438.69,104.906
438.88,104.906
439.071,104.906
439.262,104.906
439.453,105
439.643,105.615
439.834,105.378
440.025,105.095
440.215,104.858
440.406,104.528
440.597,104.339
440.787,103.913
440.978,103.582
441.169,103.157
441.36,102.826
441.55,102.448
441.741,102.117
441.932,101.266
442.122,101.124
442.313,101.077
442.504,100.179
442.694,99.3282
442.885,98.3356
443.076,97.2485
443.267,95.925
443.457,94.1761
443.648,92.4273
443.839,93.7035
444.029,94.6488
444.22,96.3032
444.411,97.154
444.601,97.343
444.792,97.5321
444.983,97.8157
445.174,98.6192
445.364,98.8556
445.555,99.0919
445.746,99.3755
445.936,99.6591
446.127,99.99
446.318,100.179
446.508,100.51
446.699,100.746
446.89,100.983
447.081,101.219
447.271,101.455
447.462,101.692
447.653,101.881
447.843,102.164
448.034,102.353
448.225,102.59
448.415,102.873
448.606,103.11
448.797,103.346
448.988,103.63
449.178,103.866
449.369,104.102
449.56,104.386
449.75,104.48
449.941,104.575
450.132,104.669
450.322,104.764
450.513,104.858
450.704,104.622
450.895,104.339
451.085,103.96
451.276,103.677
451.467,103.299
451.657,103.015
451.848,102.873
452.039,102.637
452.229,102.353
452.42,102.164
452.611,101.928
452.802,100.51
452.992,101.455
453.183,100.652
453.374,100.368
453.564,100.226
453.755,100.132
453.946,100.085
454.137,100.321
454.327,100.557
454.518,100.888
454.709,101.55
454.899,102.164
455.09,102.873
455.281,103.535
455.471,104.244
455.662,105
455.853,105.804
456.044,106.702
456.234,107.742
456.425,109.065
456.616,110.105
456.806,111.287
456.997,112.563
457.188,113.745
457.378,114.926
457.569,115.635
457.76,116.533
457.951,117.715
458.141,119.653
458.332,121.402
458.523,123.434
458.713,125.609
458.904,127.736
459.095,129.721
459.285,130.95
459.476,133.077
459.667,135.44
459.858,137.047
460.048,138.465
460.239,139.931
460.43,141.207
460.62,142.01
460.811,143.996
461.002,143.476
461.192,143.523
461.383,143.287
461.574,142.956
461.765,140.876
461.955,138.796
462.146,136.527
462.337,135.062
462.527,134.117
462.718,132.652
462.909,131.895
463.099,131.139
463.29,130.477
463.481,129.91
463.672,129.296
463.862,128.634
464.053,127.972
464.244,127.452
464.434,126.979
464.625,126.554
464.816,126.129
465.006,125.703
465.197,125.467
465.388,125.325
465.579,125.183
465.769,123.056
465.96,124.852
466.151,124.852
466.341,124.852
466.532,124.805
466.723,125.136
466.913,125.845
467.104,126.129
467.295,126.412
467.486,126.696
467.676,127.074
467.867,127.263
468.058,127.547
468.248,127.736
468.439,127.925
468.63,128.067
468.82,128.256
469.011,128.397
469.202,128.634
469.393,128.823
469.583,129.107
469.774,129.437
469.965,128.965
470.155,129.296
470.346,129.579
470.537,129.863
470.727,130.146
470.918,130.477
471.109,130.761
471.3,131.139
471.49,131.659
471.681,132.368
471.872,133.313
472.062,134.542
472.253,135.157
472.444,135.866
472.634,136.575
472.825,137.804
473.016,138.844
473.207,139.6
473.397,140.356
473.588,141.112
473.779,142.341
473.969,143.57
474.16,144.752
474.351,146.028
474.541,147.21
474.732,148.864
474.923,150.518
475.114,152.22
475.304,153.922
475.495,155.671
475.686,157.656
475.876,160.161
476.067,162.666
476.258,165.171
476.448,167.676
476.639,170.56
476.83,173.916
477.021,177.224
477.211,180.58
477.402,183.936
477.593,186.867
477.783,189.703
477.974,192.586
478.165,195.753
478.355,198.825
478.546,201.709
478.737,204.497
478.928,208.468
479.118,212.438
479.309,216.361
479.5,219.812
479.69,222.932
479.881,226.004
480.072,229.124
480.262,232.669
480.453,236.355
480.644,239.191
480.835,241.886
481.025,244.816
481.216,246.801
481.407,248.928
481.597,251.055
481.788,252.993
481.979,254.931
482.169,257.058
482.36,259.185
482.551,261.36
482.742,263.534
482.932,265.945
483.123,268.544
483.314,271.239
483.504,274.216
483.695,277.383
483.886,280.503
484.076,283.717
484.267,287.026
484.458,290.382
484.649,293.785
484.839,297.188
485.03,300.828
485.221,305.413
485.411,309.997
485.602,314.582
485.793,320.349
485.983,327.392
486.174,335.994
486.365,345.259
486.556,353.2
486.746,361.519
486.937,370.877
487.128,380.993
487.318,409.495
487.509,412.898
487.7,416.774
487.891,420.744
488.081,424.809
488.272,428.449
488.463,432.136
488.653,435.87
488.844,442.865
489.035,451.421
489.225,459.55
489.416,479.261
489.607,490.699
489.797,493.725
489.988,496.324
490.179,498.404
490.37,500.909
490.56,503.745
490.751,506.676
490.942,509.37
491.132,511.166
491.323,514.238
491.514,514.097
491.704,514.144
491.895,514.144
492.086,514.144
492.277,514.144
492.467,514.191
492.658,514.191
492.849,514.191
493.039,514.191
493.23,514.238
493.421,514.238
493.612,514.238
493.802,514.238
493.993,514.286
494.184,514.286
494.374,514.286
494.565,514.286
494.756,514.286
494.946,514.286
495.137,514.286
495.328,514.286
495.519,514.286
495.709,514.238
495.9,514.238
496.091,514.238
496.281,514.238
496.472,514.191
496.663,513.435
496.853,508.803
497.044,504.123
497.235,500.578
497.426,494.292
497.616,487.249
497.807,482.097
497.998,476.519
498.188,470.705
498.379,464.892
498.57,460.07
498.76,455.438
498.951,450.381
499.142,443.669
499.333,434.404
499.523,427.551
499.714,422.02
499.905,410.818
500.095,402.216
500.286,394.889
500.477,390.21
500.667,386.854
500.858,380.945
501.049,375.321
501.24,369.507
501.43,361.33
501.621,357.454
501.812,356.745
502.002,356.13
502.193,356.036
502.384,356.981
502.574,358.683
502.765,361.282
502.956,364.402
503.147,379.669
503.337,403.917
503.528,444.33
503.719,444.425
503.909,424.951
504.1,357.076
504.291,290.382
504.481,279.368
504.672,268.308
504.863,255.451
505.054,248.314
505.244,241.366
505.435,235.032
505.626,229.454
505.816,224.019
506.007,220.285
506.198,215.936
506.388,212.202
506.579,208.941
506.77,206.483
506.961,204.308
507.151,201.614
507.342,199.156
507.533,196.604
507.723,194.808
507.914,193.342
508.105,191.263
508.295,189.467
508.486,187.765
508.677,185.591
508.868,183.275
509.058,181.006
509.249,179.021
509.44,176.704
509.63,174.01
509.821,173.396
510.012,170.276
510.202,168.338
510.393,167.487
510.584,165.36
510.775,164.651
510.965,161.957
511.156,160.634
511.347,158.412
511.537,159.452
511.728,157.845
511.919,156.805
512.109,155.434
512.3,154.914
512.491,155.056
512.682,156.096
512.872,156.758
513.063,156.947
513.254,155.434
513.444,153.638
513.635,153.118
513.826,151.275
514.016,149.809
514.207,149.242
514.398,148.439
514.589,148.297
514.779,147.682
514.97,146.548
515.161,147.73
515.351,147.871
515.542,148.061
515.733,148.013
515.923,148.959
516.114,148.344
516.305,148.533
516.496,147.824
516.686,146.217
516.877,145.555
517.068,147.446
517.258,149.053
517.449,152.078
517.64,154.631
517.83,157.75
518.021,159.357
518.212,160.775
518.403,160.917
518.593,160.681
518.784,160.634
518.975,161.532
519.165,161.91
519.356,160.161
519.547,158.932
519.737,160.208
519.928,163.139
520.119,166.589
520.31,169.803
520.5,173.916
520.691,173.585
520.882,171.032
521.072,169.094
521.263,169.473
521.454,171.221
521.644,174.152
521.835,176.374
522.026,178.69
522.217,180.958
522.407,180.58
522.598,180.628
522.789,181.384
522.979,184.078
523.17,186.961
523.361,190.27
523.552,193.579
523.742,198.069
523.933,198.116
524.124,198.211
524.314,200.622
524.505,204.592
524.696,208.326
524.886,212.013
525.077,215.889
525.268,219.576
525.458,223.31
525.649,226.76
525.84,229.738
526.031,229.927
526.221,234.796
526.412,238.624
526.603,242.217
526.793,246.943
526.984,252.284
527.175,257.578
527.365,265.094
527.556,272.94
527.747,280.786
527.938,288.066
528.128,294.73
528.319,301.159
528.51,306.878
528.7,312.314
528.891,315.528
529.082,318.553
529.273,320.963
529.463,322.665
529.654,324.367
529.845,325.454
530.035,326.068
530.226,321.342
530.417,310.99
530.607,308.39
530.798,303.616
530.989,301.537
531.18,299.93
531.37,296.999
531.561,296.385
531.752,295.959
531.942,298.228
532.133,300.544
532.324,303.144
532.514,306.405
532.705,311.888
532.896,324.13
533.087,354.287
533.277,364.969
533.468,373.808
533.659,381.182
533.849,388.744
534.04,398.387
534.231,407.651
534.421,417.436
534.612,427.976
534.803,435.822
534.994,443.669
535.184,451.421
535.375,458.936
535.566,466.404
535.756,473.825
535.947,481.057
536.138,488.336
536.328,495.568
536.519,502.8
536.71,508.708
536.901,510.693
537.091,511.97
537.282,512.868
537.473,513.577
537.663,514.097
537.854,514.238
538.045,514.238
538.235,514.238
538.426,514.238
538.617,514.238
538.807,514.238
538.998,514.238
539.189,514.238
539.38,514.238
539.57,514.238
539.761,514.238
539.952,514.286
540.142,514.286
540.333,514.286
540.524,514.286
540.715,514.286
540.905,514.286
541.096,514.286
541.287,514.286
541.477,514.286
541.668,514.286
541.859,514.097
542.049,509.843
542.24,502.233
542.431,492.968
542.622,485.264
542.812,480.868
543.003,478.032
543.194,475.385
543.384,477.228
543.575,477.465
543.766,478.694
543.956,478.741
544.147,480.159
544.338,479.97
544.529,471.604
544.719,462.623
544.91,453.595
545.101,444.614
545.291,435.681
545.482,432.986
545.673,429.772
545.863,431.947
546.054,439.793
546.245,450.05
546.436,460.354
546.626,470.611
546.817,480.915
547.008,491.219
547.198,501.335
547.389,503.84
547.58,507.857
547.77,507.007
547.961,507.716
548.152,507.763
548.343,507.007
548.533,488.62
548.724,478.457
548.915,464.844
549.105,444.472
549.296,424.053
549.487,403.681
549.677,383.214
549.868,359.439
550.059,331.977
550.25,318.127
550.44,307.445
550.631,296.243
550.822,285.088
551.012,275.776
551.203,270.151
551.394,264.574
551.584,259.327
551.775,255.546
551.966,251.67
552.157,247.747
552.347,242.926
552.538,238.104
552.729,233.378
552.919,229.833
553.11,226.666
553.301,224.066
553.491,221.892
553.682,220.521
553.873,219.292
554.064,218.158
554.254,217.59
554.445,218.488
554.636,217.779
554.826,218.252
555.017,219.103
555.208,220.71
555.398,222.317
555.589,226.571
555.78,232.196
555.971,243.115
556.161,276.296
556.352,270.577
556.543,272.94
556.733,274.264
556.924,274.453
557.115,272.798
557.305,266.701
557.496,259.185
557.687,253.75
557.878,257.106
558.068,261.643
558.259,271.522
558.45,280.456
558.64,290.523
558.831,306.405
559.022,322.712
559.213,338.972
559.403,355.279
559.594,371.586
559.785,396.402
559.975,395.504
560.166,396.213
560.357,396.543
560.547,396.733
560.738,380.898
560.929,364.685
561.12,348.284
561.31,332.024
561.501,315.67
561.692,299.268
561.882,287.971
562.073,285.23
562.264,284.095
562.454,283.528
562.645,283.055
562.836,282.772
563.026,282.913
563.217,283.622
563.408,287.309
563.599,303.38
563.789,325.501
563.98,347.622
564.171,369.979
564.361,392.053
564.552,414.174
564.743,436.342
564.933,458.369
565.124,480.348
565.315,488.998
565.506,488.762
565.696,489.565
565.887,489.423
566.078,488.667
566.268,485.311
566.459,461.11
566.65,434.877
566.841,408.597
567.031,382.411
567.222,356.036
567.413,307.776
567.603,300.591
567.794,278.943
567.985,266.89
568.175,259.753
568.366,253.23
568.557,248.219
568.748,244.863
568.938,242.406
569.129,240.846
569.32,239.948
569.51,239.711
569.701,238.057
569.892,240.326
570.082,241.366
570.273,243.729
570.464,246.423
570.655,260.982
570.845,280.503
571.036,299.835
571.227,326.966
571.417,327.817
571.608,327.628
571.799,316.048
571.989,299.268
572.18,282.535
572.371,265.803
572.562,249.023
572.752,224.35
572.943,214.093
573.134,208.042
573.324,202.37
573.515,196.698
573.706,191.735
573.896,186.772
574.087,181.951
574.278,178.028
574.469,174.247
574.659,170.512
574.85,167.062
575.041,163.281
575.231,159.783
575.422,156.852
575.613,154.82
575.803,152.74
575.994,150.566
576.185,149.006
576.376,147.446
576.566,145.934
576.757,144.846
576.948,143.759
577.138,142.672
577.329,141.727
577.52,140.876
577.71,140.025
577.901,139.836
578.092,139.269
578.283,138.513
578.473,137.851
578.664,137.284
578.855,136.906
579.045,136.906
579.236,136.811
579.427,137.142
579.617,138.087
579.808,138.465
579.999,138.796
580.19,139.789
580.38,140.781
580.571,141.396
580.762,142.199
580.952,143.523
581.143,144.799
581.334,145.508
581.524,146.217
581.715,145.981
581.906,145.839
582.097,144.941
582.287,145.461
582.478,144.326
582.669,142.719
582.859,141.112
583.05,139.363
583.241,137.567
583.431,135.771
583.622,134.164
583.813,132.51
584.004,131.139
584.194,130.005
584.385,128.917
584.576,127.736
584.766,126.649
584.957,125.892
585.148,125.183
585.339,124.569
585.529,123.624
585.72,122.442
585.911,121.969
586.101,121.497
586.292,121.071
586.483,120.598
586.673,120.173
586.864,119.748
587.055,119.133
587.245,119.984
587.436,120.268
587.627,120.74
587.818,121.118
588.008,121.686
588.199,122.867
588.39,124.663
588.58,125.987
588.771,126.979
588.962,128.067
589.152,129.012
589.343,129.012
589.534,129.816
589.725,131.801
589.915,130.43
590.106,130.383
590.297,130.052
590.487,129.579
590.678,128.87
590.869,128.114
591.059,127.452
591.25,127.121
591.441,127.027
591.632,130.761
591.822,133.03
592.013,133.219
592.204,132.415
592.394,130.005
592.585,124.758
592.776,122.678
592.966,122.914
593.157,122.962
593.348,123.104
593.539,123.104
593.729,123.151
593.92,123.245
594.111,123.245
594.301,122.489
594.492,122.489
594.683,122.489
594.873,122.489
595.064,122.489
595.255,123.576
595.446,128.35
595.636,134.211
595.827,136.055
596.018,135.96
596.208,136.575
596.399,136.575
596.59,132.604
596.781,128.681
596.971,126.176
597.162,124.191
597.353,123.009
597.543,121.118
597.734,120.173
597.925,120.268
598.115,120.126
598.306,116.533
598.497,120.268
598.688,121.497
598.878,123.529
599.069,123.576
599.26,123.576
599.45,123.765
599.641,121.307
599.832,118.377
600.022,115.966
600.213,114.643
600.404,112.705
600.594,112.799
600.785,113.272
600.976,113.083
601.167,113.036
601.357,111.334
601.548,113.603
601.739,114.501
601.929,115.21
602.12,115.919
602.311,116.628
602.502,117.999
602.692,119.511
602.883,120.74
603.074,122.3
603.264,126.932
603.455,131.659
603.646,137.898
603.836,146.075
604.027,153.496
604.218,160.539
604.409,166.542
604.599,171.458
604.79,176.184
604.981,180.675
605.171,183.842
605.362,185.874
605.553,188.379
605.743,187.15
605.934,187.907
606.125,186.63
606.316,183.984
606.506,179.21
606.697,170.891
606.888,164.462
607.078,160.303
607.269,156.049
607.46,149.999
607.65,144.657
607.841,140.687
608.032,137.095
608.223,134.448
608.413,131.706
608.604,129.296
608.795,127.358
608.985,125.372
609.176,123.482
609.367,122.064
609.557,121.449
609.748,120.835
609.939,120.646
610.13,120.457
610.32,119.889
610.511,120.315
610.702,120.977
610.892,121.686
611.083,122.914
611.274,124.616
611.464,126.649
611.655,129.248
611.846,130.95
612.037,132.51
612.227,133.313
612.418,133.502
612.609,134.022
612.799,133.975
612.99,133.928
613.181,133.786
613.371,133.55
613.562,132.604
613.753,131.328
613.944,130.052
614.134,128.681
614.325,126.696
614.516,125.231
614.706,123.954
614.897,123.34
615.088,121.544
615.278,120.646
615.469,120.504
615.66,119.7
615.851,119.133
616.041,118.66
616.232,118.188
616.423,117.479
616.613,116.392
616.804,116.061
616.995,115.777
617.185,115.541
617.376,115.352
617.567,115.163
617.758,112.374
617.948,114.785
618.139,114.69
618.33,114.595
618.52,114.548
618.711,114.406
618.902,114.359
619.092,114.265
619.283,114.265
619.474,114.406
619.665,114.595
619.855,114.832
620.046,115.068
620.237,115.399
620.427,116.439
620.618,116.723
620.809,117.053
620.999,117.29
621.19,117.999
621.381,119.228
621.572,119.795
621.762,120.409
621.953,120.977
622.144,121.638
622.334,122.395
622.525,123.151
622.716,123.907
622.906,124.663
623.097,126.223
623.288,127.736
623.479,129.248
623.669,131.375
623.86,133.739
624.051,136.055
624.241,138.702
624.432,141.774
624.623,145.461
624.813,149.809
625.004,154.253
625.195,183.416
625.386,194.524
625.576,220.285
625.767,242.926
625.958,260.556
626.148,278.092
626.339,295.676
626.53,313.306
626.72,331.126
626.911,348.615
627.102,366.056
627.293,383.64
627.483,401.128
627.674,418.57
627.865,436.011
628.055,449.01
628.246,449.908
628.437,440.785
628.628,420.933
628.818,401.081
629.009,381.229
629.2,361.424
629.39,341.572
629.581,321.767
629.772,301.915
629.962,284.048
630.153,274.547
630.344,265.472
630.534,257.106
630.725,246.045
630.916,231.298
631.107,205.017
631.297,197.786
631.488,192.681
631.679,188.001
631.869,184.362
632.06,181.809
632.251,179.115
632.441,176.279
632.632,175.003
632.823,173.821
633.014,173.018
633.204,172.309
633.395,171.836
633.586,171.363
633.776,171.316
633.967,171.789
634.158,172.309
634.349,173.868
634.539,175.712
634.73,178.217
634.921,181.053
635.111,184.031
635.302,188.616
635.493,194.808
635.683,201.378
635.874,208.184
636.065,220.71
636.255,235.883
636.446,245.147
636.637,254.27
636.828,263.298
637.018,272.184
637.209,291.327
637.4,314.535
637.59,337.791
637.781,361.046
637.972,384.349
638.163,407.604
638.353,430.812
638.544,454.067
638.735,477.323
638.925,491.03
639.116,492.023
639.307,494.623
639.497,492.732
639.688,492.165
639.879,488.62
640.07,468.106
640.26,451.326
640.451,434.593
640.642,417.814
640.832,401.034
641.023,384.301
641.214,367.521
641.404,350.789
641.595,338.5
641.786,331.362
641.977,328.101
642.167,329.377
642.358,328.952
642.549,333.536
642.739,343.368
642.93,353.105
643.121,360.904
643.311,360.857
643.502,350.174
643.693,330.795
643.884,311.416
644.074,292.225
644.265,272.704
644.456,253.324
644.646,234.087
644.837,214.376
645.028,200.243
645.218,196.273
645.409,194.099
645.6,194.193
645.791,193.437
645.981,192.681
646.172,193.721
646.363,199.014
646.553,204.876
646.744,210.217
646.935,215.652
647.125,216.031
647.316,215.983
647.507,210.737
647.698,205.585
647.888,200.385
648.079,200.811
648.27,198.778
648.46,197.077
648.651,195.659
648.842,195.28
649.032,192.066
649.223,185.165
649.414,174.53
649.605,165.408
649.795,158.034
649.986,150.991
650.177,143.712
650.367,136.338
650.558,128.256
650.749,118.471
650.939,111.854
651.13,108.923
651.321,106.04
651.512,103.204
651.702,101.503
651.893,99.5646
652.084,96.9176
652.274,94.6015
652.465,93.2308
652.656,91.671
652.846,89.6385
653.037,88.1259
653.228,86.6134
653.419,85.7153
653.609,85.1954
653.8,84.5337
653.991,84.6282
654.181,83.9192
654.372,83.7774
654.563,71.4879
654.753,67.8011
654.944,66.6667
655.135,67.2812
655.326,67.7066
655.516,68.4629
655.707,69.6445
655.898,71.6298
656.088,72.6696
656.279,73.615
656.47,74.5603
656.66,74.7967
656.851,74.513
657.042,75.6947
657.233,75.8365
657.423,76.5455
657.614,76.5455
657.805,76.8764
657.995,77.4909
658.186,77.5381
658.377,77.9635
658.567,78.0581
658.758,78.0581
658.949,78.578
659.14,78.7198
659.33,79.0507
659.521,79.2397
659.712,79.0979
659.902,79.0507
660.093,79.0507
660.284,79.7124
660.474,79.996
660.665,80.0433
660.856,80.0905
661.047,80.1378
661.237,81.0832
661.428,79.4288
661.619,79.4761
661.809,79.5233
662,78.7198
662.191,78.0108
662.381,77.9635
662.572,77.4436
662.763,77.9163
662.954,78.8616
663.144,78.8616
663.335,78.6253
663.526,78.8144
663.716,79.4761
663.907,80.2796
664.098,81.1777
664.289,81.934
664.479,82.832
664.67,84.0137
664.861,85.1954
665.051,86.3771
665.242,87.606
665.433,90.253
665.623,92.38
665.814,94.4125
666.005,95.9723
666.195,100.415
666.386,105.426
666.577,112.043
666.768,118.944
666.958,127.074
667.149,137.756
667.34,150.708
667.53,159.783
667.721,169.425
667.912,183.511
668.102,200.622
668.293,322.429
668.484,328.479
668.675,337.46
668.865,351.073
669.056,358.541
669.247,374.281
669.437,392.668
669.628,412
669.819,431.001
670.01,450.144
670.2,465.932
670.391,466.404
670.582,466.357
670.772,466.357
670.963,465.932
671.154,464.703
671.344,463.426
671.535,452.177
671.726,397.063
671.917,341.95
672.107,286.789
672.298,248.976
672.489,238.482
672.679,228.32
672.87,222.081
673.061,213.053
673.251,198.778
673.442,179.919
673.633,163.848
673.823,147.871
674.014,131.753
674.205,128.397
674.396,127.547
674.586,126.649
674.777,126.365
674.968,126.79
675.158,127.358
675.349,128.397
675.54,129.579
675.731,131.139
675.921,132.226
676.112,132.935
676.303,133.266
676.493,133.55
676.684,135.251
676.875,132.793
677.065,129.012
677.256,124.427
677.447,121.024
677.638,116.959
677.828,113.603
678.019,110.105
678.21,106.418
678.4,102.826
678.591,99.4228
678.782,96.6813
678.972,93.7507
679.163,90.8202
679.354,88.5041
679.544,87.606
679.735,87.1334
679.926,87.2279
680.117,86.8025
680.307,86.6134
680.498,86.8025
680.689,86.1407
680.879,85.8571
681.07,85.0063
681.261,85.7626
681.452,85.9517
681.642,86.188
681.833,86.4243
682.024,86.6134
682.214,87.0388
682.405,87.6533
682.596,88.1732
682.786,87.9842
682.977,88.5986
683.168,89.3076
683.359,90.253
683.549,91.86
683.74,93.4671
683.931,95.1215
684.121,97.0594
684.312,99.1864
684.503,101.124
684.693,103.63
684.884,106.135
685.075,108.782
685.266,111.429
685.456,114.076
685.647,117.29
685.838,121.166
686.028,125.325
686.219,129.39
686.41,133.502
686.6,139.742
686.791,150.66
686.982,170.323
687.173,183.038
687.363,193.815
687.554,201.85
687.745,210.217
687.935,218.063
688.126,226.76
688.317,236.355
688.507,245.62
688.698,255.073
688.889,264.196
689.08,271.144
689.27,272.751
689.461,276.816
689.652,287.12
689.842,295.25
690.033,297.803
690.224,298.559
690.414,299.457
690.605,300.213
690.796,300.686
690.987,300.119
691.177,300.024
691.368,299.457
691.559,298.653
691.749,297.708
691.94,296.337
692.131,295.108
692.321,291.941
692.512,280.928
692.703,270.53
692.894,260.509
693.084,251.859
693.275,246.896
693.466,242.075
693.656,237.868
693.847,234.039
694.038,230.305
694.228,226.902
694.419,223.026
694.61,218.678
694.801,214.471
694.991,209.697
695.182,204.828
695.373,199.96
695.563,195.375
695.754,191.121
695.945,187.623
696.135,182.376
696.326,176.893
696.517,171.694
696.708,161.343
696.898,156.38
697.089,152.126
697.28,147.399
697.47,143.759
697.661,139.883
697.852,135.913
698.042,132.746
698.233,128.917
698.424,125.656
698.615,122.442
698.805,119.086
698.996,115.635
699.187,113.508
699.377,111.712
699.568,109.349
699.759,107.222
699.949,106.229
700.14,104.953
700.331,103.677
700.522,102.401
700.712,101.124
700.903,99.9427
701.094,99.3755
701.284,98.5247
701.475,97.4376
701.666,96.3032
701.857,95.4524
702.047,94.7906
702.238,94.1289
702.429,93.3726
702.619,92.7108
702.81,92.0491
703.001,91.3401
703.191,90.7256
703.382,90.3002
703.573,89.8748
703.763,89.4022
703.954,89.0713
704.145,88.8822
704.336,88.5986
704.526,88.3623
704.717,88.0787
704.908,88.1732
705.098,88.1259
705.289,87.7478
705.48,87.9842
705.67,87.9369
705.861,87.7951
706.052,87.7951
706.243,87.7478
706.433,87.7478
706.624,87.7006
706.815,88.4095
707.005,88.835
707.196,88.9767
707.387,88.4568
707.578,88.5986
707.768,88.835
707.959,89.024
708.15,89.3076
708.34,89.6858
708.531,90.1584
708.722,91.3874
708.912,91.7183
709.103,91.4347
709.294,92.38
709.484,93.8452
709.675,94.8379
709.866,95.9723
710.057,97.1067
710.247,98.2411
710.438,99.3755
710.629,100.699
710.819,102.212
711.01,104.197
711.201,106.655
711.392,109.68
711.582,113.225
711.773,118.282
711.964,126.318
712.154,130.855
712.345,135.724
712.536,144.326
712.726,152.362
712.917,165.644
713.108,172.876
713.299,179.351
713.489,183.085
713.68,186.441
713.871,189.041
714.061,188.001
714.252,184.976
714.443,179.021
714.633,169.331
714.824,161.532
715.015,156.521
715.206,152.835
715.396,149.668
715.587,146.359
715.778,143.003
715.968,139.742
716.159,136.764
716.35,134.353
716.54,131.895
716.731,129.721
716.922,128.397
717.113,127.31
717.303,126.27
717.494,125.609
717.685,124.947
717.875,124.663
718.066,124.522
718.257,123.765
718.447,124.711
718.638,124.852
718.829,125.136
719.02,125.561
719.21,126.365
719.401,127.074
719.592,128.161
719.782,129.437
719.973,130.666
720.164,132.321
720.354,134.826
720.545,137.331
720.736,140.025
720.927,142.908
721.117,145.697
721.308,149.431
721.499,153.685
721.689,157.892
721.88,161.815
722.071,165.88
722.261,169.52
722.452,172.923
722.643,175.759
722.834,177.933
723.024,179.919
723.215,180.58
723.406,181.1
723.596,181.431
723.787,182.424
723.978,181.667
724.168,181.715
724.359,181.715
724.55,175.428
724.741,170.229
724.931,166.873
725.122,163.564
725.313,160.208
725.503,156.616
725.694,152.976
725.885,148.911
726.075,145.035
726.266,142.389
726.457,139.883
726.648,138.182
726.838,136.386
727.029,135.015
727.22,134.164
727.41,132.982
727.601,134.022
727.792,134.731
727.982,135.582
728.173,137.047
728.364,138.796
728.555,141.301
728.745,143.901
728.936,147.871
729.127,156.474
729.317,162.572
729.508,168.574
729.699,175.428
729.889,181.715
730.08,184.74
730.271,187.765
730.462,190.743
730.652,193.673
730.843,196.131
731.034,198.4
731.224,198.211
731.415,198.022
731.606,197.88
731.796,197.691
731.987,197.455
732.178,197.171
732.369,196.935
732.559,196.651
732.75,196.509
732.941,196.509
733.131,196.415
733.322,196.415
733.513,196.698
733.703,197.171
733.894,197.691
734.085,198.211
734.276,199.251
734.466,200.527
734.657,201.85
734.848,203.127
735.038,205.585
735.229,208.137
735.42,210.642
735.61,213.242
735.801,215.983
735.992,218.678
736.183,221.939
736.373,226.713
736.564,232.385
736.755,239.664
736.945,246.423
737.136,252.804
737.327,261.171
737.518,270.435
737.708,286.789
737.899,298.086
738.09,307.965
738.28,317.844
738.471,327.77
738.662,337.649
738.852,347.528
739.043,357.454
739.234,367.38
739.424,377.211
739.615,387.137
739.806,397.016
739.997,406.895
740.187,416.868
740.378,426.416
740.569,430.765
740.759,434.499
740.95,437.288
741.141,438.989
741.331,441.022
741.522,443.385
741.713,445.796
741.904,447.639
742.094,449.435
742.285,451.137
742.476,452.886
742.666,454.682
742.857,456.242" />
</g>
</svg>
