<?xml version="1.0"?>
<svg version="1.1"
     xmlns="http://www.w3.org/2000/svg"
     xmlns:xlink="http://www.w3.org/1999/xlink"
     viewBox="0 0 800 600">
<g>
<text fill="#000000" font-family="sans-serif" font-size="19.0476" text-anchor="start" x="4.7619" y="591.429" >
NIST Chemistry WebBook (https://webbook.nist.gov/chemistry)
</text>
<polyline stroke="#000000" stroke-width="1.19048" fill="none" points="95.2381,514.286
742.857,514.286
742.857,66.6667
95.2381,66.6667
95.2381,514.286" />
<text fill="#000000" font-family="sans-serif" font-size="19.0476" text-anchor="middle" x="419.048" y="24.7619" >
1,3,5-TRINITROBENZENE
</text>
<text fill="#000000" font-family="sans-serif" font-size="19.0476" text-anchor="middle" x="419.048" y="53.3333" >
INFRARED SPECTRUM
</text>
<text fill="#000000" font-family="sans-serif" font-size="19.0476" text-anchor="middle" x="419.048" y="558.095" >
Wavenumber (cm-1)
</text>
<text fill="#000000" font-family="sans-serif" font-size="19.0476" text-anchor="middle" transform="translate(20,290.476) rotate(270)" x="0" y="0" >
Transmitance
</text>
<text fill="#000000" font-family="sans-serif" font-size="19.0476" text-anchor="middle" x="666.154" y="534.286" >
1000
</text>
<line stroke="#000000" stroke-width="1.19048" x1="666.154" y1="514.286" x2="666.154" y2="504.762" />
<text fill="#000000" font-family="sans-serif" font-size="19.0476" text-anchor="middle" x="475.944" y="534.286" >
2000
</text>
<line stroke="#000000" stroke-width="1.19048" x1="475.944" y1="514.286" x2="475.944" y2="504.762" />
<text fill="#000000" font-family="sans-serif" font-size="19.0476" text-anchor="middle" x="285.733" y="534.286" >
3000
</text>
<line stroke="#000000" stroke-width="1.19048" x1="285.733" y1="514.286" x2="285.733" y2="504.762" />
<text fill="#000000" font-family="sans-serif" font-size="19.0476" text-anchor="middle" x="95.5219" y="534.286" >
4000
</text>
<line stroke="#000000" stroke-width="1.19048" x1="95.5219" y1="514.286" x2="95.5219" y2="504.762" />
<line stroke="#000000" stroke-width="1.19048" x1="742.239" y1="514.286" x2="742.239" y2="509.524" />
<line stroke="#000000" stroke-width="1.19048" x1="723.218" y1="514.286" x2="723.218" y2="509.524" />
<line stroke="#000000" stroke-width="1.19048" x1="704.197" y1="514.286" x2="704.197" y2="509.524" />
<line stroke="#000000" stroke-width="1.19048" x1="685.176" y1="514.286" x2="685.176" y2="509.524" />
<line stroke="#000000" stroke-width="1.19048" x1="666.154" y1="514.286" x2="666.154" y2="509.524" />
<line stroke="#000000" stroke-width="1.19048" x1="647.133" y1="514.286" x2="647.133" y2="509.524" />
<line stroke="#000000" stroke-width="1.19048" x1="628.112" y1="514.286" x2="628.112" y2="509.524" />
<line stroke="#000000" stroke-width="1.19048" x1="609.091" y1="514.286" x2="609.091" y2="509.524" />
<line stroke="#000000" stroke-width="1.19048" x1="590.07" y1="514.286" x2="590.07" y2="509.524" />
<line stroke="#000000" stroke-width="1.19048" x1="571.049" y1="514.286" x2="571.049" y2="509.524" />
<line stroke="#000000" stroke-width="1.19048" x1="552.028" y1="514.286" x2="552.028" y2="509.524" />
<line stroke="#000000" stroke-width="1.19048" x1="533.007" y1="514.286" x2="533.007" y2="509.524" />
<line stroke="#000000" stroke-width="1.19048" x1="513.986" y1="514.286" x2="513.986" y2="509.524" />
<line stroke="#000000" stroke-width="1.19048" x1="494.965" y1="514.286" x2="494.965" y2="509.524" />
<line stroke="#000000" stroke-width="1.19048" x1="475.944" y1="514.286" x2="475.944" y2="509.524" />
<line stroke="#000000" stroke-width="1.19048" x1="456.922" y1="514.286" x2="456.922" y2="509.524" />
<line stroke="#000000" stroke-width="1.19048" x1="437.901" y1="514.286" x2="437.901" y2="509.524" />
<line stroke="#000000" stroke-width="1.19048" x1="418.88" y1="514.286" x2="418.88" y2="509.524" />
<line stroke="#000000" stroke-width="1.19048" x1="399.859" y1="514.286" x2="399.859" y2="509.524" />
<line stroke="#000000" stroke-width="1.19048" x1="380.838" y1="514.286" x2="380.838" y2="509.524" />
<line stroke="#000000" stroke-width="1.19048" x1="361.817" y1="514.286" x2="361.817" y2="509.524" />
<line stroke="#000000" stroke-width="1.19048" x1="342.796" y1="514.286" x2="342.796" y2="509.524" />
<line stroke="#000000" stroke-width="1.19048" x1="323.775" y1="514.286" x2="323.775" y2="509.524" />
<line stroke="#000000" stroke-width="1.19048" x1="304.754" y1="514.286" x2="304.754" y2="509.524" />
<line stroke="#000000" stroke-width="1.19048" x1="285.733" y1="514.286" x2="285.733" y2="509.524" />
<line stroke="#000000" stroke-width="1.19048" x1="266.712" y1="514.286" x2="266.712" y2="509.524" />
<line stroke="#000000" stroke-width="1.19048" x1="247.691" y1="514.286" x2="247.691" y2="509.524" />
<line stroke="#000000" stroke-width="1.19048" x1="228.669" y1="514.286" x2="228.669" y2="509.524" />
<line stroke="#000000" stroke-width="1.19048" x1="209.648" y1="514.286" x2="209.648" y2="509.524" />
<line stroke="#000000" stroke-width="1.19048" x1="190.627" y1="514.286" x2="190.627" y2="509.524" />
<line stroke="#000000" stroke-width="1.19048" x1="171.606" y1="514.286" x2="171.606" y2="509.524" />
<line stroke="#000000" stroke-width="1.19048" x1="152.585" y1="514.286" x2="152.585" y2="509.524" />
<line stroke="#000000" stroke-width="1.19048" x1="133.564" y1="514.286" x2="133.564" y2="509.524" />
<line stroke="#000000" stroke-width="1.19048" x1="114.543" y1="514.286" x2="114.543" y2="509.524" />
<line stroke="#000000" stroke-width="1.19048" x1="95.5219" y1="514.286" x2="95.5219" y2="509.524" />
<text fill="#000000" font-family="sans-serif" font-size="19.0476" text-anchor="end" x="90.4762" y="439.356" >
0.2
</text>
<line stroke="#000000" stroke-width="1.19048" x1="95.2381" y1="435.071" x2="104.762" y2="435.071" />
<text fill="#000000" font-family="sans-serif" font-size="19.0476" text-anchor="end" x="90.4762" y="330.843" >
0.4
</text>
<line stroke="#000000" stroke-width="1.19048" x1="95.2381" y1="326.557" x2="104.762" y2="326.557" />
<text fill="#000000" font-family="sans-serif" font-size="19.0476" text-anchor="end" x="90.4762" y="222.329" >
0.6
</text>
<line stroke="#000000" stroke-width="1.19048" x1="95.2381" y1="218.043" x2="104.762" y2="218.043" />
<text fill="#000000" font-family="sans-serif" font-size="19.0476" text-anchor="end" x="90.4762" y="113.815" >
0.8
</text>
<line stroke="#000000" stroke-width="1.19048" x1="95.2381" y1="109.53" x2="104.762" y2="109.53" />
<line stroke="#000000" stroke-width="1.19048" x1="95.2381" y1="489.328" x2="100" y2="489.328" />
<line stroke="#000000" stroke-width="1.19048" x1="95.2381" y1="462.199" x2="100" y2="462.199" />
<line stroke="#000000" stroke-width="1.19048" x1="95.2381" y1="435.071" x2="100" y2="435.071" />
<line stroke="#000000" stroke-width="1.19048" x1="95.2381" y1="407.942" x2="100" y2="407.942" />
<line stroke="#000000" stroke-width="1.19048" x1="95.2381" y1="380.814" x2="100" y2="380.814" />
<line stroke="#000000" stroke-width="1.19048" x1="95.2381" y1="353.685" x2="100" y2="353.685" />
<line stroke="#000000" stroke-width="1.19048" x1="95.2381" y1="326.557" x2="100" y2="326.557" />
<line stroke="#000000" stroke-width="1.19048" x1="95.2381" y1="299.429" x2="100" y2="299.429" />
<line stroke="#000000" stroke-width="1.19048" x1="95.2381" y1="272.3" x2="100" y2="272.3" />
<line stroke="#000000" stroke-width="1.19048" x1="95.2381" y1="245.172" x2="100" y2="245.172" />
<line stroke="#000000" stroke-width="1.19048" x1="95.2381" y1="218.043" x2="100" y2="218.043" />
<line stroke="#000000" stroke-width="1.19048" x1="95.2381" y1="190.915" x2="100" y2="190.915" />
<line stroke="#000000" stroke-width="1.19048" x1="95.2381" y1="163.786" x2="100" y2="163.786" />
<line stroke="#000000" stroke-width="1.19048" x1="95.2381" y1="136.658" x2="100" y2="136.658" />
<line stroke="#000000" stroke-width="1.19048" x1="95.2381" y1="109.53" x2="100" y2="109.53" />
<line stroke="#000000" stroke-width="1.19048" x1="95.2381" y1="82.4011" x2="100" y2="82.4011" />
<polyline stroke="#FF0000" stroke-width="1.19048" fill="none" points="742.857,66.6667
742.733,66.6667
742.61,66.6667
742.486,66.6667
742.362,66.6667
742.239,66.6667
742.115,66.6667
741.991,66.6667
741.868,66.6667
741.744,66.6667
741.62,66.6667
741.497,66.6667
741.373,66.6667
741.249,66.6667
741.126,66.6667
741.002,66.6667
740.878,66.6667
740.754,66.6667
740.631,66.6667
740.507,66.6667
740.383,66.6667
740.26,66.6667
740.136,66.6667
740.012,66.6667
739.889,66.6667
739.765,66.6667
739.641,66.6667
739.518,66.6667
739.394,66.6667
739.27,66.6667
739.147,66.6667
739.023,66.6667
738.899,66.6667
738.776,66.6667
738.652,66.6667
738.528,66.6667
738.404,66.6667
738.281,66.6667
738.157,66.6667
738.033,66.6667
737.91,66.6667
737.786,66.6667
737.662,66.6667
737.539,66.6667
737.415,67.2092
737.291,67.2092
737.168,67.2092
737.044,67.7518
736.92,67.7518
736.797,67.7518
736.673,68.2944
736.549,68.8369
736.425,69.9221
736.302,70.4647
736.178,71.5498
736.054,72.6349
735.931,74.2626
735.807,75.3478
735.683,76.4329
735.56,77.518
735.436,78.6032
735.312,79.6883
735.189,80.7735
735.065,82.4012
734.941,83.4863
734.818,83.4863
734.694,83.4863
734.57,82.4012
734.446,81.8586
734.323,81.316
734.199,80.7735
734.075,79.6883
733.952,78.6032
733.828,78.0606
733.704,76.9755
733.581,75.8904
733.457,75.3478
733.333,74.2626
733.21,73.1775
733.086,72.6349
732.962,71.5498
732.839,71.5498
732.715,71.0072
732.591,71.0072
732.468,71.0072
732.344,71.0072
732.22,71.0072
732.096,71.0072
731.973,71.0072
731.849,71.0072
731.725,71.0072
731.602,71.0072
731.478,71.5498
731.354,71.5498
731.231,71.5498
731.107,72.0923
730.983,72.6349
730.86,72.6349
730.736,73.1775
730.612,73.7201
730.489,73.7201
730.365,74.2626
730.241,74.8052
730.117,74.8052
729.994,75.3478
729.87,75.8904
729.746,75.8904
729.623,76.4329
729.499,76.9755
729.375,77.518
729.252,77.518
729.128,78.6032
729.004,78.6032
728.881,79.1458
728.757,79.6883
728.633,79.6883
728.51,80.2309
728.386,80.7735
728.262,81.316
728.138,81.8586
728.015,81.8586
727.891,82.4012
727.767,82.4012
727.644,82.4012
727.52,82.4012
727.396,83.4863
727.273,84.5714
727.149,85.114
727.025,85.6566
726.902,85.6566
726.778,86.1991
726.654,86.7417
726.531,86.7417
726.407,87.2843
726.283,87.2843
726.16,87.8268
726.036,88.3694
725.912,89.4545
725.789,89.9971
725.665,91.6248
725.541,92.71
725.417,92.71
725.294,94.3376
725.17,95.4228
725.046,95.4228
724.923,96.5079
724.799,97.593
724.675,98.1357
724.552,98.6782
724.428,99.2208
724.304,100.848
724.181,101.934
724.057,103.561
723.933,105.189
723.81,110.072
723.686,113.87
723.562,117.668
723.438,120.924
723.315,124.721
723.191,125.807
723.067,130.147
722.944,136.115
722.82,143.711
722.696,151.85
722.573,161.074
722.449,169.212
722.325,176.808
722.202,182.234
722.078,185.489
721.954,186.032
721.831,191.457
721.707,202.363
721.583,271.215
721.459,281.524
721.336,318.907
721.212,346.035
721.088,369.366
720.965,369.962
720.841,369.42
720.717,352.112
720.594,334.153
720.47,316.791
720.346,299.971
720.223,291.29
720.099,272.897
719.975,253.907
719.852,218.152
719.728,193.139
719.604,168.778
719.481,167.584
719.357,168.67
719.233,169.212
719.109,180.606
718.986,192
718.862,215.873
718.738,221.299
718.615,329.107
718.491,342.78
718.367,360.142
718.244,366.164
718.12,378.101
717.996,390.038
717.873,401.974
717.749,425.304
717.625,426.39
717.502,425.304
717.378,386.348
717.254,347.826
717.13,279.571
717.007,279.354
716.883,235.351
716.759,176.808
716.636,158.903
716.512,151.85
716.388,144.254
716.265,136.115
716.141,116.637
716.017,106.274
715.894,104.104
715.77,104.104
715.646,101.391
715.523,98.1357
715.399,95.4228
715.275,94.8802
715.151,93.7951
715.028,93.2525
714.904,91.6248
714.78,90.5397
714.657,89.4545
714.533,88.3694
714.409,87.8268
714.286,87.2843
714.162,86.7417
714.038,87.2843
713.915,87.2843
713.791,88.3694
713.667,89.4545
713.544,94.8802
713.42,100.306
713.296,104.646
713.173,104.646
713.049,104.104
712.925,101.391
712.802,97.0505
712.678,92.1674
712.554,90.5397
712.43,89.4545
712.307,87.8268
712.183,86.7417
712.059,85.6566
711.936,85.6566
711.812,85.114
711.688,84.5714
711.565,84.5714
711.441,84.5714
711.317,84.0289
711.194,83.4863
711.07,83.4863
710.946,82.9437
710.823,82.4012
710.699,82.4012
710.575,82.4012
710.451,81.8586
710.328,81.8586
710.204,81.8586
710.08,81.8586
709.957,81.8586
709.833,81.316
709.709,81.316
709.586,81.316
709.462,80.7735
709.338,80.7735
709.215,80.7735
709.091,80.7735
708.967,80.7735
708.844,80.7735
708.72,80.7735
708.596,80.7735
708.472,80.7735
708.349,80.7735
708.225,80.7735
708.101,80.7735
707.978,80.7735
707.854,80.7735
707.73,80.7735
707.607,80.2309
707.483,80.2309
707.359,80.2309
707.236,80.2309
707.112,80.2309
706.988,80.2309
706.865,80.2309
706.741,80.2309
706.617,80.2309
706.494,80.2309
706.37,80.2309
706.246,80.7735
706.122,80.7735
705.999,80.7735
705.875,80.7735
705.751,80.7735
705.628,80.7735
705.504,80.7735
705.38,81.316
705.257,81.316
705.133,81.316
705.009,81.8586
704.886,81.8586
704.762,81.8586
704.638,81.8586
704.515,81.8586
704.391,81.8586
704.267,81.8586
704.143,81.8586
704.02,81.8586
703.896,81.316
703.772,81.316
703.649,81.316
703.525,81.316
703.401,81.316
703.278,81.316
703.154,80.7735
703.03,80.7735
702.907,80.7735
702.783,80.7735
702.659,80.7735
702.536,80.7735
702.412,80.7735
702.288,81.316
702.164,81.316
702.041,81.316
701.917,81.8586
701.793,81.8586
701.67,81.8586
701.546,81.8586
701.422,81.8586
701.299,81.8586
701.175,82.4012
701.051,82.4012
700.928,82.4012
700.804,82.4012
700.68,82.9437
700.557,83.4863
700.433,83.4863
700.309,83.4863
700.186,83.4863
700.062,83.4863
699.938,83.4863
699.814,83.4863
699.691,84.0289
699.567,84.0289
699.443,84.0289
699.32,84.5714
699.196,84.5714
699.072,84.5714
698.949,84.5714
698.825,84.5714
698.701,84.5714
698.578,84.5714
698.454,84.5714
698.33,84.5714
698.207,84.5714
698.083,84.5714
697.959,84.5714
697.836,84.5714
697.712,84.5714
697.588,84.5714
697.464,84.5714
697.341,84.5714
697.217,84.5714
697.093,84.5714
696.97,84.5714
696.846,84.5714
696.722,84.5714
696.599,85.114
696.475,85.114
696.351,85.114
696.228,85.114
696.104,85.114
695.98,85.6566
695.857,85.6566
695.733,85.6566
695.609,85.6566
695.485,85.6566
695.362,85.6566
695.238,85.6566
695.114,85.6566
694.991,85.6566
694.867,85.6566
694.743,85.6566
694.62,85.6566
694.496,85.6566
694.372,85.6566
694.249,85.6566
694.125,85.6566
694.001,85.6566
693.878,85.6566
693.754,85.6566
693.63,85.6566
693.506,85.6566
693.383,85.6566
693.259,85.6566
693.135,85.6566
693.012,85.6566
692.888,85.6566
692.764,85.6566
692.641,85.6566
692.517,85.6566
692.393,85.6566
692.27,85.6566
692.146,85.6566
692.022,85.6566
691.899,85.6566
691.775,85.6566
691.651,85.6566
691.528,85.6566
691.404,85.6566
691.28,86.1991
691.156,86.1991
691.033,86.1991
690.909,86.1991
690.785,86.1991
690.662,86.7417
690.538,86.7417
690.414,86.7417
690.291,86.7417
690.167,86.7417
690.043,86.7417
689.92,87.2843
689.796,87.2843
689.672,87.2843
689.549,87.8268
689.425,87.8268
689.301,88.3694
689.177,88.3694
689.054,88.3694
688.93,88.912
688.806,88.912
688.683,89.4545
688.559,89.4545
688.435,89.4545
688.312,89.9971
688.188,89.9971
688.064,90.5397
687.941,90.5397
687.817,90.5397
687.693,91.6248
687.57,91.6248
687.446,92.1674
687.322,92.1674
687.198,92.71
687.075,92.71
686.951,93.2525
686.827,93.2525
686.704,93.2525
686.58,93.7951
686.456,94.3376
686.333,94.3376
686.209,94.3376
686.085,94.8802
685.962,95.4228
685.838,95.9654
685.714,96.5079
685.591,97.0505
685.467,98.6782
685.343,99.2208
685.22,100.306
685.096,101.391
684.972,103.019
684.849,106.817
684.725,107.902
684.601,112.785
684.477,121.466
684.354,131.775
684.23,141.541
684.106,151.85
683.983,155.105
683.859,165.957
683.735,169.212
683.612,173.01
683.488,177.351
683.364,182.234
683.241,186.574
683.117,193.085
682.993,200.139
682.87,213.703
682.746,224.012
682.622,234.32
682.498,235.405
682.375,257.596
682.251,263.619
682.127,274.47
682.004,285.322
681.88,285.322
681.756,285.322
681.633,260.418
681.509,245.714
681.385,214.842
681.262,213.703
681.138,207.192
681.014,196.883
680.891,183.319
680.767,179.521
680.643,175.18
680.519,171.925
680.396,170.84
680.272,169.212
680.148,168.67
680.025,165.957
679.901,159.446
679.777,146.967
679.654,129.605
679.53,124.721
679.406,116.583
679.283,114.413
679.159,106.817
679.035,101.934
678.912,99.2208
678.788,97.0505
678.664,96.5079
678.541,95.9654
678.417,94.8802
678.293,94.3376
678.169,93.2525
678.046,92.71
677.922,92.1674
677.798,92.1674
677.675,91.6248
677.551,91.0822
677.427,90.5397
677.304,90.5397
677.18,90.5397
677.056,90.5397
676.933,90.5397
676.809,89.9971
676.685,89.4545
676.562,89.4545
676.438,89.4545
676.314,88.912
676.19,88.912
676.067,88.912
675.943,88.912
675.819,88.912
675.696,88.912
675.572,88.912
675.448,89.4545
675.325,89.4545
675.201,89.4545
675.077,89.4545
674.954,89.4545
674.83,89.9971
674.706,89.9971
674.583,89.9971
674.459,89.9971
674.335,89.9971
674.211,89.9971
674.088,90.5397
673.964,90.5397
673.84,90.5397
673.717,90.5397
673.593,90.5397
673.469,90.5397
673.346,90.5397
673.222,90.5397
673.098,91.0822
672.975,91.0822
672.851,91.0822
672.727,91.0822
672.604,91.0822
672.48,91.0822
672.356,91.0822
672.233,91.0822
672.109,91.0822
671.985,91.6248
671.861,91.6248
671.738,91.6248
671.614,91.6248
671.49,91.6248
671.367,91.6248
671.243,91.6248
671.119,91.6248
670.996,91.6248
670.872,91.6248
670.748,91.6248
670.625,91.6248
670.501,91.6248
670.377,91.6248
670.254,91.0822
670.13,91.0822
670.006,91.0822
669.883,91.0822
669.759,91.0822
669.635,91.0822
669.511,91.0822
669.388,91.0822
669.264,91.0822
669.14,91.0822
669.017,91.0822
668.893,91.0822
668.769,90.5397
668.646,90.5397
668.522,90.5397
668.398,90.5397
668.275,90.5397
668.151,90.5397
668.027,90.5397
667.904,91.0822
667.78,91.6248
667.656,91.6248
667.532,91.6248
667.409,92.1674
667.285,92.1674
667.161,92.71
667.038,93.2525
666.914,93.2525
666.79,94.3376
666.667,95.4228
666.543,95.4228
666.419,96.5079
666.296,97.0505
666.172,97.0505
666.048,97.0505
665.925,97.0505
665.801,97.0505
665.677,96.5079
665.553,96.5079
665.43,96.5079
665.306,95.9654
665.182,95.9654
665.059,95.4228
664.935,95.4228
664.811,95.4228
664.688,95.4228
664.564,95.9654
664.44,96.5079
664.317,96.5079
664.193,96.5079
664.069,96.5079
663.946,97.0505
663.822,97.0505
663.698,97.0505
663.575,97.0505
663.451,97.0505
663.327,97.0505
663.203,97.0505
663.08,97.593
662.956,97.593
662.832,97.593
662.709,97.593
662.585,97.593
662.461,97.593
662.338,97.593
662.214,97.593
662.09,97.593
661.967,97.593
661.843,97.593
661.719,97.593
661.596,97.0505
661.472,97.0505
661.348,97.0505
661.224,97.0505
661.101,97.0505
660.977,97.0505
660.853,97.0505
660.73,97.0505
660.606,97.0505
660.482,97.0505
660.359,97.0505
660.235,97.593
660.111,97.593
659.988,98.1357
659.864,98.1357
659.74,98.1357
659.617,98.6782
659.493,99.2208
659.369,99.2208
659.245,99.2208
659.122,99.7633
658.998,100.306
658.874,100.306
658.751,100.306
658.627,100.848
658.503,100.848
658.38,101.391
658.256,101.391
658.132,101.934
658.009,101.934
657.885,103.019
657.761,103.019
657.638,104.104
657.514,104.646
657.39,105.189
657.267,106.274
657.143,106.817
657.019,107.359
656.896,107.902
656.772,107.902
656.648,110.072
656.524,111.157
656.401,112.242
656.277,112.785
656.153,113.87
656.03,115.498
655.906,116.583
655.782,119.296
655.659,122.551
655.535,126.892
655.411,132.317
655.288,133.403
655.164,138.286
655.04,145.882
654.917,146.967
654.793,147.509
654.669,151.307
654.545,157.818
654.422,162.701
654.298,165.414
654.174,169.212
654.051,173.01
653.927,176.808
653.803,180.606
653.68,195.798
653.556,202.309
653.432,208.82
653.309,215.33
653.185,221.841
653.061,228.352
652.938,234.32
652.814,240.831
652.69,247.342
652.566,253.853
652.443,260.364
652.319,266.874
652.195,272.3
652.072,272.843
651.948,272.3
651.824,262.534
651.701,252.768
651.577,243.544
651.453,233.778
651.33,224.554
651.206,214.788
651.082,206.107
650.959,205.022
650.835,199.596
650.711,194.713
650.588,191.457
650.464,187.117
650.34,187.117
650.216,186.032
650.093,182.234
649.969,180.606
649.845,174.095
649.722,169.755
649.598,167.584
649.474,167.042
649.351,161.074
649.227,154.563
649.103,149.137
648.98,143.711
648.856,142.084
648.732,138.286
648.609,132.86
648.485,127.434
648.361,122.551
648.237,119.296
648.114,118.753
647.99,117.668
647.866,116.04
647.743,114.955
647.619,113.328
647.495,111.7
647.372,110.072
647.248,108.987
647.124,108.444
647.001,105.732
646.877,103.561
646.753,103.019
646.63,102.476
646.506,101.934
646.382,101.391
646.258,101.391
646.135,100.306
646.011,100.306
645.887,99.2208
645.764,99.2208
645.64,98.1357
645.516,98.1357
645.393,98.1357
645.269,97.593
645.145,97.593
645.022,97.0505
644.898,97.0505
644.774,97.0505
644.651,96.5079
644.527,96.5079
644.403,96.5079
644.28,96.5079
644.156,95.9654
644.032,95.9654
643.908,95.4228
643.785,95.4228
643.661,95.4228
643.537,95.4228
643.414,95.4228
643.29,94.8802
643.166,94.8802
643.043,94.3376
642.919,94.3376
642.795,94.3376
642.672,94.3376
642.548,94.3376
642.424,94.3376
642.301,94.3376
642.177,94.3376
642.053,94.3376
641.93,94.3376
641.806,94.3376
641.682,94.3376
641.558,94.3376
641.435,94.3376
641.311,94.8802
641.187,94.8802
641.064,94.8802
640.94,94.8802
640.816,95.4228
640.693,95.4228
640.569,95.4228
640.445,95.4228
640.322,95.4228
640.198,95.4228
640.074,95.9654
639.951,96.5079
639.827,96.5079
639.703,96.5079
639.579,96.5079
639.456,97.0505
639.332,97.0505
639.208,97.0505
639.085,97.593
638.961,98.1357
638.837,98.1357
638.714,98.6782
638.59,98.6782
638.466,99.2208
638.343,99.2208
638.219,99.2208
638.095,99.7633
637.972,100.306
637.848,100.306
637.724,100.306
637.6,100.848
637.477,101.391
637.353,101.391
637.229,101.934
637.106,101.934
636.982,101.934
636.858,102.476
636.735,102.476
636.611,103.019
636.487,103.019
636.364,103.561
636.24,104.104
636.116,104.104
635.993,104.104
635.869,104.646
635.745,104.646
635.622,105.189
635.498,105.189
635.374,105.189
635.25,105.189
635.127,105.732
635.003,105.732
634.879,105.732
634.756,106.274
634.632,106.274
634.508,106.274
634.385,106.274
634.261,106.274
634.137,106.274
634.014,106.274
633.89,106.274
633.766,105.732
633.643,105.189
633.519,104.104
633.395,103.019
633.271,103.019
633.148,103.019
633.024,102.476
632.9,102.476
632.777,101.934
632.653,101.934
632.529,101.934
632.406,101.934
632.282,102.476
632.158,102.476
632.035,103.019
631.911,103.019
631.787,103.019
631.664,103.019
631.54,102.476
631.416,102.476
631.293,102.476
631.169,101.934
631.045,101.934
630.921,101.934
630.798,101.934
630.674,101.934
630.55,101.391
630.427,101.391
630.303,101.391
630.179,101.391
630.056,101.391
629.932,101.391
629.808,101.391
629.685,101.391
629.561,101.391
629.437,101.391
629.314,101.391
629.19,101.391
629.066,101.391
628.943,101.391
628.819,101.391
628.695,101.391
628.571,101.391
628.448,101.391
628.324,101.934
628.2,101.934
628.077,101.934
627.953,101.934
627.829,101.934
627.706,101.934
627.582,101.934
627.458,102.476
627.335,102.476
627.211,103.019
627.087,103.019
626.964,103.019
626.84,103.019
626.716,103.019
626.592,103.561
626.469,103.561
626.345,104.104
626.221,104.104
626.098,104.104
625.974,104.104
625.85,104.646
625.727,104.646
625.603,105.189
625.479,105.189
625.356,105.189
625.232,105.189
625.108,105.732
624.985,106.274
624.861,106.274
624.737,106.274
624.613,106.274
624.49,106.274
624.366,106.274
624.242,106.274
624.119,106.274
623.995,106.274
623.871,105.732
623.748,105.189
623.624,105.189
623.5,104.646
623.377,104.104
623.253,104.104
623.129,104.104
623.006,103.561
622.882,103.561
622.758,103.561
622.635,104.104
622.511,104.104
622.387,104.104
622.263,104.104
622.14,104.104
622.016,104.646
621.892,104.646
621.769,104.646
621.645,105.189
621.521,105.189
621.398,105.732
621.274,106.274
621.15,106.274
621.027,106.274
620.903,106.817
620.779,106.817
620.656,107.359
620.532,107.902
620.408,107.902
620.284,107.902
620.161,108.444
620.037,108.987
619.913,109.53
619.79,110.072
619.666,111.157
619.542,111.7
619.419,112.242
619.295,112.785
619.171,113.87
619.048,114.955
618.924,116.04
618.8,116.583
618.677,117.668
618.553,118.753
618.429,119.296
618.305,119.838
618.182,121.466
618.058,122.009
617.934,122.009
617.811,122.551
617.687,122.551
617.563,122.551
617.44,122.551
617.316,122.551
617.192,122.551
617.069,122.551
616.945,120.381
616.821,119.838
616.698,118.753
616.574,118.211
616.45,117.126
616.327,116.583
616.203,115.498
616.079,114.955
615.956,114.413
615.832,113.87
615.708,113.87
615.584,113.87
615.461,113.328
615.337,113.328
615.213,113.328
615.09,113.328
614.966,113.87
614.842,113.87
614.719,113.87
614.595,113.87
614.471,114.413
614.348,114.955
614.224,114.955
614.1,115.498
613.977,116.04
613.853,116.04
613.729,116.04
613.605,116.583
613.482,116.583
613.358,117.126
613.234,117.668
613.111,117.668
612.987,118.211
612.863,118.753
612.74,118.753
612.616,119.838
612.492,122.551
612.369,123.636
612.245,125.264
612.121,125.807
611.997,126.892
611.874,127.434
611.75,129.605
611.626,131.775
611.503,132.317
611.379,133.403
611.255,135.03
611.132,135.573
611.008,136.115
610.884,136.658
610.761,137.201
610.637,137.201
610.513,137.743
610.39,138.286
610.266,138.286
610.142,138.828
610.019,138.828
609.895,139.371
609.771,139.371
609.648,139.371
609.524,139.913
609.4,140.456
609.276,140.456
609.153,140.456
609.029,140.456
608.905,140.999
608.782,140.999
608.658,141.541
608.534,141.541
608.411,141.541
608.287,141.541
608.163,142.084
608.04,142.084
607.916,142.626
607.792,143.169
607.669,144.797
607.545,146.424
607.421,148.052
607.297,149.68
607.174,151.307
607.05,152.935
606.926,154.563
606.803,156.19
606.679,156.733
606.555,157.276
606.432,159.988
606.308,161.616
606.184,162.701
606.061,163.786
605.937,165.957
605.813,168.67
605.69,174.095
605.566,181.691
605.442,191.457
605.318,195.255
605.195,196.883
605.071,197.968
604.947,202.309
604.824,211.532
604.7,211.532
604.576,214.245
604.453,219.671
604.329,226.724
604.205,234.863
604.082,244.087
603.958,254.938
603.834,266.332
603.711,277.726
603.587,289.12
603.463,299.971
603.34,310.28
603.216,319.504
603.092,333.068
602.968,337.951
602.845,343.973
602.721,359.111
602.597,375.388
602.474,382.984
602.35,414.453
602.226,452.433
602.103,490.358
601.979,495.296
601.855,499.636
601.732,506.147
601.608,506.69
601.484,507.232
601.361,507.232
601.237,507.775
601.113,507.775
600.99,507.775
600.866,507.232
600.742,506.69
600.618,505.605
600.495,502.892
600.371,500.721
600.247,497.466
600.124,486.072
600,470.338
599.876,454.061
599.753,420.421
599.629,394.378
599.505,373.218
599.382,355.801
599.258,338.982
599.134,322.759
599.01,303.769
598.887,295.088
598.763,275.556
598.639,268.502
598.516,265.789
598.392,251.683
598.268,248.427
598.145,247.342
598.021,243.001
597.897,242.459
597.774,243.001
597.65,245.714
597.526,247.342
597.403,248.97
597.279,248.97
597.155,244.629
597.032,240.289
596.908,235.405
596.784,231.065
596.66,222.384
596.537,222.384
596.413,215.873
596.289,209.905
596.166,202.851
596.042,198.511
595.918,197.968
595.795,198.511
595.671,199.053
595.547,201.224
595.424,201.766
595.3,201.224
595.176,199.053
595.053,196.341
594.929,192
594.805,186.574
594.682,185.489
594.558,180.063
594.434,179.521
594.31,173.553
594.187,168.67
594.063,166.499
593.939,165.957
593.816,164.872
593.692,162.701
593.568,159.988
593.445,158.903
593.321,157.276
593.197,155.105
593.074,153.478
592.95,151.85
592.826,149.68
592.703,148.052
592.579,145.882
592.455,144.254
592.331,142.084
592.208,139.913
592.084,138.286
591.96,136.115
591.837,134.488
591.713,132.317
591.589,130.69
591.466,128.52
591.342,126.892
591.218,125.807
591.095,123.636
590.971,122.551
590.847,121.466
590.724,118.211
590.6,117.126
590.476,116.583
590.352,116.04
590.229,114.955
590.105,114.413
589.981,113.87
589.858,113.328
589.734,112.785
589.61,112.785
589.487,112.242
589.363,111.7
589.239,111.7
589.116,111.157
588.992,111.157
588.868,111.157
588.745,110.615
588.621,110.072
588.497,110.072
588.374,110.072
588.25,110.072
588.126,109.53
588.002,109.53
587.879,109.53
587.755,109.53
587.631,109.53
587.508,109.53
587.384,109.53
587.26,109.53
587.137,110.072
587.013,110.072
586.889,110.615
586.766,110.615
586.642,111.157
586.518,111.157
586.395,111.7
586.271,111.7
586.147,112.242
586.023,112.785
585.9,112.785
585.776,112.785
585.652,113.87
585.529,114.413
585.405,114.955
585.281,115.498
585.158,119.838
585.034,123.636
584.91,127.434
584.787,130.69
584.663,134.488
584.539,137.743
584.416,141.541
584.292,144.797
584.168,148.595
584.044,152.392
583.921,157.276
583.797,161.616
583.673,166.499
583.55,171.925
583.426,178.436
583.302,184.947
583.179,192.543
583.055,200.681
582.931,209.905
582.808,210.99
582.684,210.99
582.56,209.905
582.437,207.734
582.313,202.851
582.189,199.596
582.066,197.426
581.942,196.341
581.818,195.798
581.694,194.713
581.571,193.628
581.447,193.085
581.323,192
581.2,192.543
581.076,193.085
580.952,194.17
580.829,195.255
580.705,196.341
580.581,199.053
580.458,200.139
580.334,203.937
580.21,205.022
580.087,206.107
579.963,207.192
579.839,207.734
579.716,207.734
579.592,208.82
579.468,209.362
579.344,209.905
579.221,210.99
579.097,212.075
578.973,212.075
578.85,212.075
578.726,212.075
578.602,212.075
578.479,210.99
578.355,209.905
578.231,208.277
578.108,205.022
577.984,201.224
577.86,198.511
577.737,196.341
577.613,195.255
577.489,187.117
577.365,180.063
577.242,174.095
577.118,169.755
576.994,165.414
576.871,162.159
576.747,159.988
576.623,157.818
576.5,156.19
576.376,155.105
576.252,154.563
576.129,152.935
576.005,150.765
575.881,150.222
575.758,149.68
575.634,149.137
575.51,148.052
575.386,148.052
575.263,148.052
575.139,147.509
575.016,147.509
574.892,147.509
574.768,148.052
574.644,148.052
574.521,148.052
574.397,148.595
574.273,149.137
574.15,150.222
574.026,151.307
573.902,152.392
573.779,153.478
573.655,154.02
573.531,155.105
573.408,156.19
573.284,156.733
573.16,157.276
573.036,158.361
572.913,161.074
572.789,163.786
572.665,167.584
572.542,168.127
572.418,172.468
572.294,177.351
572.171,181.149
572.047,184.404
571.923,187.659
571.8,190.372
571.676,193.085
571.552,195.255
571.429,196.883
571.305,198.511
571.181,200.139
571.057,201.224
570.934,202.309
570.81,203.937
570.686,205.022
570.563,206.107
570.439,207.192
570.315,208.277
570.192,209.362
570.068,210.99
569.944,212.075
569.821,212.618
569.697,213.703
569.573,216.958
569.45,221.841
569.326,226.724
569.202,234.32
569.079,237.576
568.955,240.831
568.831,243.544
568.708,244.087
568.584,246.257
568.46,247.885
568.336,252.225
568.213,257.651
568.089,260.906
567.965,271.215
567.842,274.47
567.718,285.864
567.594,294.003
567.471,299.971
567.347,303.769
567.223,306.482
567.1,309.195
566.976,312.993
566.852,314.078
566.729,316.791
566.605,318.961
566.481,323.302
566.357,331.44
566.234,339.036
566.11,347.717
565.986,355.856
565.863,364.537
565.739,373.218
565.615,382.442
565.492,391.665
565.368,400.889
565.244,410.655
565.121,420.964
564.997,431.815
564.873,442.667
564.75,454.061
564.626,465.997
564.502,478.476
564.378,491.498
564.255,505.062
564.131,507.232
564.007,508.86
563.884,511.03
563.76,512.658
563.636,513.743
563.513,514.286
563.389,514.286
563.265,514.286
563.142,513.743
563.018,512.115
562.894,511.03
562.771,509.945
562.647,509.403
562.523,508.86
562.4,507.775
562.276,506.69
562.152,504.519
562.028,501.807
561.905,494.211
561.781,487.7
561.657,482.274
561.534,476.848
561.41,472.508
561.286,467.625
561.163,463.284
561.039,458.944
560.915,454.603
560.792,449.177
560.668,443.209
560.544,436.156
560.421,428.56
560.297,419.336
560.173,408.485
560.049,396.548
559.926,379.729
559.802,349.291
559.678,333.014
559.555,292.321
559.431,260.906
559.307,250.055
559.184,247.885
559.06,225.639
558.936,212.618
558.813,205.564
558.689,202.309
558.565,199.542
558.442,185.489
558.318,177.893
558.194,171.382
558.07,165.957
557.947,162.159
557.823,159.446
557.699,157.276
557.576,155.648
557.452,154.02
557.328,151.85
557.205,149.137
557.081,145.339
556.957,142.084
556.834,141.541
556.71,140.456
556.586,139.371
556.463,137.743
556.339,136.658
556.215,135.03
556.092,133.403
555.968,132.317
555.844,131.232
555.72,130.147
555.597,129.605
555.473,129.605
555.349,129.062
555.226,129.062
555.102,129.062
554.978,129.062
554.855,129.062
554.731,129.605
554.607,131.775
554.484,135.03
554.36,135.573
554.236,136.658
554.113,137.743
553.989,139.371
553.865,140.456
553.742,141.541
553.618,142.626
553.494,143.169
553.37,144.254
553.247,144.254
553.123,145.339
552.999,145.882
552.876,146.424
552.752,146.967
552.628,146.967
552.505,148.052
552.381,148.595
552.257,149.137
552.134,149.68
552.01,150.765
551.886,150.765
551.763,151.85
551.639,154.563
551.515,157.276
551.391,159.988
551.268,162.159
551.144,163.786
551.02,164.872
550.897,167.584
550.773,169.755
550.649,172.468
550.526,175.18
550.402,177.351
550.278,189.287
550.155,199.053
550.031,201.224
549.907,208.331
549.784,219.671
549.66,224.554
549.536,235.948
549.412,247.885
549.289,256.566
549.165,264.704
549.041,283.151
548.918,320.046
548.794,328.727
548.67,339.09
548.547,360.739
548.423,368.335
548.299,382.442
548.176,382.442
548.052,353.685
547.928,339.036
547.805,325.472
547.681,294.057
547.557,263.673
547.434,228.352
547.31,222.275
547.186,192.543
547.062,189.775
546.939,158.903
546.815,150.222
546.691,148.052
546.568,135.573
546.444,133.945
546.32,131.775
546.197,129.605
546.073,127.977
545.949,126.349
545.826,124.721
545.702,122.551
545.578,121.466
545.455,119.838
545.331,118.753
545.207,117.668
545.083,116.04
544.96,115.498
544.836,114.413
544.712,113.87
544.589,113.328
544.465,112.785
544.341,112.785
544.218,111.7
544.094,111.7
543.97,111.7
543.847,111.7
543.723,111.7
543.599,111.7
543.476,111.7
543.352,112.242
543.228,112.242
543.104,112.785
542.981,112.785
542.857,112.785
542.733,112.785
542.61,112.785
542.486,112.242
542.362,112.242
542.239,112.242
542.115,111.7
541.991,111.7
541.868,110.072
541.744,108.987
541.62,107.902
541.497,107.359
541.373,106.817
541.249,106.274
541.126,105.732
541.002,105.189
540.878,104.646
540.755,104.104
540.631,103.561
540.507,103.561
540.383,103.019
540.26,103.019
540.136,103.019
540.012,103.561
539.889,103.561
539.765,104.104
539.641,104.104
539.518,104.104
539.394,104.104
539.27,103.561
539.147,103.019
539.023,103.019
538.899,103.019
538.776,102.476
538.652,101.934
538.528,101.934
538.404,101.934
538.281,101.934
538.157,101.934
538.033,101.934
537.91,101.391
537.786,101.391
537.662,101.391
537.539,101.391
537.415,101.391
537.291,101.391
537.168,101.391
537.044,101.391
536.92,100.848
536.797,100.848
536.673,100.306
536.549,100.306
536.425,100.306
536.302,100.306
536.178,99.7633
536.054,99.7633
535.931,99.7633
535.807,99.2208
535.683,99.2208
535.56,99.2208
535.436,98.6782
535.312,98.6782
535.189,98.1357
535.065,98.1357
534.941,98.1357
534.818,98.1357
534.694,98.1357
534.57,98.1357
534.447,98.1357
534.323,97.593
534.199,97.593
534.075,97.593
533.952,97.0505
533.828,97.0505
533.704,97.0505
533.581,97.0505
533.457,97.0505
533.333,97.0505
533.21,97.0505
533.086,97.0505
532.962,97.0505
532.839,97.0505
532.715,97.0505
532.591,97.0505
532.468,97.0505
532.344,97.0505
532.22,97.0505
532.096,97.593
531.973,97.593
531.849,98.1357
531.725,98.1357
531.602,98.1357
531.478,98.1357
531.354,98.1357
531.231,98.1357
531.107,98.6782
530.983,98.6782
530.86,98.6782
530.736,98.6782
530.612,98.6782
530.489,98.1357
530.365,98.1357
530.241,98.1357
530.117,98.1357
529.994,98.1357
529.87,98.1357
529.746,98.1357
529.623,97.593
529.499,97.593
529.375,97.0505
529.252,97.0505
529.128,97.0505
529.004,97.0505
528.881,96.5079
528.757,96.5079
528.633,96.5079
528.51,96.5079
528.386,95.9654
528.262,95.9654
528.139,95.9654
528.015,95.4228
527.891,95.4228
527.767,95.4228
527.644,95.4228
527.52,95.4228
527.396,95.4228
527.273,95.4228
527.149,95.4228
527.025,95.4228
526.902,95.4228
526.778,95.4228
526.654,95.4228
526.531,95.4228
526.407,95.4228
526.283,95.4228
526.16,95.4228
526.036,95.4228
525.912,95.4228
525.789,95.4228
525.665,95.4228
525.541,94.8802
525.417,94.8802
525.294,94.8802
525.17,94.8802
525.046,94.8802
524.923,94.8802
524.799,94.8802
524.675,94.8802
524.552,94.8802
524.428,94.8802
524.304,94.8802
524.181,94.3376
524.057,94.3376
523.933,94.3376
523.81,94.3376
523.686,94.3376
523.562,94.3376
523.438,94.3376
523.315,94.3376
523.191,94.3376
523.067,94.3376
522.944,94.3376
522.82,94.3376
522.696,94.3376
522.573,94.3376
522.449,93.7951
522.325,93.7951
522.202,93.7951
522.078,93.7951
521.954,93.2525
521.831,93.2525
521.707,93.2525
521.583,93.2525
521.459,93.2525
521.336,93.2525
521.212,93.2525
521.088,93.2525
520.965,93.2525
520.841,93.2525
520.717,93.2525
520.594,93.2525
520.47,93.2525
520.346,93.2525
520.223,93.2525
520.099,93.2525
519.975,93.2525
519.852,93.2525
519.728,93.2525
519.604,93.2525
519.481,93.2525
519.357,93.2525
519.233,93.2525
519.109,93.2525
518.986,93.2525
518.862,93.2525
518.738,92.71
518.615,92.71
518.491,93.2525
518.367,93.2525
518.244,93.2525
518.12,93.2525
517.996,93.7951
517.873,93.7951
517.749,93.7951
517.625,93.7951
517.502,93.7951
517.378,93.7951
517.254,93.7951
517.13,93.7951
517.007,93.7951
516.883,93.7951
516.759,93.7951
516.636,93.7951
516.512,93.7951
516.388,93.7951
516.265,93.7951
516.141,93.7951
516.017,93.7951
515.894,93.7951
515.77,94.3376
515.646,94.3376
515.523,94.3376
515.399,94.3376
515.275,94.3376
515.151,94.3376
515.028,94.3376
514.904,94.3376
514.78,94.3376
514.657,94.3376
514.533,94.3376
514.409,94.3376
514.286,94.8802
514.162,94.8802
514.038,94.8802
513.915,94.8802
513.791,94.8802
513.667,95.4228
513.544,95.4228
513.42,95.4228
513.296,95.4228
513.173,95.4228
513.049,95.4228
512.925,95.4228
512.802,95.4228
512.678,95.4228
512.554,95.9654
512.43,95.9654
512.307,95.9654
512.183,96.5079
512.059,96.5079
511.936,97.0505
511.812,97.0505
511.688,97.593
511.565,98.1357
511.441,99.2208
511.317,99.2208
511.194,100.306
511.07,100.306
510.946,100.848
510.823,101.391
510.699,101.934
510.575,102.476
510.451,102.476
510.328,101.391
510.204,100.306
510.08,99.7633
509.957,99.2208
509.833,99.2208
509.709,99.2208
509.586,99.2208
509.462,99.2208
509.338,99.2208
509.215,99.2208
509.091,99.2208
508.967,99.7633
508.844,100.306
508.72,100.306
508.596,100.848
508.472,100.848
508.349,101.391
508.225,101.391
508.101,101.934
507.978,101.934
507.854,101.934
507.73,102.476
507.607,103.019
507.483,103.019
507.359,103.019
507.236,103.561
507.112,103.561
506.988,104.104
506.865,104.104
506.741,104.646
506.617,105.189
506.493,105.189
506.37,105.189
506.246,105.732
506.122,105.732
505.999,106.274
505.875,106.274
505.751,106.274
505.628,106.817
505.504,106.817
505.38,107.359
505.257,107.902
505.133,107.902
505.009,108.444
504.886,108.444
504.762,108.987
504.638,108.987
504.515,109.53
504.391,109.53
504.267,109.53
504.143,108.987
504.02,108.987
503.896,108.987
503.772,108.444
503.649,108.444
503.525,107.902
503.401,107.902
503.278,107.359
503.154,106.817
503.03,106.274
502.907,106.274
502.783,105.189
502.659,105.189
502.536,104.646
502.412,104.104
502.288,103.561
502.164,102.476
502.041,101.934
501.917,101.934
501.793,101.391
501.67,100.848
501.546,100.306
501.422,100.306
501.299,99.2208
501.175,99.2208
501.051,98.6782
500.928,98.1357
500.804,98.1357
500.68,98.1357
500.557,98.1357
500.433,97.593
500.309,97.593
500.186,97.593
500.062,97.593
499.938,97.593
499.814,97.593
499.691,97.593
499.567,97.593
499.443,97.593
499.32,97.593
499.196,97.593
499.072,97.593
498.949,97.593
498.825,97.593
498.701,97.593
498.578,97.593
498.454,98.1357
498.33,98.1357
498.207,98.1357
498.083,97.593
497.959,97.0505
497.836,97.593
497.712,97.593
497.588,97.593
497.464,97.593
497.341,97.593
497.217,97.593
497.093,97.593
496.97,97.593
496.846,97.593
496.722,97.593
496.599,97.593
496.475,97.593
496.351,97.593
496.228,97.0505
496.104,97.0505
495.98,97.0505
495.857,97.0505
495.733,97.0505
495.609,97.0505
495.485,97.0505
495.362,97.0505
495.238,97.0505
495.114,97.0505
494.991,97.0505
494.867,97.0505
494.743,97.0505
494.62,97.0505
494.496,97.0505
494.372,97.0505
494.249,97.0505
494.125,97.0505
494.001,97.0505
493.878,97.593
493.754,97.593
493.63,97.593
493.507,97.593
493.383,97.593
493.259,98.1357
493.135,98.1357
493.012,98.1357
492.888,98.1357
492.764,98.1357
492.641,98.1357
492.517,98.1357
492.393,98.1357
492.27,98.1357
492.146,98.1357
492.022,98.1357
491.899,98.1357
491.775,98.1357
491.651,98.1357
491.528,98.1357
491.404,98.1357
491.28,98.1357
491.156,98.1357
491.033,98.1357
490.909,98.1357
490.785,98.1357
490.662,98.1357
490.538,98.1357
490.414,98.1357
490.291,98.1357
490.167,98.1357
490.043,98.1357
489.92,98.1357
489.796,98.1357
489.672,98.1357
489.549,98.6782
489.425,98.6782
489.301,98.6782
489.177,98.6782
489.054,98.6782
488.93,98.6782
488.806,99.2208
488.683,99.2208
488.559,99.2208
488.435,99.2208
488.312,99.2208
488.188,99.2208
488.064,99.2208
487.941,99.2208
487.817,99.2208
487.693,99.2208
487.57,99.2208
487.446,99.2208
487.322,99.7633
487.199,99.7633
487.075,99.7633
486.951,100.306
486.827,100.306
486.704,100.306
486.58,100.306
486.456,100.306
486.333,100.848
486.209,100.848
486.085,100.848
485.962,100.848
485.838,101.391
485.714,101.391
485.591,101.391
485.467,101.391
485.343,101.391
485.22,101.391
485.096,101.391
484.972,101.391
484.849,101.391
484.725,101.391
484.601,101.391
484.477,101.391
484.354,101.391
484.23,101.391
484.106,101.391
483.983,100.848
483.859,100.848
483.735,100.848
483.612,100.306
483.488,100.306
483.364,100.306
483.241,100.306
483.117,100.306
482.993,100.306
482.87,100.306
482.746,100.306
482.622,100.306
482.498,100.306
482.375,100.306
482.251,100.306
482.127,100.306
482.004,100.306
481.88,100.306
481.756,100.306
481.633,100.306
481.509,100.306
481.385,100.306
481.262,100.306
481.138,100.306
481.014,100.306
480.891,100.306
480.767,100.306
480.643,100.306
480.519,100.306
480.396,100.306
480.272,100.306
480.148,100.306
480.025,100.306
479.901,100.306
479.777,100.306
479.654,100.306
479.53,100.306
479.406,100.306
479.283,100.306
479.159,100.306
479.035,100.306
478.912,100.306
478.788,100.306
478.664,100.306
478.541,100.306
478.417,100.306
478.293,100.306
478.169,100.306
478.046,100.306
477.922,100.306
477.798,100.306
477.675,100.306
477.551,100.306
477.427,100.306
477.304,100.306
477.18,100.306
477.056,100.306
476.933,100.848
476.809,100.848
476.685,100.848
476.562,100.848
476.438,100.848
476.314,100.848
476.19,100.848
476.067,100.848
475.943,100.848
475.819,101.011
475.696,101.12
475.572,101.283
475.448,101.391
475.325,101.391
475.201,101.391
475.077,101.391
474.954,101.391
474.83,101.391
474.706,101.391
474.583,101.391
474.459,101.391
474.335,101.391
474.212,101.391
474.088,101.391
473.964,101.391
473.84,101.391
473.717,101.391
473.593,101.391
473.469,101.391
473.346,101.391
473.222,101.391
473.098,101.391
472.975,101.391
472.851,101.391
472.727,101.391
472.604,101.391
472.48,101.391
472.356,101.391
472.233,101.391
472.109,101.391
471.985,101.391
471.861,101.391
471.738,101.391
471.614,101.391
471.49,101.391
471.367,101.391
471.243,101.391
471.119,101.391
470.996,101.391
470.872,101.391
470.748,101.391
470.625,101.391
470.501,101.391
470.377,101.391
470.254,101.391
470.13,101.391
470.006,101.391
469.883,101.391
469.759,101.391
469.635,101.391
469.511,101.391
469.388,101.391
469.264,101.391
469.14,101.391
469.017,101.391
468.893,101.391
468.769,101.391
468.646,101.391
468.522,101.391
468.398,101.391
468.275,101.391
468.151,101.391
468.027,101.391
467.904,101.391
467.78,101.391
467.656,101.391
467.532,101.391
467.409,101.391
467.285,101.391
467.161,101.391
467.038,101.391
466.914,101.391
466.79,101.391
466.667,101.391
466.543,101.391
466.419,101.391
466.296,101.391
466.172,101.391
466.048,101.391
465.925,101.391
465.801,101.391
465.677,101.391
465.553,101.391
465.43,101.391
465.306,101.391
465.182,101.391
465.059,101.391
464.935,101.391
464.811,101.391
464.688,101.391
464.564,101.391
464.44,101.391
464.317,101.391
464.193,101.391
464.069,101.391
463.946,101.391
463.822,101.391
463.698,101.391
463.575,101.391
463.451,101.391
463.327,101.391
463.203,101.391
463.08,101.391
462.956,101.391
462.832,101.391
462.709,101.391
462.585,101.391
462.461,101.391
462.338,101.391
462.214,101.391
462.09,101.391
461.967,101.391
461.843,101.391
461.719,101.391
461.596,101.391
461.472,101.391
461.348,101.391
461.224,101.391
461.101,101.391
460.977,101.391
460.853,101.391
460.73,101.391
460.606,101.391
460.482,101.391
460.359,101.391
460.235,101.391
460.111,101.391
459.988,101.391
459.864,101.391
459.74,101.554
459.617,101.662
459.493,101.825
459.369,101.934
459.246,101.934
459.122,101.934
458.998,101.934
458.874,101.934
458.751,101.934
458.627,101.934
458.503,101.934
458.38,101.934
458.256,101.934
458.132,101.934
458.009,101.934
457.885,101.934
457.761,101.934
457.638,101.934
457.514,101.934
457.39,101.934
457.267,101.934
457.143,101.934
457.019,101.934
456.896,101.934
456.772,101.934
456.648,101.934
456.524,101.934
456.401,101.934
456.277,101.934
456.153,101.934
456.03,101.934
455.906,101.934
455.782,101.934
455.659,101.934
455.535,101.934
455.411,101.934
455.288,101.934
455.164,101.934
455.04,101.934
454.917,101.934
454.793,101.934
454.669,101.934
454.545,101.934
454.422,101.934
454.298,101.934
454.174,101.934
454.051,101.934
453.927,101.934
453.803,101.934
453.68,101.934
453.556,101.934
453.432,101.934
453.309,101.934
453.185,101.934
453.061,101.934
452.938,101.934
452.814,101.934
452.69,101.934
452.566,101.934
452.443,101.934
452.319,101.934
452.195,101.934
452.072,101.934
451.948,101.934
451.824,101.934
451.701,101.934
451.577,101.934
451.453,101.934
451.33,101.934
451.206,101.934
451.082,101.934
450.959,101.934
450.835,101.934
450.711,101.934
450.588,101.934
450.464,101.934
450.34,101.934
450.216,101.934
450.093,101.934
449.969,101.934
449.845,101.934
449.722,101.934
449.598,101.934
449.474,101.934
449.351,101.934
449.227,101.934
449.103,101.934
448.98,101.934
448.856,101.934
448.732,101.934
448.609,101.934
448.485,101.934
448.361,101.934
448.237,101.934
448.114,101.934
447.99,101.934
447.866,101.934
447.743,101.934
447.619,101.934
447.495,101.934
447.372,101.934
447.248,101.934
447.124,101.934
447.001,101.934
446.877,101.934
446.753,101.934
446.63,101.934
446.506,101.934
446.382,101.934
446.259,101.934
446.135,102.042
446.011,102.205
445.887,102.313
445.764,102.476
445.64,102.476
445.516,102.476
445.393,102.476
445.269,102.476
445.145,102.476
445.022,102.476
444.898,102.476
444.774,102.476
444.651,102.476
444.527,102.476
444.403,102.476
444.28,102.476
444.156,102.639
444.032,102.747
443.908,102.91
443.785,103.019
443.661,103.019
443.537,103.019
443.414,103.019
443.29,103.019
443.166,103.019
443.043,103.019
442.919,103.019
442.795,103.019
442.672,103.019
442.548,103.019
442.424,103.019
442.301,103.019
442.177,103.019
442.053,103.019
441.93,103.019
441.806,103.073
441.682,103.236
441.558,103.344
441.435,103.507
441.311,103.616
441.187,103.778
441.064,103.887
440.94,104.05
440.816,104.104
440.693,104.104
440.569,104.104
440.445,104.104
440.322,104.212
440.198,104.321
440.074,104.484
439.951,104.592
439.827,104.646
439.703,104.646
439.579,104.646
439.456,104.646
439.332,104.646
439.208,104.646
439.085,104.646
438.961,104.646
438.837,104.755
438.714,104.863
438.59,105.026
438.466,105.189
438.343,105.189
438.219,105.189
438.095,105.189
437.972,105.189
437.848,105.189
437.724,105.189
437.6,105.189
437.477,105.189
437.353,105.189
437.229,105.189
437.106,105.189
436.982,105.189
436.858,105.352
436.735,105.46
436.611,105.623
436.487,105.732
436.364,105.732
436.24,105.732
436.116,105.732
435.993,105.732
435.869,105.894
435.745,106.003
435.622,106.166
435.498,106.274
435.374,106.274
435.25,106.274
435.127,106.274
435.003,106.274
434.879,106.274
434.756,106.274
434.632,106.274
434.508,106.328
434.385,106.437
434.261,106.6
434.137,106.708
434.014,106.817
433.89,106.817
433.766,106.817
433.643,106.817
433.519,106.817
433.395,106.817
433.272,106.817
433.148,106.817
433.024,106.817
432.9,106.817
432.777,106.817
432.653,106.817
432.529,106.871
432.406,107.034
432.282,107.197
432.158,107.305
432.035,107.359
431.911,107.359
431.787,107.359
431.664,107.359
431.54,107.359
431.416,107.359
431.293,107.359
431.169,107.359
431.045,107.359
430.921,107.359
430.798,107.359
430.674,107.359
430.55,107.359
430.427,107.359
430.303,107.359
430.179,107.359
430.056,107.468
429.932,107.631
429.808,107.739
429.685,107.902
429.561,107.902
429.437,107.902
429.314,107.902
429.19,107.902
429.066,107.902
428.943,107.902
428.819,107.902
428.695,107.902
428.571,108.065
428.448,108.173
428.324,108.336
428.2,108.444
428.077,108.444
427.953,108.444
427.829,108.444
427.706,108.499
427.582,108.607
427.458,108.77
427.335,108.879
427.211,108.987
427.087,108.987
426.964,108.987
426.84,108.987
426.716,109.041
426.592,109.15
426.469,109.313
426.345,109.475
426.221,109.584
426.098,109.747
425.974,109.855
425.85,110.018
425.727,110.072
425.603,110.072
425.479,110.072
425.356,110.072
425.232,110.072
425.108,110.072
424.985,110.072
424.861,110.072
424.737,110.181
424.613,110.289
424.49,110.452
424.366,110.56
424.242,110.615
424.119,110.615
423.995,110.615
423.871,110.615
423.748,110.723
423.624,110.832
423.5,110.995
423.377,111.103
423.253,111.157
423.129,111.157
423.006,111.157
422.882,111.157
422.758,111.157
422.635,111.157
422.511,111.157
422.387,111.157
422.263,111.266
422.14,111.429
422.016,111.537
421.892,111.7
421.769,111.7
421.645,111.7
421.521,111.7
421.398,111.7
421.274,111.863
421.15,111.971
421.027,112.134
420.903,112.242
420.779,112.242
420.656,112.242
420.532,112.242
420.408,112.242
420.284,112.242
420.161,112.242
420.037,112.242
419.913,112.297
419.79,112.405
419.666,112.568
419.542,112.676
419.419,112.785
419.295,112.785
419.171,112.785
419.048,112.785
418.924,112.785
418.8,112.785
418.677,112.785
418.553,112.785
418.429,112.785
418.306,112.785
418.182,112.785
418.058,112.785
417.934,112.731
417.811,112.568
417.687,112.459
417.563,112.297
417.44,112.188
417.316,112.025
417.192,111.863
417.069,111.754
416.945,111.7
416.821,111.7
416.698,111.7
416.574,111.7
416.45,111.591
416.327,111.483
416.203,111.32
416.079,111.212
415.955,111.157
415.832,111.157
415.708,111.157
415.584,111.157
415.461,111.049
415.337,110.886
415.213,110.777
415.09,110.615
414.966,110.615
414.842,110.615
414.719,110.615
414.595,110.615
414.471,110.506
414.348,110.343
414.224,110.235
414.1,110.072
413.977,110.072
413.853,110.072
413.729,110.072
413.605,110.072
413.482,110.072
413.358,110.072
413.234,110.072
413.111,110.072
412.987,110.072
412.863,110.072
412.74,110.072
412.616,110.072
412.492,110.072
412.369,110.072
412.245,110.072
412.121,110.072
411.998,110.072
411.874,110.072
411.75,110.072
411.626,110.072
411.503,110.072
411.379,110.072
411.255,110.072
411.132,110.072
411.008,110.072
410.884,110.072
410.761,110.072
410.637,110.072
410.513,110.072
410.39,110.072
410.266,110.072
410.142,110.072
410.019,110.072
409.895,110.072
409.771,110.072
409.647,110.072
409.524,110.072
409.4,110.072
409.276,110.072
409.153,110.072
409.029,110.072
408.905,110.072
408.782,110.072
408.658,110.072
408.534,110.072
408.411,110.072
408.287,110.072
408.163,110.072
408.04,110.072
407.916,110.072
407.792,110.072
407.669,110.181
407.545,110.343
407.421,110.452
407.297,110.615
407.174,110.615
407.05,110.615
406.926,110.615
406.803,110.615
406.679,110.615
406.555,110.615
406.432,110.615
406.308,110.615
406.184,110.615
406.061,110.615
405.937,110.615
405.813,110.615
405.69,110.615
405.566,110.615
405.442,110.615
405.319,110.615
405.195,110.615
405.071,110.615
404.947,110.615
404.824,110.615
404.7,110.615
404.576,110.615
404.453,110.615
404.329,110.615
404.205,110.615
404.082,110.615
403.958,110.615
403.834,110.615
403.711,110.615
403.587,110.615
403.463,110.615
403.34,110.615
403.216,110.615
403.092,110.615
402.968,110.615
402.845,110.615
402.721,110.615
402.597,110.615
402.474,110.615
402.35,110.615
402.226,110.615
402.103,110.615
401.979,110.615
401.855,110.669
401.732,110.832
401.608,110.995
401.484,111.103
401.361,111.157
401.237,111.157
401.113,111.157
400.99,111.157
400.866,111.157
400.742,111.157
400.618,111.157
400.495,111.157
400.371,111.157
400.247,111.157
400.124,111.157
400,111.157
399.876,111.266
399.753,111.429
399.629,111.537
399.505,111.7
399.382,111.7
399.258,111.7
399.134,111.7
399.011,111.7
398.887,111.7
398.763,111.7
398.639,111.7
398.516,111.7
398.392,111.7
398.268,111.7
398.145,111.7
398.021,111.7
397.897,111.7
397.774,111.7
397.65,111.7
397.526,111.7
397.403,111.863
397.279,111.971
397.155,112.134
397.032,112.242
396.908,112.242
396.784,112.242
396.66,112.242
396.537,112.297
396.413,112.405
396.289,112.568
396.166,112.676
396.042,112.785
395.918,112.785
395.795,112.785
395.671,112.785
395.547,112.785
395.424,112.785
395.3,112.785
395.176,112.785
395.053,112.785
394.929,112.785
394.805,112.785
394.682,112.785
394.558,112.785
394.434,112.785
394.31,112.785
394.187,112.785
394.063,112.839
393.939,113.002
393.816,113.111
393.692,113.273
393.568,113.328
393.445,113.328
393.321,113.328
393.197,113.328
393.074,113.328
392.95,113.328
392.826,113.328
392.703,113.328
392.579,113.328
392.455,113.328
392.331,113.328
392.208,113.328
392.084,113.436
391.96,113.599
391.837,113.707
391.713,113.87
391.589,113.87
391.466,113.87
391.342,113.87
391.218,113.87
391.095,113.87
390.971,113.87
390.847,113.87
390.724,113.87
390.6,113.87
390.476,113.87
390.353,113.87
390.229,113.87
390.105,114.033
389.981,114.141
389.858,114.304
389.734,114.413
389.61,114.413
389.487,114.413
389.363,114.413
389.239,114.413
389.116,114.413
388.992,114.413
388.868,114.413
388.745,114.413
388.621,114.413
388.497,114.413
388.374,114.413
388.25,114.358
388.126,114.25
388.003,114.087
387.879,113.924
387.755,113.87
387.631,113.87
387.508,113.87
387.384,113.87
387.26,113.87
387.137,113.87
387.013,113.87
386.889,113.87
386.766,113.87
386.642,113.87
386.518,113.87
386.395,113.87
386.271,113.87
386.147,113.87
386.023,113.87
385.9,113.87
385.776,113.87
385.652,113.87
385.529,113.87
385.405,113.87
385.281,113.87
385.158,113.87
385.034,113.87
384.91,113.87
384.787,113.762
384.663,113.653
384.539,113.49
384.416,113.328
384.292,113.328
384.168,113.328
384.045,113.328
383.921,113.328
383.797,113.328
383.673,113.328
383.55,113.328
383.426,113.328
383.302,113.165
383.179,113.056
383.055,112.894
382.931,112.785
382.808,112.785
382.684,112.785
382.56,112.785
382.437,112.785
382.313,112.785
382.189,112.785
382.066,112.785
381.942,112.785
381.818,112.785
381.695,112.785
381.571,112.785
381.447,112.785
381.323,112.785
381.2,112.785
381.076,112.785
380.952,112.785
380.829,112.785
380.705,112.785
380.581,112.785
380.458,112.785
380.334,112.785
380.21,112.785
380.087,112.785
379.963,112.785
379.839,112.785
379.716,112.785
379.592,112.785
379.468,112.785
379.344,112.785
379.221,112.785
379.097,112.785
378.973,112.839
378.85,113.002
378.726,113.111
378.602,113.273
378.479,113.436
378.355,113.545
378.231,113.707
378.108,113.816
377.984,113.87
377.86,113.87
377.737,113.87
377.613,113.87
377.489,113.979
377.366,114.087
377.242,114.25
377.118,114.358
376.994,114.521
376.871,114.684
376.747,114.792
376.623,114.955
376.5,115.064
376.376,115.227
376.252,115.335
376.129,115.498
376.005,115.606
375.881,115.769
375.758,115.878
375.634,116.04
375.51,116.04
375.387,116.04
375.263,116.04
375.139,116.04
375.015,116.04
374.892,116.04
374.768,116.04
374.644,116.04
374.521,116.04
374.397,116.04
374.273,116.04
374.15,116.04
374.026,116.203
373.902,116.366
373.779,116.474
373.655,116.583
373.531,116.583
373.408,116.583
373.284,116.583
373.16,116.583
373.036,116.583
372.913,116.583
372.789,116.583
372.665,116.583
372.542,116.583
372.418,116.583
372.294,116.583
372.171,116.583
372.047,116.583
371.923,116.583
371.8,116.583
371.676,116.529
371.552,116.366
371.429,116.257
371.305,116.095
371.181,116.04
371.058,116.04
370.934,116.04
370.81,116.04
370.686,116.04
370.563,116.04
370.439,116.04
370.315,116.04
370.192,116.04
370.068,116.04
369.944,116.04
369.821,116.04
369.697,115.932
369.573,115.823
369.45,115.661
369.326,115.552
369.202,115.498
369.079,115.498
368.955,115.498
368.831,115.498
368.707,115.498
368.584,115.498
368.46,115.498
368.336,115.498
368.213,115.498
368.089,115.498
367.965,115.498
367.842,115.498
367.718,115.661
367.594,115.769
367.471,115.932
367.347,116.04
367.223,116.04
367.1,116.04
366.976,116.04
366.852,116.04
366.729,116.04
366.605,116.04
366.481,116.04
366.357,116.04
366.234,116.04
366.11,116.04
365.986,116.04
365.863,116.095
365.739,116.203
365.615,116.366
365.492,116.474
365.368,116.583
365.244,116.583
365.121,116.583
364.997,116.583
364.873,116.583
364.75,116.583
364.626,116.583
364.502,116.583
364.379,116.637
364.255,116.8
364.131,116.909
364.007,117.071
363.884,117.18
363.76,117.343
363.636,117.451
363.513,117.614
363.389,117.668
363.265,117.668
363.142,117.668
363.018,117.668
362.894,117.668
362.771,117.668
362.647,117.668
362.523,117.668
362.4,117.777
362.276,117.885
362.152,118.048
362.028,118.156
361.905,118.319
361.781,118.428
361.657,118.59
361.534,118.753
361.41,118.753
361.286,118.753
361.163,118.753
361.039,118.753
360.915,118.753
360.792,118.753
360.668,118.753
360.544,118.753
360.421,118.753
360.297,118.753
360.173,118.753
360.049,118.753
359.926,118.862
359.802,119.025
359.678,119.187
359.555,119.296
359.431,119.296
359.307,119.296
359.184,119.296
359.06,119.296
358.936,119.459
358.813,119.567
358.689,119.73
358.565,119.838
358.442,119.838
358.318,119.838
358.194,119.838
358.071,119.838
357.947,119.838
357.823,119.838
357.699,119.838
357.576,119.838
357.452,119.838
357.328,119.838
357.205,119.838
357.081,119.893
356.957,120.055
356.834,120.164
356.71,120.327
356.586,120.381
356.463,120.381
356.339,120.381
356.215,120.381
356.092,120.435
355.968,120.598
355.844,120.707
355.72,120.869
355.597,120.924
355.473,120.924
355.349,120.924
355.226,120.924
355.102,120.924
354.978,120.924
354.855,120.924
354.731,120.924
354.607,120.924
354.484,120.924
354.36,120.924
354.236,120.924
354.113,120.924
353.989,120.924
353.865,120.924
353.742,120.924
353.618,121.032
353.494,121.195
353.37,121.303
353.247,121.466
353.123,121.466
352.999,121.466
352.876,121.466
352.752,121.466
352.628,121.575
352.505,121.737
352.381,121.846
352.257,122.009
352.134,122.009
352.01,122.009
351.886,122.009
351.763,122.009
351.639,122.171
351.515,122.28
351.391,122.443
351.268,122.551
351.144,122.551
351.02,122.551
350.897,122.551
350.773,122.551
350.649,122.551
350.526,122.551
350.402,122.551
350.278,122.605
350.155,122.714
350.031,122.877
349.907,122.985
349.784,123.148
349.66,123.257
349.536,123.419
349.413,123.528
349.289,123.636
349.165,123.636
349.041,123.636
348.918,123.636
348.794,123.636
348.67,123.636
348.547,123.636
348.423,123.636
348.299,123.636
348.176,123.636
348.052,123.636
347.928,123.636
347.805,123.691
347.681,123.853
347.557,124.016
347.434,124.125
347.31,124.179
347.186,124.179
347.062,124.179
346.939,124.179
346.815,124.287
346.691,124.396
346.568,124.559
346.444,124.667
346.32,124.721
346.197,124.721
346.073,124.721
345.949,124.721
345.826,124.721
345.702,124.721
345.578,124.721
345.455,124.721
345.331,124.721
345.207,124.721
345.083,124.721
344.96,124.721
344.836,124.721
344.712,124.721
344.589,124.721
344.465,124.721
344.341,124.721
344.218,124.721
344.094,124.721
343.97,124.721
343.847,124.559
343.723,124.45
343.599,124.287
343.476,124.179
343.352,124.179
343.228,124.179
343.105,124.179
342.981,124.179
342.857,124.179
342.733,124.179
342.61,124.179
342.486,124.179
342.362,124.179
342.239,124.179
342.115,124.179
341.991,124.179
341.868,124.179
341.744,124.179
341.62,124.179
341.497,124.125
341.373,123.962
341.249,123.853
341.126,123.691
341.002,123.636
340.878,123.636
340.755,123.636
340.631,123.636
340.507,123.636
340.383,123.636
340.26,123.636
340.136,123.636
340.012,123.582
339.889,123.419
339.765,123.257
339.641,123.148
339.518,123.094
339.394,123.094
339.27,123.094
339.147,123.094
339.023,122.985
338.899,122.877
338.776,122.714
338.652,122.605
338.528,122.551
338.404,122.551
338.281,122.551
338.157,122.551
338.033,122.551
337.91,122.551
337.786,122.551
337.662,122.551
337.539,122.551
337.415,122.551
337.291,122.551
337.168,122.551
337.044,122.551
336.92,122.551
336.797,122.551
336.673,122.551
336.549,122.551
336.426,122.551
336.302,122.551
336.178,122.551
336.054,122.551
335.931,122.551
335.807,122.551
335.683,122.551
335.56,122.551
335.436,122.551
335.312,122.551
335.189,122.551
335.065,122.551
334.941,122.551
334.818,122.551
334.694,122.551
334.57,122.551
334.447,122.551
334.323,122.551
334.199,122.551
334.075,122.551
333.952,122.551
333.828,122.551
333.704,122.551
333.581,122.551
333.457,122.551
333.333,122.551
333.21,122.605
333.086,122.768
332.962,122.877
332.839,123.04
332.715,123.094
332.591,123.094
332.468,123.094
332.344,123.094
332.22,123.148
332.096,123.311
331.973,123.474
331.849,123.582
331.725,123.636
331.602,123.636
331.478,123.636
331.354,123.636
331.231,123.636
331.107,123.636
330.983,123.636
330.86,123.636
330.736,123.636
330.612,123.636
330.489,123.636
330.365,123.636
330.241,123.745
330.118,123.908
329.994,124.016
329.87,124.179
329.746,124.179
329.623,124.179
329.499,124.179
329.375,124.179
329.252,124.342
329.128,124.45
329.004,124.613
328.881,124.721
328.757,124.884
328.633,124.993
328.51,125.156
328.386,125.264
328.262,125.427
328.139,125.535
328.015,125.698
327.891,125.807
327.767,125.807
327.644,125.807
327.52,125.807
327.396,125.861
327.273,126.132
327.149,126.403
327.025,126.675
326.902,126.946
326.778,127.055
326.654,127.217
326.531,127.326
326.407,127.489
326.283,127.597
326.16,127.76
326.036,127.868
325.912,128.085
325.789,128.357
325.665,128.628
325.541,128.899
325.417,129.171
325.294,129.442
325.17,129.767
325.046,130.039
324.923,130.364
324.799,130.798
324.675,131.178
324.552,131.612
324.428,131.883
324.304,131.992
324.181,132.155
324.057,132.263
323.933,132.697
323.81,133.24
323.686,133.782
323.562,134.325
323.438,134.488
323.315,134.488
323.191,134.488
323.067,134.488
322.944,134.813
322.82,135.247
322.696,135.627
322.573,136.061
322.449,136.332
322.325,136.604
322.202,136.875
322.078,137.201
321.954,137.58
321.831,138.014
321.707,138.394
321.583,138.828
321.459,139.1
321.336,139.371
321.212,139.642
321.088,139.913
320.965,140.347
320.841,140.727
320.717,141.161
320.594,141.541
320.47,141.867
320.346,142.138
320.223,142.409
320.099,142.681
319.975,143.115
319.852,143.549
319.728,143.928
319.604,144.688
319.481,146.479
319.357,148.269
319.233,150.059
319.109,151.687
318.986,152.935
318.862,154.183
318.738,155.431
318.615,156.57
318.491,157.71
318.367,158.795
318.244,159.88
318.12,161.019
317.996,162.104
317.873,163.19
317.749,164.329
317.625,166.988
317.502,171.382
317.378,175.831
317.254,180.226
317.131,184.621
317.007,189.016
316.883,193.411
316.759,197.805
316.636,204.642
316.512,213.052
316.388,221.407
316.265,229.817
316.141,238.281
316.017,246.854
315.894,255.372
315.77,263.89
315.646,268.231
315.523,270.889
315.399,273.548
315.275,276.152
315.152,278.702
315.028,281.144
314.904,283.64
314.78,286.136
314.657,289.174
314.533,292.375
314.409,295.522
314.286,298.723
314.162,298.995
314.038,299.157
313.915,299.266
313.791,299.429
313.667,299.266
313.544,299.157
313.42,298.995
313.296,298.832
313.173,298.181
313.049,297.475
312.925,296.77
312.802,296.065
312.678,295.251
312.554,294.437
312.43,293.623
312.307,292.809
312.183,292.104
312.059,291.399
311.936,290.747
311.812,290.042
311.688,289.337
311.565,288.686
311.441,287.98
311.317,287.329
311.194,286.787
311.07,286.244
310.946,285.702
310.823,285.105
310.699,284.399
310.575,283.694
310.451,282.989
310.328,282.229
310.204,281.415
310.08,280.601
309.957,279.733
309.833,278.974
309.709,278.323
309.586,277.617
309.462,276.912
309.338,276.478
309.215,276.207
309.091,275.935
308.967,275.664
308.844,275.718
308.72,275.99
308.596,276.261
308.472,276.532
308.349,276.912
308.225,277.346
308.101,277.726
307.978,278.16
307.854,278.702
307.73,279.245
307.607,279.788
307.483,280.33
307.359,281.632
307.236,283.151
307.112,284.671
306.988,286.19
306.865,287.221
306.741,288.197
306.617,289.174
306.494,290.151
306.37,291.344
306.246,292.592
306.122,293.84
305.999,295.034
305.875,297.692
305.751,300.351
305.628,302.955
305.504,305.668
305.38,308.544
305.257,311.419
305.133,314.295
305.009,317.008
304.886,318.69
304.762,320.317
304.638,321.999
304.515,323.79
304.391,326.123
304.267,328.456
304.143,330.789
304.02,333.122
303.896,335.292
303.772,337.517
303.649,339.687
303.525,341.912
303.401,344.136
303.278,346.306
303.154,348.531
303.03,350.701
302.907,352.926
302.783,355.096
302.659,357.321
302.536,359.599
302.412,361.932
302.288,364.266
302.165,366.599
302.041,368.877
301.917,371.102
301.793,373.272
301.67,375.497
301.546,377.667
301.422,379.891
301.299,382.116
301.175,384.286
301.051,386.619
300.928,388.952
300.804,391.34
300.68,393.727
300.557,394.378
300.433,394.378
300.309,394.378
300.186,394.378
300.062,392.588
299.938,390.2
299.814,387.867
299.691,385.534
299.567,383.31
299.443,381.139
299.32,378.915
299.196,376.69
299.072,374.52
298.949,372.296
298.825,370.125
298.701,367.901
298.578,365.568
298.454,363.235
298.33,360.902
298.207,358.569
298.083,356.344
297.959,354.174
297.836,351.949
297.712,349.779
297.588,347.826
297.464,345.927
297.341,343.973
297.217,342.291
297.093,342.291
296.97,342.291
296.846,342.291
296.722,342.291
296.599,342.291
296.475,342.291
296.351,342.291
296.228,342.454
296.104,343.16
295.98,343.865
295.857,344.57
295.733,345.221
295.609,345.927
295.485,346.632
295.362,347.283
295.238,348.043
295.114,348.857
294.991,349.725
294.867,350.539
294.743,351.244
294.62,351.786
294.496,352.329
294.372,352.872
294.249,353.143
294.125,353.143
294.001,353.143
293.878,353.143
293.754,351.786
293.63,349.453
293.506,347.12
293.383,344.787
293.259,342.346
293.135,339.85
293.012,337.408
292.888,334.913
292.764,332.308
292.641,329.704
292.517,327.1
292.393,324.495
292.27,320.643
292.146,316.357
292.022,312.07
291.899,307.838
291.775,302.792
291.651,297.53
291.528,292.321
291.404,287.112
291.28,282.88
291.156,278.865
291.033,274.796
290.909,270.781
290.785,266.766
290.662,262.751
290.538,258.79
290.414,254.667
290.291,246.962
290.167,239.258
290.043,231.553
289.92,224.337
289.796,221.841
289.672,219.345
289.549,216.904
289.425,214.517
289.301,212.889
289.178,211.207
289.054,209.579
288.93,208.006
288.806,206.595
288.683,205.239
288.559,203.882
288.435,202.797
288.312,202.526
288.188,202.2
288.064,201.929
287.941,201.332
287.817,199.921
287.693,198.565
287.57,197.209
287.446,196.232
287.322,195.961
287.199,195.689
287.075,195.418
286.951,194.279
286.827,192.054
286.704,189.884
286.58,187.659
286.456,185.381
286.333,182.993
286.209,180.66
286.085,178.273
285.962,177.351
285.838,177.351
285.714,177.351
285.591,177.351
285.467,176.917
285.343,176.211
285.22,175.506
285.096,174.801
284.972,174.15
284.849,173.444
284.725,172.739
284.601,172.088
284.477,171.274
284.354,170.46
284.23,169.646
284.106,168.778
283.983,168.073
283.859,167.422
283.735,166.716
283.612,166.011
283.488,165.36
283.364,164.655
283.241,163.949
283.117,163.298
282.993,162.593
282.87,161.887
282.746,161.182
282.622,160.531
282.498,160.368
282.375,160.26
282.251,160.097
282.127,159.988
282.004,159.988
281.88,159.988
281.756,159.988
281.633,159.988
281.509,159.826
281.385,159.717
281.262,159.554
281.138,159.446
281.014,159.446
280.891,159.446
280.767,159.446
280.643,159.392
280.519,159.283
280.396,159.12
280.272,159.012
280.148,158.903
280.025,158.903
279.901,158.903
279.777,158.903
279.654,158.958
279.53,159.12
279.406,159.229
279.283,159.392
279.159,159.5
279.035,159.663
278.912,159.771
278.788,159.934
278.664,160.151
278.541,160.423
278.417,160.694
278.293,160.965
278.169,161.236
278.046,161.508
277.922,161.779
277.798,162.05
277.675,162.701
277.551,163.515
277.427,164.329
277.304,165.197
277.18,166.119
277.056,167.042
276.933,168.018
276.809,168.995
276.685,170.08
276.562,171.165
276.438,172.305
276.314,173.39
276.19,174.258
276.067,175.072
275.943,175.94
275.819,176.754
275.696,177.188
275.572,177.622
275.448,178.002
275.325,178.436
275.201,179.25
275.077,180.063
274.954,180.877
274.83,181.691
274.706,182.125
274.583,182.559
274.459,182.939
274.335,183.373
274.211,183.644
274.088,183.916
273.964,184.187
273.84,184.404
273.717,184.241
273.593,184.133
273.469,183.97
273.346,183.753
273.222,183.373
273.098,182.939
272.975,182.505
272.851,182.017
272.727,181.203
272.604,180.335
272.48,179.521
272.356,178.707
272.233,177.893
272.109,177.025
271.985,176.211
271.862,175.614
271.738,175.343
271.614,175.072
271.49,174.801
271.367,174.638
271.243,174.638
271.119,174.638
270.996,174.638
270.872,174.801
270.748,175.072
270.625,175.343
270.501,175.614
270.377,180.226
270.254,187.551
270.13,194.821
270.006,202.092
269.883,209.416
269.759,216.687
269.635,224.012
269.511,231.282
269.388,236.87
269.264,241.808
269.14,246.799
269.017,251.737
268.893,256.566
268.769,261.395
268.646,266.223
268.522,271.052
268.398,275.99
268.275,280.927
268.151,285.864
268.027,290.856
267.904,295.685
267.78,300.459
267.656,305.288
267.532,310.117
267.409,314.946
267.285,319.775
267.161,324.549
267.038,329.378
266.914,334.261
266.79,339.145
266.667,344.028
266.543,348.26
266.419,348.26
266.296,348.26
266.172,348.26
266.048,347.175
265.925,341.532
265.801,335.889
265.677,330.246
265.554,324.604
265.43,318.961
265.306,313.318
265.182,307.676
265.059,302.033
264.935,296.39
264.811,290.747
264.688,285.105
264.564,279.408
264.44,273.657
264.317,267.851
264.193,262.046
264.069,255.643
263.946,248.373
263.822,241.048
263.698,233.778
263.575,226.128
263.451,218.152
263.327,210.176
263.203,202.2
263.08,195.635
262.956,190.264
262.832,184.892
262.709,179.521
262.585,175.289
262.461,171.871
262.338,168.398
262.214,164.98
262.09,162.484
261.967,160.531
261.843,158.578
261.719,156.625
261.596,155.322
261.472,154.237
261.348,153.152
261.224,152.067
261.101,151.416
260.977,150.873
260.853,150.276
260.73,149.734
260.606,149.3
260.482,148.92
260.359,148.486
260.235,148.052
260.111,147.781
259.988,147.509
259.864,147.238
259.74,146.967
259.617,146.804
259.493,146.696
259.369,146.533
259.246,146.424
259.122,146.153
258.998,145.882
258.874,145.61
258.751,145.339
258.627,145.339
258.503,145.339
258.38,145.339
258.256,145.339
258.132,145.176
258.009,145.014
257.885,144.905
257.761,144.742
257.638,144.634
257.514,144.471
257.39,144.362
257.267,144.254
257.143,144.254
257.019,144.254
256.896,144.254
256.772,144.254
256.648,144.254
256.524,144.254
256.401,144.254
256.277,144.254
256.153,144.254
256.03,144.254
255.906,144.254
255.782,144.254
255.659,144.254
255.535,144.254
255.411,144.254
255.288,144.254
255.164,144.254
255.04,144.254
254.917,144.254
254.793,144.145
254.669,144.037
254.545,143.874
254.422,143.766
254.298,143.603
254.174,143.494
254.051,143.332
253.927,143.223
253.803,143.169
253.68,143.169
253.556,143.169
253.432,143.169
253.309,143.169
253.185,143.169
253.061,143.169
252.938,143.169
252.814,143.169
252.69,143.169
252.566,143.169
252.443,143.169
252.319,143.06
252.195,142.898
252.072,142.735
251.948,142.626
251.824,142.626
251.701,142.626
251.577,142.626
251.453,142.626
251.33,142.626
251.206,142.626
251.082,142.626
250.959,142.626
250.835,142.626
250.711,142.626
250.588,142.626
250.464,142.626
250.34,142.626
250.216,142.626
250.093,142.626
249.969,142.626
249.845,142.626
249.722,142.626
249.598,142.626
249.474,142.626
249.351,142.626
249.227,142.626
249.103,142.626
248.98,142.626
248.856,142.626
248.732,142.626
248.609,142.626
248.485,142.572
248.361,142.409
248.238,142.301
248.114,142.138
247.99,142.084
247.866,142.084
247.743,142.084
247.619,142.084
247.495,142.084
247.372,142.084
247.248,142.084
247.124,142.084
247.001,142.084
246.877,142.084
246.753,142.084
246.63,142.084
246.506,142.084
246.382,142.084
246.258,142.084
246.135,142.084
246.011,141.975
245.887,141.812
245.764,141.704
245.64,141.541
245.516,141.541
245.393,141.541
245.269,141.541
245.145,141.541
245.022,141.541
244.898,141.541
244.774,141.541
244.651,141.541
244.527,141.433
244.403,141.27
244.28,141.161
244.156,140.999
244.032,140.999
243.908,140.999
243.785,140.999
243.661,140.999
243.537,140.836
243.414,140.727
243.29,140.565
243.166,140.456
243.043,140.456
242.919,140.456
242.795,140.456
242.672,140.456
242.548,140.456
242.424,140.456
242.301,140.456
242.177,140.402
242.053,140.293
241.93,140.13
241.806,140.022
241.682,139.913
241.558,139.913
241.435,139.913
241.311,139.913
241.187,139.913
241.064,139.913
240.94,139.913
240.816,139.913
240.693,139.913
240.569,139.913
240.445,139.913
240.322,139.913
240.198,139.859
240.074,139.696
239.951,139.588
239.827,139.425
239.703,139.371
239.579,139.371
239.456,139.371
239.332,139.371
239.208,139.371
239.085,139.371
238.961,139.371
238.837,139.371
238.714,139.371
238.59,139.371
238.466,139.371
238.343,139.371
238.219,139.371
238.095,139.371
237.972,139.371
237.848,139.371
237.724,139.371
237.601,139.371
237.477,139.371
237.353,139.371
237.229,139.479
237.106,139.642
236.982,139.751
236.858,139.913
236.735,139.913
236.611,139.913
236.487,139.913
236.364,139.913
236.24,139.913
236.116,139.913
235.993,139.913
235.869,139.913
235.745,140.076
235.622,140.185
235.498,140.347
235.374,140.456
235.25,140.456
235.127,140.456
235.003,140.456
234.879,140.456
234.756,140.456
234.632,140.456
234.508,140.456
234.385,140.456
234.261,140.456
234.137,140.456
234.014,140.456
233.89,140.456
233.766,140.456
233.643,140.456
233.519,140.456
233.395,140.456
233.271,140.456
233.148,140.456
233.024,140.456
232.9,140.456
232.777,140.456
232.653,140.456
232.529,140.456
232.406,140.51
232.282,140.673
232.158,140.782
232.035,140.944
231.911,140.999
231.787,140.999
231.664,140.999
231.54,140.999
231.416,140.999
231.293,140.999
231.169,140.999
231.045,140.999
230.921,140.999
230.798,140.999
230.674,140.999
230.55,140.999
230.427,141.107
230.303,141.27
230.179,141.378
230.056,141.541
229.932,141.541
229.808,141.541
229.685,141.541
229.561,141.541
229.437,141.541
229.314,141.541
229.19,141.541
229.066,141.541
228.942,141.541
228.819,141.541
228.695,141.541
228.571,141.541
228.448,141.541
228.324,141.541
228.2,141.541
228.077,141.541
227.953,141.541
227.829,141.541
227.706,141.541
227.582,141.541
227.458,141.541
227.335,141.541
227.211,141.541
227.087,141.541
226.964,141.541
226.84,141.541
226.716,141.541
226.592,141.595
226.469,141.704
226.345,141.867
226.221,141.975
226.098,142.084
225.974,142.084
225.85,142.084
225.727,142.084
225.603,142.084
225.479,142.084
225.356,142.084
225.232,142.084
225.108,142.084
224.985,142.084
224.861,142.084
224.737,142.084
224.614,142.084
224.49,142.084
224.366,142.084
224.242,142.084
224.119,142.084
223.995,142.084
223.871,142.084
223.748,142.084
223.624,142.084
223.5,142.084
223.377,142.084
223.253,142.084
223.129,142.192
223.006,142.301
222.882,142.464
222.758,142.626
222.635,142.626
222.511,142.626
222.387,142.626
222.263,142.626
222.14,142.626
222.016,142.626
221.892,142.626
221.769,142.626
221.645,142.626
221.521,142.626
221.398,142.626
221.274,142.626
221.15,142.735
221.027,142.898
220.903,143.06
220.779,143.169
220.656,143.169
220.532,143.169
220.408,143.169
220.285,143.169
220.161,143.169
220.037,143.169
219.913,143.169
219.79,143.169
219.666,143.169
219.542,143.169
219.419,143.169
219.295,143.169
219.171,143.169
219.048,143.169
218.924,143.169
218.8,143.169
218.677,143.169
218.553,143.169
218.429,143.169
218.306,143.169
218.182,143.169
218.058,143.169
217.934,143.169
217.811,143.169
217.687,143.169
217.563,143.169
217.44,143.169
217.316,143.169
217.192,143.169
217.069,143.169
216.945,143.169
216.821,143.169
216.698,143.169
216.574,143.169
216.45,143.169
216.327,143.169
216.203,143.169
216.079,143.169
215.955,143.169
215.832,143.169
215.708,143.169
215.584,143.169
215.461,143.169
215.337,143.169
215.213,143.169
215.09,143.169
214.966,143.169
214.842,143.169
214.719,143.169
214.595,143.169
214.471,143.169
214.348,143.169
214.224,143.169
214.1,143.169
213.977,143.169
213.853,143.169
213.729,143.169
213.605,143.169
213.482,143.169
213.358,143.277
213.234,143.44
213.111,143.603
212.987,143.711
212.863,143.711
212.74,143.711
212.616,143.711
212.492,143.711
212.369,143.711
212.245,143.711
212.121,143.711
211.998,143.711
211.874,143.711
211.75,143.711
211.626,143.711
211.503,143.711
211.379,143.711
211.255,143.711
211.132,143.711
211.008,143.711
210.884,143.711
210.761,143.711
210.637,143.711
210.513,143.711
210.39,143.711
210.266,143.711
210.142,143.711
210.019,143.711
209.895,143.711
209.771,143.711
209.648,143.711
209.524,143.711
209.4,143.711
209.276,143.711
209.153,143.711
209.029,143.711
208.905,143.711
208.782,143.711
208.658,143.711
208.534,143.711
208.411,143.711
208.287,143.711
208.163,143.711
208.04,143.711
207.916,143.711
207.792,143.711
207.669,143.711
207.545,143.711
207.421,143.711
207.297,143.711
207.174,143.711
207.05,143.711
206.926,143.711
206.803,143.711
206.679,143.711
206.555,143.711
206.432,143.711
206.308,143.711
206.184,143.711
206.061,143.711
205.937,143.711
205.813,143.711
205.69,143.711
205.566,143.874
205.442,143.983
205.318,144.145
205.195,144.254
205.071,144.254
204.947,144.254
204.824,144.254
204.7,144.254
204.576,144.254
204.453,144.254
204.329,144.254
204.205,144.254
204.082,144.254
203.958,144.254
203.834,144.254
203.711,144.254
203.587,144.254
203.463,144.254
203.34,144.254
203.216,144.254
203.092,144.254
202.968,144.254
202.845,144.254
202.721,144.254
202.597,144.254
202.474,144.254
202.35,144.254
202.226,144.254
202.103,144.254
201.979,144.254
201.855,144.254
201.732,144.254
201.608,144.254
201.484,144.254
201.361,144.254
201.237,144.254
201.113,144.254
200.99,144.254
200.866,144.254
200.742,144.254
200.618,144.254
200.495,144.254
200.371,144.254
200.247,144.254
200.124,144.254
200,144.254
199.876,144.254
199.753,144.362
199.629,144.471
199.505,144.634
199.382,144.742
199.258,144.797
199.134,144.797
199.011,144.797
198.887,144.797
198.763,144.797
198.639,144.797
198.516,144.797
198.392,144.797
198.268,144.797
198.145,144.797
198.021,144.797
197.897,144.797
197.774,144.797
197.65,144.797
197.526,144.797
197.403,144.797
197.279,144.797
197.155,144.797
197.032,144.797
196.908,144.797
196.784,144.797
196.661,144.797
196.537,144.797
196.413,144.797
196.289,144.797
196.166,144.797
196.042,144.797
195.918,144.797
195.795,144.797
195.671,144.797
195.547,144.797
195.424,144.797
195.3,144.797
195.176,144.797
195.053,144.797
194.929,144.797
194.805,144.797
194.682,144.797
194.558,144.797
194.434,144.797
194.31,144.797
194.187,144.797
194.063,144.797
193.939,144.742
193.816,144.579
193.692,144.471
193.568,144.308
193.445,144.254
193.321,144.254
193.197,144.254
193.074,144.254
192.95,144.254
192.826,144.254
192.703,144.254
192.579,144.254
192.455,144.254
192.331,144.254
192.208,144.254
192.084,144.254
191.96,144.254
191.837,144.254
191.713,144.254
191.589,144.254
191.466,144.254
191.342,144.254
191.218,144.254
191.095,144.254
190.971,144.254
190.847,144.254
190.724,144.254
190.6,144.254
190.476,144.254
190.353,144.254
190.229,144.254
190.105,144.254
189.981,144.254
189.858,144.254
189.734,144.254
189.61,144.254
189.487,144.254
189.363,144.254
189.239,144.254
189.116,144.254
188.992,144.254
188.868,144.254
188.745,144.254
188.621,144.254
188.497,144.254
188.374,144.254
188.25,144.254
188.126,144.254
188.002,144.254
187.879,144.254
187.755,144.254
187.631,144.254
187.508,144.254
187.384,144.254
187.26,144.254
187.137,144.2
187.013,144.037
186.889,143.928
186.766,143.766
186.642,143.711
186.518,143.711
186.395,143.711
186.271,143.711
186.147,143.711
186.024,143.711
185.9,143.711
185.776,143.711
185.652,143.711
185.529,143.711
185.405,143.711
185.281,143.711
185.158,143.711
185.034,143.711
184.91,143.711
184.787,143.711
184.663,143.711
184.539,143.711
184.416,143.711
184.292,143.711
184.168,143.711
184.045,143.711
183.921,143.711
183.797,143.711
183.673,143.603
183.55,143.44
183.426,143.332
183.302,143.169
183.179,143.169
183.055,143.169
182.931,143.169
182.808,143.169
182.684,143.169
182.56,143.169
182.437,143.169
182.313,143.169
182.189,143.169
182.066,143.169
181.942,143.169
181.818,143.169
181.695,143.169
181.571,143.169
181.447,143.169
181.323,143.169
181.2,143.169
181.076,143.169
180.952,143.169
180.829,143.169
180.705,143.169
180.581,143.169
180.458,143.169
180.334,143.169
180.21,143.169
180.087,143.169
179.963,143.169
179.839,143.169
179.716,143.169
179.592,143.169
179.468,143.169
179.344,143.169
179.221,143.169
179.097,143.169
178.973,143.169
178.85,143.169
178.726,143.169
178.602,143.169
178.479,143.169
178.355,143.169
178.231,143.169
178.108,143.169
177.984,143.169
177.86,143.169
177.737,143.169
177.613,143.169
177.489,143.169
177.365,143.169
177.242,143.169
177.118,143.169
176.994,143.169
176.871,143.169
176.747,143.169
176.623,143.169
176.5,143.169
176.376,143.169
176.252,143.169
176.129,143.169
176.005,143.169
175.881,143.169
175.758,143.169
175.634,143.169
175.51,143.169
175.387,143.169
175.263,143.169
175.139,143.169
175.015,143.169
174.892,143.169
174.768,143.169
174.644,143.169
174.521,143.169
174.397,143.169
174.273,143.169
174.15,143.169
174.026,143.169
173.902,143.169
173.779,143.169
173.655,143.169
173.531,143.169
173.408,143.169
173.284,143.169
173.16,143.169
173.037,143.169
172.913,143.169
172.789,143.169
172.665,143.169
172.542,143.169
172.418,143.169
172.294,143.169
172.171,143.169
172.047,143.223
171.923,143.332
171.8,143.494
171.676,143.657
171.552,143.657
171.429,143.494
171.305,143.386
171.181,143.223
171.058,143.169
170.934,143.169
170.81,143.169
170.686,143.169
170.563,143.169
170.439,143.169
170.315,143.169
170.192,143.169
170.068,143.169
169.944,143.169
169.821,143.169
169.697,143.169
169.573,143.169
169.45,143.169
169.326,143.169
169.202,143.169
169.079,143.169
168.955,143.169
168.831,143.169
168.708,143.169
168.584,143.169
168.46,143.169
168.336,143.169
168.213,143.169
168.089,143.169
167.965,143.169
167.842,143.169
167.718,143.169
167.594,143.169
167.471,143.169
167.347,143.169
167.223,143.169
167.1,143.169
166.976,143.169
166.852,143.169
166.729,143.169
166.605,143.169
166.481,143.169
166.357,143.169
166.234,143.169
166.11,143.169
165.986,143.169
165.863,143.169
165.739,143.169
165.615,143.169
165.492,143.169
165.368,143.169
165.244,143.169
165.121,143.169
164.997,143.169
164.873,143.169
164.75,143.169
164.626,143.169
164.502,143.169
164.378,143.169
164.255,143.169
164.131,143.169
164.007,143.169
163.884,143.169
163.76,143.169
163.636,143.169
163.513,143.169
163.389,143.169
163.265,143.169
163.142,143.169
163.018,143.169
162.894,143.169
162.771,143.169
162.647,143.169
162.523,143.169
162.4,143.169
162.276,143.169
162.152,143.169
162.028,143.169
161.905,143.169
161.781,143.277
161.657,143.386
161.534,143.549
161.41,143.657
161.286,143.711
161.163,143.711
161.039,143.711
160.915,143.711
160.792,143.711
160.668,143.711
160.544,143.711
160.421,143.711
160.297,143.711
160.173,143.711
160.049,143.711
159.926,143.711
159.802,143.711
159.678,143.711
159.555,143.711
159.431,143.711
159.307,143.874
159.184,143.983
159.06,144.145
158.936,144.254
158.813,144.254
158.689,144.254
158.565,144.254
158.442,144.254
158.318,144.254
158.194,144.254
158.071,144.254
157.947,144.254
157.823,144.254
157.699,144.254
157.576,144.254
157.452,144.254
157.328,144.254
157.205,144.254
157.081,144.254
156.957,144.254
156.834,144.254
156.71,144.254
156.586,144.254
156.463,144.254
156.339,144.254
156.215,144.254
156.092,144.254
155.968,144.254
155.844,144.254
155.721,144.254
155.597,144.254
155.473,144.254
155.349,144.254
155.226,144.254
155.102,144.254
154.978,144.254
154.855,144.254
154.731,144.254
154.607,144.254
154.484,144.362
154.36,144.471
154.236,144.634
154.113,144.742
153.989,144.797
153.865,144.797
153.741,144.797
153.618,144.797
153.494,144.797
153.37,144.797
153.247,144.797
153.123,144.797
152.999,144.905
152.876,145.068
152.752,145.176
152.628,145.339
152.505,145.339
152.381,145.339
152.257,145.339
152.134,145.339
152.01,145.339
151.886,145.339
151.763,145.339
151.639,145.339
151.515,145.339
151.391,145.339
151.268,145.339
151.144,145.339
151.02,145.502
150.897,145.61
150.773,145.773
150.649,145.882
150.526,146.044
150.402,146.153
150.278,146.316
150.155,146.424
150.031,146.424
149.907,146.424
149.784,146.424
149.66,146.424
149.536,146.424
149.413,146.424
149.289,146.424
149.165,146.424
149.041,146.424
148.918,146.424
148.794,146.424
148.67,146.479
148.547,146.641
148.423,146.75
148.299,146.913
148.176,146.967
148.052,146.967
147.928,146.967
147.805,146.967
147.681,146.967
147.557,146.967
147.434,146.967
147.31,146.967
147.186,147.021
147.062,147.184
146.939,147.347
146.815,147.455
146.691,147.509
146.568,147.509
146.444,147.509
146.32,147.509
146.197,147.618
146.073,147.726
145.949,147.889
145.826,147.998
145.702,148.052
145.578,148.052
145.455,148.052
145.331,148.052
145.207,148.16
145.084,148.323
144.96,148.432
144.836,148.595
144.712,148.595
144.589,148.595
144.465,148.595
144.341,148.595
144.218,148.595
144.094,148.595
143.97,148.595
143.847,148.595
143.723,148.595
143.599,148.595
143.476,148.595
143.352,148.595
143.228,148.595
143.105,148.595
142.981,148.595
142.857,148.595
142.733,148.757
142.61,148.866
142.486,149.029
142.362,149.137
142.239,149.137
142.115,149.137
141.991,149.137
141.868,149.137
141.744,149.137
141.62,149.137
141.497,149.137
141.373,149.137
141.249,149.137
141.126,149.137
141.002,149.137
140.878,149.137
140.754,149.137
140.631,149.137
140.507,149.137
140.383,149.137
140.26,149.137
140.136,149.137
140.012,149.137
139.889,149.137
139.765,149.137
139.641,149.137
139.518,149.137
139.394,149.137
139.27,149.137
139.147,149.137
139.023,149.137
138.899,149.137
138.776,149.137
138.652,149.137
138.528,149.137
138.404,149.137
138.281,149.137
138.157,149.137
138.033,149.137
137.91,149.137
137.786,149.137
137.662,149.137
137.539,149.137
137.415,149.137
137.291,149.137
137.168,149.137
137.044,149.137
136.92,149.246
136.797,149.408
136.673,149.517
136.549,149.68
136.425,149.68
136.302,149.68
136.178,149.68
136.054,149.68
135.931,149.68
135.807,149.68
135.683,149.68
135.56,149.68
135.436,149.842
135.312,149.951
135.189,150.114
135.065,150.222
134.941,150.222
134.818,150.222
134.694,150.222
134.57,150.222
134.447,150.222
134.323,150.222
134.199,150.222
134.075,150.222
133.952,150.222
133.828,150.222
133.704,150.222
133.581,150.222
133.457,150.222
133.333,150.222
133.21,150.222
133.086,150.222
132.962,150.222
132.839,150.222
132.715,150.222
132.591,150.276
132.468,150.439
132.344,150.548
132.22,150.711
132.097,150.765
131.973,150.765
131.849,150.765
131.725,150.765
131.602,150.765
131.478,150.765
131.354,150.765
131.231,150.765
131.107,150.873
130.983,150.982
130.86,151.145
130.736,151.253
130.612,151.307
130.489,151.307
130.365,151.307
130.241,151.307
130.117,151.307
129.994,151.307
129.87,151.307
129.746,151.307
129.623,151.416
129.499,151.579
129.375,151.687
129.252,151.85
129.128,151.85
129.004,151.85
128.881,151.85
128.757,151.85
128.633,151.85
128.51,151.85
128.386,151.85
128.262,151.85
128.139,151.85
128.015,151.85
127.891,151.85
127.768,151.85
127.644,152.013
127.52,152.121
127.396,152.284
127.273,152.392
127.149,152.555
127.025,152.664
126.902,152.827
126.778,152.935
126.654,152.935
126.531,152.935
126.407,152.935
126.283,152.935
126.16,152.935
126.036,152.935
125.912,152.935
125.789,152.935
125.665,152.935
125.541,152.935
125.417,152.935
125.294,152.989
125.17,153.152
125.046,153.261
124.923,153.423
124.799,153.478
124.675,153.478
124.552,153.478
124.428,153.478
124.304,153.478
124.181,153.478
124.057,153.478
123.933,153.478
123.81,153.586
123.686,153.695
123.562,153.857
123.438,153.966
123.315,154.02
123.191,154.02
123.067,154.02
122.944,154.02
122.82,153.912
122.696,153.803
122.573,153.64
122.449,153.532
122.325,153.478
122.202,153.478
122.078,153.478
121.954,153.478
121.831,153.369
121.707,153.206
121.583,153.098
121.46,152.935
121.336,152.935
121.212,152.935
121.088,152.935
120.965,152.935
120.841,152.827
120.717,152.664
120.594,152.501
120.47,152.392
120.346,152.392
120.223,152.392
120.099,152.392
119.975,152.392
119.852,152.23
119.728,152.121
119.604,151.958
119.481,151.85
119.357,151.85
119.233,151.85
119.109,151.85
118.986,151.85
118.862,151.85
118.738,151.85
118.615,151.85
118.491,151.85
118.367,151.85
118.244,151.85
118.12,151.85
117.996,151.85
117.873,151.85
117.749,151.85
117.625,151.85
117.502,151.85
117.378,151.85
117.254,151.85
117.131,151.85
117.007,151.85
116.883,151.85
116.759,151.85
116.636,151.85
116.512,151.85
116.388,151.85
116.265,151.85
116.141,151.85
116.017,151.85
115.894,151.85
115.77,151.85
115.646,151.85
115.523,151.958
115.399,152.067
115.275,152.23
115.152,152.338
115.028,152.392
114.904,152.392
114.781,152.392
114.657,152.392
114.533,152.501
114.409,152.664
114.286,152.772
114.162,152.935
114.038,152.935
113.915,152.935
113.791,152.935
113.667,152.935
113.544,152.935
113.42,152.935
113.296,152.935
113.173,152.935
113.049,152.935
112.925,152.935
112.801,152.935
112.678,152.935
112.554,152.935
112.43,152.935
112.307,152.935
112.183,152.935
112.059,152.935
111.936,152.935
111.812,152.935
111.688,152.935
111.565,153.098
111.441,153.206
111.317,153.369
111.194,153.478
111.07,153.478
110.946,153.478
110.823,153.478
110.699,153.532
110.575,153.64
110.451,153.803
110.328,153.912
110.204,154.02
110.08,154.02
109.957,154.02
109.833,154.02
109.709,154.02
109.586,154.02
109.462,154.02
109.338,154.02
109.215,154.02
109.091,154.02
108.967,154.02
108.844,154.02
108.72,154.02
108.596,154.02
108.473,154.02
108.349,154.02
108.225,154.02
108.101,154.02
107.978,154.02
107.854,154.02
107.73,154.02
107.607,154.02
107.483,154.02
107.359,154.02
107.236,154.02
107.112,154.02
106.988,154.02
106.865,154.02
106.741,154.02
106.617,154.02
106.494,154.02
106.37,154.02
106.246,154.02
106.122,154.02
105.999,154.02
105.875,154.02
105.751,154.129
105.628,154.292
105.504,154.4
105.38,154.563
105.257,154.563
105.133,154.563
105.009,154.563
104.886,154.563
104.762,154.563
104.638,154.563
104.515,154.563
104.391,154.563
104.267,154.563
104.144,154.563
104.02,154.563
103.896,154.563
103.772,154.563
103.649,154.563
103.525,154.563
103.401,154.563
103.278,154.563
103.154,154.563
103.03,154.563
102.907,154.617
102.783,154.726
102.659,154.888
102.536,154.997
102.412,155.105
102.288,155.105
102.165,155.105
102.041,155.105
101.917,155.105
101.793,155.105
101.67,155.105
101.546,155.105
101.422,155.105
101.299,155.105
101.175,155.105
101.051,155.105
100.928,155.105
100.804,155.105
100.68,155.105
100.557,155.105
100.433,155.105
100.309,155.105
100.186,155.105
100.062,155.105
99.9382,155.105
99.8145,155.105
99.6908,155.105
99.5671,155.105
99.4435,155.105
99.3197,155.105
99.1961,155.105
99.0724,155.105
98.9487,155.214
98.825,155.377
98.7013,155.485
98.5777,155.648
98.4539,155.648
98.3303,155.648
98.2066,155.648
98.0829,155.648
97.9592,155.756
97.8355,155.919
97.7118,156.028
97.5882,156.19
97.4644,156.19
97.3408,156.19
97.2171,156.19
97.0934,156.19
96.9697,156.19
96.846,156.19
96.7224,156.19
96.5986,156.19
96.475,156.19
96.3513,156.19
96.2276,156.19
96.1039,156.245
95.9802,156.353
95.8566,156.516
95.7328,156.625
95.6092,156.733
95.4855,156.733
95.3618,156.733
95.2381,156.733" />
</g>
</svg>
