<?xml version="1.0"?>
<svg version="1.1"
     xmlns="http://www.w3.org/2000/svg"
     xmlns:xlink="http://www.w3.org/1999/xlink"
     viewBox="0 0 800 600">
<g>
<text fill="#000000" font-family="sans-serif" font-size="19.0476" text-anchor="start" x="4.7619" y="591.429" >
NIST Chemistry WebBook (https://webbook.nist.gov/chemistry)
</text>
<polyline stroke="#000000" stroke-width="1.19048" fill="none" points="95.2381,514.286
742.857,514.286
742.857,66.6667
95.2381,66.6667
95.2381,514.286" />
<text fill="#000000" font-family="sans-serif" font-size="19.0476" text-anchor="middle" x="419.048" y="24.7619" >
1,3-cyclopentanedicarboxylic acid
</text>
<text fill="#000000" font-family="sans-serif" font-size="19.0476" text-anchor="middle" x="419.048" y="53.3333" >
INFRARED SPECTRUM
</text>
<text fill="#000000" font-family="sans-serif" font-size="19.0476" text-anchor="middle" x="419.048" y="558.095" >
Wavenumber (cm-1)
</text>
<text fill="#000000" font-family="sans-serif" font-size="19.0476" text-anchor="middle" transform="translate(20,290.476) rotate(270)" x="0" y="0" >
Transmitance
</text>
<text fill="#000000" font-family="sans-serif" font-size="19.0476" text-anchor="middle" x="666.452" y="534.286" >
1000
</text>
<line stroke="#000000" stroke-width="1.19048" x1="666.452" y1="514.286" x2="666.452" y2="504.762" />
<text fill="#000000" font-family="sans-serif" font-size="19.0476" text-anchor="middle" x="476.68" y="534.286" >
2000
</text>
<line stroke="#000000" stroke-width="1.19048" x1="476.68" y1="514.286" x2="476.68" y2="504.762" />
<text fill="#000000" font-family="sans-serif" font-size="19.0476" text-anchor="middle" x="286.907" y="534.286" >
3000
</text>
<line stroke="#000000" stroke-width="1.19048" x1="286.907" y1="514.286" x2="286.907" y2="504.762" />
<text fill="#000000" font-family="sans-serif" font-size="19.0476" text-anchor="middle" x="97.1352" y="534.286" >
4000
</text>
<line stroke="#000000" stroke-width="1.19048" x1="97.1352" y1="514.286" x2="97.1352" y2="504.762" />
<line stroke="#000000" stroke-width="1.19048" x1="742.361" y1="514.286" x2="742.361" y2="509.524" />
<line stroke="#000000" stroke-width="1.19048" x1="723.383" y1="514.286" x2="723.383" y2="509.524" />
<line stroke="#000000" stroke-width="1.19048" x1="704.406" y1="514.286" x2="704.406" y2="509.524" />
<line stroke="#000000" stroke-width="1.19048" x1="685.429" y1="514.286" x2="685.429" y2="509.524" />
<line stroke="#000000" stroke-width="1.19048" x1="666.452" y1="514.286" x2="666.452" y2="509.524" />
<line stroke="#000000" stroke-width="1.19048" x1="647.475" y1="514.286" x2="647.475" y2="509.524" />
<line stroke="#000000" stroke-width="1.19048" x1="628.497" y1="514.286" x2="628.497" y2="509.524" />
<line stroke="#000000" stroke-width="1.19048" x1="609.52" y1="514.286" x2="609.52" y2="509.524" />
<line stroke="#000000" stroke-width="1.19048" x1="590.543" y1="514.286" x2="590.543" y2="509.524" />
<line stroke="#000000" stroke-width="1.19048" x1="571.566" y1="514.286" x2="571.566" y2="509.524" />
<line stroke="#000000" stroke-width="1.19048" x1="552.589" y1="514.286" x2="552.589" y2="509.524" />
<line stroke="#000000" stroke-width="1.19048" x1="533.611" y1="514.286" x2="533.611" y2="509.524" />
<line stroke="#000000" stroke-width="1.19048" x1="514.634" y1="514.286" x2="514.634" y2="509.524" />
<line stroke="#000000" stroke-width="1.19048" x1="495.657" y1="514.286" x2="495.657" y2="509.524" />
<line stroke="#000000" stroke-width="1.19048" x1="476.68" y1="514.286" x2="476.68" y2="509.524" />
<line stroke="#000000" stroke-width="1.19048" x1="457.702" y1="514.286" x2="457.702" y2="509.524" />
<line stroke="#000000" stroke-width="1.19048" x1="438.725" y1="514.286" x2="438.725" y2="509.524" />
<line stroke="#000000" stroke-width="1.19048" x1="419.748" y1="514.286" x2="419.748" y2="509.524" />
<line stroke="#000000" stroke-width="1.19048" x1="400.771" y1="514.286" x2="400.771" y2="509.524" />
<line stroke="#000000" stroke-width="1.19048" x1="381.793" y1="514.286" x2="381.793" y2="509.524" />
<line stroke="#000000" stroke-width="1.19048" x1="362.816" y1="514.286" x2="362.816" y2="509.524" />
<line stroke="#000000" stroke-width="1.19048" x1="343.839" y1="514.286" x2="343.839" y2="509.524" />
<line stroke="#000000" stroke-width="1.19048" x1="324.862" y1="514.286" x2="324.862" y2="509.524" />
<line stroke="#000000" stroke-width="1.19048" x1="305.885" y1="514.286" x2="305.885" y2="509.524" />
<line stroke="#000000" stroke-width="1.19048" x1="286.907" y1="514.286" x2="286.907" y2="509.524" />
<line stroke="#000000" stroke-width="1.19048" x1="267.93" y1="514.286" x2="267.93" y2="509.524" />
<line stroke="#000000" stroke-width="1.19048" x1="248.953" y1="514.286" x2="248.953" y2="509.524" />
<line stroke="#000000" stroke-width="1.19048" x1="229.976" y1="514.286" x2="229.976" y2="509.524" />
<line stroke="#000000" stroke-width="1.19048" x1="210.999" y1="514.286" x2="210.999" y2="509.524" />
<line stroke="#000000" stroke-width="1.19048" x1="192.021" y1="514.286" x2="192.021" y2="509.524" />
<line stroke="#000000" stroke-width="1.19048" x1="173.044" y1="514.286" x2="173.044" y2="509.524" />
<line stroke="#000000" stroke-width="1.19048" x1="154.067" y1="514.286" x2="154.067" y2="509.524" />
<line stroke="#000000" stroke-width="1.19048" x1="135.09" y1="514.286" x2="135.09" y2="509.524" />
<line stroke="#000000" stroke-width="1.19048" x1="116.112" y1="514.286" x2="116.112" y2="509.524" />
<line stroke="#000000" stroke-width="1.19048" x1="97.1352" y1="514.286" x2="97.1352" y2="509.524" />
<text fill="#000000" font-family="sans-serif" font-size="19.0476" text-anchor="end" x="90.4762" y="435.296" >
0.2
</text>
<line stroke="#000000" stroke-width="1.19048" x1="95.2381" y1="431.01" x2="104.762" y2="431.01" />
<text fill="#000000" font-family="sans-serif" font-size="19.0476" text-anchor="end" x="90.4762" y="321.064" >
0.4
</text>
<line stroke="#000000" stroke-width="1.19048" x1="95.2381" y1="316.778" x2="104.762" y2="316.778" />
<text fill="#000000" font-family="sans-serif" font-size="19.0476" text-anchor="end" x="90.4762" y="206.832" >
0.6
</text>
<line stroke="#000000" stroke-width="1.19048" x1="95.2381" y1="202.546" x2="104.762" y2="202.546" />
<text fill="#000000" font-family="sans-serif" font-size="19.0476" text-anchor="end" x="90.4762" y="92.5994" >
0.8
</text>
<line stroke="#000000" stroke-width="1.19048" x1="95.2381" y1="88.3137" x2="104.762" y2="88.3137" />
<line stroke="#000000" stroke-width="1.19048" x1="95.2381" y1="488.127" x2="100" y2="488.127" />
<line stroke="#000000" stroke-width="1.19048" x1="95.2381" y1="459.568" x2="100" y2="459.568" />
<line stroke="#000000" stroke-width="1.19048" x1="95.2381" y1="431.01" x2="100" y2="431.01" />
<line stroke="#000000" stroke-width="1.19048" x1="95.2381" y1="402.452" x2="100" y2="402.452" />
<line stroke="#000000" stroke-width="1.19048" x1="95.2381" y1="373.894" x2="100" y2="373.894" />
<line stroke="#000000" stroke-width="1.19048" x1="95.2381" y1="345.336" x2="100" y2="345.336" />
<line stroke="#000000" stroke-width="1.19048" x1="95.2381" y1="316.778" x2="100" y2="316.778" />
<line stroke="#000000" stroke-width="1.19048" x1="95.2381" y1="288.22" x2="100" y2="288.22" />
<line stroke="#000000" stroke-width="1.19048" x1="95.2381" y1="259.662" x2="100" y2="259.662" />
<line stroke="#000000" stroke-width="1.19048" x1="95.2381" y1="231.104" x2="100" y2="231.104" />
<line stroke="#000000" stroke-width="1.19048" x1="95.2381" y1="202.546" x2="100" y2="202.546" />
<line stroke="#000000" stroke-width="1.19048" x1="95.2381" y1="173.988" x2="100" y2="173.988" />
<line stroke="#000000" stroke-width="1.19048" x1="95.2381" y1="145.43" x2="100" y2="145.43" />
<line stroke="#000000" stroke-width="1.19048" x1="95.2381" y1="116.872" x2="100" y2="116.872" />
<line stroke="#000000" stroke-width="1.19048" x1="95.2381" y1="88.3136" x2="100" y2="88.3136" />
<polyline stroke="#FF0000" stroke-width="1.19048" fill="none" points="742.857,175.53
742.667,175.816
742.476,176.101
742.286,176.444
742.095,176.729
741.905,177.072
741.715,177.415
741.524,177.758
741.334,178.157
741.143,177.929
740.953,178.843
740.762,179.243
740.572,179.471
740.382,179.642
740.191,179.871
740.001,180.099
739.81,180.442
739.62,180.842
739.43,181.242
739.239,181.641
739.049,182.041
738.858,182.498
738.668,182.898
738.477,183.298
738.287,183.698
738.097,184.097
737.906,184.497
737.716,184.897
737.525,185.297
737.335,185.697
737.145,186.211
736.954,186.782
736.764,187.239
736.573,187.81
736.383,188.324
736.192,188.952
736.002,189.752
735.812,190.609
735.621,191.465
735.431,192.265
735.24,193.122
735.05,194.093
734.859,195.292
734.669,196.492
734.479,197.748
734.288,199.005
734.098,200.204
733.907,201.404
733.717,202.66
733.527,203.802
733.336,205.002
733.146,206.258
732.955,207.629
732.765,209
732.574,210.085
732.384,210.599
732.194,211.056
732.003,211.57
731.813,212.027
731.622,212.256
731.432,212.313
731.241,212.37
731.051,212.427
730.861,212.655
730.67,213.17
730.48,212.084
730.289,211.513
730.099,210.599
729.909,209.057
729.718,207.515
729.528,205.744
729.337,203.403
729.147,201.004
728.956,197.977
728.766,197.748
728.576,197.52
728.385,197.234
728.195,197.006
728.004,196.777
727.814,196.549
727.623,196.606
727.433,197.006
727.243,196.777
727.052,197.234
726.862,197.691
726.671,198.148
726.481,198.548
726.291,199.405
726.1,200.261
725.91,201.232
725.719,202.317
725.529,203.403
725.338,204.602
725.148,206.487
724.958,208.429
724.767,210.028
724.577,211.17
724.386,212.199
724.196,213.227
724.005,214.141
723.815,214.769
723.625,215.397
723.434,216.025
723.244,216.368
723.053,216.14
722.863,215.74
722.673,215.169
722.482,213.684
722.292,210.828
722.101,206.43
721.911,201.575
721.72,196.606
721.53,191.694
721.34,186.782
721.149,181.87
720.959,176.958
720.768,172.046
720.578,167.134
720.388,162.45
720.197,158.909
720.007,156.682
719.816,155.311
719.626,154.854
719.435,154.854
719.245,154.911
719.055,154.683
718.864,154.683
718.674,155.311
718.483,155.539
718.293,155.882
718.102,156.453
717.912,157.139
717.722,157.824
717.531,158.624
717.341,159.366
717.15,160.166
716.96,161.023
716.77,161.879
716.579,162.679
716.389,163.307
716.198,163.764
716.008,164.792
715.817,166.106
715.627,163.821
715.437,162.622
715.246,160.794
715.056,158.795
714.865,156.453
714.675,152.112
714.484,147.029
714.294,142.917
714.104,141.489
713.913,140.975
713.723,140.461
713.532,140.118
713.342,140.289
713.152,140.575
712.961,140.861
712.771,141.146
712.58,141.489
712.39,141.831
712.199,142.231
712.009,142.574
711.819,142.917
711.628,143.202
711.438,143.545
711.247,143.888
711.057,144.287
710.867,144.687
710.676,145.144
710.486,145.544
710.295,146.001
710.105,146.401
709.914,146.743
709.724,147.086
709.534,147.429
709.343,147.772
709.153,148.114
708.962,148.457
708.772,148.8
708.581,149.142
708.391,149.485
708.201,149.828
708.01,150.17
707.82,150.57
707.629,150.799
707.439,150.913
707.249,151.084
707.058,151.199
706.868,151.313
706.677,151.427
706.487,151.541
706.296,151.655
706.106,151.655
705.916,151.598
705.725,151.484
705.535,151.427
705.344,151.313
705.154,151.199
704.964,151.141
704.773,151.027
704.583,150.97
704.392,150.856
704.202,150.799
704.011,150.684
703.821,150.57
703.631,150.513
703.44,150.399
703.25,150.342
703.059,150.228
702.869,150.113
702.678,150.056
702.488,149.942
702.298,149.771
702.107,149.599
701.917,149.428
701.726,149.199
701.536,149.028
701.346,148.914
701.155,149.028
700.965,149.199
700.774,149.428
700.584,149.599
700.393,149.828
700.203,150.056
700.013,150.456
699.822,150.913
699.632,151.37
699.441,151.77
699.251,152.227
699.06,152.741
698.87,153.255
698.68,153.769
698.489,154.34
698.299,154.854
698.108,155.425
697.918,155.939
697.727,156.51
697.537,157.31
697.347,158.224
697.156,159.023
696.966,159.937
696.775,160.794
696.585,161.651
696.395,162.565
696.204,163.421
696.014,164.392
695.823,165.363
695.633,166.334
695.443,167.305
695.252,168.276
695.062,169.247
694.871,170.218
694.681,171.189
694.49,172.16
694.3,173.131
694.11,174.102
693.919,175.13
693.729,176.101
693.538,177.015
693.348,178.043
693.157,179.014
692.967,179.985
692.777,180.956
692.586,181.927
692.396,182.955
692.205,183.926
692.015,184.897
691.825,185.582
691.634,185.982
691.444,186.268
691.253,186.611
691.063,186.953
690.872,187.41
690.682,187.867
690.492,188.381
690.301,189.124
690.111,190.095
689.92,191.18
689.73,192.436
689.539,193.75
689.349,195.064
689.159,196.492
688.968,197.977
688.778,199.519
688.587,201.004
688.397,202.489
688.206,204.031
688.016,205.516
687.826,207.287
687.635,209.343
687.445,211.399
687.254,213.455
687.064,215.511
686.874,217.567
686.683,219.624
686.493,221.851
686.302,224.478
686.112,227.22
685.922,229.962
685.731,232.703
685.541,235.445
685.35,238.243
685.16,241.042
684.969,243.898
684.779,246.697
684.589,249.552
684.398,252.408
684.208,255.607
684.017,259.662
683.827,263.717
683.636,267.773
683.446,271.771
683.256,275.597
683.065,278.967
682.875,282.28
682.684,285.536
682.494,288.848
682.304,292.218
682.113,295.531
681.923,298.844
681.732,302.099
681.542,305.412
681.351,308.668
681.161,311.98
680.971,315.236
680.78,318.549
680.59,322.49
680.399,326.716
680.209,331
680.018,335.227
679.828,338.882
679.638,341.966
679.447,344.936
679.257,347.906
679.066,350.362
678.876,351.619
678.685,351.79
678.495,351.847
678.305,351.905
678.114,351.962
677.924,351.905
677.733,351.79
677.543,353.447
677.353,352.076
677.162,351.219
676.972,350.991
676.781,350.762
676.591,350.534
676.4,349.62
676.21,348.363
676.02,346.193
675.829,343.566
675.639,340.824
675.448,337.511
675.258,333.17
675.068,328.373
674.877,323.575
674.687,318.72
674.496,313.922
674.306,309.125
674.115,304.327
673.925,299.529
673.735,294.674
673.544,289.819
673.354,285.022
673.163,280.224
672.973,275.426
672.782,270.628
672.592,265.773
672.402,260.919
672.211,256.121
672.021,251.323
671.83,246.525
671.64,241.728
671.45,236.873
671.259,232.018
671.069,226.935
670.878,221.566
670.688,216.539
670.497,212.027
670.307,207.801
670.117,204.088
669.926,200.49
669.736,196.492
669.545,191.808
669.355,187.125
669.164,182.612
668.974,178.614
668.784,174.616
668.593,170.789
668.403,167.191
668.212,163.878
668.022,161.594
667.832,159.823
667.641,158.11
667.451,156.396
667.26,154.683
667.07,153.083
666.879,151.827
666.689,150.684
666.499,149.485
666.308,148.228
666.118,147.029
665.927,146.001
665.737,145.087
665.547,144.173
665.356,143.316
665.166,142.403
664.975,141.489
664.785,140.575
664.594,139.604
664.404,138.69
664.214,137.776
664.023,136.919
663.833,136.006
663.642,134.692
663.452,133.378
663.261,133.607
663.071,131.551
662.881,136.234
662.69,137.605
662.5,138.976
662.309,140.346
662.119,141.774
661.929,142.003
661.738,142.288
661.548,142.06
661.357,141.66
661.167,140.689
660.976,139.661
660.786,138.29
660.596,136.52
660.405,134.692
660.215,133.55
660.024,133.036
659.834,132.864
659.643,132.693
659.453,132.522
659.263,132.636
659.072,132.807
658.882,132.407
658.691,132.978
658.501,133.607
658.311,134.064
658.12,134.521
657.93,135.035
657.739,135.663
657.549,136.291
657.358,136.862
657.168,137.548
656.978,138.29
656.787,138.976
656.597,139.661
656.406,140.404
656.216,141.089
656.026,141.831
655.835,142.517
655.645,143.316
655.454,144.287
655.264,145.258
655.073,146.287
654.883,147.258
654.693,148.286
654.502,149.542
654.312,151.027
654.121,152.455
653.931,153.94
653.74,155.539
653.55,157.367
653.36,158.681
653.169,159.138
652.979,159.023
652.788,158.624
652.598,158.167
652.408,157.596
652.217,156.967
652.027,156.682
651.836,156.853
651.646,157.538
651.455,159.366
651.265,162.45
651.075,166.62
650.884,171.646
650.694,175.473
650.503,178.614
650.313,181.356
650.122,183.755
649.932,185.582
649.742,186.382
649.551,186.839
649.361,186.896
649.17,186.782
648.98,184.84
648.79,183.526
648.599,181.699
648.409,179.185
648.218,175.644
648.028,170.561
647.837,162.907
647.647,157.196
647.457,149.485
647.266,137.319
647.076,132.008
646.885,130.808
646.695,130.123
646.504,129.78
646.314,129.552
646.124,129.437
645.933,129.609
645.743,129.095
645.552,129.38
645.362,129.78
645.172,130.237
644.981,130.865
644.791,131.779
644.6,132.636
644.41,133.435
644.219,134.292
644.029,135.149
643.839,136.006
643.648,136.977
643.458,138.062
643.267,139.547
643.077,141.032
642.886,142.574
642.696,144.516
642.506,146.572
642.315,148.685
642.125,150.799
641.934,152.684
641.744,154.568
641.554,156.339
641.363,158.224
641.173,160.109
640.982,161.936
640.792,163.821
640.602,165.592
640.411,167.42
640.221,169.247
640.03,171.189
639.84,173.188
639.649,175.187
639.459,177.186
639.269,179.185
639.078,181.127
638.888,183.184
638.697,185.24
638.507,187.81
638.316,190.437
638.126,193.065
637.936,195.635
637.745,198.148
637.555,200.661
637.364,203.117
637.174,205.573
636.983,208.258
636.793,211.685
636.603,215.283
636.412,218.881
636.222,222.651
636.031,226.763
635.841,231.047
635.651,235.388
635.46,239.957
635.27,244.583
635.079,249.324
634.889,254.293
634.698,259.319
634.508,263.889
634.318,268.287
634.127,272.685
633.937,286.221
633.746,293.189
633.556,294.56
633.366,294.846
633.175,295.417
632.985,294.56
632.794,293.189
632.604,291.761
632.413,289.134
632.223,284.622
632.033,279.253
631.842,273.827
631.652,268.458
631.461,263.089
631.271,257.72
631.081,252.351
630.89,246.925
630.7,241.613
630.509,236.244
630.319,233.217
630.128,232.817
629.938,233.046
629.748,233.274
629.557,233.56
629.367,234.074
629.176,234.931
628.986,236.073
628.795,237.615
628.605,240.014
628.415,243.498
628.224,247.611
628.034,252.066
627.843,256.92
627.653,263.317
627.462,271.371
627.272,278.682
627.082,288.049
626.891,300.671
626.701,313.58
626.51,326.488
626.32,339.339
626.13,350.934
625.939,360.301
625.749,367.44
625.558,371.952
625.368,375.494
625.177,377.778
624.987,379.492
624.797,379.035
624.606,374.009
624.416,366.184
624.225,358.359
624.035,350.534
623.844,342.709
623.654,334.884
623.464,327.059
623.273,319.234
623.083,308.839
622.892,296.502
622.702,293.075
622.512,291.933
622.321,291.59
622.131,291.59
621.94,291.647
621.75,291.876
621.559,292.504
621.369,293.475
621.179,295.36
620.988,298.672
620.798,304.041
620.607,309.81
620.417,317.863
620.227,327.288
620.036,335.741
619.846,342.423
619.655,347.507
619.465,351.105
619.274,354.018
619.084,356.817
618.894,359.101
618.703,360.472
618.513,361.329
618.322,361.843
618.132,362.185
617.941,362.357
617.751,362.471
617.561,362.585
617.37,362.528
617.18,362.414
616.989,362.3
616.799,362.185
616.609,362.071
616.418,361.957
616.228,361.957
616.037,362.014
615.847,362.814
615.656,365.898
615.466,368.126
615.276,370.41
615.085,372.695
614.895,375.094
614.704,377.036
614.514,378.007
614.323,378.121
614.133,378.235
613.943,377.778
613.752,377.55
613.562,376.464
613.371,374.351
613.181,370.353
612.991,367.726
612.8,367.04
612.61,366.755
612.419,366.755
612.229,366.755
612.038,365.67
611.848,367.155
611.658,369.211
611.467,374.408
611.277,378.349
611.086,379.891
610.896,380.291
610.706,380.234
610.515,380.12
610.325,380.006
610.134,379.606
609.944,380.177
609.753,369.268
609.563,359.215
609.373,349.677
609.182,341.681
608.992,338.025
608.801,337.169
608.611,337.511
608.42,338.14
608.23,339.339
608.04,340.538
607.849,340.881
607.659,340.596
607.468,339.625
607.278,333.627
607.088,323.975
606.897,313.58
606.707,303.185
606.516,292.789
606.326,282.394
606.135,271.999
605.945,261.547
605.755,251.152
605.564,240.757
605.374,210.199
605.183,189.181
604.993,185.982
604.802,183.069
604.612,180.785
604.422,179.071
604.231,177.986
604.041,177.358
603.85,176.729
603.66,176.387
603.47,176.501
603.279,176.958
603.089,177.529
602.898,179.585
602.708,183.983
602.517,188.61
602.327,193.236
602.137,197.862
601.946,202.489
601.756,207.115
601.565,211.627
601.375,215.169
601.185,216.825
600.994,217.91
600.804,218.767
600.613,218.824
600.423,218.596
600.232,218.424
600.042,218.424
599.852,215.34
599.661,211.513
599.471,208.029
599.28,205.059
599.09,202.489
598.899,200.49
598.709,198.548
598.519,195.464
598.328,187.753
598.138,182.555
597.947,176.729
597.757,169.247
597.567,164.621
597.376,161.936
597.186,160.623
596.995,160.166
596.805,160.451
596.614,159.823
596.424,159.766
596.234,159.937
596.043,160.28
595.853,160.623
595.662,161.023
595.472,161.422
595.281,161.822
595.091,162.336
594.901,163.022
594.71,163.707
594.52,164.449
594.329,165.478
594.139,166.563
593.948,167.705
593.758,169.019
593.568,170.561
593.377,172.103
593.187,173.759
592.996,175.873
592.806,178.671
592.616,181.527
592.425,184.212
592.235,186.953
592.044,190.609
591.854,194.778
591.663,197.977
591.473,200.661
591.283,203.974
591.092,208.429
590.902,213.341
590.711,219.11
590.521,225.05
590.331,230.476
590.14,236.016
589.95,242.07
589.759,249.495
589.569,257.092
589.378,264.917
589.188,272.685
588.998,279.995
588.807,287.021
588.617,294.217
588.426,302.099
588.236,313.008
588.046,335.398
587.855,342.138
587.665,345.565
587.474,348.706
587.284,350.591
587.093,351.048
586.903,351.162
586.713,350.876
586.522,348.82
586.332,342.195
586.141,333.799
585.951,328.658
585.76,324.318
585.57,320.776
585.38,317.121
585.189,313.008
584.999,309.01
584.808,305.526
584.618,302.613
584.427,299.929
584.237,297.416
584.047,295.702
583.856,294.731
583.666,293.875
583.475,293.075
583.285,292.275
583.095,285.136
582.904,263.889
582.714,258.006
582.523,252.066
582.333,246.183
582.142,240.357
581.952,234.417
581.762,229.333
581.571,226.706
581.381,224.935
581.19,223.565
581,222.251
580.81,221.109
580.619,220.538
580.429,220.423
580.238,220.252
580.048,220.138
579.857,219.909
579.667,219.681
579.477,219.167
579.286,218.31
579.096,216.539
578.905,213.512
578.715,208.315
578.525,200.718
578.334,193.407
578.144,182.955
577.953,173.588
577.763,166.905
577.572,162.336
577.382,160.109
577.192,159.652
577.001,160.052
576.811,161.08
576.62,162.679
576.43,164.335
576.24,166.334
576.049,168.219
575.859,169.647
575.668,170.732
575.478,171.132
575.287,171.018
575.097,170.789
574.906,167.819
574.716,160.623
574.526,153.483
574.335,146.287
574.145,139.09
573.954,131.893
573.764,124.754
573.574,117.614
573.383,110.875
573.193,106.419
573.002,104.535
572.812,103.392
572.621,102.478
572.431,101.793
572.241,101.222
572.05,100.651
571.86,100.137
571.669,99.7369
571.479,99.3371
571.289,98.9373
571.098,98.5946
570.908,98.309
570.717,98.0234
570.527,97.6808
570.336,97.3951
570.146,97.0525
569.956,96.7097
569.765,96.3099
569.575,96.0815
569.384,95.9101
569.194,95.7388
569.003,95.5674
568.813,95.3961
568.623,95.2818
568.432,95.1676
568.242,95.0534
568.051,94.9963
567.861,93.8539
567.671,93.8539
567.48,94.8249
567.29,94.882
567.099,94.9391
566.909,94.9963
566.718,95.0534
566.528,95.1676
566.338,95.2248
566.147,95.2818
565.957,95.5674
565.766,95.9673
565.576,96.4242
565.385,97.0525
565.195,97.7378
565.005,98.1376
564.814,98.309
564.624,98.4804
564.433,98.6517
564.243,98.7088
564.052,98.7088
563.862,98.7088
563.672,98.7088
563.481,98.7088
563.291,98.7659
563.1,98.9944
562.91,99.2229
562.72,99.5085
562.529,99.9654
562.339,100.594
562.148,101.45
561.958,102.421
561.768,103.278
561.577,104.078
561.387,104.763
561.196,105.334
561.006,105.848
560.815,106.362
560.625,106.819
560.435,107.162
560.244,107.562
560.054,108.019
559.863,108.59
559.673,109.161
559.482,109.789
559.292,110.646
559.102,111.617
558.911,112.531
558.721,113.445
558.53,114.359
558.34,115.044
558.15,115.615
557.959,116.186
557.769,116.815
557.578,117.9
557.388,119.042
557.197,120.184
557.007,121.27
556.817,122.298
556.626,123.269
556.436,124.297
556.245,125.439
556.055,126.581
555.865,127.838
555.674,129.095
555.484,130.351
555.293,131.551
555.103,133.207
554.912,135.206
554.722,137.319
554.532,139.433
554.341,141.546
554.151,143.602
553.96,145.944
553.77,148.286
553.579,150.684
553.389,153.026
553.199,155.425
553.008,157.767
552.818,160.794
552.627,163.878
552.437,166.677
552.247,168.733
552.056,170.504
551.866,172.332
551.675,174.159
551.485,175.987
551.294,177.815
551.104,179.928
550.914,182.098
550.723,184.326
550.533,186.496
550.342,188.61
550.152,191.865
549.961,195.863
549.771,199.919
549.581,203.802
549.39,207.515
549.2,211.285
549.009,214.997
548.819,218.71
548.629,223.108
548.438,227.848
548.248,230.933
548.057,233.16
547.867,235.331
547.676,237.501
547.486,239.671
547.296,241.956
547.105,244.526
546.915,247.154
546.724,249.781
546.534,252.408
546.344,255.036
546.153,258.291
545.963,262.175
545.772,266.002
545.582,269.6
545.391,273.141
545.201,276.74
545.011,280.224
544.82,283.765
544.63,287.706
544.439,292.104
544.249,296.502
544.058,302.785
543.868,309.639
543.678,314.779
543.487,319.748
543.297,324.717
543.106,329.458
542.916,334.199
542.725,339.111
542.535,344.194
542.345,349.22
542.154,352.59
541.964,354.703
541.773,356.702
541.583,358.816
541.393,363.385
541.202,366.755
541.012,370.125
540.821,375.379
540.631,381.719
540.44,388.916
540.25,395.941
540.06,403.366
539.869,412.847
539.679,424.899
539.488,439.292
539.298,449.973
539.108,457.398
538.917,464.709
538.727,471.734
538.536,477.56
538.346,483.5
538.155,491.382
537.965,497.608
537.775,501.492
537.584,505.376
537.394,508.517
537.203,511.487
537.013,514.286
536.822,513.258
536.632,513.201
536.442,512.972
536.251,512.458
536.061,511.658
535.87,510.516
535.68,509.202
535.49,507.774
535.299,506.347
535.109,505.09
534.918,503.948
534.728,502.977
534.537,502.348
534.347,501.72
534.157,500.978
533.966,500.121
533.776,498.979
533.585,497.893
533.395,496.637
533.204,495.38
533.014,494.124
532.824,492.753
532.633,491.154
532.443,489.497
532.252,487.498
532.062,485.499
531.872,483.5
531.681,477.217
531.491,455.113
531.3,450.201
531.11,445.232
530.919,440.32
530.729,435.408
530.539,430.496
530.348,425.527
530.158,420.615
529.967,415.703
529.777,410.163
529.587,402.167
529.396,393.599
529.206,385.146
529.015,373.152
528.825,365.955
528.634,357.959
528.444,347.164
528.254,339.053
528.063,333.97
527.873,328.944
527.682,324.146
527.492,319.634
527.302,315.065
527.111,310.495
526.921,305.412
526.73,299.244
526.54,293.303
526.349,288.391
526.159,284.85
525.969,281.309
525.778,277.654
525.588,273.141
525.397,267.43
525.207,261.89
525.016,257.32
524.826,253.722
524.636,250.067
524.445,246.468
524.255,242.527
524.064,237.615
523.874,232.018
523.683,227.22
523.493,223.907
523.303,221.223
523.112,219.795
522.922,218.31
522.731,216.882
522.541,215.454
522.351,213.969
522.16,212.484
521.97,211.056
521.779,209.628
521.589,208.2
521.398,206.715
521.208,205.288
521.018,203.86
520.827,202.546
520.637,201.289
520.446,199.919
520.256,198.662
520.066,197.405
519.875,196.377
519.685,195.578
519.494,194.721
519.304,193.921
519.113,193.065
518.923,192.265
518.733,191.465
518.542,190.723
518.352,190.037
518.161,189.409
517.971,188.781
517.78,188.21
517.59,187.581
517.4,186.953
517.209,186.325
517.019,185.697
516.828,185.125
516.638,184.497
516.448,183.869
516.257,183.241
516.067,182.612
515.876,181.984
515.686,181.413
515.495,180.785
515.305,180.156
515.115,179.528
514.924,178.957
514.734,178.443
514.543,177.872
514.353,177.358
514.162,176.787
513.972,176.272
513.782,175.758
513.591,175.187
513.401,174.673
513.21,174.102
513.02,173.531
512.83,173.017
512.639,172.503
512.449,171.932
512.258,171.418
512.068,170.846
511.877,170.275
511.687,169.704
511.497,169.133
511.306,168.562
511.116,167.991
510.925,167.42
510.735,166.848
510.544,166.277
510.354,165.649
510.164,165.021
509.973,164.392
509.783,163.764
509.592,163.136
509.402,162.508
509.212,161.879
509.021,161.251
508.831,160.623
508.64,159.994
508.45,159.366
508.259,158.738
508.069,158.052
507.879,157.424
507.688,156.739
507.498,156.111
507.307,155.482
507.117,154.854
506.927,154.226
506.736,153.597
506.546,152.912
506.355,152.227
506.165,151.484
505.974,150.742
505.784,149.999
505.594,149.257
505.403,148.514
505.213,147.772
505.022,147.029
504.832,146.287
504.641,145.487
504.451,144.744
504.261,144.059
504.07,143.488
503.88,142.917
503.689,142.346
503.499,141.774
503.309,141.203
503.118,140.632
502.928,140.061
502.737,139.49
502.547,138.919
502.356,138.462
502.166,138.176
501.976,137.833
501.785,137.491
501.595,137.148
501.404,136.805
501.214,136.463
501.024,136.12
500.833,135.777
500.643,135.435
500.452,135.092
500.262,134.749
500.071,134.464
499.881,134.121
499.691,133.778
499.5,133.493
499.31,133.093
499.119,132.807
498.929,132.464
498.738,132.122
498.548,131.836
498.358,131.493
498.167,131.208
497.977,130.922
497.786,130.637
497.596,130.465
497.406,130.237
497.215,130.066
497.025,129.837
496.834,129.666
496.644,129.494
496.453,129.266
496.263,129.095
496.073,128.866
495.882,128.752
495.692,128.695
495.501,128.638
495.311,128.638
495.12,128.581
494.93,128.523
494.74,128.466
494.549,128.409
494.359,128.181
494.168,127.781
493.978,127.381
493.788,126.981
493.597,126.581
493.407,126.182
493.216,125.782
493.026,125.382
492.835,124.982
492.645,124.64
492.455,124.183
492.264,123.783
492.074,123.326
491.883,122.926
491.693,122.469
491.502,122.184
491.312,121.841
491.122,121.555
490.931,121.213
490.741,120.927
490.55,120.641
490.36,120.356
490.17,120.013
489.979,119.842
489.789,119.785
489.598,119.67
489.408,119.613
489.217,119.499
489.027,119.442
488.837,119.385
488.646,119.271
488.456,119.156
488.265,118.928
488.075,118.699
487.884,118.414
487.694,118.185
487.504,117.957
487.313,117.728
487.123,117.443
486.932,117.214
486.742,116.929
486.552,116.643
486.361,116.358
486.171,116.072
485.98,115.787
485.79,115.501
485.599,115.215
485.409,114.93
485.219,114.701
485.028,114.473
484.838,114.244
484.647,114.073
484.457,113.845
484.266,113.616
484.076,113.445
483.886,113.216
483.695,112.988
483.505,112.816
483.314,112.588
483.124,112.36
482.934,112.131
482.743,111.96
482.553,111.731
482.362,111.503
482.172,111.331
481.981,111.103
481.791,110.875
481.601,110.703
481.41,110.475
481.22,110.246
481.029,109.961
480.839,109.732
480.649,109.504
480.458,109.218
480.268,108.99
480.077,108.761
479.887,108.476
479.696,108.247
479.506,108.019
479.316,107.733
479.125,107.39
478.935,107.048
478.744,106.705
478.554,106.362
478.363,106.02
478.173,105.677
477.983,105.334
477.792,104.992
477.602,104.649
477.411,104.306
477.221,103.964
477.031,103.678
476.84,103.335
476.65,102.993
476.459,102.65
476.269,102.421
476.078,102.136
475.888,101.85
475.698,101.565
475.507,101.279
475.317,101.051
475.126,100.765
474.936,100.479
474.746,100.194
474.555,99.9083
474.365,99.6227
474.174,99.3942
473.984,99.1086
473.793,98.8802
473.603,98.7088
473.413,98.6517
473.222,98.6517
473.032,98.5946
472.841,98.5946
472.651,98.5374
472.46,98.5374
472.27,98.5374
472.08,98.4804
471.889,98.4804
471.699,98.4232
471.508,98.309
471.318,98.1376
471.128,98.0234
470.937,97.9092
470.747,97.795
470.556,97.6808
470.366,97.5094
470.175,97.3951
469.985,97.2809
469.795,97.1096
469.604,96.9953
469.414,96.8811
469.223,96.7097
469.033,96.5955
468.842,96.3671
468.652,96.1386
468.462,95.9101
468.271,95.7388
468.081,95.5674
467.89,95.3961
467.7,95.1676
467.51,94.9963
467.319,94.8249
467.129,94.5965
466.938,94.4251
466.748,94.2538
466.557,94.0253
466.367,93.8539
466.177,93.7397
465.986,93.5684
465.796,93.4541
465.605,93.2828
465.415,93.1686
465.224,93.1115
465.034,93.1115
464.844,93.1686
464.653,93.1686
464.463,93.1686
464.272,93.1686
464.082,93.1686
463.892,93.1686
463.701,93.2256
463.511,93.2828
463.32,93.3399
463.13,93.397
462.939,93.4541
462.749,93.4541
462.559,93.5113
462.368,93.5684
462.178,93.6255
461.987,93.6826
461.797,93.7397
461.607,93.7968
461.416,93.8539
461.226,93.8539
461.035,93.9111
460.845,93.9111
460.654,93.9111
460.464,93.9682
460.274,93.9682
460.083,93.9682
459.893,94.0253
459.702,94.368
459.512,94.4251
459.322,94.0824
459.131,94.0824
458.941,94.0824
458.75,94.1395
458.56,94.1967
458.369,94.2538
458.179,94.3109
457.989,94.3109
457.798,94.368
457.608,94.4251
457.417,94.4822
457.227,94.5965
457.036,94.6536
456.846,94.6536
456.656,94.7107
456.465,94.7678
456.275,94.8249
456.084,94.882
455.894,94.882
455.703,94.9391
455.513,94.9963
455.323,95.0534
455.132,95.0534
454.942,95.1105
454.751,95.1676
454.561,95.2248
454.371,95.2248
454.18,95.2818
453.99,95.339
453.799,95.339
453.609,95.3961
453.418,95.4532
453.228,95.4532
453.038,95.5103
452.847,95.5103
452.657,95.5674
452.466,95.6246
452.276,95.6246
452.086,95.6816
451.895,95.7388
451.705,95.7388
451.514,95.7959
451.324,95.853
451.133,95.9101
450.943,95.9101
450.753,95.9673
450.562,96.0244
450.372,96.0815
450.181,96.1386
449.991,96.1957
449.8,96.2528
449.61,96.2528
449.42,96.3099
449.229,96.3671
449.039,96.3671
448.848,96.4242
448.658,96.4813
448.467,96.5384
448.277,96.5384
448.087,96.5955
447.896,96.6526
447.706,96.6526
447.515,96.7097
447.325,96.7669
447.135,96.8811
446.944,96.9953
446.754,97.1096
446.563,97.2238
446.373,97.338
446.182,97.4523
445.992,97.5665
445.802,97.6236
445.611,97.7378
445.421,97.795
445.23,97.8521
445.04,97.9663
444.85,98.1376
444.659,98.2519
444.469,98.3661
444.278,98.5374
444.088,98.6517
443.897,98.7659
443.707,98.9373
443.517,99.0515
443.326,99.2229
443.136,99.3371
442.945,99.5085
442.755,99.6227
442.565,99.7369
442.374,99.9083
442.184,100.022
441.993,100.137
441.803,100.251
441.612,100.422
441.422,100.537
441.232,100.651
441.041,100.765
440.851,100.879
440.66,100.993
440.47,101.051
440.279,101.165
440.089,101.279
439.899,101.336
439.708,101.45
439.518,101.565
439.327,101.679
439.137,101.85
438.947,102.022
438.756,102.25
438.566,102.364
438.375,102.764
438.185,103.449
437.994,104.135
437.804,104.763
437.614,105.049
437.423,105.334
437.233,105.62
437.042,105.734
436.852,105.848
436.661,105.963
436.471,106.02
436.281,106.134
436.09,106.134
435.9,106.134
435.709,106.134
435.519,106.134
435.329,106.134
435.138,106.134
434.948,106.134
434.757,106.134
434.567,106.134
434.376,106.248
434.186,106.362
433.996,106.477
433.805,106.591
433.615,106.762
433.424,106.876
433.234,106.991
433.043,107.162
432.853,107.276
432.663,107.39
432.472,107.562
432.282,107.676
432.091,107.79
431.901,107.905
431.711,107.962
431.52,108.076
431.33,108.133
431.139,108.247
430.949,108.361
430.758,108.419
430.568,108.533
430.378,108.647
430.187,108.704
429.997,108.818
429.806,108.875
429.616,108.99
429.426,109.104
429.235,109.218
429.045,109.39
428.854,109.504
428.664,109.675
428.473,109.846
428.283,109.961
428.093,110.132
427.902,110.303
427.712,110.646
427.521,111.046
427.331,111.389
427.14,111.731
426.95,112.074
426.76,112.417
426.569,112.759
426.379,113.159
426.188,113.502
425.998,114.016
425.808,114.473
425.617,114.93
425.427,115.387
425.236,115.844
425.046,116.301
424.855,116.815
424.665,117.329
424.475,118.014
424.284,118.757
424.094,119.499
423.903,120.184
423.713,120.927
423.522,121.612
423.332,122.355
423.142,123.097
422.951,123.84
422.761,124.525
422.57,125.268
422.38,126.353
422.19,127.495
421.999,128.581
421.809,129.666
421.618,130.751
421.428,131.836
421.237,132.921
421.047,134.007
420.857,135.092
420.666,136.063
420.476,137.034
420.285,137.948
420.095,138.919
419.904,139.832
419.714,140.746
419.524,141.717
419.333,142.631
419.143,143.545
418.952,144.402
418.762,145.258
418.572,146.058
418.381,146.743
418.191,147.029
418,147.315
417.81,147.6
417.619,147.886
417.429,148.171
417.239,148.457
417.048,148.571
416.858,148.685
416.667,148.8
416.477,148.914
416.287,148.971
416.096,149.028
415.906,149.085
415.715,149.142
415.525,149.199
415.334,149.371
415.144,149.714
414.954,149.257
414.763,149.314
414.573,149.314
414.382,149.371
414.192,149.371
414.001,149.371
413.811,149.428
413.621,149.428
413.43,149.428
413.24,149.428
413.049,149.428
412.859,149.428
412.669,149.428
412.478,149.428
412.288,149.428
412.097,149.485
411.907,149.485
411.716,149.485
411.526,149.542
411.336,149.599
411.145,149.656
410.955,149.656
410.764,149.714
410.574,149.771
410.383,149.828
410.193,149.885
410.003,149.885
409.812,149.942
409.622,149.999
409.431,150.056
409.241,150.113
409.051,150.113
408.86,150.228
408.67,150.342
408.479,150.513
408.289,150.627
408.098,150.742
407.908,150.856
407.718,150.97
407.527,151.084
407.337,151.313
407.146,151.541
406.956,151.827
406.765,152.112
406.575,152.341
406.385,152.626
406.194,152.855
406.004,153.14
405.813,153.483
405.623,153.826
405.433,154.226
405.242,154.625
405.052,155.025
404.861,155.425
404.671,155.825
404.48,156.225
404.29,156.739
404.1,157.31
403.909,157.938
403.719,158.509
403.528,159.081
403.338,159.709
403.148,160.451
402.957,161.251
402.767,161.993
402.576,162.793
402.386,163.536
402.195,164.335
402.005,165.078
401.815,165.763
401.624,166.449
401.434,167.134
401.243,167.819
401.053,168.505
400.862,169.19
400.672,169.876
400.482,170.504
400.291,171.189
400.101,171.875
399.91,172.56
399.72,173.245
399.53,173.931
399.339,174.673
399.149,175.302
398.958,175.987
398.768,176.672
398.577,177.358
398.387,177.986
398.197,178.671
398.006,179.357
397.816,180.042
397.625,180.67
397.435,181.356
397.244,182.098
397.054,182.841
396.864,183.641
396.673,184.44
396.483,185.297
396.292,186.096
396.102,186.896
395.912,187.696
395.721,188.552
395.531,189.352
395.34,190.209
395.15,191.008
394.959,191.808
394.769,192.608
394.579,193.407
394.388,194.15
394.198,194.892
394.007,195.635
393.817,196.377
393.626,197.12
393.436,197.862
393.246,198.662
393.055,199.462
392.865,200.204
392.674,200.947
392.484,201.689
392.294,202.432
392.103,203.174
391.913,203.917
391.722,204.659
391.532,205.345
391.341,206.087
391.151,206.83
390.961,207.572
390.77,208.258
390.58,209
390.389,209.685
390.199,210.371
390.009,210.942
389.818,211.57
389.628,212.199
389.437,212.77
389.247,213.398
389.056,214.026
388.866,214.597
388.676,215.226
388.485,215.854
388.295,216.425
388.104,217.053
387.914,217.682
387.723,218.31
387.533,218.995
387.343,219.738
387.152,220.423
386.962,221.166
386.771,221.908
386.581,222.594
386.391,223.336
386.2,224.079
386.01,224.764
385.819,225.507
385.629,226.249
385.438,226.992
385.248,227.734
385.058,228.477
384.867,229.219
384.677,229.962
384.486,230.761
384.296,231.504
384.105,232.303
383.915,233.046
383.725,233.96
383.534,235.331
383.344,236.758
383.153,238.186
382.963,240.071
382.773,242.299
382.582,244.069
382.392,245.669
382.201,247.211
382.011,248.81
381.82,250.009
381.63,251.152
381.44,252.237
381.249,253.322
381.059,254.464
380.868,255.435
380.678,256.406
380.487,257.32
380.297,258.291
380.107,259.262
379.916,260.005
379.726,260.633
379.535,261.261
379.345,261.947
379.155,262.575
378.964,263.203
378.774,263.832
378.583,264.46
378.393,265.031
378.202,265.488
378.012,265.945
377.822,266.459
377.631,266.916
377.441,267.373
377.25,267.887
377.06,268.401
376.87,268.858
376.679,269.372
376.489,269.829
376.298,270.343
376.108,270.8
375.917,271.314
375.727,271.828
375.537,272.285
375.346,272.799
375.156,273.199
374.965,273.656
374.775,274.112
374.585,274.512
374.394,274.969
374.204,275.426
374.013,275.883
373.823,276.283
373.632,276.511
373.442,276.683
373.252,276.911
373.061,277.082
372.871,277.254
372.68,277.425
372.49,277.654
372.299,277.825
372.109,277.996
371.919,278.168
371.728,278.339
371.538,278.51
371.347,278.682
371.157,278.796
370.966,278.967
370.776,279.139
370.586,279.253
370.395,279.481
370.205,279.71
370.014,279.938
369.824,280.224
369.634,280.452
369.443,280.681
369.253,280.909
369.062,281.195
368.872,281.423
368.681,281.652
368.491,281.823
368.301,281.994
368.11,282.166
367.92,282.394
367.729,282.566
367.539,282.737
367.349,282.737
367.158,282.68
366.968,282.68
366.777,282.68
366.587,282.623
366.396,282.623
366.206,282.566
366.016,282.566
365.825,282.566
365.635,282.623
365.444,282.68
365.254,282.794
365.064,282.851
364.873,282.908
364.683,282.965
364.492,283.023
364.302,283.137
364.111,283.194
363.921,283.251
363.731,283.308
363.54,283.365
363.35,283.479
363.159,283.537
362.969,283.594
362.778,283.651
362.588,283.708
362.398,283.765
362.207,283.765
362.017,283.822
361.826,283.822
361.636,283.822
361.445,283.879
361.255,283.879
361.065,283.936
360.874,283.936
360.684,283.936
360.493,283.822
360.303,283.765
360.113,283.708
359.922,283.594
359.732,283.537
359.541,283.479
359.351,283.422
359.16,283.308
358.97,283.251
358.78,283.194
358.589,283.137
358.399,283.08
358.208,282.965
358.018,282.908
357.828,282.851
357.637,282.851
357.447,282.794
357.256,282.794
357.066,282.737
356.875,282.737
356.685,282.68
356.495,282.566
356.304,282.451
356.114,282.28
355.923,282.109
355.733,281.994
355.542,281.823
355.352,281.709
355.162,281.538
354.971,281.366
354.781,281.138
354.59,280.966
354.4,280.738
354.21,280.567
354.019,280.395
353.829,280.167
353.638,279.995
353.448,279.938
353.257,279.881
353.067,279.824
352.877,279.767
352.686,279.71
352.496,279.424
352.305,279.253
352.115,279.596
351.924,279.538
351.734,279.481
351.544,279.424
351.353,279.367
351.163,279.31
350.972,279.253
350.782,279.196
350.592,279.139
350.401,279.082
350.211,279.024
350.02,278.967
349.83,278.91
349.639,278.91
349.449,278.853
349.259,278.796
349.068,278.739
348.878,278.682
348.687,278.625
348.497,278.568
348.307,278.51
348.116,278.51
347.926,278.51
347.735,278.51
347.545,278.51
347.354,278.51
347.164,278.51
346.974,278.51
346.783,278.51
346.593,278.51
346.402,278.51
346.212,278.51
346.021,278.568
345.831,278.625
345.641,278.739
345.45,278.796
345.26,278.853
345.069,278.967
344.879,279.024
344.689,279.082
344.498,279.139
344.308,279.253
344.117,279.31
343.927,279.424
343.736,279.538
343.546,279.596
343.356,279.767
343.165,280.052
342.975,280.281
342.784,280.567
342.594,280.795
342.403,281.081
342.213,281.366
342.023,281.823
341.832,282.28
341.642,282.68
341.451,282.965
341.261,283.194
341.071,283.422
340.88,283.651
340.69,283.879
340.499,284.108
340.309,284.336
340.118,284.508
339.928,284.736
339.738,284.964
339.547,285.193
339.357,285.364
339.166,285.479
338.976,285.593
338.786,285.707
338.595,285.821
338.405,285.935
338.214,285.993
338.024,286.107
337.833,286.221
337.643,286.335
337.453,286.45
337.262,286.507
337.072,286.45
336.881,286.45
336.691,286.45
336.5,286.392
336.31,286.392
336.12,286.392
335.929,286.335
335.739,286.335
335.548,286.335
335.358,286.278
335.168,286.335
334.977,286.335
334.787,286.392
334.596,286.392
334.406,286.392
334.215,286.45
334.025,286.45
333.835,286.507
333.644,286.507
333.454,286.507
333.263,286.564
333.073,286.507
332.882,286.392
332.692,286.278
332.502,286.221
332.311,286.107
332.121,285.935
331.93,285.935
331.74,285.993
331.55,286.05
331.359,286.107
331.169,286.164
330.978,286.45
330.788,286.792
330.597,287.078
330.407,287.42
330.217,287.706
330.026,288.049
329.836,288.391
329.645,288.791
329.455,289.191
329.264,289.648
329.074,290.048
328.884,290.505
328.693,290.905
328.503,291.19
328.312,291.419
328.122,291.704
327.932,291.99
327.741,292.275
327.551,292.618
327.36,293.132
327.17,293.646
326.979,294.16
326.789,294.96
326.599,296.102
326.408,297.302
326.218,298.558
326.027,299.758
325.837,301.071
325.647,302.328
325.456,303.584
325.266,304.898
325.075,306.155
324.885,307.64
324.694,309.182
324.504,310.781
324.314,312.323
324.123,313.865
323.933,315.579
323.742,317.406
323.552,319.177
323.361,320.948
323.171,322.775
322.981,324.489
322.79,326.202
322.6,327.973
322.409,329.629
322.219,331.343
322.029,332.942
321.838,334.484
321.648,335.969
321.457,337.511
321.267,339.053
321.076,340.253
320.886,341.053
320.696,341.852
320.505,342.652
320.315,343.451
320.124,344.251
319.934,345.108
319.743,345.85
319.553,346.593
319.363,347.278
319.172,347.964
318.982,348.706
318.791,349.391
318.601,350.077
318.411,350.819
318.22,351.505
318.03,352.19
317.839,352.933
317.649,353.618
317.458,354.303
317.268,354.646
317.078,354.932
316.887,355.217
316.697,355.503
316.506,355.731
316.316,356.017
316.125,356.303
315.935,356.588
315.745,356.874
315.554,357.159
315.364,357.445
315.173,357.73
314.983,358.016
314.793,358.302
314.602,358.587
314.412,358.873
314.221,359.158
314.031,359.501
313.84,359.787
313.65,360.129
313.46,360.472
313.269,360.815
313.079,361.1
312.888,361.443
312.698,361.729
312.508,362.071
312.317,362.414
312.127,362.7
311.936,362.985
311.746,363.214
311.555,363.385
311.365,363.613
311.175,363.842
310.984,364.07
310.794,364.242
310.603,364.47
310.413,364.699
310.222,364.87
310.032,365.098
309.842,365.27
309.651,365.441
309.461,365.555
309.27,365.727
309.08,365.898
308.89,366.069
308.699,366.241
308.509,366.412
308.318,366.526
308.128,366.698
307.937,366.869
307.747,366.983
307.557,367.097
307.366,367.155
307.176,367.212
306.985,367.269
306.795,367.326
306.604,367.383
306.414,367.44
306.224,367.497
306.033,367.554
305.843,367.612
305.652,367.669
305.462,367.726
305.272,367.783
305.081,367.783
304.891,367.783
304.7,367.783
304.51,367.783
304.319,367.726
304.129,367.726
303.939,367.726
303.748,367.726
303.558,367.726
303.367,367.669
303.177,367.669
302.987,367.669
302.796,367.669
302.606,367.669
302.415,367.612
302.225,367.612
302.034,367.612
301.844,367.612
301.654,367.612
301.463,367.612
301.273,367.612
301.082,367.612
300.892,367.612
300.701,367.783
300.511,368.126
300.321,368.468
300.13,368.811
299.94,369.154
299.749,369.496
299.559,369.782
299.369,370.182
299.178,370.524
298.988,370.867
298.797,371.153
298.607,371.267
298.416,371.267
298.226,371.267
298.036,371.267
297.845,371.267
297.655,371.267
297.464,371.267
297.274,371.267
297.083,371.267
296.893,371.267
296.703,371.21
296.512,371.21
296.322,371.153
296.131,371.153
295.941,371.096
295.751,371.096
295.56,371.038
295.37,371.038
295.179,370.639
294.989,370.467
294.798,370.924
294.608,370.867
294.418,370.696
294.227,370.524
294.037,370.353
293.846,370.125
293.656,369.953
293.466,369.782
293.275,369.553
293.085,369.382
292.894,369.211
292.704,369.039
292.513,368.868
292.323,368.754
292.133,368.64
291.942,368.468
291.752,368.354
291.561,368.24
291.371,368.068
291.18,367.897
290.99,367.669
290.8,367.383
290.609,367.155
290.419,366.869
290.228,366.583
290.038,366.298
289.848,366.126
289.657,366.069
289.467,365.955
289.276,365.898
289.086,365.784
288.895,365.727
288.705,365.67
288.515,365.555
288.324,365.498
288.134,365.441
287.943,365.441
287.753,365.384
287.562,365.384
287.372,365.327
287.182,365.27
286.991,365.27
286.801,365.213
286.61,365.213
286.42,365.156
286.23,365.098
286.039,365.098
285.849,365.041
285.658,365.041
285.468,364.984
285.277,364.927
285.087,364.927
284.897,364.927
284.706,364.984
284.516,365.041
284.325,365.098
284.135,365.156
283.945,365.213
283.754,365.327
283.564,365.327
283.373,365.27
283.183,365.213
282.992,365.156
282.802,365.098
282.612,365.041
282.421,364.927
282.231,364.756
282.04,364.527
281.85,364.299
281.659,364.07
281.469,363.842
281.279,363.556
281.088,363.271
280.898,362.928
280.707,362.642
280.517,362.357
280.327,362.071
280.136,361.786
279.946,361.614
279.755,361.5
279.565,361.386
279.374,361.215
279.184,361.1
278.994,361.043
278.803,360.929
278.613,360.872
278.422,360.815
278.232,360.7
278.041,360.643
277.851,360.586
277.661,360.472
277.47,360.415
277.28,360.358
277.089,360.301
276.899,360.186
276.708,360.129
276.518,360.072
276.328,359.958
276.137,359.901
275.947,359.787
275.756,359.729
275.566,359.672
275.376,359.558
275.185,359.501
274.995,359.444
274.804,359.33
274.614,359.273
274.423,359.215
274.233,359.101
274.043,358.987
273.852,358.873
273.662,358.701
273.471,358.587
273.281,358.473
273.091,358.302
272.9,358.187
272.71,358.073
272.519,357.902
272.329,357.788
272.138,357.673
271.948,357.502
271.758,357.388
271.567,357.216
271.377,357.102
271.186,356.931
270.996,356.874
270.806,356.817
270.615,356.759
270.425,356.702
270.234,356.588
270.044,356.531
269.853,356.474
269.663,356.417
269.473,356.36
269.282,356.245
269.092,356.188
268.901,356.131
268.711,356.017
268.52,355.846
268.33,355.617
268.14,355.446
267.949,355.274
267.759,355.046
267.568,354.875
267.378,354.703
267.188,354.475
266.997,354.303
266.807,353.961
266.616,353.618
266.426,353.275
266.235,352.876
266.045,352.533
265.855,352.19
265.664,351.733
265.474,351.219
265.283,350.762
265.093,350.077
264.902,349.106
264.712,348.135
264.522,347.164
264.331,346.136
264.141,345.051
263.95,344.023
263.76,342.88
263.57,342.138
263.379,341.281
263.189,340.082
262.998,338.882
262.808,337.683
262.617,336.54
262.427,335.626
262.237,334.77
262.046,333.856
261.856,332.999
261.665,331.914
261.475,330.714
261.284,329.515
261.094,328.258
260.904,326.602
260.713,324.774
260.523,322.947
260.332,320.891
260.142,318.663
259.952,316.55
259.761,315.35
259.571,314.379
259.38,313.465
259.19,312.552
258.999,311.695
258.809,310.952
258.619,310.153
258.428,309.41
258.238,308.668
258.047,307.925
257.857,307.183
257.667,306.383
257.476,305.641
257.286,304.841
257.095,304.041
256.905,303.299
256.714,302.499
256.524,301.871
256.334,301.3
256.143,300.729
255.953,300.157
255.762,299.586
255.572,299.015
255.381,298.444
255.191,297.93
255.001,297.473
254.81,296.959
254.62,296.502
254.429,295.988
254.239,295.531
254.049,295.074
253.858,294.617
253.668,294.16
253.477,293.646
253.287,293.189
253.096,292.732
252.906,292.332
252.716,291.933
252.525,291.59
252.335,291.19
252.144,290.79
251.954,290.391
251.763,290.048
251.573,289.648
251.383,289.248
251.192,288.848
251.002,288.506
250.811,288.163
250.621,287.82
250.431,287.478
250.24,287.192
250.05,286.849
249.859,286.507
249.669,286.221
249.478,285.878
249.288,285.536
249.098,285.25
248.907,284.907
248.717,284.622
248.526,284.336
248.336,284.108
248.145,283.822
247.955,283.537
247.765,283.308
247.574,283.023
247.384,282.737
247.193,282.508
247.003,282.223
246.813,281.937
246.622,281.709
246.432,281.366
246.241,280.909
246.051,280.452
245.86,279.995
245.67,279.538
245.48,279.024
245.289,278.339
245.099,277.482
244.908,276.511
244.718,275.141
244.528,273.77
244.337,272.342
244.147,270.857
243.956,269.372
243.766,268.115
243.575,267.373
243.385,266.63
243.195,266.059
243.004,265.773
242.814,265.488
242.623,265.202
242.433,264.974
242.242,264.688
242.052,264.346
241.862,263.946
241.671,263.546
241.481,263.146
241.29,262.746
241.1,262.175
240.91,261.147
240.719,260.005
240.529,258.748
240.338,257.435
240.148,256.121
239.957,254.864
239.767,253.608
239.577,252.408
239.386,251.095
239.196,249.724
239.005,248.296
238.815,246.868
238.624,245.669
238.434,244.755
238.244,244.012
238.053,243.327
237.863,242.641
237.672,242.013
237.482,241.499
237.292,240.985
237.101,240.471
236.911,239.957
236.72,239.443
236.53,238.986
236.339,238.529
236.149,238.072
235.959,237.558
235.768,237.101
235.578,236.701
235.387,236.244
235.197,235.845
235.006,235.445
234.816,235.045
234.626,234.759
234.435,234.474
234.245,234.245
234.054,233.96
233.864,233.731
233.674,233.446
233.483,233.217
233.293,232.989
233.102,232.875
232.912,232.76
232.721,232.703
232.531,232.589
232.341,232.475
232.15,232.361
231.96,232.246
231.769,232.189
231.579,232.132
231.389,232.132
231.198,232.075
231.008,232.075
230.817,232.075
230.627,232.075
230.436,232.075
230.246,232.075
230.056,232.018
229.865,232.018
229.675,232.018
229.484,232.018
229.294,232.018
229.103,232.018
228.913,231.961
228.723,231.961
228.532,231.961
228.342,231.961
228.151,231.961
227.961,232.018
227.771,232.075
227.58,232.132
227.39,232.189
227.199,232.246
227.009,232.361
226.818,232.418
226.628,232.475
226.438,232.532
226.247,232.589
226.057,232.703
225.866,232.76
225.676,232.817
225.485,232.875
225.295,232.989
225.105,233.046
224.914,233.103
224.724,233.16
224.533,233.274
224.343,233.332
224.153,233.389
223.962,233.503
223.772,233.617
223.581,233.788
223.391,233.903
223.2,234.017
223.01,234.131
222.82,234.302
222.629,234.417
222.439,234.531
222.248,234.645
222.058,234.759
221.867,234.931
221.677,235.045
221.487,235.159
221.296,235.273
221.106,235.445
220.915,235.559
220.725,235.73
220.535,235.959
220.344,236.187
220.154,236.359
219.963,236.587
219.773,236.816
219.582,237.044
219.392,237.273
219.202,237.444
219.011,237.672
218.821,237.901
218.63,238.129
218.44,238.301
218.25,238.529
218.059,238.758
217.869,238.986
217.678,239.214
217.488,239.386
217.297,239.5
217.107,239.614
216.917,239.729
216.726,239.843
216.536,239.957
216.345,240.071
216.155,240.185
215.964,240.3
215.774,240.414
215.584,240.585
215.393,240.699
215.203,240.814
215.012,240.928
214.822,241.042
214.632,241.156
214.441,241.271
214.251,241.385
214.06,241.499
213.87,241.613
213.679,241.728
213.489,241.842
213.299,241.899
213.108,241.956
212.918,242.07
212.727,242.127
212.537,242.185
212.346,242.242
212.156,242.299
211.966,242.413
211.775,242.47
211.585,242.527
211.394,238.815
211.204,242.299
211.014,242.756
210.823,242.813
210.633,242.87
210.442,242.927
210.252,242.927
210.061,242.756
209.871,242.584
209.681,242.413
209.49,242.299
209.3,242.127
209.109,241.956
208.919,241.785
208.729,241.613
208.538,241.442
208.348,241.271
208.157,241.156
207.967,240.985
207.776,240.814
207.586,240.642
207.396,240.471
207.205,240.3
207.015,240.128
206.824,239.9
206.634,239.557
206.443,239.272
206.253,238.986
206.063,238.643
205.872,238.358
205.682,238.015
205.491,237.729
205.301,237.387
205.111,237.101
204.92,236.758
204.73,236.473
204.539,236.13
204.349,235.845
204.158,235.502
203.968,235.216
203.778,234.759
203.587,234.36
203.397,233.903
203.206,233.446
203.016,232.932
202.826,232.475
202.635,232.018
202.445,231.561
202.254,231.161
202.064,230.704
201.873,230.247
201.683,229.79
201.493,229.333
201.302,228.876
201.112,228.362
200.921,227.848
200.731,227.334
200.54,226.82
200.35,226.306
200.16,225.849
199.969,225.335
199.779,224.821
199.588,224.307
199.398,223.793
199.208,223.336
199.017,222.822
198.827,222.308
198.636,221.737
198.446,221.166
198.255,220.595
198.065,219.966
197.875,219.395
197.684,218.824
197.494,218.253
197.303,217.682
197.113,217.111
196.922,216.539
196.732,215.968
196.542,215.397
196.351,214.826
196.161,214.255
195.97,213.684
195.78,213.112
195.59,212.541
195.399,211.97
195.209,211.285
195.018,210.599
194.828,209.914
194.637,209.229
194.447,208.6
194.257,207.915
194.066,207.229
193.876,206.544
193.685,205.859
193.495,205.23
193.305,204.545
193.114,203.86
192.924,203.231
192.733,202.489
192.543,201.803
192.352,201.118
192.162,200.376
191.972,199.69
191.781,199.005
191.591,198.262
191.4,197.577
191.21,196.834
191.019,196.092
190.829,195.292
190.639,194.435
190.448,193.636
190.258,192.779
190.067,191.979
189.877,191.123
189.687,190.266
189.496,189.409
189.306,188.61
189.115,187.81
188.925,187.01
188.734,186.211
188.544,185.354
188.354,184.554
188.163,183.755
187.973,182.955
187.782,182.155
187.592,181.356
187.401,180.556
187.211,179.757
187.021,178.957
186.83,178.157
186.64,177.358
186.449,176.558
186.259,175.816
186.069,175.187
185.878,174.502
185.688,173.874
185.497,173.188
185.307,172.56
185.116,171.875
184.926,171.246
184.736,170.618
184.545,170.047
184.355,169.533
184.164,169.019
183.974,168.505
183.783,167.991
183.593,167.477
183.403,166.963
183.212,166.506
183.022,166.049
182.831,165.649
182.641,165.192
182.451,164.792
182.26,164.392
182.07,163.935
181.879,163.536
181.689,163.079
181.498,162.622
181.308,162.051
181.118,161.422
180.927,160.68
180.737,159.652
180.546,158.395
180.356,157.196
180.166,155.939
179.975,154.797
179.785,153.883
179.594,153.026
179.404,152.169
179.213,151.313
179.023,150.17
178.833,148.628
178.642,146.972
178.452,145.601
178.261,144.459
178.071,143.316
177.88,142.174
177.69,141.089
177.5,140.004
177.309,139.033
177.119,137.948
176.928,136.919
176.738,135.949
176.548,134.635
176.357,132.921
176.167,131.208
175.976,129.894
175.786,128.752
175.595,128.009
175.405,127.61
175.215,127.21
175.024,126.753
174.834,126.353
174.643,125.896
174.453,125.039
174.262,123.954
174.072,122.926
173.882,121.898
173.691,120.927
173.501,119.899
173.31,118.928
173.12,118.014
172.93,117.157
172.739,116.243
172.549,115.387
172.358,114.473
172.168,113.388
171.977,112.245
171.787,111.103
171.597,109.961
171.406,108.933
171.216,107.847
171.025,106.819
170.835,105.734
170.644,104.649
170.454,103.621
170.264,102.593
170.073,101.565
169.883,100.537
169.692,99.6798
169.502,98.9944
169.312,98.309
169.121,97.6236
168.931,96.9953
168.74,96.3099
168.55,95.6246
168.359,94.9391
168.169,94.3109
167.979,93.6255
167.788,92.9401
167.598,92.3118
167.407,91.7978
167.217,91.3408
167.027,90.941
166.836,90.4841
166.646,90.0272
166.455,89.5702
166.265,89.1133
166.074,88.6564
165.884,88.2566
165.694,87.7997
165.503,87.3427
165.313,86.8858
165.122,86.486
164.932,86.0862
164.741,85.7435
164.551,85.3437
164.361,85.0009
164.17,84.6011
163.98,84.2585
163.789,83.9157
163.599,83.5159
163.409,83.1732
163.218,82.8305
163.028,82.4307
162.837,82.088
162.647,81.7453
162.456,81.3455
162.266,81.0028
162.076,80.6601
161.885,80.4317
161.695,80.1461
161.504,79.9176
161.314,79.632
161.123,79.4036
160.933,79.1751
160.743,78.8895
160.552,78.661
160.362,78.4326
160.171,78.147
159.981,77.9185
159.791,77.6901
159.6,77.4616
159.41,77.2332
159.219,77.0618
159.029,76.8905
158.838,76.7191
158.648,76.5478
158.458,76.3764
158.267,76.205
158.077,76.0337
157.886,75.8624
157.696,75.691
157.505,75.5197
157.315,75.3483
157.125,75.177
156.934,75.0056
156.744,74.8343
156.553,74.6629
156.363,74.4916
156.173,74.2631
155.982,74.0918
155.792,73.8633
155.601,73.692
155.411,73.4635
155.22,73.2921
155.03,73.0637
154.84,72.8923
154.649,72.6638
154.459,72.4354
154.268,72.264
154.078,72.0356
153.888,71.8642
153.697,71.6358
153.507,71.4644
153.316,71.236
153.126,71.1789
152.935,71.0646
152.745,70.9504
152.555,70.8932
152.364,70.7791
152.174,70.6648
151.983,70.6077
151.793,70.4934
151.602,70.3792
151.412,70.265
151.222,70.2079
151.031,70.1508
150.841,70.1508
150.65,70.1508
150.46,70.1508
150.27,70.0936
150.079,70.0936
149.889,70.0936
149.698,70.0936
149.508,70.0936
149.317,70.0365
149.127,70.0365
148.937,70.0365
148.746,70.0365
148.556,70.0365
148.365,69.9794
148.175,69.9794
147.984,69.9794
147.794,69.9794
147.604,70.0365
147.413,70.0365
147.223,70.0365
147.032,70.0365
146.842,70.0365
146.652,70.0936
146.461,70.0936
146.271,70.0936
146.08,70.0936
145.89,70.0936
145.699,70.1508
145.509,70.1508
145.319,70.1508
145.128,70.1508
144.938,70.1508
144.747,70.1508
144.557,70.2079
144.366,70.2079
144.176,70.2079
143.986,70.2079
143.795,70.2079
143.605,70.265
143.414,70.265
143.224,70.265
143.034,70.265
142.843,70.3221
142.653,70.3221
142.462,70.3221
142.272,70.3221
142.081,70.3221
141.891,70.3792
141.701,70.3792
141.51,70.3792
141.32,70.3792
141.129,70.3792
140.939,70.4363
140.749,70.4363
140.558,70.4363
140.368,70.4363
140.177,70.4934
139.987,70.4934
139.796,70.4934
139.606,70.4934
139.416,70.4934
139.225,70.5506
139.035,70.5506
138.844,70.5506
138.654,70.4934
138.463,70.4934
138.273,70.4934
138.083,70.4934
137.892,70.4934
137.702,70.4934
137.511,70.4363
137.321,70.4363
137.131,70.4363
136.94,70.4363
136.75,70.4363
136.559,70.3792
136.369,70.3792
136.178,70.3792
135.988,70.3792
135.798,70.3792
135.607,70.3221
135.417,70.3221
135.226,70.3221
135.036,70.3221
134.845,70.3221
134.655,70.265
134.465,70.265
134.274,70.265
134.084,70.265
133.893,70.265
133.703,70.265
133.513,70.2079
133.322,70.2079
133.132,70.2079
132.941,70.2079
132.751,70.2079
132.56,70.1508
132.37,70.1508
132.18,70.1508
131.989,70.0936
131.799,70.0936
131.608,70.0365
131.418,70.0365
131.227,69.9794
131.037,69.9794
130.847,69.9223
130.656,69.9223
130.466,69.8652
130.275,69.8652
130.085,69.8652
129.895,69.808
129.704,69.808
129.514,69.7509
129.323,69.0084
129.133,68.4944
128.942,69.6938
128.752,69.6367
128.562,69.6367
128.371,69.5796
128.181,69.5796
127.99,69.5796
127.8,69.5225
127.61,69.5225
127.419,69.4654
127.229,69.4654
127.038,69.4082
126.848,69.4082
126.657,69.3511
126.467,69.3511
126.277,69.3511
126.086,69.294
125.896,69.294
125.705,69.2369
125.515,69.2369
125.324,69.1798
125.134,69.1798
124.944,69.1227
124.753,69.1227
124.563,69.0656
124.372,69.0656
124.182,69.0656
123.992,69.0084
123.801,69.0084
123.611,68.9513
123.42,68.9513
123.23,68.9513
123.039,68.8942
122.849,68.8942
122.659,68.8371
122.468,68.78
122.278,68.78
122.087,68.78
121.897,68.7229
121.707,68.7229
121.516,68.6657
121.326,68.6657
121.135,68.6657
120.945,68.6086
120.754,68.6086
120.564,68.5515
120.374,68.5515
120.183,68.4944
119.993,68.4944
119.802,68.4944
119.612,68.4373
119.421,68.4373
119.231,68.3802
119.041,68.3802
118.85,68.3231
118.66,68.3231
118.469,68.2659
118.279,68.2659
118.089,68.2088
117.898,68.1517
117.708,68.0946
117.517,68.0374
117.327,68.0374
117.136,67.9803
116.946,67.9232
116.756,67.8661
116.565,67.8661
116.375,67.809
116.184,67.7519
115.994,67.6948
115.803,67.6376
115.613,67.6376
115.423,67.5805
115.232,67.5234
115.042,67.4663
114.851,67.4663
114.661,67.4092
114.471,67.3521
114.28,67.295
114.09,67.2378
113.899,67.2378
113.709,67.1807
113.518,67.1236
113.328,67.0665
113.138,67.0094
112.947,67.0094
112.757,67.0094
112.566,66.9522
112.376,66.9522
112.186,66.9522
111.995,66.9522
111.805,66.8951
111.614,66.8951
111.424,66.8951
111.233,66.838
111.043,66.838
110.853,66.838
110.662,66.7809
110.472,66.7809
110.281,66.7809
110.091,66.7809
109.9,66.7238
109.71,66.7238
109.52,66.7238
109.329,66.6667
109.139,66.6667
108.948,66.6667
108.758,66.6667
108.568,66.6667
108.377,66.7238
108.187,66.7809
107.996,66.838
107.806,66.8951
107.615,66.8951
107.425,66.9522
107.235,67.0094
107.044,67.0665
106.854,67.1236
106.663,67.1807
106.473,67.1807
106.282,67.2378
106.092,67.295
105.902,67.3521
105.711,67.4092
105.521,67.4663
105.33,67.4663
105.14,67.5234
104.95,67.5805
104.759,67.5234
104.569,67.4663
104.378,67.4663
104.188,67.4092
103.997,67.3521
103.807,67.295
103.617,67.2378
103.426,67.2378
103.236,67.1807
103.045,67.1236
102.855,67.0665
102.664,67.0094
102.474,67.0094
102.284,66.9522
102.093,66.8951
101.903,66.838
101.712,66.7809
101.522,66.7809
101.332,66.7238
101.141,66.838
100.951,67.0094
100.76,67.1236
100.57,67.2378
100.379,67.3521
100.189,67.4663
99.9986,67.5805
99.8082,67.7519
99.6178,68.0946
99.4274,68.4373
99.2369,68.78
99.0465,69.1227
98.8561,69.5225
98.6657,69.9223
98.4753,70.3221
98.2848,70.7791
98.0944,71.236
97.904,71.6929
97.7136,72.2069
97.5231,72.7781
97.3327,73.3492
97.1423,73.9775
96.9519,74.5487
96.7615,75.177
96.571,75.7481
96.3806,76.3193
96.1902,76.9476
95.9998,77.5187
95.8094,78.147
95.6189,78.7182
95.4285,79.3465
95.2381,79.632" />
</g>
</svg>
