<?xml version="1.0"?>
<svg version="1.1"
     xmlns="http://www.w3.org/2000/svg"
     xmlns:xlink="http://www.w3.org/1999/xlink"
     viewBox="0 0 800 600">
<g>
<text fill="#000000" font-family="sans-serif" font-size="19.0476" text-anchor="start" x="4.7619" y="591.429" >
NIST Chemistry WebBook (https://webbook.nist.gov/chemistry)
</text>
<polyline stroke="#000000" stroke-width="1.19048" fill="none" points="95.2381,514.286
742.857,514.286
742.857,66.6667
95.2381,66.6667
95.2381,514.286" />
<text fill="#000000" font-family="sans-serif" font-size="19.0476" text-anchor="middle" x="419.048" y="24.7619" >
[(3-Hydroxy-2-quinoxalinyl)carbonyl] urea
</text>
<text fill="#000000" font-family="sans-serif" font-size="19.0476" text-anchor="middle" x="419.048" y="53.3333" >
INFRARED SPECTRUM
</text>
<text fill="#000000" font-family="sans-serif" font-size="19.0476" text-anchor="middle" x="419.048" y="558.095" >
Wavenumber (cm-1)
</text>
<text fill="#000000" font-family="sans-serif" font-size="19.0476" text-anchor="middle" transform="translate(20,290.476) rotate(270)" x="0" y="0" >
Transmitance
</text>
<text fill="#000000" font-family="sans-serif" font-size="19.0476" text-anchor="middle" x="625.763" y="534.286" >
1000
</text>
<line stroke="#000000" stroke-width="1.19048" x1="625.763" y1="514.286" x2="625.763" y2="504.762" />
<text fill="#000000" font-family="sans-serif" font-size="19.0476" text-anchor="middle" x="436.29" y="534.286" >
2000
</text>
<line stroke="#000000" stroke-width="1.19048" x1="436.29" y1="514.286" x2="436.29" y2="504.762" />
<text fill="#000000" font-family="sans-serif" font-size="19.0476" text-anchor="middle" x="246.817" y="534.286" >
3000
</text>
<line stroke="#000000" stroke-width="1.19048" x1="246.817" y1="514.286" x2="246.817" y2="504.762" />
<line stroke="#000000" stroke-width="1.19048" x1="739.447" y1="514.286" x2="739.447" y2="509.524" />
<line stroke="#000000" stroke-width="1.19048" x1="720.499" y1="514.286" x2="720.499" y2="509.524" />
<line stroke="#000000" stroke-width="1.19048" x1="701.552" y1="514.286" x2="701.552" y2="509.524" />
<line stroke="#000000" stroke-width="1.19048" x1="682.605" y1="514.286" x2="682.605" y2="509.524" />
<line stroke="#000000" stroke-width="1.19048" x1="663.657" y1="514.286" x2="663.657" y2="509.524" />
<line stroke="#000000" stroke-width="1.19048" x1="644.71" y1="514.286" x2="644.71" y2="509.524" />
<line stroke="#000000" stroke-width="1.19048" x1="625.763" y1="514.286" x2="625.763" y2="509.524" />
<line stroke="#000000" stroke-width="1.19048" x1="606.815" y1="514.286" x2="606.815" y2="509.524" />
<line stroke="#000000" stroke-width="1.19048" x1="587.868" y1="514.286" x2="587.868" y2="509.524" />
<line stroke="#000000" stroke-width="1.19048" x1="568.921" y1="514.286" x2="568.921" y2="509.524" />
<line stroke="#000000" stroke-width="1.19048" x1="549.974" y1="514.286" x2="549.974" y2="509.524" />
<line stroke="#000000" stroke-width="1.19048" x1="531.026" y1="514.286" x2="531.026" y2="509.524" />
<line stroke="#000000" stroke-width="1.19048" x1="512.079" y1="514.286" x2="512.079" y2="509.524" />
<line stroke="#000000" stroke-width="1.19048" x1="493.132" y1="514.286" x2="493.132" y2="509.524" />
<line stroke="#000000" stroke-width="1.19048" x1="474.184" y1="514.286" x2="474.184" y2="509.524" />
<line stroke="#000000" stroke-width="1.19048" x1="455.237" y1="514.286" x2="455.237" y2="509.524" />
<line stroke="#000000" stroke-width="1.19048" x1="436.29" y1="514.286" x2="436.29" y2="509.524" />
<line stroke="#000000" stroke-width="1.19048" x1="417.342" y1="514.286" x2="417.342" y2="509.524" />
<line stroke="#000000" stroke-width="1.19048" x1="398.395" y1="514.286" x2="398.395" y2="509.524" />
<line stroke="#000000" stroke-width="1.19048" x1="379.448" y1="514.286" x2="379.448" y2="509.524" />
<line stroke="#000000" stroke-width="1.19048" x1="360.5" y1="514.286" x2="360.5" y2="509.524" />
<line stroke="#000000" stroke-width="1.19048" x1="341.553" y1="514.286" x2="341.553" y2="509.524" />
<line stroke="#000000" stroke-width="1.19048" x1="322.606" y1="514.286" x2="322.606" y2="509.524" />
<line stroke="#000000" stroke-width="1.19048" x1="303.659" y1="514.286" x2="303.659" y2="509.524" />
<line stroke="#000000" stroke-width="1.19048" x1="284.711" y1="514.286" x2="284.711" y2="509.524" />
<line stroke="#000000" stroke-width="1.19048" x1="265.764" y1="514.286" x2="265.764" y2="509.524" />
<line stroke="#000000" stroke-width="1.19048" x1="246.817" y1="514.286" x2="246.817" y2="509.524" />
<line stroke="#000000" stroke-width="1.19048" x1="227.869" y1="514.286" x2="227.869" y2="509.524" />
<line stroke="#000000" stroke-width="1.19048" x1="208.922" y1="514.286" x2="208.922" y2="509.524" />
<line stroke="#000000" stroke-width="1.19048" x1="189.975" y1="514.286" x2="189.975" y2="509.524" />
<line stroke="#000000" stroke-width="1.19048" x1="171.027" y1="514.286" x2="171.027" y2="509.524" />
<line stroke="#000000" stroke-width="1.19048" x1="152.08" y1="514.286" x2="152.08" y2="509.524" />
<line stroke="#000000" stroke-width="1.19048" x1="133.133" y1="514.286" x2="133.133" y2="509.524" />
<line stroke="#000000" stroke-width="1.19048" x1="114.185" y1="514.286" x2="114.185" y2="509.524" />
<line stroke="#000000" stroke-width="1.19048" x1="95.2381" y1="514.286" x2="95.2381" y2="509.524" />
<text fill="#000000" font-family="sans-serif" font-size="19.0476" text-anchor="end" x="90.4762" y="453.969" >
0.2
</text>
<line stroke="#000000" stroke-width="1.19048" x1="95.2381" y1="449.683" x2="104.762" y2="449.683" />
<text fill="#000000" font-family="sans-serif" font-size="19.0476" text-anchor="end" x="90.4762" y="359.104" >
0.4
</text>
<line stroke="#000000" stroke-width="1.19048" x1="95.2381" y1="354.818" x2="104.762" y2="354.818" />
<text fill="#000000" font-family="sans-serif" font-size="19.0476" text-anchor="end" x="90.4762" y="264.239" >
0.6
</text>
<line stroke="#000000" stroke-width="1.19048" x1="95.2381" y1="259.953" x2="104.762" y2="259.953" />
<text fill="#000000" font-family="sans-serif" font-size="19.0476" text-anchor="end" x="90.4762" y="169.375" >
0.8
</text>
<line stroke="#000000" stroke-width="1.19048" x1="95.2381" y1="165.089" x2="104.762" y2="165.089" />
<text fill="#000000" font-family="sans-serif" font-size="19.0476" text-anchor="end" x="90.4762" y="74.5098" >
1
</text>
<line stroke="#000000" stroke-width="1.19048" x1="95.2381" y1="70.2241" x2="104.762" y2="70.2241" />
<line stroke="#000000" stroke-width="1.19048" x1="95.2381" y1="497.115" x2="100" y2="497.115" />
<line stroke="#000000" stroke-width="1.19048" x1="95.2381" y1="473.399" x2="100" y2="473.399" />
<line stroke="#000000" stroke-width="1.19048" x1="95.2381" y1="449.683" x2="100" y2="449.683" />
<line stroke="#000000" stroke-width="1.19048" x1="95.2381" y1="425.967" x2="100" y2="425.967" />
<line stroke="#000000" stroke-width="1.19048" x1="95.2381" y1="402.251" x2="100" y2="402.251" />
<line stroke="#000000" stroke-width="1.19048" x1="95.2381" y1="378.534" x2="100" y2="378.534" />
<line stroke="#000000" stroke-width="1.19048" x1="95.2381" y1="354.818" x2="100" y2="354.818" />
<line stroke="#000000" stroke-width="1.19048" x1="95.2381" y1="331.102" x2="100" y2="331.102" />
<line stroke="#000000" stroke-width="1.19048" x1="95.2381" y1="307.386" x2="100" y2="307.386" />
<line stroke="#000000" stroke-width="1.19048" x1="95.2381" y1="283.67" x2="100" y2="283.67" />
<line stroke="#000000" stroke-width="1.19048" x1="95.2381" y1="259.953" x2="100" y2="259.953" />
<line stroke="#000000" stroke-width="1.19048" x1="95.2381" y1="236.237" x2="100" y2="236.237" />
<line stroke="#000000" stroke-width="1.19048" x1="95.2381" y1="212.521" x2="100" y2="212.521" />
<line stroke="#000000" stroke-width="1.19048" x1="95.2381" y1="188.805" x2="100" y2="188.805" />
<line stroke="#000000" stroke-width="1.19048" x1="95.2381" y1="165.089" x2="100" y2="165.089" />
<line stroke="#000000" stroke-width="1.19048" x1="95.2381" y1="141.373" x2="100" y2="141.373" />
<line stroke="#000000" stroke-width="1.19048" x1="95.2381" y1="117.656" x2="100" y2="117.656" />
<line stroke="#000000" stroke-width="1.19048" x1="95.2381" y1="93.9402" x2="100" y2="93.9402" />
<line stroke="#000000" stroke-width="1.19048" x1="95.2381" y1="70.2241" x2="100" y2="70.2241" />
<polyline stroke="#FF0000" stroke-width="1.19048" fill="none" points="95.2381,157.262
95.4276,157.262
95.617,157.262
95.8065,157.262
95.996,157.12
96.1855,157.12
96.3749,156.978
96.5644,156.978
96.7539,156.836
96.9434,156.788
97.1328,156.741
97.3223,156.646
97.5118,156.646
97.7012,156.551
97.8907,156.456
98.0802,156.409
98.2697,156.314
98.4591,156.266
98.6486,156.172
98.8381,156.124
99.0276,156.077
99.217,156.029
99.4065,155.934
99.596,155.887
99.7855,155.792
99.9749,155.745
100.164,155.65
100.354,155.602
100.543,155.555
100.733,155.507
100.922,155.413
101.112,155.365
101.301,155.27
101.491,155.223
101.68,155.128
101.87,155.033
102.059,154.938
102.249,154.891
102.438,154.796
102.628,154.749
102.817,154.654
103.006,154.606
103.196,154.464
103.385,154.417
103.575,154.322
103.764,154.322
103.954,154.274
104.143,154.274
104.333,154.179
104.522,154.179
104.712,154.132
104.901,154.132
105.091,154.085
105.28,154.085
105.47,154.037
105.659,154.037
105.849,153.99
106.038,153.942
106.228,153.895
106.417,153.895
106.606,153.847
106.796,153.847
106.985,153.8
107.175,153.8
107.364,153.753
107.554,153.705
107.743,153.658
107.933,153.658
108.122,153.61
108.312,153.563
108.501,153.468
108.691,153.42
108.88,153.326
109.07,153.278
109.259,153.183
109.449,153.136
109.638,153.041
109.828,152.994
110.017,152.899
110.206,152.851
110.396,152.756
110.585,152.709
110.775,152.614
110.964,152.567
111.154,152.472
111.343,152.424
111.533,152.377
111.722,152.282
111.912,152.235
112.101,152.14
112.291,152.045
112.48,151.95
112.67,151.903
112.859,151.76
113.049,151.665
113.238,151.571
113.428,151.476
113.617,151.428
113.806,151.333
113.996,151.239
114.185,151.144
114.375,151.049
114.564,150.954
114.754,150.859
114.943,150.764
115.133,150.669
115.322,150.574
115.512,150.527
115.701,150.432
115.891,150.337
116.08,150.242
116.27,150.195
116.459,150.1
116.649,150.053
116.838,150.005
117.028,150.005
117.217,149.91
117.406,149.863
117.596,149.863
117.785,149.768
117.975,149.721
118.164,149.673
118.354,149.673
118.543,149.578
118.733,149.531
118.922,149.531
119.112,149.436
119.301,149.389
119.491,149.294
119.68,149.246
119.87,149.152
120.059,149.104
120.249,149.009
120.438,148.914
120.627,148.82
120.817,148.772
121.006,148.677
121.196,148.63
121.385,148.535
121.575,148.44
121.764,148.345
121.954,148.298
122.143,148.203
122.333,148.155
122.522,148.061
122.712,148.013
122.901,147.918
123.091,147.871
123.28,147.776
123.47,147.729
123.659,147.634
123.849,147.634
124.038,147.491
124.227,147.491
124.417,147.349
124.606,147.302
124.796,147.207
124.985,147.159
125.175,147.065
125.364,147.017
125.554,146.922
125.743,146.875
125.933,146.827
126.122,146.78
126.312,146.732
126.501,146.685
126.691,146.638
126.88,146.59
127.07,146.543
127.259,146.495
127.449,146.448
127.638,146.4
127.827,146.353
128.017,146.306
128.206,146.258
128.396,146.211
128.585,146.163
128.775,146.116
128.964,146.021
129.154,145.974
129.343,145.926
129.533,145.879
129.722,145.784
129.912,145.736
130.101,145.642
130.291,145.594
130.48,145.499
130.67,145.452
130.859,145.357
131.049,145.262
131.238,145.167
131.427,145.12
131.617,144.93
131.806,144.835
131.996,144.693
132.185,144.598
132.375,144.456
132.564,144.361
132.754,144.266
132.943,144.266
133.133,144.219
133.322,144.171
133.512,144.124
133.701,144.124
133.891,144.076
134.08,144.076
134.27,144.029
134.459,144.029
134.648,143.981
134.838,143.981
135.027,143.934
135.217,143.887
135.406,143.839
135.596,143.839
135.785,143.792
135.975,143.981
136.164,144.124
136.354,144.361
136.543,144.551
136.733,144.788
136.922,144.977
137.112,145.262
137.301,145.499
137.491,145.736
137.68,145.974
137.87,146.116
138.059,146.211
138.248,146.258
138.438,146.258
138.627,146.163
138.817,146.068
139.006,145.974
139.196,145.831
139.385,145.689
139.575,145.547
139.764,145.404
139.954,145.262
140.143,145.12
140.333,144.93
140.522,144.788
140.712,144.598
140.901,144.503
141.091,144.408
141.28,144.313
141.47,144.219
141.659,144.124
141.848,144.029
142.038,143.981
142.227,143.887
142.417,143.887
142.606,143.839
142.796,143.839
142.985,143.792
143.175,143.792
143.364,143.744
143.554,143.744
143.743,143.697
143.933,143.697
144.122,143.649
144.312,143.649
144.501,143.602
144.691,143.602
144.88,143.602
145.07,143.602
145.259,143.602
145.448,143.602
145.638,143.602
145.827,143.602
146.017,143.602
146.206,143.602
146.396,143.602
146.585,143.744
146.775,143.839
146.964,143.934
147.154,144.029
147.343,144.171
147.533,144.266
147.722,144.408
147.912,144.503
148.101,144.598
148.291,144.693
148.48,144.835
148.67,144.93
148.859,145.12
149.048,145.262
149.238,145.452
149.427,145.689
149.617,145.926
149.806,146.163
149.996,146.4
150.185,146.59
150.375,146.922
150.564,147.207
150.754,147.634
150.943,147.966
151.133,148.345
151.322,148.725
151.512,149.104
151.701,149.436
151.891,149.863
152.08,150.148
152.27,150.527
152.459,150.859
152.648,151.239
152.838,151.571
153.027,152.045
153.217,152.377
153.406,152.899
153.596,153.42
153.785,153.942
153.975,154.464
154.164,154.986
154.354,155.507
154.543,156.266
154.733,156.978
154.922,157.737
155.112,158.496
155.301,159.302
155.491,160.014
155.68,160.82
155.869,161.674
156.059,162.67
156.248,163.618
156.438,164.615
156.627,165.563
156.817,166.749
157.006,167.84
157.196,169.31
157.385,170.638
157.575,172.061
157.764,173.532
157.954,175.619
158.143,177.658
158.333,179.888
158.522,182.07
158.712,184.062
158.901,186.054
159.091,187.999
159.28,189.991
159.469,191.983
159.659,193.928
159.848,195.92
160.038,197.912
160.227,200.141
160.417,202.466
160.606,205.596
160.796,208.727
160.985,211.81
161.175,214.845
161.364,224.901
161.554,235.004
161.743,238.372
161.933,241.787
162.122,245.249
162.312,248.617
162.501,252.032
162.691,255.447
162.88,258.863
163.069,262.23
163.259,265.645
163.448,269.06
163.638,272.476
163.827,275.891
164.017,277.93
164.206,279.97
164.396,280.349
164.585,280.824
164.775,280.824
164.964,280.824
165.154,280.634
165.343,280.492
165.533,279.543
165.722,278.594
165.912,277.409
166.101,276.175
166.29,274.942
166.48,273.709
166.669,272.381
166.859,271.053
167.048,269.772
167.238,268.444
167.427,267.163
167.617,265.835
167.806,263.416
167.996,260.997
168.185,258.72
168.375,256.444
168.564,254.546
168.754,252.649
168.943,250.941
169.133,249.186
169.322,247.906
169.512,246.625
169.701,245.487
169.891,244.348
170.08,243.305
170.269,242.214
170.459,241.17
170.648,240.127
170.838,239.51
171.027,238.894
171.217,238.609
171.406,238.324
171.596,238.087
171.785,237.755
171.975,237.613
172.164,236.237
172.354,237.423
172.543,237.471
172.733,237.897
172.922,238.229
173.112,240.316
173.301,242.356
173.49,248.759
173.68,255.115
173.869,266.499
174.059,277.883
174.248,289.267
174.438,300.603
174.627,311.987
174.817,323.418
175.006,334.754
175.196,346.091
175.385,357.474
175.575,378.724
175.764,373.127
175.954,377.396
176.143,377.491
176.333,377.586
176.522,371.704
176.712,365.822
176.901,358.281
177.09,350.692
177.28,343.15
177.469,335.561
177.659,328.019
177.848,320.43
178.038,312.841
178.227,305.251
178.417,297.71
178.606,290.12
178.796,282.579
178.985,274.99
179.175,267.448
179.364,259.859
179.554,255.969
179.743,252.08
179.933,249.898
180.122,247.669
180.312,245.582
180.501,243.447
180.69,241.502
180.88,239.51
181.069,238.229
181.259,236.854
181.448,235.858
181.638,234.909
181.827,234.245
182.017,233.629
182.206,233.344
182.396,232.965
182.585,232.68
182.775,232.395
182.964,232.348
183.154,232.3
183.343,232.3
183.533,233.012
183.722,232.443
183.911,232.538
184.101,232.68
184.29,232.87
184.48,233.154
184.669,233.486
184.859,233.818
185.048,234.103
185.238,234.34
185.427,234.577
185.617,234.814
185.806,235.052
185.996,235.336
186.185,235.526
186.375,235.763
186.564,235.953
186.754,236.19
186.943,236.332
187.133,236.427
187.322,236.427
187.512,236.474
187.701,236.38
187.89,236.237
188.08,237.803
188.269,235.716
188.459,235.336
188.648,234.72
188.838,234.103
189.027,233.486
189.217,232.87
189.406,232.253
189.596,231.636
189.785,231.02
189.975,230.356
190.164,229.644
190.354,228.885
190.543,228.126
190.733,227.367
190.922,226.609
191.111,225.897
191.301,225.138
191.49,224.379
191.68,223.668
191.869,222.861
192.059,222.245
192.248,221.628
192.438,221.154
192.627,220.585
192.817,220.253
193.006,219.873
193.196,219.778
193.385,219.636
193.575,219.589
193.764,219.446
193.954,219.446
194.143,219.399
194.333,219.399
194.522,219.399
194.711,219.399
194.901,219.399
195.09,219.446
195.28,219.446
195.469,219.494
195.659,219.494
195.848,219.589
196.038,219.589
196.227,219.589
196.417,218.83
196.606,219.731
196.796,219.826
196.985,219.921
197.175,220.015
197.364,220.11
197.554,220.205
197.743,220.348
197.933,220.442
198.122,220.585
198.311,220.774
198.501,220.964
198.69,221.154
198.88,221.533
199.069,221.96
199.259,222.34
199.448,222.719
199.638,223.193
199.827,223.525
200.017,224
200.206,224.332
200.396,224.948
200.585,225.565
200.775,226.182
200.964,226.751
201.154,227.367
201.343,227.984
201.533,228.601
201.722,229.217
201.911,230.071
202.101,230.972
202.29,231.874
202.48,232.822
202.669,233.723
202.859,234.625
203.048,235.573
203.238,236.474
203.427,237.755
203.617,239.036
203.806,240.459
203.996,241.739
204.185,243.068
204.375,244.396
204.564,245.676
204.754,246.957
204.943,248.143
205.132,249.281
205.322,250.467
205.511,251.653
205.701,252.839
205.89,254.024
206.08,255.353
206.269,256.681
206.459,258.104
206.648,259.479
206.838,260.902
207.027,262.278
207.217,263.843
207.406,265.361
207.596,267.163
207.785,268.966
207.975,270.768
208.164,272.57
208.354,274.705
208.543,276.792
208.732,278.926
208.922,281.013
209.111,283.338
209.301,285.662
209.49,288.176
209.68,290.642
209.869,293.156
210.059,295.623
210.248,299.18
210.438,302.69
210.627,306.295
210.817,309.9
211.006,313.599
211.196,317.252
211.385,320.619
211.575,323.94
211.764,327.07
211.954,330.153
212.143,333.142
212.332,336.13
212.522,339.071
212.711,341.964
212.901,344.525
213.09,347.134
213.28,349.695
213.469,352.304
213.659,354.96
213.848,357.569
214.038,359.988
214.227,362.407
214.417,364.589
214.606,366.724
214.796,368.858
214.985,370.993
215.175,373.222
215.364,375.309
215.554,377.443
215.743,379.578
215.932,381.76
216.122,383.894
216.311,386.029
216.501,388.163
216.69,389.823
216.88,391.389
217.069,392.1
217.259,392.811
217.448,393.096
217.638,393.381
217.827,393.286
218.017,393.238
218.206,393.096
218.396,392.954
218.585,392.574
218.775,392.195
218.964,391.483
219.154,390.819
219.343,390.203
219.532,389.539
219.722,388.969
219.911,388.353
220.101,387.736
220.29,387.072
220.48,386.598
220.669,385.981
220.859,385.507
221.048,385.08
221.238,384.606
221.427,384.131
221.617,383.847
221.806,383.515
221.996,383.183
222.185,382.187
222.375,382.803
222.564,382.851
222.753,382.851
222.943,383.04
223.132,383.278
223.322,383.467
223.511,383.752
223.701,384.036
223.89,384.274
224.08,384.511
224.269,384.795
224.459,385.08
224.648,385.27
224.838,385.459
225.027,385.697
225.217,385.886
225.406,386.124
225.596,386.313
225.785,386.598
225.975,386.74
226.164,386.882
226.353,387.025
226.543,387.072
226.732,386.218
226.922,386.171
227.111,386.124
227.301,384.606
227.49,383.04
227.68,381.143
227.869,379.198
228.059,376.922
228.248,374.645
228.438,371.894
228.627,369.095
228.817,366.297
229.006,363.451
229.196,359.419
229.385,355.387
229.575,352.779
229.764,350.122
229.953,348.273
230.143,346.375
230.332,344.573
230.522,342.77
230.711,341.49
230.901,340.162
231.09,338.881
231.28,337.553
231.469,336.414
231.659,335.276
231.848,334.754
232.038,334.185
232.227,333.711
232.417,333.236
232.606,332.999
232.796,332.667
232.985,332.525
233.175,332.335
233.364,332.24
233.553,332.146
233.743,332.098
233.932,332.003
234.122,331.861
234.311,331.671
234.501,333.663
234.69,335.561
234.88,338.075
235.069,340.589
235.259,344.525
235.448,348.415
235.638,351.593
235.827,354.676
236.017,356.526
236.206,358.281
236.396,358.802
236.585,359.229
236.775,359.182
236.964,359.135
237.153,359.087
237.343,359.893
237.532,358.423
237.722,357.949
237.911,356.81
238.101,355.672
238.29,353.964
238.48,352.115
238.669,350.454
238.859,348.794
239.048,346.944
239.238,345.095
239.427,342.865
239.617,340.589
239.806,336.367
239.996,332.146
240.185,329.205
240.374,326.264
240.564,323.75
240.753,321.189
240.943,318.77
241.132,316.303
241.322,314.406
241.511,312.509
241.701,312.461
241.89,312.366
242.08,312.651
242.269,312.935
242.459,313.505
242.648,314.026
242.838,314.501
243.027,314.975
243.217,314.928
243.406,314.88
243.596,314.311
243.785,313.742
243.974,313.078
244.164,312.414
244.353,312.271
244.543,312.271
244.732,312.271
244.922,312.414
245.111,312.414
245.301,312.414
245.49,312.366
245.68,312.319
245.869,312.224
246.059,312.082
246.248,311.133
246.438,310.184
246.627,309.093
246.817,308.002
247.006,306.912
247.196,305.821
247.385,304.73
247.574,303.639
247.764,301.836
247.953,300.034
248.143,299.275
248.332,298.516
248.522,297.805
248.711,297.046
248.901,296.524
249.09,295.955
249.28,295.433
249.469,294.959
249.659,294.627
249.848,294.295
250.038,294.01
250.227,293.725
250.417,293.488
250.606,293.204
250.796,292.919
250.985,292.682
251.174,292.35
251.364,292.065
251.553,291.733
251.743,291.354
251.932,290.452
252.122,289.504
252.311,286.041
252.501,282.531
252.69,280.112
252.88,277.646
253.069,276.081
253.259,274.42
253.448,273.614
253.638,272.76
253.827,272.523
254.017,272.238
254.206,272.144
254.395,272.001
254.585,272.001
254.774,272.001
254.964,272.618
255.153,273.235
255.343,274.61
255.532,275.986
255.722,276.982
255.911,277.978
256.101,278.357
256.29,278.642
256.48,278.5
256.669,278.357
256.859,277.646
257.048,276.934
257.238,274.041
257.427,271.1
257.617,268.966
257.806,266.736
257.995,264.554
258.185,262.373
258.374,260.191
258.564,257.961
258.753,255.779
258.943,253.598
259.132,251.321
259.322,249.044
259.511,247.858
259.701,246.625
259.89,245.344
260.08,244.064
260.269,243.4
260.459,242.688
260.648,242.309
260.838,241.882
261.027,241.692
261.217,241.455
261.406,241.407
261.595,241.313
261.785,241.55
261.974,241.787
262.164,242.072
262.353,242.356
262.543,243.068
262.732,243.779
262.922,247.052
263.111,250.325
263.301,253.455
263.49,256.538
263.68,257.629
263.869,258.673
264.059,258.863
264.248,258.91
264.438,258.957
264.627,258.815
264.817,258.199
265.006,257.534
265.195,252.602
265.385,247.669
265.574,246.91
265.764,246.151
265.953,245.819
266.143,245.439
266.332,244.68
266.522,243.921
266.711,242.641
266.901,241.313
267.09,239.368
267.28,237.423
267.469,234.767
267.659,232.111
267.848,229.597
268.038,227.083
268.227,224.569
268.417,222.008
268.606,219.494
268.795,216.98
268.985,214.513
269.174,211.999
269.364,209.438
269.553,206.924
269.743,204.41
269.932,201.896
270.122,200.616
270.311,199.335
270.501,198.244
270.69,197.248
270.88,196.11
271.069,195.019
271.259,194.26
271.448,193.501
271.638,192.979
271.827,192.362
272.016,191.936
272.206,191.461
272.395,191.034
272.585,190.655
272.774,190.323
272.964,189.943
273.153,189.611
273.343,189.279
273.532,189.232
273.722,189.137
273.911,189.137
274.101,189.09
274.29,189.279
274.48,189.469
274.669,190.323
274.859,190.845
275.048,192.552
275.238,193.88
275.427,196.157
275.616,198.434
275.806,200.995
275.995,203.556
276.185,206.118
276.374,208.679
276.564,211.288
276.753,213.849
276.943,215.082
277.132,216.411
277.322,216.411
277.511,216.458
277.701,216.411
277.89,217.075
278.08,215.035
278.269,213.754
278.459,211.193
278.648,208.584
278.838,206.07
279.027,203.509
279.216,200.948
279.406,198.386
279.595,195.872
279.785,193.311
279.974,191.604
280.164,189.943
280.353,188.9
280.543,187.951
280.732,186.955
280.922,185.959
281.111,185.01
281.301,184.014
281.49,183.066
281.68,182.07
281.869,181.216
282.059,180.362
282.248,179.698
282.438,179.034
282.627,178.417
282.816,177.658
283.006,176.994
283.195,176.378
283.385,175.714
283.574,175.002
283.764,174.338
283.953,173.674
284.143,173.057
284.332,172.488
284.522,172.014
284.711,171.54
284.901,171.065
285.09,170.591
285.28,170.164
285.469,169.69
285.659,169.263
285.848,168.789
286.038,168.267
286.227,167.792
286.416,167.413
286.606,166.939
286.795,166.464
286.985,165.943
287.174,165.516
287.364,165.041
287.553,164.709
287.743,164.235
287.932,163.903
288.122,163.476
288.311,163.097
288.501,162.717
288.69,162.338
288.88,161.911
289.069,161.531
289.259,161.152
289.448,160.772
289.638,160.346
289.827,159.966
290.016,159.634
290.206,159.207
290.395,158.828
290.585,158.448
290.774,158.069
290.964,157.689
291.153,157.31
291.343,156.978
291.532,156.551
291.722,156.077
291.911,155.602
292.101,155.081
292.29,154.606
292.48,154.132
292.669,153.705
292.859,153.326
293.048,152.946
293.237,152.567
293.427,152.14
293.616,151.76
293.806,151.381
293.995,151.001
294.185,150.574
294.374,150.195
294.564,149.863
294.753,149.436
294.943,149.009
295.132,148.63
295.322,148.25
295.511,147.871
295.701,147.491
295.89,147.159
296.08,146.685
296.269,146.353
296.459,145.974
296.648,145.594
296.837,145.262
297.027,144.93
297.216,144.503
297.406,144.266
297.595,143.981
297.785,143.887
297.974,143.744
298.164,143.744
298.353,143.744
298.543,143.744
298.732,143.744
298.922,143.744
299.111,143.744
299.301,143.744
299.49,143.744
299.68,143.744
299.869,143.744
300.059,143.839
300.248,143.887
300.437,144.124
300.627,144.361
300.816,144.598
301.006,144.788
301.195,145.025
301.385,145.262
301.574,145.452
301.764,145.689
301.953,145.926
302.143,146.116
302.332,146.353
302.522,146.543
302.711,146.543
302.901,146.543
303.09,146.59
303.28,146.59
303.469,146.543
303.659,146.495
303.848,146.163
304.037,145.784
304.227,145.452
304.416,145.12
304.606,144.693
304.795,144.266
304.985,143.697
305.174,143.08
305.364,142.558
305.553,141.894
305.743,141.325
305.932,140.756
306.122,140.187
306.311,139.57
306.501,139.475
306.69,139.333
306.88,139.333
307.069,139.286
307.258,139.238
307.448,139.191
307.637,139.143
307.827,139.096
308.016,139.096
308.206,139.096
308.395,139.096
308.585,139.096
308.774,139.096
308.964,139.096
309.153,139.096
309.343,139.096
309.532,139.048
309.722,138.954
309.911,138.764
310.101,138.574
310.29,138.384
310.48,138.195
310.669,138.005
310.858,137.815
311.048,137.673
311.237,137.436
311.427,137.246
311.616,137.056
311.806,136.867
311.995,136.677
312.185,136.25
312.374,135.823
312.564,135.349
312.753,134.827
312.943,134.353
313.132,133.878
313.322,133.404
313.511,132.93
313.701,132.408
313.89,131.886
314.08,131.412
314.269,130.89
314.458,130.416
314.648,129.941
314.837,129.515
315.027,129.04
315.216,128.566
315.406,128.092
315.595,127.617
315.785,127.143
315.974,126.763
316.164,126.337
316.353,126.052
316.543,125.815
316.732,125.483
316.922,125.198
317.111,124.914
317.301,124.629
317.49,124.534
317.68,124.392
317.869,124.344
318.058,124.297
318.248,124.297
318.437,124.25
318.627,124.202
318.816,124.155
319.006,124.107
319.195,124.06
319.385,124.06
319.574,124.012
319.764,123.965
319.953,123.918
320.143,123.775
320.332,123.586
320.522,123.348
320.711,123.159
320.901,122.969
321.09,122.779
321.279,122.589
321.469,122.4
321.658,122.21
321.848,121.973
322.037,121.783
322.227,121.593
322.416,121.404
322.606,121.214
322.795,121.072
322.985,120.834
323.174,120.645
323.364,120.455
323.553,120.313
323.743,120.123
323.932,119.933
324.122,119.743
324.311,119.554
324.501,119.364
324.69,119.174
324.879,119.032
325.069,118.842
325.258,118.7
325.448,118.463
325.637,118.273
325.827,118.083
326.016,117.894
326.206,117.704
326.395,117.514
326.585,117.372
326.774,117.182
326.964,116.992
327.153,116.803
327.343,116.66
327.532,116.471
327.722,116.328
327.911,116.139
328.101,116.044
328.29,115.949
328.479,115.854
328.669,115.712
328.858,115.617
329.048,115.522
329.237,115.427
329.427,115.285
329.616,115.19
329.806,115.095
329.995,115
330.185,114.858
330.374,114.763
330.564,114.621
330.753,114.526
330.943,114.431
331.132,114.336
331.322,114.194
331.511,114.099
331.701,114.004
331.89,113.957
332.079,113.767
332.269,113.672
332.458,113.577
332.648,113.482
332.837,113.34
333.027,113.245
333.216,113.15
333.406,113.056
333.595,112.913
333.785,112.866
333.974,112.771
334.164,112.724
334.353,112.629
334.543,112.581
334.732,112.486
334.922,112.392
335.111,112.297
335.301,112.249
335.49,112.154
335.679,112.107
335.869,112.059
336.058,111.965
336.248,111.917
336.437,111.775
336.627,111.633
336.816,111.585
337.006,111.395
337.195,111.301
337.385,111.158
337.574,111.063
337.764,110.921
337.953,110.826
338.143,110.684
338.332,110.589
338.522,110.447
338.711,110.352
338.901,110.21
339.09,110.115
339.279,109.972
339.469,109.83
339.658,109.688
339.848,109.593
340.037,109.451
340.227,109.403
340.416,109.356
340.606,109.356
340.795,109.261
340.985,109.214
341.174,109.214
341.364,109.214
341.553,109.119
341.743,109.071
341.932,109.024
342.122,109.024
342.311,108.976
342.5,108.929
342.69,108.882
342.879,108.882
343.069,108.834
343.258,108.834
343.448,108.787
343.637,108.787
343.827,108.739
344.016,108.739
344.206,108.739
344.395,108.739
344.585,108.692
344.774,108.692
344.964,108.644
345.153,108.644
345.343,108.597
345.532,108.597
345.722,108.597
345.911,108.597
346.1,108.549
346.29,108.455
346.479,108.36
346.669,108.265
346.858,108.17
347.048,108.075
347.237,107.933
347.427,107.838
347.616,107.743
347.806,107.648
347.995,107.506
348.185,107.411
348.374,107.316
348.564,107.221
348.753,107.079
348.943,106.984
349.132,106.889
349.322,106.842
349.511,106.652
349.7,106.557
349.89,106.462
350.079,106.368
350.269,106.273
350.458,106.178
350.648,106.036
350.837,105.941
351.027,105.846
351.216,105.751
351.406,105.609
351.595,105.514
351.785,105.419
351.974,105.324
352.164,105.182
352.353,105.134
352.543,105.039
352.732,104.992
352.922,104.945
353.111,104.945
353.3,104.802
353.49,104.802
353.679,104.707
353.869,104.66
354.058,104.613
354.248,104.518
354.437,104.47
354.627,104.47
354.816,104.328
355.006,104.281
355.195,104.233
355.385,104.186
355.574,104.091
355.764,104.043
355.953,103.996
356.143,103.949
356.332,103.854
356.521,103.806
356.711,103.759
356.9,103.711
357.09,103.616
357.279,103.569
357.469,103.522
357.658,103.474
357.848,103.379
358.037,103.379
358.227,103.332
358.416,103.332
358.606,103.332
358.795,103.332
358.985,103.284
359.174,103.284
359.364,103.284
359.553,103.284
359.743,103.284
359.932,103.284
360.121,103.237
360.311,103.237
360.5,103.237
360.69,103.237
360.879,103.237
361.069,103.237
361.258,103.19
361.448,103.19
361.637,103.19
361.827,103.19
362.016,103.19
362.206,103.19
362.395,103.142
362.585,103.142
362.774,103.142
362.964,103.142
363.153,103.142
363.343,103.142
363.532,103.095
363.721,103.095
363.911,103.095
364.1,103.142
364.29,103.19
364.479,103.237
364.669,103.237
364.858,103.284
365.048,103.332
365.237,103.379
365.427,103.379
365.616,103.427
365.806,103.474
365.995,103.522
366.185,103.522
366.374,103.569
366.564,103.569
366.753,103.616
366.943,103.664
367.132,103.711
367.321,103.711
367.511,103.806
367.7,103.854
367.89,103.901
368.079,103.949
368.269,104.043
368.458,104.091
368.648,104.186
368.837,104.233
369.027,104.328
369.216,104.375
369.406,104.47
369.595,104.518
369.785,104.613
369.974,104.66
370.164,104.802
370.353,104.802
370.543,104.85
370.732,104.945
370.921,104.992
371.111,105.039
371.3,105.087
371.49,105.087
371.679,105.134
371.869,105.182
372.058,105.229
372.248,105.229
372.437,105.277
372.627,105.277
372.816,105.324
373.006,105.324
373.195,105.371
373.385,105.419
373.574,105.466
373.764,105.466
373.953,105.466
374.142,105.419
374.332,105.419
374.521,105.419
374.711,105.419
374.9,105.371
375.09,105.371
375.279,105.324
375.469,105.324
375.658,105.277
375.848,105.277
376.037,105.229
376.227,105.229
376.416,105.182
376.606,105.182
376.795,105.134
376.985,105.087
377.174,105.039
377.364,104.992
377.553,104.945
377.742,104.85
377.932,104.802
378.121,104.802
378.311,104.66
378.5,104.613
378.69,104.613
378.879,104.518
379.069,104.47
379.258,104.375
379.448,104.328
379.637,104.281
379.827,104.186
380.016,104.138
380.206,104.091
380.395,104.043
380.585,103.949
380.774,103.854
380.964,103.759
381.153,103.616
381.342,103.474
381.532,103.379
381.721,103.237
381.911,103.095
382.1,102.952
382.29,102.858
382.479,102.715
382.669,102.573
382.858,102.431
383.048,102.336
383.237,102.241
383.427,102.099
383.616,101.909
383.806,101.767
383.995,101.624
384.185,101.482
384.374,101.34
384.564,101.197
384.753,101.008
384.942,100.865
385.132,100.676
385.321,100.486
385.511,100.296
385.7,100.201
385.89,99.9642
386.079,99.8694
386.269,99.6322
386.458,99.4425
386.648,99.2527
386.837,99.1104
387.027,98.9207
387.216,98.7784
387.406,98.5887
387.595,98.399
387.785,98.2092
387.974,98.0195
388.164,97.8297
388.353,97.6875
388.542,97.4977
388.732,97.2606
388.921,97.0708
389.111,96.8811
389.3,96.6914
389.49,96.5016
389.679,96.2645
389.869,96.0747
390.058,95.885
390.248,95.6953
390.437,95.5056
390.627,95.3159
390.816,95.1261
391.006,94.9838
391.195,94.6992
391.385,94.5095
391.574,94.3198
391.763,94.13
391.953,93.9403
392.142,93.7506
392.332,93.5134
392.521,93.3237
392.711,93.134
392.9,92.9442
393.09,92.7545
393.279,92.6122
393.469,92.375
393.658,92.1853
393.848,91.9956
394.037,91.8533
394.227,91.6635
394.416,91.5212
394.606,91.3315
394.795,91.1418
394.985,90.9521
395.174,90.8098
395.363,90.62
395.553,90.4778
395.742,90.288
395.932,90.0983
396.121,89.9085
396.311,89.7662
396.5,89.5765
396.69,89.4342
396.879,89.2445
397.069,89.1022
397.258,88.9125
397.448,88.7227
397.637,88.533
397.827,88.3907
398.016,88.201
398.206,88.0587
398.395,87.869
398.585,87.6793
398.774,87.4895
398.963,87.3946
399.153,87.2523
399.342,87.11
399.532,86.9677
399.721,86.8255
399.911,86.6831
400.1,86.5883
400.29,86.446
400.479,86.3037
400.669,86.1614
400.858,86.0191
401.048,85.8768
401.237,85.8293
401.427,85.6396
401.616,85.4973
401.806,85.355
401.995,85.2127
402.185,85.0705
402.374,84.9756
402.563,84.8333
402.753,84.691
402.942,84.5487
403.132,84.4538
403.321,84.3115
403.511,84.1693
403.7,84.0269
403.89,83.9321
404.079,83.7898
404.269,83.6949
404.458,83.6
404.648,83.4577
404.837,83.268
405.027,83.1732
405.216,83.0309
405.406,82.936
405.595,82.7937
405.784,82.6514
405.974,82.5091
406.163,82.4142
406.353,82.2719
406.542,82.1296
406.732,81.9874
406.921,81.8451
407.111,81.7028
407.3,81.5605
407.49,81.3708
407.679,81.2284
407.869,81.0861
408.058,80.9438
408.248,80.7541
408.437,80.6118
408.627,80.4695
408.816,80.3272
409.006,80.1375
409.195,79.9952
409.384,79.8529
409.574,79.7106
409.763,79.5209
409.953,79.426
410.142,79.3311
410.332,79.2363
410.521,79.094
410.711,78.9991
410.9,78.8568
411.09,78.762
411.279,78.6197
411.469,78.5248
411.658,78.3825
411.848,78.2876
412.037,78.1454
412.227,78.003
412.416,77.8607
412.606,77.7184
412.795,77.5287
412.984,77.3864
413.174,77.2441
413.363,77.1018
413.553,76.9121
413.742,76.7698
413.932,76.6275
414.121,76.4852
414.311,76.3429
414.5,76.1532
414.69,76.0109
414.879,75.8686
415.069,75.6789
415.258,75.5366
415.448,75.3943
415.637,75.252
415.827,75.1096
416.016,75.0148
416.206,74.8725
416.395,74.7776
416.584,74.6353
416.774,74.493
416.963,74.3507
417.153,74.2559
417.342,74.1136
417.532,73.9713
417.721,73.829
417.911,73.7816
418.1,73.6393
418.29,73.4495
418.479,73.3073
418.669,73.2124
418.858,73.0701
419.048,73.0226
419.237,72.9278
419.427,72.8803
419.616,72.7855
419.806,72.6906
419.995,72.5957
420.184,72.5483
420.374,72.5009
420.563,72.4535
420.753,72.406
420.942,72.3586
421.132,72.3112
421.321,72.3112
421.511,72.3112
421.7,72.3586
421.89,74.2085
422.079,72.5957
422.269,72.738
422.458,72.9752
422.648,73.1649
422.837,73.4495
423.027,73.6867
423.216,73.8764
423.405,74.1136
423.595,74.1136
423.784,74.1136
423.974,74.1136
424.163,74.1136
424.353,74.0187
424.542,73.9713
424.732,73.8764
424.921,73.829
425.111,73.7816
425.3,73.6867
425.49,73.497
425.679,73.3073
425.869,73.1175
426.058,72.8803
426.248,72.6906
426.437,72.4535
426.627,72.2637
426.816,72.0266
427.005,71.8369
427.195,71.5997
427.384,71.4574
427.574,71.2676
427.763,71.0779
427.953,70.8882
428.142,70.7459
428.332,70.5562
428.521,70.3664
428.711,70.1767
428.9,70.0344
429.09,69.8447
429.279,69.655
429.469,69.4178
429.658,69.2281
429.848,69.0383
430.037,68.896
430.227,68.6115
430.416,68.4217
430.605,68.1845
430.795,68.0422
430.984,67.9
431.174,67.7576
431.363,67.5679
431.553,67.4256
431.742,67.2834
431.932,67.1885
432.121,67.0936
432.311,67.0461
432.5,66.9987
432.69,66.8564
432.879,66.7616
433.069,66.7141
433.258,66.6667
433.448,66.6667
433.637,66.6667
433.827,66.6667
434.016,66.6667
434.205,66.7141
434.395,66.7616
434.584,67.141
434.774,67.5205
434.963,68.1371
435.153,68.7063
435.342,69.3704
435.532,69.8921
435.721,70.5087
435.911,71.0779
436.1,72.2637
436.29,73.4495
436.479,74.5879
436.669,75.7737
436.858,76.9595
437.048,78.1454
437.237,79.3311
437.427,80.4695
437.616,81.8451
437.805,84.7859
437.995,87.5844
438.184,86.7306
438.374,85.4973
438.563,84.1218
438.753,83.1257
438.942,81.9874
439.132,81.0861
439.321,80.2798
439.511,79.426
439.7,78.6197
439.89,77.9082
440.079,77.2441
440.269,76.5801
440.458,75.916
440.648,75.2994
440.837,74.6828
441.026,74.161
441.216,73.6393
441.405,73.1175
441.595,72.5957
441.784,72.2163
441.974,72.074
442.163,71.9317
442.353,71.7894
442.542,71.742
442.732,71.6471
442.921,71.5997
443.111,71.6471
443.3,71.7894
443.49,71.9317
443.679,72.2163
443.869,72.5957
444.058,73.2598
444.248,74.1136
444.437,75.8211
444.626,78.5248
444.816,80.8964
445.005,81.9399
445.195,82.2719
445.384,81.3233
445.574,80.3272
445.763,79.3311
445.953,78.3825
446.142,77.339
446.332,76.4852
446.521,75.6789
446.711,74.9674
446.9,74.2559
447.09,73.5444
447.279,73.2124
447.469,72.9278
447.658,72.5957
447.848,72.3112
448.037,72.0266
448.226,71.8842
448.416,71.7894
448.605,71.7894
448.795,71.742
448.984,71.7894
449.174,71.9791
449.363,72.4535
449.553,73.2124
449.742,74.0187
449.932,74.9674
450.121,76.1532
450.311,77.339
450.5,78.9042
450.69,80.3272
450.879,81.5605
451.069,82.4617
451.258,82.3668
451.448,82.2245
451.637,82.1296
451.826,81.7028
452.016,81.2284
452.205,80.7541
452.395,80.1375
452.584,79.5209
452.774,78.8568
452.963,78.2402
453.153,77.5761
453.342,76.9595
453.532,76.3429
453.721,75.6789
453.911,75.0623
454.1,74.4456
454.29,73.829
454.479,73.2124
454.669,72.6432
454.858,72.0266
455.048,71.5997
455.237,71.4099
455.426,71.2676
455.616,71.0305
455.805,70.8407
455.995,70.651
456.184,70.4139
456.374,70.3664
456.563,70.319
456.753,70.2716
456.942,70.2241
457.132,70.1767
457.321,70.1292
457.511,70.0818
457.7,70.0344
457.89,69.987
458.079,69.9395
458.269,69.9395
458.458,70.0344
458.647,70.0818
458.837,70.1292
459.026,70.2241
459.216,70.2716
459.405,70.319
459.595,70.4613
459.784,70.6985
459.974,70.9831
460.163,71.2676
460.353,71.4574
460.542,71.742
460.732,71.9791
460.921,72.2637
461.111,72.4535
461.3,72.5957
461.49,73.6393
461.679,72.8803
461.869,73.0226
462.058,73.0701
462.247,73.1649
462.437,73.2124
462.626,73.3073
462.816,73.3547
463.005,73.4021
463.195,73.4021
463.384,73.4021
463.574,73.3073
463.763,73.2598
463.953,73.1649
464.142,73.1175
464.332,73.0226
464.521,72.9752
464.711,72.8329
464.9,72.6906
465.09,72.5483
465.279,72.406
465.469,72.2637
465.658,72.1214
465.847,71.9791
466.037,71.8842
466.226,71.7894
466.416,71.742
466.605,71.5997
466.795,71.5997
466.984,71.742
467.174,71.8842
467.363,72.3112
467.553,72.8329
467.742,73.7816
467.932,74.9674
468.121,76.2006
468.311,77.4339
468.5,78.9517
468.69,80.1849
468.879,81.0861
469.069,81.6079
469.258,81.7028
469.447,81.7976
469.637,81.2759
469.826,80.8015
470.016,80.3272
470.205,79.8055
470.395,79.3311
470.584,78.762
470.774,78.1454
470.963,77.5761
471.153,77.007
471.342,76.3904
471.532,75.8686
471.721,75.4891
471.911,75.0623
472.1,74.6828
472.29,74.2559
472.479,73.829
472.668,73.497
472.858,73.4021
473.047,73.3073
473.237,73.2124
473.426,73.1175
473.616,72.9752
473.805,72.8803
473.995,72.8803
474.184,72.8803
474.374,72.9278
474.563,72.9752
474.753,72.9752
474.942,73.0226
475.132,73.0701
475.321,73.3073
475.511,73.5444
475.7,73.7816
475.89,74.0187
476.079,74.2559
476.268,74.493
476.458,74.7302
476.647,74.9674
476.837,75.4417
477.026,75.916
477.216,76.3904
477.405,76.8647
477.595,77.339
477.784,77.8133
477.974,78.2876
478.163,78.762
478.353,79.2363
478.542,79.7106
478.732,80.2324
478.921,80.8964
479.111,81.6079
479.3,82.3194
479.49,82.9834
479.679,83.6949
479.868,84.4064
480.058,85.3076
480.247,86.2088
480.437,87.11
480.626,88.0587
480.816,88.9599
481.005,89.8611
481.195,90.7149
481.384,91.5687
481.574,92.4699
481.763,93.3237
481.953,94.4621
482.142,95.7902
482.332,97.0708
482.521,99.1104
482.711,101.435
482.9,105.134
483.09,109.451
483.279,116.518
483.468,122.495
483.658,127.38
483.847,130.795
484.037,134.021
484.226,135.871
484.416,137.673
484.605,139.523
484.795,141.325
484.984,143.27
485.174,145.262
485.363,147.302
485.553,149.294
485.742,152.282
485.932,155.792
486.121,159.302
486.311,163.334
486.5,168.219
486.69,173.105
486.879,182.117
487.068,192.694
487.258,203.509
487.447,228.601
487.637,252.696
487.826,319.339
488.016,359.561
488.205,399.831
488.395,440.054
488.584,474.348
488.774,474.822
488.963,464.814
489.153,447.548
489.342,430.188
489.532,412.875
489.721,395.563
489.911,378.25
490.1,360.937
490.289,347.703
490.479,348.652
490.668,351.688
490.858,381.902
491.047,413.729
491.237,436.165
491.426,439.675
491.616,441.857
491.805,443.849
491.995,445.414
492.184,446.837
492.374,456.466
492.563,474.68
492.753,492.846
492.942,507.787
493.132,510.633
493.321,512.151
493.511,512.626
493.7,514.286
493.889,510.586
494.079,508.357
494.268,505.416
494.458,502.475
494.647,486.206
494.837,473.02
495.026,459.833
495.216,446.6
495.405,433.366
495.595,420.18
495.784,406.994
495.974,393.76
496.163,380.574
496.353,367.34
496.542,354.154
496.732,340.968
496.921,327.734
497.111,314.548
497.3,301.315
497.489,294.959
497.679,292.587
497.868,291.211
498.058,290.452
498.247,290.073
498.437,290.547
498.626,291.306
498.816,294.674
499.005,299.37
499.195,309.283
499.384,333.758
499.574,355.814
499.763,377.965
499.953,399.974
500.142,422.077
500.332,444.133
500.521,465.525
500.711,469.225
500.9,483.455
501.089,486.822
501.279,488.483
501.468,486.301
501.658,484.166
501.847,481.225
502.037,477.099
502.226,472.403
502.416,468.608
502.605,465.193
502.795,463.059
502.984,461.067
503.174,459.217
503.363,457.462
503.553,455.564
503.742,453.051
503.932,450.394
504.121,446.837
504.311,442.663
504.5,435.927
504.689,423.737
504.879,409.603
505.068,395.42
505.258,381.285
505.447,367.103
505.637,352.968
505.826,338.786
506.016,324.651
506.205,310.469
506.395,296.334
506.584,283.717
506.774,275.986
506.963,268.207
507.153,262.657
507.342,259.289
507.532,256.538
507.721,255.115
507.91,254.119
508.1,253.076
508.289,248.902
508.479,251.89
508.668,252.08
508.858,253.598
509.047,256.444
509.237,264.365
509.426,283.812
509.616,303.259
509.805,322.706
509.995,331.292
510.184,331.861
510.374,327.687
510.563,323.133
510.753,318.675
510.942,314.121
511.132,309.615
511.321,305.441
511.51,302.785
511.7,304.445
511.889,304.445
512.079,305.631
512.268,314.785
512.458,322.896
512.647,330.96
512.837,339.023
513.026,347.134
513.216,355.198
513.405,362.17
513.595,362.692
513.784,361.269
513.974,359.135
514.163,358.376
514.353,358.565
514.542,359.656
514.732,361.506
514.921,364.02
515.11,367.198
515.3,370.329
515.489,373.507
515.679,376.637
515.868,379.815
516.058,382.993
516.247,386.124
516.437,389.301
516.626,392.479
516.816,395.61
517.005,398.788
517.195,401.207
517.384,405.191
517.574,411.263
517.763,423.073
517.953,427.152
518.142,422.409
518.332,419.8
518.521,409.365
518.71,402.488
518.9,394.993
519.089,387.594
519.279,380.052
519.468,372.605
519.658,365.158
519.847,357.617
520.037,350.17
520.226,342.676
520.416,335.276
520.605,327.734
520.795,320.287
520.984,312.793
521.174,305.299
521.363,297.852
521.553,290.358
521.742,282.911
521.932,278.594
522.121,274.231
522.31,269.962
522.5,266.926
522.689,262.515
522.879,265.788
523.068,265.788
523.258,265.788
523.447,269.487
523.637,279.069
523.826,295.528
524.016,312.034
524.205,328.541
524.395,333.663
524.584,333.711
524.774,333.711
524.963,315.117
525.153,303.781
525.342,292.445
525.531,281.108
525.721,270.673
525.91,265.313
526.1,259.052
526.289,257.202
526.479,256.823
526.668,255.068
526.858,256.633
527.047,257.534
527.237,265.124
527.426,277.219
527.616,289.314
527.805,301.409
527.995,313.505
528.184,325.6
528.374,337.743
528.563,349.79
528.753,361.933
528.942,373.981
529.131,384.416
529.321,389.159
529.51,393.808
529.7,400.021
529.889,404.67
530.079,408.891
530.268,413.35
530.458,416.86
530.647,418.567
530.837,416.243
531.026,411.358
531.216,396.748
531.405,382.993
531.595,369.238
531.784,355.577
531.974,345.616
532.163,345
532.353,345
532.542,343.245
532.731,341.063
532.921,338.881
533.11,335.94
533.3,335.561
533.489,335.561
533.679,335.608
533.868,335.94
534.058,334.754
534.247,331.481
534.437,328.019
534.626,323.418
534.816,320.24
535.005,318.58
535.195,319.481
535.384,336.035
535.574,356.763
535.763,377.538
535.953,389.728
536.142,390.914
536.331,378.155
536.521,359.324
536.71,340.541
536.9,321.71
537.089,302.88
537.279,284.097
537.468,265.266
537.658,245.487
537.847,233.202
538.037,217.454
538.226,211.193
538.416,205.406
538.605,200.758
538.795,194.687
538.984,190.465
539.174,188.568
539.363,187.145
539.552,185.722
539.742,184.251
539.931,183.066
540.121,182.402
540.31,182.07
540.5,179.935
540.689,182.734
540.879,183.825
541.068,185.722
541.258,187.904
541.447,190.181
541.637,192.552
541.826,194.592
542.016,196.679
542.205,198.908
542.395,201.422
542.584,205.359
542.774,210.766
542.963,217.644
543.152,227.178
543.342,238.894
543.531,246.435
543.721,256.349
543.91,276.081
544.1,289.314
544.289,302.595
544.479,315.829
544.668,329.062
544.858,338.928
545.047,345.427
545.237,350.929
545.426,354.249
545.616,353.68
545.805,329.774
545.995,305.868
546.184,282.01
546.374,277.456
546.563,273.614
546.752,269.677
546.942,265.74
547.131,262.041
547.321,257.677
547.51,254.831
547.7,253.55
547.889,252.744
548.079,252.744
548.268,252.744
548.458,253.74
548.647,256.87
548.837,263.321
549.026,281.298
549.216,287.322
549.405,292.872
549.595,298.421
549.784,303.923
549.974,309.473
550.163,315.022
550.352,320.572
550.542,326.074
550.731,330.77
550.921,335.466
551.11,340.209
551.3,344.952
551.489,349.648
551.679,354.391
551.868,359.135
552.058,363.878
552.247,368.621
552.437,373.364
552.626,378.107
552.816,382.851
553.005,387.594
553.195,392.337
553.384,397.08
553.573,401.824
553.763,406.045
553.952,408.938
554.142,408.654
554.331,408.274
554.521,407.705
554.71,405.855
554.9,403.579
555.089,400.211
555.279,395.515
555.468,390.298
555.658,383.61
555.847,374.93
556.037,362.502
556.226,350.597
556.416,340.921
556.605,328.588
556.795,318.959
556.984,309.568
557.173,299.844
557.363,290.215
557.552,282.768
557.742,276.081
557.931,271.053
558.121,266.072
558.31,262.42
558.5,258.815
558.689,255.21
558.879,251.843
559.068,248.001
559.258,243.352
559.447,236.38
559.637,229.692
559.826,223.051
560.016,216.411
560.205,216.268
560.395,215.652
560.584,216.031
560.773,223.525
560.963,231.02
561.152,237.091
561.342,237.186
561.531,225.897
561.721,216.268
561.91,208.632
562.1,204.837
562.289,201.896
562.479,199.857
562.668,198.671
562.858,197.58
563.047,197.106
563.237,196.963
563.426,196.963
563.616,196.963
563.805,197.106
563.995,197.106
564.184,197.153
564.373,196.963
564.563,196.442
564.752,195.398
564.942,194.26
565.131,193.169
565.321,191.556
565.51,189.706
565.7,187.809
565.889,186.054
566.079,184.394
566.268,182.734
566.458,181.026
566.647,179.745
566.837,178.654
567.026,177.564
567.216,176.473
567.405,175.382
567.594,174.433
567.784,173.532
567.973,172.536
568.163,171.682
568.352,170.876
568.542,170.069
568.731,169.31
568.921,168.646
569.11,168.124
569.3,164.377
569.489,167.698
569.679,167.745
569.868,167.792
570.058,168.362
570.247,169.453
570.437,171.16
570.626,173.721
570.816,177.137
571.005,181.832
571.195,185.912
571.384,189.516
571.573,192.41
571.763,193.69
571.952,194.26
572.142,194.781
572.331,195.113
572.521,195.398
572.71,195.588
572.9,195.778
573.089,193.026
573.279,195.967
573.468,195.872
573.658,195.208
573.847,193.026
574.037,187.619
574.226,181.927
574.416,173.01
574.605,164.093
574.794,155.175
574.984,153.373
575.173,151.808
575.363,150.48
575.552,149.389
575.742,148.582
575.931,147.823
576.121,147.302
576.31,146.827
576.5,144.361
576.689,146.306
576.879,146.306
577.068,146.306
577.258,146.875
577.447,147.966
577.637,149.341
577.826,151.191
578.016,153.705
578.205,159.112
578.394,165.231
578.584,171.492
578.773,177.611
578.963,183.825
579.152,189.09
579.342,193.169
579.531,202.892
579.721,200.331
579.91,200.616
580.1,200.616
580.289,198.908
580.479,195.872
580.668,192.647
580.858,188.473
581.047,184.441
581.237,180.647
581.426,176.757
581.616,173.01
581.805,169.358
581.995,164.567
582.184,159.682
582.373,155.318
582.563,150.669
582.752,150.148
582.942,149.578
583.131,149.057
583.321,148.44
583.51,147.776
583.7,146.4
583.889,144.693
584.079,142.985
584.268,141.657
584.458,140.519
584.647,139.475
584.837,138.859
585.026,138.242
585.216,137.72
585.405,137.578
585.594,135.965
585.784,137.293
585.973,137.199
586.163,137.199
586.352,137.199
586.542,137.199
586.731,137.199
586.921,137.341
587.11,137.531
587.3,137.91
587.489,138.764
587.679,141.467
587.868,145.262
588.058,149.673
588.247,158.828
588.437,168.124
588.626,177.421
588.815,186.765
589.005,196.062
589.194,205.359
589.384,214.656
589.573,224.474
589.763,223.383
589.952,223.525
590.142,222.577
590.331,220.3
590.521,215.794
590.71,212.142
590.9,204.695
591.089,197.153
591.279,189.706
591.468,182.212
591.658,174.765
591.847,167.271
592.037,159.824
592.226,152.377
592.416,144.93
592.605,139.665
592.794,137.531
592.984,136.25
593.173,135.301
593.363,134.969
593.552,134.637
593.742,133.831
593.931,133.783
594.121,133.783
594.31,133.736
594.5,133.689
594.689,133.878
594.879,134.495
595.068,135.633
595.258,137.863
595.447,140.756
595.637,167.413
595.826,201.707
596.016,235.905
596.205,254.214
596.394,254.783
596.584,255.4
596.773,256.301
596.963,265.313
597.152,276.081
597.342,276.792
597.531,276.413
597.721,263.084
597.91,248.949
598.1,234.767
598.289,220.68
598.479,207.825
598.668,207.493
598.858,218.972
599.047,232.395
599.237,232.727
599.426,224.142
599.615,213.09
599.805,202.133
599.994,191.129
600.184,180.03
600.373,169.026
600.563,160.678
600.752,158.353
600.942,157.168
601.131,157.12
601.321,157.12
601.51,158.638
601.7,161.247
601.889,165.658
602.079,167.176
602.268,167.223
602.458,166.275
602.647,161.863
602.837,154.417
603.026,149.863
603.215,146.211
603.405,143.317
603.594,141.657
603.784,139.95
603.973,141.562
604.163,141.847
604.352,142.274
604.542,142.748
604.731,144.93
604.921,149.531
605.11,155.792
605.3,160.108
605.489,175.429
605.679,189.943
605.868,204.363
606.058,218.782
606.247,228.838
606.437,230.356
606.626,228.269
606.815,223.193
607.005,206.782
607.194,196.347
607.384,187.572
607.573,180.836
607.763,176.046
607.952,171.208
608.142,166.559
608.331,163.144
608.521,159.824
608.71,156.409
608.9,154.037
609.089,151.665
609.279,149.341
609.468,146.97
609.658,145.262
609.847,143.602
610.036,141.942
610.226,140.282
610.415,138.622
610.605,136.961
610.794,135.444
610.984,134.116
611.173,132.74
611.363,131.412
611.552,130.036
611.742,128.661
611.931,127.285
612.121,125.862
612.31,124.487
612.5,123.111
612.689,121.688
612.879,120.313
613.068,118.937
613.258,117.609
613.447,116.66
613.636,115.617
613.826,114.573
614.015,113.577
614.205,112.581
614.394,111.727
614.584,110.874
614.773,110.115
614.963,109.546
615.152,108.882
615.342,108.265
615.531,107.648
615.721,106.984
615.91,106.415
616.1,105.846
616.289,105.324
616.479,104.802
616.668,104.281
616.858,103.711
617.047,103.19
617.236,102.668
617.426,102.431
617.615,102.146
617.805,101.909
617.994,101.624
618.184,101.387
618.373,101.15
618.563,101.055
618.752,100.913
618.942,100.771
619.131,100.628
619.321,100.533
619.51,100.391
619.7,100.296
619.889,100.296
620.079,100.296
620.268,100.296
620.458,100.344
620.647,100.439
620.836,100.533
621.026,100.581
621.215,100.676
621.405,100.676
621.594,100.723
621.784,100.723
621.973,100.723
622.163,100.676
622.352,100.676
622.542,100.628
622.731,100.628
622.921,100.771
623.11,100.913
623.3,101.055
623.489,101.15
623.679,101.292
623.868,101.387
624.057,101.529
624.247,101.624
624.436,101.719
624.626,101.861
624.815,101.956
625.005,102.146
625.194,102.288
625.384,102.431
625.573,102.62
625.763,103
625.952,103.332
626.142,104.138
626.331,104.945
626.521,105.798
626.71,106.842
626.9,107.838
627.089,108.644
627.279,108.644
627.468,108.644
627.657,107.079
627.847,105.798
628.036,104.945
628.226,104.375
628.415,103.806
628.605,103.427
628.794,103.474
628.984,103.474
629.173,103.854
629.363,104.85
629.552,106.13
629.742,107.648
629.931,109.261
630.121,111.158
630.31,113.056
630.5,114.431
630.689,115.854
630.879,117.182
631.068,118.178
631.258,119.174
631.447,119.743
631.636,120.17
631.826,120.692
632.015,122.589
632.205,125.72
632.394,138.811
632.584,136.724
632.773,139.048
632.963,138.764
633.152,136.772
633.342,134.258
633.531,130.795
633.721,126.431
633.91,126.289
634.1,126.289
634.289,126.289
634.479,126.147
634.668,125.957
634.857,125.72
635.047,125.483
635.236,125.293
635.426,124.866
635.615,124.439
635.805,123.965
635.994,123.491
636.184,123.016
636.373,122.589
636.563,122.115
636.752,121.688
636.942,121.309
637.131,120.882
637.321,120.502
637.51,120.123
637.7,119.791
637.889,119.411
638.078,119.174
638.268,119.174
638.457,119.222
638.647,119.649
638.836,120.645
639.026,121.783
639.215,124.25
639.405,127.949
639.594,133.783
639.784,139.333
639.973,144.93
640.163,150.385
640.352,153.847
640.542,150.148
640.731,145.879
640.921,142.938
641.11,143.128
641.3,150.432
641.489,157.784
641.678,174.196
641.868,172.536
642.057,174.101
642.247,173.721
642.436,172.346
642.626,168.978
642.815,164.567
643.005,159.492
643.194,152.662
643.384,149.863
643.573,149.673
643.763,149.341
643.952,148.82
644.142,146.827
644.331,144.93
644.521,142.416
644.71,139.95
644.9,138.052
645.089,136.535
645.279,135.017
645.468,135.301
645.657,133.404
645.847,133.404
646.036,134.116
646.226,135.633
646.415,137.056
646.605,139.57
646.794,142.606
646.984,145.547
647.173,148.487
647.363,151.333
647.552,154.132
647.742,156.788
647.931,158.733
648.121,160.725
648.31,162.859
648.5,165.231
648.689,166.749
648.878,168.504
649.068,167.318
649.257,167.318
649.447,164.567
649.636,159.492
649.826,152.235
650.015,143.744
650.205,138.716
650.394,135.349
650.584,135.444
650.773,137.104
650.963,139.096
651.152,140.234
651.342,141.373
651.531,140.756
651.721,139.618
651.91,138.479
652.099,137.388
652.289,136.25
652.478,135.159
652.668,134.163
652.857,133.119
653.047,132.266
653.236,131.459
653.426,130.7
653.615,130.131
653.805,129.657
653.994,129.515
654.184,127.902
654.373,130.226
654.563,131.459
654.752,132.977
654.942,134.922
655.131,136.914
655.321,139.001
655.51,141.278
655.7,143.507
655.889,145.879
656.078,148.677
656.268,151.476
656.457,154.274
656.647,158.164
656.836,162.385
657.026,168.836
657.215,176.235
657.405,184.204
657.594,198.102
657.784,208.015
657.973,216.221
658.163,232.063
658.352,247.953
658.542,263.843
658.731,279.733
658.921,295.623
659.11,311.56
659.299,314.358
659.489,313.932
659.678,312.935
659.868,309.378
660.057,303.971
660.247,283.006
660.436,258.436
660.626,233.866
660.815,215.557
661.005,227.225
661.194,242.925
661.384,251.795
661.573,239.368
661.763,206.45
661.952,196.726
662.142,197.39
662.331,199.003
662.521,198.576
662.71,197.153
662.899,192.837
663.089,187.05
663.278,181.453
663.468,175.619
663.657,170.733
663.847,166.749
664.036,164.377
664.226,163.903
664.415,164.093
664.605,164.567
664.794,165.421
664.984,165.611
665.173,164.377
665.363,161.531
665.552,157.737
665.742,152.377
665.931,150.859
666.121,150.053
666.31,149.578
666.499,151.428
666.689,153.278
666.878,156.646
667.068,161.579
667.257,196.347
667.447,261.092
667.636,325.884
667.826,365.348
668.015,363.214
668.205,341.442
668.394,315.971
668.584,290.5
668.773,265.029
668.963,239.558
669.152,214.039
669.342,188.568
669.531,164.235
669.721,156.219
669.91,152.045
670.099,149.246
670.289,145.642
670.478,140.045
670.668,134.495
670.857,128.945
671.047,128.945
671.236,128.945
671.426,160.915
671.615,175.239
671.805,174.67
671.994,173.532
672.184,156.361
672.373,139.238
672.563,123.823
672.752,119.174
672.942,116.803
673.131,114.431
673.32,112.866
673.51,111.585
673.699,110.874
673.889,110.304
674.078,109.735
674.268,109.735
674.457,109.735
674.647,109.735
674.836,109.735
675.026,109.878
675.215,110.02
675.405,110.162
675.594,110.447
675.784,110.779
675.973,111.111
676.163,111.633
676.352,112.249
676.542,113.008
676.731,114.953
676.92,117.324
677.11,122.305
677.299,131.08
677.489,136.392
677.678,138.622
677.868,139.38
678.057,139.286
678.247,137.673
678.436,134.4
678.626,127.949
678.815,122.305
679.005,117.988
679.194,113.672
679.384,111.016
679.573,108.502
679.763,106.036
679.952,103.854
680.142,102.431
680.331,100.96
680.521,99.5373
680.71,98.3041
680.899,97.3554
681.089,96.4542
681.278,95.7427
681.468,95.0312
681.657,94.6518
681.847,94.3672
682.036,94.4146
682.226,94.4146
682.415,93.5134
682.605,95.0312
682.794,95.7902
682.984,96.5491
683.173,98.0669
683.363,99.7271
683.552,101.861
683.742,104.375
683.931,107.174
684.12,115
684.31,122.352
684.499,130.416
684.689,142.084
684.878,153.895
685.068,165.705
685.257,187.477
685.447,187.904
685.636,187.999
685.826,186.291
686.015,182.354
686.205,176.141
686.394,164.567
686.584,153.183
686.773,141.847
686.963,130.463
687.152,122.684
687.341,120.028
687.531,117.562
687.72,115.759
687.91,114.004
688.099,112.534
688.289,111.443
688.478,110.304
688.668,109.403
688.857,108.929
689.047,108.597
689.236,108.312
689.426,108.028
689.615,107.791
689.805,107.553
689.994,107.316
690.184,106.984
690.373,106.652
690.563,106.557
690.752,106.51
690.942,106.462
691.131,106.51
691.32,106.557
691.51,105.087
691.699,106.7
691.889,107.174
692.078,107.885
692.268,109.214
692.457,110.399
692.647,112.392
692.836,114.336
693.026,118.605
693.215,125.435
693.405,137.531
693.594,154.464
693.784,199.525
693.973,341.395
694.163,332.335
694.352,341.158
694.542,325.363
694.731,306.817
694.92,288.128
695.11,269.535
695.299,250.894
695.489,232.3
695.678,213.707
695.868,195.066
696.057,176.425
696.247,157.832
696.436,155.128
696.626,156.788
696.815,157.262
697.005,158.211
697.194,159.492
697.384,161.911
697.573,164.709
697.763,169.31
697.952,194.734
698.141,224.047
698.331,227.462
698.52,228.79
698.71,226.751
698.899,221.486
699.089,216.126
699.278,210.814
699.468,210.719
699.657,233.202
699.847,256.111
700.036,256.444
700.226,255.4
700.415,250.277
700.605,240.743
700.794,231.257
700.984,221.723
701.173,212.237
701.363,202.703
701.552,193.216
701.741,183.682
701.931,174.196
702.12,164.709
702.31,157.642
702.499,155.887
702.689,154.654
702.878,154.606
703.068,155.318
703.257,156.124
703.447,210.434
703.636,316.303
703.826,315.26
704.015,293.441
704.205,270.578
704.394,247.763
704.584,224.901
704.773,204.221
704.963,195.73
705.152,184.109
705.341,172.536
705.531,160.962
705.72,149.341
705.91,137.815
706.099,132.835
706.289,130.558
706.478,129.23
706.668,127.949
706.857,127.095
707.047,126.479
707.236,126.716
707.426,126.763
707.615,126.763
707.805,126.906
707.994,128.044
708.184,130.036
708.373,133.404
708.562,137.104
708.752,153.373
708.941,191.366
709.131,254.783
709.32,254.167
709.51,238.087
709.699,220.158
709.889,202.323
710.078,184.346
710.268,167.555
710.457,167.935
710.647,176.425
710.836,187.809
711.026,197.106
711.215,196.679
711.405,195.872
711.594,193.026
711.784,189.232
711.973,185.58
712.162,182.734
712.352,179.793
712.541,176.947
712.731,174.338
712.92,171.919
713.11,169.547
713.299,167.128
713.489,164.804
713.678,162.433
713.868,160.108
714.057,157.737
714.247,155.413
714.436,153.278
714.626,151.191
714.815,149.104
715.005,147.017
715.194,144.977
715.384,142.89
715.573,141.041
715.762,139.286
715.952,137.531
716.141,135.776
716.331,134.021
716.52,132.55
716.71,131.127
716.899,129.704
717.089,128.234
717.278,126.811
717.468,125.388
717.657,124.155
717.847,123.064
718.036,121.973
718.226,120.882
718.415,119.791
718.605,118.7
718.794,117.562
718.984,116.471
719.173,115.427
719.362,114.431
719.552,113.293
719.741,112.249
719.931,111.206
720.12,110.162
720.31,109.071
720.499,108.36
720.689,107.696
720.878,106.984
721.068,106.32
721.257,105.609
721.447,105.039
721.636,104.613
721.826,104.091
722.015,103.616
722.205,103.142
722.394,102.858
722.583,102.62
722.773,102.288
722.962,102.241
723.152,102.241
723.341,102.241
723.531,102.288
723.72,102.573
723.91,103.095
724.099,104.328
724.289,114.858
724.478,115.38
724.668,115.759
724.857,116.328
725.047,116.992
725.236,122.163
725.426,127.902
725.615,153.61
725.805,183.208
725.994,212.758
726.183,229.502
726.373,229.692
726.562,229.075
726.752,227.367
726.941,224.095
727.131,219.968
727.32,212.901
727.51,203.13
727.699,193.026
727.889,182.828
728.078,172.583
728.268,162.433
728.457,152.235
728.647,142.084
728.836,131.886
729.026,129.04
729.215,126.669
729.405,125.246
729.594,124.202
729.784,123.111
729.973,122.257
730.162,121.878
730.352,121.546
730.541,121.214
730.731,120.834
730.92,120.692
731.11,120.502
731.299,120.36
731.489,120.218
731.678,120.076
731.868,120.076
732.057,120.123
732.247,119.743
732.436,119.838
732.626,119.933
732.815,119.981
733.005,120.076
733.194,120.123
733.383,120.455
733.573,120.834
733.762,121.214
733.952,121.878
734.141,124.344
734.331,126.763
734.52,131.032
734.71,135.444
734.899,139.001
735.089,142.606
735.278,146.258
735.468,149.863
735.657,152.424
735.847,154.274
736.036,155.033
736.226,155.887
736.415,156.504
736.604,156.646
736.794,156.836
736.983,156.978
737.173,157.168
737.362,157.31
737.552,157.452
737.741,157.642
737.931,157.737
738.12,157.784
738.31,157.832
738.499,157.927
738.689,157.927
738.878,157.927
739.068,157.974
739.257,158.021
739.447,158.069
739.636,158.069
739.826,158.116
740.015,158.069
740.205,158.021
740.394,157.927
740.583,157.927
740.773,157.784
740.962,157.689
741.152,157.642
741.341,157.594
741.531,157.5
741.72,157.452
741.91,157.452
742.099,157.452
742.289,157.452
742.478,157.405
742.668,157.405
742.857,157.405" />
</g>
</svg>
