<?xml version="1.0"?>
<svg version="1.1"
     xmlns="http://www.w3.org/2000/svg"
     xmlns:xlink="http://www.w3.org/1999/xlink"
     viewBox="0 0 800 600">
<g>
<text fill="#000000" font-family="sans-serif" font-size="19.0476" text-anchor="start" x="4.7619" y="591.429" >
NIST Chemistry WebBook (https://webbook.nist.gov/chemistry)
</text>
<polyline stroke="#000000" stroke-width="1.19048" fill="none" points="95.2381,514.286
742.857,514.286
742.857,66.6667
95.2381,66.6667
95.2381,514.286" />
<text fill="#000000" font-family="sans-serif" font-size="19.0476" text-anchor="middle" x="419.048" y="24.7619" >
4-BIPHENYLAMINE
</text>
<text fill="#000000" font-family="sans-serif" font-size="19.0476" text-anchor="middle" x="419.048" y="53.3333" >
INFRARED SPECTRUM
</text>
<text fill="#000000" font-family="sans-serif" font-size="19.0476" text-anchor="middle" x="419.048" y="558.095" >
Wavenumber (cm-1)
</text>
<text fill="#000000" font-family="sans-serif" font-size="19.0476" text-anchor="middle" transform="translate(20,290.476) rotate(270)" x="0" y="0" >
Percent Transmission (Transmitance)
</text>
<text fill="#000000" font-family="sans-serif" font-size="19.0476" text-anchor="middle" x="635.758" y="534.286" >
1000
</text>
<line stroke="#000000" stroke-width="1.19048" x1="635.758" y1="514.286" x2="635.758" y2="504.762" />
<text fill="#000000" font-family="sans-serif" font-size="19.0476" text-anchor="middle" x="442.439" y="534.286" >
2000
</text>
<line stroke="#000000" stroke-width="1.19048" x1="442.439" y1="514.286" x2="442.439" y2="504.762" />
<text fill="#000000" font-family="sans-serif" font-size="19.0476" text-anchor="middle" x="249.12" y="534.286" >
3000
</text>
<line stroke="#000000" stroke-width="1.19048" x1="249.12" y1="514.286" x2="249.12" y2="504.762" />
<line stroke="#000000" stroke-width="1.19048" x1="732.418" y1="514.286" x2="732.418" y2="509.524" />
<line stroke="#000000" stroke-width="1.19048" x1="713.086" y1="514.286" x2="713.086" y2="509.524" />
<line stroke="#000000" stroke-width="1.19048" x1="693.754" y1="514.286" x2="693.754" y2="509.524" />
<line stroke="#000000" stroke-width="1.19048" x1="674.422" y1="514.286" x2="674.422" y2="509.524" />
<line stroke="#000000" stroke-width="1.19048" x1="655.09" y1="514.286" x2="655.09" y2="509.524" />
<line stroke="#000000" stroke-width="1.19048" x1="635.758" y1="514.286" x2="635.758" y2="509.524" />
<line stroke="#000000" stroke-width="1.19048" x1="616.426" y1="514.286" x2="616.426" y2="509.524" />
<line stroke="#000000" stroke-width="1.19048" x1="597.094" y1="514.286" x2="597.094" y2="509.524" />
<line stroke="#000000" stroke-width="1.19048" x1="577.763" y1="514.286" x2="577.763" y2="509.524" />
<line stroke="#000000" stroke-width="1.19048" x1="558.431" y1="514.286" x2="558.431" y2="509.524" />
<line stroke="#000000" stroke-width="1.19048" x1="539.099" y1="514.286" x2="539.099" y2="509.524" />
<line stroke="#000000" stroke-width="1.19048" x1="519.767" y1="514.286" x2="519.767" y2="509.524" />
<line stroke="#000000" stroke-width="1.19048" x1="500.435" y1="514.286" x2="500.435" y2="509.524" />
<line stroke="#000000" stroke-width="1.19048" x1="481.103" y1="514.286" x2="481.103" y2="509.524" />
<line stroke="#000000" stroke-width="1.19048" x1="461.771" y1="514.286" x2="461.771" y2="509.524" />
<line stroke="#000000" stroke-width="1.19048" x1="442.439" y1="514.286" x2="442.439" y2="509.524" />
<line stroke="#000000" stroke-width="1.19048" x1="423.107" y1="514.286" x2="423.107" y2="509.524" />
<line stroke="#000000" stroke-width="1.19048" x1="403.775" y1="514.286" x2="403.775" y2="509.524" />
<line stroke="#000000" stroke-width="1.19048" x1="384.443" y1="514.286" x2="384.443" y2="509.524" />
<line stroke="#000000" stroke-width="1.19048" x1="365.112" y1="514.286" x2="365.112" y2="509.524" />
<line stroke="#000000" stroke-width="1.19048" x1="345.78" y1="514.286" x2="345.78" y2="509.524" />
<line stroke="#000000" stroke-width="1.19048" x1="326.448" y1="514.286" x2="326.448" y2="509.524" />
<line stroke="#000000" stroke-width="1.19048" x1="307.116" y1="514.286" x2="307.116" y2="509.524" />
<line stroke="#000000" stroke-width="1.19048" x1="287.784" y1="514.286" x2="287.784" y2="509.524" />
<line stroke="#000000" stroke-width="1.19048" x1="268.452" y1="514.286" x2="268.452" y2="509.524" />
<line stroke="#000000" stroke-width="1.19048" x1="249.12" y1="514.286" x2="249.12" y2="509.524" />
<line stroke="#000000" stroke-width="1.19048" x1="229.788" y1="514.286" x2="229.788" y2="509.524" />
<line stroke="#000000" stroke-width="1.19048" x1="210.456" y1="514.286" x2="210.456" y2="509.524" />
<line stroke="#000000" stroke-width="1.19048" x1="191.124" y1="514.286" x2="191.124" y2="509.524" />
<line stroke="#000000" stroke-width="1.19048" x1="171.792" y1="514.286" x2="171.792" y2="509.524" />
<line stroke="#000000" stroke-width="1.19048" x1="152.461" y1="514.286" x2="152.461" y2="509.524" />
<line stroke="#000000" stroke-width="1.19048" x1="133.129" y1="514.286" x2="133.129" y2="509.524" />
<line stroke="#000000" stroke-width="1.19048" x1="113.797" y1="514.286" x2="113.797" y2="509.524" />
<text fill="#000000" font-family="sans-serif" font-size="19.0476" text-anchor="end" x="90.4762" y="418.564" >
0.2
</text>
<line stroke="#000000" stroke-width="1.19048" x1="95.2381" y1="414.278" x2="104.762" y2="414.278" />
<text fill="#000000" font-family="sans-serif" font-size="19.0476" text-anchor="end" x="90.4762" y="314.66" >
0.4
</text>
<line stroke="#000000" stroke-width="1.19048" x1="95.2381" y1="310.374" x2="104.762" y2="310.374" />
<text fill="#000000" font-family="sans-serif" font-size="19.0476" text-anchor="end" x="90.4762" y="210.755" >
0.6
</text>
<line stroke="#000000" stroke-width="1.19048" x1="95.2381" y1="206.47" x2="104.762" y2="206.47" />
<text fill="#000000" font-family="sans-serif" font-size="19.0476" text-anchor="end" x="90.4762" y="106.851" >
0.8
</text>
<line stroke="#000000" stroke-width="1.19048" x1="95.2381" y1="102.566" x2="104.762" y2="102.566" />
<line stroke="#000000" stroke-width="1.19048" x1="95.2381" y1="492.206" x2="100" y2="492.206" />
<line stroke="#000000" stroke-width="1.19048" x1="95.2381" y1="466.23" x2="100" y2="466.23" />
<line stroke="#000000" stroke-width="1.19048" x1="95.2381" y1="440.254" x2="100" y2="440.254" />
<line stroke="#000000" stroke-width="1.19048" x1="95.2381" y1="414.278" x2="100" y2="414.278" />
<line stroke="#000000" stroke-width="1.19048" x1="95.2381" y1="388.302" x2="100" y2="388.302" />
<line stroke="#000000" stroke-width="1.19048" x1="95.2381" y1="362.326" x2="100" y2="362.326" />
<line stroke="#000000" stroke-width="1.19048" x1="95.2381" y1="336.35" x2="100" y2="336.35" />
<line stroke="#000000" stroke-width="1.19048" x1="95.2381" y1="310.374" x2="100" y2="310.374" />
<line stroke="#000000" stroke-width="1.19048" x1="95.2381" y1="284.398" x2="100" y2="284.398" />
<line stroke="#000000" stroke-width="1.19048" x1="95.2381" y1="258.422" x2="100" y2="258.422" />
<line stroke="#000000" stroke-width="1.19048" x1="95.2381" y1="232.446" x2="100" y2="232.446" />
<line stroke="#000000" stroke-width="1.19048" x1="95.2381" y1="206.47" x2="100" y2="206.47" />
<line stroke="#000000" stroke-width="1.19048" x1="95.2381" y1="180.494" x2="100" y2="180.494" />
<line stroke="#000000" stroke-width="1.19048" x1="95.2381" y1="154.518" x2="100" y2="154.518" />
<line stroke="#000000" stroke-width="1.19048" x1="95.2381" y1="128.542" x2="100" y2="128.542" />
<line stroke="#000000" stroke-width="1.19048" x1="95.2381" y1="102.565" x2="100" y2="102.565" />
<line stroke="#000000" stroke-width="1.19048" x1="95.2381" y1="76.5894" x2="100" y2="76.5894" />
<polyline stroke="#FF0000" stroke-width="1.19048" fill="none" points="742.857,267.669
742.664,268.293
742.47,268.864
742.277,268.916
742.084,270.163
741.891,271.046
741.697,271.929
741.504,272.812
741.311,273.696
741.117,274.579
740.924,275.566
740.731,276.553
740.537,277.592
740.344,278.579
740.151,279.566
739.957,280.553
739.764,281.54
739.571,282.528
739.377,283.515
739.184,284.502
738.991,285.489
738.797,286.736
738.604,287.931
738.411,289.177
738.217,290.372
738.024,291.723
737.831,293.334
737.638,294.996
737.444,296.658
737.251,298.425
737.058,300.607
736.864,302.737
736.671,305.386
736.478,308.4
736.284,311.413
736.091,314.426
735.898,317.543
735.704,320.504
735.511,323.57
735.318,326.583
735.124,330.22
734.931,334.272
734.738,338.324
734.544,342.376
734.351,347.156
734.158,353.182
733.964,359.157
733.771,366.274
733.578,373.651
733.384,381.185
733.191,388.873
732.998,398.017
732.805,408.2
732.611,413.914
732.418,412.979
732.225,415.265
732.031,414.59
731.838,412.667
731.645,402.641
731.451,390.692
731.258,378.743
731.065,366.794
730.871,354.845
730.678,342.896
730.485,330.895
730.291,318.998
730.098,307.361
729.905,291.775
729.711,286.06
729.518,282.372
729.325,278.735
729.131,276.501
728.938,274.891
728.745,273.28
728.552,271.929
728.358,271.202
728.165,270.89
727.972,270.786
727.778,270.059
727.585,271.358
727.392,272.189
727.198,273.592
727.005,275.046
726.812,277.592
726.618,279.93
726.425,282.839
726.232,286.372
726.038,289.125
725.845,292.243
725.652,297.646
725.458,303.776
725.265,315.621
725.072,330.791
724.878,345.909
724.685,361.027
724.492,376.197
724.298,393.03
724.105,393.913
723.912,394.121
723.719,365.807
723.525,337.077
723.332,308.348
723.139,286.891
722.945,286.891
722.752,285.541
722.559,287.463
722.365,296.191
722.172,304.919
721.979,313.647
721.785,322.427
721.592,331.155
721.399,339.883
721.205,348.611
721.012,357.339
720.819,366.066
720.625,373.236
720.432,373.963
720.239,278.371
720.045,194.105
719.852,161.219
719.659,161.219
719.466,161.219
719.272,161.947
719.079,165.895
718.886,169.844
718.692,173.844
718.499,177.844
718.306,181.792
718.112,185.637
717.919,187.351
717.726,189.326
717.532,191.3
717.339,193.274
717.146,195.248
716.952,196.962
716.759,198.625
716.566,199.924
716.372,201.015
716.179,202.158
715.986,203.249
715.792,204.392
715.599,205.535
715.406,206.522
715.212,207.353
715.019,208.132
714.826,208.911
714.633,209.691
714.439,211.353
714.246,211.041
714.053,211.717
713.859,212.392
713.666,212.912
713.473,213.379
713.279,213.795
713.086,214.263
712.893,214.678
712.699,215.146
712.506,215.561
712.313,215.977
712.119,216.393
711.926,216.756
711.733,217.172
711.539,217.587
711.346,218.003
711.153,218.367
710.959,218.834
710.766,219.354
710.573,219.925
710.38,220.445
710.186,221.016
709.993,221.536
709.8,222.107
709.606,222.627
709.413,223.042
709.22,223.458
709.026,223.926
708.833,224.341
708.64,224.757
708.446,225.224
708.253,225.64
708.06,226.056
707.866,226.419
707.673,226.835
707.48,227.199
707.286,227.77
707.093,228.965
706.9,230.212
706.706,231.459
706.513,233.381
706.32,238.368
706.126,243.356
705.933,248.291
705.74,253.279
705.547,256.655
705.353,255.668
705.16,256.967
704.967,251.668
704.773,246.369
704.58,244.499
704.387,244.966
704.193,245.278
704,245.642
703.807,246.109
703.613,246.421
703.42,245.694
703.227,242.057
703.033,238.212
702.84,234.16
702.647,229.848
702.453,227.562
702.26,226.939
702.067,226.783
701.873,227.718
701.68,228.601
701.487,229.536
701.294,230.472
701.1,231.563
700.907,232.706
700.714,233.848
700.52,235.095
700.327,237.018
700.134,238.94
699.94,243.044
699.747,246.888
699.554,245.278
699.36,242.836
699.167,241.797
698.974,240.914
698.78,240.966
698.587,240.966
698.394,239.199
698.2,242.213
698.007,242.836
697.814,244.499
697.62,246.421
697.427,248.395
697.234,251.304
697.04,254.318
696.847,257.902
696.654,261.799
696.461,268.812
696.267,276.761
696.074,285.697
695.881,320.556
695.687,364.352
695.494,400.459
695.301,436.617
695.107,472.724
694.914,508.831
694.721,510.961
694.527,511.376
694.334,511.688
694.141,512.156
693.947,495.063
693.754,471.217
693.561,447.371
693.367,423.525
693.174,399.679
692.981,375.885
692.787,352.039
692.594,328.193
692.401,304.347
692.208,268.345
692.014,268.293
691.821,270.215
691.628,282.216
691.434,294.269
691.241,306.218
691.048,318.167
690.854,330.22
690.661,342.168
690.468,344.195
690.274,320.297
690.081,297.334
689.888,274.423
689.694,251.512
689.501,232.654
689.308,228.497
689.114,225.64
688.921,223.198
688.728,218.471
688.534,206.729
688.341,204.288
688.148,202.937
687.954,202.469
687.761,202.002
687.568,201.482
687.375,201.015
687.181,201.067
686.988,201.119
686.795,201.482
686.601,201.95
686.408,202.417
686.215,202.937
686.021,203.768
685.828,204.703
685.635,205.69
685.441,206.885
685.248,208.444
685.055,210.21
684.861,214.055
684.668,222.471
684.475,237.018
684.281,249.694
684.088,284.813
683.895,311.413
683.701,338.012
683.508,364.508
683.315,391.055
683.122,417.655
682.928,444.202
682.735,496.102
682.542,506.077
682.348,512.987
682.155,514.234
681.962,514.286
681.768,514.286
681.575,513.558
681.382,511.376
681.188,505.714
680.995,430.695
680.802,353.91
680.608,261.123
680.415,249.226
680.222,237.641
680.028,223.666
679.835,212.704
679.642,202.365
679.448,195.456
679.255,190.157
679.062,185.377
678.868,180.701
678.675,177.74
678.482,175.454
678.289,173.116
678.095,171.246
677.902,169.688
677.709,168.181
677.515,166.726
677.322,165.272
677.129,164.025
676.935,162.83
676.742,162.466
676.549,162.103
676.355,161.739
676.162,161.375
675.969,159.505
675.775,161.064
675.582,161.167
675.389,161.219
675.195,161.323
675.002,161.531
674.809,162.155
674.615,163.298
674.422,164.752
674.229,166.726
674.036,169.688
673.842,172.285
673.649,174.519
673.456,177.377
673.262,180.961
673.069,184.598
672.876,188.235
672.682,192.495
672.489,198.313
672.296,204.444
672.102,210.73
671.909,215.094
671.716,219.042
671.522,223.718
671.329,229.952
671.136,239.251
670.942,247.252
670.749,336.714
670.556,371.262
670.362,405.81
670.169,440.358
669.976,474.906
669.782,502.596
669.589,504.623
669.396,503.012
669.203,502.441
669.009,489.505
668.816,460.048
668.623,430.695
668.429,401.238
668.236,371.781
668.043,342.376
667.849,325.856
667.656,324.765
667.463,323.674
667.269,321.388
667.076,315.777
666.883,308.14
666.689,283.982
666.496,277.488
666.303,271.046
666.109,264.708
665.916,259.876
665.723,256.5
665.529,254.006
665.336,251.46
665.143,248.966
664.95,245.797
664.756,242.472
664.563,239.148
664.37,235.823
664.176,232.757
663.983,229.848
663.79,226.991
663.596,224.133
663.403,221.224
663.21,218.419
663.016,216.029
662.823,213.639
662.63,211.249
662.436,208.859
662.243,206.47
662.05,203.82
661.856,201.015
661.663,198.209
661.47,195.456
661.276,192.547
661.083,188.39
660.89,184.338
660.696,180.13
660.503,176.078
660.31,173.22
660.117,170.363
659.923,167.454
659.73,164.596
659.537,161.739
659.343,158.622
659.15,155.557
658.957,152.492
658.763,149.426
658.57,146.465
658.377,143.867
658.183,141.27
657.99,138.724
657.797,136.127
657.603,133.529
657.41,130.931
657.217,128.334
657.023,125.788
656.83,124.697
656.637,124.022
656.443,124.489
656.25,124.957
656.057,125.373
655.864,125.788
655.67,126.827
655.477,128.697
655.284,137.218
655.09,150.465
654.897,162.674
654.704,174.935
654.51,187.247
654.317,199.508
654.124,201.586
653.93,200.859
653.737,200.755
653.544,178.467
653.35,148.231
653.157,133.737
652.964,128.594
652.77,123.294
652.577,120.905
652.384,119.294
652.19,117.632
651.997,116.489
651.804,115.294
651.61,114.307
651.417,114.307
651.224,114.307
651.031,114.307
650.837,114.566
650.644,114.774
650.451,114.982
650.257,115.138
650.064,115.346
649.871,115.554
649.677,117.06
649.484,118.619
649.291,120.229
649.097,120.489
648.904,120.593
648.711,120.177
648.517,118.619
648.324,117.008
648.131,114.618
647.937,111.865
647.744,110.203
647.551,108.748
647.357,108.228
647.164,107.709
646.971,107.709
646.778,108.124
646.584,108.54
646.391,108.904
646.198,109.267
646.004,109.735
645.811,110.047
645.618,110.203
645.424,109.839
645.231,109.06
645.038,108.384
644.844,107.709
644.651,107.033
644.458,106.514
644.264,105.994
644.071,105.423
643.878,104.903
643.684,104.28
643.491,103.708
643.298,103.033
643.104,102.202
642.911,101.423
642.718,100.591
642.524,99.7601
642.331,98.9808
642.138,98.0977
641.945,97.3184
641.751,96.7989
641.558,96.3832
641.365,95.9157
641.171,96.0715
640.978,96.3832
640.785,96.643
640.591,97.0587
640.398,97.4223
640.205,96.0715
640.011,94.7208
639.818,94.1493
639.625,93.4739
639.431,93.0583
639.238,93.0583
639.045,93.0063
638.851,93.0063
638.658,91.292
638.465,93.1622
638.271,93.4739
638.078,97.1106
637.885,99.916
637.692,103.345
637.498,108.384
637.305,119.814
637.112,132.646
636.918,138.932
636.725,139.4
636.532,136.386
636.338,112.644
636.145,97.5782
635.952,96.9547
635.758,97.8379
635.565,98.6692
635.372,105.111
635.178,111.605
634.985,143.971
634.792,169.012
634.598,169.376
634.405,141.582
634.212,113.943
634.018,101.475
633.825,95.7079
633.632,94.3571
633.438,93.9935
633.245,95.7599
633.052,97.3184
632.859,104.072
632.665,107.865
632.472,109.631
632.279,109.787
632.085,111.086
631.892,106.046
631.699,98.6692
631.505,89.8893
631.312,86.8241
631.119,86.4604
630.925,86.6682
630.732,87.7592
630.539,87.6553
630.345,88.4865
630.152,89.4736
629.959,91.7076
629.765,94.7727
629.572,99.916
629.379,104.228
629.185,108.28
628.992,115.502
628.799,141.997
628.606,173.376
628.412,194.936
628.219,194.105
628.026,194.261
627.832,163.038
627.639,118.619
627.446,91.24
627.252,89.5256
627.059,88.6944
626.866,87.6033
626.672,88.2787
626.479,88.2787
626.286,88.4865
626.092,89.2658
625.899,90.7205
625.706,92.1751
625.512,93.8376
625.319,96.0715
625.126,98.1496
624.932,100.176
624.739,102.358
624.546,105.423
624.352,108.904
624.159,112.592
623.966,116.177
623.773,119.19
623.579,122.463
623.386,126.308
623.193,130.204
622.999,136.698
622.806,143.919
622.613,151.141
622.419,158.414
622.226,165.583
622.033,175.558
621.839,193.066
621.646,195.56
621.453,195.56
621.259,195.768
621.066,179.195
620.873,156.336
620.679,133.321
620.486,110.358
620.293,102.358
620.099,97.9938
619.906,95.3962
619.713,93.6298
619.52,92.8505
619.326,92.1751
619.133,91.5517
618.94,90.8763
618.746,90.3568
618.553,89.9932
618.36,89.6295
618.166,89.3697
617.973,89.3697
617.78,89.4217
617.586,89.4217
617.393,89.7854
617.2,90.201
617.006,90.6166
616.813,91.24
616.62,92.1232
616.426,93.1622
616.233,94.2013
616.04,95.2403
615.846,96.4872
615.653,97.734
615.46,99.0328
615.266,100.176
615.073,101.319
614.88,102.514
614.687,104.748
614.493,107.189
614.3,109.631
614.107,112.956
613.913,116.229
613.72,119.45
613.527,122.411
613.333,125.373
613.14,132.958
612.947,141.582
612.753,150.154
612.56,158.778
612.367,167.454
612.173,176.026
611.98,182.52
611.787,187.767
611.593,192.858
611.4,195.196
611.207,195.196
611.013,195.144
610.82,195.923
610.627,180.857
610.434,174.207
610.24,167.558
610.047,160.96
609.854,155.661
609.66,149.634
609.467,143.036
609.274,135.243
609.08,128.853
608.887,123.139
608.694,121.112
608.5,119.19
608.307,117.736
608.114,116.541
607.92,116.177
607.727,116.385
607.534,116.437
607.34,116.437
607.147,118.93
606.954,119.97
606.76,121.892
606.567,124.489
606.374,132.126
606.181,133.425
605.987,134.256
605.794,134.048
605.601,132.802
605.407,128.022
605.214,124.333
605.021,123.45
604.827,123.398
604.634,123.346
604.441,123.762
604.247,124.126
604.054,125.373
603.861,126.775
603.667,128.594
603.474,131.191
603.281,134.308
603.087,136.958
602.894,139.815
602.701,144.906
602.507,179.559
602.314,239.927
602.121,300.399
601.927,365.599
601.734,365.547
601.541,362.066
601.348,307.776
601.154,259.461
600.961,261.019
600.768,272.501
600.574,293.074
600.381,313.595
600.188,334.116
599.994,344.974
599.801,344.974
599.608,331.311
599.414,309.958
599.221,288.658
599.028,267.306
598.834,245.953
598.641,224.601
598.448,171.246
598.254,162.83
598.061,155.453
597.868,151.141
597.674,146.881
597.481,142.673
597.288,137.062
597.094,131.139
596.901,127.762
596.708,124.853
596.515,121.996
596.321,118.151
596.128,114.203
595.935,109.475
595.741,104.592
595.548,101.63
595.355,99.968
595.161,98.3055
594.968,96.8508
594.775,96.0715
594.581,95.2923
594.388,94.513
594.195,93.7856
594.001,93.1103
593.808,92.7466
593.615,92.4349
593.421,92.0712
593.228,91.7595
593.035,91.4478
592.841,91.4998
592.648,91.4998
592.455,91.5517
592.262,91.6037
592.068,91.8115
591.875,92.383
591.682,92.9544
591.488,93.7856
591.295,94.8247
591.102,96.5911
590.908,98.5133
590.715,101.111
590.522,104.02
590.328,106.878
590.135,112.229
589.942,115.865
589.748,116.541
589.555,116.697
589.362,116.697
589.168,116.852
588.975,117.06
588.782,117.424
588.589,118.982
588.395,120.957
588.202,123.087
588.009,126.048
587.815,129.581
587.622,134.464
587.429,138.568
587.235,142.517
587.042,146.569
586.849,153.738
586.655,160.856
586.462,168.233
586.269,174.519
586.075,179.559
585.882,185.065
585.689,190.624
585.495,222.263
585.302,241.174
585.109,260.084
584.915,279.047
584.722,297.957
584.529,316.92
584.335,335.882
584.142,354.793
583.949,370.223
583.755,376.249
583.562,384.561
583.369,393.497
583.176,402.693
582.982,412.2
582.789,419.265
582.596,425.967
582.402,432.409
582.209,438.592
582.016,451.372
581.822,464.516
581.629,471.997
581.436,482.595
581.242,493.297
581.049,495.479
580.856,496.31
580.662,496.31
580.469,495.479
580.276,493.972
580.082,476.569
579.889,451.839
579.696,427.162
579.502,402.433
579.309,377.756
579.116,353.026
578.922,328.349
578.729,303.62
578.536,278.943
578.343,254.214
578.149,229.536
577.956,221.016
577.763,202.573
577.569,194.053
577.376,186.001
577.183,179.507
576.989,171.922
576.796,162.622
576.603,156.024
576.409,149.426
576.216,143.244
576.023,137.685
575.829,132.802
575.636,130.256
575.443,127.762
575.249,125.321
575.056,124.23
574.863,123.139
574.669,122.1
574.476,121.009
574.283,120.697
574.09,120.437
573.896,120.177
573.703,120.229
573.51,120.333
573.316,120.749
573.123,120.385
572.93,118.255
572.736,115.709
572.543,113.216
572.35,110.514
572.156,108.124
571.963,106.878
571.77,105.579
571.576,104.748
571.383,104.176
571.19,103.501
570.996,102.721
570.803,101.475
570.61,100.176
570.417,98.9808
570.223,97.682
570.03,96.4352
569.837,96.1235
569.643,95.7599
569.45,95.3962
569.257,95.4481
569.063,95.4481
568.87,95.8118
568.677,96.2794
568.483,96.643
568.29,97.0587
568.097,97.8379
567.903,98.6692
567.71,99.3965
567.517,100.332
567.323,101.267
567.13,102.254
566.937,103.189
566.743,103.864
566.55,104.592
566.357,104.02
566.163,103.449
565.97,102.825
565.777,102.254
565.583,101.578
565.39,100.695
565.197,99.8121
565.004,99.0328
564.81,98.1496
564.617,97.3704
564.424,96.5911
564.23,96.1235
564.037,95.6559
563.844,95.7079
563.65,96.2794
563.457,96.7469
563.264,97.4742
563.07,98.3055
562.877,99.1887
562.684,99.968
562.49,100.747
562.297,100.591
562.104,99.5523
561.91,98.3575
561.717,97.3704
561.524,96.5911
561.33,95.7079
561.137,95.0325
560.944,94.3571
560.75,93.8896
560.557,93.6818
560.364,93.422
560.171,93.1103
559.977,92.8505
559.784,92.8505
559.591,92.8505
559.397,92.7986
559.204,92.7986
559.011,93.0583
558.817,93.3181
558.624,93.6298
558.431,93.9935
558.237,94.6169
558.044,95.2923
557.851,96.2794
557.657,97.4742
557.464,98.825
557.271,100.695
557.077,102.618
556.884,105.319
556.691,108.228
556.497,111.086
556.304,113.943
556.111,116.852
555.918,119.762
555.724,123.918
555.531,128.386
555.338,132.854
555.144,137.322
554.951,141.893
554.758,147.972
554.564,153.894
554.371,163.609
554.178,164.492
553.984,164.96
553.791,164.337
553.598,161.531
553.404,157.843
553.211,150.673
553.018,136.646
552.824,123.139
552.631,117.736
552.438,116.281
552.245,115.813
552.051,115.605
551.858,115.242
551.665,116.177
551.471,116.852
551.278,117.891
551.085,118.879
550.891,119.97
550.698,121.009
550.505,122.1
550.311,123.918
550.118,126.412
549.925,129.581
549.731,133.009
549.538,136.958
549.345,143.608
549.151,153.79
548.958,164.025
548.765,174.311
548.571,184.546
548.378,196.391
548.185,196.391
547.991,196.339
547.798,172.805
547.605,142.673
547.411,135.711
547.218,133.529
547.025,132.958
546.832,132.438
546.638,132.282
546.445,132.282
546.252,130.879
546.058,134.256
545.865,138.309
545.672,147.66
545.478,156.7
545.285,161.895
545.092,171.454
544.898,180.494
544.705,199.716
544.512,224.029
544.318,248.291
544.125,272.553
543.932,296.866
543.738,321.128
543.545,345.39
543.352,369.703
543.158,393.965
542.965,467.217
542.772,482.699
542.578,489.972
542.385,494.908
542.192,498.336
541.999,501.765
541.805,504.986
541.612,507.376
541.419,508.831
541.225,509.61
541.032,509.766
540.839,508.831
540.645,507.012
540.452,499.375
540.259,469.399
540.065,431.942
539.872,394.536
539.679,256.188
539.485,236.238
539.292,223.458
539.099,217.951
538.905,213.639
538.712,212.081
538.519,211.665
538.326,211.821
538.132,211.249
537.939,212.756
537.746,213.275
537.552,215.509
537.359,217.795
537.166,220.912
536.972,224.913
536.779,230.368
536.586,263.617
536.392,282.06
536.199,300.503
536.006,318.998
535.812,337.389
535.619,355.832
535.426,494.336
535.232,499.843
535.039,507.584
534.846,509.35
534.652,509.09
534.459,508.987
534.266,505.09
534.073,469.295
533.879,433.552
533.686,397.705
533.493,361.91
533.299,326.115
533.106,293.905
532.913,285.852
532.719,286.06
532.526,284.71
532.333,285.385
532.139,287.255
531.946,290.009
531.753,293.022
531.559,295.723
531.366,298.373
531.173,301.542
530.979,304.451
530.786,306.218
530.593,307.932
530.399,308.815
530.206,309.179
530.013,309.023
529.819,308.867
529.626,308.192
529.433,307.465
529.24,306.737
529.046,305.386
528.853,303.828
528.66,301.854
528.466,299.36
528.273,296.139
528.08,291.879
527.886,287.255
527.693,283.878
527.5,282.787
527.306,281.281
527.113,279.047
526.92,276.501
526.726,273.176
526.533,270.682
526.34,266.89
526.146,269.02
525.953,269.124
525.76,269.591
525.566,270.942
525.373,274.007
525.18,277.125
524.986,280.19
524.793,283.151
524.6,286.008
524.406,289.177
524.213,293.334
524.02,297.49
523.827,301.698
523.633,305.854
523.44,309.543
523.247,312.816
523.053,315.257
522.86,316.4
522.667,315.933
522.473,314.842
522.28,313.231
522.087,313.283
521.893,313.283
521.7,315.725
521.507,318.842
521.313,323.362
521.12,327.414
520.927,332.194
520.733,337.805
520.54,347.208
520.347,362.793
520.154,381.029
519.96,395.731
519.767,420.876
519.574,429.812
519.38,429.76
519.187,429.708
518.994,428.98
518.8,427.786
518.607,426.798
518.414,426.019
518.22,425.811
518.027,429.188
517.834,435.474
517.64,443.267
517.447,451.216
517.254,460.567
517.06,490.699
516.867,502.337
516.674,506.077
516.48,508.727
516.287,509.818
516.094,510.909
515.901,511.169
515.707,511.065
515.514,511.013
515.321,510.597
515.127,509.87
514.934,508.311
514.741,506.96
514.547,505.402
514.354,503.272
514.161,499.635
513.967,495.167
513.774,487.686
513.581,461.71
513.387,450.385
513.194,366.326
513.001,353.494
512.807,340.714
512.614,327.934
512.421,310.945
512.227,301.438
512.034,294.425
511.841,285.489
511.647,254.785
511.454,241.018
511.261,233.121
511.068,226.939
510.874,220.808
510.681,190.001
510.488,184.078
510.294,177.896
510.101,169.324
509.908,164.129
509.714,158.414
509.521,154.206
509.328,152.595
509.134,151.868
508.941,150.985
508.748,150.206
508.554,149.426
508.361,148.751
508.168,148.024
507.974,145.842
507.781,143.712
507.588,141.322
507.394,138.88
507.201,136.542
507.008,134.204
506.814,131.711
506.621,129.009
506.428,125.788
506.235,121.632
506.041,119.814
505.848,118.151
505.655,116.489
505.461,114.826
505.268,113.112
505.075,111.293
504.881,109.423
504.688,107.241
504.495,105.111
504.301,102.514
504.108,99.3965
503.915,95.1884
503.721,92.9544
503.528,91.0842
503.335,91.24
503.141,91.3958
502.948,91.6556
502.755,92.0712
502.561,92.4868
502.368,92.4868
502.175,92.4868
501.982,92.331
501.788,92.1232
501.595,91.24
501.402,90.2529
501.208,89.9412
501.015,89.6814
500.822,89.4217
500.628,89.1619
500.435,88.9541
500.242,88.7463
500.048,88.5385
499.855,87.4995
499.662,88.1748
499.468,88.019
499.275,87.9151
499.082,87.8112
498.888,87.7592
498.695,87.7073
498.502,87.7073
498.308,87.6553
498.115,87.4995
497.922,86.928
497.728,86.3045
497.535,85.6812
497.342,85.0577
497.149,85.2655
496.955,85.785
496.762,87.4995
496.569,88.6424
496.375,88.9022
496.182,89.1619
495.989,89.1619
495.795,89.1619
495.602,89.058
495.409,89.0061
495.215,88.9022
495.022,88.7982
494.829,88.5385
494.635,88.3307
494.442,88.1229
494.249,89.3178
494.055,90.3568
493.862,91.5517
493.669,92.8505
493.475,94.2013
493.282,95.2923
493.089,96.4352
492.896,97.4223
492.702,98.0457
492.509,98.6692
492.316,99.3445
492.122,99.916
491.929,100.539
491.736,99.4484
491.542,98.877
491.349,98.2016
491.156,97.682
490.962,97.3184
490.769,96.9547
490.576,96.5911
490.382,96.1235
490.189,95.6559
489.996,95.1884
489.802,94.7208
489.609,94.2013
489.416,93.7856
489.222,93.0583
489.029,92.4349
488.836,91.8115
488.642,91.24
488.449,90.5127
488.256,89.7854
488.063,88.9022
487.869,88.1229
487.676,87.2397
487.483,86.5643
487.289,85.8889
487.096,85.6812
486.903,86.2526
486.709,86.8241
486.516,87.1358
486.323,87.0319
486.129,86.876
485.936,86.5643
485.743,85.8889
485.549,84.694
485.356,83.4472
485.163,80.4859
484.969,81.7847
484.776,81.8367
484.583,81.9925
484.389,82.0964
484.196,82.2523
484.003,82.5121
483.81,82.9277
483.616,83.2913
483.423,83.8109
483.23,84.3824
483.036,85.0057
482.843,85.5772
482.65,86.2007
482.456,87.3955
482.263,88.4865
482.07,89.4736
481.876,91.0842
481.683,92.331
481.49,93.8376
481.296,95.604
481.103,97.3184
480.91,98.825
480.716,99.0328
480.523,99.1887
480.33,98.825
480.136,96.7989
479.943,95.8118
479.75,95.1364
479.556,94.8247
479.363,94.7208
479.17,94.6169
478.977,94.461
478.783,94.3571
478.59,94.2013
478.397,93.9935
478.203,93.6818
478.01,93.422
477.817,93.0583
477.623,92.7466
477.43,92.279
477.237,91.24
477.043,90.149
476.85,89.0061
476.657,88.1229
476.463,87.3955
476.27,86.7202
476.077,86.3565
475.883,86.3565
475.69,86.3565
475.497,86.4085
475.303,86.4604
475.11,86.5643
474.917,86.6163
474.724,86.7202
474.53,86.7721
474.337,86.876
474.144,86.9799
473.95,87.0838
473.757,87.1877
473.564,87.1877
473.37,87.1358
473.177,86.8241
472.984,86.5124
472.79,83.9667
472.597,86.0448
472.404,85.8889
472.21,85.8889
472.017,85.8889
471.824,86.4085
471.63,86.928
471.437,87.3955
471.244,87.9151
471.05,88.4865
470.857,89.058
470.664,89.6814
470.47,90.3568
470.277,91.0842
470.084,91.9154
469.891,92.6947
469.697,93.4739
469.504,94.3571
469.311,95.1364
469.117,96.0196
468.924,96.7989
468.731,98.3055
468.537,99.916
468.344,101.578
468.151,103.397
467.957,106.462
467.764,109.943
467.571,113.268
467.377,117.424
467.184,121.892
466.991,123.45
466.797,124.074
466.604,124.593
466.411,125.061
466.217,126.048
466.024,128.178
465.831,130.931
465.638,136.386
465.444,140.231
465.251,144.543
465.058,144.387
464.864,146.101
464.671,144.127
464.478,143.348
464.284,141.582
464.091,139.815
463.898,137.633
463.704,126.775
463.511,118.359
463.318,112.385
463.124,102.618
462.931,98.9808
462.738,95.7599
462.544,92.8505
462.351,90.9283
462.158,89.1619
461.964,88.1748
461.771,87.3436
461.578,86.4604
461.384,85.7331
461.191,85.2136
460.998,84.6421
460.805,84.0706
460.611,83.6031
460.418,83.2913
460.225,82.9277
460.031,82.616
459.838,82.2523
459.645,81.9406
459.451,81.6288
459.258,81.3172
459.065,81.0055
458.871,80.7457
458.678,80.4859
458.485,80.2262
458.291,80.1742
458.098,80.1742
457.905,80.2262
457.711,80.6937
457.518,81.2133
457.325,81.7328
457.131,82.2003
456.938,83.0835
456.745,84.1745
456.552,85.3175
456.358,86.6163
456.165,87.8631
455.972,89.3697
455.778,90.9802
455.585,92.9025
455.392,96.643
455.198,99.3445
455.005,101.994
454.812,104.903
454.618,108.592
454.425,109.735
454.232,109.787
454.038,109.787
453.845,109.787
453.652,107.605
453.458,105.215
453.265,102.825
453.072,100.436
452.878,98.0457
452.685,95.6559
452.492,93.9935
452.298,93.4739
452.105,93.4739
451.912,93.6818
451.719,93.9935
451.525,94.2013
451.332,94.461
451.139,94.7208
450.945,94.8766
450.752,93.6818
450.559,91.5517
450.365,89.6814
450.172,87.8112
449.979,86.4085
449.785,84.9538
449.592,83.4991
449.399,82.0964
449.205,80.6937
449.012,79.343
448.819,78.3039
448.625,77.2649
448.432,76.4337
448.239,75.8622
448.045,75.2907
447.852,74.6673
447.659,74.5114
447.466,74.3556
447.272,74.3036
447.079,74.2517
446.886,74.2517
446.692,74.3036
446.499,74.3556
446.306,74.4595
446.112,74.7192
445.919,74.927
445.726,75.1868
445.532,75.3946
445.339,75.6544
445.146,75.9142
444.952,76.3817
444.759,76.9012
444.566,77.3688
444.372,77.8883
444.179,78.3559
443.986,78.8754
443.792,79.1871
443.599,79.4988
443.406,79.8625
443.212,80.1223
443.019,80.0703
442.826,79.9664
442.633,79.8625
442.439,79.8105
442.246,79.7067
442.053,79.5508
441.859,79.4988
441.666,79.3949
441.473,79.343
441.279,79.2391
441.086,79.1352
440.893,79.0312
440.699,78.9274
440.506,78.8235
440.313,78.6676
440.119,78.5117
439.926,78.4079
439.733,78.252
439.539,78.0961
439.346,77.9403
439.153,77.7844
438.959,77.6286
438.766,77.4727
438.573,77.3169
438.38,77.213
438.186,77.0571
437.993,76.9012
437.8,76.7454
437.606,76.5895
437.413,76.3817
437.22,76.2258
437.026,76.07
436.833,75.9142
436.64,75.7583
436.446,75.6544
436.253,75.4985
436.06,75.2907
435.866,75.1349
435.673,74.979
435.48,74.8232
435.286,74.7192
435.093,74.6154
434.9,74.5114
434.706,74.4075
434.513,74.3036
434.32,74.1997
434.126,74.0958
433.933,73.9919
433.74,73.888
433.547,73.7841
433.353,73.6802
433.16,73.5763
432.967,73.4724
432.773,73.3685
432.58,73.2646
432.387,73.1607
432.193,73.0568
432,72.9529
431.807,72.9009
431.613,72.9009
431.42,72.9009
431.227,72.9009
431.033,72.9009
430.84,72.9009
430.647,72.9009
430.453,72.9009
430.26,72.9009
430.067,72.797
429.873,72.797
429.68,72.797
429.487,72.9009
429.294,72.9009
429.1,72.9529
428.907,73.0568
428.714,73.0568
428.52,73.1087
428.327,73.1607
428.134,73.2126
427.94,73.3165
427.747,73.3685
427.554,73.4204
427.36,73.4724
427.167,73.5244
426.974,73.5763
426.78,73.6802
426.587,73.7322
426.394,73.8361
426.2,73.888
426.007,73.9919
425.814,74.0439
425.62,74.1478
425.427,74.1997
425.234,74.3036
425.04,74.3556
424.847,74.4595
424.654,74.5114
424.461,74.6673
424.267,74.7712
424.074,74.979
423.881,75.1868
423.687,75.3946
423.494,75.6544
423.301,75.8622
423.107,76.07
422.914,76.2778
422.721,76.4856
422.527,76.7454
422.334,76.9532
422.141,77.213
421.947,77.4727
421.754,77.4727
421.561,77.4207
421.367,77.2649
421.174,77.0571
420.981,76.9012
420.787,76.6934
420.594,76.5376
420.401,76.3298
420.208,76.1739
420.014,75.9661
419.821,75.7583
419.628,75.5505
419.434,75.3427
419.241,75.1349
419.048,74.8751
418.854,74.6673
418.661,74.6154
418.468,74.5114
418.274,74.4075
418.081,74.3036
417.888,74.1997
417.694,74.0958
417.501,74.0439
417.308,73.94
417.114,73.8361
416.921,73.7322
416.728,73.6282
416.534,73.5244
416.341,73.4724
416.148,73.3685
415.954,73.2646
415.761,73.1607
415.568,73.0568
415.375,72.9529
415.181,72.9009
414.988,72.797
414.795,72.7451
414.601,72.6931
414.408,72.6931
414.215,72.5892
414.021,72.5373
413.828,72.5373
413.635,72.4333
413.441,72.3814
413.248,72.3814
413.055,72.3294
412.861,72.2775
412.668,72.2256
412.475,72.1736
412.281,72.1216
412.088,72.1216
411.895,72.1216
411.701,72.1736
411.508,72.2256
411.315,72.2775
411.122,72.2775
410.928,72.3294
410.735,72.3294
410.542,72.3814
410.348,72.4333
410.155,72.5373
409.962,72.5373
409.768,72.5373
409.575,72.5892
409.382,72.6931
409.188,72.6931
408.995,72.797
408.802,72.9009
408.608,72.9529
408.415,73.0568
408.222,73.1087
408.028,73.1607
407.835,73.2126
407.642,73.2126
407.448,73.2126
407.255,73.1087
407.062,72.797
406.868,72.4333
406.675,72.0177
406.482,71.5502
406.289,71.4463
406.095,71.3424
405.902,71.3424
405.709,71.2904
405.515,71.2904
405.322,71.2385
405.129,71.2385
404.935,71.1865
404.742,71.1865
404.549,71.1346
404.355,71.0826
404.162,71.0306
403.969,71.0306
403.775,71.0306
403.582,71.0306
403.389,71.0306
403.195,71.0826
403.002,71.1346
402.809,71.1865
402.615,71.1865
402.422,71.2385
402.229,71.2904
402.036,71.3424
401.842,71.3424
401.649,71.3943
401.456,71.3943
401.262,71.4463
401.069,71.4982
400.876,71.5502
400.682,71.6021
400.489,71.6541
400.296,71.706
400.102,71.758
399.909,71.758
399.716,71.8099
399.522,71.8619
399.329,71.9138
399.136,71.9658
398.942,72.0177
398.749,72.0697
398.556,72.1216
398.362,72.1736
398.169,72.2775
397.976,72.3294
397.783,72.3814
397.589,72.4333
397.396,72.5373
397.203,72.5892
397.009,72.6931
396.816,72.7451
396.623,72.9009
396.429,72.9009
396.236,72.9529
396.043,73.0568
395.849,73.1087
395.656,73.1607
395.463,73.2646
395.269,73.3165
395.076,73.3685
394.883,73.4204
394.689,73.5244
394.496,73.5763
394.303,73.6802
394.109,73.7841
393.916,73.888
393.723,73.9919
393.529,74.1478
393.336,74.2517
393.143,74.3556
392.95,74.4595
392.756,74.6154
392.563,74.7192
392.37,74.8232
392.176,74.927
391.983,75.1349
391.79,75.1868
391.596,75.2907
391.403,75.3946
391.21,75.5505
391.016,75.6544
390.823,75.8102
390.63,75.9661
390.436,76.1219
390.243,76.2258
390.05,76.3817
389.856,76.5376
389.663,76.6934
389.47,76.7973
389.276,76.9532
389.083,77.109
388.89,77.2649
388.697,77.3688
388.503,77.5247
388.31,77.7325
388.117,77.8883
387.923,77.9403
387.73,78.0961
387.537,78.252
387.343,78.4079
387.15,78.5117
386.957,78.6676
386.763,78.7715
386.57,78.9274
386.377,79.0312
386.183,79.1871
385.99,79.291
385.797,79.4469
385.603,79.5508
385.41,79.7067
385.217,79.8105
385.023,79.9664
384.83,80.0703
384.637,80.2262
384.443,80.33
384.25,80.4859
384.057,80.5898
383.864,80.6937
383.67,80.8496
383.477,80.9015
383.284,81.0055
383.09,81.1093
382.897,81.2133
382.704,81.3172
382.51,81.4211
382.317,81.525
382.124,81.6288
381.93,81.3691
381.737,81.1093
381.544,80.6937
381.35,80.1742
381.157,79.4469
380.964,78.6676
380.77,78.252
380.577,77.7325
380.384,77.2649
380.19,76.7973
379.997,76.4337
379.804,76.07
379.611,75.7583
379.417,75.4985
379.224,75.3427
379.031,75.1868
378.837,75.1349
378.644,75.031
378.451,74.979
378.257,74.927
378.064,74.8751
377.871,74.7712
377.677,74.7192
377.484,74.7192
377.291,74.7192
377.097,74.7192
376.904,74.7712
376.711,74.8232
376.517,74.8751
376.324,74.8751
376.131,74.927
375.937,74.979
375.744,74.8232
375.551,74.6673
375.357,73.888
375.164,73.1087
374.971,72.2256
374.778,71.2904
374.584,70.7189
374.391,70.0955
374.198,69.6799
374.004,69.2643
373.811,69.2123
373.618,69.1604
373.424,69.1084
373.231,69.0565
373.038,69.0045
372.844,68.9525
372.651,68.9006
372.458,68.8487
372.264,68.8487
372.071,68.7967
371.878,68.7967
371.684,68.7448
371.491,68.7448
371.298,68.6928
371.104,68.6928
370.911,68.6408
370.718,68.6408
370.525,68.6408
370.331,68.6408
370.138,68.6408
369.945,68.6408
369.751,68.6408
369.558,68.6408
369.365,68.6408
369.171,68.6928
368.978,68.6928
368.785,68.6928
368.591,68.6928
368.398,68.6928
368.205,68.6928
368.011,68.6928
367.818,68.6928
367.625,68.6928
367.431,68.6928
367.238,68.7448
367.045,68.7448
366.851,68.7448
366.658,68.7448
366.465,68.6928
366.271,68.6408
366.078,68.6408
365.885,68.5889
365.692,68.5889
365.498,68.537
365.305,68.537
365.112,68.485
364.918,68.485
364.725,68.433
364.532,68.433
364.338,68.3811
364.145,68.3811
363.952,68.3811
363.758,68.3811
363.565,68.433
363.372,68.537
363.178,68.5889
362.985,68.6408
362.792,68.6928
362.598,68.7967
362.405,68.8487
362.212,68.9006
362.018,68.9525
361.825,69.0045
361.632,69.0565
361.439,69.1604
361.245,69.2123
361.052,69.3162
360.859,69.4201
360.665,69.524
360.472,69.628
360.279,69.7318
360.085,69.8358
359.892,69.9397
359.699,70.0955
359.505,70.1475
359.312,70.3033
359.119,70.3553
358.925,70.4592
358.732,70.5631
358.539,70.667
358.345,70.7189
358.152,70.7709
357.959,70.8228
357.765,70.8748
357.572,70.9268
357.379,70.9787
357.185,71.0306
356.992,71.0826
356.799,71.1346
356.606,71.1865
356.412,71.2904
356.219,71.3424
356.026,71.3424
355.832,71.2904
355.639,71.1346
355.446,70.9268
355.252,70.7189
355.059,70.5111
354.866,70.3553
354.672,70.1475
354.479,69.9397
354.286,69.7318
354.092,69.524
353.899,69.2643
353.706,69.0045
353.512,68.7448
353.319,68.537
353.126,68.2772
352.932,68.1733
352.739,68.0174
352.546,67.9135
352.353,67.7577
352.159,67.7057
351.966,67.4979
351.773,67.4979
351.579,67.4979
351.386,67.4979
351.193,67.4979
350.999,67.4979
350.806,67.4979
350.613,67.4979
350.419,67.4979
350.226,67.4979
350.033,67.4979
349.839,67.4979
349.646,67.4979
349.453,67.4979
349.259,67.4979
349.066,67.4979
348.873,67.4979
348.679,67.4979
348.486,67.4979
348.293,67.4979
348.099,67.4979
347.906,67.4979
347.713,67.394
347.52,67.394
347.326,67.394
347.133,67.394
346.94,67.394
346.746,67.394
346.553,67.394
346.36,67.394
346.166,67.394
345.973,67.4979
345.78,67.4979
345.586,67.6018
345.393,67.7057
345.2,67.8616
345.006,67.8616
344.813,67.9655
344.62,68.0174
344.426,68.1213
344.233,68.1733
344.04,68.2772
343.846,68.3292
343.653,68.433
343.46,68.485
343.267,68.5889
343.073,68.6408
342.88,68.9525
342.687,69.2123
342.493,69.4721
342.3,69.7318
342.107,69.9916
341.913,70.3033
341.72,70.4592
341.527,70.667
341.333,70.8748
341.14,71.0306
340.947,71.2385
340.753,71.3943
340.56,71.5502
340.367,71.6541
340.173,71.6541
339.98,71.6021
339.787,71.6021
339.593,71.5502
339.4,71.5502
339.207,71.4982
339.013,71.4982
338.82,71.4982
338.627,71.5502
338.434,71.6541
338.24,71.758
338.047,71.8099
337.854,71.9138
337.66,71.9658
337.467,72.0697
337.274,72.1736
337.08,72.2775
336.887,72.3294
336.694,72.4333
336.5,72.5373
336.307,72.5892
336.114,72.6931
335.92,72.9009
335.727,72.9529
335.534,73.0568
335.34,73.1607
335.147,73.2646
334.954,73.3685
334.76,73.5244
334.567,73.6282
334.374,73.7841
334.181,73.888
333.987,74.0439
333.794,74.1478
333.601,74.3036
333.407,74.4075
333.214,74.5114
333.021,74.6154
332.827,74.8232
332.634,74.979
332.441,75.2907
332.247,75.4985
332.054,75.6544
331.861,75.8622
331.667,76.1219
331.474,76.3298
331.281,76.5376
331.087,76.7454
330.894,77.0051
330.701,77.213
330.507,77.3688
330.314,77.4727
330.121,77.6286
329.927,77.7844
329.734,77.9403
329.541,78.0961
329.348,78.252
329.154,78.4079
328.961,78.5637
328.768,78.6676
328.574,78.8235
328.381,78.9793
328.188,79.0832
327.994,79.1871
327.801,78.9274
327.608,78.6676
327.414,78.4079
327.221,78.1481
327.028,77.9403
326.834,77.7325
326.641,77.5247
326.448,77.2649
326.254,77.0571
326.061,76.8493
325.868,76.5895
325.674,76.3298
325.481,76.07
325.288,75.8102
325.095,75.6544
324.901,75.3427
324.708,75.2907
324.515,75.1868
324.321,75.1349
324.128,75.031
323.935,74.979
323.741,74.8751
323.548,74.8232
323.355,74.7712
323.161,74.7192
322.968,74.6154
322.775,74.5634
322.581,74.4595
322.388,74.4075
322.195,74.3036
322.001,74.2517
321.808,74.1478
321.615,74.1478
321.421,74.1478
321.228,74.1478
321.035,74.1478
320.841,74.1478
320.648,74.0958
320.455,74.0958
320.262,74.0439
320.068,74.0439
319.875,73.9919
319.682,73.9919
319.488,73.94
319.295,73.94
319.102,73.888
318.908,73.888
318.715,73.8361
318.522,73.8361
318.328,73.7841
318.135,73.7841
317.942,73.7322
317.748,73.7322
317.555,73.6802
317.362,73.6802
317.168,73.6802
316.975,73.6802
316.782,73.6282
316.589,73.6282
316.395,73.5763
316.202,73.5763
316.009,73.5763
315.815,73.5763
315.622,73.5244
315.429,73.5244
315.235,73.4724
315.042,73.4204
314.849,73.3685
314.655,73.2646
314.462,73.1087
314.269,73.0568
314.075,72.9009
313.882,72.797
313.689,72.6931
313.495,72.5373
313.302,72.4333
313.109,72.3294
312.915,72.2256
312.722,72.0697
312.529,71.8619
312.335,71.6541
312.142,71.4463
311.949,71.2385
311.755,70.9787
311.562,70.7709
311.369,70.5631
311.176,70.3033
310.982,70.0955
310.789,69.7838
310.596,69.4721
310.402,69.2123
310.209,68.9006
310.016,68.6408
309.822,68.3292
309.629,68.0694
309.436,67.7577
309.242,67.4979
309.049,67.2382
308.856,66.9784
308.662,66.6667
308.469,66.6667
308.276,66.6667
308.082,66.7186
307.889,66.7186
307.696,66.7706
307.503,66.7706
307.309,66.7706
307.116,66.7706
306.923,66.8225
306.729,66.8225
306.536,66.8225
306.343,66.8225
306.149,66.8225
305.956,66.8225
305.763,66.8745
305.569,66.8745
305.376,66.8745
305.183,66.8745
304.989,66.8745
304.796,66.8745
304.603,66.9264
304.409,66.9264
304.216,66.9264
304.023,66.9264
303.829,66.9264
303.636,66.9264
303.443,66.9784
303.249,66.9784
303.056,67.0304
302.863,67.0304
302.669,67.0823
302.476,67.0823
302.283,67.1342
302.09,67.1342
301.896,67.1342
301.703,67.1342
301.51,67.1862
301.316,67.1862
301.123,67.2382
300.93,67.2382
300.736,67.342
300.543,67.342
300.35,67.342
300.156,67.2382
299.963,67.2382
299.77,67.2382
299.576,67.2382
299.383,67.2382
299.19,67.2382
298.996,67.2382
298.803,67.2382
298.61,67.2382
298.417,67.2382
298.223,67.2382
298.03,67.2382
297.837,67.2382
297.643,67.2382
297.45,67.2382
297.257,67.2382
297.063,67.2382
296.87,67.342
296.677,67.342
296.483,67.342
296.29,67.342
296.097,67.394
295.903,67.394
295.71,67.4979
295.517,67.4979
295.323,67.4979
295.13,67.5499
294.937,67.6018
294.743,67.6018
294.55,67.7057
294.357,67.7057
294.163,67.7577
293.97,67.8616
293.777,67.8616
293.583,67.9135
293.39,67.9655
293.197,67.9655
293.004,68.0174
292.81,68.0694
292.617,68.1213
292.424,68.1733
292.23,68.2252
292.037,68.2252
291.844,68.2772
291.65,68.3292
291.457,68.3811
291.264,68.433
291.07,68.485
290.877,68.537
290.684,68.5889
290.49,68.6408
290.297,68.6928
290.104,68.7448
289.91,68.7967
289.717,68.8487
289.524,68.9006
289.331,68.9525
289.137,69.0045
288.944,69.0565
288.751,69.1084
288.557,69.1604
288.364,69.2123
288.171,69.2643
287.977,69.2643
287.784,69.2123
287.591,69.1604
287.397,69.1084
287.204,69.0565
287.011,68.9525
286.817,68.9006
286.624,68.7967
286.431,68.7448
286.237,68.6408
286.044,68.537
285.851,68.3811
285.657,68.1213
285.464,67.8616
285.271,67.7577
285.077,67.7057
284.884,67.6018
284.691,67.5499
284.497,67.4979
284.304,67.4979
284.111,67.394
283.918,67.342
283.724,67.2382
283.531,67.1862
283.338,67.1862
283.144,67.1342
282.951,67.1342
282.758,67.1342
282.564,67.1342
282.371,67.1342
282.178,67.1342
281.984,67.0823
281.791,67.0823
281.598,67.0823
281.404,67.0823
281.211,67.0823
281.018,67.0823
280.824,67.0823
280.631,67.0823
280.438,67.0823
280.245,67.0823
280.051,67.0823
279.858,67.0823
279.665,67.0823
279.471,67.0823
279.278,67.0823
279.085,67.0823
278.891,67.1342
278.698,67.342
278.505,67.5499
278.311,67.7577
278.118,67.9655
277.925,68.3292
277.731,68.6928
277.538,69.1604
277.345,69.628
277.151,70.1475
276.958,70.615
276.765,71.0826
276.571,71.5502
276.378,72.0697
276.185,72.5373
275.991,72.9529
275.798,73.3685
275.605,73.8361
275.411,74.2517
275.218,74.6673
275.025,75.1349
274.832,75.4985
274.638,75.9142
274.445,76.3817
274.252,76.7973
274.058,77.213
273.865,77.5766
273.672,77.9922
273.478,78.3559
273.285,78.7195
273.092,79.0832
272.898,79.4988
272.705,79.8625
272.512,80.33
272.318,80.6937
272.125,81.0055
271.932,81.3691
271.738,81.7847
271.545,82.1484
271.352,82.5121
271.159,82.9277
270.965,83.0835
270.772,83.2913
270.579,83.4991
270.385,83.4991
270.192,83.4991
269.999,83.2913
269.805,82.6679
269.612,81.9925
269.419,81.3172
269.225,80.6937
269.032,79.9664
268.839,79.291
268.645,78.7195
268.452,78.0961
268.259,77.5766
268.065,77.0051
267.872,76.4856
267.679,75.9661
267.485,75.4985
267.292,74.8751
267.099,74.4075
266.905,73.94
266.712,73.4724
266.519,72.9529
266.326,72.5373
266.132,71.9658
265.939,71.4982
265.746,70.9787
265.552,70.667
265.359,70.3033
265.166,70.1994
264.972,70.0955
264.779,70.4592
264.586,70.667
264.392,70.9787
264.199,71.2904
264.006,71.6021
263.812,71.8619
263.619,72.3814
263.426,72.9009
263.232,73.4204
263.039,73.94
262.846,74.5114
262.652,75.031
262.459,75.6544
262.266,76.1219
262.073,76.6934
261.879,77.213
261.686,77.213
261.493,77.213
261.299,77.109
261.106,76.9532
260.913,76.7973
260.719,76.6415
260.526,76.4856
260.333,76.2778
260.139,76.1219
259.946,75.9142
259.753,75.5505
259.559,75.1868
259.366,74.8751
259.173,74.5114
258.979,74.6154
258.786,74.6673
258.593,74.7712
258.399,74.8751
258.206,75.1349
258.013,75.2907
257.819,76.2778
257.626,77.213
257.433,78.252
257.24,79.1352
257.046,80.8496
256.853,82.564
256.66,83.9148
256.466,85.2655
256.273,86.3565
256.08,87.3955
255.886,88.4865
255.693,89.5775
255.5,90.7205
255.306,91.7595
255.113,93.422
254.92,94.9806
254.726,96.5911
254.533,98.2016
254.34,99.8121
254.146,101.423
253.953,103.189
253.76,105.007
253.566,106.878
253.373,108.696
253.18,110.514
252.986,112.385
252.793,114.463
252.6,116.437
252.407,118.879
252.213,121.32
252.02,123.762
251.827,126.152
251.633,128.905
251.44,131.659
251.247,135.088
251.053,138.516
250.86,144.335
250.667,150.154
250.473,153.738
250.28,157.271
250.087,157.895
249.893,158.466
249.7,159.141
249.507,159.661
249.313,160.336
249.12,161.012
248.927,162.258
248.733,163.453
248.54,165.064
248.347,166.726
248.154,168.493
247.96,170.311
247.767,172.649
247.574,174.935
247.38,177.844
247.187,180.753
246.994,184.39
246.8,187.871
246.607,200.807
246.414,213.743
246.22,221.64
246.027,229.588
245.834,237.537
245.64,245.486
245.447,253.486
245.254,261.435
245.06,269.384
244.867,277.332
244.674,285.281
244.48,293.23
244.287,301.178
244.094,309.127
243.9,317.128
243.707,325.128
243.514,333.025
243.321,341.026
243.127,348.922
242.934,356.871
242.741,364.872
242.547,372.82
242.354,374.223
242.161,374.483
241.967,375.626
241.774,375.626
241.581,365.859
241.387,356.092
241.194,342.688
241.001,329.284
240.807,315.881
240.614,302.477
240.421,289.073
240.227,275.67
240.034,262.266
239.841,216.444
239.647,235.459
239.454,222.055
239.261,219.562
239.068,217.016
238.874,219.146
238.681,221.276
238.488,225.536
238.294,229.744
238.101,234.004
237.908,238.212
237.714,242.472
237.521,246.681
237.328,250.941
237.134,255.201
236.941,259.461
236.748,266.578
236.554,265.695
236.361,267.721
236.168,260.188
235.974,252.707
235.781,236.29
235.588,219.925
235.394,214.418
235.201,208.911
235.008,210.106
234.814,211.301
234.621,213.223
234.428,215.146
234.235,217.12
234.041,219.042
233.848,220.964
233.655,222.887
233.461,223.458
233.268,224.029
233.075,223.822
232.881,223.666
232.688,214.418
232.495,205.171
232.301,190.676
232.108,176.182
231.915,167.09
231.721,157.843
231.528,157.271
231.335,156.7
231.141,156.492
230.948,156.18
230.755,155.764
230.561,155.245
230.368,154.829
230.175,154.362
229.982,153.634
229.788,152.907
229.595,151.193
229.402,149.426
229.208,143.036
229.015,136.594
228.822,130.204
228.628,123.814
228.435,117.424
228.242,111.034
228.048,104.072
227.855,97.0587
227.662,94.2013
227.468,91.24
227.275,89.9412
227.082,88.6424
226.888,88.5385
226.695,88.4865
226.502,88.6424
226.308,88.8502
226.115,89.058
225.922,89.2658
225.729,89.5775
225.535,89.8373
225.342,90.201
225.149,90.5646
224.955,91.3958
224.762,92.2271
224.569,92.4868
224.375,92.6947
224.182,92.6427
223.989,92.5388
223.795,92.4349
223.602,92.331
223.409,92.0712
223.215,91.7595
223.022,91.3439
222.829,90.9283
222.635,90.3568
222.442,89.7854
222.249,88.9022
222.055,88.019
221.862,87.0319
221.669,86.0448
221.475,85.8889
221.282,85.6812
221.089,85.5253
220.896,85.3694
220.702,85.2655
220.509,85.1616
220.316,85.0577
220.122,84.9019
219.929,84.7979
219.736,84.694
219.542,84.2784
219.349,83.8109
219.156,83.0835
218.962,82.3043
218.769,81.473
218.576,80.5898
218.382,79.8625
218.189,79.1352
217.996,78.8235
217.802,78.4598
217.609,78.1481
217.416,76.5376
217.222,77.7325
217.029,77.7325
216.836,77.7325
216.643,77.7325
216.449,77.7325
216.256,77.7844
216.063,77.8883
215.869,77.9403
215.676,78.0961
215.483,78.0961
215.289,78.4598
215.096,78.8235
214.903,79.1871
214.709,79.5508
214.516,79.9664
214.323,80.33
214.129,80.7457
213.936,81.1613
213.743,81.6288
213.549,82.0964
213.356,82.9277
213.163,83.7069
212.969,84.5382
212.776,85.3694
212.583,86.2007
212.389,86.9799
212.196,87.9151
212.003,88.7982
211.81,89.7854
211.616,90.7724
211.423,91.7595
211.23,92.7466
211.036,94.461
210.843,96.1235
210.65,98.7211
210.456,101.267
210.263,103.397
210.07,105.475
209.876,105.631
209.683,105.683
209.49,105.683
209.296,105.683
209.103,105.631
208.91,105.579
208.716,105.527
208.523,105.423
208.33,104.644
208.136,103.864
207.943,102.566
207.75,101.319
207.557,100.955
207.363,100.591
207.17,100.384
206.977,100.176
206.783,100.02
206.59,99.8121
206.397,99.5523
206.203,99.1887
206.01,98.3575
205.817,97.5782
205.623,96.5911
205.43,95.604
205.237,94.4091
205.043,93.2142
204.85,91.4478
204.657,89.6295
204.463,86.7202
204.27,83.7589
204.077,82.7718
203.883,81.7847
203.69,80.9535
203.497,80.0703
203.303,79.343
203.11,78.5637
202.917,77.8883
202.724,77.161
202.53,76.4856
202.337,75.7583
202.144,75.2907
201.95,74.7712
201.757,74.3036
201.564,73.8361
201.37,73.3685
201.177,72.9009
200.984,72.5373
200.79,72.2256
200.597,72.0697
200.404,71.8619
200.21,71.706
200.017,71.4982
199.824,71.3424
199.63,71.1346
199.437,70.9787
199.244,70.8228
199.05,70.667
198.857,70.4592
198.664,70.5111
198.471,70.5111
198.277,70.5631
198.084,70.5631
197.891,70.5631
197.697,70.5631
197.504,70.615
197.311,70.615
197.117,70.667
196.924,70.667
196.731,70.7189
196.537,70.8228
196.344,70.8228
196.151,70.8748
195.957,70.9268
195.764,70.9268
195.571,70.9787
195.377,71.0306
195.184,71.0826
194.991,71.1346
194.797,71.2904
194.604,71.3943
194.411,71.706
194.217,72.0177
194.024,72.3814
193.831,72.6931
193.638,73.0568
193.444,73.3165
193.251,73.6282
193.058,73.94
192.864,74.2517
192.671,74.5634
192.478,74.8751
192.284,75.1868
192.091,75.4985
191.898,75.7583
191.704,76.1739
191.511,76.5376
191.318,76.9532
191.124,77.3688
190.931,77.7844
190.738,78.252
190.544,78.6157
190.351,78.9793
190.158,79.3949
189.964,79.8105
189.771,80.382
189.578,80.9535
189.385,81.6808
189.191,82.4081
188.998,83.1355
188.805,83.8628
188.611,84.5901
188.418,85.3175
188.225,86.1487
188.031,86.9799
187.838,87.9151
187.645,88.7982
187.451,89.7334
187.258,90.6166
187.065,91.5517
186.871,92.4349
186.678,93.422
186.485,94.2532
186.291,95.1364
186.098,96.0715
185.905,96.9547
185.711,97.734
185.518,98.6692
185.325,99.5523
185.131,100.384
184.938,101.267
184.745,102.254
184.552,103.241
184.358,104.644
184.165,105.994
183.972,107.345
183.778,108.696
183.585,110.047
183.392,111.345
183.198,112.696
183.005,114.099
182.812,115.398
182.618,116.697
182.425,118.099
182.232,119.45
182.038,121.632
181.845,123.814
181.652,125.996
181.458,128.178
181.265,130.412
181.072,132.646
180.878,135.555
180.685,138.516
180.492,141.53
180.299,144.543
180.105,148.387
179.912,152.232
179.719,155.661
179.525,158.986
179.332,161.687
179.139,164.285
178.945,167.246
178.752,170.207
178.559,173.636
178.365,177.013
178.172,185.793
177.979,194.521
177.785,201.223
177.592,207.924
177.399,214.678
177.205,221.432
177.012,228.134
176.819,234.836
176.625,241.537
176.432,248.239
176.239,254.993
176.045,261.695
175.852,268.449
175.659,275.15
175.466,282.787
175.272,290.424
175.079,296.243
174.886,302.061
174.692,304.243
174.499,306.477
174.306,308.036
174.112,309.543
173.919,311.101
173.726,312.608
173.532,313.335
173.339,314.01
173.146,314.426
172.952,314.842
172.759,314.842
172.566,314.842
172.372,314.842
172.179,315.153
171.986,312.036
171.792,309.231
171.599,292.554
171.406,275.878
171.213,259.201
171.019,242.472
170.826,225.796
170.633,209.067
170.439,193.014
170.246,176.961
170.053,168.337
169.859,159.765
169.666,152.595
169.473,145.426
169.279,137.789
169.086,130.048
168.893,127.606
168.699,125.165
168.506,122.931
168.313,120.697
168.119,120.177
167.926,119.658
167.733,119.502
167.539,119.502
167.346,119.606
167.153,117.58
166.959,120.177
166.766,120.593
166.573,121.268
166.38,121.996
166.186,122.567
165.993,123.035
165.8,123.814
165.606,124.593
165.413,125.528
165.22,126.412
165.026,127.451
164.833,128.49
164.64,130.152
164.446,131.763
164.253,134.516
164.06,137.27
163.866,140.075
163.673,142.776
163.48,145.478
163.286,148.231
163.093,150.985
162.9,153.738
162.706,156.544
162.513,159.193
162.32,161.947
162.127,164.7
161.933,167.454
161.74,170.155
161.547,172.909
161.353,175.662
161.16,178.416
160.967,181.117
160.773,183.871
160.58,186.624
160.387,189.377
160.193,192.079
160,194.832
159.807,197.586
159.613,200.339
159.42,203.041
159.227,205.846
159.033,208.548
158.84,212.184
158.647,215.821
158.453,218.315
158.26,220.808
158.067,222.211
157.873,223.614
157.68,224.705
157.487,225.744
157.294,226.004
157.1,226.211
156.907,226.211
156.714,227.458
156.52,225.952
156.327,225.64
156.134,224.705
155.94,223.77
155.747,221.64
155.554,219.51
155.36,217.12
155.167,214.678
154.974,212.6
154.78,210.522
154.587,208.859
154.394,207.145
154.2,205.587
154.007,203.976
153.814,198.781
153.62,193.534
153.427,190.053
153.234,186.52
153.041,167.973
152.847,149.374
152.654,143.348
152.461,137.218
152.267,127.658
152.074,118.099
151.881,111.865
151.687,105.631
151.494,102.15
151.301,98.6692
151.107,96.1235
150.914,93.6298
150.721,91.7076
150.527,89.8373
150.334,88.019
150.141,86.2007
149.947,85.3175
149.754,84.3824
149.561,83.4472
149.367,82.5121
149.174,81.6808
148.981,80.8496
148.787,80.33
148.594,79.6547
148.401,79.0312
148.208,78.4079
148.014,77.9403
147.821,77.4207
147.628,77.0571
147.434,76.6934
147.241,76.3817
147.048,76.018
146.854,75.6544
146.661,75.2907
146.468,74.979
146.274,74.6154
146.081,74.3036
145.888,73.94
145.694,73.6802
145.501,73.3685
145.308,73.1087
145.114,72.797
144.921,72.5373
144.728,72.2256
144.534,71.9658
144.341,71.6541
144.148,71.4463
143.955,71.2385
143.761,71.0306
143.568,70.8228
143.375,70.615
143.181,70.4592
142.988,70.1994
142.795,69.9916
142.601,69.7838
142.408,69.576
142.215,69.3682
142.021,69.1604
141.828,69.1604
141.635,69.1604
141.441,69.1604
141.248,69.1604
141.055,69.1604
140.861,69.1604
140.668,69.1604
140.475,69.1604
140.281,69.1604
140.088,69.1604
139.895,69.2123
139.701,69.2123
139.508,69.2643
139.315,69.3162
139.122,69.3682
138.928,69.4201
138.735,69.4721
138.542,69.524
138.348,69.576
138.155,69.628
137.962,69.628
137.768,69.628
137.575,69.524
137.382,69.4201
137.188,69.3162
136.995,69.2123
136.802,69.1604
136.608,69.1604
136.415,69.1604
136.222,69.2123
136.028,69.3162
135.835,69.3682
135.642,69.4201
135.448,69.4721
135.255,69.524
135.062,69.576
134.869,69.576
134.675,69.576
134.482,69.524
134.289,69.4721
134.095,69.4201
133.902,69.3682
133.709,69.3162
133.515,69.2123
133.322,69.1604
133.129,69.1084
132.935,69.0565
132.742,69.0045
132.549,68.9525
132.355,68.9006
132.162,68.8487
131.969,68.7967
131.775,68.7967
131.582,68.7967
131.389,68.7967
131.195,68.7967
131.002,68.7967
130.809,68.7967
130.615,68.7967
130.422,68.7967
130.229,68.7967
130.036,68.7448
129.842,68.7448
129.649,68.7448
129.456,68.7448
129.262,68.7448
129.069,68.7448
128.876,68.7448
128.682,68.7967
128.489,68.8487
128.296,69.0565
128.102,69.2643
127.909,69.4721
127.716,69.6799
127.522,69.9397
127.329,70.0955
127.136,70.0955
126.942,70.0955
126.749,69.9397
126.556,69.7838
126.362,69.6799
126.169,69.524
125.976,69.2643
125.783,68.9525
125.589,68.8487
125.396,68.6928
125.203,69.0045
125.009,69.2643
124.816,69.576
124.623,69.8358
124.429,69.9916
124.236,70.1475
124.043,70.3033
123.849,70.3033
123.656,70.4592
123.463,70.5111
123.269,70.615
123.076,70.667
122.883,70.667
122.689,70.615
122.496,70.5111
122.303,70.4592
122.109,70.3553
121.916,70.3033
121.723,70.1994
121.529,70.0955
121.336,69.9916
121.143,69.8358
120.95,69.2643
120.756,69.2123
120.563,69.2123
120.37,69.6799
120.176,69.9916
119.983,70.3033
119.79,70.5631
119.596,70.8748
119.403,71.1865
119.21,71.4463
119.016,71.706
118.823,71.9138
118.63,72.1736
118.436,72.4333
118.243,72.6931
118.05,72.797
117.856,72.9009
117.663,72.9009
117.47,72.9529
117.276,73.0568
117.083,73.0568
116.89,73.1087
116.697,73.1607
116.503,73.1087
116.31,73.1087
116.117,73.0568
115.923,72.9009
115.73,72.6931
115.537,72.4333
115.343,72.2256
115.15,72.0697
114.957,71.8619
114.763,71.6541
114.57,71.4463
114.377,71.3943
114.183,71.3424
113.99,71.3424
113.797,71.3424
113.603,71.3424
113.41,71.3424
113.217,71.6021
113.023,71.8619
112.83,72.1736
112.637,72.4333
112.443,72.3294
112.25,72.2256
112.057,71.9138
111.864,71.6021
111.67,71.3424
111.477,71.0826
111.284,70.8748
111.09,70.667
110.897,70.5111
110.704,70.3033
110.51,70.3033
110.317,70.1994
110.124,70.1994
109.93,70.1475
109.737,70.1475
109.544,70.0955
109.35,70.0955
109.157,70.0955
108.964,70.0955
108.77,69.9916
108.577,69.9916
108.384,69.9397
108.19,69.9397
107.997,69.9397
107.804,69.9397
107.611,69.9397
107.417,69.9916
107.224,70.0955
107.031,70.3033
106.837,70.4592
106.644,70.7709
106.451,71.0306
106.257,71.3943
106.064,71.706
105.871,72.0177
105.677,72.3294
105.484,72.5892
105.291,72.9009
105.097,73.0568
104.904,73.2126
104.711,73.4204
104.517,73.6282
104.324,73.8361
104.131,73.9919
103.937,74.1997
103.744,74.3556
103.551,74.4595
103.357,74.5114
103.164,74.5114
102.971,74.4595
102.778,74.4595
102.584,74.4075
102.391,74.3556
102.198,74.3036
102.004,74.2517
101.811,74.1478
101.618,74.0439
101.424,73.94
101.231,73.8361
101.038,73.7322
100.844,73.6802
100.651,73.5763
100.458,73.4724
100.264,73.3685
100.071,73.2126
99.8778,73.0568
99.6844,72.797
99.4911,72.5892
99.2978,72.3814
99.1045,72.1736
98.9112,71.9658
98.7178,71.758
98.5245,71.6541
98.3312,71.5502
98.1379,71.5502
97.9446,71.4982
97.7512,71.4463
97.5579,71.4982
97.3646,71.5502
97.1713,71.6541
96.978,71.9658
96.7847,72.2256
96.5913,72.5373
96.398,72.797
96.2047,73.1607
96.0114,73.4724
95.8181,73.8361
95.6247,74.1478
95.4314,74.4595
95.2381,74.7712" />
</g>
</svg>
