<?xml version="1.0"?>
<svg version="1.1"
     xmlns="http://www.w3.org/2000/svg"
     xmlns:xlink="http://www.w3.org/1999/xlink"
     viewBox="0 0 800 600">
<g>
<text fill="#000000" font-family="sans-serif" font-size="19.0476" text-anchor="start" x="4.7619" y="591.429" >
NIST Chemistry WebBook (https://webbook.nist.gov/chemistry)
</text>
<polyline stroke="#000000" stroke-width="1.19048" fill="none" points="95.2381,514.286
742.857,514.286
742.857,66.6667
95.2381,66.6667
95.2381,514.286" />
<text fill="#000000" font-family="sans-serif" font-size="19.0476" text-anchor="middle" x="419.048" y="24.7619" >
PHENYL HYDROQUINONE
</text>
<text fill="#000000" font-family="sans-serif" font-size="19.0476" text-anchor="middle" x="419.048" y="53.3333" >
INFRARED SPECTRUM
</text>
<text fill="#000000" font-family="sans-serif" font-size="19.0476" text-anchor="middle" x="419.048" y="558.095" >
Micrometers
</text>
<text fill="#000000" font-family="sans-serif" font-size="19.0476" text-anchor="middle" transform="translate(20,290.476) rotate(270)" x="0" y="0" >
Transmitance
</text>
<text fill="#000000" font-family="sans-serif" font-size="19.0476" text-anchor="middle" x="650.604" y="534.286" >
4
</text>
<line stroke="#000000" stroke-width="1.19048" x1="650.604" y1="514.286" x2="650.604" y2="504.762" />
<text fill="#000000" font-family="sans-serif" font-size="19.0476" text-anchor="middle" x="465.543" y="534.286" >
8
</text>
<line stroke="#000000" stroke-width="1.19048" x1="465.543" y1="514.286" x2="465.543" y2="504.762" />
<text fill="#000000" font-family="sans-serif" font-size="19.0476" text-anchor="middle" x="280.482" y="534.286" >
12
</text>
<line stroke="#000000" stroke-width="1.19048" x1="280.482" y1="514.286" x2="280.482" y2="504.762" />
<text fill="#000000" font-family="sans-serif" font-size="19.0476" text-anchor="middle" x="95.4208" y="534.286" >
16
</text>
<line stroke="#000000" stroke-width="1.19048" x1="95.4208" y1="514.286" x2="95.4208" y2="504.762" />
<line stroke="#000000" stroke-width="1.19048" x1="696.869" y1="514.286" x2="696.869" y2="509.524" />
<line stroke="#000000" stroke-width="1.19048" x1="650.604" y1="514.286" x2="650.604" y2="509.524" />
<line stroke="#000000" stroke-width="1.19048" x1="604.339" y1="514.286" x2="604.339" y2="509.524" />
<line stroke="#000000" stroke-width="1.19048" x1="558.074" y1="514.286" x2="558.074" y2="509.524" />
<line stroke="#000000" stroke-width="1.19048" x1="511.808" y1="514.286" x2="511.808" y2="509.524" />
<line stroke="#000000" stroke-width="1.19048" x1="465.543" y1="514.286" x2="465.543" y2="509.524" />
<line stroke="#000000" stroke-width="1.19048" x1="419.278" y1="514.286" x2="419.278" y2="509.524" />
<line stroke="#000000" stroke-width="1.19048" x1="373.012" y1="514.286" x2="373.012" y2="509.524" />
<line stroke="#000000" stroke-width="1.19048" x1="326.747" y1="514.286" x2="326.747" y2="509.524" />
<line stroke="#000000" stroke-width="1.19048" x1="280.482" y1="514.286" x2="280.482" y2="509.524" />
<line stroke="#000000" stroke-width="1.19048" x1="234.217" y1="514.286" x2="234.217" y2="509.524" />
<line stroke="#000000" stroke-width="1.19048" x1="187.951" y1="514.286" x2="187.951" y2="509.524" />
<line stroke="#000000" stroke-width="1.19048" x1="141.686" y1="514.286" x2="141.686" y2="509.524" />
<line stroke="#000000" stroke-width="1.19048" x1="95.4208" y1="514.286" x2="95.4208" y2="509.524" />
<text fill="#000000" font-family="sans-serif" font-size="19.0476" text-anchor="end" x="90.4762" y="436.743" >
0.2
</text>
<line stroke="#000000" stroke-width="1.19048" x1="95.2381" y1="432.458" x2="104.762" y2="432.458" />
<text fill="#000000" font-family="sans-serif" font-size="19.0476" text-anchor="end" x="90.4762" y="339.329" >
0.4
</text>
<line stroke="#000000" stroke-width="1.19048" x1="95.2381" y1="335.043" x2="104.762" y2="335.043" />
<text fill="#000000" font-family="sans-serif" font-size="19.0476" text-anchor="end" x="90.4762" y="241.915" >
0.6
</text>
<line stroke="#000000" stroke-width="1.19048" x1="95.2381" y1="237.629" x2="104.762" y2="237.629" />
<text fill="#000000" font-family="sans-serif" font-size="19.0476" text-anchor="end" x="90.4762" y="144.5" >
0.8
</text>
<line stroke="#000000" stroke-width="1.19048" x1="95.2381" y1="140.215" x2="104.762" y2="140.215" />
<line stroke="#000000" stroke-width="1.19048" x1="95.2381" y1="505.518" x2="100" y2="505.518" />
<line stroke="#000000" stroke-width="1.19048" x1="95.2381" y1="481.165" x2="100" y2="481.165" />
<line stroke="#000000" stroke-width="1.19048" x1="95.2381" y1="456.811" x2="100" y2="456.811" />
<line stroke="#000000" stroke-width="1.19048" x1="95.2381" y1="432.458" x2="100" y2="432.458" />
<line stroke="#000000" stroke-width="1.19048" x1="95.2381" y1="408.104" x2="100" y2="408.104" />
<line stroke="#000000" stroke-width="1.19048" x1="95.2381" y1="383.75" x2="100" y2="383.75" />
<line stroke="#000000" stroke-width="1.19048" x1="95.2381" y1="359.397" x2="100" y2="359.397" />
<line stroke="#000000" stroke-width="1.19048" x1="95.2381" y1="335.043" x2="100" y2="335.043" />
<line stroke="#000000" stroke-width="1.19048" x1="95.2381" y1="310.69" x2="100" y2="310.69" />
<line stroke="#000000" stroke-width="1.19048" x1="95.2381" y1="286.336" x2="100" y2="286.336" />
<line stroke="#000000" stroke-width="1.19048" x1="95.2381" y1="261.982" x2="100" y2="261.982" />
<line stroke="#000000" stroke-width="1.19048" x1="95.2381" y1="237.629" x2="100" y2="237.629" />
<line stroke="#000000" stroke-width="1.19048" x1="95.2381" y1="213.275" x2="100" y2="213.275" />
<line stroke="#000000" stroke-width="1.19048" x1="95.2381" y1="188.922" x2="100" y2="188.922" />
<line stroke="#000000" stroke-width="1.19048" x1="95.2381" y1="164.568" x2="100" y2="164.568" />
<line stroke="#000000" stroke-width="1.19048" x1="95.2381" y1="140.214" x2="100" y2="140.214" />
<line stroke="#000000" stroke-width="1.19048" x1="95.2381" y1="115.861" x2="100" y2="115.861" />
<line stroke="#000000" stroke-width="1.19048" x1="95.2381" y1="91.5073" x2="100" y2="91.5073" />
<line stroke="#000000" stroke-width="1.19048" x1="95.2381" y1="67.1537" x2="100" y2="67.1537" />
<polyline stroke="#FF0000" stroke-width="1.19048" fill="none" points="742.857,280.004
742.558,277.569
742.258,276.108
741.958,275.133
741.659,273.672
741.359,272.698
741.059,271.724
740.76,271.237
740.46,271.237
740.161,271.237
739.85,270.263
739.55,270.263
739.251,269.776
738.951,268.802
738.652,266.366
738.352,265.392
738.052,264.905
737.753,264.905
737.453,264.905
737.153,263.931
736.843,263.444
736.543,259.06
736.244,257.112
735.944,256.138
735.644,254.676
735.344,252.728
735.045,252.241
734.745,251.267
734.446,251.267
734.146,251.267
733.835,252.241
733.536,252.728
733.236,254.676
732.937,256.138
732.637,256.138
732.337,255.163
732.038,254.676
731.738,253.702
731.438,253.702
731.139,253.702
730.874,254.676
730.575,254.676
730.275,253.702
729.976,252.728
729.676,252.241
729.376,250.78
729.077,248.832
728.777,246.396
728.477,244.448
728.178,243.474
727.867,242.5
727.568,242.013
727.268,241.038
726.969,238.603
726.669,237.629
726.369,237.629
726.069,238.603
725.77,239.577
725.47,240.064
725.171,240.064
724.86,239.577
724.56,237.142
724.261,236.168
723.961,233.732
723.662,232.271
723.362,231.297
723.062,229.836
722.763,229.349
722.463,228.375
722.163,227.4
721.853,224.478
721.553,223.017
721.254,222.043
720.954,221.068
720.654,220.581
720.354,220.581
720.055,219.607
719.755,218.633
719.456,215.711
719.156,214.249
718.892,212.301
718.592,211.814
718.293,210.353
717.993,208.405
717.694,206.943
717.393,205.969
717.094,204.508
716.794,204.021
716.495,203.047
716.195,201.586
715.884,200.611
715.585,199.637
715.285,198.176
714.986,197.689
714.686,195.741
714.386,195.254
714.087,193.305
713.787,191.844
713.488,189.409
713.188,188.922
712.877,187.948
712.578,186.486
712.278,186.486
711.979,185.512
711.679,185.025
711.379,184.051
711.079,182.59
710.78,180.154
710.48,178.693
710.181,176.745
709.87,175.284
709.57,173.822
709.271,172.848
708.971,171.387
708.672,171.387
708.372,171.387
708.072,172.361
707.773,173.822
707.473,174.31
707.174,176.745
706.909,180.154
706.609,185.512
706.31,188.922
706.01,209.379
705.711,227.4
705.411,249.806
705.111,278.056
704.812,288.771
704.512,301.435
704.213,301.435
703.902,294.129
703.602,287.797
703.303,281.465
703.003,276.595
702.704,269.776
702.403,267.34
702.104,263.444
701.804,261.008
701.505,257.599
701.205,257.112
700.894,258.573
700.595,260.034
700.295,262.47
699.996,266.366
699.696,271.237
699.396,278.056
699.097,286.336
698.797,299.487
698.498,307.767
698.198,319.457
697.887,334.556
697.588,340.888
697.288,352.091
696.989,367.19
696.689,388.134
696.389,408.104
696.089,422.229
695.79,431.971
695.49,440.738
695.191,449.505
694.926,462.169
694.627,472.398
694.327,476.294
694.028,481.652
693.728,485.061
693.428,487.984
693.128,489.932
692.829,491.393
692.529,493.829
692.23,495.29
691.919,496.264
691.62,496.264
691.32,495.29
691.02,493.829
690.721,492.855
690.421,490.419
690.121,487.984
689.822,485.061
689.522,480.191
689.223,475.32
688.912,470.936
688.612,464.604
688.313,458.76
688.013,451.941
687.714,445.609
687.414,438.302
687.114,431.971
686.814,424.664
686.515,418.333
686.215,413.462
685.905,408.104
685.605,400.798
685.305,397.876
685.006,396.901
684.706,395.44
684.406,390.569
684.107,390.082
683.807,389.108
683.508,390.082
683.208,390.569
682.944,390.569
682.644,391.544
682.344,391.544
682.045,396.414
681.745,403.233
681.445,417.845
681.146,433.432
680.846,451.941
680.547,463.63
680.247,479.217
679.936,494.316
679.637,495.29
679.337,501.622
679.038,503.083
678.738,504.544
678.438,506.493
678.138,508.928
677.839,510.876
677.539,511.85
677.24,513.312
676.929,514.286
676.63,514.286
676.33,513.312
676.03,512.824
675.731,510.876
675.431,510.389
675.131,509.415
674.832,506.98
674.532,506.493
674.233,505.518
673.922,505.518
673.622,506.493
673.323,506.493
673.023,505.518
672.724,503.083
672.424,496.264
672.124,486.523
671.824,458.76
671.525,424.177
671.225,390.569
670.961,360.858
670.661,331.147
670.362,310.69
670.062,297.052
669.763,283.901
669.463,270.263
669.163,259.06
668.863,250.78
668.564,245.909
668.264,238.603
667.954,236.168
667.654,232.271
667.355,229.836
667.055,225.939
666.755,223.504
666.455,223.504
666.156,224.965
665.856,228.375
665.557,230.81
665.257,231.297
664.946,232.271
664.647,231.297
664.347,229.836
664.048,227.4
663.748,225.939
663.448,224.965
663.149,224.478
662.849,223.504
662.549,223.017
662.25,221.068
661.985,221.068
661.686,219.607
661.386,218.633
661.087,217.172
660.787,216.685
660.487,215.711
660.188,214.737
659.888,213.275
659.588,210.353
659.289,208.405
658.978,206.943
658.679,205.482
658.379,203.047
658.08,199.637
657.78,198.176
657.48,195.254
657.18,192.818
656.881,191.844
656.581,189.409
656.282,188.922
655.971,188.922
655.671,187.948
655.372,187.948
655.072,187.948
654.773,187.948
654.473,187.948
654.173,187.948
653.874,187.948
653.574,186.973
653.274,186.486
652.964,185.025
652.664,183.077
652.365,180.154
652.065,176.745
651.766,174.31
651.465,172.361
651.166,169.926
650.866,168.952
650.567,168.952
650.267,167.978
650.003,167.491
649.703,167.491
649.404,166.516
649.104,165.055
648.805,164.081
648.504,161.159
648.205,157.749
647.905,156.288
647.606,155.314
647.306,153.365
646.995,147.521
646.696,146.059
646.396,144.598
646.097,143.624
645.797,143.624
645.497,143.624
645.198,143.624
644.898,144.598
644.599,146.059
644.299,147.034
643.988,147.521
643.689,147.521
643.389,149.956
643.09,150.93
642.79,151.417
642.49,152.391
642.19,152.391
641.891,151.417
641.591,149.956
641.292,148.982
640.981,146.059
640.681,143.624
640.382,139.727
640.082,138.753
639.783,139.727
639.483,140.215
639.183,141.189
638.884,142.163
638.584,143.624
638.284,145.085
638.02,146.059
637.72,145.085
637.421,143.624
637.121,142.163
636.822,138.753
636.522,136.318
636.222,133.883
635.923,133.396
635.623,131.934
635.323,130.96
635.013,129.986
634.713,128.525
634.414,127.551
634.114,126.089
633.815,124.628
633.514,123.167
633.215,120.732
632.915,117.322
632.616,116.835
632.316,114.887
632.005,114.4
631.706,112.939
631.406,110.503
631.107,108.555
630.807,106.607
630.507,104.658
630.208,104.171
629.908,104.171
629.609,104.658
629.309,104.658
628.998,104.658
628.699,104.658
628.399,102.223
628.1,102.223
627.8,104.171
627.5,104.171
627.2,104.658
626.901,104.658
626.601,104.171
626.302,104.171
626.037,104.171
625.738,103.197
625.438,103.197
625.139,102.223
624.839,101.736
624.539,100.275
624.239,98.3264
623.94,97.8393
623.64,96.8651
623.341,95.4039
623.03,94.4298
622.731,93.9427
622.431,93.9427
622.131,92.9686
621.832,91.9944
621.532,91.5074
621.232,91.5074
620.933,90.5332
620.633,90.5332
620.334,90.5332
620.023,90.5332
619.723,89.5591
619.424,89.072
619.124,89.072
618.825,87.6108
618.524,86.6366
618.225,85.6625
617.925,85.1754
617.626,84.2013
617.326,83.2271
617.016,83.2271
616.716,83.2271
616.416,83.2271
616.117,82.7401
615.817,81.7659
615.517,81.2788
615.218,79.3305
614.918,78.8435
614.619,78.8435
614.319,79.3305
614.055,80.3047
613.755,82.7401
613.456,84.2013
613.156,85.6625
612.856,87.6108
612.556,88.0978
612.257,89.072
611.957,88.0978
611.658,85.1754
611.358,84.2013
611.047,82.7401
610.748,82.7401
610.448,82.7401
610.149,83.2271
609.849,83.2271
609.549,82.7401
609.249,81.2788
608.95,78.8435
608.65,77.8694
608.351,77.8694
608.04,78.8435
607.741,79.3305
607.441,80.3047
607.141,82.7401
606.842,82.7401
606.542,81.7659
606.242,81.7659
605.943,81.7659
605.643,81.7659
605.344,81.2788
605.033,81.2788
604.733,82.7401
604.434,82.7401
604.134,81.2788
603.835,81.2788
603.535,81.2788
603.235,80.3047
602.935,81.2788
602.636,81.2788
602.336,81.2788
602.072,81.2788
601.772,81.2788
601.473,81.2788
601.173,81.2788
600.874,81.2788
600.574,79.3305
600.274,78.8435
599.974,78.8435
599.675,78.8435
599.375,78.8435
599.065,79.3305
598.765,80.3047
598.466,80.3047
598.166,81.2788
597.866,81.7659
597.566,82.7401
597.267,84.2013
596.967,88.0978
596.668,89.5591
596.368,89.5591
596.057,89.072
595.758,86.6366
595.458,81.7659
595.159,79.3305
594.859,78.8435
594.559,78.8435
594.26,77.8694
593.96,76.8952
593.66,76.8952
593.361,76.4081
593.05,73.9728
592.751,73.9728
592.451,74.9469
592.151,75.434
591.852,75.434
591.552,76.4081
591.252,76.8952
590.953,77.8694
590.653,78.8435
590.354,80.3047
590.089,81.2788
589.79,81.7659
589.49,82.7401
589.191,83.2271
588.891,83.2271
588.591,85.6625
588.291,85.6625
587.992,84.2013
587.692,81.2788
587.393,81.2788
587.082,80.3047
586.782,79.3305
586.483,77.8694
586.183,76.8952
585.884,75.434
585.584,75.434
585.284,74.9469
584.984,73.9728
584.685,72.9986
584.385,72.5115
584.075,72.9986
583.775,73.9728
583.476,74.9469
583.176,76.4081
582.876,78.8435
582.576,84.2013
582.277,94.4298
581.977,95.891
581.678,95.891
581.378,94.4298
581.114,91.5074
580.814,87.6108
580.515,81.7659
580.215,78.8435
579.916,75.434
579.615,73.9728
579.316,73.9728
579.016,72.9986
578.717,72.9986
578.417,72.9986
578.106,72.9986
577.807,73.9728
577.507,73.9728
577.208,73.9728
576.908,72.9986
576.608,72.9986
576.309,72.5115
576.009,71.5374
575.709,70.5633
575.41,70.5633
575.099,70.0762
574.8,66.6667
574.5,66.6667
574.201,71.5374
573.901,71.5374
573.601,72.9986
573.301,72.9986
573.002,73.9728
572.702,74.9469
572.403,75.434
572.092,76.4081
571.792,76.8952
571.493,77.8694
571.193,79.3305
570.894,81.2788
570.594,82.7401
570.294,83.2271
569.995,84.2013
569.695,85.1754
569.396,85.1754
569.131,83.2271
568.831,81.7659
568.532,79.3305
568.232,76.8952
567.933,75.434
567.633,75.434
567.333,76.4081
567.034,76.4081
566.734,74.9469
566.435,69.1021
566.124,66.6667
565.824,66.6667
565.525,70.0762
565.225,72.9986
564.926,74.9469
564.625,74.9469
564.326,72.9986
564.026,71.5374
563.727,69.1021
563.427,66.6667
563.117,67.6408
562.817,67.6408
562.517,70.5633
562.218,72.5115
561.918,73.9728
561.618,74.9469
561.319,73.9728
561.019,71.5374
560.72,71.5374
560.42,74.9469
560.109,74.9469
559.81,74.9469
559.51,73.9728
559.211,73.9728
558.911,72.5115
558.611,71.5374
558.311,70.0762
558.012,69.1021
557.712,68.615
557.413,70.0762
557.148,72.5115
556.849,72.5115
556.549,70.5633
556.25,70.5633
555.95,70.5633
555.65,71.5374
555.35,76.8952
555.051,81.7659
554.751,86.6366
554.452,95.4039
554.141,102.223
553.841,112.939
553.542,138.753
553.242,153.365
552.943,153.365
552.643,140.215
552.343,139.727
552.044,139.727
551.744,140.215
551.445,144.598
551.134,147.521
550.834,153.365
550.535,157.749
550.235,161.646
549.936,166.029
549.635,173.822
549.336,185.025
549.036,209.379
548.737,246.396
548.437,260.034
548.127,282.44
547.827,282.44
547.527,260.034
547.228,237.629
546.928,201.586
546.628,185.025
546.329,160.184
546.029,152.391
545.73,142.65
545.43,125.602
545.166,125.602
544.866,130.96
544.567,144.598
544.267,157.262
543.967,191.844
543.667,205.969
543.368,205.969
543.068,182.59
542.769,167.978
542.469,153.853
542.158,142.163
541.859,127.064
541.559,124.628
541.26,119.27
540.96,114.4
540.66,108.555
540.36,103.197
540.061,96.8651
539.761,91.9944
539.462,89.072
539.151,85.1754
538.852,83.2271
538.552,83.2271
538.252,87.6108
537.953,88.0978
537.653,88.0978
537.353,89.072
537.054,89.5591
536.754,89.5591
536.455,89.5591
536.144,91.5074
535.844,96.8651
535.545,108.555
535.245,116.835
534.946,133.396
534.646,148.982
534.346,157.262
534.046,180.154
533.747,201.586
533.447,227.4
533.183,249.806
532.883,286.336
532.584,317.022
532.284,344.785
531.985,365.242
531.685,383.75
531.385,390.569
531.085,398.85
530.786,400.311
530.486,398.85
530.176,371.087
529.876,333.095
529.577,300.461
529.277,236.168
528.977,229.349
528.677,229.349
528.378,236.168
528.078,283.901
527.779,314.586
527.479,348.194
527.168,385.212
526.869,416.871
526.569,424.177
526.27,424.177
525.97,419.794
525.67,400.798
525.37,393.005
525.071,384.238
524.771,377.419
524.472,368.651
524.161,366.216
523.862,367.19
523.562,377.906
523.262,386.186
522.963,400.798
522.663,424.177
522.363,435.867
522.064,455.837
521.764,465.091
521.465,476.294
521.2,484.087
520.901,486.523
520.601,487.497
520.302,487.984
520.002,487.984
519.702,487.984
519.402,488.958
519.103,489.932
518.803,491.393
518.504,495.29
518.193,498.212
517.893,498.212
517.594,492.855
517.294,478.729
516.995,468.988
516.695,458.76
516.395,446.096
516.096,441.225
515.796,437.328
515.496,436.841
515.186,437.328
514.886,445.609
514.587,453.889
514.287,465.091
513.987,477.755
513.687,482.626
513.388,491.393
513.088,491.88
512.789,490.419
512.489,475.32
512.178,447.557
511.879,424.664
511.579,405.182
511.28,387.647
510.98,372.548
510.68,360.858
510.381,349.655
510.081,339.914
509.782,331.147
509.482,324.815
509.217,323.354
508.918,321.892
508.618,320.431
508.319,320.431
508.019,319.457
507.719,320.431
507.42,321.892
507.12,325.789
506.82,328.224
506.521,332.121
506.21,333.582
505.911,338.453
505.611,343.811
505.312,348.681
505.012,355.013
504.712,362.319
504.412,371.087
504.113,380.341
503.813,391.544
503.514,405.669
503.203,414.436
502.903,424.664
502.604,435.867
502.304,452.428
502.005,463.63
501.705,475.32
501.405,485.061
501.106,488.958
500.806,495.29
500.506,497.725
500.242,502.596
499.942,504.057
499.643,504.544
499.343,505.518
499.044,505.518
498.744,505.518
498.444,505.518
498.145,505.518
497.845,505.518
497.546,504.544
497.235,503.083
496.935,500.648
496.636,496.751
496.336,492.855
496.037,487.497
495.736,483.6
495.437,472.885
495.137,465.091
494.838,458.76
494.538,453.402
494.227,448.531
493.928,443.66
493.628,439.764
493.329,434.406
493.029,428.561
492.729,424.664
492.43,424.177
492.13,422.229
491.831,423.203
491.531,427.1
491.22,429.535
490.921,433.432
490.621,436.841
490.322,441.225
490.022,446.096
489.722,449.992
489.422,451.941
489.123,451.941
488.823,449.505
488.524,437.328
488.259,430.996
487.96,420.768
487.66,408.104
487.361,395.44
487.061,386.186
486.761,378.88
486.461,372.548
486.162,363.781
485.862,329.685
485.563,320.918
485.252,307.767
484.952,305.819
484.653,305.819
484.353,308.254
484.054,335.043
483.754,355.987
483.454,373.522
483.155,386.186
482.855,398.85
482.556,409.565
482.245,420.768
481.945,431.971
481.646,431.971
481.346,421.742
481.047,409.565
480.746,393.979
480.447,378.88
480.147,363.781
479.848,348.681
479.548,333.582
479.238,318.483
478.938,305.819
478.638,293.155
478.339,282.927
478.039,275.133
477.739,264.905
477.44,256.138
477.14,248.344
476.841,242.013
476.541,236.168
476.277,233.245
475.977,231.297
475.677,230.81
475.378,229.836
475.078,230.81
474.778,237.629
474.479,246.396
474.179,255.163
473.88,266.366
473.58,276.108
473.269,286.336
472.97,293.155
472.67,295.59
472.371,295.59
472.071,292.668
471.771,289.259
471.471,285.362
471.172,277.569
470.872,273.672
470.573,269.776
470.262,267.34
469.963,266.366
469.663,267.827
469.363,272.698
469.064,287.797
468.764,296.565
468.464,314.586
468.165,324.815
467.865,334.556
467.566,339.914
467.255,341.862
466.955,341.862
466.656,339.914
466.356,333.095
466.057,328.224
465.757,321.892
465.457,309.228
465.157,300.461
464.858,295.103
464.558,290.233
464.294,284.388
463.994,277.569
463.695,267.827
463.395,266.366
463.096,266.366
462.796,268.802
462.496,277.569
462.196,287.797
461.897,300.461
461.597,312.151
461.287,329.685
460.987,342.349
460.688,352.578
460.388,359.884
460.088,368.651
459.788,369.138
459.489,368.651
459.189,367.677
458.89,366.216
458.59,359.884
458.279,358.423
457.98,359.884
457.68,365.242
457.381,368.651
457.081,371.087
456.781,372.548
456.482,375.47
456.182,380.341
455.882,385.212
455.583,387.647
455.272,391.544
454.973,396.901
454.673,403.233
454.373,412.975
454.074,426.126
453.774,437.328
453.474,454.863
453.175,465.091
452.875,473.859
452.576,480.191
452.311,484.087
452.012,487.984
451.712,491.393
451.413,496.751
451.113,500.648
450.813,503.083
450.513,503.083
450.214,505.518
449.914,506.493
449.615,506.98
449.304,506.98
449.004,506.493
448.705,505.518
448.405,504.057
448.106,504.057
447.806,503.083
447.506,500.648
447.207,498.212
446.907,496.264
446.607,492.855
446.297,487.984
445.997,484.087
445.698,478.729
445.398,473.859
445.098,468.501
444.798,462.656
444.499,459.734
444.199,457.298
443.9,454.863
443.6,453.889
443.289,453.402
442.99,452.428
442.69,449.505
442.391,444.634
442.091,438.302
441.791,435.867
441.492,435.867
441.192,441.225
440.892,441.225
440.593,439.764
440.328,434.893
440.029,428.074
439.729,416.871
439.43,403.233
439.13,386.186
438.83,366.216
438.531,350.143
438.231,340.888
437.932,325.789
437.632,320.431
437.321,316.047
437.022,312.151
436.722,305.819
436.423,302.897
436.123,299.487
435.823,298.026
435.523,295.59
435.224,293.155
434.924,288.771
434.625,282.927
434.314,275.133
434.014,267.34
433.715,257.599
433.415,248.344
433.116,239.577
432.816,231.297
432.516,224.965
432.217,217.172
431.917,210.353
431.617,206.943
431.307,201.586
431.007,196.715
430.708,195.254
430.408,194.28
430.109,191.844
429.808,190.383
429.509,187.948
429.209,187.948
428.91,190.383
428.61,194.28
428.346,202.073
428.046,207.918
427.747,216.685
427.447,231.297
427.148,244.935
426.847,253.702
426.548,257.599
426.248,261.008
425.949,263.931
425.649,269.776
425.338,280.491
425.039,297.052
424.739,323.354
424.44,343.323
424.14,369.138
423.84,374.983
423.541,374.983
423.241,366.216
422.942,328.224
422.642,298.026
422.331,276.595
422.032,263.444
421.732,248.832
421.433,238.603
421.133,229.836
420.833,223.504
420.533,218.146
420.234,213.275
419.934,206.943
419.635,200.611
419.324,191.844
419.024,185.025
418.725,180.642
418.425,172.848
418.126,168.952
417.826,166.516
417.526,166.029
417.227,164.081
416.927,163.594
416.628,161.159
416.363,157.262
416.063,154.827
415.764,153.853
415.464,153.365
415.165,152.391
414.865,149.956
414.565,146.059
414.266,139.727
413.966,138.753
413.667,138.266
413.356,136.318
413.056,134.857
412.757,133.883
412.457,132.421
412.158,131.934
411.857,129.986
411.558,129.499
411.258,128.525
410.959,127.551
410.659,127.551
410.349,127.551
410.049,128.525
409.749,129.499
409.45,129.499
409.15,129.499
408.85,130.96
408.551,133.396
408.251,136.318
407.952,139.727
407.652,145.085
407.388,153.365
407.088,162.62
406.788,176.745
406.489,185.512
406.189,205.482
405.889,223.017
405.59,241.038
405.29,254.676
404.991,263.931
404.691,265.392
404.38,263.931
404.081,252.241
403.781,220.581
403.482,209.379
403.182,192.818
402.882,174.31
402.582,159.697
402.283,153.365
401.983,142.163
401.684,139.727
401.373,135.831
401.074,131.934
400.774,128.525
400.474,126.089
400.175,124.628
399.875,124.628
399.575,123.654
399.276,121.219
398.976,119.27
398.677,116.835
398.366,114.887
398.066,114.887
397.767,114.4
397.467,113.426
397.168,112.939
396.868,111.964
396.568,110.99
396.268,110.99
395.969,111.964
395.669,111.964
395.405,111.964
395.105,111.964
394.806,112.939
394.506,112.939
394.207,114.4
393.907,116.835
393.607,123.167
393.307,129.499
393.008,138.753
392.708,150.93
392.398,169.926
392.098,176.745
391.798,184.051
391.499,191.844
391.199,197.689
390.899,197.689
390.6,191.357
390.3,174.31
390.001,163.594
389.701,152.391
389.39,142.163
389.091,138.266
388.791,134.857
388.492,130.96
388.192,128.525
387.892,127.064
387.593,125.602
387.293,123.167
386.993,122.193
386.694,122.193
386.383,121.219
386.084,121.219
385.784,122.193
385.484,123.167
385.185,126.089
384.885,127.551
384.585,133.883
384.286,137.292
383.986,140.215
383.687,148.982
383.422,157.262
383.123,170.413
382.823,177.719
382.524,184.051
382.224,185.512
381.924,185.512
381.624,176.258
381.325,167.978
381.025,161.159
380.726,149.956
380.415,141.189
380.115,132.421
379.816,127.064
379.516,123.167
379.217,122.193
378.917,119.758
378.617,118.296
378.318,116.835
378.018,114.4
377.718,110.99
377.408,108.068
377.108,104.658
376.809,104.171
376.509,103.197
376.21,103.197
375.909,102.223
375.61,102.223
375.31,104.171
375.011,104.658
374.711,108.068
374.4,112.939
374.101,118.296
373.801,122.193
373.502,124.628
373.202,125.602
372.902,129.986
372.603,130.96
372.303,129.499
372.003,123.654
371.704,121.219
371.439,118.296
371.14,117.322
370.84,113.426
370.541,111.964
370.241,111.964
369.941,110.99
369.642,110.99
369.342,111.964
369.042,112.939
368.743,113.426
368.432,114.887
368.133,116.835
367.833,119.27
367.534,121.219
367.234,123.167
366.934,124.628
366.634,126.089
366.335,126.089
366.035,123.167
365.736,119.758
365.425,117.322
365.125,115.861
364.826,114.887
364.526,114.4
364.227,112.939
363.927,111.964
363.627,111.964
363.328,113.426
363.028,113.426
362.728,114.887
362.418,116.835
362.118,117.322
361.819,119.27
361.519,122.193
361.22,126.089
360.919,129.986
360.62,131.934
360.32,131.934
360.021,129.986
359.721,129.499
359.457,128.525
359.157,127.551
358.858,127.551
358.558,127.551
358.259,128.525
357.958,128.525
357.659,128.525
357.359,129.499
357.06,129.499
356.76,129.986
356.449,130.96
356.15,130.96
355.85,130.96
355.551,129.986
355.251,129.986
354.951,129.499
354.652,127.551
354.352,125.602
354.053,123.654
353.753,122.193
353.442,120.732
353.143,118.296
352.843,116.835
352.544,115.861
352.244,114.887
351.944,114.4
351.644,113.426
351.345,113.426
351.045,112.939
350.746,112.939
350.435,112.939
350.135,111.964
349.836,110.99
349.536,109.529
349.237,108.555
348.937,108.555
348.637,108.068
348.338,107.094
348.038,106.607
347.739,105.632
347.474,104.658
347.174,104.658
346.875,102.223
346.575,102.223
346.276,102.223
345.976,101.736
345.676,101.736
345.377,100.762
345.077,100.762
344.778,100.762
344.467,100.762
344.167,100.762
343.868,100.762
343.568,100.762
343.269,100.762
342.968,100.762
342.669,100.275
342.369,100.275
342.07,100.275
341.77,99.3005
341.46,99.3005
341.16,99.3005
340.86,100.275
340.561,100.275
340.261,100.762
339.961,100.762
339.662,100.762
339.362,100.275
339.063,100.275
338.763,100.275
338.452,100.762
338.153,100.762
337.853,100.762
337.554,101.736
337.254,100.762
336.954,100.275
336.654,100.275
336.355,100.275
336.055,100.275
335.756,100.762
335.491,100.762
335.192,101.736
334.892,101.736
334.593,101.736
334.293,103.197
333.993,104.171
333.693,106.607
333.394,109.529
333.094,112.939
332.795,114.887
332.484,117.322
332.185,119.27
331.885,121.219
331.585,123.654
331.286,128.525
330.986,131.934
330.686,135.831
330.387,137.292
330.087,140.215
329.788,142.65
329.477,143.624
329.177,142.65
328.878,138.753
328.578,133.883
328.279,129.986
327.979,126.089
327.679,122.193
327.379,118.296
327.08,114.4
326.78,110.503
326.516,105.632
326.216,101.736
325.917,97.8393
325.617,94.4298
325.318,92.9686
325.018,91.9944
324.718,91.9944
324.418,91.5074
324.119,91.5074
323.819,91.5074
323.509,91.9944
323.209,92.9686
322.91,94.4298
322.61,98.3264
322.31,106.607
322.01,115.861
321.711,127.064
321.411,140.215
321.112,153.853
320.812,169.926
320.501,185.512
320.202,201.586
319.902,218.633
319.603,234.706
319.303,248.344
319.003,255.163
318.703,255.163
318.404,253.702
318.104,247.37
317.805,236.168
317.494,218.633
317.195,196.715
316.895,191.357
316.595,179.18
316.296,162.62
315.996,153.853
315.696,142.163
315.397,135.831
315.097,127.551
314.798,123.167
314.533,118.296
314.234,111.964
313.934,106.607
313.635,104.171
313.335,103.197
313.035,99.3005
312.735,97.8393
312.436,96.8651
312.136,95.891
311.837,95.4039
311.526,93.9427
311.226,93.9427
310.927,94.4298
310.627,96.8651
310.328,99.3005
310.028,104.658
309.728,110.99
309.428,121.219
309.129,133.883
308.829,151.417
308.519,163.594
308.219,194.28
307.92,219.607
307.62,230.81
307.32,248.344
307.02,261.495
306.721,269.776
306.421,283.901
306.122,288.771
305.822,288.771
305.511,286.823
305.212,280.004
304.912,271.724
304.613,271.237
304.313,272.698
304.013,288.771
303.714,300.461
303.414,331.147
303.114,342.349
302.815,356.474
302.55,373.522
302.251,375.47
301.951,374.009
301.652,350.143
301.352,333.095
301.052,305.819
300.753,273.672
300.453,242.013
300.154,214.249
299.854,197.689
299.543,185.025
299.244,179.18
298.944,157.262
298.645,148.982
298.345,142.163
298.045,134.857
297.745,129.499
297.446,124.628
297.146,123.167
296.847,120.732
296.536,117.322
296.236,115.861
295.937,114.887
295.637,117.322
295.338,121.219
295.038,126.089
294.738,132.421
294.439,142.65
294.139,154.827
293.839,165.055
293.529,177.719
293.229,189.409
292.93,195.254
292.63,195.254
292.331,191.844
292.03,185.512
291.731,176.258
291.431,167.491
291.132,158.723
290.832,149.956
290.568,142.163
290.268,135.831
289.969,129.499
289.669,124.628
289.37,121.219
289.069,119.27
288.77,115.861
288.47,113.426
288.171,113.426
287.871,114.887
287.56,115.861
287.261,114.887
286.961,114.4
286.662,111.964
286.362,110.503
286.062,108.068
285.763,106.607
285.463,104.658
285.164,104.171
284.864,104.171
284.553,102.223
284.254,101.736
283.954,100.762
283.655,100.275
283.355,100.762
283.055,101.736
282.755,101.736
282.456,102.223
282.156,102.223
281.857,102.223
281.546,103.197
281.246,104.171
280.947,104.658
280.647,105.632
280.348,106.607
280.048,106.607
279.748,106.607
279.449,106.607
279.149,107.094
278.849,108.068
278.585,108.555
278.285,110.503
277.986,112.939
277.686,113.426
277.387,114.4
277.087,114.887
276.787,116.835
276.488,118.296
276.188,119.758
275.889,122.193
275.578,124.628
275.278,128.525
274.979,129.986
274.679,131.934
274.38,133.396
274.079,137.292
273.78,139.727
273.48,145.085
273.181,153.365
272.881,162.62
272.571,171.387
272.271,179.18
271.971,186.973
271.672,195.254
271.372,205.482
271.072,215.711
270.773,223.504
270.473,227.4
270.174,229.836
269.874,230.81
269.563,231.297
269.264,230.81
268.964,229.349
268.665,226.913
268.365,224.478
268.065,223.017
267.765,221.068
267.466,221.068
267.166,224.478
266.867,233.732
266.602,243.474
266.303,249.806
266.003,261.008
265.704,276.108
265.404,291.694
265.104,309.228
264.804,324.815
264.505,339.427
264.205,349.655
263.906,355.013
263.595,362.319
263.296,369.138
262.996,374.983
262.696,379.854
262.397,382.776
262.097,389.108
261.797,395.44
261.498,400.311
261.198,401.772
260.899,402.746
260.588,401.772
260.288,399.337
259.989,396.901
259.689,394.466
259.39,390.569
259.09,386.186
258.79,382.776
258.49,382.776
258.191,384.238
257.891,396.414
257.581,407.13
257.281,419.794
256.982,431.971
256.682,444.634
256.382,456.324
256.082,468.501
255.783,477.268
255.483,482.626
255.184,483.6
254.884,481.652
254.62,470.936
254.32,453.402
254.021,437.328
253.721,419.307
253.421,402.746
253.121,394.466
252.822,390.082
252.522,380.341
252.223,374.009
251.923,371.574
251.612,370.112
251.313,371.087
251.013,371.574
250.714,372.548
250.414,372.548
250.114,371.087
249.814,365.242
249.515,352.578
249.215,338.453
248.916,322.379
248.605,305.332
248.306,288.771
248.006,272.698
247.706,259.06
247.407,247.37
247.107,239.577
246.807,227.4
246.508,219.607
246.208,210.353
245.909,205.482
245.644,195.254
245.345,189.409
245.045,182.59
244.745,178.693
244.446,174.31
244.146,172.361
243.846,170.413
243.547,168.952
243.247,167.978
242.948,167.491
242.637,165.055
242.337,163.594
242.038,163.594
241.738,166.029
241.439,167.491
241.139,166.516
240.839,166.516
240.54,167.491
240.24,168.952
239.94,170.413
239.63,172.361
239.33,173.822
239.031,175.284
238.731,177.719
238.431,180.154
238.131,181.616
237.832,185.025
237.532,187.948
237.233,189.409
236.933,193.305
236.622,199.15
236.323,203.047
236.023,205.969
235.724,210.353
235.424,213.275
235.124,218.633
234.825,224.965
234.525,230.81
234.225,238.603
233.926,248.344
233.661,262.47
233.362,270.263
233.062,280.004
232.763,290.233
232.463,303.384
232.163,318.483
231.864,337.479
231.564,354.526
231.264,372.548
230.965,382.776
230.654,400.311
230.355,416.871
230.055,430.996
229.756,444.634
229.456,456.324
229.156,467.527
228.856,474.833
228.557,481.652
228.257,486.523
227.958,491.393
227.647,492.855
227.347,493.829
227.048,493.829
226.748,492.855
226.449,491.88
226.149,491.393
225.849,489.932
225.55,488.958
225.25,486.523
224.95,485.548
224.64,484.087
224.34,483.6
224.041,478.729
223.741,477.268
223.442,473.859
223.141,466.553
222.842,462.656
222.542,458.272
222.243,452.428
221.943,445.609
221.679,436.841
221.379,428.074
221.08,417.845
220.78,407.13
220.481,396.414
220.18,383.75
219.881,371.574
219.581,358.91
219.282,345.759
218.982,332.121
218.671,319.457
218.372,309.228
218.072,299.487
217.773,291.694
217.473,283.901
217.173,276.108
216.874,267.827
216.574,260.034
216.275,250.78
215.975,244.448
215.664,239.577
215.365,235.681
215.065,230.81
214.766,229.349
214.466,225.939
214.166,223.504
213.866,220.581
213.567,218.146
213.267,215.711
212.968,212.301
212.657,209.379
212.357,207.918
212.058,206.943
211.758,205.482
211.459,204.021
211.159,202.073
210.859,200.611
210.56,199.637
210.26,199.15
209.96,199.15
209.696,199.637
209.396,200.611
209.097,201.586
208.797,202.073
208.498,201.586
208.198,201.586
207.898,200.611
207.599,200.611
207.299,199.637
207,199.637
206.689,199.637
206.389,200.611
206.09,201.586
205.79,201.586
205.491,201.586
205.19,201.586
204.891,201.586
204.591,202.073
204.292,202.073
203.992,204.508
203.682,205.482
203.382,205.969
203.082,205.969
202.783,206.943
202.483,207.918
202.183,210.84
201.884,212.301
201.584,215.711
201.285,219.607
200.985,223.017
200.674,226.913
200.375,232.271
200.075,237.629
199.776,244.448
199.476,252.728
199.176,261.495
198.876,272.698
198.577,286.336
198.277,300.461
197.978,319.457
197.713,338.453
197.414,346.246
197.114,362.319
196.815,379.854
196.515,388.134
196.215,394.466
195.915,400.311
195.616,400.798
195.316,400.311
195.017,397.876
194.706,393.979
194.407,385.212
194.107,377.419
193.807,371.574
193.508,353.552
193.208,339.914
192.908,328.711
192.609,319.457
192.309,309.228
192.01,299
191.699,294.129
191.399,289.259
191.1,285.362
190.8,280.004
190.501,276.108
190.201,271.237
189.901,267.34
189.601,265.392
189.302,264.905
189.002,263.931
188.692,264.905
188.392,265.392
188.092,268.802
187.793,273.672
187.493,281.465
187.193,288.771
186.894,292.668
186.594,300.461
186.295,309.716
185.995,313.125
185.731,316.047
185.431,319.457
185.132,320.431
184.832,319.457
184.532,313.125
184.232,303.384
183.933,292.668
183.633,282.927
183.334,272.698
183.034,263.444
182.723,252.728
182.424,242.5
182.124,237.142
181.825,233.245
181.525,229.836
181.225,225.939
180.926,224.478
180.626,224.478
180.326,226.913
180.027,227.4
179.716,228.375
179.417,231.297
179.117,234.706
178.817,237.142
178.518,242.013
178.218,248.832
177.918,261.008
177.619,267.34
177.319,280.491
177.02,289.259
176.709,301.435
176.409,314.099
176.11,326.763
175.81,337.479
175.511,350.143
175.211,368.651
174.911,377.419
174.611,390.569
174.312,400.798
174.012,408.104
173.748,415.41
173.448,420.768
173.149,428.561
172.849,433.432
172.55,436.841
172.25,439.277
171.95,440.738
171.65,441.225
171.351,442.199
171.051,442.199
170.741,443.173
170.441,443.66
170.142,443.66
169.842,443.66
169.542,443.66
169.242,443.66
168.943,444.634
168.643,444.634
168.344,444.634
168.044,444.634
167.733,445.609
167.434,446.096
167.134,446.096
166.835,445.609
166.535,441.225
166.235,435.867
165.936,430.509
165.636,427.1
165.336,416.871
165.037,408.104
164.772,399.337
164.473,390.082
164.173,377.906
163.874,362.806
163.574,343.323
163.274,334.556
162.975,324.328
162.675,314.586
162.375,303.384
162.076,294.129
161.765,284.388
161.466,277.569
161.166,271.237
160.867,267.827
160.567,262.47
160.267,257.599
159.967,252.241
159.668,247.37
159.368,243.474
159.069,242.013
158.758,240.064
158.458,238.603
158.159,237.142
157.859,237.142
157.56,235.681
157.26,232.271
156.96,230.81
156.661,229.349
156.361,229.349
156.061,228.375
155.751,227.4
155.451,225.939
155.152,225.939
154.852,227.4
154.553,227.4
154.252,228.375
153.953,227.4
153.653,225.939
153.354,223.017
153.054,223.017
152.79,224.478
152.49,224.965
152.191,224.965
151.891,225.939
151.592,225.939
151.291,224.965
150.992,223.504
150.692,223.017
150.393,222.043
150.093,222.043
149.782,223.504
149.483,223.504
149.183,223.017
148.884,223.017
148.584,222.043
148.284,221.068
147.985,221.068
147.685,222.043
147.386,221.068
147.086,218.633
146.775,217.172
146.476,217.172
146.176,219.607
145.877,219.607
145.577,220.581
145.277,220.581
144.977,221.068
144.678,222.043
144.378,222.043
144.079,221.068
143.768,221.068
143.468,221.068
143.169,222.043
142.869,222.043
142.57,223.017
142.27,223.017
141.97,223.504
141.671,224.965
141.371,226.913
141.072,229.349
140.807,230.81
140.507,232.271
140.208,234.706
139.908,236.168
139.609,237.142
139.309,238.603
139.009,242.013
138.71,244.448
138.41,246.396
138.111,247.37
137.8,248.344
137.5,250.78
137.201,252.728
136.901,253.702
136.602,253.702
136.301,253.702
136.002,253.702
135.702,253.702
135.403,252.728
135.103,252.728
134.793,252.241
134.493,250.78
134.193,248.832
133.894,246.396
133.594,243.474
133.294,241.038
132.995,239.577
132.695,237.142
132.396,235.681
132.096,233.245
131.785,231.297
131.486,228.375
131.186,225.939
130.887,223.017
130.587,219.607
130.287,218.633
129.987,217.172
129.688,216.685
129.388,215.711
129.089,214.737
128.824,214.737
128.525,214.249
128.225,213.275
127.926,213.275
127.626,212.301
127.326,212.301
127.026,211.814
126.727,211.814
126.427,211.814
126.128,210.84
125.817,210.353
125.517,210.353
125.218,210.353
124.918,210.84
124.619,211.814
124.319,212.301
124.019,212.301
123.72,212.301
123.42,212.301
123.121,212.301
122.81,212.301
122.51,211.814
122.211,211.814
121.911,210.84
121.612,210.353
121.312,210.353
121.012,209.379
120.712,208.405
120.413,207.918
120.113,207.918
119.803,207.918
119.503,208.405
119.203,209.379
118.904,209.379
118.604,209.379
118.304,209.379
118.005,207.918
117.705,207.918
117.406,208.405
117.106,209.379
116.842,209.379
116.542,208.405
116.243,208.405
115.943,208.405
115.643,207.918
115.343,207.918
115.044,207.918
114.744,207.918
114.445,207.918
114.145,208.405
113.834,208.405
113.535,207.918
113.235,207.918
112.936,208.405
112.636,208.405
112.336,208.405
112.036,208.405
111.737,208.405
111.437,208.405
111.138,209.379
110.827,210.353
110.528,210.84
110.228,213.275
109.928,214.737
109.629,215.711
109.329,217.172
109.029,218.633
108.73,222.043
108.43,223.504
108.131,224.478
107.82,225.939
107.52,229.349
107.221,231.297
106.921,234.706
106.622,237.142
106.322,241.038
106.022,242.5
105.722,243.474
105.423,244.935
105.123,245.909
104.859,246.396
104.559,246.396
104.26,245.909
103.96,245.909
103.661,245.909
103.361,245.909
103.061,246.396
102.761,247.37
102.462,248.344
102.162,248.344
101.852,248.344
101.552,247.37
101.253,247.37
100.953,246.396
100.653,244.935
100.353,244.935
100.054,244.935
99.7542,244.448
99.4547,244.448
99.1552,244.448
98.8444,244.935
98.5449,244.935
98.2453,244.935
97.9458,244.935
97.6462,244.935
97.3461,244.935
97.0465,245.909
96.747,245.909
96.4474,245.909
96.1479,245.909
95.8371,244.935
95.5376,245.909
95.2381,245.909" />
</g>
</svg>
