<?xml version="1.0"?>
<svg version="1.1"
     xmlns="http://www.w3.org/2000/svg"
     xmlns:xlink="http://www.w3.org/1999/xlink"
     viewBox="0 0 800 600">
<g>
<text fill="#000000" font-family="sans-serif" font-size="19.0476" text-anchor="start" x="4.7619" y="591.429" >
NIST Chemistry WebBook (https://webbook.nist.gov/chemistry)
</text>
<polyline stroke="#000000" stroke-width="1.19048" fill="none" points="95.2381,514.286
742.857,514.286
742.857,66.6667
95.2381,66.6667
95.2381,514.286" />
<text fill="#000000" font-family="sans-serif" font-size="19.0476" text-anchor="middle" x="419.048" y="24.7619" >
4,4-DIHYDROXY BIPHENYL
</text>
<text fill="#000000" font-family="sans-serif" font-size="19.0476" text-anchor="middle" x="419.048" y="53.3333" >
INFRARED SPECTRUM
</text>
<text fill="#000000" font-family="sans-serif" font-size="19.0476" text-anchor="middle" x="419.048" y="558.095" >
Micrometers
</text>
<text fill="#000000" font-family="sans-serif" font-size="19.0476" text-anchor="middle" transform="translate(20,290.476) rotate(270)" x="0" y="0" >
Transmitance
</text>
<text fill="#000000" font-family="sans-serif" font-size="19.0476" text-anchor="middle" x="647.686" y="534.286" >
4
</text>
<line stroke="#000000" stroke-width="1.19048" x1="647.686" y1="514.286" x2="647.686" y2="504.762" />
<text fill="#000000" font-family="sans-serif" font-size="19.0476" text-anchor="middle" x="453.359" y="534.286" >
8
</text>
<line stroke="#000000" stroke-width="1.19048" x1="453.359" y1="514.286" x2="453.359" y2="504.762" />
<text fill="#000000" font-family="sans-serif" font-size="19.0476" text-anchor="middle" x="259.032" y="534.286" >
12
</text>
<line stroke="#000000" stroke-width="1.19048" x1="259.032" y1="514.286" x2="259.032" y2="504.762" />
<line stroke="#000000" stroke-width="1.19048" x1="696.267" y1="514.286" x2="696.267" y2="509.524" />
<line stroke="#000000" stroke-width="1.19048" x1="647.686" y1="514.286" x2="647.686" y2="509.524" />
<line stroke="#000000" stroke-width="1.19048" x1="599.104" y1="514.286" x2="599.104" y2="509.524" />
<line stroke="#000000" stroke-width="1.19048" x1="550.522" y1="514.286" x2="550.522" y2="509.524" />
<line stroke="#000000" stroke-width="1.19048" x1="501.941" y1="514.286" x2="501.941" y2="509.524" />
<line stroke="#000000" stroke-width="1.19048" x1="453.359" y1="514.286" x2="453.359" y2="509.524" />
<line stroke="#000000" stroke-width="1.19048" x1="404.777" y1="514.286" x2="404.777" y2="509.524" />
<line stroke="#000000" stroke-width="1.19048" x1="356.196" y1="514.286" x2="356.196" y2="509.524" />
<line stroke="#000000" stroke-width="1.19048" x1="307.614" y1="514.286" x2="307.614" y2="509.524" />
<line stroke="#000000" stroke-width="1.19048" x1="259.032" y1="514.286" x2="259.032" y2="509.524" />
<line stroke="#000000" stroke-width="1.19048" x1="210.451" y1="514.286" x2="210.451" y2="509.524" />
<line stroke="#000000" stroke-width="1.19048" x1="161.869" y1="514.286" x2="161.869" y2="509.524" />
<line stroke="#000000" stroke-width="1.19048" x1="113.287" y1="514.286" x2="113.287" y2="509.524" />
<text fill="#000000" font-family="sans-serif" font-size="19.0476" text-anchor="end" x="90.4762" y="424.794" >
0.2
</text>
<line stroke="#000000" stroke-width="1.19048" x1="95.2381" y1="420.508" x2="104.762" y2="420.508" />
<text fill="#000000" font-family="sans-serif" font-size="19.0476" text-anchor="end" x="90.4762" y="328.116" >
0.4
</text>
<line stroke="#000000" stroke-width="1.19048" x1="95.2381" y1="323.83" x2="104.762" y2="323.83" />
<text fill="#000000" font-family="sans-serif" font-size="19.0476" text-anchor="end" x="90.4762" y="231.438" >
0.6
</text>
<line stroke="#000000" stroke-width="1.19048" x1="95.2381" y1="227.152" x2="104.762" y2="227.152" />
<text fill="#000000" font-family="sans-serif" font-size="19.0476" text-anchor="end" x="90.4762" y="134.76" >
0.8
</text>
<line stroke="#000000" stroke-width="1.19048" x1="95.2381" y1="130.474" x2="104.762" y2="130.474" />
<line stroke="#000000" stroke-width="1.19048" x1="95.2381" y1="493.017" x2="100" y2="493.017" />
<line stroke="#000000" stroke-width="1.19048" x1="95.2381" y1="468.847" x2="100" y2="468.847" />
<line stroke="#000000" stroke-width="1.19048" x1="95.2381" y1="444.678" x2="100" y2="444.678" />
<line stroke="#000000" stroke-width="1.19048" x1="95.2381" y1="420.508" x2="100" y2="420.508" />
<line stroke="#000000" stroke-width="1.19048" x1="95.2381" y1="396.339" x2="100" y2="396.339" />
<line stroke="#000000" stroke-width="1.19048" x1="95.2381" y1="372.169" x2="100" y2="372.169" />
<line stroke="#000000" stroke-width="1.19048" x1="95.2381" y1="348" x2="100" y2="348" />
<line stroke="#000000" stroke-width="1.19048" x1="95.2381" y1="323.83" x2="100" y2="323.83" />
<line stroke="#000000" stroke-width="1.19048" x1="95.2381" y1="299.661" x2="100" y2="299.661" />
<line stroke="#000000" stroke-width="1.19048" x1="95.2381" y1="275.491" x2="100" y2="275.491" />
<line stroke="#000000" stroke-width="1.19048" x1="95.2381" y1="251.322" x2="100" y2="251.322" />
<line stroke="#000000" stroke-width="1.19048" x1="95.2381" y1="227.152" x2="100" y2="227.152" />
<line stroke="#000000" stroke-width="1.19048" x1="95.2381" y1="202.983" x2="100" y2="202.983" />
<line stroke="#000000" stroke-width="1.19048" x1="95.2381" y1="178.813" x2="100" y2="178.813" />
<line stroke="#000000" stroke-width="1.19048" x1="95.2381" y1="154.644" x2="100" y2="154.644" />
<line stroke="#000000" stroke-width="1.19048" x1="95.2381" y1="130.474" x2="100" y2="130.474" />
<line stroke="#000000" stroke-width="1.19048" x1="95.2381" y1="106.305" x2="100" y2="106.305" />
<line stroke="#000000" stroke-width="1.19048" x1="95.2381" y1="82.1351" x2="100" y2="82.1351" />
<polyline stroke="#FF0000" stroke-width="1.19048" fill="none" points="742.857,79.7182
742.529,79.7182
742.2,79.7182
741.872,79.7182
741.543,79.7182
741.214,79.7182
740.886,79.7182
740.557,79.7182
740.229,79.7182
739.901,79.7182
739.602,79.7182
739.274,79.7182
738.945,79.7182
738.617,79.7182
738.289,79.7182
737.959,79.7182
737.631,79.7182
737.302,79.7182
736.974,78.7514
736.646,78.7514
736.299,77.7847
735.97,77.7847
735.642,77.7847
735.313,77.3012
734.985,77.3012
734.656,75.3677
734.327,73.9175
733.999,72.9507
733.67,72.9507
733.342,72.9507
733.044,72.4673
732.715,72.4673
732.387,72.4673
732.058,72.4673
731.73,71.5006
731.401,71.5006
731.072,70.5338
730.744,70.0504
730.415,69.0836
730.087,69.0836
729.74,69.0836
729.412,68.1169
729.083,68.1169
728.755,68.1169
728.426,68.1169
728.097,68.1169
727.769,67.6335
727.44,67.6335
727.112,67.6335
726.784,66.6667
726.437,66.6667
726.108,66.6667
725.78,66.6667
725.451,66.6667
725.123,66.6667
724.794,67.6335
724.465,68.1169
724.137,70.5338
723.808,72.4673
723.48,72.9507
723.182,73.9175
722.853,73.9175
722.525,73.9175
722.196,73.9175
721.868,73.9175
721.539,73.9175
721.21,73.9175
720.882,72.9507
720.553,72.9507
720.225,72.4673
719.878,72.4673
719.55,72.4673
719.221,72.4673
718.893,71.5006
718.564,71.5006
718.235,71.5006
717.907,71.5006
717.578,70.5338
717.25,70.5338
716.921,70.5338
716.623,70.5338
716.295,70.0504
715.966,70.0504
715.638,69.0836
715.309,68.1169
714.98,67.6335
714.652,67.6335
714.323,67.6335
713.995,67.6335
713.666,66.6667
713.319,66.6667
712.991,67.6335
712.663,67.6335
712.334,68.1169
712.006,68.1169
711.677,70.0504
711.348,72.4673
711.02,75.3677
710.691,81.1684
710.363,89.386
710.016,98.087
709.688,114.522
709.359,130.958
709.031,131.924
708.702,172.529
708.373,214.101
708.045,239.72
707.716,252.772
707.388,266.79
707.059,266.79
706.761,296.76
706.432,304.011
706.104,311.745
705.776,332.048
705.447,359.601
705.118,374.103
704.79,389.571
704.461,414.224
704.133,426.309
703.804,440.327
703.457,446.611
703.129,449.995
702.801,453.862
702.472,465.947
702.144,474.164
701.814,489.149
701.486,498.817
701.158,503.651
700.829,507.518
700.501,509.452
700.202,509.452
699.874,509.452
699.546,509.935
699.217,509.935
698.889,509.935
698.559,509.935
698.231,509.452
697.903,509.452
697.574,507.518
697.246,504.618
696.899,502.201
696.57,494.467
696.242,489.149
695.914,481.415
695.585,468.364
695.256,460.629
694.928,452.412
694.599,435.977
694.271,427.759
693.942,419.541
693.595,410.84
693.267,389.571
692.938,382.32
692.61,358.634
692.282,350.417
691.952,343.166
691.624,334.465
691.296,325.28
690.967,314.646
690.639,300.144
690.34,291.926
690.012,286.126
689.683,280.808
689.355,276.458
689.027,270.174
688.697,265.34
688.369,258.572
688.041,252.288
687.712,245.521
687.384,235.853
687.037,229.569
686.708,227.636
686.38,225.219
686.052,223.768
685.723,221.835
685.394,221.351
685.065,221.351
684.737,222.802
684.409,224.252
684.08,228.602
683.782,229.569
683.453,229.569
683.125,228.602
682.797,226.669
682.468,219.418
682.139,199.116
681.81,184.614
681.482,178.813
681.154,164.311
680.825,163.345
680.478,160.928
680.15,158.511
679.821,157.061
679.493,154.644
679.165,154.644
678.835,154.644
678.507,153.677
678.178,153.677
677.85,152.71
677.522,152.227
677.175,150.293
676.846,148.843
676.518,147.876
676.189,144.492
675.861,142.076
675.532,140.625
675.203,139.175
674.875,138.208
674.547,137.242
674.218,136.758
673.92,135.791
673.591,135.791
673.263,134.825
672.934,134.341
672.606,133.374
672.277,132.408
671.948,131.924
671.62,130.958
671.292,129.991
670.963,129.991
670.616,129.991
670.288,129.991
669.959,129.024
669.631,126.607
669.303,126.607
668.973,126.124
668.645,125.157
668.316,126.124
667.988,126.124
667.66,125.157
667.361,124.19
667.033,123.707
666.704,122.74
666.376,122.74
666.048,123.707
665.718,123.707
665.39,123.707
665.061,123.707
664.733,124.19
664.405,125.157
664.058,125.157
663.729,125.157
663.401,124.19
663.072,124.19
662.744,123.707
662.415,122.74
662.086,121.773
661.758,121.29
661.43,121.29
661.101,121.29
660.754,121.773
660.426,121.773
660.097,121.773
659.769,121.29
659.44,121.29
659.111,121.29
658.783,121.29
658.454,121.29
658.126,121.773
657.797,121.773
657.499,121.773
657.171,121.29
656.842,119.356
656.514,117.906
656.185,116.939
655.856,115.489
655.528,115.489
655.199,115.489
654.871,115.489
654.543,116.456
654.196,116.456
653.867,116.456
653.539,116.456
653.21,116.456
652.882,116.456
652.553,115.489
652.224,113.556
651.896,108.722
651.567,106.305
651.239,105.821
650.941,104.854
650.612,104.854
650.284,103.888
649.955,104.854
649.627,104.854
649.298,105.821
648.969,107.271
648.641,111.139
648.312,113.072
647.984,115.489
647.637,116.939
647.309,120.323
646.98,120.323
646.652,121.29
646.323,121.29
645.994,121.773
645.666,121.773
645.337,121.773
645.009,121.29
644.68,120.323
644.333,120.323
644.005,119.356
643.677,119.356
643.348,117.906
643.02,116.456
642.69,115.489
642.362,113.072
642.034,111.139
641.705,109.688
641.377,106.305
641.078,105.821
640.75,103.888
640.422,97.6036
640.093,94.2199
639.765,90.3528
639.436,86.0023
639.107,83.5853
638.779,82.1352
638.45,81.1684
638.122,80.2016
637.775,80.2016
637.447,80.2016
637.118,80.2016
636.79,80.2016
636.461,80.2016
636.132,80.2016
635.804,81.1684
635.475,81.1684
635.147,81.1684
634.818,81.1684
634.52,81.1684
634.192,82.1352
633.863,82.1352
633.535,82.1352
633.206,82.1352
632.877,81.1684
632.549,81.1684
632.22,80.2016
631.892,80.2016
631.563,80.2016
631.216,78.7514
630.888,77.7847
630.56,77.3012
630.231,77.3012
629.903,77.3012
629.573,77.7847
629.245,77.7847
628.917,77.7847
628.588,77.3012
628.26,76.3345
627.913,75.3677
627.584,74.8843
627.256,73.9175
626.928,72.9507
626.599,72.4673
626.27,72.4673
625.942,71.5006
625.613,71.5006
625.285,71.5006
624.956,71.5006
624.658,71.5006
624.329,71.5006
624.001,71.5006
623.673,71.5006
623.344,71.5006
623.015,71.5006
622.687,71.5006
622.358,71.5006
622.03,71.5006
621.701,71.5006
621.354,71.5006
621.026,71.5006
620.698,71.5006
620.369,71.5006
620.041,71.5006
619.711,71.5006
619.383,71.5006
619.055,71.5006
618.726,71.5006
618.398,71.5006
618.099,71.5006
617.771,71.5006
617.443,72.4673
617.114,72.4673
616.786,72.4673
616.456,72.9507
616.128,72.9507
615.8,73.9175
615.471,74.8843
615.143,75.3677
614.796,76.3345
614.467,76.3345
614.139,76.3345
613.811,77.3012
613.482,79.7182
613.153,80.2016
612.824,80.2016
612.496,81.1684
612.168,82.1352
611.839,83.1019
611.492,84.5521
611.164,86.0023
610.835,87.9358
610.507,90.3528
610.179,92.7697
609.849,94.2199
609.521,95.6701
609.193,97.6036
608.864,99.0538
608.536,100.021
608.237,100.987
607.909,100.987
607.581,100.021
607.252,97.6036
606.924,94.2199
606.594,93.2531
606.266,91.8029
605.938,90.3528
605.609,89.386
605.281,89.386
604.934,88.4192
604.605,88.4192
604.277,89.386
603.949,89.386
603.62,89.386
603.291,89.386
602.962,89.386
602.634,90.3528
602.306,90.8362
601.977,91.8029
601.679,91.8029
601.35,90.8362
601.022,90.8362
600.694,90.3528
600.365,88.4192
600.036,86.0023
599.707,85.5189
599.379,83.5853
599.051,83.1019
598.722,81.1684
598.375,78.7514
598.047,77.3012
597.718,76.3345
597.39,76.3345
597.062,76.3345
596.732,76.3345
596.404,76.3345
596.075,76.3345
595.747,75.3677
595.419,75.3677
595.072,75.3677
594.743,75.3677
594.415,75.3677
594.086,75.3677
593.758,75.3677
593.429,75.3677
593.1,75.3677
592.772,75.3677
592.443,75.3677
592.115,75.3677
591.817,76.3345
591.488,76.3345
591.16,76.3345
590.831,77.3012
590.503,77.7847
590.174,78.7514
589.845,80.2016
589.517,81.1684
589.188,82.1352
588.86,86.9691
588.513,95.6701
588.185,100.987
587.856,105.821
587.528,116.939
587.199,128.541
586.87,138.208
586.542,140.625
586.213,141.592
585.885,140.625
585.557,139.175
585.258,134.825
584.93,129.991
584.601,123.707
584.273,116.456
583.945,108.722
583.615,94.2199
583.287,88.4192
582.958,83.5853
582.63,81.1684
582.302,81.1684
581.955,78.7514
581.626,77.7847
581.298,77.3012
580.969,77.3012
580.641,76.3345
580.312,76.3345
579.983,75.3677
579.655,75.3677
579.326,75.3677
578.998,75.3677
578.651,74.8843
578.323,74.8843
577.994,73.9175
577.666,73.9175
577.337,73.9175
577.008,73.9175
576.68,73.9175
576.351,73.9175
576.023,73.9175
575.694,72.9507
575.396,73.9175
575.068,73.9175
574.739,73.9175
574.411,73.9175
574.082,73.9175
573.753,74.8843
573.425,75.3677
573.096,77.7847
572.768,78.7514
572.44,80.2016
572.092,80.2016
571.764,81.1684
571.436,82.1352
571.107,83.1019
570.779,83.1019
570.45,83.5853
570.121,83.5853
569.793,84.5521
569.464,84.5521
569.136,85.5189
568.789,86.0023
568.461,86.9691
568.132,87.9358
567.804,89.386
567.475,89.386
567.146,90.3528
566.818,90.3528
566.489,90.8362
566.161,90.8362
565.832,90.8362
565.534,90.3528
565.206,90.3528
564.877,88.4192
564.549,87.9358
564.22,87.9358
563.891,86.9691
563.563,87.9358
563.234,88.4192
562.906,89.386
562.577,91.8029
562.23,92.7697
561.902,92.7697
561.574,92.7697
561.245,93.2531
560.917,94.2199
560.588,95.1867
560.259,94.2199
559.931,94.2199
559.602,95.1867
559.274,96.6368
558.975,98.087
558.647,100.021
558.319,100.987
557.99,101.471
557.662,102.438
557.333,103.888
557.004,104.854
556.676,105.821
556.347,107.271
556.019,109.688
555.672,111.139
555.344,113.072
555.015,115.489
554.687,116.939
554.358,120.323
554.029,123.707
553.701,127.574
553.372,131.924
553.044,136.758
552.715,144.009
552.368,153.677
552.04,160.928
551.712,166.728
551.383,173.012
551.055,184.614
550.725,196.215
550.397,207.333
550.069,220.385
549.74,227.636
549.412,236.82
549.113,239.237
548.785,241.654
548.457,246.488
548.128,251.322
547.8,257.122
547.47,261.956
547.142,265.823
546.814,268.24
546.485,273.074
546.157,280.808
545.81,306.428
545.481,317.063
545.153,327.697
544.825,346.549
544.496,362.018
544.167,388.121
543.839,414.707
543.51,440.81
543.182,466.914
542.853,476.581
542.555,481.415
542.226,482.382
541.898,481.415
541.57,478.515
541.241,469.33
540.912,459.663
540.583,449.995
540.255,442.744
539.927,442.744
539.598,441.777
539.251,440.81
538.923,438.393
538.594,436.943
538.266,396.339
537.938,339.299
537.608,319.48
537.28,290.96
536.952,280.808
536.623,270.174
536.295,258.572
535.948,245.038
535.619,207.333
535.291,190.414
534.963,179.78
534.634,166.728
534.305,161.894
533.976,156.094
533.648,152.227
533.32,147.393
532.991,144.492
532.693,142.076
532.364,140.625
532.036,139.659
531.708,139.175
531.379,138.208
531.05,138.208
530.721,137.242
530.393,137.242
530.065,137.242
529.736,137.242
529.389,137.242
529.061,137.242
528.732,137.242
528.404,137.242
528.076,137.242
527.746,138.208
527.418,138.208
527.089,138.208
526.761,138.208
526.433,138.208
526.134,138.208
525.806,138.208
525.477,138.208
525.149,138.208
524.821,139.175
524.491,139.659
524.163,140.625
523.834,142.076
523.506,152.227
523.178,161.894
522.831,168.179
522.502,175.429
522.174,229.569
521.845,283.225
521.517,305.945
521.188,328.664
520.859,383.77
520.531,440.327
520.203,457.246
519.874,475.131
519.527,496.4
519.199,503.651
518.87,504.618
518.542,504.618
518.214,503.651
517.884,499.301
517.556,493.983
517.227,475.131
516.899,392.955
516.571,385.704
516.272,365.885
515.944,355.25
515.615,349.933
515.287,345.099
514.959,342.682
514.629,338.332
514.301,333.498
513.972,332.048
513.644,332.048
513.316,333.498
512.969,333.498
512.64,335.915
512.312,342.682
511.983,350.417
511.655,363.468
511.326,374.103
510.997,376.036
510.669,376.52
510.34,376.52
510.012,376.036
509.714,371.686
509.385,367.819
509.057,359.601
508.728,354.767
508.4,345.583
508.071,334.465
507.742,326.247
507.414,318.996
507.086,314.162
506.757,310.779
506.41,309.812
506.082,310.779
505.753,311.745
505.425,312.229
505.096,345.099
504.767,372.652
504.439,383.77
504.11,395.372
503.782,427.276
503.454,433.56
503.107,440.327
502.778,447.578
502.45,448.061
502.121,446.611
501.793,437.91
501.464,431.143
501.135,426.309
500.807,422.925
500.478,383.77
500.15,335.915
499.852,326.247
499.523,312.229
499.195,289.509
498.866,278.875
498.538,267.757
498.209,255.189
497.88,252.288
497.552,247.454
497.223,237.303
496.895,235.853
496.548,234.886
496.22,235.853
495.891,242.137
495.563,248.905
495.234,268.24
494.905,304.978
494.577,323.83
494.248,343.166
493.92,370.719
493.591,384.737
493.293,399.239
492.965,433.56
492.636,440.81
492.308,446.611
491.979,453.379
491.65,453.862
491.322,452.412
490.993,449.028
490.665,434.526
490.336,412.29
489.99,395.372
489.661,382.32
489.333,350.417
489.004,335.915
488.676,332.531
488.347,327.214
488.018,326.247
487.69,321.897
487.361,319.48
487.033,318.029
486.686,316.579
486.358,315.612
486.029,314.162
485.701,314.162
485.372,314.162
485.043,313.196
484.715,313.196
484.386,312.229
484.058,310.779
483.729,301.111
483.431,297.727
483.103,288.543
482.774,285.642
482.446,281.292
482.117,278.875
481.788,275.491
481.46,275.008
481.131,273.074
480.803,267.757
480.474,264.373
480.127,260.989
479.799,255.189
479.471,252.288
479.142,245.038
478.814,224.252
478.484,215.551
478.156,212.167
477.828,208.3
477.499,206.366
477.171,190.898
476.872,186.064
476.544,181.23
476.216,176.396
475.887,166.728
475.559,164.311
475.229,161.894
474.901,159.478
474.573,158.511
474.244,157.544
473.916,157.061
473.569,157.544
473.24,160.928
472.912,165.762
472.584,170.112
472.255,173.979
471.926,186.064
471.598,203.949
471.269,219.418
470.941,253.739
470.612,288.059
470.265,320.446
469.937,352.833
469.609,365.402
469.28,370.719
468.952,375.069
468.622,376.036
468.294,375.069
467.966,371.686
467.637,368.302
467.309,361.051
467.01,356.217
466.682,350.417
466.354,344.132
466.025,337.365
465.697,332.531
465.367,330.114
465.039,329.631
464.711,328.664
464.382,327.697
464.054,325.28
463.707,320.446
463.378,314.162
463.05,299.177
462.722,299.177
462.393,297.727
462.064,298.694
461.735,309.328
461.407,319.48
461.079,331.081
460.75,349.933
460.452,363.468
460.123,378.453
459.795,386.187
459.467,395.372
459.138,414.707
458.809,428.726
458.48,441.777
458.152,455.796
457.824,473.681
457.495,483.349
457.148,489.633
456.82,494.467
456.491,501.234
456.163,507.518
455.835,509.935
455.505,511.869
455.177,512.352
454.849,513.319
454.52,513.319
454.192,514.286
453.845,514.286
453.516,514.286
453.188,514.286
452.859,514.286
452.531,514.286
452.202,514.286
451.873,514.286
451.545,513.319
451.217,513.319
450.888,513.319
450.59,512.352
450.261,512.352
449.933,511.869
449.604,511.869
449.276,509.935
448.947,505.101
448.618,501.234
448.29,500.267
447.962,477.548
447.633,467.88
447.286,459.663
446.958,450.478
446.629,437.91
446.301,432.593
445.973,426.309
445.643,417.124
445.315,406.973
444.986,401.172
444.658,397.789
444.33,394.405
444.031,389.571
443.703,384.737
443.374,374.103
443.046,370.719
442.718,366.852
442.388,359.601
442.06,354.767
441.731,351.383
441.403,347.516
441.075,342.682
440.728,335.915
440.399,325.28
440.071,322.863
439.742,321.413
439.414,317.063
439.085,314.646
438.756,314.162
438.428,311.745
438.1,294.343
437.771,289.509
437.424,283.709
437.096,278.391
436.767,275.008
436.439,271.624
436.11,268.24
435.781,263.406
435.453,257.606
435.124,254.705
434.796,250.355
434.468,245.521
434.169,241.654
433.841,235.853
433.512,233.436
433.184,231.019
432.855,229.569
432.526,228.602
432.198,228.602
431.869,229.569
431.541,237.303
431.213,279.842
430.866,322.863
430.537,365.885
430.209,388.121
429.88,409.873
429.552,409.873
429.223,396.339
428.894,381.354
428.566,352.833
428.237,338.332
427.909,323.83
427.611,296.76
427.282,275.491
426.954,260.989
426.625,251.322
426.297,244.071
425.968,232.469
425.639,225.219
425.311,220.385
424.982,215.551
424.654,210.717
424.307,206.366
423.979,202.499
423.65,199.116
423.322,196.215
422.993,193.315
422.664,190.898
422.336,189.448
422.007,188.481
421.679,187.998
421.35,187.031
421.003,186.064
420.675,185.581
420.347,184.614
420.018,184.614
419.69,184.614
419.361,184.614
419.032,184.614
418.704,185.581
418.375,186.064
418.047,190.898
417.749,199.116
417.42,208.3
417.092,220.385
416.763,236.82
416.435,246.488
416.106,257.122
415.777,270.657
415.449,272.591
415.12,275.008
414.792,278.875
414.445,278.875
414.117,277.425
413.788,275.008
413.46,270.657
413.131,263.406
412.802,260.506
412.474,256.155
412.145,251.322
411.817,247.938
411.488,243.104
411.19,236.82
410.862,235.853
410.533,234.886
410.205,234.886
409.876,235.853
409.547,238.27
409.219,243.104
408.89,247.938
408.562,258.572
408.233,264.373
407.886,265.34
407.558,264.373
407.23,264.373
406.901,260.989
406.573,260.506
406.243,252.288
405.915,232.469
405.587,224.252
405.258,217.968
404.93,216.518
404.583,203.949
404.254,203.466
403.926,200.082
403.598,198.632
403.269,193.315
402.94,188.481
402.612,187.031
402.283,181.23
401.955,177.363
401.626,173.012
401.328,166.728
401,162.378
400.671,159.961
400.343,157.061
400.014,154.644
399.685,153.677
399.357,152.227
399.028,149.81
398.7,147.876
398.371,146.426
398.024,144.492
397.696,144.009
397.368,143.042
397.039,142.076
396.711,141.592
396.381,140.625
396.053,139.659
395.725,139.175
395.396,138.208
395.068,137.242
394.769,136.758
394.441,135.791
394.113,134.825
393.784,134.341
393.456,132.408
393.126,131.924
392.798,130.958
392.47,130.958
392.141,129.991
391.813,129.991
391.466,129.991
391.137,129.991
390.809,129.991
390.481,129.991
390.152,129.991
389.823,129.991
389.495,129.991
389.166,129.991
388.838,129.991
388.509,129.024
388.162,129.024
387.834,129.024
387.505,129.024
387.177,129.024
386.849,129.024
386.519,129.024
386.191,129.024
385.863,128.541
385.534,128.541
385.206,127.574
384.907,127.574
384.579,126.607
384.251,126.607
383.922,126.607
383.594,126.607
383.264,126.607
382.936,126.124
382.608,126.124
382.279,125.157
381.951,125.157
381.604,125.157
381.275,124.19
380.947,122.74
380.619,121.773
380.29,121.29
379.961,121.29
379.632,120.323
379.304,119.356
378.976,119.356
378.647,118.873
378.349,118.873
378.02,118.873
377.692,117.906
377.364,117.906
377.035,117.906
376.706,117.906
376.377,116.939
376.049,116.939
375.721,116.939
375.392,116.939
375.045,116.456
374.717,116.456
374.388,116.456
374.06,115.489
373.732,115.489
373.402,115.489
373.074,115.489
372.745,116.456
372.417,116.456
372.089,116.939
371.742,118.873
371.413,119.356
371.085,121.29
370.756,127.574
370.428,129.991
370.099,146.426
369.77,159.961
369.442,160.928
369.114,171.562
368.785,177.363
368.487,183.647
368.158,194.282
367.83,195.248
367.501,193.315
367.173,186.064
366.844,158.511
366.515,152.227
366.187,147.876
365.859,145.459
365.53,141.592
365.183,139.659
364.855,136.758
364.526,134.341
364.198,130.958
363.87,129.024
363.54,126.607
363.212,125.157
362.883,122.74
362.555,121.773
362.227,121.29
361.928,122.74
361.6,123.707
361.271,129.024
360.943,135.791
360.615,157.061
360.285,170.595
359.957,171.562
359.628,172.529
359.3,189.448
358.972,189.448
358.625,179.78
358.296,165.278
357.968,157.544
357.639,148.843
357.311,137.242
356.982,131.924
356.653,121.773
356.325,109.688
355.996,103.404
355.668,101.471
355.321,100.987
354.993,100.987
354.664,100.987
354.336,100.987
354.007,100.987
353.678,100.987
353.35,100.987
353.021,100.987
352.693,100.021
352.365,99.0538
352.066,98.087
351.738,98.087
351.409,98.087
351.081,99.0538
350.752,99.0538
350.423,99.0538
350.095,99.0538
349.766,98.087
349.438,98.087
349.11,97.6036
348.763,97.6036
348.434,97.6036
348.106,95.6701
347.777,95.1867
347.449,94.2199
347.12,93.2531
346.791,92.7697
346.463,93.2531
346.134,93.2531
345.806,94.2199
345.508,93.2531
345.179,93.2531
344.851,92.7697
344.522,92.7697
344.194,92.7697
343.865,92.7697
343.536,91.8029
343.208,91.8029
342.879,91.8029
342.551,92.7697
342.204,93.2531
341.876,93.2531
341.547,94.2199
341.219,94.2199
340.89,95.1867
340.561,95.1867
340.233,95.1867
339.904,95.1867
339.576,95.1867
339.247,95.1867
338.9,95.1867
338.572,95.1867
338.244,95.6701
337.915,95.6701
337.587,95.6701
337.258,95.6701
336.929,96.6368
336.601,96.6368
336.272,96.6368
335.944,97.6036
335.645,98.087
335.317,99.0538
334.989,101.471
334.66,102.438
334.332,103.404
334.003,104.854
333.674,105.821
333.346,105.821
333.017,106.305
332.689,106.305
332.342,105.821
332.014,104.854
331.685,103.404
331.357,101.471
331.028,99.0538
330.699,96.6368
330.371,96.6368
330.042,97.6036
329.714,97.6036
329.385,97.6036
329.038,96.6368
328.71,96.6368
328.382,95.6701
328.053,95.6701
327.725,95.1867
327.395,95.1867
327.067,95.1867
326.739,95.1867
326.41,95.1867
326.082,95.1867
325.783,94.2199
325.455,94.2199
325.127,95.1867
324.798,95.1867
324.47,95.1867
324.141,95.1867
323.812,95.6701
323.484,95.6701
323.155,96.6368
322.827,97.6036
322.48,98.087
322.151,98.087
321.823,98.087
321.495,98.087
321.166,98.087
320.837,97.6036
320.509,96.6368
320.18,95.6701
319.852,95.1867
319.523,94.2199
319.225,94.2199
318.896,93.2531
318.568,93.2531
318.24,93.2531
317.911,94.2199
317.582,94.2199
317.254,94.2199
316.925,94.2199
316.597,93.2531
316.268,93.2531
315.921,92.7697
315.593,91.8029
315.265,91.8029
314.936,90.8362
314.608,91.8029
314.278,91.8029
313.95,91.8029
313.622,91.8029
313.293,91.8029
312.965,91.8029
312.618,90.8362
312.289,90.8362
311.961,90.8362
311.633,91.8029
311.304,91.8029
310.975,91.8029
310.646,92.7697
310.318,92.7697
309.99,92.7697
309.661,93.2531
309.363,93.2531
309.034,93.2531
308.706,93.2531
308.378,93.2531
308.049,94.2199
307.72,94.2199
307.391,94.2199
307.063,95.1867
306.735,95.1867
306.406,95.6701
306.059,95.6701
305.731,95.6701
305.402,95.6701
305.074,95.1867
304.746,95.1867
304.416,94.2199
304.088,94.2199
303.759,95.1867
303.431,95.6701
303.103,96.6368
302.804,96.6368
302.476,96.6368
302.147,96.6368
301.819,96.6368
301.491,96.6368
301.161,96.6368
300.833,96.6368
300.505,96.6368
300.176,96.6368
299.848,96.6368
299.501,96.6368
299.172,95.6701
298.844,95.6701
298.516,95.6701
298.187,95.6701
297.858,95.6701
297.529,95.6701
297.201,95.6701
296.873,95.6701
296.544,95.6701
296.197,95.6701
295.869,95.6701
295.54,95.6701
295.212,96.6368
294.884,96.6368
294.554,96.6368
294.226,95.6701
293.897,96.6368
293.569,96.6368
293.241,96.6368
292.942,96.6368
292.614,96.6368
292.285,96.6368
291.957,96.6368
291.629,97.6036
291.299,97.6036
290.971,97.6036
290.642,97.6036
290.314,97.6036
289.986,97.6036
289.639,97.6036
289.31,97.6036
288.982,97.6036
288.653,98.087
288.325,99.0538
287.996,100.021
287.667,100.021
287.339,100.021
287.01,100.021
286.682,100.021
286.384,100.021
286.055,100.021
285.727,100.021
285.398,100.987
285.07,100.987
284.741,100.987
284.412,100.987
284.084,101.471
283.756,100.987
283.427,101.471
283.08,101.471
282.752,101.471
282.423,101.471
282.095,102.438
281.766,101.471
281.437,101.471
281.109,101.471
280.78,101.471
280.452,102.438
280.124,102.438
279.777,102.438
279.448,102.438
279.12,103.404
278.791,103.404
278.463,103.404
278.134,103.888
277.805,104.854
277.477,105.821
277.148,106.305
276.82,107.271
276.522,109.688
276.193,110.655
275.865,111.139
275.536,113.556
275.208,114.522
274.879,116.456
274.55,117.906
274.222,121.773
273.893,122.74
273.565,124.19
273.218,127.574
272.89,128.541
272.561,129.991
272.233,130.958
271.904,133.374
271.575,135.791
271.247,137.242
270.918,139.175
270.59,141.592
270.261,143.042
269.963,144.492
269.635,147.393
269.306,148.843
268.978,152.227
268.649,153.677
268.32,155.127
267.992,158.511
267.663,160.928
267.335,162.378
267.007,165.762
266.659,169.145
266.331,170.595
266.003,172.529
265.674,176.396
265.346,177.363
265.017,178.813
264.688,183.164
264.36,191.865
264.031,197.665
263.703,206.366
263.356,210.717
263.028,214.101
262.699,217.968
262.371,221.351
262.042,230.052
261.713,243.104
261.385,257.122
261.056,279.842
260.728,294.343
260.399,303.528
260.101,313.196
259.773,327.697
259.444,348.966
259.116,367.819
258.787,377.486
258.458,387.154
258.13,405.04
257.801,422.925
257.473,432.109
257.144,440.81
256.797,448.061
256.469,455.796
256.141,466.914
255.812,475.131
255.484,478.515
255.155,484.799
254.826,490.6
254.498,497.85
254.169,501.234
253.841,503.651
253.542,505.101
253.214,508.485
252.886,509.452
252.557,509.935
252.229,510.902
251.9,510.902
251.571,510.902
251.243,510.902
250.914,511.869
250.586,511.869
250.239,511.869
249.91,511.869
249.582,511.869
249.254,511.869
248.925,510.902
248.596,510.902
248.268,509.935
247.939,509.452
247.611,507.518
247.282,507.035
246.935,503.651
246.607,501.234
246.279,498.817
245.95,493.983
245.622,490.6
245.292,484.799
244.964,474.164
244.636,465.947
244.307,457.246
243.979,451.445
243.68,449.028
243.352,444.194
243.024,443.227
242.695,442.744
242.367,442.744
242.037,441.777
241.709,440.81
241.381,439.36
241.052,437.91
240.724,434.526
240.377,424.859
240.048,409.39
239.72,401.656
239.392,389.088
239.063,369.269
238.734,337.365
238.406,332.531
238.077,321.413
237.749,318.996
237.42,280.808
237.122,271.624
236.793,256.155
236.465,244.071
236.137,229.569
235.808,221.351
235.479,215.551
235.151,207.333
234.822,199.116
234.494,191.865
234.165,183.647
233.818,177.363
233.49,166.728
233.162,162.378
232.833,159.961
232.505,157.544
232.175,154.644
231.847,154.644
231.519,152.71
231.19,150.293
230.862,148.843
230.515,147.393
230.186,145.459
229.858,144.492
229.53,143.042
229.201,141.592
228.872,139.659
228.543,139.175
228.215,138.208
227.887,137.242
227.558,136.758
227.26,135.791
226.931,135.791
226.603,134.825
226.275,133.374
225.946,132.408
225.617,131.924
225.288,131.924
224.96,129.991
224.632,129.024
224.303,129.024
223.956,128.541
223.628,128.541
223.299,127.574
222.971,126.607
222.643,126.607
222.313,126.124
221.985,125.157
221.656,125.157
221.328,125.157
221,125.157
220.701,124.19
220.373,124.19
220.044,124.19
219.716,123.707
219.388,122.74
219.058,122.74
218.73,121.773
218.401,121.773
218.073,121.773
217.745,121.773
217.398,121.773
217.069,121.773
216.741,121.29
216.413,121.29
216.084,121.29
215.755,121.29
215.426,121.29
215.098,120.323
214.77,119.356
214.441,120.323
214.094,120.323
213.766,120.323
213.437,120.323
213.109,120.323
212.781,120.323
212.451,120.323
212.123,120.323
211.794,119.356
211.466,119.356
211.138,118.873
210.839,118.873
210.511,118.873
210.182,118.873
209.854,118.873
209.526,118.873
209.196,118.873
208.868,118.873
208.539,119.356
208.211,119.356
207.883,120.323
207.536,120.323
207.207,120.323
206.879,120.323
206.55,120.323
206.222,120.323
205.893,120.323
205.564,121.29
205.236,120.323
204.907,120.323
204.579,121.29
204.281,121.29
203.952,121.773
203.624,122.74
203.295,123.707
202.967,123.707
202.638,123.707
202.309,123.707
201.981,124.19
201.652,124.19
201.324,124.19
200.977,124.19
200.649,124.19
200.32,124.19
199.992,124.19
199.663,124.19
199.334,124.19
199.006,124.19
198.677,124.19
198.349,124.19
198.021,124.19
197.674,124.19
197.345,124.19
197.017,124.19
196.688,124.19
196.36,124.19
196.031,125.157
195.702,126.124
195.374,126.124
195.045,126.124
194.717,126.124
194.419,126.124
194.09,126.124
193.762,126.607
193.433,126.607
193.105,126.607
192.776,126.607
192.447,126.607
192.119,126.607
191.79,126.607
191.462,126.607
191.115,126.607
190.787,126.607
190.458,126.607
190.13,126.607
189.801,126.607
189.472,127.574
189.144,127.574
188.815,127.574
188.487,128.541
188.158,128.541
187.86,128.541
187.532,128.541
187.203,128.541
186.875,128.541
186.546,128.541
186.217,128.541
185.889,129.024
185.56,129.991
185.232,129.024
184.903,129.991
184.556,129.991
184.228,129.991
183.9,129.991
183.571,130.958
183.243,130.958
182.914,129.991
182.585,129.991
182.257,130.958
181.928,130.958
181.6,130.958
181.253,130.958
180.925,130.958
180.596,132.408
180.268,132.408
179.939,133.374
179.61,133.374
179.282,134.341
178.953,134.341
178.625,134.825
178.296,134.825
177.998,135.791
177.67,135.791
177.341,136.758
177.013,136.758
176.684,137.242
176.355,137.242
176.027,137.242
175.698,137.242
175.37,137.242
175.041,137.242
174.694,137.242
174.366,138.208
174.038,138.208
173.709,138.208
173.381,138.208
173.051,138.208
172.723,137.242
172.395,138.208
172.066,138.208
171.738,138.208
171.439,138.208
171.111,139.175
170.783,139.175
170.454,139.175
170.126,139.175
169.797,139.175
169.468,139.659
169.14,139.659
168.811,139.659
168.483,139.659
168.136,139.659
167.807,140.625
167.479,140.625
167.151,140.625
166.822,141.592
166.493,141.592
166.165,142.076
165.836,143.042
165.508,143.042
165.179,143.042
164.832,144.009
164.504,144.492
164.176,144.492
163.847,145.459
163.519,145.459
163.189,146.426
162.861,146.426
162.533,147.393
162.204,147.393
161.876,147.876
161.577,147.876
161.249,148.843
160.921,150.293
160.592,151.26
160.264,152.71
159.934,154.644
159.606,157.544
159.278,159.478
158.949,160.928
158.621,164.311
158.274,166.728
157.945,169.145
157.617,170.595
157.289,172.529
156.96,174.946
156.631,177.363
156.302,177.846
155.974,178.813
155.646,181.23
155.317,182.197
155.019,183.164
154.69,183.647
154.362,184.614
154.034,185.581
153.705,186.064
153.376,187.031
153.047,187.031
152.719,187.998
152.391,187.998
152.062,187.998
151.715,187.998
151.387,187.998
151.058,187.998
150.73,187.998
150.402,187.031
150.072,186.064
149.744,184.614
149.415,183.647
149.087,180.747
148.759,179.78
148.412,177.846
148.083,175.429
147.755,173.979
147.427,173.012
147.098,170.595
146.769,170.112
146.44,168.179
146.112,167.695
145.784,166.728
145.455,166.728
145.157,165.762
144.828,165.278
144.5,165.278
144.172,164.311
143.843,164.311
143.514,164.311
143.185,164.311
142.857,163.345
142.529,163.345
142.2,163.345
141.853,163.345
141.525,164.311
141.196,164.311
140.868,164.311
140.54,164.311
140.21,164.311
139.882,164.311
139.553,164.311
139.225,164.311
138.897,164.311
138.598,163.345
138.27,163.345
137.941,163.345
137.613,163.345
137.285,163.345
136.955,163.345
136.627,163.345
136.298,163.345
135.97,163.345
135.642,163.345
135.295,163.345
134.966,163.345
134.638,163.345
134.309,163.345
133.981,164.311
133.652,165.278
133.323,165.278
132.995,165.278
132.666,165.762
132.338,165.762
131.991,166.728
131.663,167.695
131.334,167.695
131.006,168.179
130.677,168.179
130.348,169.145
130.02,169.145
129.691,169.145
129.363,169.145
129.035,169.145
128.736,169.145
128.408,170.112
128.079,170.112
127.751,170.112
127.423,170.595
127.093,170.595
126.765,171.562
126.436,171.562
126.108,172.529
125.78,173.012
125.433,173.012
125.104,174.946
124.776,177.363
124.447,177.846
124.119,177.846
123.79,181.23
123.461,182.197
123.133,183.647
122.804,185.581
122.476,186.064
122.178,187.031
121.849,187.031
121.521,187.998
121.192,187.998
120.864,187.998
120.535,188.481
120.206,188.481
119.878,188.481
119.549,188.481
119.221,189.448
118.874,189.448
118.546,189.448
118.217,189.448
117.889,189.448
117.56,189.448
117.231,189.448
116.903,189.448
116.574,189.448
116.246,189.448
115.917,189.448
115.57,189.448
115.242,189.448
114.914,188.481
114.585,189.448
114.257,189.448
113.928,189.448
113.599,189.448
113.271,189.448
112.942,189.448
112.614,189.448
112.316,189.448
111.987,188.481
111.659,188.481
111.33,188.481
111.002,187.998
110.673,187.998
110.344,187.998
110.016,187.998
109.687,187.998
109.359,187.998
109.012,187.998
108.684,187.998
108.355,187.998
108.027,187.998
107.698,188.481
107.369,188.481
107.041,188.481
106.712,189.448
106.384,190.414
106.055,190.898
105.757,190.898
105.429,191.865
105.1,191.865
104.772,192.831
104.443,192.831
104.114,192.831
103.786,193.315
103.457,193.315
103.129,194.282
102.8,194.282
102.453,194.282
102.125,194.282
101.797,194.282
101.468,194.282
101.14,194.282
100.811,195.248
100.482,195.248
100.154,195.248
99.8253,195.248
99.4969,196.215
99.1499,196.215
98.8215,196.215
98.4931,196.699
98.1647,196.699
97.8363,197.665
97.507,198.632
97.1785,199.116
96.8501,201.049
96.5217,201.049
96.1934,197.665
95.8949,198.632
95.5665,199.116
95.2381,201.049" />
</g>
</svg>
