<?xml version="1.0"?>
<svg version="1.1"
     xmlns="http://www.w3.org/2000/svg"
     xmlns:xlink="http://www.w3.org/1999/xlink"
     viewBox="0 0 800 600">
<g>
<text fill="#000000" font-family="sans-serif" font-size="19.0476" text-anchor="start" x="4.7619" y="591.429" >
NIST Chemistry WebBook (https://webbook.nist.gov/chemistry)
</text>
<polyline stroke="#000000" stroke-width="1.19048" fill="none" points="95.2381,514.286
742.857,514.286
742.857,66.6667
95.2381,66.6667
95.2381,514.286" />
<text fill="#000000" font-family="sans-serif" font-size="19.0476" text-anchor="middle" x="419.048" y="24.7619" >
Alpha-BENZIL MONOXIME
</text>
<text fill="#000000" font-family="sans-serif" font-size="19.0476" text-anchor="middle" x="419.048" y="53.3333" >
INFRARED SPECTRUM
</text>
<text fill="#000000" font-family="sans-serif" font-size="19.0476" text-anchor="middle" x="419.048" y="558.095" >
Wavenumber (cm-1)
</text>
<text fill="#000000" font-family="sans-serif" font-size="19.0476" text-anchor="middle" transform="translate(20,290.476) rotate(270)" x="0" y="0" >
Percent Transmission (Transmitance)
</text>
<text fill="#000000" font-family="sans-serif" font-size="19.0476" text-anchor="middle" x="628.258" y="534.286" >
1000
</text>
<line stroke="#000000" stroke-width="1.19048" x1="628.258" y1="514.286" x2="628.258" y2="504.762" />
<text fill="#000000" font-family="sans-serif" font-size="19.0476" text-anchor="middle" x="437.894" y="534.286" >
2000
</text>
<line stroke="#000000" stroke-width="1.19048" x1="437.894" y1="514.286" x2="437.894" y2="504.762" />
<text fill="#000000" font-family="sans-serif" font-size="19.0476" text-anchor="middle" x="247.529" y="534.286" >
3000
</text>
<line stroke="#000000" stroke-width="1.19048" x1="247.529" y1="514.286" x2="247.529" y2="504.762" />
<line stroke="#000000" stroke-width="1.19048" x1="742.476" y1="514.286" x2="742.476" y2="509.524" />
<line stroke="#000000" stroke-width="1.19048" x1="723.44" y1="514.286" x2="723.44" y2="509.524" />
<line stroke="#000000" stroke-width="1.19048" x1="704.404" y1="514.286" x2="704.404" y2="509.524" />
<line stroke="#000000" stroke-width="1.19048" x1="685.367" y1="514.286" x2="685.367" y2="509.524" />
<line stroke="#000000" stroke-width="1.19048" x1="666.331" y1="514.286" x2="666.331" y2="509.524" />
<line stroke="#000000" stroke-width="1.19048" x1="647.294" y1="514.286" x2="647.294" y2="509.524" />
<line stroke="#000000" stroke-width="1.19048" x1="628.258" y1="514.286" x2="628.258" y2="509.524" />
<line stroke="#000000" stroke-width="1.19048" x1="609.221" y1="514.286" x2="609.221" y2="509.524" />
<line stroke="#000000" stroke-width="1.19048" x1="590.185" y1="514.286" x2="590.185" y2="509.524" />
<line stroke="#000000" stroke-width="1.19048" x1="571.149" y1="514.286" x2="571.149" y2="509.524" />
<line stroke="#000000" stroke-width="1.19048" x1="552.112" y1="514.286" x2="552.112" y2="509.524" />
<line stroke="#000000" stroke-width="1.19048" x1="533.076" y1="514.286" x2="533.076" y2="509.524" />
<line stroke="#000000" stroke-width="1.19048" x1="514.039" y1="514.286" x2="514.039" y2="509.524" />
<line stroke="#000000" stroke-width="1.19048" x1="495.003" y1="514.286" x2="495.003" y2="509.524" />
<line stroke="#000000" stroke-width="1.19048" x1="475.966" y1="514.286" x2="475.966" y2="509.524" />
<line stroke="#000000" stroke-width="1.19048" x1="456.93" y1="514.286" x2="456.93" y2="509.524" />
<line stroke="#000000" stroke-width="1.19048" x1="437.894" y1="514.286" x2="437.894" y2="509.524" />
<line stroke="#000000" stroke-width="1.19048" x1="418.857" y1="514.286" x2="418.857" y2="509.524" />
<line stroke="#000000" stroke-width="1.19048" x1="399.821" y1="514.286" x2="399.821" y2="509.524" />
<line stroke="#000000" stroke-width="1.19048" x1="380.784" y1="514.286" x2="380.784" y2="509.524" />
<line stroke="#000000" stroke-width="1.19048" x1="361.748" y1="514.286" x2="361.748" y2="509.524" />
<line stroke="#000000" stroke-width="1.19048" x1="342.712" y1="514.286" x2="342.712" y2="509.524" />
<line stroke="#000000" stroke-width="1.19048" x1="323.675" y1="514.286" x2="323.675" y2="509.524" />
<line stroke="#000000" stroke-width="1.19048" x1="304.639" y1="514.286" x2="304.639" y2="509.524" />
<line stroke="#000000" stroke-width="1.19048" x1="285.602" y1="514.286" x2="285.602" y2="509.524" />
<line stroke="#000000" stroke-width="1.19048" x1="266.566" y1="514.286" x2="266.566" y2="509.524" />
<line stroke="#000000" stroke-width="1.19048" x1="247.529" y1="514.286" x2="247.529" y2="509.524" />
<line stroke="#000000" stroke-width="1.19048" x1="228.493" y1="514.286" x2="228.493" y2="509.524" />
<line stroke="#000000" stroke-width="1.19048" x1="209.457" y1="514.286" x2="209.457" y2="509.524" />
<line stroke="#000000" stroke-width="1.19048" x1="190.42" y1="514.286" x2="190.42" y2="509.524" />
<line stroke="#000000" stroke-width="1.19048" x1="171.384" y1="514.286" x2="171.384" y2="509.524" />
<line stroke="#000000" stroke-width="1.19048" x1="152.347" y1="514.286" x2="152.347" y2="509.524" />
<line stroke="#000000" stroke-width="1.19048" x1="133.311" y1="514.286" x2="133.311" y2="509.524" />
<line stroke="#000000" stroke-width="1.19048" x1="114.275" y1="514.286" x2="114.275" y2="509.524" />
<line stroke="#000000" stroke-width="1.19048" x1="95.2381" y1="514.286" x2="95.2381" y2="509.524" />
<text fill="#000000" font-family="sans-serif" font-size="19.0476" text-anchor="end" x="90.4762" y="437.394" >
0.2
</text>
<line stroke="#000000" stroke-width="1.19048" x1="95.2381" y1="433.108" x2="104.762" y2="433.108" />
<text fill="#000000" font-family="sans-serif" font-size="19.0476" text-anchor="end" x="90.4762" y="331.21" >
0.4
</text>
<line stroke="#000000" stroke-width="1.19048" x1="95.2381" y1="326.924" x2="104.762" y2="326.924" />
<text fill="#000000" font-family="sans-serif" font-size="19.0476" text-anchor="end" x="90.4762" y="225.026" >
0.6
</text>
<line stroke="#000000" stroke-width="1.19048" x1="95.2381" y1="220.74" x2="104.762" y2="220.74" />
<text fill="#000000" font-family="sans-serif" font-size="19.0476" text-anchor="end" x="90.4762" y="118.841" >
0.8
</text>
<line stroke="#000000" stroke-width="1.19048" x1="95.2381" y1="114.556" x2="104.762" y2="114.556" />
<line stroke="#000000" stroke-width="1.19048" x1="95.2381" y1="512.746" x2="100" y2="512.746" />
<line stroke="#000000" stroke-width="1.19048" x1="95.2381" y1="486.2" x2="100" y2="486.2" />
<line stroke="#000000" stroke-width="1.19048" x1="95.2381" y1="459.654" x2="100" y2="459.654" />
<line stroke="#000000" stroke-width="1.19048" x1="95.2381" y1="433.108" x2="100" y2="433.108" />
<line stroke="#000000" stroke-width="1.19048" x1="95.2381" y1="406.562" x2="100" y2="406.562" />
<line stroke="#000000" stroke-width="1.19048" x1="95.2381" y1="380.016" x2="100" y2="380.016" />
<line stroke="#000000" stroke-width="1.19048" x1="95.2381" y1="353.47" x2="100" y2="353.47" />
<line stroke="#000000" stroke-width="1.19048" x1="95.2381" y1="326.924" x2="100" y2="326.924" />
<line stroke="#000000" stroke-width="1.19048" x1="95.2381" y1="300.378" x2="100" y2="300.378" />
<line stroke="#000000" stroke-width="1.19048" x1="95.2381" y1="273.832" x2="100" y2="273.832" />
<line stroke="#000000" stroke-width="1.19048" x1="95.2381" y1="247.286" x2="100" y2="247.286" />
<line stroke="#000000" stroke-width="1.19048" x1="95.2381" y1="220.74" x2="100" y2="220.74" />
<line stroke="#000000" stroke-width="1.19048" x1="95.2381" y1="194.194" x2="100" y2="194.194" />
<line stroke="#000000" stroke-width="1.19048" x1="95.2381" y1="167.648" x2="100" y2="167.648" />
<line stroke="#000000" stroke-width="1.19048" x1="95.2381" y1="141.102" x2="100" y2="141.102" />
<line stroke="#000000" stroke-width="1.19048" x1="95.2381" y1="114.556" x2="100" y2="114.556" />
<line stroke="#000000" stroke-width="1.19048" x1="95.2381" y1="88.0096" x2="100" y2="88.0096" />
<polyline stroke="#FF0000" stroke-width="1.19048" fill="none" points="742.857,149.172
742.667,151.402
742.476,155.384
742.286,158.516
742.096,161.701
741.905,163.719
741.715,165.736
741.525,167.754
741.334,169.718
741.144,171.683
740.953,173.647
740.763,175.612
740.573,177.523
740.382,179.434
740.192,180.337
740.002,180.762
739.811,181.186
739.621,181.611
739.431,182.089
739.24,182.248
739.05,182.301
738.859,180.124
738.669,182.248
738.479,181.823
738.288,181.346
738.098,180.868
737.908,180.337
737.717,179.753
737.527,178.956
737.337,178.213
737.146,177.47
736.956,176.78
736.765,176.036
736.575,175.187
736.385,173.647
736.194,172.214
736.004,170.727
735.814,168.975
735.623,167.117
735.433,165.259
735.243,163.241
735.052,161.224
734.862,159.259
734.671,157.454
734.481,155.649
734.291,153.791
734.1,152.039
733.91,150.552
733.72,149.012
733.529,147.42
733.339,145.88
733.148,144.34
732.958,142.801
732.768,140.73
732.577,138.66
732.387,136.536
732.197,134.625
732.006,133.297
731.816,132.023
731.626,130.696
731.435,129.368
731.245,128.784
731.055,128.466
730.864,128.147
730.674,128.147
730.483,128.147
730.293,128.36
730.103,128.997
729.912,129.528
729.722,129.315
729.532,128.2
729.341,127.192
729.151,127.192
728.961,127.669
728.77,128.2
728.58,128.36
728.389,127.298
728.199,126.077
728.009,124.856
727.818,123.688
727.628,121.564
727.438,119.281
727.247,116.626
727.057,111.37
726.867,103.725
726.676,101.495
726.486,99.3183
726.295,98.2565
726.105,97.407
725.915,96.5576
725.724,95.655
725.534,94.8586
725.344,93.956
725.153,94.1684
724.963,95.2833
724.773,96.1859
724.582,97.1416
724.392,97.991
724.201,98.6281
724.011,98.9998
723.821,99.3714
723.63,96.5576
723.44,88.3283
723.25,85.8329
723.059,84.6649
722.869,84.0278
722.678,83.2845
722.488,82.6474
722.298,82.1165
722.107,81.5856
721.917,81.0016
721.727,80.4706
721.536,79.9397
721.346,79.4088
721.156,78.8248
720.965,78.2939
720.775,77.7629
720.584,77.3382
720.394,76.8604
720.204,76.4356
720.013,76.064
719.823,75.7455
719.633,75.3738
719.442,75.0022
719.252,74.6836
719.062,74.4182
718.871,74.1527
718.681,73.8341
718.49,73.6218
718.3,73.3032
718.11,73.0378
717.919,72.8785
717.729,72.6661
717.539,72.5068
717.348,72.2945
717.158,72.0821
716.968,71.9228
716.777,71.7104
716.587,71.6042
716.396,71.445
716.206,71.3388
716.016,71.1795
715.825,71.1264
715.635,70.9672
715.445,70.8079
715.254,70.6486
715.064,70.5955
714.874,70.3831
714.683,70.2769
714.493,70.1177
714.302,70.0115
714.112,69.8522
713.922,69.6929
713.731,69.5337
713.541,69.3744
713.351,69.2151
713.16,69.0558
712.97,68.8966
712.78,68.9496
712.589,66.6667
712.399,69.3213
712.208,69.4806
712.018,69.6929
711.828,69.8522
711.637,70.0646
711.447,70.33
711.257,71.0202
711.066,71.7104
710.876,72.4537
710.686,73.1439
710.495,73.6218
710.305,73.781
710.114,73.9403
709.924,74.0996
709.734,74.2589
709.543,74.4712
709.353,73.9403
709.163,72.9315
708.972,71.9759
708.782,71.1264
708.592,70.33
708.401,70.0115
708.211,70.0115
708.02,70.0115
707.83,70.0115
707.64,70.0115
707.449,69.9584
707.259,69.9053
707.069,69.9053
706.878,69.9584
706.688,69.9584
706.498,70.0115
706.307,70.0646
706.117,70.1708
705.926,70.2239
705.736,70.5955
705.546,71.0202
705.355,71.4981
705.165,72.3476
704.975,73.2501
704.784,74.0996
704.594,75.0022
704.404,77.9753
704.213,82.382
704.023,86.8948
703.832,91.2483
703.642,95.655
703.452,100.062
703.261,104.468
703.071,106.167
702.881,106.167
702.69,102.132
702.5,94.0091
702.31,85.9391
702.119,79.5681
701.929,76.648
701.738,75.48
701.548,74.3651
701.358,74.4182
701.167,73.9934
700.977,75.2145
700.787,76.3295
700.596,77.4975
700.406,76.9666
700.216,76.2764
700.025,75.7985
699.835,75.48
699.644,75.1083
699.454,74.896
699.264,74.7367
699.073,74.6305
698.883,74.896
698.693,75.2145
698.502,75.6924
698.312,76.1702
698.122,76.648
697.931,77.1258
697.741,77.6568
697.55,78.1346
697.36,78.7186
697.17,79.1964
696.979,79.7274
696.789,80.4175
696.599,81.0547
696.408,81.7448
696.218,82.4351
696.028,83.4438
695.837,84.4525
695.647,85.5144
695.456,86.5231
695.266,87.6381
695.076,89.1777
694.885,90.7174
694.695,92.2571
694.505,93.7968
694.314,95.7081
694.124,97.6725
693.933,99.4776
693.743,101.548
693.553,104.999
693.362,108.132
693.172,111.264
692.982,114.503
692.791,118.962
692.601,123.369
692.411,130.43
692.22,183.628
692.03,214.422
691.839,245.162
691.649,275.956
691.459,306.696
691.268,337.436
691.078,353.842
690.888,352.727
690.697,347.205
690.507,301.174
690.317,255.143
690.126,242.401
689.936,240.012
689.745,237.623
689.555,235.234
689.365,232.845
689.174,230.509
688.984,225.518
688.794,227.536
688.603,229.978
688.413,261.568
688.223,293.157
688.032,324.747
687.842,356.284
687.651,387.874
687.461,419.463
687.271,451.053
687.08,482.643
686.89,507.012
686.7,507.012
686.509,507.224
686.319,507.596
686.129,507.915
685.938,484.342
685.748,452.805
685.557,421.162
685.367,389.573
685.177,358.036
684.986,326.446
684.796,319.332
684.606,320.394
684.415,322.464
684.225,326.765
684.035,331.118
683.844,335.472
683.654,339.825
683.463,344.179
683.273,344.55
683.083,344.55
682.892,336.48
682.702,329.313
682.512,322.146
682.321,314.978
682.131,307.811
681.941,300.643
681.75,296.715
681.56,296.715
681.369,294.432
681.179,312.695
680.989,322.677
680.798,332.605
680.608,342.586
680.418,352.514
680.227,362.496
680.037,372.424
679.847,376.087
679.656,375.769
679.466,300.006
679.275,283.919
679.085,283.123
678.895,252.436
678.704,207.414
678.514,196.795
678.324,186.071
678.133,150.552
677.943,142.429
677.753,137.863
677.562,133.722
677.372,130.059
677.181,126.236
676.991,122.201
676.801,119.281
676.61,117.635
676.42,116.573
676.23,115.405
676.039,114.343
675.849,113.972
675.659,113.547
675.468,113.069
675.278,112.698
675.087,112.06
674.897,110.202
674.707,108.132
674.516,105.955
674.326,104.574
674.136,103.831
673.945,103.831
673.755,103.831
673.565,104.362
673.374,105.689
673.184,107.388
672.993,110.521
672.803,114.343
672.613,122.997
672.422,138.713
672.232,154.375
672.042,170.037
671.851,181.08
671.661,174.656
671.471,155.33
671.28,136.005
671.09,116.786
670.899,107.919
670.709,103.566
670.519,99.2122
670.328,94.7524
670.138,91.7262
669.948,89.337
669.757,87.5319
669.567,85.886
669.377,84.8773
669.186,84.0809
668.996,83.2845
668.805,82.8067
668.615,82.4881
668.425,78.7186
668.234,81.9041
668.044,81.9572
667.854,82.1165
667.663,82.5412
667.473,83.1783
667.283,84.6118
667.092,86.8948
666.902,95.7612
666.711,105.583
666.521,112.273
666.331,112.857
666.14,101.761
665.95,94.3808
665.76,92.4695
665.569,90.3458
665.379,87.9566
665.188,85.4613
664.998,82.4351
664.808,79.6212
664.617,77.3913
664.427,76.064
664.237,75.0022
664.046,74.4712
663.856,73.9403
663.666,73.6749
663.475,73.4625
663.285,73.2501
663.094,72.9846
662.904,72.7723
662.714,72.5599
662.523,72.5599
662.333,72.5599
662.143,72.613
661.952,72.6661
661.762,72.6661
661.572,72.8785
661.381,70.9672
661.191,73.2501
661,73.4625
660.81,73.6749
660.62,74.3651
660.429,75.0552
660.239,75.7455
660.049,76.4887
659.858,77.232
659.668,78.2408
659.478,79.2495
659.287,80.2052
659.097,82.0103
658.906,85.5675
658.716,91.2483
658.526,104.256
658.335,106.857
658.145,106.857
657.955,106.857
657.764,103.088
657.574,99.3714
657.384,95.6019
657.193,90.452
657.003,93.8499
656.812,94.6993
656.622,97.8318
656.432,107.494
656.241,124.219
656.051,141.049
655.861,146.889
655.67,137.651
655.48,121.564
655.29,107.441
655.099,107.972
654.909,106.857
654.718,123.581
654.528,131.333
654.338,137.173
654.147,148.641
653.957,168.603
653.767,188.566
653.576,208.529
653.386,243.676
653.196,280.575
653.005,317.527
652.815,354.426
652.624,391.431
652.434,434.488
652.244,434.913
652.053,435.179
651.863,373.167
651.673,287.53
651.482,201.945
651.292,177.47
651.102,169.187
650.911,156.976
650.721,141.367
650.53,121.989
650.34,113.228
650.15,105.689
649.959,96.7168
649.769,90.8236
649.579,86.5231
649.388,82.7005
649.198,79.1433
649.008,77.8691
648.817,76.648
648.627,75.48
648.436,74.6305
648.246,74.0996
648.056,73.6218
647.865,72.9846
647.675,72.613
647.485,72.3476
647.294,72.029
647.104,71.8166
646.914,71.8166
646.723,71.8166
646.533,71.8166
646.342,71.8697
646.152,72.2414
645.962,72.6661
645.771,73.0378
645.581,73.781
645.391,74.5243
645.2,75.2676
645.01,76.064
644.82,77.0197
644.629,78.0815
644.439,79.1433
644.248,80.3644
644.058,82.3289
643.868,84.2933
643.677,86.2577
643.487,89.2308
643.297,92.4695
643.106,95.7612
642.916,102.026
642.726,114.821
642.535,128.572
642.345,142.27
642.154,155.171
641.964,154.375
641.774,144.818
641.583,134.094
641.393,129.899
641.203,130.59
641.012,123.263
640.822,111.317
640.632,104.84
640.441,101.017
640.251,88.753
640.06,84.6118
639.87,81.3732
639.68,78.931
639.489,78.4532
639.299,78.1346
639.109,77.8691
638.918,77.7629
638.728,79.6743
638.538,77.9222
638.347,78.4532
638.157,78.9841
637.966,79.5681
637.776,80.1521
637.586,80.7361
637.395,81.3732
637.205,81.9041
637.015,82.5943
636.824,83.2845
636.634,83.9216
636.443,85.302
636.253,86.6824
636.063,88.1159
635.872,89.5494
635.682,91.2483
635.492,92.9473
635.301,94.6993
635.111,96.9292
634.921,99.2652
634.73,101.814
634.54,105.105
634.349,108.45
634.159,111.636
633.969,116.042
633.778,123.581
633.588,138.022
633.398,152.41
633.207,166.851
633.017,181.186
632.827,195.574
632.636,201.52
632.446,178.213
632.255,145.455
632.065,115.724
631.875,113.441
631.684,119.653
631.494,125.971
631.304,131.651
631.113,135.952
630.923,140.518
630.733,146.199
630.542,152.676
630.352,158.728
630.161,166.002
629.971,173.753
629.781,181.346
629.59,191.114
629.4,206.139
629.21,219.625
629.019,237.676
628.829,255.727
628.639,273.779
628.448,291.883
628.258,309.934
628.068,315.35
627.877,317.527
627.687,333.932
627.496,357.239
627.306,380.547
627.116,403.801
626.925,427.109
626.735,450.416
626.545,473.67
626.354,496.978
626.164,504.145
625.973,504.304
625.783,503.508
625.593,449.354
625.402,397.536
625.212,345.718
625.022,293.901
624.831,242.083
624.641,225.784
624.451,225.89
624.26,226.261
624.07,226.58
623.879,252.701
623.689,288.007
623.499,295.547
623.308,277.708
623.118,294.219
622.928,230.031
622.737,206.193
622.547,182.407
622.357,140.518
622.166,133.456
621.976,127.245
621.785,123.688
621.595,120.024
621.405,115.352
621.214,108.663
621.024,104.628
620.834,100.592
620.643,97.407
620.453,94.3808
620.263,91.8323
620.072,89.7617
619.882,88.8592
619.691,88.1159
619.501,87.3726
619.311,86.7355
619.12,86.5231
618.93,86.1515
618.74,85.8329
618.549,85.8329
618.359,85.8329
618.169,84.6649
617.978,85.9922
617.788,86.2046
617.597,86.6824
617.407,87.2133
617.217,88.4875
617.026,89.7617
616.836,92.0447
616.646,95.3895
616.455,98.1503
616.265,105.796
616.075,111.158
615.884,117.476
615.694,121.352
615.503,122.997
615.313,123.9
615.123,124.749
614.932,125.599
614.742,126.661
614.552,127.616
614.361,128.625
614.171,130.536
613.981,132.182
613.79,132.713
613.6,132.713
613.409,132.713
613.219,128.572
613.029,120.237
612.838,111.848
612.648,103.513
612.458,96.1859
612.267,91.1422
612.077,89.5494
611.887,89.5494
611.696,89.5494
611.506,89.921
611.315,90.1865
611.125,90.3989
610.935,90.3989
610.744,89.7617
610.554,88.4875
610.364,87.4257
610.173,87.8504
609.983,87.8504
609.793,87.9035
609.602,89.2308
609.412,91.8323
609.221,95.8142
609.031,99.5838
608.841,103.088
608.65,104.999
608.46,107.176
608.27,105.105
608.079,103.672
607.889,97.8849
607.698,91.4076
607.508,85.302
607.318,82.2227
607.127,79.8335
606.937,78.5593
606.747,78.2408
606.556,77.9222
606.366,77.7098
606.176,77.6568
605.985,77.5506
605.795,76.7542
605.604,77.6568
605.414,77.6568
605.224,77.7098
605.033,77.8691
604.843,77.9753
604.653,78.1346
604.462,78.2408
604.272,78.4001
604.082,78.5593
603.891,78.7186
603.701,78.7717
603.51,78.931
603.32,79.0902
603.13,79.2495
602.939,79.4088
602.749,79.515
602.559,79.6743
602.368,79.7805
602.178,79.8866
601.988,79.9928
601.797,80.099
601.607,80.2583
601.417,80.3644
601.226,80.4706
601.036,80.683
600.845,81.1078
600.655,81.4794
600.465,81.9041
600.274,83.0191
600.084,84.134
599.894,85.1958
599.703,86.3108
599.513,87.3726
599.323,88.3813
599.132,89.3901
598.942,89.7617
598.751,89.868
598.561,89.9741
598.371,90.0803
598.18,90.1865
597.99,90.1334
597.8,90.1334
597.609,89.8148
597.419,89.4432
597.229,89.0716
597.038,88.753
596.848,88.3813
596.657,88.2221
596.467,88.0628
596.277,88.0628
596.086,88.0628
595.896,88.169
595.706,88.2752
595.515,88.4875
595.325,88.8592
595.135,89.337
594.944,90.2927
594.754,91.4076
594.563,93.372
594.373,95.2833
594.183,97.5663
593.992,100.168
593.802,100.699
593.612,100.911
593.421,101.177
593.231,101.177
593.04,101.07
592.85,100.964
592.66,100.964
592.469,100.964
592.279,101.123
592.089,101.601
591.898,102.451
591.708,103.459
591.518,104.787
591.327,106.008
591.137,107.176
590.946,109.777
590.756,114.29
590.566,118.113
590.375,123.9
590.185,130.802
589.995,145.455
589.804,161.914
589.614,187.398
589.424,212.988
589.233,238.526
589.043,264.116
588.852,289.653
588.662,315.244
588.472,340.781
588.281,346.143
588.091,347.683
587.901,312.748
587.71,273.885
587.52,235.022
587.33,219.837
587.139,217.979
586.949,217.554
586.758,217.289
586.568,217.023
586.378,216.758
586.187,216.599
585.997,216.439
585.807,209.06
585.616,196.583
585.426,180.921
585.236,160.958
585.045,139.774
584.855,128.041
584.664,120.502
584.474,116.626
584.284,112.591
584.093,110.096
583.903,108.45
583.713,107.494
583.522,106.964
583.332,106.433
583.142,106.539
582.951,106.645
582.761,106.804
582.57,106.964
582.38,107.282
582.19,107.548
581.999,107.919
581.809,108.238
581.619,108.344
581.428,108.344
581.238,108.132
581.047,107.654
580.857,107.229
580.667,106.804
580.476,106.273
580.286,105.689
580.096,105.212
579.905,102.504
579.715,104.681
579.525,104.999
579.334,106.433
579.144,108.344
578.953,110.521
578.763,112.644
578.573,114.874
578.382,117.051
578.192,119.44
578.002,121.723
577.811,122.944
577.621,124.219
577.431,125.493
577.24,126.82
577.05,127.988
576.859,128.891
576.669,129.687
576.479,130.43
576.288,131.227
576.098,132.023
575.908,132.766
575.717,134.306
575.527,136.058
575.337,139.35
575.146,143.385
574.956,154.906
574.766,198.547
574.575,205.078
574.385,206.564
574.194,207.414
574.004,208.051
573.814,212.723
573.623,219.466
573.433,225.677
573.243,225.677
573.052,210.865
572.862,193.557
572.672,193.663
572.481,193.769
572.291,203.007
572.1,212.245
571.91,221.483
571.72,230.827
571.529,254.347
571.339,302.395
571.149,350.391
570.958,398.386
570.768,418.561
570.578,418.72
570.387,418.826
570.197,414.579
570.006,388.829
569.816,362.92
569.626,337.064
569.435,311.209
569.245,285.406
569.055,259.922
568.864,252.861
568.674,245.268
568.484,241.446
568.293,238.685
568.103,236.137
567.912,234.172
567.722,233.11
567.532,231.358
567.341,232.739
567.151,243.092
566.961,264.594
566.77,286.043
566.58,307.545
566.39,329.048
566.199,345.718
566.009,345.506
565.818,345.188
565.628,348.214
565.438,297.245
565.247,271.283
565.057,263.744
564.867,262.099
564.676,261.461
564.486,261.461
564.295,261.461
564.105,261.568
563.915,263.054
563.724,265.125
563.534,268.204
563.344,271.761
563.153,275.106
562.963,275.849
562.773,276.062
562.582,276.274
562.392,276.221
562.201,276.168
562.011,276.115
561.821,276.009
561.63,275.849
561.44,276.752
561.25,280.468
561.059,284.556
560.869,289.706
560.679,295.971
560.488,306.537
560.298,316.412
560.107,326.393
559.917,336.215
559.727,346.09
559.536,356.018
559.346,365.893
559.156,375.769
558.965,385.697
558.775,396.262
558.585,404.81
558.394,408.686
558.204,411.818
558.013,414.951
557.823,416.49
557.633,417.711
557.442,417.499
557.252,418.508
557.062,416.596
556.871,394.935
556.681,390.9
556.491,386.175
556.3,352.355
556.11,318.642
555.919,277.442
555.729,271.071
555.539,264.116
555.348,255.781
555.158,247.392
554.968,239.003
554.777,230.721
554.587,222.279
554.397,213.891
554.206,205.555
554.016,197.167
553.825,194.459
553.635,194.3
553.445,194.035
553.254,193.663
553.064,193.397
552.874,191.964
552.683,188.885
552.493,184.637
552.302,179.753
552.112,171.948
551.922,166.267
551.731,161.224
551.541,156.87
551.351,154.109
551.16,151.349
550.97,148.906
550.78,146.995
550.589,145.137
550.399,143.332
550.208,140.836
550.018,138.394
549.828,135.899
549.637,133.563
549.447,131.174
549.257,129.315
549.066,128.253
548.876,127.245
548.686,126.183
548.495,125.333
548.305,124.802
548.115,124.378
547.924,123.847
547.734,123.369
547.543,122.997
547.353,122.573
547.163,122.201
546.972,121.776
546.782,121.405
546.592,121.139
546.401,120.768
546.211,120.449
546.021,120.343
545.83,118.909
545.64,120.502
545.449,120.608
545.259,120.768
545.069,125.44
544.878,133.563
544.688,143.703
544.498,156.233
544.307,162.976
544.117,170.409
543.927,178.319
543.736,184.637
543.546,220.421
543.355,266.293
543.165,312.164
542.975,358.036
542.784,371.468
542.594,371.84
542.404,364.566
542.213,371.415
542.023,172.532
541.833,128.094
541.642,122.36
541.452,117.263
541.261,112.698
541.071,108.503
540.881,106.698
540.69,104.999
540.5,103.406
540.31,102.026
540.119,100.699
539.929,99.8492
539.739,99.3183
539.548,98.8936
539.358,98.4689
539.167,98.0441
538.977,97.8318
538.787,97.6725
538.596,97.5663
538.406,96.5045
538.216,97.8318
538.025,98.0441
537.835,98.2034
537.645,98.3096
537.454,98.4689
537.264,98.575
537.073,98.7343
536.883,98.8936
536.693,99.0529
536.502,99.2122
536.312,99.3714
536.122,99.5307
535.931,99.7962
535.741,100.858
535.55,102.61
535.36,105.105
535.17,107.441
534.979,110.096
534.789,113.388
534.599,117.476
534.408,121.936
534.218,131.811
534.028,144.075
533.837,156.445
533.647,171.311
533.456,171.47
533.266,170.727
533.076,171.683
532.885,147.791
532.695,122.785
532.505,105.105
532.314,102.451
532.124,99.8492
531.934,97.407
531.743,95.9735
531.553,95.2303
531.362,94.6993
531.172,94.1684
530.982,93.6375
530.791,93.4782
530.601,93.3189
530.411,93.1596
530.22,93.1596
530.03,93.2127
529.84,93.3189
529.649,92.6818
529.459,93.4782
529.268,93.7437
529.078,93.956
528.888,94.2215
528.697,94.4869
528.507,94.6993
528.317,95.071
528.126,95.4957
527.936,95.8673
527.746,96.2921
527.555,96.823
527.365,97.5132
527.174,98.2034
526.984,98.8405
526.794,99.5307
526.603,100.221
526.413,100.858
526.223,101.548
526.032,102.291
525.842,103.141
525.652,103.99
525.461,104.84
525.271,105.689
525.08,106.539
524.89,107.282
524.7,108.078
524.509,108.822
524.319,109.512
524.129,110.308
523.938,110.892
523.748,110.945
523.558,110.945
523.367,110.945
523.177,110.786
522.986,110.733
522.796,110.627
522.606,110.574
522.415,110.415
522.225,110.415
522.035,110.415
521.844,110.574
521.654,110.627
521.464,110.945
521.273,111.583
521.083,112.326
520.892,113.069
520.702,113.759
520.512,115.034
520.321,116.414
520.131,117.794
519.941,119.918
519.75,121.989
519.56,124.165
519.37,126.236
519.179,128.519
518.989,130.855
518.798,134.094
518.608,137.704
518.418,145.084
518.227,153.047
518.037,161.011
517.847,168.975
517.656,172.957
517.466,173.116
517.276,171.842
517.085,162.339
516.895,152.888
516.704,143.385
516.514,137.332
516.324,137.332
516.133,137.332
515.943,137.491
515.753,138.66
515.562,142.588
515.372,152.41
515.182,164.409
514.991,176.408
514.801,188.354
514.61,200.352
514.42,212.351
514.23,224.297
514.039,236.296
513.849,248.295
513.659,249.834
513.468,250.471
513.278,230.827
513.088,212.245
512.897,193.61
512.707,176.78
512.516,172.001
512.326,168.179
512.136,164.622
511.945,162.285
511.755,160.374
511.565,158.357
511.374,157.56
511.184,156.445
510.993,157.189
510.803,157.454
510.613,158.197
510.422,167.595
510.232,176.036
510.042,179.222
509.851,180.868
509.661,181.133
509.471,181.346
509.28,181.452
509.09,181.505
508.9,181.558
508.709,181.823
508.519,183.522
508.328,187.876
508.138,195.256
507.948,201.627
507.757,209.59
507.567,222.067
507.377,230.827
507.186,239.11
506.996,246.808
506.805,271.337
506.615,308.607
506.425,345.825
506.234,363.823
506.044,378.211
505.854,386.971
505.663,394.457
505.473,402.102
505.283,409.694
505.092,419.676
504.902,435.125
504.711,459.229
504.521,483.333
504.331,507.437
504.14,514.286
503.95,514.286
503.76,512.905
503.569,513.755
503.379,513.33
503.189,481.74
502.998,449.407
502.808,417.074
502.617,384.688
502.427,352.355
502.237,320.022
502.046,172.054
501.856,159.525
501.666,147.473
501.475,136.43
501.285,127.669
501.095,121.033
500.904,116.308
500.714,111.848
500.523,107.76
500.333,104.097
500.143,101.92
499.952,100.008
499.762,98.1503
499.572,96.0266
499.381,93.7968
499.191,91.62
499.001,89.337
498.81,86.7886
498.62,83.1783
498.429,79.8335
498.239,76.648
498.049,74.5774
497.858,74.2058
497.668,73.9403
497.478,73.781
497.287,73.4625
497.097,73.3032
496.907,73.1439
496.716,72.9846
496.526,71.445
496.335,72.7723
496.145,72.7192
495.955,72.7723
495.764,72.7723
495.574,72.8254
495.384,72.9846
495.193,73.1439
495.003,73.4094
494.813,73.5156
494.622,73.781
494.432,74.0996
494.241,74.4182
494.051,74.7367
493.861,75.0552
493.67,75.3207
493.48,75.5331
493.29,75.7455
493.099,75.7455
492.909,75.7455
492.719,75.7455
492.528,75.5862
492.338,75.3738
492.147,75.2145
491.957,75.0022
491.767,75.0022
491.576,75.0022
491.386,75.0022
491.196,75.0022
491.005,75.0022
490.815,75.2145
490.625,75.4269
490.434,75.6924
490.244,75.9047
490.053,76.1171
489.863,76.4356
489.673,76.5949
489.482,76.8604
489.292,77.1258
489.102,77.3382
488.911,77.6037
488.721,77.7098
488.531,77.8691
488.34,77.9753
488.15,78.1346
487.959,78.4532
487.769,78.8248
487.579,79.1964
487.388,79.5681
487.198,79.9397
487.008,80.4706
486.817,81.2139
486.627,81.7979
486.437,82.4881
486.246,83.1783
486.056,83.8685
485.865,84.5587
485.675,85.302
485.485,85.5144
485.294,85.7267
485.104,85.886
484.914,85.886
484.723,85.8329
484.533,85.7798
484.343,85.6737
484.152,85.6206
483.962,85.6206
483.771,85.6737
483.581,85.6737
483.391,85.7267
483.2,85.8329
483.01,85.9391
482.82,86.0984
482.629,86.3108
482.439,86.6824
482.249,86.9479
482.058,87.2664
481.868,87.7974
481.677,88.3813
481.487,89.0185
481.297,89.6025
481.106,90.1865
480.916,90.8236
480.726,91.4076
480.535,92.0447
480.345,93.0004
480.155,94.8586
479.964,95.7612
479.774,96.7168
479.583,97.5132
479.393,97.5663
479.203,97.6725
479.012,97.7787
478.822,97.7787
478.632,97.7787
478.441,97.5663
478.251,97.3008
478.06,97.0354
477.87,96.7699
477.68,96.239
477.489,95.655
477.299,95.2303
477.109,94.8586
476.918,94.3277
476.728,93.7968
476.538,93.2658
476.347,92.7349
476.157,92.3633
475.966,92.204
475.776,91.9916
475.586,91.7262
475.395,91.6731
475.205,91.6731
475.015,91.6731
474.824,91.6731
474.634,91.6731
474.444,91.7262
474.253,91.8323
474.063,91.9916
473.872,92.0447
473.682,92.204
473.492,92.4695
473.301,92.788
473.111,93.4782
472.921,94.3277
472.73,95.1772
472.54,96.0266
472.35,96.9292
472.159,97.7256
471.969,98.4689
471.778,97.991
471.588,97.407
471.398,96.823
471.207,96.239
471.017,96.1859
470.827,96.1859
470.636,96.1859
470.446,96.1859
470.256,96.1859
470.065,96.1859
469.875,96.239
469.684,96.239
469.494,96.2921
469.304,96.3452
469.113,96.3452
468.923,96.3452
468.733,96.3452
468.542,96.239
468.352,96.1328
468.162,96.0797
467.971,95.9735
467.781,95.8673
467.59,95.8142
467.4,95.7081
467.21,95.655
467.019,95.5488
466.829,95.4426
466.639,95.3895
466.448,95.2833
466.258,95.2833
466.068,95.2833
465.877,95.2833
465.687,95.3364
465.496,95.3364
465.306,95.3364
465.116,95.3895
464.925,95.3895
464.735,95.3895
464.545,95.4426
464.354,95.4426
464.164,95.4426
463.974,95.6019
463.783,95.7612
463.593,95.9735
463.402,96.1328
463.212,96.3452
463.022,96.5576
462.831,96.7168
462.641,96.9292
462.451,97.1416
462.26,97.3008
462.07,97.407
461.88,97.5663
461.689,97.7256
461.499,97.8849
461.308,97.991
461.118,98.1503
460.928,98.3096
460.737,98.4689
460.547,98.575
460.357,98.7343
460.166,98.8936
459.976,98.9998
459.786,99.1591
459.595,99.3183
459.405,99.4776
459.214,99.6899
459.024,99.9554
458.834,100.327
458.643,100.539
458.453,100.805
458.263,101.123
458.072,101.601
457.882,102.451
457.692,103.194
457.501,103.99
457.311,104.734
457.12,105.477
456.93,106.22
456.74,106.964
456.549,107.919
456.359,108.928
456.169,109.99
455.978,110.892
455.788,111.317
455.598,112.113
455.407,111.742
455.217,111.742
455.026,111.742
454.836,111.742
454.646,111.742
454.455,111.689
454.265,111.529
454.075,111.317
453.884,111.158
453.694,110.945
453.504,109.724
453.313,108.609
453.123,107.76
452.932,106.91
452.742,106.38
452.552,106.008
452.361,105.636
452.171,105.265
451.981,104.893
451.79,104.787
451.6,104.734
451.41,104.628
451.219,104.521
451.029,104.415
450.838,104.362
450.648,104.256
450.458,104.15
450.267,104.043
450.077,103.937
449.887,103.831
449.696,103.831
449.506,103.831
449.315,103.937
449.125,104.097
448.935,104.309
448.744,104.521
448.554,104.734
448.364,104.946
448.173,105.212
447.983,105.424
447.793,105.636
447.602,106.061
447.412,107.07
447.221,108.238
447.031,109.459
446.841,110.786
446.65,111.901
446.46,112.857
446.27,113.812
446.079,114.662
445.889,115.564
445.699,116.414
445.508,117.263
445.318,118.166
445.128,119.44
444.937,119.069
444.747,119.122
444.556,119.228
444.366,119.228
444.176,118.538
443.985,117.529
443.795,116.573
443.605,115.511
443.414,114.556
443.224,114.131
443.033,113.759
442.843,113.388
442.653,113.228
442.462,113.175
442.272,112.963
442.082,112.751
441.891,112.538
441.701,112.326
441.511,112.113
441.32,111.901
441.13,111.689
440.939,111.476
440.749,111.317
440.559,111.105
440.368,110.945
440.178,110.786
439.988,110.574
439.797,110.574
439.607,110.786
439.417,110.945
439.226,111.105
439.036,111.317
438.845,111.529
438.655,111.742
438.465,112.007
438.274,112.432
438.084,112.804
437.894,113.228
437.703,113.759
437.513,114.131
437.323,114.396
437.132,114.609
436.942,114.874
436.751,115.14
436.561,115.405
436.371,115.618
436.18,115.883
435.99,116.095
435.8,116.202
435.609,116.095
435.419,116.095
435.229,115.936
435.038,115.883
434.848,115.724
434.657,115.564
434.467,115.405
434.277,115.193
434.086,114.927
433.896,114.662
433.706,114.396
433.515,114.184
433.325,113.972
433.135,113.759
432.944,113.441
432.754,113.228
432.563,112.91
432.373,112.963
432.183,113.069
431.992,113.175
431.802,113.228
431.612,113.282
431.421,113.441
431.231,113.441
431.041,113.547
430.85,113.6
430.66,113.6
430.469,113.653
430.279,113.759
430.089,113.759
429.898,113.812
429.708,113.972
429.518,114.131
429.327,114.29
429.137,114.396
428.947,114.556
428.756,114.715
428.566,114.874
428.375,115.034
428.185,115.193
427.995,115.352
427.804,115.511
427.614,115.618
427.424,115.883
427.233,116.042
427.043,116.202
426.853,116.308
426.662,116.467
426.472,116.626
426.281,116.679
426.091,116.786
425.901,116.945
425.71,117.051
425.52,117.157
425.33,117.263
425.139,117.423
424.949,117.529
424.759,117.635
424.568,117.741
424.378,118.007
424.187,118.219
423.997,118.538
423.807,118.75
423.616,118.962
423.426,119.228
423.236,119.44
423.045,119.599
422.855,119.865
422.665,120.077
422.474,120.343
422.284,120.555
422.093,120.821
421.903,121.033
421.713,121.245
421.522,121.511
421.332,121.723
421.142,121.936
420.951,122.201
420.761,122.466
420.57,122.679
420.38,122.891
420.19,123.21
419.999,123.475
419.809,123.794
419.619,124.059
419.428,124.378
419.238,124.59
419.048,124.856
418.857,125.121
418.667,125.387
418.477,125.652
418.286,125.917
418.096,126.183
417.905,126.501
417.715,126.714
417.525,126.926
417.334,127.245
417.144,127.457
416.954,127.669
416.763,127.935
416.573,128.2
416.383,128.466
416.192,128.678
416.002,128.997
415.811,129.156
415.621,129.475
415.431,129.687
415.24,129.899
415.05,130.059
414.86,130.218
414.669,130.43
414.479,130.643
414.288,130.855
414.098,131.067
413.908,131.227
413.717,131.439
413.527,131.651
413.337,131.864
413.146,132.023
412.956,132.235
412.766,132.501
412.575,132.713
412.385,132.819
412.194,133.085
412.004,133.244
411.814,133.456
411.623,133.616
411.433,133.828
411.243,134.04
411.052,134.306
410.862,134.465
410.672,134.678
410.481,134.837
410.291,135.049
410.1,135.262
409.91,135.474
409.72,135.633
409.529,135.846
409.339,136.058
409.149,136.27
408.958,136.43
408.768,136.642
408.578,136.801
408.387,137.067
408.197,137.173
408.006,137.438
407.816,137.545
407.626,137.81
407.435,137.916
407.245,138.129
407.055,138.288
406.864,138.447
406.674,138.606
406.484,138.819
406.293,138.978
406.103,139.19
405.912,139.35
405.722,139.615
405.532,139.774
405.341,139.987
405.151,140.146
404.961,140.305
404.77,140.518
404.58,140.677
404.39,140.836
404.199,141.049
404.009,141.208
403.818,141.42
403.628,141.58
403.438,141.792
403.247,141.951
403.057,142.164
402.867,142.429
402.676,142.641
402.486,142.96
402.296,143.172
402.105,143.385
401.915,143.703
401.724,143.863
401.534,144.128
401.344,144.34
401.153,144.606
400.963,144.818
400.773,145.084
400.582,145.402
400.392,145.615
400.202,145.827
400.011,146.092
399.821,146.358
399.63,146.57
399.44,146.783
399.25,147.048
399.059,147.314
398.869,147.579
398.679,147.791
398.488,148.11
398.298,148.269
398.108,148.535
397.917,148.747
397.727,149.012
397.536,149.278
397.346,149.543
397.156,149.756
396.965,150.021
396.775,150.234
396.585,150.552
396.394,150.764
396.204,150.977
396.014,151.189
395.823,151.455
395.633,151.72
395.442,151.986
395.252,152.198
395.062,152.463
394.871,152.729
394.681,153.047
394.491,153.26
394.3,153.578
394.11,153.791
393.92,154.003
393.729,154.322
393.539,154.534
393.348,154.746
393.158,155.012
392.968,155.277
392.777,155.543
392.587,155.861
392.397,156.074
392.206,156.286
392.016,156.605
391.826,156.817
391.635,157.082
391.445,157.348
391.254,157.613
391.064,157.826
390.874,158.091
390.683,158.357
390.493,158.675
390.303,158.888
390.112,159.1
389.922,159.365
389.732,159.631
389.541,159.896
389.351,160.162
389.16,160.374
388.97,160.64
388.78,160.852
388.589,161.064
388.399,161.224
388.209,161.436
388.018,161.595
387.828,161.808
387.638,161.967
387.447,162.179
387.257,162.339
387.066,162.551
386.876,162.71
386.686,162.923
386.495,163.082
386.305,163.294
386.115,163.507
385.924,163.666
385.734,163.878
385.543,164.038
385.353,164.197
385.163,164.409
384.972,164.568
384.782,164.781
384.592,164.94
384.401,165.152
384.211,165.312
384.021,165.524
383.83,165.683
383.64,165.896
383.449,166.055
383.259,166.32
383.069,166.48
382.878,166.692
382.688,167.011
382.498,167.276
382.307,167.595
382.117,167.807
381.927,168.073
381.736,168.338
381.546,168.603
381.355,168.922
381.165,169.187
380.975,169.4
380.784,169.718
380.594,169.931
380.404,170.249
380.213,170.462
380.023,170.727
379.833,170.993
379.642,171.258
379.452,171.577
379.261,171.842
379.071,172.054
378.881,172.373
378.69,172.532
378.5,172.638
378.31,172.904
378.119,173.01
377.929,173.169
377.739,173.329
377.548,173.541
377.358,173.7
377.167,173.86
376.977,174.019
376.787,174.284
376.596,174.444
376.406,174.603
376.216,174.709
376.025,174.815
375.835,174.974
375.645,175.081
375.454,175.187
375.264,175.293
375.073,175.399
374.883,175.558
374.693,175.665
374.502,175.771
374.312,175.877
374.122,175.93
373.931,175.983
373.741,176.089
373.551,176.142
373.36,176.196
373.17,176.249
372.979,176.355
372.789,176.408
372.599,176.461
372.408,176.514
372.218,176.62
372.028,176.673
371.837,176.78
371.647,176.78
371.457,176.939
371.266,176.939
371.076,177.098
370.885,177.151
370.695,177.151
370.505,177.257
370.314,177.311
370.124,177.311
369.934,177.311
369.743,177.311
369.553,177.364
369.363,177.364
369.172,177.47
368.982,177.47
368.791,177.47
368.601,177.47
368.411,177.523
368.22,177.523
368.03,177.523
367.84,177.523
367.649,177.629
367.459,177.629
367.269,177.682
367.078,177.682
366.888,177.682
366.697,177.629
366.507,177.629
366.317,177.629
366.126,177.629
365.936,177.523
365.746,177.523
365.555,177.523
365.365,177.523
365.175,177.47
364.984,177.47
364.794,177.47
364.603,177.47
364.413,177.47
364.223,177.47
364.032,177.364
363.842,177.364
363.652,177.364
363.461,177.364
363.271,177.311
363.081,177.311
362.89,177.311
362.7,177.311
362.509,177.311
362.319,177.311
362.129,177.311
361.938,177.364
361.748,177.47
361.558,177.47
361.367,177.47
361.177,177.523
360.987,177.629
360.796,177.682
360.606,177.682
360.415,177.735
360.225,177.735
360.035,177.841
359.844,177.841
359.654,177.895
359.464,177.948
359.273,178.001
359.083,178.001
358.893,178.054
358.702,178.107
358.512,178.213
358.321,178.213
358.131,178.266
357.941,178.266
357.75,178.319
357.56,178.372
357.37,178.425
357.179,178.479
356.989,178.532
356.798,178.532
356.608,178.585
356.418,178.638
356.227,178.691
356.037,178.744
355.847,178.797
355.656,178.85
355.466,178.903
355.276,178.956
355.085,179.009
354.895,179.063
354.704,179.116
354.514,179.116
354.324,179.169
354.133,179.222
353.943,179.275
353.753,179.328
353.562,179.434
353.372,179.434
353.182,179.54
352.991,179.593
352.801,179.593
352.611,179.647
352.42,179.753
352.23,179.806
352.039,179.806
351.849,179.912
351.659,179.965
351.468,179.965
351.278,180.018
351.088,180.124
350.897,180.177
350.707,180.337
350.516,180.39
350.326,180.496
350.136,180.602
349.945,180.708
349.755,180.868
349.565,180.921
349.374,181.027
349.184,181.133
348.994,181.239
348.803,181.346
348.613,181.505
348.422,181.611
348.232,181.717
348.042,181.823
347.851,181.93
347.661,181.983
347.471,182.089
347.28,182.089
347.09,182.195
346.9,182.195
346.709,182.195
346.519,182.195
346.328,182.195
346.138,182.195
345.948,182.195
345.757,182.089
345.567,182.089
345.377,182.089
345.186,182.089
344.996,182.089
344.806,182.089
344.615,182.089
344.425,182.089
344.234,182.089
344.044,182.089
343.854,182.089
343.663,182.089
343.473,182.089
343.283,182.089
343.092,182.089
342.902,182.195
342.712,182.195
342.521,182.248
342.331,182.248
342.14,182.248
341.95,182.301
341.76,182.407
341.569,182.46
341.379,182.46
341.189,182.567
340.998,182.62
340.808,182.62
340.618,182.673
340.427,182.779
340.237,182.779
340.046,182.832
339.856,182.991
339.666,182.991
339.475,183.044
339.285,183.151
339.095,183.151
338.904,183.204
338.714,183.257
338.524,183.31
338.333,183.363
338.143,183.416
337.952,183.522
337.762,183.522
337.572,183.628
337.381,183.682
337.191,183.735
337.001,183.788
336.81,183.841
336.62,183.894
336.43,183.947
336.239,184
336.049,184.053
335.858,184.106
335.668,184.159
335.478,184.212
335.287,184.266
335.097,184.319
334.907,184.478
334.716,184.584
334.526,184.743
334.336,184.903
334.145,185.062
333.955,185.221
333.764,185.327
333.574,185.434
333.384,185.646
333.193,185.699
333.003,185.858
332.813,186.018
332.622,186.177
332.432,186.283
332.242,186.442
332.051,186.549
331.861,186.708
331.67,186.867
331.48,187.026
331.29,187.133
331.099,187.292
330.909,187.398
330.719,187.557
330.528,187.77
330.338,187.929
330.148,187.982
329.957,188.141
329.767,188.301
329.576,188.46
329.386,188.566
329.196,188.725
329.005,188.832
328.815,188.938
328.625,189.044
328.434,189.203
328.244,189.309
328.054,189.469
327.863,189.575
327.673,189.734
327.482,189.84
327.292,190.053
327.102,190.159
326.911,190.212
326.721,190.371
326.531,190.53
326.34,190.584
326.15,190.743
325.96,190.902
325.769,191.008
325.579,191.114
325.388,191.221
325.198,191.327
325.008,191.486
324.817,191.592
324.627,191.752
324.437,191.858
324.246,192.017
324.056,192.123
323.865,192.229
323.675,192.336
323.485,192.495
323.294,192.601
323.104,192.813
322.914,192.92
322.723,193.185
322.533,193.291
322.343,193.557
322.152,193.769
321.962,193.928
321.771,194.141
321.581,194.353
321.391,194.512
321.2,194.725
321.01,194.937
320.82,195.149
320.629,195.362
320.439,195.521
320.249,195.733
320.058,195.946
319.868,196.211
319.677,196.424
319.487,196.53
319.297,196.795
319.106,196.955
318.916,197.167
318.726,197.379
318.535,197.539
318.345,197.698
318.155,197.857
317.964,198.016
317.774,198.176
317.583,198.388
317.393,198.547
317.203,198.707
317.012,198.866
316.822,198.972
316.632,199.131
316.441,199.291
316.251,199.45
316.061,199.609
315.87,199.768
315.68,199.928
315.489,200.087
315.299,200.246
315.109,200.406
314.918,200.565
314.728,200.724
314.538,200.883
314.347,201.043
314.157,201.202
313.967,201.361
313.776,201.52
313.586,201.68
313.395,201.839
313.205,201.998
313.015,202.158
312.824,202.317
312.634,202.476
312.444,202.689
312.253,202.848
312.063,203.06
311.873,203.273
311.682,203.485
311.492,203.697
311.301,203.91
311.111,204.175
310.921,204.334
310.73,204.547
310.54,204.759
310.35,204.971
310.159,205.237
309.969,205.449
309.779,205.662
309.588,205.874
309.398,206.086
309.207,206.299
309.017,206.511
308.827,206.724
308.636,206.936
308.446,207.148
308.256,207.361
308.065,207.573
307.875,207.785
307.685,207.998
307.494,208.21
307.304,208.422
307.113,208.635
306.923,208.847
306.733,209.113
306.542,209.325
306.352,209.59
306.162,209.803
305.971,210.068
305.781,210.281
305.591,210.546
305.4,210.759
305.21,211.024
305.019,211.236
304.829,211.502
304.639,211.714
304.448,211.98
304.258,212.245
304.068,212.457
303.877,212.67
303.687,212.935
303.497,213.201
303.306,213.466
303.116,213.679
302.925,213.944
302.735,214.156
302.545,214.422
302.354,214.634
302.164,214.9
301.974,215.112
301.783,215.378
301.593,215.59
301.403,215.855
301.212,216.068
301.022,216.333
300.831,216.599
300.641,217.076
300.451,217.554
300.26,217.926
300.07,218.351
299.88,218.828
299.689,219.253
299.499,219.678
299.309,220.103
299.118,220.527
298.928,220.952
298.737,221.43
298.547,221.855
298.357,222.279
298.166,222.757
297.976,223.076
297.786,223.394
297.595,223.554
297.405,223.713
297.215,223.872
297.024,223.978
296.834,224.138
296.643,224.297
296.453,224.456
296.263,224.562
296.072,224.669
295.882,224.722
295.692,224.775
295.501,224.775
295.311,224.828
295.12,224.828
294.93,224.881
294.74,224.881
294.549,224.881
294.359,224.828
294.169,224.456
293.978,224.032
293.788,223.66
293.598,223.235
293.407,222.917
293.217,222.598
293.026,222.279
292.836,221.908
292.646,221.589
292.455,221.271
292.265,220.952
292.075,220.634
291.884,220.315
291.694,219.997
291.504,219.678
291.313,219.359
291.123,219.147
290.932,218.882
290.742,218.669
290.552,218.457
290.361,218.244
290.171,217.979
289.981,217.926
289.79,217.873
289.6,217.873
289.41,217.82
289.219,217.82
289.029,217.767
288.839,217.767
288.648,217.714
288.458,217.714
288.267,217.714
288.077,217.767
287.887,217.82
287.696,217.926
287.506,217.979
287.316,218.032
287.125,218.085
286.935,218.191
286.744,218.244
286.554,218.351
286.364,218.404
286.173,218.457
285.983,218.51
285.793,218.616
285.602,218.669
285.412,218.722
285.222,218.775
285.031,218.882
284.841,218.935
284.65,219.041
284.46,219.094
284.27,219.253
284.079,219.359
283.889,219.519
283.699,219.625
283.508,219.784
283.318,219.943
283.128,220.103
282.937,220.209
282.747,220.368
282.556,220.474
282.366,220.634
282.176,220.74
281.985,220.899
281.795,221.005
281.605,221.165
281.414,221.271
281.224,221.43
281.034,221.536
280.843,221.695
280.653,221.802
280.462,221.961
280.272,222.067
280.082,222.226
279.891,222.333
279.701,222.492
279.511,222.598
279.32,222.757
279.13,222.863
278.94,223.023
278.749,223.129
278.559,223.288
278.368,223.394
278.178,223.554
277.988,223.713
277.797,223.872
277.607,223.978
277.417,224.138
277.226,224.244
277.036,224.403
276.846,224.509
276.655,224.669
276.465,224.775
276.274,224.934
276.084,225.04
275.894,225.253
275.703,225.518
275.513,225.677
275.323,225.89
275.132,226.102
274.942,226.314
274.752,226.527
274.561,226.739
274.371,226.952
274.18,227.164
273.99,227.376
273.8,227.589
273.609,227.801
273.419,228.067
273.229,228.226
273.038,228.438
272.848,228.651
272.658,228.863
272.467,229.075
272.277,229.288
272.086,229.5
271.896,229.712
271.706,229.925
271.515,230.137
271.325,230.349
271.135,230.509
270.944,230.721
270.754,230.88
270.564,231.093
270.373,231.305
270.183,231.518
269.992,231.677
269.802,231.889
269.612,232.102
269.421,232.314
269.231,232.473
269.041,232.686
268.85,232.845
268.66,233.057
268.47,233.27
268.279,233.482
268.089,233.641
267.898,233.854
267.708,234.013
267.518,234.225
267.327,234.384
267.137,234.597
266.947,234.756
266.756,234.968
266.566,235.181
266.375,235.446
266.185,235.712
265.995,235.924
265.804,236.137
265.614,236.296
265.424,236.455
265.233,236.667
265.043,236.88
264.853,237.092
264.662,237.251
264.472,237.464
264.281,237.623
264.091,237.835
263.901,237.995
263.71,238.207
263.52,238.419
263.33,238.685
263.139,238.844
262.949,239.057
262.759,239.269
262.568,239.481
262.378,239.694
262.188,239.906
261.997,240.065
261.807,240.278
261.616,240.49
261.426,240.702
261.236,240.915
261.045,241.127
260.855,241.34
260.665,241.552
260.474,241.764
260.284,241.977
260.094,242.136
259.903,242.348
259.713,242.561
259.522,242.773
259.332,242.985
259.142,243.198
258.951,243.41
258.761,243.622
258.571,243.835
258.38,244.1
258.19,244.206
257.999,244.419
257.809,244.631
257.619,244.95
257.428,245.268
257.238,245.746
257.048,246.224
256.857,246.755
256.667,247.233
256.477,247.764
256.286,248.241
256.096,248.719
255.905,249.144
255.715,249.569
255.525,249.94
255.334,250.312
255.144,250.684
254.954,251.108
254.763,251.48
254.573,251.958
254.383,252.276
254.192,252.648
254.002,253.02
253.811,253.232
253.621,253.391
253.431,253.551
253.24,253.657
253.05,253.816
252.86,253.922
252.669,254.029
252.479,254.082
252.289,254.082
252.098,254.082
251.908,254.294
251.717,254.347
251.527,254.453
251.337,254.506
251.146,254.506
250.956,254.506
250.766,254.613
250.575,254.613
250.385,254.613
250.195,254.719
250.004,254.878
249.814,255.037
249.623,255.303
249.433,255.515
249.243,255.781
249.052,255.993
248.862,256.258
248.672,256.471
248.481,256.736
248.291,256.949
248.101,257.267
247.91,257.426
247.72,257.692
247.529,257.904
247.339,258.117
247.149,258.329
246.958,258.541
246.768,258.701
246.578,258.913
246.387,259.072
246.197,259.285
246.007,259.444
245.816,259.656
245.626,259.922
245.435,260.081
245.245,260.293
245.055,260.506
244.864,260.718
244.674,260.93
244.484,261.143
244.293,261.674
244.103,262.152
243.913,262.682
243.722,263.16
243.532,263.691
243.341,264.222
243.151,265.019
242.961,265.815
242.77,266.664
242.58,267.514
242.39,268.363
242.199,269.16
242.009,269.85
241.819,270.54
241.628,271.23
241.438,271.921
241.247,272.611
241.057,273.301
240.867,274.31
240.676,275.265
240.486,276.38
240.296,277.442
240.105,278.61
239.915,279.619
239.725,281.424
239.534,283.229
239.344,283.335
239.153,283.442
238.963,283.601
238.773,283.707
238.582,284.981
238.392,286.202
238.202,288.007
238.011,289.759
237.821,291.989
237.631,294.219
237.44,296.343
237.25,298.413
237.059,298.679
236.869,298.944
236.679,299.21
236.488,299.475
236.298,299.422
236.108,299.369
235.917,299.21
235.727,298.997
235.537,298.785
235.346,298.573
235.156,298.573
234.965,298.626
234.775,297.936
234.585,297.67
234.394,295.812
234.204,293.954
234.014,291.618
233.823,289.282
233.633,282.486
233.443,275.69
233.252,274.575
233.062,273.46
232.871,273.195
232.681,272.823
232.491,272.77
232.3,272.664
232.11,272.611
231.92,272.505
231.729,272.451
231.539,272.451
231.348,272.398
231.158,272.398
230.968,272.451
230.777,272.505
230.587,272.558
230.397,272.611
230.206,272.664
230.016,272.664
229.826,272.77
229.635,272.823
229.445,272.77
229.254,272.717
229.064,273.195
228.874,273.301
228.683,273.46
228.493,273.566
228.303,273.673
228.112,273.779
227.922,273.938
227.732,274.044
227.541,274.15
227.351,274.257
227.16,274.416
226.97,274.522
226.78,274.681
226.589,274.788
226.399,274.894
226.209,275
226.018,275.159
225.828,275.265
225.638,275.425
225.447,275.531
225.257,275.69
225.066,275.849
224.876,275.956
224.686,276.062
224.495,276.221
224.305,276.327
224.115,276.486
223.924,276.646
223.734,276.805
223.544,276.911
223.353,277.07
223.163,277.177
222.972,277.442
222.782,277.708
222.592,277.973
222.401,278.238
222.211,278.61
222.021,278.823
221.83,279.088
221.64,279.353
221.45,279.672
221.259,279.937
221.069,280.309
220.878,280.628
220.688,280.999
220.498,281.318
220.307,281.689
220.117,282.061
219.927,282.433
219.736,282.751
219.546,283.123
219.356,283.442
219.165,283.813
218.975,284.185
218.784,284.556
218.594,284.928
218.404,285.3
218.213,285.671
218.023,286.043
217.833,286.468
217.642,286.786
217.452,287.158
217.262,287.53
217.071,287.901
216.881,288.273
216.69,288.645
216.5,289.016
216.31,289.388
216.119,289.759
215.929,290.131
215.739,290.503
215.548,290.874
215.358,291.246
215.168,291.618
214.977,292.096
214.787,292.52
214.596,292.998
214.406,293.476
214.216,293.954
214.025,294.432
213.835,294.909
213.645,295.387
213.454,295.865
213.264,296.343
213.074,296.821
212.883,297.299
212.693,297.883
212.502,298.413
212.312,298.944
212.122,299.475
211.931,299.953
211.741,300.431
211.551,300.696
211.36,300.909
211.17,301.174
210.98,301.387
210.789,301.652
210.599,301.918
210.408,302.183
210.218,302.395
210.028,302.608
209.837,302.82
209.647,303.032
209.457,303.245
209.266,303.457
209.076,303.617
208.886,303.829
208.695,304.041
208.505,304.413
208.314,304.785
208.124,305.262
207.934,305.74
207.743,306.271
207.553,306.749
207.363,307.227
207.172,307.705
206.982,308.235
206.792,308.713
206.601,309.191
206.411,309.669
206.22,310.253
206.03,310.837
205.84,311.421
205.649,312.005
205.459,312.589
205.269,313.173
205.078,313.81
204.888,314.394
204.698,315.084
204.507,315.775
204.317,316.518
204.126,317.261
203.936,318.058
203.746,318.854
203.555,319.65
203.365,320.447
203.175,321.243
202.984,322.039
202.794,322.836
202.604,323.632
202.413,324.375
202.223,325.225
202.032,325.862
201.842,326.499
201.652,327.136
201.461,327.773
201.271,328.357
201.081,328.941
200.89,329.578
200.7,330.216
200.509,330.853
200.319,331.49
200.129,332.074
199.938,332.658
199.748,333.295
199.558,333.932
199.367,334.516
199.177,335.153
198.987,335.843
198.796,336.374
198.606,337.064
198.415,337.595
198.225,338.233
198.035,338.817
197.844,339.56
197.654,340.197
197.464,341.046
197.273,341.79
197.083,342.639
196.893,343.436
196.702,344.285
196.512,345.081
196.321,345.931
196.131,346.727
195.941,347.63
195.75,348.373
195.56,349.223
195.37,350.072
195.179,350.815
194.989,351.665
194.799,352.514
194.608,353.364
194.418,354.585
194.227,355.806
194.037,357.08
193.847,358.248
193.656,360.106
193.466,361.965
193.276,362.655
193.085,363.345
192.895,363.61
192.705,363.823
192.514,364.088
192.324,364.248
192.133,364.513
191.943,364.725
191.753,365.044
191.562,365.203
191.372,365.469
191.182,365.787
190.991,366
190.801,366.265
190.611,366.477
190.42,366.743
190.23,367.168
190.039,367.592
189.849,368.176
189.659,368.76
189.468,369.398
189.278,369.875
189.088,370.406
188.897,370.937
188.707,371.521
188.517,372.052
188.326,372.636
188.136,373.167
187.945,373.91
187.755,374.601
187.565,375.344
187.374,376.087
187.184,376.83
186.994,377.574
186.803,378.317
186.613,379.06
186.423,379.804
186.232,380.547
186.042,381.449
185.851,382.299
185.661,383.52
185.471,384.582
185.28,385.75
185.09,386.918
184.9,388.086
184.709,389.254
184.519,390.422
184.329,391.59
184.138,392.811
183.948,393.979
183.757,395.147
183.567,396.315
183.377,397.536
183.186,398.704
182.996,400.191
182.806,401.677
182.615,403.27
182.425,404.863
182.235,406.456
182.044,408.049
181.854,409.694
181.663,411.287
181.473,412.88
181.283,414.473
181.092,416.172
180.902,417.817
180.712,419.676
180.521,421.534
180.331,423.392
180.141,425.25
179.95,427.109
179.76,428.914
179.569,430.772
179.379,432.63
179.189,434.488
178.998,436.347
178.808,438.63
178.618,440.753
178.427,443.249
178.237,445.744
178.047,448.292
177.856,450.788
177.666,453.336
177.475,455.884
177.285,458.805
177.095,461.672
176.904,464.592
176.714,467.459
176.524,470.379
176.333,473.246
176.143,475.635
175.953,477.971
175.762,480.148
175.572,482.324
175.381,484.554
175.191,486.784
175.001,488.802
174.81,490.819
174.62,492.837
174.43,494.801
174.239,496.765
174.049,498.73
173.859,499.951
173.668,501.119
173.478,502.287
173.287,503.455
173.097,504.623
172.907,505.738
172.716,506.694
172.526,507.596
172.336,508.233
172.145,508.87
171.955,508.977
171.764,509.03
171.574,508.977
171.384,508.977
171.193,508.764
171.003,508.552
170.813,506.959
170.622,505.366
170.432,502.393
170.242,508.233
170.051,496.394
169.861,493.367
169.671,490.394
169.48,487.368
169.29,484.342
169.099,481.316
168.909,478.342
168.719,475.316
168.528,472.343
168.338,469.317
168.148,466.344
167.957,463.317
167.767,454.982
167.576,446.7
167.386,441.921
167.196,437.037
167.005,433.639
166.815,430.241
166.625,412.827
166.434,395.413
166.244,387.024
166.054,378.636
165.863,370.619
165.673,362.549
165.482,359.469
165.292,356.337
165.102,353.895
164.911,351.399
164.721,348.904
164.531,346.462
164.34,341.79
164.15,337.118
163.96,331.596
163.769,325.968
163.579,321.562
163.388,317.208
163.198,313.173
163.008,309.085
162.817,305.422
162.627,301.758
162.437,298.626
162.246,295.493
162.056,292.414
161.866,289.282
161.675,287.37
161.485,285.406
161.294,283.919
161.104,282.433
160.914,280.946
160.723,279.407
160.533,277.92
160.343,276.433
160.152,275.212
159.962,273.991
159.772,273.089
159.581,272.186
159.391,271.283
159.2,270.381
159.01,269.478
158.82,268.523
158.629,267.62
158.439,266.718
158.249,265.815
158.058,264.859
157.868,263.957
157.678,263.001
157.487,262.099
157.297,261.143
157.106,260.187
156.916,259.232
156.726,257.904
156.535,256.577
156.345,255.303
156.155,253.975
155.964,252.914
155.774,251.799
155.584,250.843
155.393,249.887
155.203,248.932
155.012,247.976
154.822,247.02
154.632,246.065
154.441,245.428
154.251,244.737
154.061,244.26
153.87,243.729
153.68,243.251
153.49,242.773
153.299,242.508
153.109,242.242
152.918,242.083
152.728,241.924
152.538,241.764
152.347,241.552
152.157,241.446
151.967,241.233
151.776,241.18
151.586,241.127
151.396,241.127
151.205,241.074
151.015,241.074
150.824,241.074
150.634,241.074
150.444,241.021
150.253,241.021
150.063,241.074
149.873,241.074
149.682,241.127
149.492,241.18
149.302,241.233
149.111,241.34
148.921,241.34
148.73,241.446
148.54,241.446
148.35,241.499
148.159,241.552
147.969,241.658
147.779,241.711
147.588,241.817
147.398,241.924
147.208,242.083
147.017,242.189
146.827,242.295
146.636,242.401
146.446,242.561
146.256,242.667
146.065,242.773
145.875,242.879
145.685,243.145
145.494,243.357
145.304,243.622
145.114,243.888
144.923,244.153
144.733,244.419
144.542,244.684
144.352,244.95
144.162,245.215
143.971,245.428
143.781,245.693
143.591,245.905
143.4,246.171
143.21,246.383
143.02,246.649
142.829,246.861
142.639,247.127
142.448,247.339
142.258,247.604
142.068,247.817
141.877,248.082
141.687,248.295
141.497,248.56
141.306,248.772
141.116,249.038
140.926,249.303
140.735,249.516
140.545,249.728
140.354,250.047
140.164,250.312
139.974,250.578
139.783,250.843
139.593,251.162
139.403,251.427
139.212,251.746
139.022,252.064
138.831,252.33
138.641,252.595
138.451,252.914
138.26,253.179
138.07,253.498
137.88,253.763
137.689,254.029
137.499,254.294
137.309,254.613
137.118,254.878
136.928,255.303
136.737,255.674
136.547,256.152
136.357,256.577
136.166,257.055
135.976,257.48
135.786,257.957
135.595,258.382
135.405,258.86
135.215,259.285
135.024,259.762
134.834,260.24
134.643,260.506
134.453,260.771
134.263,260.93
134.072,261.09
133.882,261.249
133.692,261.408
133.501,261.568
133.311,261.727
133.121,261.939
132.93,262.099
132.74,262.258
132.549,262.364
132.359,262.576
132.169,262.682
131.978,262.789
131.788,262.895
131.598,263.054
131.407,263.213
131.217,263.373
131.027,263.479
130.836,263.638
130.646,263.744
130.455,263.904
130.265,264.01
130.075,264.169
129.884,264.328
129.694,264.488
129.504,264.594
129.313,264.753
129.123,264.912
128.933,265.072
128.742,265.231
128.552,265.39
128.361,265.496
128.171,265.656
127.981,265.815
127.79,265.974
127.6,266.08
127.41,266.293
127.219,266.452
127.029,266.611
126.839,266.771
126.648,266.93
126.458,267.089
126.267,267.248
126.077,267.408
125.887,267.567
125.696,267.726
125.506,267.992
125.316,268.257
125.125,268.629
124.935,268.947
124.745,269.266
124.554,269.584
124.364,269.903
124.173,270.222
123.983,270.646
123.793,270.912
123.602,271.23
123.412,271.549
123.222,271.921
123.031,272.239
122.841,272.398
122.651,272.558
122.46,272.77
122.27,272.929
122.079,273.089
121.889,273.301
121.699,273.407
121.508,273.566
121.318,273.726
121.128,273.885
120.937,274.044
120.747,274.203
120.557,274.363
120.366,274.469
120.176,274.522
119.985,274.575
119.795,274.628
119.605,274.681
119.414,274.734
119.224,274.788
119.034,274.894
118.843,274.947
118.653,275
118.463,275.053
118.272,275.106
118.082,275.159
117.891,275.212
117.701,275.265
117.511,275.318
117.32,275.372
117.13,275.478
116.94,275.584
116.749,275.849
116.559,276.009
116.369,276.221
116.178,276.433
115.988,276.646
115.797,276.858
115.607,277.124
115.417,277.389
115.226,277.654
115.036,277.92
114.846,278.185
114.655,278.504
114.465,278.716
114.275,278.982
114.084,279.247
113.894,279.513
113.703,279.778
113.513,279.991
113.323,280.256
113.132,280.521
112.942,280.787
112.752,280.999
112.561,281.265
112.371,281.477
112.181,281.743
111.99,281.955
111.8,282.22
111.609,282.433
111.419,282.698
111.229,282.911
111.038,283.176
110.848,283.388
110.658,283.654
110.467,283.919
110.277,284.079
110.087,284.291
109.896,284.344
109.706,284.397
109.515,284.503
109.325,284.556
109.135,284.61
108.944,284.663
108.754,284.769
108.564,284.822
108.373,284.875
108.183,284.928
107.993,285.034
107.802,285.087
107.612,285.14
107.421,285.194
107.231,285.3
107.041,285.353
106.85,285.406
106.66,285.459
106.47,285.565
106.279,285.618
106.089,285.778
105.898,285.937
105.708,286.096
105.518,286.255
105.327,286.468
105.137,286.574
104.947,286.733
104.756,286.893
104.566,287.052
104.376,287.211
104.185,287.37
103.995,287.53
103.804,287.689
103.614,287.848
103.424,288.007
103.233,288.167
103.043,288.379
102.853,288.538
102.662,288.698
102.472,288.857
102.282,289.122
102.091,289.335
101.901,289.6
101.71,289.813
101.52,290.078
101.33,290.29
101.139,290.503
100.949,290.715
100.759,290.981
100.568,291.193
100.378,291.458
100.188,291.671
99.9972,291.777
99.8068,291.883
99.6165,291.989
99.4261,292.042
99.2357,292.149
99.0454,292.255
98.855,292.361
98.6647,292.414
98.4743,292.52
98.2839,292.626
98.0936,292.733
97.9032,292.786
97.7128,292.892
97.5225,292.998
97.3321,293.104
97.1417,293.157
96.9514,293.264
96.761,293.37
96.5706,293.476
96.3803,293.529
96.1899,293.635
95.9996,293.741
95.8092,293.848
95.6188,293.901
95.4285,294.007
95.2381,294.06" />
</g>
</svg>
