<?xml version="1.0"?>
<svg version="1.1"
     xmlns="http://www.w3.org/2000/svg"
     xmlns:xlink="http://www.w3.org/1999/xlink"
     viewBox="0 0 800 600">
<g>
<text fill="#000000" font-family="sans-serif" font-size="19.0476" text-anchor="start" x="4.7619" y="591.429" >
NIST Chemistry WebBook (https://webbook.nist.gov/chemistry)
</text>
<polyline stroke="#000000" stroke-width="1.19048" fill="none" points="95.2381,514.286
742.857,514.286
742.857,66.6667
95.2381,66.6667
95.2381,514.286" />
<text fill="#000000" font-family="sans-serif" font-size="19.0476" text-anchor="middle" x="419.048" y="24.7619" >
KETONE, HYDROXY-2-PYRIDYLMETHYL 2-PYRIDYL-
</text>
<text fill="#000000" font-family="sans-serif" font-size="19.0476" text-anchor="middle" x="419.048" y="53.3333" >
INFRARED SPECTRUM
</text>
<text fill="#000000" font-family="sans-serif" font-size="19.0476" text-anchor="middle" x="419.048" y="558.095" >
Wavenumber (cm-1)
</text>
<text fill="#000000" font-family="sans-serif" font-size="19.0476" text-anchor="middle" transform="translate(20,290.476) rotate(270)" x="0" y="0" >
Percent Transmission (Transmitance)
</text>
<text fill="#000000" font-family="sans-serif" font-size="19.0476" text-anchor="middle" x="671.754" y="534.286" >
1000
</text>
<line stroke="#000000" stroke-width="1.19048" x1="671.754" y1="514.286" x2="671.754" y2="504.762" />
<text fill="#000000" font-family="sans-serif" font-size="19.0476" text-anchor="middle" x="479.582" y="534.286" >
2000
</text>
<line stroke="#000000" stroke-width="1.19048" x1="479.582" y1="514.286" x2="479.582" y2="504.762" />
<text fill="#000000" font-family="sans-serif" font-size="19.0476" text-anchor="middle" x="287.41" y="534.286" >
3000
</text>
<line stroke="#000000" stroke-width="1.19048" x1="287.41" y1="514.286" x2="287.41" y2="504.762" />
<text fill="#000000" font-family="sans-serif" font-size="19.0476" text-anchor="middle" x="95.2381" y="534.286" >
4000
</text>
<line stroke="#000000" stroke-width="1.19048" x1="95.2381" y1="514.286" x2="95.2381" y2="504.762" />
<line stroke="#000000" stroke-width="1.19048" x1="729.405" y1="514.286" x2="729.405" y2="509.524" />
<line stroke="#000000" stroke-width="1.19048" x1="710.188" y1="514.286" x2="710.188" y2="509.524" />
<line stroke="#000000" stroke-width="1.19048" x1="690.971" y1="514.286" x2="690.971" y2="509.524" />
<line stroke="#000000" stroke-width="1.19048" x1="671.754" y1="514.286" x2="671.754" y2="509.524" />
<line stroke="#000000" stroke-width="1.19048" x1="652.536" y1="514.286" x2="652.536" y2="509.524" />
<line stroke="#000000" stroke-width="1.19048" x1="633.319" y1="514.286" x2="633.319" y2="509.524" />
<line stroke="#000000" stroke-width="1.19048" x1="614.102" y1="514.286" x2="614.102" y2="509.524" />
<line stroke="#000000" stroke-width="1.19048" x1="594.885" y1="514.286" x2="594.885" y2="509.524" />
<line stroke="#000000" stroke-width="1.19048" x1="575.668" y1="514.286" x2="575.668" y2="509.524" />
<line stroke="#000000" stroke-width="1.19048" x1="556.45" y1="514.286" x2="556.45" y2="509.524" />
<line stroke="#000000" stroke-width="1.19048" x1="537.233" y1="514.286" x2="537.233" y2="509.524" />
<line stroke="#000000" stroke-width="1.19048" x1="518.016" y1="514.286" x2="518.016" y2="509.524" />
<line stroke="#000000" stroke-width="1.19048" x1="498.799" y1="514.286" x2="498.799" y2="509.524" />
<line stroke="#000000" stroke-width="1.19048" x1="479.582" y1="514.286" x2="479.582" y2="509.524" />
<line stroke="#000000" stroke-width="1.19048" x1="460.365" y1="514.286" x2="460.365" y2="509.524" />
<line stroke="#000000" stroke-width="1.19048" x1="441.147" y1="514.286" x2="441.147" y2="509.524" />
<line stroke="#000000" stroke-width="1.19048" x1="421.93" y1="514.286" x2="421.93" y2="509.524" />
<line stroke="#000000" stroke-width="1.19048" x1="402.713" y1="514.286" x2="402.713" y2="509.524" />
<line stroke="#000000" stroke-width="1.19048" x1="383.496" y1="514.286" x2="383.496" y2="509.524" />
<line stroke="#000000" stroke-width="1.19048" x1="364.279" y1="514.286" x2="364.279" y2="509.524" />
<line stroke="#000000" stroke-width="1.19048" x1="345.061" y1="514.286" x2="345.061" y2="509.524" />
<line stroke="#000000" stroke-width="1.19048" x1="325.844" y1="514.286" x2="325.844" y2="509.524" />
<line stroke="#000000" stroke-width="1.19048" x1="306.627" y1="514.286" x2="306.627" y2="509.524" />
<line stroke="#000000" stroke-width="1.19048" x1="287.41" y1="514.286" x2="287.41" y2="509.524" />
<line stroke="#000000" stroke-width="1.19048" x1="268.193" y1="514.286" x2="268.193" y2="509.524" />
<line stroke="#000000" stroke-width="1.19048" x1="248.976" y1="514.286" x2="248.976" y2="509.524" />
<line stroke="#000000" stroke-width="1.19048" x1="229.758" y1="514.286" x2="229.758" y2="509.524" />
<line stroke="#000000" stroke-width="1.19048" x1="210.541" y1="514.286" x2="210.541" y2="509.524" />
<line stroke="#000000" stroke-width="1.19048" x1="191.324" y1="514.286" x2="191.324" y2="509.524" />
<line stroke="#000000" stroke-width="1.19048" x1="172.107" y1="514.286" x2="172.107" y2="509.524" />
<line stroke="#000000" stroke-width="1.19048" x1="152.89" y1="514.286" x2="152.89" y2="509.524" />
<line stroke="#000000" stroke-width="1.19048" x1="133.672" y1="514.286" x2="133.672" y2="509.524" />
<line stroke="#000000" stroke-width="1.19048" x1="114.455" y1="514.286" x2="114.455" y2="509.524" />
<line stroke="#000000" stroke-width="1.19048" x1="95.2381" y1="514.286" x2="95.2381" y2="509.524" />
<text fill="#000000" font-family="sans-serif" font-size="19.0476" text-anchor="end" x="90.4762" y="501.854" >
0.2
</text>
<line stroke="#000000" stroke-width="1.19048" x1="95.2381" y1="497.568" x2="104.762" y2="497.568" />
<text fill="#000000" font-family="sans-serif" font-size="19.0476" text-anchor="end" x="90.4762" y="382.441" >
0.4
</text>
<line stroke="#000000" stroke-width="1.19048" x1="95.2381" y1="378.155" x2="104.762" y2="378.155" />
<text fill="#000000" font-family="sans-serif" font-size="19.0476" text-anchor="end" x="90.4762" y="263.028" >
0.6
</text>
<line stroke="#000000" stroke-width="1.19048" x1="95.2381" y1="258.742" x2="104.762" y2="258.742" />
<text fill="#000000" font-family="sans-serif" font-size="19.0476" text-anchor="end" x="90.4762" y="143.615" >
0.8
</text>
<line stroke="#000000" stroke-width="1.19048" x1="95.2381" y1="139.329" x2="104.762" y2="139.329" />
<line stroke="#000000" stroke-width="1.19048" x1="95.2381" y1="497.568" x2="100" y2="497.568" />
<line stroke="#000000" stroke-width="1.19048" x1="95.2381" y1="467.715" x2="100" y2="467.715" />
<line stroke="#000000" stroke-width="1.19048" x1="95.2381" y1="437.861" x2="100" y2="437.861" />
<line stroke="#000000" stroke-width="1.19048" x1="95.2381" y1="408.008" x2="100" y2="408.008" />
<line stroke="#000000" stroke-width="1.19048" x1="95.2381" y1="378.155" x2="100" y2="378.155" />
<line stroke="#000000" stroke-width="1.19048" x1="95.2381" y1="348.302" x2="100" y2="348.302" />
<line stroke="#000000" stroke-width="1.19048" x1="95.2381" y1="318.449" x2="100" y2="318.449" />
<line stroke="#000000" stroke-width="1.19048" x1="95.2381" y1="288.595" x2="100" y2="288.595" />
<line stroke="#000000" stroke-width="1.19048" x1="95.2381" y1="258.742" x2="100" y2="258.742" />
<line stroke="#000000" stroke-width="1.19048" x1="95.2381" y1="228.889" x2="100" y2="228.889" />
<line stroke="#000000" stroke-width="1.19048" x1="95.2381" y1="199.036" x2="100" y2="199.036" />
<line stroke="#000000" stroke-width="1.19048" x1="95.2381" y1="169.183" x2="100" y2="169.183" />
<line stroke="#000000" stroke-width="1.19048" x1="95.2381" y1="139.329" x2="100" y2="139.329" />
<line stroke="#000000" stroke-width="1.19048" x1="95.2381" y1="109.476" x2="100" y2="109.476" />
<line stroke="#000000" stroke-width="1.19048" x1="95.2381" y1="79.6229" x2="100" y2="79.6229" />
<polyline stroke="#FF0000" stroke-width="1.19048" fill="none" points="742.857,360.482
742.665,360.781
742.473,359.766
742.281,358.034
742.088,356.422
741.896,354.69
741.704,352.78
741.512,350.869
741.32,349.735
741.128,349.735
740.935,349.795
740.743,350.75
740.551,351.765
740.359,353.735
740.167,355.944
739.975,358.571
739.782,361.198
739.59,361.437
739.398,355.168
739.206,346.033
739.014,335.943
738.821,323.822
738.629,315.642
738.437,311.164
738.245,306.985
738.053,302.925
737.861,298.387
737.668,294.387
737.476,289.73
737.284,284.774
737.092,279.042
736.9,275.46
736.708,272.176
736.515,269.191
736.323,266.504
736.131,263.877
735.939,261.608
735.747,259.459
735.555,257.369
735.362,255.638
735.17,254.264
734.978,252.592
734.786,250.742
734.594,248.473
734.402,247.458
734.209,247.637
734.017,247.995
733.825,248.294
733.633,248.294
733.441,247.816
733.249,246.801
733.056,245.069
732.864,242.442
732.672,239.397
732.48,236.054
732.288,231.934
732.095,227.396
731.903,222.023
731.711,216.53
731.519,211.395
731.327,206.678
731.135,202.081
730.942,198.379
730.75,196.11
730.558,194.498
730.366,192.826
730.174,191.214
729.982,189.722
729.789,187.99
729.597,186.378
729.405,184.647
729.213,183.034
729.021,182.02
728.829,181.721
728.636,183.034
728.444,184.408
728.252,184.408
728.06,184.408
727.868,183.214
727.676,181.243
727.483,178.974
727.291,176.467
727.099,174.079
726.907,172.108
726.715,169.959
726.523,167.869
726.33,165.839
726.138,165.302
725.946,166.794
725.754,167.033
725.562,169.123
725.369,171.511
725.177,174.974
724.985,179.572
724.793,184.169
724.601,190.08
724.409,199.155
724.216,213.903
724.024,233.427
723.832,255.339
723.64,310.866
723.448,355.347
723.256,399.769
723.063,428.786
722.871,442.937
722.679,444.011
722.487,404.486
722.295,371.647
722.103,338.928
721.91,306.328
721.718,278.027
721.526,251.518
721.334,222.321
721.142,195.573
720.95,175.392
720.757,162.734
720.565,151.868
720.373,145.24
720.181,142.076
719.989,141.061
719.797,148.106
719.604,154.435
719.412,161.301
719.22,169.183
719.028,175.452
718.836,176.586
718.643,170.914
718.451,165.302
718.259,158.018
718.067,151.39
717.875,145.24
717.683,139.568
717.49,134.135
717.298,128.881
717.106,127.508
716.914,129.657
716.722,131.866
716.53,133.478
716.337,133.299
716.145,133.12
715.953,133.657
715.761,135.866
715.569,138.852
715.377,143.031
715.184,148.823
714.992,156.167
714.8,168.526
714.608,186.199
714.416,206.021
714.224,231.277
714.031,288.237
713.839,345.675
713.647,402.993
713.455,448.967
713.263,466.58
713.07,480.85
712.878,462.281
712.686,424.248
712.494,386.395
712.302,348.541
712.11,310.806
711.917,272.355
711.725,233.606
711.533,214.082
711.341,200.23
711.149,185.841
710.957,173.84
710.764,166.854
710.572,163.928
710.38,160.943
710.188,164.048
709.996,168.287
709.804,174.138
709.611,179.452
709.419,184.587
709.227,190.557
709.035,196.827
708.843,203.036
708.651,209.305
708.458,215.276
708.266,220.47
708.074,225.187
707.882,228.65
707.69,230.203
707.497,231.456
707.305,232.531
707.113,234.86
706.921,239.815
706.729,245.726
706.537,252.175
706.344,258.862
706.152,265.668
705.96,273.609
705.768,282.207
705.576,283.879
705.384,284.715
705.191,280.237
704.999,271.758
704.807,259.339
704.615,248.532
704.423,235.039
704.231,220.769
704.038,209.962
703.846,200.111
703.654,190.14
703.462,179.094
703.27,169.541
703.078,161.779
702.885,155.988
702.693,151.092
702.501,149.241
702.309,147.987
702.117,151.211
701.924,166.615
701.732,184.945
701.54,202.857
701.348,213.067
701.156,212.649
700.964,203.932
700.771,184.229
700.579,164.526
700.387,146.017
700.195,130.075
700.003,119.447
699.811,110.252
699.618,103.386
699.426,98.6693
699.234,96.3408
699.042,94.1317
698.85,92.2211
698.658,90.8478
698.465,89.5342
698.273,88.6387
698.081,87.8028
697.889,86.9072
697.697,86.2504
697.505,85.6533
697.312,84.9369
697.12,84.101
696.928,83.3248
696.736,82.4889
696.544,81.5336
696.352,80.8171
696.159,81.1157
695.967,81.1157
695.775,81.1754
695.583,81.5336
695.391,82.071
695.198,83.086
695.006,85.2354
694.814,88.9969
694.622,101.058
694.43,133.299
694.238,165.481
694.045,174.974
693.853,175.631
693.661,165.541
693.469,148.942
693.277,133.777
693.085,119.925
692.892,111.267
692.7,104.64
692.508,100.52
692.316,97.2961
692.124,95.5049
691.932,94.669
691.739,94.8481
691.547,96.2811
691.355,99.2664
691.163,103.028
690.971,105.118
690.779,104.461
690.586,102.968
690.394,99.0873
690.202,95.0273
690.01,91.624
689.818,88.2804
689.625,85.9519
689.433,84.8174
689.241,84.3995
689.049,84.3995
688.857,84.3995
688.665,85.3548
688.472,87.0863
688.28,90.1313
688.088,92.2211
687.896,92.2808
687.704,92.3405
687.512,91.6837
687.319,90.3105
687.127,88.2207
686.935,85.5339
686.743,82.8472
686.551,81.1157
686.359,79.7424
686.166,78.7871
685.974,77.7721
685.782,76.8765
685.59,76.0406
685.398,75.563
685.206,75.563
685.013,75.563
684.821,75.9809
684.629,76.5182
684.437,76.5182
684.245,76.5182
684.053,75.9809
683.86,75.4435
683.668,75.563
683.476,75.563
683.284,76.2794
683.092,76.8765
682.899,75.9809
682.707,75.145
682.515,74.6077
682.323,74.13
682.131,73.6523
681.939,73.115
681.746,72.4582
681.554,71.8612
681.362,71.2641
681.17,70.667
680.978,70.1894
680.786,69.7117
680.593,69.2938
680.401,68.8759
680.209,68.7564
680.017,68.7564
679.825,68.7564
679.633,68.8161
679.44,68.8759
679.248,69.1744
679.056,69.4729
678.864,69.652
678.672,69.7715
678.48,69.8909
678.287,69.9506
678.095,70.0103
677.903,70.0103
677.711,70.0103
677.519,70.0103
677.327,70.0103
677.134,69.9506
676.942,69.2938
676.75,68.3385
676.558,67.2638
676.366,66.6667
676.173,66.6667
675.981,66.7861
675.789,66.7861
675.597,66.7861
675.405,66.7861
675.213,66.8458
675.02,66.9055
674.828,67.2041
674.636,68.5773
674.444,70.6073
674.252,72.6373
674.06,74.2494
673.867,75.3838
673.675,76.0406
673.483,76.3989
673.291,76.9362
673.099,79.8021
672.907,83.9219
672.714,90.3105
672.522,96.5797
672.33,102.849
672.138,105.715
671.946,101.595
671.754,94.4302
671.561,88.7581
671.369,85.5937
671.177,84.8174
670.985,87.5042
670.793,89.7731
670.601,92.5196
670.408,92.8778
670.216,91.9225
670.024,89.2954
669.832,86.5489
669.64,83.6233
669.447,80.9365
669.255,78.608
669.063,76.3391
668.871,74.13
668.679,72.0403
668.487,69.8909
668.294,68.5773
668.102,67.7414
667.91,67.6817
667.718,67.622
667.526,67.622
667.334,67.6817
667.141,67.9803
666.949,68.2788
666.757,68.6967
666.565,69.055
666.373,69.4132
666.181,69.7117
665.988,70.07
665.796,70.4282
665.604,70.7865
665.412,71.2044
665.22,71.5626
665.028,71.9806
664.835,72.3985
664.643,72.8762
664.451,73.4135
664.259,73.9509
664.067,74.4286
663.875,74.9659
663.682,75.6227
663.49,76.2197
663.298,77.4736
663.106,79.1454
662.914,82.7874
662.721,87.6834
662.529,96.9379
662.337,106.67
662.145,112.223
661.953,112.223
661.761,112.282
661.568,107.148
661.376,101.356
661.184,95.5646
660.992,89.7731
660.8,84.8772
660.608,83.1457
660.415,81.9516
660.223,82.3098
660.031,82.8472
659.839,83.9219
659.647,85.2354
659.455,86.6684
659.262,87.9819
659.07,88.6387
658.878,88.9372
658.686,88.9372
658.494,88.8178
658.302,88.6984
658.109,88.6984
657.917,88.6984
657.725,88.8775
657.533,89.1163
657.341,89.4149
657.148,90.1313
656.956,91.2061
656.764,92.4002
656.572,93.5943
656.38,95.2064
656.188,97.2364
655.995,100.043
655.803,103.625
655.611,107.148
655.419,110.611
655.227,113.059
655.035,114.79
654.842,119.149
654.65,125.955
654.458,133.598
654.266,162.376
654.074,206.201
653.882,250.085
653.689,283.819
653.497,287.7
653.305,285.849
653.113,269.848
652.921,246.801
652.729,223.754
652.536,200.767
652.344,177.84
652.152,154.972
651.96,128.284
651.768,104.879
651.576,96.5797
651.383,93.0569
651.191,91.0269
650.999,89.3551
650.807,88.161
650.615,87.146
650.422,86.2504
650.23,85.4742
650.038,84.6981
649.846,84.101
649.654,83.5636
649.462,83.0263
649.269,82.7277
649.077,82.4889
648.885,82.2501
648.693,82.0112
648.501,81.7725
648.309,81.5336
648.116,81.1754
647.924,80.9365
647.732,80.9365
647.54,81.1157
647.348,80.3395
647.156,81.2351
646.963,81.3545
646.771,81.5336
646.579,81.8918
646.387,82.2501
646.195,82.6083
646.003,83.1457
645.81,83.9219
645.618,85.0563
645.426,86.5489
645.234,88.2804
645.042,90.0716
644.849,91.8628
644.657,93.654
644.465,95.3258
644.273,98.132
644.081,108.043
643.889,121.537
643.696,134.911
643.504,148.345
643.312,162.316
643.12,170.914
642.928,170.914
642.736,170.914
642.543,171.69
642.351,163.391
642.159,158.197
641.967,153.122
641.775,147.867
641.583,142.673
641.39,137.658
641.198,132.463
641.006,128.821
640.814,126.731
640.622,125.895
640.43,125.776
640.237,124.761
640.045,126.373
639.853,128.045
639.661,130.553
639.469,134.016
639.276,138.076
639.084,142.076
638.892,145.539
638.7,149.181
638.508,153.002
638.316,156.883
638.123,161.063
637.931,169.183
637.739,179.87
637.547,194.379
637.355,221.247
637.163,249.368
636.97,277.49
636.778,305.552
636.586,333.614
636.394,361.616
636.202,399.351
636.01,406.934
635.817,408.367
635.625,408.307
635.433,408.247
635.241,384.782
635.049,364.064
634.857,343.406
634.664,322.748
634.472,302.149
634.28,281.49
634.088,261.011
633.896,238.382
633.703,227.456
633.511,219.575
633.319,210.977
633.127,205.723
632.935,201.364
632.743,197.245
632.55,193.244
632.358,189.722
632.166,186.199
631.974,175.094
631.782,154.972
631.59,144.464
631.397,138.255
631.205,134.851
631.013,132.045
630.821,129.896
630.629,128.284
630.437,126.791
630.244,125.597
630.052,124.642
629.86,123.865
629.668,123.627
629.476,123.567
629.284,123.567
629.091,123.507
628.899,123.865
628.707,124.463
628.515,125.716
628.323,127.149
628.131,128.881
627.938,130.612
627.746,132.523
627.554,134.434
627.362,135.21
627.17,136.941
626.977,134.434
626.785,133.299
626.593,132.224
626.401,131.09
626.209,129.776
626.017,128.164
625.824,127.03
625.632,126.373
625.44,125.895
625.248,127.209
625.056,128.284
624.864,130.075
624.671,132.941
624.479,136.404
624.287,140.285
624.095,144.703
623.903,150.614
623.711,158.555
623.518,171.571
623.326,180.885
623.134,191.99
622.942,213.604
622.75,236.89
622.558,260.115
622.365,283.282
622.173,306.448
621.981,329.554
621.789,352.601
621.597,375.707
621.405,398.694
621.212,418.039
621.02,433.324
620.828,442.16
620.636,448.43
620.444,452.49
620.251,451.893
620.059,450.997
619.867,450.042
619.675,448.907
619.483,447.773
619.291,446.34
619.098,444.608
618.906,442.519
618.714,440.011
618.522,435.234
618.33,427.473
618.138,404.068
617.945,389.559
617.753,375.229
617.561,360.9
617.369,346.57
617.177,332.301
616.985,318.031
616.792,303.761
616.6,289.551
616.408,275.341
616.216,261.13
616.024,246.98
615.832,232.83
615.639,218.799
615.447,203.096
615.255,190.259
615.063,184.587
614.871,183.034
614.679,182.079
614.486,181.482
614.294,180.825
614.102,180.288
613.91,179.81
613.718,179.034
613.525,177.661
613.333,174.914
613.141,169.839
612.949,164.705
612.757,161.063
612.565,159.51
612.372,159.868
612.18,161.242
611.988,163.033
611.796,163.928
611.604,163.809
611.412,159.63
611.219,152.345
611.027,146.793
610.835,142.852
610.643,140.822
610.451,139.27
610.259,137.896
610.066,136.643
609.874,135.448
609.682,134.672
609.49,133.836
609.298,133.359
609.106,133.001
608.913,133.06
608.721,133.12
608.529,133.18
608.337,133.478
608.145,134.016
607.953,134.553
607.76,135.269
607.568,136.046
607.376,136.822
607.184,137.299
606.992,137.658
606.799,138.076
606.607,138.255
606.415,138.494
606.223,138.911
606.031,139.509
605.839,140.822
605.646,142.673
605.454,144.225
605.262,145.718
605.07,147.27
604.878,148.823
604.686,150.196
604.493,150.793
604.301,151.092
604.109,150.972
603.917,150.793
603.725,150.435
603.533,150.196
603.34,149.838
603.148,149.599
602.956,149.241
602.764,148.942
602.572,148.823
602.38,148.703
602.187,148.644
601.995,148.644
601.803,148.703
601.611,148.942
601.419,149.778
601.226,150.614
601.034,151.808
600.842,153.181
600.65,155.57
600.458,158.077
600.266,160.346
600.073,162.555
599.881,164.764
599.689,170.018
599.497,177.064
599.305,184.05
599.113,190.975
598.92,197.961
598.728,204.947
598.536,211.694
598.344,215.634
598.152,218.5
597.96,220.53
597.767,220.948
597.575,219.933
597.383,218.44
597.191,216.231
596.999,213.485
596.807,210.798
596.614,208.887
596.422,207.574
596.23,207.335
596.038,207.335
595.846,207.335
595.654,207.693
595.461,209.902
595.269,213.604
595.077,222.321
594.885,232.053
594.693,241.845
594.5,251.577
594.308,261.31
594.116,270.982
593.924,280.714
593.732,290.387
593.54,300.059
593.347,309.732
593.155,318.807
592.963,326.031
592.771,330.688
592.579,335.107
592.387,339.167
592.194,341.376
592.002,341.436
591.81,340.779
591.618,339.764
591.426,337.435
591.234,333.972
591.041,329.912
590.849,325.852
590.657,316.359
590.465,292.596
590.273,281.252
590.081,269.967
589.888,258.563
589.696,247.279
589.504,236.293
589.312,227.217
589.12,219.455
588.927,213.306
588.735,210.32
588.543,207.932
588.351,206.201
588.159,205.484
587.967,205.544
587.774,205.604
587.582,206.081
587.39,207.634
587.198,212.828
587.006,218.799
586.814,223.515
586.621,228.829
586.429,234.561
586.237,240.114
586.045,245.547
585.853,251.577
585.661,258.324
585.468,265.071
585.276,271.758
585.084,278.445
584.892,285.789
584.7,298.387
584.508,315.642
584.315,328.479
584.123,341.316
583.931,354.093
583.739,366.871
583.547,379.707
583.354,392.544
583.162,405.202
582.97,417.92
582.778,430.637
582.586,443.295
582.394,455.953
582.201,467.476
582.009,477.029
581.817,487.478
581.625,493.03
581.433,494.224
581.241,493.986
581.048,493.329
580.856,491.179
580.664,481.567
580.472,467.834
580.28,453.982
580.088,440.19
579.895,426.338
579.703,412.546
579.511,398.814
579.319,385.081
579.127,371.289
578.935,357.616
578.742,343.943
578.55,331.166
578.358,320.837
578.166,314.15
577.974,308.478
577.781,302.268
577.589,296.118
577.397,290.387
577.205,282.446
577.013,271.639
576.821,262.862
576.628,255.817
576.436,249.249
576.244,241.726
576.052,230.8
575.86,217.067
575.668,202.678
575.475,191.393
575.283,183.751
575.091,175.929
574.899,171.272
574.707,168.287
574.515,166.138
574.322,164.048
574.13,162.078
573.938,160.167
573.746,158.197
573.554,156.346
573.362,154.375
573.169,152.465
572.977,150.554
572.785,148.584
572.593,147.032
572.401,145.718
572.208,144.584
572.016,143.33
571.824,142.255
571.632,141.658
571.44,141.3
571.248,141.001
571.056,140.822
570.863,140.762
570.671,140.643
570.479,140.643
570.287,140.643
570.095,140.524
569.902,140.464
569.71,140.464
569.518,140.464
569.326,140.464
569.134,140.762
568.942,141.001
568.749,141.18
568.557,141.419
568.365,141.658
568.173,141.897
567.981,142.434
567.789,143.21
567.596,144.464
567.404,146.315
567.212,148.226
567.02,150.017
566.828,151.629
566.636,153.002
566.443,154.077
566.251,155.092
566.059,155.45
565.867,154.913
565.675,154.375
565.483,153.778
565.29,153.122
565.098,152.405
564.906,152.226
564.714,152.584
564.522,153.599
564.329,155.032
564.137,156.943
563.945,164.227
563.753,177.542
563.561,190.856
563.369,204.111
563.176,217.306
562.984,230.561
562.792,241.845
562.6,245.786
562.408,245.786
562.216,245.547
562.023,245.368
561.831,243.816
561.639,238.203
561.447,230.8
561.255,223.098
561.063,215.634
560.87,207.992
560.678,200.529
560.486,193.005
560.294,186.796
560.102,185.244
559.91,185.065
559.717,185.602
559.525,186.617
559.333,199.872
559.141,219.933
558.949,240.95
558.756,261.847
558.564,282.744
558.372,303.641
558.18,324.539
557.988,345.376
557.796,366.154
557.604,386.932
557.411,407.71
557.219,428.428
557.027,441.981
556.835,445.504
556.643,445.384
556.45,439.294
556.258,425.801
556.066,409.919
555.874,393.858
555.682,377.916
555.49,362.034
555.297,346.152
555.105,330.271
554.913,314.389
554.721,298.566
554.529,282.744
554.337,268.176
554.144,259.28
553.952,249.07
553.76,233.307
553.568,224.59
553.376,218.022
553.184,211.694
552.991,206.977
552.799,202.857
552.607,198.797
552.415,193.961
552.223,188.647
552.031,183.214
551.838,177.78
551.646,172.287
551.454,163.988
551.262,155.271
551.07,150.375
550.877,147.151
550.685,143.867
550.493,140.643
550.301,137.299
550.109,133.12
549.917,128.941
549.724,125.597
549.532,123.448
549.34,121.298
549.148,119.208
548.956,117.178
548.764,115.148
548.571,113.775
548.379,112.7
548.187,111.626
547.995,110.491
547.803,109.476
547.611,108.461
547.418,107.984
547.226,107.386
547.034,106.849
546.842,106.371
546.65,106.073
546.458,105.894
546.265,105.774
546.073,105.595
545.881,105.536
545.689,105.416
545.497,105.297
545.304,105.237
545.112,105.118
544.92,105.058
544.728,104.998
544.536,104.879
544.344,104.819
544.151,104.819
543.959,104.7
543.767,104.58
543.575,104.521
543.383,104.461
543.191,104.401
542.998,104.401
542.806,104.341
542.614,104.282
542.422,104.222
542.23,104.162
542.038,104.162
541.845,104.162
541.653,104.282
541.461,102.729
541.269,104.819
541.077,105.894
540.885,106.969
540.692,108.222
540.5,109.476
540.308,110.849
540.116,112.282
539.924,113.775
539.732,115.507
539.539,117.357
539.347,119.149
539.155,120.94
538.963,122.612
538.771,124.343
538.578,126.015
538.386,127.448
538.194,128.105
538.002,128.821
537.81,129.299
537.618,129.538
537.425,129.717
537.233,129.896
537.041,130.314
536.849,130.791
536.657,131.508
536.465,132.224
536.272,133.299
536.08,134.553
535.888,136.046
535.696,137.658
535.504,139.27
535.312,140.822
535.119,142.494
534.927,144.225
534.735,145.419
534.543,146.375
534.351,147.032
534.159,146.852
533.966,146.434
533.774,147.449
533.582,145.24
533.39,144.225
533.198,142.733
533.005,140.643
532.813,137.777
532.621,135.031
532.429,131.508
532.237,128.045
532.045,125.119
531.852,122.731
531.66,120.343
531.468,118.372
531.276,116.641
531.084,114.969
530.892,113.238
530.699,111.745
530.507,110.551
530.315,109.357
530.123,108.222
529.931,107.028
529.739,105.954
529.546,104.998
529.354,104.043
529.162,103.207
528.97,102.61
528.778,102.073
528.586,101.535
528.393,100.998
528.201,100.401
528.009,100.043
527.817,99.6844
527.625,99.3261
527.432,99.0276
527.24,98.6096
527.048,98.2514
526.856,97.9529
526.664,97.7141
526.472,97.4155
526.279,97.117
526.087,96.8184
525.895,96.699
525.703,96.5797
525.511,96.5199
525.319,96.4602
525.126,96.3408
524.934,96.2811
524.742,96.2811
524.55,96.2811
524.358,96.3408
524.166,96.4602
523.973,96.5797
523.781,96.8184
523.589,97.1767
523.397,97.5946
523.205,97.9529
523.013,98.1917
522.82,98.4305
522.628,98.5499
522.436,98.6096
522.244,98.6096
522.052,98.6096
521.859,98.6096
521.667,98.5499
521.475,98.4902
521.283,98.4305
521.091,98.3111
520.899,98.132
520.706,97.9529
520.514,97.6544
520.322,97.117
520.13,96.5199
519.938,95.9229
519.746,95.3258
519.553,94.4899
519.361,93.5943
519.169,92.639
518.977,91.7434
518.785,90.7881
518.593,89.7134
518.4,88.5193
518.208,87.3251
518.016,86.131
517.824,85.713
517.632,85.2951
517.44,84.8772
517.247,84.5189
517.055,84.5189
516.863,84.3995
516.671,84.3995
516.479,84.5189
516.286,84.5189
516.094,84.6981
515.902,84.9369
515.71,85.116
515.518,85.3548
515.326,85.5339
515.134,85.6533
514.941,85.713
514.749,85.8325
514.557,85.8922
514.365,85.9519
514.173,86.0116
513.98,86.131
513.788,86.1907
513.596,86.1907
513.404,86.131
513.212,86.0116
513.02,85.9519
512.827,85.8325
512.635,85.7728
512.443,85.6533
512.251,85.5937
512.059,85.4146
511.867,85.1757
511.674,84.9369
511.482,84.6383
511.29,84.3995
511.098,84.101
510.906,83.9219
510.714,83.6233
510.521,83.3845
510.329,83.1457
510.137,82.8472
509.945,82.6083
509.753,82.6083
509.561,82.668
509.368,82.9666
509.176,81.653
508.984,83.5636
508.792,83.9219
508.6,84.2204
508.408,84.5786
508.215,84.9369
508.023,85.2951
507.831,85.6533
507.639,86.0713
507.447,86.4295
507.254,86.9072
507.062,87.146
506.87,87.564
506.678,87.9222
506.486,88.2804
506.294,88.6387
506.101,89.0566
505.909,89.4149
505.717,89.8925
505.525,90.191
505.333,90.609
505.141,90.9672
504.948,91.3852
504.756,91.7434
504.564,92.0419
504.372,92.4599
504.18,92.7584
503.988,93.0569
503.795,93.2958
503.603,93.4749
503.411,93.654
503.219,93.8928
503.027,94.1317
502.835,94.3705
502.642,94.6093
502.45,94.7884
502.258,94.9078
502.066,94.9676
501.874,94.9676
501.681,94.9676
501.489,94.9676
501.297,94.9676
501.105,94.9676
500.913,94.9676
500.721,94.9078
500.528,94.9078
500.336,94.9078
500.144,94.9078
499.952,94.9078
499.76,94.5496
499.568,94.1914
499.375,93.8331
499.183,93.4749
498.991,93.1167
498.799,92.7584
498.607,92.2211
498.415,91.6837
498.222,91.1463
498.03,90.5493
497.838,90.0716
497.646,89.4746
497.454,88.9372
497.262,88.3998
497.069,87.8625
496.877,87.3251
496.685,86.7281
496.493,86.2504
496.301,85.9519
496.108,85.7728
495.916,85.6533
495.724,85.5339
495.532,85.3548
495.34,85.2354
495.148,85.1757
494.955,85.1757
494.763,85.1757
494.571,85.2354
494.379,85.2354
494.187,85.2951
493.995,85.4146
493.802,85.5339
493.61,85.6533
493.418,85.8325
493.226,85.9519
493.034,86.131
492.842,86.3101
492.649,86.5489
492.457,86.9072
492.265,87.3251
492.073,87.6237
491.881,87.9819
491.689,88.3401
491.496,88.6984
491.304,89.0566
491.112,89.4149
490.92,89.7731
490.728,90.1313
490.536,90.5493
490.343,90.9075
490.151,91.3255
489.959,91.6837
489.767,92.0419
489.575,92.4599
489.382,92.8778
489.19,93.0569
488.998,93.3555
488.806,93.7137
488.614,94.0123
488.422,94.3108
488.229,94.5496
488.037,94.9078
487.845,94.9078
487.653,94.8481
487.461,94.7884
487.269,94.7287
487.076,94.6093
486.884,94.6093
486.692,94.6093
486.5,94.7287
486.308,95.1467
486.116,95.6243
485.923,96.1617
485.731,96.6393
485.539,97.1767
485.347,97.7141
485.155,98.2514
484.963,98.8485
484.77,99.2664
484.578,99.2664
484.386,99.2664
484.194,99.0276
484.002,98.8485
483.81,98.6693
483.617,98.4902
483.425,98.1917
483.233,97.8335
483.041,97.5349
482.849,97.2961
482.656,97.2961
482.464,97.4752
482.272,97.6544
482.08,97.8932
481.888,98.1917
481.696,98.4902
481.503,98.6693
481.311,98.8485
481.119,99.0276
480.927,99.2664
480.735,99.4455
480.543,99.6844
480.35,99.8635
480.158,100.043
479.966,100.222
479.774,100.281
479.582,100.281
479.39,100.222
479.197,100.162
479.005,99.9829
478.813,99.5052
478.621,99.0276
478.429,98.4305
478.237,97.8932
478.044,97.3558
477.852,96.8184
477.66,96.2811
477.468,95.6841
477.276,95.1467
477.083,94.5496
476.891,93.9525
476.699,93.5346
476.507,93.2958
476.315,92.9376
476.123,92.5793
475.93,92.2211
475.738,91.8628
475.546,91.5046
475.354,91.3852
475.162,91.2657
474.97,91.1463
474.777,91.0269
474.585,90.8478
474.393,90.8478
474.201,90.7881
474.009,90.7881
473.817,90.8478
473.624,90.9075
473.432,90.9075
473.24,90.9075
473.048,90.9075
472.856,90.9672
472.664,91.0866
472.471,91.0866
472.279,91.1463
472.087,91.2061
471.895,91.2657
471.703,91.3255
471.51,91.3852
471.318,91.4449
471.126,91.4449
470.934,91.5643
470.742,91.624
470.55,91.624
470.357,91.6837
470.165,91.7434
469.973,91.8031
469.781,91.9225
469.589,92.0419
469.397,92.1016
469.204,92.2211
469.012,92.2808
468.82,92.4002
468.628,92.4599
468.436,92.5793
468.244,92.6987
468.051,92.8778
467.859,92.8778
467.667,93.0569
467.475,93.0569
467.283,93.1763
467.091,93.2958
466.898,93.3555
466.706,93.4749
466.514,93.5346
466.322,93.654
466.13,93.7137
465.938,93.7734
465.745,93.8928
465.553,94.0123
465.361,94.0719
465.169,94.1317
464.977,94.1914
464.784,94.3108
464.592,94.3705
464.4,94.4302
464.208,94.5496
464.016,94.6093
463.824,94.669
463.631,94.7884
463.439,94.8481
463.247,94.9078
463.055,95.0273
462.863,95.0869
462.671,95.2064
462.478,95.2661
462.286,95.3258
462.094,95.3855
461.902,95.4452
461.71,95.5646
461.518,95.6841
461.325,95.7437
461.133,95.8632
460.941,95.8632
460.749,96.0423
460.557,96.0423
460.365,96.1617
460.172,96.2811
459.98,96.2811
459.788,96.3408
459.596,96.4602
459.404,96.5199
459.212,96.5797
459.019,96.6393
458.827,96.7588
458.635,96.8184
458.443,96.9379
458.251,96.9976
458.058,97.0573
457.866,97.117
457.674,97.2364
457.482,97.2961
457.29,97.4155
457.098,97.4752
456.905,97.5349
456.713,97.5946
456.521,97.7141
456.329,97.7737
456.137,97.8335
455.945,97.8932
455.752,97.9529
455.56,98.0723
455.368,98.1917
455.176,98.2514
454.984,98.3111
454.792,98.3708
454.599,98.4305
454.407,98.5499
454.215,98.6693
454.023,98.7291
453.831,98.8485
453.639,99.0276
453.446,99.0276
453.254,99.147
453.062,99.2664
452.87,99.3261
452.678,99.4455
452.486,99.5052
452.293,99.6246
452.101,99.7441
451.909,99.8038
451.717,99.9232
451.525,100.043
451.332,100.102
451.14,100.222
450.948,100.341
450.756,100.401
450.564,100.52
450.372,100.58
450.179,100.699
449.987,100.819
449.795,100.998
449.603,101.177
449.411,101.296
449.219,101.476
449.026,101.595
448.834,101.714
448.642,101.893
448.45,102.073
448.258,102.252
448.066,102.431
447.873,102.55
447.681,102.67
447.489,102.849
447.297,103.028
447.105,103.147
446.913,103.267
446.72,103.446
446.528,103.565
446.336,103.744
446.144,103.923
445.952,104.043
445.759,104.222
445.567,104.401
445.375,104.521
445.183,104.64
444.991,104.819
444.799,104.998
444.606,105.118
444.414,105.237
444.222,105.416
444.03,105.595
443.838,105.715
443.646,105.894
443.453,106.073
443.261,106.252
443.069,106.431
442.877,106.551
442.685,106.73
442.493,106.969
442.3,107.088
442.108,107.267
441.916,107.386
441.724,107.566
441.532,107.804
441.34,107.984
441.147,108.103
440.955,108.222
440.763,108.461
440.571,108.581
440.379,108.76
440.186,108.939
439.994,109.058
439.802,109.237
439.61,109.417
439.418,109.596
439.226,109.715
439.033,109.894
438.841,110.073
438.649,110.193
438.457,110.372
438.265,110.551
438.073,110.79
437.88,110.849
437.688,111.029
437.496,111.208
437.304,111.387
437.112,111.447
436.92,111.626
436.727,111.745
436.535,111.924
436.343,112.103
436.151,112.282
435.959,112.462
435.767,112.581
435.574,112.76
435.382,112.879
435.19,113.059
434.998,113.178
434.806,113.357
434.614,113.477
434.421,113.656
434.229,113.775
434.037,113.954
433.845,114.074
433.653,114.253
433.46,114.372
433.268,114.551
433.076,114.671
432.884,114.79
432.692,114.909
432.5,115.089
432.307,115.208
432.115,115.387
431.923,115.507
431.731,115.626
431.539,115.745
431.347,115.865
431.154,116.044
430.962,116.163
430.77,116.342
430.578,116.462
430.386,116.581
430.194,116.76
430.001,116.94
429.809,116.999
429.617,117.178
429.425,117.238
429.233,117.357
429.041,117.537
428.848,117.656
428.656,117.775
428.464,117.895
428.272,118.074
428.08,118.193
427.888,118.313
427.695,118.492
427.503,118.611
427.311,118.731
427.119,118.85
426.927,119.029
426.734,119.149
426.542,119.268
426.35,119.447
426.158,119.567
425.966,119.746
425.774,119.805
425.581,119.925
425.389,120.044
425.197,120.164
425.005,120.343
424.813,120.462
424.621,120.582
424.428,120.761
424.236,120.88
424.044,121
423.852,121.119
423.66,121.238
423.468,121.418
423.275,121.537
423.083,121.656
422.891,121.776
422.699,121.895
422.507,122.074
422.315,122.194
422.122,122.313
421.93,122.492
421.738,122.612
421.546,122.731
421.354,122.91
421.161,122.97
420.969,123.149
420.777,123.328
420.585,123.388
420.393,123.507
420.201,123.627
420.008,123.806
419.816,123.985
419.624,124.104
419.432,124.224
419.24,124.403
419.048,124.582
418.855,124.701
418.663,124.88
418.471,125
418.279,125.179
418.087,125.358
417.895,125.537
417.702,125.716
417.51,125.895
417.318,125.955
417.126,126.134
416.934,126.313
416.742,126.433
416.549,126.552
416.357,126.672
416.165,126.851
415.973,127.03
415.781,127.209
415.589,127.508
415.396,127.746
415.204,128.045
415.012,128.343
414.82,128.702
414.628,128.941
414.435,129.239
414.243,129.478
414.051,129.717
413.859,130.015
413.667,130.314
413.475,130.732
413.282,131.15
413.09,131.687
412.898,132.224
412.706,132.702
412.514,133.12
412.322,133.657
412.129,134.135
411.937,134.672
411.745,135.269
411.553,135.687
411.361,136.284
411.169,136.702
410.976,137.24
410.784,137.777
410.592,138.255
410.4,138.852
410.208,139.329
410.016,139.807
409.823,140.344
409.631,140.822
409.439,141.419
409.247,141.837
409.055,142.374
408.862,142.792
408.67,143.21
408.478,143.628
408.286,144.046
408.094,144.404
407.902,144.822
407.709,145.121
407.517,145.539
407.325,145.957
407.133,146.315
406.941,146.614
406.749,146.852
406.556,146.972
406.364,147.032
406.172,147.032
405.98,147.151
405.788,147.211
405.596,147.27
405.403,147.39
405.211,147.569
405.019,147.629
404.827,147.808
404.635,147.927
404.443,148.106
404.25,148.226
404.058,148.345
403.866,148.524
403.674,148.644
403.482,148.763
403.29,148.942
403.097,149.121
402.905,149.36
402.713,149.599
402.521,149.957
402.329,150.196
402.136,150.554
401.944,150.793
401.752,151.092
401.56,151.39
401.368,151.689
401.176,151.987
400.983,152.286
400.791,152.584
400.599,152.942
400.407,153.181
400.215,153.54
400.023,153.778
399.83,154.077
399.638,154.435
399.446,154.734
399.254,155.092
399.062,155.39
398.87,155.749
398.677,155.988
398.485,156.346
398.293,156.585
398.101,156.883
397.909,157.182
397.717,157.48
397.524,157.838
397.332,158.137
397.14,158.435
396.948,158.734
396.756,159.152
396.564,159.51
396.371,159.809
396.179,160.167
395.987,160.406
395.795,160.764
395.603,161.063
395.41,161.421
395.218,161.719
395.026,162.137
394.834,162.376
394.642,162.734
394.45,163.152
394.257,163.451
394.065,163.749
393.873,164.108
393.681,164.526
393.489,164.884
393.297,165.182
393.104,165.541
392.912,165.958
392.72,166.317
392.528,166.735
392.336,167.093
392.144,167.511
391.951,167.75
391.759,167.929
391.567,168.108
391.375,168.168
391.183,168.347
390.991,168.526
390.798,168.705
390.606,168.765
390.414,168.944
390.222,169.123
390.03,169.242
389.837,169.362
389.645,169.541
389.453,169.66
389.261,169.839
389.069,169.959
388.877,170.138
388.684,170.257
388.492,170.496
388.3,170.675
388.108,170.914
387.916,171.272
387.724,171.571
387.531,171.869
387.339,172.168
387.147,172.466
386.955,172.705
386.763,173.004
386.571,173.302
386.378,173.661
386.186,173.899
385.994,174.258
385.802,174.496
385.61,174.676
385.418,174.914
385.225,175.094
385.033,175.213
384.841,175.392
384.649,175.511
384.457,175.631
384.264,175.75
384.072,175.87
383.88,175.929
383.688,175.989
383.496,176.049
383.304,176.168
383.111,176.288
382.919,176.347
382.727,176.467
382.535,176.467
382.343,176.467
382.151,176.467
381.958,176.586
381.766,176.586
381.574,176.586
381.382,176.586
381.19,176.586
380.998,176.586
380.805,176.586
380.613,176.586
380.421,176.646
380.229,176.646
380.037,176.646
379.845,176.646
379.652,176.646
379.46,177.124
379.268,177.78
379.076,178.377
378.884,178.974
378.692,179.631
378.499,180.228
378.307,180.766
378.115,181.303
377.923,181.96
377.731,182.617
377.538,183.214
377.346,183.691
377.154,184.288
376.962,184.885
376.77,185.542
376.578,186.08
376.385,186.677
376.193,187.274
376.001,187.871
375.809,188.408
375.617,189.005
375.425,189.602
375.232,190.14
375.04,190.737
374.848,191.393
374.656,191.931
374.464,192.408
374.272,193.005
374.079,193.543
373.887,194.14
373.695,194.737
373.503,194.916
373.311,195.035
373.119,195.155
372.926,195.155
372.734,195.155
372.542,195.215
372.35,195.215
372.158,195.334
371.966,195.334
371.773,195.334
371.581,195.334
371.389,195.334
371.197,195.334
371.005,195.215
370.812,195.155
370.62,195.155
370.428,195.155
370.236,195.035
370.044,194.976
369.852,194.976
369.659,194.976
369.467,194.916
369.275,194.797
369.083,194.797
368.891,194.737
368.699,194.737
368.506,194.618
368.314,194.558
368.122,194.498
367.93,194.498
367.738,194.379
367.546,194.379
367.353,194.259
367.161,194.2
366.969,194.14
366.777,194.08
366.585,193.961
366.393,193.961
366.2,193.961
366.008,193.961
365.816,193.961
365.624,194.02
365.432,194.08
365.24,194.08
365.047,194.08
364.855,194.14
364.663,194.2
364.471,194.259
364.279,194.558
364.086,194.737
363.894,194.976
363.702,195.394
363.51,195.692
363.318,196.11
363.126,196.528
362.933,196.886
362.741,197.364
362.549,197.782
362.357,198.2
362.165,198.618
361.973,199.036
361.78,199.573
361.588,200.23
361.396,200.887
361.204,201.543
361.012,202.141
360.82,202.797
360.627,203.454
360.435,204.111
360.243,204.648
360.051,205.305
359.859,205.902
359.667,206.499
359.474,207.096
359.282,207.693
359.09,208.171
358.898,208.589
358.706,209.066
358.513,209.484
358.321,209.902
358.129,210.38
357.937,210.798
357.745,211.276
357.553,211.694
357.36,212.171
357.168,212.709
356.976,213.067
356.784,213.485
356.592,213.903
356.4,214.38
356.207,214.798
356.015,215.276
355.823,215.694
355.631,216.231
355.439,216.59
355.247,217.067
355.054,217.485
354.862,217.963
354.67,218.44
354.478,218.858
354.286,219.038
354.094,219.097
353.901,219.276
353.709,219.276
353.517,219.276
353.325,219.276
353.133,219.336
352.94,219.455
352.748,219.455
352.556,219.455
352.364,219.455
352.172,219.515
351.98,219.575
351.787,219.575
351.595,219.635
351.403,219.635
351.211,219.635
351.019,219.694
350.827,219.694
350.634,219.754
350.442,219.754
350.25,219.873
350.058,219.873
349.866,219.933
349.674,220.052
349.481,220.112
349.289,220.232
349.097,220.351
348.905,220.411
348.713,220.53
348.521,220.59
348.328,220.709
348.136,220.769
347.944,220.888
347.752,221.008
347.56,221.068
347.368,221.247
347.175,221.366
346.983,221.426
346.791,221.485
346.599,221.665
346.407,221.784
346.214,221.844
346.022,222.023
345.83,222.262
345.638,222.441
345.446,222.62
345.254,222.859
345.061,223.038
344.869,223.277
344.677,223.456
344.485,223.635
344.293,223.814
344.101,224.053
343.908,224.232
343.716,224.411
343.524,224.65
343.332,224.829
343.14,225.068
342.948,225.307
342.755,225.545
342.563,225.844
342.371,226.023
342.179,226.262
341.987,226.501
341.795,226.74
341.602,226.859
341.41,226.978
341.218,227.038
341.026,227.038
340.834,226.978
340.641,226.978
340.449,226.919
340.257,226.859
340.065,226.859
339.873,226.799
339.681,226.74
339.488,226.74
339.296,226.62
339.104,226.501
338.912,226.381
338.72,226.262
338.528,226.143
338.335,226.023
338.143,225.904
337.951,225.725
337.759,225.605
337.567,225.486
337.375,225.426
337.182,225.247
336.99,225.187
336.798,225.008
336.606,224.829
336.414,224.769
336.222,224.59
336.029,224.411
335.837,224.351
335.645,224.113
335.453,223.993
335.261,223.874
335.069,223.754
334.876,223.575
334.684,223.456
334.492,223.336
334.3,223.157
334.108,223.038
333.915,222.918
333.723,222.739
333.531,222.62
333.339,222.5
333.147,222.321
332.955,222.262
332.762,222.082
332.57,222.023
332.378,221.844
332.186,221.844
331.994,221.844
331.802,221.844
331.609,221.844
331.417,221.844
331.225,221.844
331.033,221.844
330.841,221.844
330.649,221.844
330.456,221.844
330.264,221.844
330.072,221.903
329.88,221.903
329.688,221.903
329.496,222.023
329.303,222.023
329.111,222.082
328.919,222.262
328.727,222.262
328.535,222.262
328.342,222.321
328.15,222.441
327.958,222.5
327.766,222.56
327.574,222.62
327.382,222.68
327.189,222.739
326.997,222.859
326.805,222.918
326.613,222.978
326.421,223.098
326.229,223.336
326.036,223.515
325.844,223.695
325.652,223.874
325.46,224.053
325.268,224.232
325.076,224.411
324.883,224.65
324.691,224.829
324.499,225.008
324.307,225.187
324.115,225.426
323.923,225.545
323.73,225.725
323.538,225.904
323.346,226.083
323.154,226.262
322.962,226.501
322.77,226.68
322.577,226.859
322.385,227.038
322.193,227.217
322.001,227.456
321.809,227.635
321.616,227.874
321.424,228.053
321.232,228.232
321.04,228.411
320.848,228.591
320.656,228.829
320.463,229.008
320.271,229.367
320.079,229.725
319.887,230.083
319.695,230.441
319.503,230.8
319.31,231.218
319.118,231.695
318.926,232.233
318.734,232.83
318.542,233.546
318.35,234.382
318.157,235.278
317.965,236.173
317.773,237.308
317.581,238.502
317.389,239.636
317.197,241.965
317.004,244.472
316.812,246.98
316.62,252.473
316.428,259.936
316.236,267.34
316.044,274.744
315.851,282.147
315.659,289.491
315.467,296.954
315.275,304.298
315.083,311.642
314.89,319.046
314.698,326.39
314.506,333.734
314.314,341.137
314.122,348.481
313.93,355.825
313.737,363.169
313.545,370.513
313.353,377.797
313.161,385.2
312.969,392.365
312.777,396.067
312.584,399.649
312.392,403.232
312.2,405.023
312.008,406.217
311.816,407.292
311.624,408.247
311.431,408.964
311.239,409.62
311.047,410.277
310.855,410.994
310.663,411.71
310.471,412.367
310.278,413.024
310.086,413.621
309.894,414.218
309.702,414.695
309.51,415.054
309.318,415.412
309.125,415.71
308.933,416.128
308.741,416.427
308.549,416.785
308.357,417.143
308.164,417.502
307.972,417.92
307.78,418.278
307.588,418.696
307.396,419.114
307.204,419.77
307.011,422.099
306.819,424.368
306.627,426.696
306.435,429.503
306.243,432.488
306.051,435.473
305.858,438.518
305.666,441.504
305.474,444.489
305.282,447.474
305.09,450.46
304.898,453.445
304.705,456.37
304.513,459.415
304.321,462.401
304.129,465.386
303.937,468.371
303.745,471.297
303.552,474.282
303.36,477.268
303.168,480.253
302.976,483.179
302.784,486.164
302.591,489.209
302.399,492.493
302.207,495.717
302.015,498.881
301.823,500.553
301.631,502.225
301.438,503.897
301.246,505.27
301.054,506.464
300.862,507.658
300.67,508.852
300.478,509.987
300.285,511.062
300.093,512.256
299.901,512.793
299.709,513.032
299.517,513.39
299.325,513.629
299.132,513.808
298.94,514.047
298.748,514.286
298.556,514.286
298.364,514.166
298.172,514.107
297.979,514.047
297.787,513.868
297.595,513.748
297.403,513.569
297.211,513.151
297.018,512.733
296.826,512.256
296.634,510.823
296.442,508.017
296.25,505.151
296.058,502.285
295.865,497.329
295.673,492.194
295.481,487.06
295.289,481.865
295.097,476.73
294.905,471.655
294.712,466.461
294.52,461.326
294.328,456.191
294.136,451.057
293.944,445.922
293.752,440.787
293.559,435.772
293.367,430.577
293.175,425.443
292.983,420.368
292.791,415.233
292.599,410.158
292.406,405.083
292.214,400.008
292.022,394.992
291.83,389.858
291.638,384.723
291.445,379.648
291.253,374.632
291.061,369.498
290.869,364.423
290.677,359.348
290.485,354.332
290.292,349.257
290.1,344.182
289.908,339.107
289.716,334.092
289.524,329.017
289.332,324.001
289.139,318.15
288.947,311.762
288.755,305.313
288.563,298.865
288.371,296.536
288.179,294.268
287.986,291.939
287.794,290.028
287.602,288.655
287.41,287.282
287.218,285.909
287.026,284.774
286.833,283.7
286.641,282.565
286.449,281.49
286.257,280.416
286.065,279.281
285.873,278.207
285.68,277.132
285.488,276.057
285.296,274.982
285.104,273.848
284.912,272.594
284.719,271.281
284.527,269.967
284.335,268.594
284.143,267.101
283.951,265.608
283.759,264.116
283.566,262.563
283.374,261.13
283.182,259.518
282.99,258.026
282.798,255.936
282.606,253.846
282.413,251.816
282.221,249.607
282.029,247.279
281.837,244.89
281.645,242.502
281.453,240.711
281.26,239.159
281.068,237.546
280.876,235.994
280.684,234.561
280.492,233.188
280.3,231.695
280.107,230.322
279.915,228.889
279.723,227.576
279.531,226.202
279.339,225.008
279.147,223.754
278.954,222.62
278.762,221.426
278.57,220.53
278.378,219.635
278.186,218.858
277.993,218.022
277.801,217.724
277.609,217.425
277.417,217.067
277.225,216.769
277.033,216.47
276.84,216.231
276.648,215.873
276.456,215.515
276.264,215.276
276.072,214.918
275.88,214.559
275.687,214.261
275.495,213.962
275.303,213.664
275.111,213.365
274.919,213.067
274.727,212.709
274.534,212.47
274.342,212.112
274.15,211.873
273.958,211.634
273.766,211.395
273.574,211.156
273.381,210.917
273.189,210.679
272.997,210.499
272.805,210.32
272.613,210.082
272.421,209.843
272.228,209.544
272.036,209.305
271.844,209.066
271.652,208.887
271.46,208.649
271.267,208.41
271.075,208.231
270.883,207.992
270.691,207.753
270.499,207.574
270.307,207.335
270.114,207.096
269.922,206.917
269.73,206.738
269.538,206.499
269.346,206.32
269.154,206.021
268.961,205.783
268.769,205.544
268.577,205.305
268.385,205.066
268.193,204.947
268.001,204.648
267.808,204.529
267.616,204.29
267.424,203.991
267.232,203.872
267.04,203.574
266.848,203.335
266.655,203.096
266.463,202.857
266.271,202.678
266.079,202.439
265.887,202.2
265.694,202.021
265.502,201.782
265.31,201.543
265.118,201.364
264.926,201.126
264.734,200.946
264.541,200.708
264.349,200.469
264.157,200.23
263.965,199.991
263.773,199.752
263.581,199.513
263.388,199.275
263.196,199.096
263.004,198.857
262.812,198.678
262.62,198.439
262.428,198.2
262.235,198.021
262.043,197.782
261.851,197.543
261.659,197.364
261.467,197.125
261.275,196.886
261.082,196.707
260.89,196.468
260.698,196.23
260.506,195.991
260.314,195.812
260.122,195.633
259.929,195.453
259.737,195.334
259.545,195.155
259.353,194.976
259.161,194.797
258.968,194.558
258.776,194.379
258.584,194.259
258.392,194.08
258.2,193.901
258.008,193.722
257.815,193.543
257.623,193.364
257.431,193.185
257.239,193.005
257.047,192.886
256.855,192.707
256.662,192.588
256.47,192.408
256.278,192.17
256.086,191.99
255.894,191.811
255.702,191.632
255.509,191.573
255.317,191.393
255.125,191.155
254.933,190.975
254.741,190.856
254.549,190.677
254.356,190.498
254.164,190.319
253.972,190.14
253.78,190.02
253.588,189.781
253.395,189.602
253.203,189.483
253.011,189.363
252.819,189.184
252.627,189.005
252.435,188.826
252.242,188.647
252.05,188.527
251.858,188.289
251.666,188.11
251.474,187.93
251.282,187.811
251.089,187.632
250.897,187.453
250.705,187.274
250.513,187.095
250.321,186.915
250.129,186.736
249.936,186.617
249.744,186.438
249.552,186.259
249.36,186.199
249.168,186.02
248.976,185.841
248.783,185.781
248.591,185.602
248.399,185.423
248.207,185.244
248.015,185.065
247.823,184.885
247.63,184.766
247.438,184.647
247.246,184.467
247.054,184.288
246.862,184.169
246.669,184.05
246.477,183.811
246.285,183.691
246.093,183.512
245.901,183.393
245.709,183.214
245.516,183.034
245.324,182.975
245.132,182.796
244.94,182.617
244.748,182.557
244.556,182.318
244.363,182.139
244.171,182.02
243.979,181.84
243.787,181.721
243.595,181.542
243.403,181.422
243.21,181.243
243.018,181.124
242.826,180.945
242.634,180.825
242.442,180.646
242.25,180.467
242.057,180.407
241.865,180.228
241.673,180.049
241.481,179.87
241.289,179.81
241.096,179.631
240.904,179.452
240.712,179.273
240.52,179.154
240.328,178.974
240.136,178.795
239.943,178.676
239.751,178.557
239.559,178.377
239.367,178.258
239.175,178.079
238.983,177.959
238.79,177.78
238.598,177.661
238.406,177.482
238.214,177.422
238.022,177.243
237.83,177.064
237.637,177.004
237.445,176.825
237.253,176.706
237.061,176.646
236.869,176.467
236.677,176.347
236.484,176.228
236.292,176.109
236.1,175.989
235.908,175.81
235.716,175.75
235.524,175.631
235.331,175.511
235.139,175.392
234.947,175.273
234.755,175.153
234.563,175.094
234.37,174.974
234.178,174.855
233.986,174.676
233.794,174.556
233.602,174.496
233.41,174.317
233.217,174.258
233.025,174.079
232.833,174.079
232.641,173.899
232.449,173.84
232.257,173.661
232.064,173.601
231.872,173.362
231.68,173.302
231.488,173.243
231.296,173.183
231.104,173.064
230.911,173.004
230.719,172.944
230.527,172.884
230.335,172.884
230.143,172.825
229.951,172.765
229.758,172.646
229.566,172.586
229.374,172.526
229.182,172.466
228.99,172.407
228.798,172.347
228.605,172.287
228.413,172.228
228.221,172.168
228.029,172.108
227.837,172.108
227.644,171.989
227.452,171.929
227.26,171.869
227.068,171.81
226.876,171.75
226.684,171.69
226.491,171.69
226.299,171.571
226.107,171.511
225.915,171.511
225.723,171.451
225.531,171.332
225.338,171.272
225.146,171.272
224.954,171.153
224.762,171.093
224.57,171.093
224.378,171.034
224.185,170.914
223.993,170.914
223.801,170.914
223.609,170.854
223.417,170.854
223.225,170.854
223.032,170.854
222.84,170.854
222.648,170.854
222.456,170.914
222.264,170.914
222.072,170.914
221.879,170.914
221.687,170.914
221.495,170.914
221.303,170.914
221.111,170.914
220.918,170.914
220.726,170.914
220.534,170.914
220.342,170.914
220.15,170.914
219.958,170.914
219.765,171.034
219.573,171.034
219.381,171.034
219.189,171.034
218.997,171.093
218.805,171.093
218.612,171.093
218.42,171.093
218.228,171.093
218.036,171.093
217.844,171.093
217.652,171.093
217.459,171.093
217.267,171.153
217.075,171.153
216.883,171.153
216.691,171.272
216.499,171.272
216.306,171.272
216.114,171.332
215.922,171.451
215.73,171.511
215.538,171.511
215.345,171.511
215.153,171.571
214.961,171.69
214.769,171.69
214.577,171.69
214.385,171.75
214.192,171.81
214,171.869
213.808,171.929
213.616,171.929
213.424,171.989
213.232,171.989
213.039,172.108
212.847,172.108
212.655,172.168
212.463,172.228
212.271,172.287
212.079,172.287
211.886,172.347
211.694,172.407
211.502,172.407
211.31,172.466
211.118,172.526
210.926,172.586
210.733,172.586
210.541,172.646
210.349,172.705
210.157,172.765
209.965,172.825
209.772,172.825
209.58,172.884
209.388,172.944
209.196,172.944
209.004,173.004
208.812,173.064
208.619,173.123
208.427,173.183
208.235,173.183
208.043,173.243
207.851,173.302
207.659,173.302
207.466,173.362
207.274,173.481
207.082,173.481
206.89,173.481
206.698,173.601
206.506,173.601
206.313,173.661
206.121,173.661
205.929,173.72
205.737,173.84
205.545,173.84
205.353,173.899
205.16,173.899
204.968,173.899
204.776,174.019
204.584,174.079
204.392,174.079
204.2,174.079
204.007,174.079
203.815,174.138
203.623,174.258
203.431,174.258
203.239,174.258
203.046,174.317
202.854,174.437
202.662,174.437
202.47,174.496
202.278,174.496
202.086,174.556
201.893,174.556
201.701,174.676
201.509,174.676
201.317,174.676
201.125,174.735
200.933,174.795
200.74,174.795
200.548,174.855
200.356,174.855
200.164,174.914
199.972,174.974
199.78,174.974
199.587,175.094
199.395,175.094
199.203,175.094
199.011,175.153
198.819,175.153
198.627,175.213
198.434,175.273
198.242,175.332
198.05,175.332
197.858,175.392
197.666,175.452
197.474,175.511
197.281,175.511
197.089,175.571
196.897,175.631
196.705,175.631
196.513,175.691
196.32,175.75
196.128,175.75
195.936,175.81
195.744,175.81
195.552,175.87
195.36,175.929
195.167,175.929
194.975,175.989
194.783,176.049
194.591,176.049
194.399,176.109
194.207,176.168
194.014,176.228
193.822,176.288
193.63,176.288
193.438,176.347
193.246,176.467
193.054,176.467
192.861,176.467
192.669,176.467
192.477,176.586
192.285,176.646
192.093,176.646
191.901,176.646
191.708,176.646
191.516,176.706
191.324,176.825
191.132,176.825
190.94,176.885
190.747,176.885
190.555,177.004
190.363,177.004
190.171,177.064
189.979,177.064
189.787,177.243
189.594,177.243
189.402,177.303
189.21,177.422
189.018,177.482
188.826,177.482
188.634,177.542
188.441,177.661
188.249,177.661
188.057,177.721
187.865,177.78
187.673,177.84
187.481,177.9
187.288,177.959
187.096,178.079
186.904,178.139
186.712,178.198
186.52,178.258
186.328,178.318
186.135,178.377
185.943,178.437
185.751,178.497
185.559,178.557
185.367,178.616
185.174,178.736
184.982,178.795
184.79,178.855
184.598,178.915
184.406,178.974
184.214,179.034
184.021,179.094
183.829,179.154
183.637,179.213
183.445,179.273
183.253,179.452
183.061,179.452
182.868,179.572
182.676,179.631
182.484,179.631
182.292,179.691
182.1,179.81
181.908,179.87
181.715,179.87
181.523,179.99
181.331,180.049
181.139,180.109
180.947,180.228
180.755,180.228
180.562,180.288
180.37,180.407
180.178,180.467
179.986,180.467
179.794,180.527
179.602,180.646
179.409,180.646
179.217,180.706
179.025,180.766
178.833,180.825
178.641,180.885
178.448,180.945
178.256,181.064
178.064,181.124
177.872,181.184
177.68,181.243
177.488,181.303
177.295,181.363
177.103,181.422
176.911,181.482
176.719,181.542
176.527,181.602
176.335,181.661
176.142,181.721
175.95,181.84
175.758,181.9
175.566,181.96
175.374,182.02
175.182,182.079
174.989,182.139
174.797,182.199
174.605,182.258
174.413,182.318
174.221,182.437
174.029,182.437
173.836,182.557
173.644,182.617
173.452,182.676
173.26,182.676
173.068,182.796
172.876,182.855
172.683,182.855
172.491,182.975
172.299,183.034
172.107,183.034
171.915,183.094
171.722,183.214
171.53,183.214
171.338,183.273
171.146,183.393
170.954,183.452
170.762,183.452
170.569,183.512
170.377,183.632
170.185,183.632
169.993,183.691
169.801,183.751
169.609,183.811
169.416,183.87
169.224,183.93
169.032,184.05
168.84,184.05
168.648,184.109
168.456,184.169
168.263,184.169
168.071,184.229
167.879,184.288
167.687,184.348
167.495,184.408
167.303,184.467
167.11,184.527
166.918,184.587
166.726,184.647
166.534,184.706
166.342,184.766
166.15,184.826
165.957,184.885
165.765,184.945
165.573,185.005
165.381,185.065
165.189,185.124
164.996,185.184
164.804,185.244
164.612,185.244
164.42,185.303
164.228,185.423
164.036,185.423
163.843,185.542
163.651,185.602
163.459,185.602
163.267,185.662
163.075,185.781
162.883,185.841
162.69,185.841
162.498,185.96
162.306,186.02
162.114,186.02
161.922,186.08
161.73,186.199
161.537,186.199
161.345,186.199
161.153,186.259
160.961,186.378
160.769,186.438
160.577,186.438
160.384,186.497
160.192,186.617
160,186.617
159.808,186.677
159.616,186.736
159.423,186.796
159.231,186.856
159.039,186.915
158.847,187.035
158.655,187.035
158.463,187.035
158.27,187.154
158.078,187.214
157.886,187.274
157.694,187.393
157.502,187.453
157.31,187.513
157.117,187.572
156.925,187.692
156.733,187.751
156.541,187.811
156.349,187.93
156.157,187.99
155.964,188.05
155.772,188.169
155.58,188.229
155.388,188.289
155.196,188.408
155.004,188.527
154.811,188.587
154.619,188.587
154.427,188.766
154.235,188.826
154.043,188.826
153.85,189.005
153.658,189.005
153.466,189.184
153.274,189.184
153.082,189.244
152.89,189.423
152.697,189.423
152.505,189.483
152.313,189.602
152.121,189.662
151.929,189.722
151.737,189.781
151.544,189.901
151.352,190.02
151.16,190.02
150.968,190.14
150.776,190.199
150.584,190.259
150.391,190.319
150.199,190.438
150.007,190.498
149.815,190.557
149.623,190.617
149.431,190.737
149.238,190.796
149.046,190.856
148.854,190.975
148.662,191.035
148.47,191.095
148.278,191.214
148.085,191.274
147.893,191.393
147.701,191.513
147.509,191.573
147.317,191.632
147.124,191.752
146.932,191.811
146.74,191.811
146.548,191.99
146.356,191.99
146.164,192.05
145.971,192.17
145.779,192.229
145.587,192.349
145.395,192.408
145.203,192.408
145.011,192.588
144.818,192.588
144.626,192.647
144.434,192.767
144.242,192.826
144.05,192.886
143.858,193.005
143.665,193.065
143.473,193.185
143.281,193.244
143.089,193.304
142.897,193.364
142.705,193.483
142.512,193.543
142.32,193.603
142.128,193.722
141.936,193.782
141.744,193.901
141.552,193.961
141.359,194.02
141.167,194.14
140.975,194.2
140.783,194.379
140.591,194.379
140.398,194.498
140.206,194.558
140.014,194.618
139.822,194.737
139.63,194.797
139.438,194.916
139.245,194.976
139.053,194.976
138.861,195.155
138.669,195.155
138.477,195.215
138.285,195.394
138.092,195.394
137.9,195.453
137.708,195.573
137.516,195.633
137.324,195.692
137.132,195.752
136.939,195.871
136.747,195.991
136.555,195.991
136.363,196.11
136.171,196.17
135.979,196.289
135.786,196.349
135.594,196.409
135.402,196.528
135.21,196.588
135.018,196.707
134.826,196.767
134.633,196.827
134.441,196.886
134.249,197.006
134.057,197.066
133.865,197.125
133.672,197.185
133.48,197.364
133.288,197.483
133.096,197.543
132.904,197.603
132.712,197.722
132.519,197.782
132.327,197.961
132.135,197.961
131.943,198.14
131.751,198.2
131.559,198.379
131.366,198.379
131.174,198.558
130.982,198.558
130.79,198.678
130.598,198.737
130.406,198.857
130.213,198.976
130.021,199.036
129.829,199.155
129.637,199.275
129.445,199.334
129.253,199.454
129.06,199.573
128.868,199.693
128.676,199.752
128.484,199.872
128.292,199.991
128.099,200.051
127.907,200.17
127.715,200.23
127.523,200.349
127.331,200.469
127.139,200.529
126.946,200.708
126.754,200.767
126.562,200.887
126.37,200.946
126.178,201.006
125.986,201.126
125.793,201.305
125.601,201.364
125.409,201.424
125.217,201.543
125.025,201.663
124.833,201.723
124.64,201.842
124.448,201.961
124.256,202.021
124.064,202.081
123.872,202.2
123.68,202.26
123.487,202.379
123.295,202.499
123.103,202.559
122.911,202.678
122.719,202.797
122.526,202.857
122.334,202.976
122.142,203.096
121.95,203.156
121.758,203.335
121.566,203.454
121.373,203.514
121.181,203.574
120.989,203.693
120.797,203.753
120.605,203.872
120.413,203.932
120.22,203.991
120.028,204.111
119.836,204.111
119.644,204.171
119.452,204.29
119.26,204.35
119.067,204.409
118.875,204.529
118.683,204.529
118.491,204.589
118.299,204.648
118.107,204.708
117.914,204.827
117.722,204.947
117.53,204.947
117.338,205.006
117.146,205.126
116.954,205.186
116.761,205.245
116.569,205.365
116.377,205.424
116.185,205.484
115.993,205.544
115.8,205.604
115.608,205.663
115.416,205.783
115.224,205.842
115.032,205.902
114.84,205.962
114.647,206.021
114.455,206.081
114.263,206.141
114.071,206.32
113.879,206.32
113.687,206.439
113.494,206.499
113.302,206.499
113.11,206.559
112.918,206.738
112.726,206.738
112.534,206.857
112.341,206.917
112.149,206.977
111.957,207.096
111.765,207.096
111.573,207.275
111.381,207.335
111.188,207.335
110.996,207.395
110.804,207.514
110.612,207.514
110.42,207.574
110.228,207.634
110.035,207.753
109.843,207.813
109.651,207.932
109.459,207.932
109.267,208.052
109.074,208.111
108.882,208.171
108.69,208.231
108.498,208.35
108.306,208.41
108.114,208.469
107.921,208.529
107.729,208.589
107.537,208.649
107.345,208.708
107.153,208.828
106.961,208.887
106.768,208.947
106.576,209.007
106.384,209.066
106.192,209.126
106,209.186
105.808,209.305
105.615,209.425
105.423,209.484
105.231,209.484
105.039,209.544
104.847,209.664
104.655,209.723
104.462,209.843
104.27,209.902
104.078,209.902
103.886,210.082
103.694,210.082
103.501,210.141
103.309,210.261
103.117,210.32
102.925,210.32
102.733,210.38
102.541,210.499
102.348,210.559
102.156,210.619
101.964,210.679
101.772,210.738
101.58,210.798
101.388,210.917
101.195,210.917
101.003,210.977
100.811,211.097
100.619,211.156
100.427,211.216
100.235,211.276
100.042,211.335
99.8502,211.395
99.6581,211.514
99.4659,211.574
99.2737,211.634
99.0815,211.694
98.8894,211.813
98.6972,211.873
98.505,211.932
98.3129,211.992
98.1207,212.052
97.9285,212.112
97.7363,212.171
97.5442,212.291
97.352,212.291
97.1598,212.47
96.9676,212.47
96.7755,212.529
96.5833,212.649
96.3911,212.709
96.199,212.709
96.0068,212.828
95.8146,212.888
95.6224,212.947
95.4303,213.067
95.2381,213.067" />
</g>
</svg>
