<?xml version="1.0"?>
<svg version="1.1"
     xmlns="http://www.w3.org/2000/svg"
     xmlns:xlink="http://www.w3.org/1999/xlink"
     viewBox="0 0 800 600">
<g>
<text fill="#000000" font-family="sans-serif" font-size="19.0476" text-anchor="start" x="4.7619" y="591.429" >
NIST Chemistry WebBook (https://webbook.nist.gov/chemistry)
</text>
<polyline stroke="#000000" stroke-width="1.19048" fill="none" points="95.2381,514.286
742.857,514.286
742.857,66.6667
95.2381,66.6667
95.2381,514.286" />
<text fill="#000000" font-family="sans-serif" font-size="19.0476" text-anchor="middle" x="419.048" y="24.7619" >
Alpha-PINENE
</text>
<text fill="#000000" font-family="sans-serif" font-size="19.0476" text-anchor="middle" x="419.048" y="53.3333" >
INFRARED SPECTRUM
</text>
<text fill="#000000" font-family="sans-serif" font-size="19.0476" text-anchor="middle" x="419.048" y="558.095" >
Wavenumber (cm-1)
</text>
<text fill="#000000" font-family="sans-serif" font-size="19.0476" text-anchor="middle" transform="translate(20,290.476) rotate(270)" x="0" y="0" >
Percent Transmission (Transmitance)
</text>
<text fill="#000000" font-family="sans-serif" font-size="19.0476" text-anchor="middle" x="636.532" y="534.286" >
1000
</text>
<line stroke="#000000" stroke-width="1.19048" x1="636.532" y1="514.286" x2="636.532" y2="504.762" />
<text fill="#000000" font-family="sans-serif" font-size="19.0476" text-anchor="middle" x="443.212" y="534.286" >
2000
</text>
<line stroke="#000000" stroke-width="1.19048" x1="443.212" y1="514.286" x2="443.212" y2="504.762" />
<text fill="#000000" font-family="sans-serif" font-size="19.0476" text-anchor="middle" x="249.893" y="534.286" >
3000
</text>
<line stroke="#000000" stroke-width="1.19048" x1="249.893" y1="514.286" x2="249.893" y2="504.762" />
<line stroke="#000000" stroke-width="1.19048" x1="733.191" y1="514.286" x2="733.191" y2="509.524" />
<line stroke="#000000" stroke-width="1.19048" x1="713.859" y1="514.286" x2="713.859" y2="509.524" />
<line stroke="#000000" stroke-width="1.19048" x1="694.527" y1="514.286" x2="694.527" y2="509.524" />
<line stroke="#000000" stroke-width="1.19048" x1="675.195" y1="514.286" x2="675.195" y2="509.524" />
<line stroke="#000000" stroke-width="1.19048" x1="655.864" y1="514.286" x2="655.864" y2="509.524" />
<line stroke="#000000" stroke-width="1.19048" x1="636.532" y1="514.286" x2="636.532" y2="509.524" />
<line stroke="#000000" stroke-width="1.19048" x1="617.2" y1="514.286" x2="617.2" y2="509.524" />
<line stroke="#000000" stroke-width="1.19048" x1="597.868" y1="514.286" x2="597.868" y2="509.524" />
<line stroke="#000000" stroke-width="1.19048" x1="578.536" y1="514.286" x2="578.536" y2="509.524" />
<line stroke="#000000" stroke-width="1.19048" x1="559.204" y1="514.286" x2="559.204" y2="509.524" />
<line stroke="#000000" stroke-width="1.19048" x1="539.872" y1="514.286" x2="539.872" y2="509.524" />
<line stroke="#000000" stroke-width="1.19048" x1="520.54" y1="514.286" x2="520.54" y2="509.524" />
<line stroke="#000000" stroke-width="1.19048" x1="501.208" y1="514.286" x2="501.208" y2="509.524" />
<line stroke="#000000" stroke-width="1.19048" x1="481.876" y1="514.286" x2="481.876" y2="509.524" />
<line stroke="#000000" stroke-width="1.19048" x1="462.544" y1="514.286" x2="462.544" y2="509.524" />
<line stroke="#000000" stroke-width="1.19048" x1="443.212" y1="514.286" x2="443.212" y2="509.524" />
<line stroke="#000000" stroke-width="1.19048" x1="423.881" y1="514.286" x2="423.881" y2="509.524" />
<line stroke="#000000" stroke-width="1.19048" x1="404.549" y1="514.286" x2="404.549" y2="509.524" />
<line stroke="#000000" stroke-width="1.19048" x1="385.217" y1="514.286" x2="385.217" y2="509.524" />
<line stroke="#000000" stroke-width="1.19048" x1="365.885" y1="514.286" x2="365.885" y2="509.524" />
<line stroke="#000000" stroke-width="1.19048" x1="346.553" y1="514.286" x2="346.553" y2="509.524" />
<line stroke="#000000" stroke-width="1.19048" x1="327.221" y1="514.286" x2="327.221" y2="509.524" />
<line stroke="#000000" stroke-width="1.19048" x1="307.889" y1="514.286" x2="307.889" y2="509.524" />
<line stroke="#000000" stroke-width="1.19048" x1="288.557" y1="514.286" x2="288.557" y2="509.524" />
<line stroke="#000000" stroke-width="1.19048" x1="269.225" y1="514.286" x2="269.225" y2="509.524" />
<line stroke="#000000" stroke-width="1.19048" x1="249.893" y1="514.286" x2="249.893" y2="509.524" />
<line stroke="#000000" stroke-width="1.19048" x1="230.561" y1="514.286" x2="230.561" y2="509.524" />
<line stroke="#000000" stroke-width="1.19048" x1="211.23" y1="514.286" x2="211.23" y2="509.524" />
<line stroke="#000000" stroke-width="1.19048" x1="191.898" y1="514.286" x2="191.898" y2="509.524" />
<line stroke="#000000" stroke-width="1.19048" x1="172.566" y1="514.286" x2="172.566" y2="509.524" />
<line stroke="#000000" stroke-width="1.19048" x1="153.234" y1="514.286" x2="153.234" y2="509.524" />
<line stroke="#000000" stroke-width="1.19048" x1="133.902" y1="514.286" x2="133.902" y2="509.524" />
<line stroke="#000000" stroke-width="1.19048" x1="114.57" y1="514.286" x2="114.57" y2="509.524" />
<line stroke="#000000" stroke-width="1.19048" x1="95.2381" y1="514.286" x2="95.2381" y2="509.524" />
<text fill="#000000" font-family="sans-serif" font-size="19.0476" text-anchor="end" x="90.4762" y="428.327" >
0.2
</text>
<line stroke="#000000" stroke-width="1.19048" x1="95.2381" y1="424.041" x2="104.762" y2="424.041" />
<text fill="#000000" font-family="sans-serif" font-size="19.0476" text-anchor="end" x="90.4762" y="333.533" >
0.4
</text>
<line stroke="#000000" stroke-width="1.19048" x1="95.2381" y1="329.247" x2="104.762" y2="329.247" />
<text fill="#000000" font-family="sans-serif" font-size="19.0476" text-anchor="end" x="90.4762" y="238.738" >
0.6
</text>
<line stroke="#000000" stroke-width="1.19048" x1="95.2381" y1="234.453" x2="104.762" y2="234.453" />
<text fill="#000000" font-family="sans-serif" font-size="19.0476" text-anchor="end" x="90.4762" y="143.944" >
0.8
</text>
<line stroke="#000000" stroke-width="1.19048" x1="95.2381" y1="139.658" x2="104.762" y2="139.658" />
<line stroke="#000000" stroke-width="1.19048" x1="95.2381" y1="495.137" x2="100" y2="495.137" />
<line stroke="#000000" stroke-width="1.19048" x1="95.2381" y1="471.439" x2="100" y2="471.439" />
<line stroke="#000000" stroke-width="1.19048" x1="95.2381" y1="447.74" x2="100" y2="447.74" />
<line stroke="#000000" stroke-width="1.19048" x1="95.2381" y1="424.041" x2="100" y2="424.041" />
<line stroke="#000000" stroke-width="1.19048" x1="95.2381" y1="400.343" x2="100" y2="400.343" />
<line stroke="#000000" stroke-width="1.19048" x1="95.2381" y1="376.644" x2="100" y2="376.644" />
<line stroke="#000000" stroke-width="1.19048" x1="95.2381" y1="352.946" x2="100" y2="352.946" />
<line stroke="#000000" stroke-width="1.19048" x1="95.2381" y1="329.247" x2="100" y2="329.247" />
<line stroke="#000000" stroke-width="1.19048" x1="95.2381" y1="305.548" x2="100" y2="305.548" />
<line stroke="#000000" stroke-width="1.19048" x1="95.2381" y1="281.85" x2="100" y2="281.85" />
<line stroke="#000000" stroke-width="1.19048" x1="95.2381" y1="258.151" x2="100" y2="258.151" />
<line stroke="#000000" stroke-width="1.19048" x1="95.2381" y1="234.453" x2="100" y2="234.453" />
<line stroke="#000000" stroke-width="1.19048" x1="95.2381" y1="210.754" x2="100" y2="210.754" />
<line stroke="#000000" stroke-width="1.19048" x1="95.2381" y1="187.055" x2="100" y2="187.055" />
<line stroke="#000000" stroke-width="1.19048" x1="95.2381" y1="163.357" x2="100" y2="163.357" />
<line stroke="#000000" stroke-width="1.19048" x1="95.2381" y1="139.658" x2="100" y2="139.658" />
<line stroke="#000000" stroke-width="1.19048" x1="95.2381" y1="115.96" x2="100" y2="115.96" />
<line stroke="#000000" stroke-width="1.19048" x1="95.2381" y1="92.2611" x2="100" y2="92.2611" />
<line stroke="#000000" stroke-width="1.19048" x1="95.2381" y1="68.5625" x2="100" y2="68.5625" />
<polyline stroke="#FF0000" stroke-width="1.19048" fill="none" points="742.857,77.8524
742.664,79.0847
742.47,80.0801
742.277,81.1228
742.084,81.7864
741.891,82.45
741.697,83.1135
741.504,83.7297
741.311,84.3932
741.117,85.0568
740.924,85.5782
740.731,85.7678
740.537,86.0047
740.344,86.1943
740.151,86.3839
739.957,86.6683
739.764,86.7631
739.571,86.9053
739.377,87.0475
739.184,87.1423
738.991,87.2845
738.797,87.4267
738.604,87.5688
738.411,87.9006
738.217,88.3272
738.024,88.7538
737.831,89.133
737.638,89.5595
737.444,90.0809
737.251,90.9341
737.058,91.7872
736.864,91.5502
736.671,90.2231
736.478,88.896
736.284,87.3793
736.091,85.673
735.898,84.0615
735.704,83.1135
735.511,82.3078
735.318,81.9286
735.124,81.4546
734.931,80.9807
734.738,80.5541
734.544,80.0801
734.351,79.6535
734.158,79.227
733.964,78.8004
733.771,78.3738
733.578,78.0894
733.384,77.8524
733.191,77.5681
732.998,77.2837
732.805,77.0467
732.611,76.7149
732.418,76.4305
732.225,76.1461
732.031,76.0514
731.838,75.9091
731.645,75.8144
731.451,75.7196
731.258,75.6248
731.065,75.53
730.871,75.4352
730.678,75.3878
730.485,75.3404
730.291,75.293
730.098,75.293
729.905,75.2456
729.711,75.1982
729.518,75.1982
729.325,75.1508
729.131,75.1034
728.938,75.056
728.745,75.056
728.552,74.9138
728.358,74.582
728.165,74.3451
727.972,73.9659
727.778,73.6815
727.585,73.3497
727.392,73.0653
727.198,72.7335
727.005,72.4492
726.812,72.1174
726.618,71.833
726.425,71.6908
726.232,71.596
726.038,71.4538
725.845,71.3116
725.652,70.0793
725.458,71.0746
725.265,71.122
725.072,71.122
724.878,71.2642
724.685,71.4064
724.492,71.5486
724.298,71.6908
724.105,71.8804
723.912,72.307
723.719,72.5913
723.525,72.9705
723.332,73.3497
723.139,73.8711
722.945,74.7242
722.752,75.5774
722.559,76.4305
722.365,77.2837
722.172,79.3217
721.979,84.0141
721.785,95.4368
721.592,106.907
721.399,118.377
721.205,129.8
721.012,136.246
720.819,137.099
720.625,129.089
720.432,107.428
720.239,85.7678
720.045,82.5921
719.852,79.7009
719.659,77.1889
719.466,74.7242
719.272,72.9705
719.079,71.2168
718.886,70.0793
718.692,68.8944
718.499,68.4204
718.306,68.0412
718.112,66.8563
717.919,67.2355
717.726,66.9985
717.532,66.9037
717.339,66.8089
717.146,66.7615
716.952,66.6667
716.759,66.8563
716.566,67.0459
716.372,67.2355
716.179,67.4724
715.986,67.7094
715.792,67.899
715.599,68.0886
715.406,68.2782
715.212,68.5152
715.019,68.7048
714.826,69.084
714.633,69.4631
714.439,69.9371
714.246,70.2689
714.053,70.6955
713.859,71.0746
713.666,71.5012
713.473,71.8804
713.279,72.307
713.086,72.6862
712.893,73.0653
712.699,73.4919
712.506,73.8711
712.313,74.6768
712.119,75.53
711.926,76.3357
711.733,77.3311
711.539,79.0847
711.346,80.6963
711.153,82.4026
710.959,92.3086
710.766,102.641
710.573,111.599
710.38,111.362
710.186,113.353
709.993,94.9154
709.8,84.3932
709.606,79.5587
709.413,78.6582
709.22,77.7577
709.026,77.5681
708.833,77.3784
708.64,77.2363
708.446,77.1889
708.253,77.1889
708.06,77.4259
707.866,77.7102
707.673,77.9946
707.48,78.4212
707.286,78.8478
707.093,79.2744
706.9,79.7009
706.706,80.1275
706.513,80.5541
706.32,81.028
706.126,81.5968
705.933,82.1182
705.74,82.6396
705.547,83.2083
705.353,83.7297
705.16,84.2984
704.967,84.8198
704.773,85.4834
704.58,86.1943
704.387,86.9053
704.193,87.5688
704,88.0428
703.807,90.2231
703.613,88.9434
703.42,89.4173
703.227,89.0856
703.033,88.5642
702.84,87.8058
702.647,87.0949
702.453,86.3839
702.26,85.7204
702.067,85.2938
701.873,85.0094
701.68,84.725
701.487,84.488
701.294,84.2984
701.1,84.2984
700.907,84.2984
700.714,84.2984
700.52,85.91
700.327,89.2751
700.134,92.6404
699.94,96.0056
699.747,99.3708
699.554,101.361
699.36,100.887
699.167,100.414
698.974,100.034
698.78,99.7499
698.587,99.4182
698.394,99.1338
698.2,98.8494
698.007,98.6124
697.814,98.3754
697.62,98.1858
697.427,98.0436
697.234,97.9014
697.04,97.8066
696.847,97.7592
696.654,97.7119
696.461,97.7119
696.267,97.6645
696.074,97.6645
695.881,97.6645
695.687,97.7119
695.494,97.7592
695.301,98.0436
695.107,98.2806
694.914,98.5176
694.721,98.802
694.527,99.039
694.334,99.3234
694.141,99.6077
693.947,99.8921
693.754,100.129
693.561,100.414
693.367,100.556
693.174,100.603
692.981,100.745
692.787,100.887
692.594,100.935
692.401,101.03
692.208,101.03
692.014,101.03
691.821,101.03
691.628,101.03
691.434,101.03
691.241,101.03
691.048,101.03
690.854,101.03
690.661,101.03
690.468,100.982
690.274,100.887
690.081,100.887
689.888,100.745
689.694,100.65
689.501,100.603
689.308,100.556
689.114,100.461
688.921,100.414
688.728,100.319
688.534,100.319
688.341,100.319
688.148,100.319
687.954,100.271
687.761,100.271
687.568,100.271
687.375,100.271
687.181,100.271
686.988,100.271
686.795,100.414
686.601,100.556
686.408,100.65
686.215,100.793
686.021,100.935
685.828,101.03
685.635,101.172
685.441,101.314
685.248,101.409
685.055,101.788
684.861,102.357
684.668,102.926
684.475,103.494
684.281,104.063
684.088,104.632
683.895,105.532
683.701,106.528
683.508,107.57
683.315,108.613
683.122,110.035
682.928,111.836
682.735,113.685
682.542,116.576
682.348,120.368
682.155,124.349
681.962,130.463
681.768,139.327
681.575,149.28
681.382,159.233
681.188,169.282
680.995,179.235
680.802,189.141
680.608,199.094
680.415,199.521
680.222,199.948
680.028,188.383
679.835,180.23
679.642,172.125
679.448,166.77
679.255,166.675
679.062,165.822
678.868,224.736
678.675,257.772
678.482,290.855
678.289,323.939
678.095,356.927
677.902,389.963
677.709,422.999
677.515,441.389
677.322,436.886
677.129,441.673
676.935,363.942
676.742,327.399
676.549,290.903
676.355,254.407
676.162,217.958
675.969,194.355
675.775,184.401
675.582,174.685
675.389,165.253
675.195,151.65
675.002,138.521
674.809,128.994
674.615,123.875
674.422,121.505
674.229,119.704
674.036,118.187
673.842,116.671
673.649,115.438
673.456,114.443
673.262,113.4
673.069,112.405
672.876,111.41
672.682,110.699
672.489,110.035
672.296,109.277
672.102,108.566
671.909,107.902
671.716,107.333
671.522,106.765
671.329,106.196
671.136,105.627
670.942,105.058
670.749,104.774
670.556,104.584
670.362,104.347
670.169,103.542
669.976,104.774
669.782,105.153
669.589,105.722
669.396,107.096
669.203,108.566
669.009,110.225
668.816,111.741
668.623,115.107
668.429,118.898
668.236,123.212
668.043,127.762
667.849,132.786
667.656,137.668
667.463,142.407
667.269,149.754
667.076,149.612
666.883,148.095
666.689,145.441
666.496,144.161
666.303,144.445
666.109,145.346
665.916,143.687
665.723,149.801
665.529,152.55
665.336,155.868
665.143,159.328
664.95,162.03
664.756,164.068
664.563,165.016
664.37,165.016
664.176,165.016
663.983,164.731
663.79,164.21
663.596,163.689
663.403,162.978
663.21,161.935
663.016,160.845
662.823,159.992
662.63,159.66
662.436,159.47
662.243,159.47
662.05,158.949
661.856,160.134
661.663,163.025
661.47,167.717
661.276,170.419
661.083,172.505
660.89,174.685
660.696,176.533
660.503,178.382
660.31,179.14
660.117,179.899
659.923,180.515
659.73,180.989
659.537,183.501
659.343,186.724
659.15,190.184
658.957,205.777
658.763,221.371
658.57,236.965
658.377,252.511
658.183,255.118
657.99,252.938
657.797,224.073
657.603,195.303
657.41,140.464
657.217,125.676
657.023,119.846
656.83,117.476
656.637,115.344
656.443,114.064
656.25,113.353
656.057,113.116
655.864,113.163
655.67,113.258
655.477,113.922
655.284,114.87
655.09,115.675
654.897,115.107
654.704,112.832
654.51,109.324
654.317,106.054
654.124,103.731
653.93,102.594
653.737,102.167
653.544,102.262
653.35,102.452
653.157,102.831
652.964,103.257
652.77,103.826
652.577,104.584
652.384,105.39
652.19,106.243
651.997,107.381
651.804,109.229
651.61,113.4
651.417,120.605
651.224,129.326
651.031,137.952
650.837,146.626
650.644,154.589
650.451,154.399
650.257,154.778
650.064,136.625
649.871,124.728
649.677,112.879
649.484,109.372
649.291,110.509
649.097,110.746
648.904,111.694
648.711,112.784
648.517,114.016
648.324,114.775
648.131,115.533
647.937,116.244
647.744,117.003
647.551,120.415
647.357,125.297
647.164,131.506
646.971,141.365
646.778,153.498
646.584,165.679
646.391,177.766
646.198,189.899
646.004,197.293
645.811,191.606
645.618,184.401
645.424,177.197
645.231,169.993
645.038,162.836
644.844,160.466
644.651,160.276
644.458,160.134
644.264,156.769
644.071,148.427
643.878,136.625
643.684,126.814
643.491,121.553
643.298,117.192
643.104,114.68
642.911,112.31
642.718,110.414
642.524,108.566
642.331,107.381
642.138,106.338
641.945,105.343
641.751,104.774
641.558,104.3
641.365,103.779
641.171,103.4
640.978,102.783
640.785,102.783
640.591,102.783
640.398,102.783
640.205,102.926
640.011,103.02
639.818,103.257
639.625,103.731
639.431,104.205
639.238,104.679
639.045,105.153
638.851,105.959
638.658,106.86
638.465,107.713
638.271,108.755
638.078,110.888
637.885,113.021
637.692,115.154
637.498,118.567
637.305,120.368
637.112,118.993
636.918,114.064
636.725,112.405
636.532,111.647
636.338,109.893
636.145,111.41
635.952,111.836
635.758,112.974
635.565,114.822
635.372,118.567
635.178,123.543
634.985,133.165
634.792,150.939
634.598,169.139
634.405,187.387
634.212,205.635
634.018,223.836
633.825,234.974
633.632,235.732
633.438,214.451
633.245,195.018
633.052,175.633
632.859,156.247
632.665,136.909
632.472,126.956
632.279,122.738
632.085,121.173
631.892,121.173
631.699,121.126
631.505,121.932
631.312,123.022
631.119,124.586
630.925,126.956
630.732,129.658
630.539,131.364
630.345,131.364
630.152,131.316
629.959,127.856
629.765,127.003
629.572,126.008
629.379,127.714
629.185,130.369
628.992,136.767
628.799,145.014
628.606,145.109
628.412,145.204
628.219,142.881
628.026,139.184
627.832,135.44
627.639,128.615
627.446,123.543
627.252,122.074
627.059,120.652
626.866,120.225
626.672,120.131
626.479,119.183
626.286,120.557
626.092,122.216
625.899,124.87
625.706,127.619
625.512,131.032
625.319,140.038
625.126,155.868
624.932,171.794
624.739,180.752
624.546,180.61
624.352,162.219
624.159,148.806
623.966,135.345
623.773,126.956
623.579,124.349
623.386,123.923
623.193,123.828
622.999,123.828
622.806,124.159
622.613,121.884
622.419,126.292
622.226,128.899
622.033,131.506
621.839,135.013
621.646,138.805
621.453,142.644
621.259,147.953
621.066,155.347
620.873,163.215
620.679,171.936
620.486,197.388
620.293,190.753
620.099,198.668
619.906,174.495
619.713,167.623
619.52,160.134
619.326,150.797
619.133,143.877
618.94,144.256
618.746,143.355
618.553,146.389
618.36,149.849
618.166,154.92
617.973,160.276
617.78,164.874
617.586,173.737
617.393,174.211
617.2,168.476
617.006,161.414
616.813,152.693
616.62,145.915
616.426,139.184
616.233,131.316
616.04,127.572
615.846,124.633
615.653,122.216
615.46,120.415
615.266,118.851
615.073,117.619
614.88,116.434
614.687,114.443
614.493,115.912
614.3,116.386
614.107,118.14
613.913,121.221
613.72,124.112
613.527,127.572
613.333,133.023
613.14,145.583
612.947,166.485
612.753,187.767
612.56,209.048
612.367,213.977
612.173,214.499
611.98,190.231
611.787,173.737
611.593,157.29
611.4,140.701
611.207,127.904
611.013,120.699
610.82,116.908
610.627,114.159
610.434,112.405
610.24,111.267
610.047,110.13
609.854,109.419
609.66,109.324
609.467,109.182
609.274,108.945
609.08,108.661
608.887,108.376
608.694,108.139
608.5,107.855
608.307,107.523
608.114,107.239
607.92,107.049
607.727,107.096
607.534,107.144
607.34,107.381
607.147,108.139
606.954,109.372
606.76,110.604
606.567,111.884
606.374,113.448
606.181,116.576
605.987,120.368
605.794,125.155
605.601,128.994
605.407,138.142
605.214,154.92
605.021,164.542
604.827,178.097
604.634,182.268
604.441,183.501
604.247,168.618
604.054,158.57
603.861,150.086
603.667,136.578
603.474,122.311
603.281,124.112
603.087,124.254
602.894,124.444
602.701,126.814
602.507,129.373
602.314,132.027
602.121,134.587
601.927,141.507
601.734,154.067
601.541,155.015
601.348,153.83
601.154,146.863
600.961,140.701
600.768,135.535
600.574,130.416
600.381,125.392
600.188,120.794
599.994,118.424
599.801,119.088
599.608,119.609
599.414,121.221
599.221,123.638
599.028,126.15
598.834,128.757
598.641,132.217
598.448,137.004
598.254,143.877
598.061,150.323
597.868,170.798
597.674,205.683
597.481,233.315
597.288,233.457
597.094,233.457
596.901,233.979
596.708,198.431
596.515,179.235
596.321,160.845
596.128,161.224
595.935,159.66
595.741,166.201
595.548,177.624
595.355,183.501
595.161,187.008
594.968,190.468
594.775,194.307
594.581,196.535
594.388,198.383
594.195,198.715
594.001,200.943
593.808,198.431
593.615,195.824
593.421,190.468
593.228,184.828
593.035,180.041
592.841,173.69
592.648,162.456
592.455,144.777
592.262,133.355
592.068,122.975
591.875,119.515
591.682,116.766
591.488,115.391
591.295,114.775
591.102,114.064
590.908,113.779
590.715,114.964
590.522,115.486
590.328,116.102
590.135,116.766
589.942,117.476
589.748,118.993
589.555,120.889
589.362,122.88
589.168,125.013
588.975,126.956
588.782,128.52
588.589,129.658
588.395,129.658
588.202,129.184
588.009,129.184
587.815,129.231
587.622,132.407
587.429,137.383
587.235,142.17
587.042,145.251
586.849,148.095
586.655,151.46
586.462,158.096
586.269,171.699
586.075,176.676
585.882,183.975
585.689,194.449
585.495,197.151
585.302,197.199
585.109,197.199
584.915,197.151
584.722,194.829
584.529,190.61
584.335,180.799
584.142,172.789
583.949,164.021
583.755,149.327
583.562,139.279
583.369,133.07
583.176,128.093
582.982,123.875
582.789,120.273
582.596,118.851
582.402,117.476
582.209,116.813
582.016,116.244
581.822,115.675
581.629,115.344
581.436,115.296
581.242,115.296
581.049,115.296
580.856,115.344
580.662,115.438
580.469,115.533
580.276,116.149
580.082,116.813
579.889,117.524
579.696,118.235
579.502,119.088
579.309,120.225
579.116,121.316
578.922,122.453
578.729,123.686
578.536,125.06
578.343,126.482
578.149,127.193
577.956,127.667
577.763,127.43
577.569,127.098
577.376,126.719
577.183,126.292
576.989,125.866
576.796,125.581
576.603,125.629
576.409,125.676
576.216,126.245
576.023,127.098
575.829,128.662
575.636,130.842
575.443,133.118
575.249,136.293
575.056,139.421
574.863,143.498
574.669,147.905
574.476,152.977
574.283,158.238
574.09,165.016
573.896,173.168
573.703,183.122
573.51,201.417
573.316,204.829
573.123,205.019
572.93,204.119
572.736,190.99
572.543,185.017
572.35,185.254
572.156,184.212
571.963,184.733
571.77,186.819
571.576,185.918
571.383,183.69
571.19,167.101
570.996,150.655
570.803,144.256
570.61,137.004
570.417,133.165
570.223,131.696
570.03,131.127
569.837,131.032
569.643,130.985
569.45,130.937
569.257,130.037
569.063,131.316
568.87,131.696
568.677,132.17
568.483,133.592
568.29,136.056
568.097,138.473
567.903,141.459
567.71,144.825
567.517,148.996
567.323,153.404
567.13,158.57
566.937,164.21
566.743,171.13
566.55,195.208
566.357,239.903
566.163,306.07
565.97,396.646
565.777,396.788
565.583,360.814
565.39,317.919
565.197,274.977
565.004,232.083
564.81,217.722
564.617,217.485
564.424,242.036
564.23,264.455
564.037,286.827
563.844,300.572
563.65,287.775
563.457,265.972
563.264,245.022
563.07,245.354
562.877,289.576
562.684,335.077
562.49,345.41
562.297,274.551
562.104,216.774
561.91,202.46
561.717,187.435
561.524,179.472
561.33,172.647
561.137,167.244
560.944,161.935
560.75,157.101
560.557,151.365
560.364,143.924
560.171,139.516
559.977,136.578
559.784,135.25
559.591,135.25
559.397,135.25
559.204,135.582
559.011,135.961
558.817,136.578
558.624,137.289
558.431,138.094
558.237,138.947
558.044,139.801
557.851,140.606
557.657,141.507
557.464,142.313
557.271,143.498
557.077,144.635
556.884,146.294
556.691,148.285
556.497,150.181
556.304,152.219
556.111,154.399
555.918,156.579
555.724,158.712
555.531,161.366
555.338,164.826
555.144,168.239
554.951,171.651
554.758,178.192
554.564,185.16
554.371,191.463
554.178,197.72
553.984,204.166
553.791,210.612
553.598,219.38
553.404,243.221
553.211,267.346
553.018,290.429
552.824,313.511
552.631,336.594
552.438,363.8
552.245,364.937
552.051,360.387
551.858,353.894
551.665,347.353
551.471,344.225
551.278,346.215
551.085,353.799
550.891,361.335
550.698,368.871
550.505,376.407
550.311,383.943
550.118,385.176
549.925,384.891
549.731,383.706
549.538,366.833
549.345,348.68
549.151,330.479
548.958,312.326
548.765,294.126
548.571,275.973
548.378,257.772
548.185,240.994
547.991,242.036
547.798,241.467
547.605,250.283
547.411,259.431
547.218,268.579
547.025,277.726
546.832,286.874
546.638,296.022
546.445,305.169
546.252,314.317
546.058,323.465
545.865,331.333
545.672,330.669
545.478,322.801
545.285,306.402
545.092,289.955
544.898,273.555
544.705,257.109
544.512,240.662
544.318,224.262
544.125,205.73
543.932,197.578
543.738,191.748
543.545,186.534
543.352,181.605
543.158,176.865
542.965,173.453
542.772,170.751
542.578,168.239
542.385,166.106
542.192,164.21
541.999,162.362
541.805,161.271
541.612,160.466
541.419,160.513
541.225,159.186
541.032,160.987
540.839,161.414
540.645,161.793
540.452,162.551
540.259,163.641
540.065,165.205
539.872,166.77
539.679,168.381
539.485,169.898
539.292,171.177
539.099,172.457
538.905,173.5
538.712,174.021
538.519,174.827
538.326,175.68
538.132,178.334
537.939,181.178
537.746,183.833
537.552,186.202
537.359,189.046
537.166,191.843
536.972,194.497
536.779,196.914
536.586,199.331
536.392,201.749
536.199,203.929
536.006,205.967
535.812,208.005
535.619,210.043
535.426,212.129
535.232,214.356
535.039,216.963
534.846,219.57
534.652,222.129
534.459,225.779
534.266,229.571
534.073,232.983
533.879,236.254
533.686,239.382
533.493,242.51
533.299,245.638
533.106,249.525
532.913,253.933
532.719,258.246
532.526,262.417
532.333,266.493
532.139,271.328
531.946,277.063
531.753,283.035
531.559,289.86
531.366,294.837
531.173,298.155
530.979,300.145
530.786,302.136
530.593,304.127
530.399,303.937
530.206,303.7
530.013,303.416
529.819,302.894
529.626,302.326
529.433,301.378
529.24,299.339
529.046,295.121
528.853,289.528
528.66,283.035
528.466,278.627
528.273,273.366
528.08,269.195
527.886,266.019
527.693,263.175
527.5,260.426
527.306,257.583
527.113,254.739
526.92,251.942
526.726,249.62
526.533,247.44
526.34,245.212
526.146,243.032
525.953,240.994
525.76,239.003
525.566,237.012
525.373,235.353
525.18,234.074
524.986,232.794
524.793,231.514
524.6,230.234
524.406,229.002
524.213,227.817
524.02,226.585
523.827,225.4
523.633,223.978
523.44,221.94
523.247,219.949
523.053,217.958
522.86,215.683
522.667,213.124
522.473,210.517
522.28,207.91
522.087,205.303
521.893,202.602
521.7,199.948
521.507,197.199
521.313,194.497
521.12,191.463
520.927,188.383
520.733,185.254
520.54,182.126
520.347,178.287
520.154,174.069
519.96,169.898
519.767,164.731
519.574,157.432
519.38,151.271
519.187,147.811
518.994,144.351
518.8,142.028
518.607,139.801
518.414,137.525
518.22,135.44
518.027,134.065
517.834,133.023
517.64,132.027
517.447,130.985
517.254,129.942
517.06,129.041
516.867,128.141
516.674,127.288
516.48,126.482
516.287,125.961
516.094,125.818
515.901,125.724
515.707,125.581
515.514,125.439
515.321,125.344
515.127,125.013
514.934,124.491
514.741,123.875
514.547,122.643
514.354,121.079
514.161,119.278
513.967,120.131
513.774,121.41
513.581,122.738
513.387,123.638
513.194,124.254
513.001,124.823
512.807,124.586
512.614,124.254
512.421,123.923
512.227,123.401
512.034,122.074
511.841,120.984
511.647,121.79
511.454,121.742
511.261,124.254
511.068,125.534
510.874,126.861
510.681,128.141
510.488,130.179
510.294,132.501
510.101,135.961
509.908,144.588
509.714,151.508
509.521,158.238
509.328,158.238
509.134,158.238
508.941,155.726
508.748,157.101
508.554,151.745
508.361,138.142
508.168,129.515
507.974,124.349
507.781,122.311
507.588,120.462
507.394,119.42
507.201,118.33
507.008,117.476
506.814,116.671
506.621,116.055
506.428,115.533
506.235,114.964
506.041,114.301
505.848,113.637
505.655,112.974
505.461,112.31
505.268,111.647
505.075,110.888
504.881,109.94
504.688,109.087
504.495,108.234
504.301,107.76
504.108,108.139
503.915,108.471
503.721,108.803
503.528,109.135
503.335,109.372
503.141,109.609
502.948,109.466
502.755,108.803
502.561,108.139
502.368,107.523
502.175,106.954
501.982,106.386
501.788,105.675
501.595,103.873
501.402,102.025
501.208,102.025
501.015,102.025
500.822,102.926
500.628,103.873
500.435,104.821
500.242,105.058
500.048,105.343
499.855,105.627
499.662,105.675
499.468,105.675
499.275,105.675
499.082,105.675
498.888,105.675
498.695,105.675
498.502,105.722
498.308,105.769
498.115,105.864
497.922,105.959
497.728,106.054
497.535,106.149
497.342,106.243
497.149,106.338
496.955,106.386
496.762,106.433
496.569,106.48
496.375,106.528
496.182,106.575
495.989,106.623
495.795,106.67
495.602,106.338
495.409,105.912
495.215,105.485
495.022,105.058
494.829,105.011
494.635,105.011
494.442,105.722
494.249,106.386
494.055,107.096
493.862,107.665
493.669,107.855
493.475,108.044
493.282,108.234
493.089,108.329
492.896,108.139
492.702,107.997
492.509,107.855
492.316,107.665
492.122,107.523
491.929,107.049
491.736,106.575
491.542,106.054
491.349,105.627
491.156,105.153
490.962,104.821
490.769,104.584
490.576,104.347
490.382,104.395
490.189,104.442
489.996,104.49
489.802,104.584
489.609,104.632
489.416,104.774
489.222,104.964
489.029,105.201
488.836,105.485
488.642,105.675
488.449,105.675
488.256,105.675
488.063,104.537
487.869,103.826
487.676,103.257
487.483,102.594
487.289,102.215
487.096,102.357
486.903,102.499
486.709,102.783
486.516,103.02
486.323,103.257
486.129,103.305
485.936,103.352
485.743,103.4
485.549,103.447
485.356,103.542
485.163,103.589
484.969,103.637
484.776,103.637
484.583,103.637
484.389,103.542
484.196,103.4
484.003,103.257
483.81,103.163
483.616,103.02
483.423,102.926
483.23,102.926
483.036,102.926
482.843,102.973
482.65,103.02
482.456,103.115
482.263,103.163
482.07,103.257
481.876,103.305
481.683,103.352
481.49,103.352
481.296,103.352
481.103,103.352
480.91,103.4
480.716,103.4
480.523,103.4
480.33,103.4
480.136,103.4
479.943,103.447
479.75,103.447
479.556,103.447
479.363,103.447
479.17,103.542
478.977,103.637
478.783,103.731
478.59,103.826
478.397,103.968
478.203,104.063
478.01,104.158
477.817,104.253
477.623,104.347
477.43,104.49
477.237,104.679
477.043,104.916
476.85,105.153
476.657,105.058
476.463,105.011
476.27,105.817
476.077,106.054
475.883,106.291
475.69,106.48
475.497,106.717
475.303,106.717
475.11,106.67
474.917,106.623
474.724,106.575
474.53,106.575
474.337,106.528
474.144,106.528
473.95,106.48
473.757,106.48
473.564,106.433
473.37,106.433
473.177,106.386
472.984,106.386
472.79,106.386
472.597,106.386
472.404,106.528
472.21,106.67
472.017,106.812
471.824,106.954
471.63,107.096
471.437,107.191
471.244,107.191
471.05,107.191
470.857,107.191
470.664,107.191
470.47,107.191
470.277,107.049
470.084,106.907
469.891,106.765
469.697,106.67
469.504,106.528
469.311,106.386
469.117,106.291
468.924,106.243
468.731,106.243
468.537,106.196
468.344,106.149
468.151,106.149
467.957,106.101
467.764,106.006
467.571,105.912
467.377,105.817
467.184,105.722
466.991,105.627
466.797,105.627
466.604,105.627
466.411,105.627
466.217,105.627
466.024,105.675
465.831,105.675
465.638,105.722
465.444,105.627
465.251,105.39
465.058,105.295
464.864,105.153
464.671,104.916
464.478,104.774
464.284,104.632
464.091,104.442
463.898,104.3
463.704,104.11
463.511,103.826
463.318,103.494
463.124,103.163
462.931,102.831
462.738,102.546
462.544,102.215
462.351,101.883
462.158,101.646
461.964,101.646
461.771,101.598
461.578,101.409
461.384,101.267
461.191,101.219
460.998,101.172
460.805,101.124
460.611,101.077
460.418,101.03
460.225,100.982
460.031,100.935
459.838,100.887
459.645,100.887
459.451,100.793
459.258,100.793
459.065,100.793
458.871,100.887
458.678,100.887
458.485,100.935
458.291,100.982
458.098,101.077
457.905,101.124
457.711,101.219
457.518,101.361
457.325,101.456
457.131,101.551
456.938,101.646
456.745,101.741
456.552,101.835
456.358,101.978
456.165,102.072
455.972,102.167
455.778,102.262
455.585,102.357
455.392,102.452
455.198,102.546
455.005,102.594
454.812,102.689
454.618,102.783
454.425,102.831
454.232,102.926
454.038,102.926
453.845,102.926
453.652,102.926
453.458,102.973
453.265,103.352
453.072,103.731
452.878,104.11
452.685,104.49
452.492,104.821
452.298,104.016
452.105,102.594
451.912,100.982
451.719,98.3754
451.525,95.5316
451.332,92.9721
451.139,95.1998
450.945,97.7592
450.752,99.8921
450.559,102.025
450.365,102.831
450.172,103.684
449.979,103.731
449.785,103.731
449.592,103.731
449.399,103.684
449.205,103.637
449.012,103.589
448.819,103.542
448.625,103.447
448.432,103.352
448.239,103.257
448.045,103.163
447.852,103.115
447.659,103.163
447.466,103.257
447.272,103.305
447.079,103.447
446.886,103.779
446.692,104.063
446.499,104.395
446.306,104.679
446.112,105.058
445.919,105.485
445.726,105.959
445.532,104.49
445.339,101.741
445.146,99.039
444.952,96.2899
444.759,93.5409
444.566,92.2612
444.372,92.9247
444.179,94.8206
443.986,98.6124
443.792,99.6077
443.599,99.8447
443.406,99.3708
443.212,95.342
443.019,93.0669
442.826,90.7919
442.633,90.6971
442.439,90.6023
442.246,90.5549
442.053,90.4601
441.859,90.4127
441.666,90.3179
441.473,90.2705
441.279,90.1757
441.086,90.1283
440.893,90.0335
440.699,89.9861
440.506,89.8913
440.313,89.7965
440.119,89.7018
439.926,89.6069
439.733,89.5595
439.539,89.6069
439.346,89.6069
439.153,89.7018
438.959,89.7965
438.766,89.8913
438.573,89.9861
438.38,90.1757
438.186,90.3179
437.993,90.5075
437.8,90.6971
437.606,90.9341
437.413,91.0763
437.22,91.2658
437.026,91.4081
436.833,91.4554
436.64,91.5028
436.446,91.5976
436.253,91.645
436.06,91.6924
435.866,91.6924
435.673,91.645
435.48,91.5976
435.286,91.5502
435.093,91.5028
434.9,91.4554
434.706,91.4081
434.513,91.4081
434.32,91.3132
434.126,91.2658
433.933,91.2658
433.74,91.2658
433.547,91.1711
433.353,91.1711
433.16,91.1711
432.967,91.1711
432.773,91.1711
432.58,91.1711
432.387,91.1711
432.193,91.1711
432,91.1711
431.807,91.1236
431.613,91.0763
431.42,91.0763
431.227,90.9814
431.033,90.9341
430.84,90.9341
430.647,90.8393
430.453,90.7919
430.26,90.7445
430.067,90.6971
429.873,90.6971
429.68,90.6497
429.487,90.6023
429.294,90.5549
429.1,90.5075
428.907,90.4601
428.714,90.4127
428.52,90.3653
428.327,90.3179
428.134,90.2705
427.94,90.2231
427.747,90.1283
427.554,90.0335
427.36,89.9387
427.167,89.8913
426.974,89.7965
426.78,89.7491
426.587,89.6543
426.394,89.6543
426.2,89.6543
426.007,89.7018
425.814,89.7491
425.62,89.7965
425.427,89.8439
425.234,89.8913
425.04,89.9387
424.847,89.9861
424.654,90.0335
424.461,90.0809
424.267,90.1283
424.074,90.1757
423.881,90.1757
423.687,90.2231
423.494,90.2705
423.301,90.3179
423.107,90.3179
422.914,90.3653
422.721,90.4127
422.527,90.4601
422.334,90.4601
422.141,90.5075
421.947,90.5075
421.754,90.5549
421.561,90.6023
421.367,90.6971
421.174,90.7445
420.981,90.8393
420.787,90.9341
420.594,90.9814
420.401,91.0763
420.208,91.1236
420.014,91.1711
419.821,91.2658
419.628,91.2658
419.434,91.2658
419.241,91.2658
419.048,91.2658
418.854,91.2658
418.661,91.2658
418.468,91.2658
418.274,91.2658
418.081,91.2658
417.888,91.2658
417.694,91.1711
417.501,91.1711
417.308,91.1711
417.114,91.1711
416.921,91.1236
416.728,91.1236
416.534,91.1236
416.341,91.1236
416.148,91.1236
415.954,91.1236
415.761,91.0763
415.568,91.0763
415.375,91.0763
415.181,91.0763
414.988,91.0763
414.795,91.0763
414.601,90.9814
414.408,90.9341
414.215,90.9341
414.021,90.8393
413.828,90.7445
413.635,90.6971
413.441,90.6497
413.248,90.6023
413.055,90.5549
412.861,90.5075
412.668,90.4601
412.475,90.4127
412.281,90.3653
412.088,90.3179
411.895,90.2231
411.701,90.1757
411.508,90.1283
411.315,90.0809
411.122,89.9861
410.928,89.9387
410.735,89.8439
410.542,89.7965
410.348,89.7491
410.155,89.7018
409.962,89.6069
409.768,89.5595
409.575,89.4648
409.382,89.4173
409.188,89.3226
408.995,89.2751
408.802,89.2278
408.608,89.1804
408.415,89.0856
408.222,89.0856
408.028,89.0856
407.835,89.0856
407.642,89.0856
407.448,89.0856
407.255,89.0856
407.062,89.0856
406.868,89.0856
406.675,89.0856
406.482,89.0856
406.289,89.2278
406.095,89.37
405.902,89.5595
405.709,89.7018
405.515,89.8913
405.322,90.0809
405.129,90.2231
404.935,90.3179
404.742,90.3653
404.549,90.4127
404.355,90.4601
404.162,90.5075
403.969,90.5549
403.775,90.6023
403.582,90.6497
403.389,90.6971
403.195,90.7445
403.002,90.7919
402.809,90.8393
402.615,90.9341
402.422,90.9341
402.229,90.9814
402.036,90.9814
401.842,90.9341
401.649,90.9341
401.456,90.9341
401.262,90.9341
401.069,90.8393
400.876,90.8393
400.682,90.7919
400.489,90.7919
400.296,90.7445
400.102,90.7445
399.909,90.6971
399.716,90.6971
399.522,90.6497
399.329,90.6497
399.136,90.6023
398.942,90.6023
398.749,90.6023
398.556,90.6023
398.362,90.6023
398.169,90.6023
397.976,90.6023
397.783,90.6023
397.589,90.6023
397.396,90.6023
397.203,90.6023
397.009,90.6023
396.816,90.6023
396.623,90.6023
396.429,90.6023
396.236,90.6497
396.043,90.6971
395.849,90.7445
395.656,90.7919
395.463,90.9341
395.269,90.9341
395.076,91.1711
394.883,91.4081
394.689,91.5502
394.496,91.7398
394.303,91.9768
394.109,92.1664
393.916,92.4034
393.723,92.593
393.529,92.8299
393.336,93.0195
393.143,93.3039
392.95,93.4461
392.756,93.6831
392.563,93.8727
392.37,94.1097
392.176,94.2993
391.983,94.5362
391.79,94.7732
391.596,95.0102
391.403,95.2472
391.21,95.4842
391.016,95.7212
390.823,96.0056
390.63,96.1951
390.436,96.4321
390.243,96.6691
390.05,96.9061
389.856,97.0957
389.663,97.3327
389.47,97.5696
389.276,97.8066
389.083,98.0436
388.89,98.2332
388.697,98.5176
388.503,98.7072
388.31,98.9442
388.117,99.1812
387.923,99.3708
387.73,99.3708
387.537,99.3234
387.343,99.2759
387.15,99.1812
386.957,99.1338
386.763,99.0864
386.57,99.039
386.377,98.9442
386.183,98.8494
385.99,98.7546
385.797,98.6124
385.603,98.5176
385.41,98.3754
385.217,98.1858
385.023,98.0436
384.83,97.8541
384.637,97.7119
384.443,97.5696
384.25,97.4275
384.057,97.2379
383.864,97.0957
383.67,96.9061
383.477,96.7165
383.284,96.5269
383.09,96.3373
382.897,96.1478
382.704,96.0056
382.51,95.816
382.317,95.6738
382.124,95.4368
381.93,95.2472
381.737,95.0576
381.544,94.868
381.35,94.6784
381.157,94.5362
380.964,94.3466
380.77,94.2045
380.577,94.0149
380.384,93.8727
380.19,93.6831
379.997,93.5409
379.804,93.4461
379.611,93.3039
379.417,93.0669
379.224,92.9247
379.031,92.7826
378.837,92.6404
378.644,92.4507
378.451,92.3086
378.257,92.1664
378.064,92.0242
377.871,91.882
377.677,91.7398
377.484,91.5976
377.291,91.5028
377.097,91.4081
376.904,91.2658
376.711,91.0763
376.517,90.9814
376.324,90.8393
376.131,90.7445
375.937,90.6023
375.744,90.4601
375.551,90.3179
375.357,90.2231
375.164,90.0809
374.971,90.0335
374.778,90.0335
374.584,90.0809
374.391,90.1757
374.198,90.2705
374.004,90.3653
373.811,90.4601
373.618,90.5549
373.424,90.6497
373.231,90.7445
373.038,90.9341
372.844,90.9814
372.651,91.2658
372.458,91.5028
372.264,91.7398
372.071,91.9768
371.878,92.2612
371.684,92.4982
371.491,92.7352
371.298,92.9721
371.104,93.3039
370.911,93.4935
370.718,93.7779
370.525,94.0149
370.331,94.2993
370.138,94.5362
369.945,94.8206
369.751,95.105
369.558,95.2472
369.365,95.2946
369.171,95.2472
368.978,95.1998
368.785,95.105
368.591,95.0102
368.398,94.9154
368.205,94.7732
368.011,94.631
367.818,94.4889
367.625,94.3466
367.431,94.2045
367.238,94.0623
367.045,93.9201
366.851,93.7779
366.658,93.6357
366.465,93.4935
366.271,93.3513
366.078,93.2091
365.885,93.0669
365.692,92.9247
365.498,92.7826
365.305,92.6877
365.112,92.5456
364.918,92.4034
364.725,92.2612
364.532,92.119
364.338,91.9768
364.145,91.882
363.952,91.7398
363.758,91.5976
363.565,91.4554
363.372,91.4554
363.178,91.4554
362.985,91.5028
362.792,91.5502
362.598,91.5976
362.405,91.645
362.212,91.6924
362.018,91.7398
361.825,91.7872
361.632,91.8346
361.439,91.882
361.245,91.882
361.052,91.9294
360.859,91.9294
360.665,91.9768
360.472,91.9768
360.279,92.0242
360.085,92.0242
359.892,92.0716
359.699,92.0716
359.505,92.0716
359.312,92.0716
359.119,92.119
358.925,92.119
358.732,92.1664
358.539,92.1664
358.345,92.2138
358.152,92.2138
357.959,92.2612
357.765,92.3086
357.572,92.4034
357.379,92.4982
357.185,92.593
356.992,92.6877
356.799,92.7826
356.606,92.8773
356.412,92.9721
356.219,93.0195
356.026,93.1143
355.832,93.2091
355.639,93.3039
355.446,93.3513
355.252,93.4461
355.059,93.5409
354.866,93.6357
354.672,93.6831
354.479,93.7779
354.286,93.8727
354.092,93.9675
353.899,94.0149
353.706,94.1097
353.512,94.2045
353.319,94.2519
353.126,94.2519
352.932,94.2519
352.739,94.2045
352.546,94.2045
352.353,94.157
352.159,94.157
351.966,94.1097
351.773,94.1097
351.579,94.0623
351.386,94.0623
351.193,94.0149
350.999,93.9675
350.806,93.9201
350.613,93.9201
350.419,93.9201
350.226,93.9201
350.033,93.8727
349.839,93.8727
349.646,93.8253
349.453,93.8253
349.259,93.7779
349.066,93.7779
348.873,93.7779
348.679,93.6831
348.486,93.6357
348.293,93.6357
348.099,93.4935
347.906,93.4461
347.713,93.3513
347.52,93.3039
347.326,93.3039
347.133,93.2091
346.94,93.1143
346.746,93.0669
346.553,92.9721
346.36,92.9247
346.166,92.9247
345.973,92.9247
345.78,92.9247
345.586,92.9721
345.393,92.9721
345.2,93.0195
345.006,93.0669
344.813,93.1143
344.62,93.1143
344.426,93.1617
344.233,93.2091
344.04,93.3513
343.846,93.4461
343.653,93.6357
343.46,93.6831
343.267,93.8253
343.073,93.9201
342.88,94.0623
342.687,94.157
342.493,94.2993
342.3,94.394
342.107,94.5362
341.913,94.631
341.72,94.6784
341.527,94.7258
341.333,94.7258
341.14,94.7258
340.947,94.7258
340.753,94.7258
340.56,94.7258
340.367,94.7258
340.173,94.7258
339.98,94.7258
339.787,94.7258
339.593,94.7258
339.4,94.6784
339.207,94.631
339.013,94.5836
338.82,94.5362
338.627,94.4889
338.434,94.4415
338.24,94.394
338.047,94.3466
337.854,94.2993
337.66,94.2519
337.467,94.2045
337.274,94.157
337.08,94.1097
336.887,94.0623
336.694,93.9675
336.5,93.8727
336.307,93.7779
336.114,93.6357
335.92,93.4935
335.727,93.3513
335.534,93.3039
335.34,93.1143
335.147,93.1143
334.954,93.0669
334.76,93.3039
334.567,93.4461
334.374,93.6357
334.181,93.7779
333.987,93.9675
333.794,94.1097
333.601,94.2993
333.407,94.4889
333.214,94.6784
333.021,94.868
332.827,95.0576
332.634,95.2472
332.441,95.3894
332.247,95.4368
332.054,95.4368
331.861,95.2946
331.667,94.9628
331.474,94.631
331.281,94.2993
331.087,93.9675
330.894,93.8727
330.701,93.7779
330.507,93.7779
330.314,93.6831
330.121,93.6831
329.927,93.6357
329.734,93.6357
329.541,93.6357
329.348,93.5409
329.154,93.4935
328.961,93.4935
328.768,93.4935
328.574,93.4935
328.381,93.5409
328.188,93.6831
327.994,93.8253
327.801,93.9675
327.608,94.1097
327.414,94.2519
327.221,94.394
327.028,94.5362
326.834,94.6784
326.641,94.8206
326.448,94.9628
326.254,95.105
326.061,95.2472
325.868,95.3894
325.674,95.5316
325.481,95.579
325.288,95.579
325.095,95.6738
324.901,95.6738
324.708,95.7212
324.515,95.816
324.321,95.816
324.128,95.816
323.935,96.0056
323.741,96.1951
323.548,96.3847
323.355,96.5743
323.161,96.7639
322.968,96.9535
322.775,97.1431
322.581,97.3327
322.388,97.5223
322.195,97.5696
322.001,97.5223
321.808,97.4749
321.615,97.3327
321.421,97.1431
321.228,96.9535
321.035,96.7639
320.841,96.5743
320.648,96.3373
320.455,96.1478
320.262,96.0056
320.068,96.0529
319.875,96.1478
319.682,96.3847
319.488,96.6691
319.295,97.6171
319.102,98.565
318.908,99.4655
318.715,100.414
318.522,101.314
318.328,102.215
318.135,103.447
317.942,104.632
317.748,105.864
317.555,107.096
317.362,110.225
317.168,114.822
316.975,114.633
316.782,115.865
316.589,115.818
316.395,115.77
316.202,114.348
316.009,112.926
315.815,111.22
315.622,109.514
315.429,108.187
315.235,106.812
315.042,105.485
314.849,104.11
314.655,102.831
314.462,101.551
314.269,100.745
314.075,99.8447
313.882,99.1812
313.689,98.5176
313.495,98.091
313.302,97.6645
313.109,97.2853
312.915,96.9061
312.722,96.7639
312.529,96.5743
312.335,96.4321
312.142,96.2899
311.949,96.2899
311.755,96.2899
311.562,96.2899
311.369,96.2899
311.176,96.4321
310.982,95.3894
310.789,96.7165
310.596,96.8587
310.402,97.0009
310.209,97.1431
310.016,97.3327
309.822,97.4749
309.629,97.6171
309.436,97.7592
309.242,97.9014
309.049,98.0436
308.856,98.2332
308.662,98.4228
308.469,99.0864
308.276,99.7499
308.082,100.414
307.889,101.03
307.696,102.072
307.503,103.115
307.309,104.205
307.116,105.295
306.923,106.575
306.729,107.855
306.536,109.182
306.343,110.462
306.149,111.789
305.956,113.116
305.763,114.49
305.569,115.818
305.376,117.382
305.183,118.898
304.989,120.462
304.796,121.979
304.603,123.022
304.409,124.112
304.216,126.672
304.023,129.231
303.829,131.222
303.636,133.07
303.443,132.881
303.249,132.691
303.056,132.691
302.863,132.691
302.669,120.225
302.476,117.334
302.283,115.154
302.09,112.974
301.896,110.936
301.703,108.85
301.51,107.855
301.316,106.86
301.123,106.48
300.93,106.054
300.736,105.959
300.543,105.959
300.35,105.959
300.156,106.054
299.963,106.196
299.77,104.395
299.576,106.86
299.383,107.381
299.19,109.04
298.996,110.699
298.803,113.59
298.61,116.481
298.417,116.813
298.223,117.145
298.03,117.003
297.837,116.86
297.643,116.102
297.45,117.334
297.257,113.969
297.063,112.595
296.87,111.457
296.677,110.367
296.483,110.035
296.29,109.703
296.097,109.703
295.903,109.703
295.71,109.703
295.517,109.751
295.323,109.893
295.13,110.035
294.937,110.225
294.743,110.367
294.55,110.509
294.357,110.651
294.163,110.983
293.97,111.267
293.777,111.599
293.583,110.793
293.39,112.31
293.197,112.737
293.004,113.116
292.81,113.543
292.617,113.969
292.424,114.348
292.23,114.964
292.037,115.581
291.844,116.292
291.65,117.003
291.457,117.713
291.264,118.424
291.07,119.183
290.877,119.941
290.684,121.268
290.49,122.548
290.297,124.254
290.104,125.866
289.91,128.188
289.717,130.463
289.524,132.881
289.331,135.25
289.137,137.905
288.944,140.559
288.751,143.687
288.557,146.768
288.364,149.09
288.171,151.365
287.977,153.593
287.784,155.773
287.591,157.48
287.397,159.186
287.204,160.94
287.011,162.646
286.817,164.4
286.624,166.201
286.431,168.049
286.237,169.803
286.044,172.789
285.851,175.633
285.657,179.093
285.464,182.411
285.271,186.676
285.077,190.8
284.884,194.971
284.691,199.094
284.497,203.171
284.304,207.247
284.111,213.645
283.918,220.044
283.724,252.037
283.531,284.03
283.338,303.131
283.144,322.232
282.951,341.381
282.758,360.482
282.564,379.583
282.371,398.731
282.178,417.832
281.984,436.934
281.791,442.052
281.598,447.124
281.404,447.219
281.211,447.55
281.018,420.344
280.824,393.328
280.631,360.814
280.438,328.204
280.245,328.489
280.051,328.678
279.858,331.048
279.665,324.413
279.471,339.959
279.278,346.594
279.085,349.912
278.891,353.088
278.698,354.368
278.505,355.6
278.311,356.927
278.118,358.112
277.925,358.87
277.731,359.629
277.538,360.434
277.345,361.193
277.151,379.393
276.958,397.546
276.765,418.875
276.571,440.204
276.378,456.035
276.185,471.865
275.991,475.42
275.798,478.975
275.605,481.345
275.411,483.715
275.218,485.61
275.025,487.506
274.832,489.639
274.638,491.772
274.445,492.53
274.252,493.289
274.058,493.289
273.865,493.289
273.672,493.241
273.478,493.052
273.285,492.957
273.092,492.72
272.898,492.151
272.705,491.535
272.512,490.208
272.318,488.833
272.125,488.17
271.932,487.459
271.738,487.459
271.545,487.459
271.352,487.696
271.159,486.938
270.965,488.075
270.772,488.265
270.579,489.355
270.385,490.398
270.192,491.772
269.999,493.099
269.805,494.521
269.612,495.943
269.419,498.123
269.225,500.256
269.032,501.868
268.839,503.432
268.645,504.996
268.452,506.513
268.259,508.029
268.065,509.499
267.872,510.589
267.679,511.679
267.485,512.105
267.292,512.532
267.099,512.816
266.905,513.101
266.712,513.243
266.519,513.29
266.326,513.243
266.132,513.196
265.939,513.101
265.746,514.286
265.552,512.911
265.359,512.769
265.166,512.532
264.972,512.295
264.779,512.058
264.586,511.821
264.392,511.584
264.199,511.3
264.006,511.015
263.812,510.731
263.619,510.399
263.426,510.115
263.232,509.736
263.039,509.404
262.846,509.025
262.652,508.645
262.459,507.887
262.266,507.129
262.073,506.418
261.879,505.707
261.686,504.996
261.493,504.285
261.299,503.858
261.106,503.337
260.913,503.432
260.719,503.527
260.526,503.764
260.333,503.764
260.139,503.764
259.946,503.479
259.753,502.579
259.559,501.631
259.366,500.777
259.173,499.877
258.979,498.976
258.786,498.076
258.593,497.128
258.399,496.227
258.206,495.232
258.013,494.237
257.819,493.289
257.626,492.341
257.433,491.488
257.24,490.635
257.046,489.781
256.853,488.928
256.66,488.312
256.466,487.648
256.273,487.032
256.08,486.416
255.886,485.279
255.693,484.141
255.5,483.952
255.306,483.952
255.113,483.952
254.92,484.094
254.726,484.283
254.533,483.667
254.34,485.942
254.146,487.411
253.953,490.587
253.76,493.715
253.566,496.417
253.373,499.071
253.18,499.213
252.986,499.308
252.793,499.356
252.6,499.356
252.407,499.071
252.213,498.787
252.02,497.791
251.827,497.791
251.633,482.719
251.44,468.69
251.247,449.257
251.053,429.824
250.86,410.391
250.667,390.958
250.473,371.525
250.28,352.093
250.087,332.612
249.893,313.179
249.7,302.61
249.507,291.946
249.313,284.789
249.12,277.584
248.927,272.892
248.733,268.152
248.54,264.692
248.347,261.232
248.154,260.474
247.96,259.668
247.767,259.715
247.574,259.052
247.38,262.18
247.187,264.692
246.994,269.716
246.8,274.788
246.607,278.674
246.414,282.561
246.22,287.348
246.027,292.088
245.834,302.705
245.64,313.179
245.447,315.36
245.254,317.493
245.06,317.303
244.867,317.113
244.674,317.161
244.48,317.208
244.287,294.552
244.094,277.537
243.9,263.839
243.707,250.141
243.514,244.454
243.321,238.718
243.127,227.77
242.934,216.821
242.741,202.649
242.547,188.43
242.354,183.88
242.161,179.425
241.967,177.339
241.774,175.254
241.581,173.216
241.387,171.13
241.194,168.808
241.001,166.485
240.807,163.784
240.614,161.082
240.421,158.428
240.227,155.773
240.034,153.167
239.841,150.607
239.647,148.142
239.454,145.773
239.261,143.687
239.068,141.554
238.874,139.706
238.681,137.857
238.488,136.293
238.294,134.634
238.101,133.212
237.908,131.743
237.714,131.032
237.521,130.274
237.328,129.515
237.134,128.757
236.941,128.093
236.748,127.43
236.554,126.956
236.361,126.482
236.168,126.055
235.974,125.581
235.781,125.155
235.588,124.681
235.394,124.254
235.201,123.733
235.008,123.354
234.814,122.927
234.621,122.548
234.428,122.121
234.235,121.742
234.041,121.316
233.848,120.889
233.655,120.462
233.461,120.083
233.268,119.704
233.075,119.372
232.881,119.041
232.688,118.898
232.495,118.756
232.301,118.614
232.108,118.472
231.915,118.33
231.721,118.187
231.528,118.045
231.335,117.903
231.141,117.903
230.948,117.903
230.755,117.903
230.561,117.903
230.368,117.95
230.175,117.95
229.982,117.95
229.788,117.95
229.595,117.998
229.402,117.998
229.208,117.998
229.015,117.998
228.822,117.998
228.628,117.998
228.435,117.95
228.242,117.856
228.048,117.808
227.855,117.713
227.662,117.571
227.468,117.476
227.275,117.334
227.082,117.145
226.888,117.003
226.695,116.86
226.502,116.718
226.308,116.576
226.115,116.434
225.922,116.292
225.729,116.197
225.535,116.055
225.342,115.96
225.149,115.865
224.955,115.77
224.762,115.675
224.569,115.581
224.375,115.486
224.182,115.391
223.989,115.296
223.795,115.249
223.602,115.154
223.409,115.107
223.215,114.964
223.022,114.87
222.829,114.775
222.635,114.633
222.442,114.396
222.249,114.253
222.055,114.111
221.862,113.969
221.669,113.779
221.475,113.637
221.282,113.495
221.089,113.353
220.896,113.163
220.702,113.021
220.509,112.879
220.316,112.737
220.122,112.452
219.929,112.263
219.736,112.026
219.542,111.836
219.349,111.599
219.156,111.41
218.962,111.22
218.769,111.03
218.576,110.793
218.382,110.604
218.189,110.367
217.996,110.225
217.802,109.94
217.609,109.751
217.416,109.514
217.222,109.277
217.029,108.992
216.836,108.708
216.643,108.424
216.449,108.139
216.256,107.855
216.063,107.57
215.869,107.286
215.676,107.002
215.483,106.717
215.289,106.433
215.096,106.149
214.903,105.864
214.709,105.627
214.516,105.343
214.323,105.058
214.129,104.869
213.936,104.679
213.743,104.49
213.549,104.3
213.356,104.11
213.163,103.921
212.969,103.731
212.776,103.542
212.583,103.352
212.389,103.163
212.196,103.115
212.003,102.926
211.81,102.831
211.616,102.689
211.423,102.594
211.23,102.499
211.036,102.404
210.843,102.309
210.65,102.215
210.456,102.072
210.263,101.978
210.07,101.883
209.876,101.788
209.683,101.646
209.49,101.551
209.296,101.456
209.103,101.361
208.91,101.267
208.716,101.267
208.523,101.219
208.33,101.219
208.136,101.172
207.943,101.124
207.75,101.077
207.557,101.077
207.363,101.03
207.17,100.982
206.977,100.935
206.783,100.887
206.59,100.793
206.397,100.745
206.203,100.65
206.01,100.556
205.817,100.461
205.623,100.414
205.43,100.271
205.237,100.177
205.043,100.082
204.85,100.034
204.657,99.9395
204.463,99.8447
204.27,99.7499
204.077,99.6551
203.883,99.5604
203.69,99.5129
203.497,99.4182
203.303,99.3234
203.11,99.2286
202.917,99.1812
202.724,99.1338
202.53,99.0864
202.337,99.039
202.144,99.039
201.95,98.9916
201.757,98.9442
201.564,98.8968
201.37,98.8968
201.177,98.8494
200.984,98.802
200.79,98.7546
200.597,98.7546
200.404,98.7072
200.21,98.7072
200.017,98.6598
199.824,98.6124
199.63,98.565
199.437,98.565
199.244,98.5176
199.05,98.5176
198.857,98.4228
198.664,98.4228
198.471,98.3754
198.277,98.3754
198.084,98.2806
197.891,98.2806
197.697,98.2332
197.504,98.2332
197.311,98.1858
197.117,98.1858
196.924,98.091
196.731,98.091
196.537,98.0436
196.344,98.0436
196.151,97.9488
195.957,97.9488
195.764,97.9014
195.571,97.8541
195.377,97.8066
195.184,97.8066
194.991,97.7592
194.797,97.7119
194.604,97.6645
194.411,97.6645
194.217,97.6171
194.024,97.6171
193.831,97.5696
193.638,97.5223
193.444,97.4749
193.251,97.4749
193.058,97.4275
192.864,97.3801
192.671,97.3327
192.478,97.3327
192.284,97.2853
192.091,97.2379
191.898,97.1905
191.704,97.1905
191.511,97.1431
191.318,97.0957
191.124,97.0483
190.931,97.0483
190.738,97.0009
190.544,96.9535
190.351,96.9061
190.158,96.9061
189.964,96.8587
189.771,96.8587
189.578,96.8113
189.385,96.8113
189.191,96.7639
188.998,96.7639
188.805,96.7639
188.611,96.7639
188.418,96.7165
188.225,96.7165
188.031,96.6691
187.838,96.6691
187.645,96.6691
187.451,96.6691
187.258,96.6217
187.065,96.6217
186.871,96.6217
186.678,96.6217
186.485,96.5743
186.291,96.5743
186.098,96.5269
185.905,96.5269
185.711,96.5269
185.518,96.5269
185.325,96.4795
185.131,96.4795
184.938,96.4795
184.745,96.4795
184.552,96.4321
184.358,96.4321
184.165,96.3847
183.972,96.3373
183.778,96.2899
183.585,96.2425
183.392,96.1951
183.198,96.1478
183.005,96.1478
182.812,96.0529
182.618,96.0056
182.425,96.0056
182.232,95.9108
182.038,95.8633
181.845,95.816
181.652,95.816
181.458,95.7212
181.265,95.6738
181.072,95.6738
180.878,95.579
180.685,95.5316
180.492,95.5316
180.299,95.4842
180.105,95.4368
179.912,95.3894
179.719,95.342
179.525,95.2946
179.332,95.2472
179.139,95.1998
178.945,95.1998
178.752,95.1524
178.559,95.1524
178.365,95.105
178.172,95.105
177.979,95.0576
177.785,95.0576
177.592,95.0102
177.399,95.0102
177.205,94.9628
177.012,94.9628
176.819,94.9154
176.625,94.9154
176.432,94.868
176.239,94.868
176.045,94.8206
175.852,94.8206
175.659,94.7732
175.466,94.7732
175.272,94.7258
175.079,94.7258
174.886,94.6784
174.692,94.6784
174.499,94.631
174.306,94.631
174.112,94.5836
173.919,94.5836
173.726,94.5362
173.532,94.5362
173.339,94.4889
173.146,94.4889
172.952,94.4415
172.759,94.4415
172.566,94.394
172.372,94.394
172.179,94.3466
171.986,94.3466
171.792,94.2993
171.599,94.2993
171.406,94.2519
171.213,94.2519
171.019,94.2045
170.826,94.2045
170.633,94.157
170.439,94.157
170.246,94.1097
170.053,94.1097
169.859,94.0623
169.666,94.0623
169.473,94.0149
169.279,94.0149
169.086,93.9675
168.893,93.9675
168.699,93.9201
168.506,93.9201
168.313,93.8727
168.119,93.8727
167.926,93.8253
167.733,93.8253
167.539,93.7779
167.346,93.7779
167.153,93.7779
166.959,93.7779
166.766,93.6831
166.573,93.6831
166.38,93.6357
166.186,93.6357
165.993,93.6357
165.8,93.6357
165.606,93.5409
165.413,93.5409
165.22,93.4935
165.026,93.4935
164.833,93.4461
164.64,93.4461
164.446,93.4461
164.253,93.4461
164.06,93.3513
163.866,93.3513
163.673,93.3039
163.48,93.3039
163.286,93.3039
163.093,93.3039
162.9,93.2091
162.706,93.2091
162.513,93.1617
162.32,93.1617
162.127,93.1617
161.933,93.1617
161.74,93.1143
161.547,93.1143
161.353,93.0669
161.16,93.0669
160.967,93.0195
160.773,93.0195
160.58,92.9721
160.387,92.9721
160.193,92.9721
160,92.9721
159.807,92.9247
159.613,92.9247
159.42,92.8773
159.227,92.8773
159.033,92.8299
158.84,92.8299
158.647,92.7826
158.453,92.7826
158.26,92.7826
158.067,92.7826
157.873,92.7826
157.68,92.7826
157.487,92.7826
157.294,92.7826
157.1,92.7826
156.907,92.7826
156.714,92.7826
156.52,92.7826
156.327,92.7826
156.134,92.8299
155.94,92.8299
155.747,92.8299
155.554,92.8299
155.36,92.8299
155.167,92.8299
154.974,92.8299
154.78,92.8299
154.587,92.8773
154.394,92.8773
154.2,92.8773
154.007,92.8773
153.814,92.8773
153.62,92.8773
153.427,92.8773
153.234,92.8773
153.041,92.9247
152.847,92.9247
152.654,92.9247
152.461,92.9247
152.267,92.9247
152.074,92.9247
151.881,92.9247
151.687,92.9247
151.494,92.9247
151.301,92.9247
151.107,92.9247
150.914,92.9247
150.721,92.9721
150.527,92.9721
150.334,92.9721
150.141,92.9721
149.947,92.9721
149.754,92.9721
149.561,92.9721
149.367,92.9721
149.174,92.9721
148.981,92.9721
148.787,92.9721
148.594,92.9721
148.401,93.0195
148.208,93.0195
148.014,93.0195
147.821,93.0195
147.628,93.0195
147.434,93.0195
147.241,93.0195
147.048,92.9721
146.854,92.9721
146.661,92.9247
146.468,92.9247
146.274,92.8773
146.081,92.8773
145.888,92.8299
145.694,92.8299
145.501,92.7826
145.308,92.7826
145.114,92.7352
144.921,92.7352
144.728,92.6877
144.534,92.6404
144.341,92.593
144.148,92.5456
143.955,92.4982
143.761,92.4507
143.568,92.4034
143.375,92.356
143.181,92.2612
142.988,92.2138
142.795,92.1664
142.601,92.119
142.408,92.0242
142.215,91.9768
142.021,91.9294
141.828,91.882
141.635,91.8346
141.441,91.7872
141.248,91.6924
141.055,91.645
140.861,91.5976
140.668,91.5502
140.475,91.5028
140.281,91.4554
140.088,91.4081
139.895,91.2658
139.701,91.1711
139.508,91.0763
139.315,90.9341
139.122,90.8393
138.928,90.7445
138.735,90.6497
138.542,90.5549
138.348,90.4601
138.155,90.3653
137.962,90.2705
137.768,90.1757
137.575,90.0809
137.382,90.0809
137.188,90.1283
136.995,90.2231
136.802,90.3179
136.608,90.4127
136.415,90.5075
136.222,90.6023
136.028,90.6971
135.835,90.7919
135.642,90.8393
135.448,90.8393
135.255,90.9341
135.062,90.9341
134.869,90.9341
134.675,90.9341
134.482,90.9341
134.289,90.9341
134.095,90.9341
133.902,90.9341
133.709,90.9814
133.515,90.9814
133.322,90.9814
133.129,90.9814
132.935,90.9814
132.742,90.9341
132.549,90.9341
132.355,90.8393
132.162,90.7919
131.969,90.6971
131.775,90.6497
131.582,90.6023
131.389,90.5549
131.195,90.5075
131.002,90.4601
130.809,90.4127
130.615,90.3653
130.422,90.3179
130.229,90.2705
130.036,90.2231
129.842,90.2231
129.649,90.1757
129.456,90.1757
129.262,90.1757
129.069,90.1757
128.876,90.2231
128.682,90.4127
128.489,90.5549
128.296,90.6971
128.102,90.8393
127.909,91.0763
127.716,91.1711
127.522,91.3132
127.329,91.4554
127.136,91.5028
126.942,91.5028
126.749,91.4081
126.556,91.1711
126.362,91.0763
126.169,90.8393
125.976,90.6971
125.783,90.5075
125.589,90.6023
125.396,90.6497
125.203,90.8393
125.009,90.9814
124.816,91.1711
124.623,91.3132
124.429,91.5028
124.236,91.645
124.043,91.8346
123.849,91.9768
123.656,92.119
123.463,92.2138
123.269,92.356
123.076,92.4507
122.883,92.593
122.689,92.6877
122.496,92.8299
122.303,92.9247
122.109,93.0195
121.916,93.0669
121.723,93.1143
121.529,93.1143
121.336,93.1617
121.143,93.2091
120.95,93.3039
120.756,93.3039
120.563,93.3039
120.37,93.3513
120.176,93.4461
119.983,93.4461
119.79,93.4461
119.596,93.4461
119.403,93.4935
119.21,93.5409
119.016,93.6357
118.823,93.7779
118.63,93.8253
118.436,93.8727
118.243,93.9675
118.05,94.0623
117.856,94.157
117.663,94.2045
117.47,94.2993
117.276,94.394
117.083,94.394
116.89,94.394
116.697,94.394
116.503,94.394
116.31,94.4415
116.117,94.4415
115.923,94.4415
115.73,94.4415
115.537,94.4889
115.343,94.4889
115.15,94.4889
114.957,94.4889
114.763,94.4889
114.57,94.4889
114.377,94.5362
114.183,94.5362
113.99,94.4415
113.797,94.2993
113.603,94.2045
113.41,94.0623
113.217,93.9675
113.023,93.8253
112.83,93.7779
112.637,93.6357
112.443,93.5409
112.25,93.4461
112.057,93.3039
111.864,93.1617
111.67,93.0669
111.477,92.9721
111.284,92.6877
111.09,92.356
110.897,92.0716
110.704,91.7398
110.51,91.4554
110.317,91.1236
110.124,90.8393
109.93,90.5075
109.737,90.2231
109.544,89.9387
109.35,89.6543
109.157,89.3226
108.964,89.0382
108.77,88.6116
108.577,88.4694
108.384,88.3272
108.19,88.8012
107.997,89.2278
107.804,89.7018
107.611,90.1283
107.417,90.6023
107.224,91.0763
107.031,91.5028
106.837,91.9294
106.644,92.4034
106.451,92.8299
106.257,93.1143
106.064,93.3513
105.871,93.5409
105.677,93.6831
105.484,93.8727
105.291,94.0149
105.097,94.157
104.904,94.2993
104.711,94.394
104.517,94.4415
104.324,94.4889
104.131,94.5362
103.937,94.631
103.744,94.6784
103.551,94.7258
103.357,94.7732
103.164,94.8206
102.971,94.8206
102.778,94.868
102.584,94.868
102.391,94.868
102.198,94.868
102.004,94.9154
101.811,94.9154
101.618,94.9628
101.424,94.9628
101.231,94.9628
101.038,94.9628
100.844,95.0102
100.651,95.0102
100.458,95.0576
100.264,95.105
100.071,95.1524
99.8778,95.1524
99.6844,95.1998
99.4911,95.1998
99.2978,95.2472
99.1045,95.2472
98.9112,95.2946
98.7178,95.2946
98.5245,95.342
98.3312,95.3894
98.1379,95.4368
97.9446,95.4368
97.7512,95.4842
97.5579,95.4842
97.3646,95.5316
97.1713,95.5316
96.978,95.579
96.7847,95.579
96.5913,95.6738
96.398,95.6738
96.2047,95.6738
96.0114,95.7212
95.8181,95.816
95.6247,95.816
95.4314,95.816
95.2381,95.816" />
</g>
</svg>
