<?xml version="1.0"?>
<svg version="1.1"
     xmlns="http://www.w3.org/2000/svg"
     xmlns:xlink="http://www.w3.org/1999/xlink"
     viewBox="0 0 800 600">
<g>
<text fill="#000000" font-family="sans-serif" font-size="19.0476" text-anchor="start" x="4.7619" y="591.429" >
NIST Chemistry WebBook (https://webbook.nist.gov/chemistry)
</text>
<polyline stroke="#000000" stroke-width="1.19048" fill="none" points="95.2381,514.286
742.857,514.286
742.857,66.6667
95.2381,66.6667
95.2381,514.286" />
<text fill="#000000" font-family="sans-serif" font-size="19.0476" text-anchor="middle" x="419.048" y="24.7619" >
1,2-o-Isopropylidene-D-glucofuranose
</text>
<text fill="#000000" font-family="sans-serif" font-size="19.0476" text-anchor="middle" x="419.048" y="53.3333" >
INFRARED SPECTRUM
</text>
<text fill="#000000" font-family="sans-serif" font-size="19.0476" text-anchor="middle" x="419.048" y="558.095" >
Wavenumber (cm-1)
</text>
<text fill="#000000" font-family="sans-serif" font-size="19.0476" text-anchor="middle" transform="translate(20,290.476) rotate(270)" x="0" y="0" >
Transmitance
</text>
<text fill="#000000" font-family="sans-serif" font-size="19.0476" text-anchor="middle" x="626.384" y="534.286" >
1000
</text>
<line stroke="#000000" stroke-width="1.19048" x1="626.384" y1="514.286" x2="626.384" y2="504.762" />
<text fill="#000000" font-family="sans-serif" font-size="19.0476" text-anchor="middle" x="436.689" y="534.286" >
2000
</text>
<line stroke="#000000" stroke-width="1.19048" x1="436.689" y1="514.286" x2="436.689" y2="504.762" />
<text fill="#000000" font-family="sans-serif" font-size="19.0476" text-anchor="middle" x="246.994" y="534.286" >
3000
</text>
<line stroke="#000000" stroke-width="1.19048" x1="246.994" y1="514.286" x2="246.994" y2="504.762" />
<line stroke="#000000" stroke-width="1.19048" x1="740.201" y1="514.286" x2="740.201" y2="509.524" />
<line stroke="#000000" stroke-width="1.19048" x1="721.232" y1="514.286" x2="721.232" y2="509.524" />
<line stroke="#000000" stroke-width="1.19048" x1="702.262" y1="514.286" x2="702.262" y2="509.524" />
<line stroke="#000000" stroke-width="1.19048" x1="683.293" y1="514.286" x2="683.293" y2="509.524" />
<line stroke="#000000" stroke-width="1.19048" x1="664.323" y1="514.286" x2="664.323" y2="509.524" />
<line stroke="#000000" stroke-width="1.19048" x1="645.354" y1="514.286" x2="645.354" y2="509.524" />
<line stroke="#000000" stroke-width="1.19048" x1="626.384" y1="514.286" x2="626.384" y2="509.524" />
<line stroke="#000000" stroke-width="1.19048" x1="607.415" y1="514.286" x2="607.415" y2="509.524" />
<line stroke="#000000" stroke-width="1.19048" x1="588.445" y1="514.286" x2="588.445" y2="509.524" />
<line stroke="#000000" stroke-width="1.19048" x1="569.476" y1="514.286" x2="569.476" y2="509.524" />
<line stroke="#000000" stroke-width="1.19048" x1="550.506" y1="514.286" x2="550.506" y2="509.524" />
<line stroke="#000000" stroke-width="1.19048" x1="531.537" y1="514.286" x2="531.537" y2="509.524" />
<line stroke="#000000" stroke-width="1.19048" x1="512.567" y1="514.286" x2="512.567" y2="509.524" />
<line stroke="#000000" stroke-width="1.19048" x1="493.598" y1="514.286" x2="493.598" y2="509.524" />
<line stroke="#000000" stroke-width="1.19048" x1="474.628" y1="514.286" x2="474.628" y2="509.524" />
<line stroke="#000000" stroke-width="1.19048" x1="455.659" y1="514.286" x2="455.659" y2="509.524" />
<line stroke="#000000" stroke-width="1.19048" x1="436.689" y1="514.286" x2="436.689" y2="509.524" />
<line stroke="#000000" stroke-width="1.19048" x1="417.72" y1="514.286" x2="417.72" y2="509.524" />
<line stroke="#000000" stroke-width="1.19048" x1="398.75" y1="514.286" x2="398.75" y2="509.524" />
<line stroke="#000000" stroke-width="1.19048" x1="379.781" y1="514.286" x2="379.781" y2="509.524" />
<line stroke="#000000" stroke-width="1.19048" x1="360.811" y1="514.286" x2="360.811" y2="509.524" />
<line stroke="#000000" stroke-width="1.19048" x1="341.842" y1="514.286" x2="341.842" y2="509.524" />
<line stroke="#000000" stroke-width="1.19048" x1="322.872" y1="514.286" x2="322.872" y2="509.524" />
<line stroke="#000000" stroke-width="1.19048" x1="303.903" y1="514.286" x2="303.903" y2="509.524" />
<line stroke="#000000" stroke-width="1.19048" x1="284.933" y1="514.286" x2="284.933" y2="509.524" />
<line stroke="#000000" stroke-width="1.19048" x1="265.964" y1="514.286" x2="265.964" y2="509.524" />
<line stroke="#000000" stroke-width="1.19048" x1="246.994" y1="514.286" x2="246.994" y2="509.524" />
<line stroke="#000000" stroke-width="1.19048" x1="228.025" y1="514.286" x2="228.025" y2="509.524" />
<line stroke="#000000" stroke-width="1.19048" x1="209.055" y1="514.286" x2="209.055" y2="509.524" />
<line stroke="#000000" stroke-width="1.19048" x1="190.086" y1="514.286" x2="190.086" y2="509.524" />
<line stroke="#000000" stroke-width="1.19048" x1="171.116" y1="514.286" x2="171.116" y2="509.524" />
<line stroke="#000000" stroke-width="1.19048" x1="152.147" y1="514.286" x2="152.147" y2="509.524" />
<line stroke="#000000" stroke-width="1.19048" x1="133.177" y1="514.286" x2="133.177" y2="509.524" />
<line stroke="#000000" stroke-width="1.19048" x1="114.208" y1="514.286" x2="114.208" y2="509.524" />
<line stroke="#000000" stroke-width="1.19048" x1="95.2381" y1="514.286" x2="95.2381" y2="509.524" />
<text fill="#000000" font-family="sans-serif" font-size="19.0476" text-anchor="end" x="90.4762" y="454.559" >
0.2
</text>
<line stroke="#000000" stroke-width="1.19048" x1="95.2381" y1="450.273" x2="104.762" y2="450.273" />
<text fill="#000000" font-family="sans-serif" font-size="19.0476" text-anchor="end" x="90.4762" y="336.996" >
0.4
</text>
<line stroke="#000000" stroke-width="1.19048" x1="95.2381" y1="332.711" x2="104.762" y2="332.711" />
<text fill="#000000" font-family="sans-serif" font-size="19.0476" text-anchor="end" x="90.4762" y="219.434" >
0.6
</text>
<line stroke="#000000" stroke-width="1.19048" x1="95.2381" y1="215.148" x2="104.762" y2="215.148" />
<text fill="#000000" font-family="sans-serif" font-size="19.0476" text-anchor="end" x="90.4762" y="101.871" >
0.8
</text>
<line stroke="#000000" stroke-width="1.19048" x1="95.2381" y1="97.5856" x2="104.762" y2="97.5856" />
<line stroke="#000000" stroke-width="1.19048" x1="95.2381" y1="509.054" x2="100" y2="509.054" />
<line stroke="#000000" stroke-width="1.19048" x1="95.2381" y1="479.664" x2="100" y2="479.664" />
<line stroke="#000000" stroke-width="1.19048" x1="95.2381" y1="450.273" x2="100" y2="450.273" />
<line stroke="#000000" stroke-width="1.19048" x1="95.2381" y1="420.882" x2="100" y2="420.882" />
<line stroke="#000000" stroke-width="1.19048" x1="95.2381" y1="391.492" x2="100" y2="391.492" />
<line stroke="#000000" stroke-width="1.19048" x1="95.2381" y1="362.101" x2="100" y2="362.101" />
<line stroke="#000000" stroke-width="1.19048" x1="95.2381" y1="332.71" x2="100" y2="332.71" />
<line stroke="#000000" stroke-width="1.19048" x1="95.2381" y1="303.32" x2="100" y2="303.32" />
<line stroke="#000000" stroke-width="1.19048" x1="95.2381" y1="273.929" x2="100" y2="273.929" />
<line stroke="#000000" stroke-width="1.19048" x1="95.2381" y1="244.539" x2="100" y2="244.539" />
<line stroke="#000000" stroke-width="1.19048" x1="95.2381" y1="215.148" x2="100" y2="215.148" />
<line stroke="#000000" stroke-width="1.19048" x1="95.2381" y1="185.757" x2="100" y2="185.757" />
<line stroke="#000000" stroke-width="1.19048" x1="95.2381" y1="156.367" x2="100" y2="156.367" />
<line stroke="#000000" stroke-width="1.19048" x1="95.2381" y1="126.976" x2="100" y2="126.976" />
<line stroke="#000000" stroke-width="1.19048" x1="95.2381" y1="97.5855" x2="100" y2="97.5855" />
<line stroke="#000000" stroke-width="1.19048" x1="95.2381" y1="68.1949" x2="100" y2="68.1949" />
<polyline stroke="#FF0000" stroke-width="1.19048" fill="none" points="742.857,306.906
742.667,306.847
742.478,306.847
742.288,306.847
742.098,306.67
741.909,306.494
741.719,306.377
741.529,306.2
741.34,306.024
741.15,305.847
740.96,305.612
740.771,305.377
740.581,305.083
740.391,304.789
740.201,304.554
740.012,304.26
739.822,303.966
739.632,303.731
739.443,303.437
739.253,303.144
739.063,302.85
738.874,302.438
738.684,301.909
738.494,301.321
738.304,300.381
738.115,299.323
737.925,298.147
737.735,296.795
737.546,295.384
737.356,294.032
737.166,292.445
736.977,290.388
736.787,288.331
736.597,286.097
736.408,283.569
736.218,281.042
736.028,278.514
735.838,275.987
735.649,271.284
735.459,266.523
735.269,261.703
735.08,256.471
734.89,249.829
734.7,243.245
734.511,236.897
734.321,231.666
734.131,226.375
733.941,221.144
733.752,215.912
733.562,210.798
733.372,205.802
733.183,200.805
732.993,195.221
732.803,188.873
732.614,182.524
732.424,180.114
732.234,177.998
732.044,175.882
731.855,174.824
731.665,174.236
731.475,173.648
731.286,173.061
731.096,172.414
730.906,171.826
730.717,171.356
730.527,170.886
730.337,170.416
730.148,168.535
729.958,166.36
729.768,164.067
729.578,161.54
729.389,159.012
729.199,156.426
729.009,153.663
728.82,150.606
728.63,147.491
728.44,144.375
728.251,141.201
728.061,138.086
727.871,135.911
727.682,135.088
727.492,134.324
727.302,133.56
727.112,132.796
726.923,131.973
726.733,131.679
726.543,131.561
726.354,131.444
726.164,131.326
725.974,131.326
725.785,131.62
725.595,131.855
725.405,132.09
725.216,133.736
725.026,132.56
724.836,132.796
724.646,133.325
724.457,133.912
724.267,134.5
724.077,135.088
723.888,135.676
723.698,136.264
723.508,136.851
723.319,137.674
723.129,139.026
722.939,140.378
722.749,141.789
722.56,143.141
722.37,144.669
722.18,146.315
721.991,147.961
721.801,149.607
721.611,151.253
721.422,152.84
721.232,154.486
721.042,157.249
720.852,160.07
720.663,162.892
720.473,166.477
720.283,166.301
720.094,165.948
719.904,165.302
719.714,164.42
719.525,163.597
719.335,162.539
719.145,161.54
718.956,160.481
718.766,159.482
718.576,158.659
718.386,157.895
718.197,157.19
718.007,156.543
717.817,155.838
717.628,155.191
717.438,154.486
717.248,153.839
717.059,153.487
716.869,153.369
716.679,153.31
716.49,153.193
716.3,150.841
716.11,153.016
715.92,153.134
715.731,154.016
715.541,154.839
715.351,155.661
715.162,156.543
714.972,157.66
714.782,158.836
714.593,159.952
714.403,161.187
714.213,163.362
714.023,165.537
713.834,167.77
713.644,169.945
713.454,172.473
713.265,175.059
713.075,177.41
712.885,179.174
712.696,180.467
712.506,180.585
712.316,179.703
712.127,180.526
711.937,179.821
711.747,179.056
711.557,177.822
711.368,175.118
711.178,167.947
710.988,156.426
710.799,153.78
710.609,153.193
710.419,152.722
710.23,152.311
710.04,152.076
709.85,151.841
709.661,151.606
709.471,151.488
709.281,151.312
709.091,150.959
708.902,146.903
708.712,141.025
708.522,136.616
708.333,132.031
708.143,127.27
707.953,126.506
707.764,125.859
707.574,125.213
707.384,124.743
707.194,125.33
707.005,125.565
706.815,126.036
706.625,126.8
706.436,127.505
706.246,128.269
706.056,128.975
705.867,130.092
705.677,131.267
705.487,132.443
705.297,133.618
705.108,134.794
704.918,135.97
704.728,137.263
704.539,138.674
704.349,140.026
704.159,141.436
703.97,142.788
703.78,144.199
703.59,145.551
703.401,146.962
703.211,148.314
703.021,149.607
702.831,150.959
702.642,152.311
702.452,153.663
702.262,155.015
702.073,156.367
701.883,157.19
701.693,158.013
701.504,158.836
701.314,159.6
701.124,160.423
700.935,161.246
700.745,162.01
700.555,162.833
700.365,163.656
700.176,164.42
699.986,164.949
699.796,165.36
699.607,165.772
699.417,166.242
699.227,166.654
699.038,167.065
698.848,167.535
698.658,169.651
698.469,172.708
698.279,175.706
698.089,179.409
697.899,183.935
697.71,188.403
697.52,194.633
697.33,200.864
697.141,212.738
696.951,221.79
696.761,221.732
696.572,222.907
696.382,222.731
696.192,181.29
696.002,172.297
695.813,165.066
695.623,159.894
695.433,157.131
695.244,156.249
695.054,155.368
694.864,154.897
694.675,154.662
694.485,154.427
694.295,154.603
694.105,155.25
693.916,155.074
693.726,157.013
693.536,160.188
693.347,163.303
693.157,166.477
692.967,170.18
692.778,173.942
692.588,178.704
692.398,183.935
692.209,189.108
692.019,194.398
691.829,199.747
691.639,205.096
691.45,210.446
691.26,217.97
691.07,226.081
690.881,233.84
690.691,240.894
690.501,247.948
690.312,255.413
690.122,262.114
689.932,261.938
689.742,261.997
689.553,249.182
689.363,236.721
689.173,224.2
688.984,211.68
688.794,199.218
688.604,186.698
688.415,184.405
688.225,182.995
688.035,181.878
687.846,180.702
687.656,179.233
687.466,177.704
687.276,176.117
687.087,174.236
686.897,172.061
686.707,169.887
686.518,167.594
686.328,165.36
686.138,163.068
685.949,158.953
685.759,154.545
685.569,150.959
685.38,147.961
685.19,144.963
685,142.201
684.81,139.849
684.621,137.439
684.431,135.029
684.241,132.737
684.052,130.679
683.862,128.622
683.672,126.624
683.483,124.566
683.293,122.744
683.103,121.274
682.914,119.805
682.724,118.277
682.534,116.807
682.344,115.925
682.155,115.102
681.965,114.338
681.775,113.515
681.586,113.104
681.396,112.634
681.206,112.222
681.017,112.046
680.827,112.281
680.637,111.282
680.447,112.986
680.258,114.221
680.068,116.807
679.878,119.57
679.689,122.156
679.499,124.743
679.309,127.74
679.12,131.032
678.93,130.856
678.74,128.857
678.55,130.444
678.361,129.739
678.171,127.858
677.981,124.037
677.792,120.393
677.602,117.277
677.412,114.279
677.223,111.399
677.033,108.578
676.843,106.52
676.654,104.639
676.464,102.758
676.274,100.936
676.084,99.2902
675.895,97.6444
675.705,95.8809
675.515,94.0587
675.326,92.2365
675.136,90.4143
674.946,89.1799
674.757,87.9455
674.567,86.7698
674.377,85.5354
674.188,84.4186
673.998,83.7132
673.808,83.0666
673.618,82.42
673.429,81.7146
673.239,81.1268
673.049,80.539
672.86,79.9512
672.67,79.3634
672.48,78.7756
672.291,78.1878
672.101,77.6588
671.911,77.0709
671.721,76.6595
671.532,76.3068
671.342,75.9541
671.152,75.6602
670.963,75.3075
670.773,74.9548
670.583,74.6021
670.394,74.6021
670.204,74.6609
670.014,74.9548
669.825,74.6609
669.635,74.7197
669.445,74.9548
669.255,75.3075
669.066,75.6014
668.876,75.8953
668.686,76.248
668.497,76.5419
668.307,76.8358
668.117,77.6
667.928,78.5992
667.738,79.5985
667.548,81.2444
667.358,83.772
667.169,87.7103
666.979,92.7655
666.789,99.0551
666.6,114.162
666.41,130.973
666.22,147.844
666.031,164.655
665.841,181.525
665.651,198.337
665.462,215.148
665.272,230.49
665.082,237.955
664.892,243.598
664.703,247.184
664.513,242.893
664.323,190.871
664.134,138.791
663.944,121.216
663.754,114.397
663.565,101.348
663.375,91.4135
663.185,84.6537
662.995,80.4803
662.806,78.0702
662.616,75.6602
662.426,73.6617
662.237,72.1921
662.047,70.7225
661.857,69.3118
661.668,68.3713
661.478,67.8423
661.288,67.3133
661.099,66.843
660.909,66.6667
660.719,66.7254
660.529,66.7254
660.34,66.843
660.15,67.0781
659.96,67.3133
659.771,66.9606
659.581,67.7835
659.391,68.0774
659.202,68.6064
659.012,69.1943
658.822,69.7233
658.633,70.2523
658.443,71.0165
658.253,71.957
658.063,72.8387
657.874,73.7204
657.684,74.6609
657.494,75.8365
657.305,77.3648
657.115,78.8932
656.925,80.4803
656.736,82.6552
656.546,85.4767
656.356,88.5921
656.167,92.4128
655.977,96.2336
655.787,100.054
655.597,109.695
655.408,121.862
655.218,130.15
655.028,160.481
654.839,185.993
654.649,211.504
654.459,237.015
654.27,262.526
654.08,288.037
653.89,313.548
653.7,323.364
653.511,326.127
653.321,321.718
653.131,307.435
652.942,290.27
652.752,273.048
652.562,255.883
652.373,238.719
652.183,221.555
651.993,206.507
651.803,203.098
651.614,206.566
651.424,208.094
651.234,223.142
651.045,239.483
650.855,255.825
650.665,285.215
650.476,283.922
650.286,268.227
650.096,207.507
649.907,162.598
649.717,157.66
649.527,154.603
649.337,154.78
649.148,153.31
648.958,182.289
648.768,197.043
648.579,212.444
648.389,243.069
648.199,270.344
648.01,277.868
647.82,279.043
647.63,277.162
647.44,226.787
647.251,218.91
647.061,209.446
646.871,197.22
646.682,193.046
646.492,190.225
646.302,187.815
646.113,186.286
645.923,184.993
645.733,183.641
645.544,182.289
645.354,156.602
645.164,107.872
644.974,100.348
644.785,96.5863
644.595,94.7641
644.405,93.2358
644.216,91.7663
644.026,90.4731
643.836,89.1799
643.647,87.9455
643.457,86.7111
643.267,86.2408
643.078,85.7705
642.888,85.3003
642.698,84.6537
642.508,85.7118
642.319,86.476
642.129,88.6508
641.939,90.7082
641.75,92.5892
641.56,94.0587
641.37,94.4702
641.181,94.8817
640.991,95.3519
640.801,95.7634
640.612,95.9985
640.422,96.2336
640.232,96.4687
640.042,96.7039
639.853,96.939
639.663,98.291
639.473,99.6429
639.284,102.112
639.094,104.581
638.904,107.049
638.715,110.282
638.525,113.574
638.335,116.866
638.145,120.393
637.956,125.507
637.766,130.562
637.576,142.318
637.387,188.755
637.197,203.862
637.007,215.795
636.818,218.087
636.628,219.086
636.438,220.144
636.248,219.028
636.059,211.033
635.869,195.398
635.679,179.762
635.49,164.126
635.3,154.133
635.11,154.662
634.921,155.368
634.731,175.118
634.541,204.744
634.352,234.37
634.162,263.995
633.972,293.621
633.782,323.247
633.593,352.872
633.403,353.401
633.213,356.341
633.024,335.826
632.834,306.024
632.644,276.222
632.455,246.42
632.265,227.433
632.075,217.558
631.885,204.92
631.696,192.047
631.506,176.646
631.316,163.656
631.127,153.193
630.937,136.558
630.747,131.796
630.558,130.209
630.368,129.504
630.178,128.505
629.989,129.563
629.799,130.973
629.609,134.853
629.419,139.497
629.23,144.023
629.04,148.608
628.85,153.898
628.661,158.894
628.471,163.362
628.281,167.829
628.092,172.12
627.902,176.352
627.712,180.585
627.523,184.817
627.333,189.284
627.143,194.163
626.953,199.101
626.764,206.684
626.574,220.027
626.384,239.072
626.195,264.818
626.005,290.623
625.815,316.369
625.626,342.174
625.436,374.328
625.246,393.432
625.056,411.125
624.867,419.942
624.677,430.993
624.487,437.282
624.298,437.87
624.108,439.34
623.918,439.222
623.729,430.64
623.539,415.122
623.349,399.604
623.16,384.085
622.97,368.567
622.78,352.99
622.59,337.472
622.401,321.954
622.211,306.435
622.021,290.917
621.832,275.399
621.642,259.881
621.452,244.362
621.263,228.785
621.073,213.267
620.883,209.858
620.693,210.152
620.504,210.504
620.314,206.684
620.124,231.078
619.935,248.301
619.745,265.524
619.555,282.746
619.366,299.911
619.176,317.133
618.986,334.356
618.797,351.521
618.607,368.743
618.417,385.966
618.227,403.189
618.038,407.48
617.848,406.363
617.658,404.012
617.469,394.196
617.279,384.379
617.089,374.563
616.9,364.688
616.71,354.871
616.52,345.055
616.331,335.238
616.141,325.363
615.951,315.546
615.761,305.73
615.572,301.556
615.382,300.381
615.192,310.08
615.003,327.89
614.813,345.642
614.623,363.394
614.434,381.205
614.244,398.957
614.054,416.709
613.865,434.52
613.675,452.272
613.485,462.793
613.295,461.853
613.106,451.155
612.916,420.941
612.726,390.728
612.537,360.573
612.347,330.359
612.157,324.657
611.968,324.364
611.778,325.01
611.588,331.829
611.398,344.349
611.209,356.928
611.019,369.508
610.829,382.028
610.64,394.607
610.45,407.128
610.26,419.707
610.071,432.286
609.881,444.806
609.691,457.385
609.501,469.906
609.312,482.485
609.122,485.13
608.932,484.895
608.743,479.017
608.553,453.682
608.363,428.289
608.174,402.895
607.984,384.085
607.794,379.383
607.605,376.62
607.415,373.681
607.225,361.513
607.035,348.464
606.846,335.414
606.656,323.835
606.466,301.086
606.277,269.05
606.087,189.578
605.897,183.289
605.708,182.818
605.518,182.348
605.328,184.523
605.138,182.289
604.949,194.516
604.759,201.628
604.569,209.035
604.38,216.382
604.19,223.495
604,230.314
603.811,236.368
603.621,240.306
603.431,246.185
603.242,236.368
603.052,231.783
602.862,224.435
602.672,202.157
602.483,189.872
602.293,180.643
602.103,173.766
601.914,166.771
601.724,159.776
601.534,153.545
601.345,146.727
601.155,138.674
600.965,132.149
600.776,128.622
600.586,126.8
600.396,124.919
600.206,125.565
600.017,124.507
599.827,124.625
599.637,125.389
599.448,127.505
599.258,130.562
599.068,133.677
598.879,137.028
598.689,141.378
598.499,148.96
598.309,163.303
598.12,177.704
597.93,192.047
597.74,206.39
597.551,214.443
597.361,217.382
597.171,220.38
596.982,228.668
596.792,243.892
596.602,259.175
596.413,274.458
596.223,289.741
596.033,305.612
595.843,311.197
595.654,315.488
595.464,318.074
595.274,319.367
595.085,320.249
594.895,320.308
594.705,320.19
594.516,320.543
594.326,317.545
594.136,284.157
593.947,250.299
593.757,216.382
593.567,179.703
593.377,169.887
593.188,161.069
592.998,154.309
592.808,147.608
592.619,141.554
592.429,136.146
592.239,132.384
592.05,129.269
591.86,127.446
591.67,125.624
591.48,124.449
591.291,123.684
591.101,122.92
590.911,122.156
590.722,122.039
590.532,122.097
590.342,122.332
590.153,122.568
589.963,122.861
589.773,123.332
589.583,124.625
589.394,125.918
589.204,127.388
589.014,128.916
588.825,130.797
588.635,132.972
588.445,135.206
588.256,137.498
588.066,141.201
587.876,144.904
587.687,148.373
587.497,151.723
587.307,155.074
587.117,160.834
586.928,168.535
586.738,174.413
586.548,183.289
586.359,195.574
586.169,207.859
585.979,220.144
585.79,232.43
585.6,244.715
585.41,257
585.221,269.286
585.031,281.571
584.841,293.856
584.651,306.141
584.462,318.427
584.272,339.647
584.082,351.932
583.893,359.985
583.703,368.038
583.513,373.563
583.324,379.148
583.134,384.673
582.944,387.377
582.755,389.728
582.565,390.963
582.375,391.374
582.185,391.727
581.996,392.844
581.806,389.846
581.616,373.446
581.427,355.165
581.237,336.884
581.047,318.603
580.858,302.497
580.668,298.03
580.478,297.207
580.288,296.678
580.099,296.736
579.909,293.621
579.719,297.853
579.53,301.439
579.34,304.966
579.15,309.492
578.961,313.724
578.771,316.252
578.581,315.84
578.391,316.252
578.202,311.549
578.012,294.855
577.822,280.16
577.633,267.757
577.443,252.004
577.253,237.426
577.064,221.673
576.874,214.384
576.684,211.797
576.495,211.856
576.305,212.15
576.115,211.151
575.925,212.973
575.736,217.676
575.546,223.73
575.356,233.664
575.167,248.771
574.977,262.232
574.787,272.048
574.598,279.396
574.408,283.158
574.218,284.98
574.029,285.509
573.839,285.098
573.649,287.508
573.459,264.936
573.27,259.528
573.08,258.058
572.89,258.176
572.701,258.705
572.511,264.524
572.321,272.283
572.132,281.806
571.942,293.151
571.752,297.089
571.562,296.443
571.373,293.856
571.183,277.691
570.993,241.423
570.804,221.496
570.614,196.573
570.424,189.225
570.235,182.818
570.045,177.352
569.855,173.119
569.666,168.887
569.476,162.892
569.286,153.428
569.096,148.196
568.907,143.552
568.717,141.025
568.527,139.379
568.338,139.379
568.148,139.555
567.958,138.674
567.769,141.319
567.579,145.727
567.389,155.074
567.199,163.362
567.01,170.357
566.82,179.585
566.63,187.58
566.441,181.702
566.251,181.231
566.061,173.061
565.872,155.191
565.682,150.254
565.492,145.904
565.302,143.611
565.113,144.14
564.923,144.611
564.733,146.727
564.544,150.606
564.354,156.602
564.164,163.303
563.975,170.651
563.785,175.412
563.595,179.527
563.406,182.818
563.216,183.23
563.026,185.052
562.836,182.348
562.647,173.119
562.457,158.483
562.267,144.199
562.078,155.015
561.888,174.178
561.698,131.502
561.509,184.817
561.319,187.286
561.129,189.284
560.94,190.401
560.75,190.695
560.56,190.871
560.37,191.929
560.181,190.284
559.991,188.99
559.801,187.462
559.612,185.346
559.422,182.995
559.232,179.879
559.043,176
558.853,170.945
558.663,163.773
558.474,158.365
558.284,153.193
558.094,149.019
557.904,145.61
557.715,142.847
557.525,141.201
557.335,140.378
557.146,140.026
556.956,139.673
556.766,138.791
556.577,139.79
556.387,139.79
556.197,155.426
556.007,174.236
555.818,192.987
555.628,211.739
555.438,230.49
555.249,249.3
555.059,268.051
554.869,286.802
554.68,305.612
554.49,328.478
554.3,329.654
554.111,323.717
553.921,273.4
553.731,225.964
553.541,222.554
553.352,225.729
553.162,248.242
552.972,270.814
552.783,293.327
552.593,291.622
552.403,279.396
552.214,242.246
552.024,219.322
551.834,220.144
551.644,219.674
551.455,241.423
551.265,243.598
551.075,244.186
550.886,244.833
550.696,245.714
550.506,248.183
550.317,254.943
550.127,254.708
549.937,252.474
549.748,253.944
549.558,247.889
549.368,241.306
549.178,234.37
548.989,228.374
548.799,223.084
548.609,217.911
548.42,213.62
548.23,209.917
548.04,208.212
547.851,208.153
547.661,208.153
547.471,208.212
547.281,208.329
547.092,208.447
546.902,208.565
546.712,208.741
546.523,208.976
546.333,209.152
546.143,209.387
545.954,209.564
545.764,209.446
545.574,208.741
545.385,207.977
545.195,207.271
545.005,205.39
544.815,203.568
544.626,200.923
544.436,197.455
544.246,191.459
544.057,183.524
543.867,172.767
543.677,164.714
543.488,160.658
543.298,157.66
543.108,154.956
542.919,152.37
542.729,148.902
542.539,144.082
542.349,139.908
542.16,136.44
541.97,134.794
541.78,134.383
541.591,133.912
541.401,133.618
541.211,133.383
541.022,132.149
540.832,133.031
540.642,133.912
540.453,136.322
540.263,140.261
540.073,147.785
539.883,157.542
539.694,165.889
539.504,170.768
539.314,174.53
539.125,175.647
538.935,176.117
538.745,176.352
538.556,175.706
538.366,178.292
538.176,168.358
537.986,163.185
537.797,157.366
537.607,144.023
537.417,128.916
537.228,125.448
537.038,121.862
536.848,118.041
536.659,114.338
536.469,111.34
536.279,108.343
536.089,106.579
535.9,104.874
535.71,103.229
535.52,101.524
535.331,100.525
535.141,99.6429
534.951,98.7612
534.762,97.8207
534.572,96.939
534.382,96.0573
534.193,95.7046
534.003,95.3519
533.813,94.9992
533.623,94.5877
533.434,94.235
533.244,93.8824
533.054,93.5297
532.865,93.177
532.675,92.9419
532.485,92.7067
532.296,92.4716
532.106,92.2365
531.916,92.0602
531.727,91.825
531.537,91.5899
531.347,91.4135
531.157,91.1784
530.968,90.9433
530.778,90.7082
530.588,90.5319
530.399,90.2967
530.209,90.0616
530.019,89.8853
529.83,89.7677
529.64,89.6501
529.45,87.4752
529.26,89.3562
529.071,89.2386
528.881,89.1211
528.691,88.9447
528.502,88.8272
528.312,88.7096
528.122,88.5921
527.933,88.4157
527.743,88.2982
527.553,88.1806
527.364,88.063
527.174,87.9455
526.984,87.8279
526.794,87.7103
526.605,87.5928
526.415,87.4752
526.225,87.3577
526.036,87.2401
525.846,87.1225
525.656,87.0638
525.467,86.9462
525.277,86.8286
525.087,86.7111
524.897,86.5935
524.708,86.476
524.518,86.3584
524.328,86.2408
524.139,86.182
523.949,86.0645
523.759,85.9469
523.57,85.8881
523.38,85.8293
523.19,85.7705
523,85.7118
522.811,85.5942
522.621,85.5354
522.431,85.4767
522.242,85.4179
522.052,85.3591
521.862,85.2415
521.673,85.1827
521.483,85.124
521.293,85.0652
521.104,85.0064
520.914,84.9476
520.724,84.8301
520.534,84.8301
520.345,84.8301
520.155,84.7713
519.965,84.7713
519.776,84.7125
519.586,84.7125
519.396,84.7125
519.207,84.6537
519.017,84.6537
518.827,84.6537
518.638,84.5949
518.448,84.5949
518.258,84.5949
518.068,84.5362
517.879,84.5362
517.689,84.5362
517.499,84.4774
517.31,84.4774
517.12,84.5362
516.93,84.5362
516.741,84.5362
516.551,84.5949
516.361,84.5949
516.172,84.5949
515.982,84.6537
515.792,84.6537
515.602,84.6537
515.413,84.7125
515.223,84.7125
515.033,84.7125
514.844,84.7713
514.654,84.7713
514.464,84.8301
514.275,84.8301
514.085,84.8301
513.895,84.8888
513.705,84.8888
513.516,84.8888
513.326,84.9476
513.136,85.0652
512.947,85.1827
512.757,85.3591
512.567,85.4767
512.378,85.653
512.188,85.8293
511.998,85.9469
511.809,86.1232
511.619,86.2996
511.429,86.4171
511.239,86.5935
511.05,86.7111
510.86,86.8874
510.67,87.0638
510.481,87.1813
510.291,87.3577
510.101,87.4752
509.912,87.6516
509.722,87.8867
509.532,88.1218
509.342,88.3569
509.153,88.5921
508.963,88.7684
508.773,89.0035
508.584,89.2386
508.394,89.4738
508.204,89.7089
508.015,89.8853
507.825,90.1204
507.635,90.3555
507.446,90.5906
507.256,90.5319
507.066,90.4143
506.876,90.2967
506.687,90.2379
506.497,90.1204
506.307,90.0028
506.118,89.944
505.928,89.8265
505.738,89.7089
505.549,89.6501
505.359,89.5325
505.169,89.4738
504.979,89.3562
504.79,89.2386
504.6,89.1799
504.41,89.0623
504.221,88.9447
504.031,88.886
503.841,88.7684
503.652,88.6508
503.462,88.3569
503.272,88.1218
503.083,87.8279
502.893,87.5928
502.703,87.2989
502.513,87.0638
502.324,86.7698
502.134,86.5347
501.944,86.2408
501.755,86.0057
501.565,85.7118
501.375,85.4767
501.186,85.1827
500.996,84.8888
500.806,84.6537
500.617,84.3598
500.427,84.1247
500.237,83.8308
500.047,83.5956
499.858,83.3018
499.668,83.0666
499.478,82.7727
499.289,82.5964
499.099,82.42
498.909,82.2437
498.72,82.0674
498.53,81.891
498.34,81.7146
498.15,81.4795
497.961,81.3032
497.771,81.1268
497.581,80.9505
497.392,80.7742
497.202,80.5978
497.012,80.5978
496.823,80.5978
496.633,80.539
496.443,80.539
496.254,80.539
496.064,80.4803
495.874,80.4803
495.684,80.4803
495.495,80.4214
495.305,80.4214
495.115,80.4214
494.926,80.3627
494.736,80.3627
494.546,80.3627
494.357,80.3039
494.167,80.3039
493.977,80.3039
493.787,80.3039
493.598,80.3627
493.408,80.4214
493.218,80.4803
493.029,80.539
492.839,80.5978
492.649,80.6566
492.46,80.7154
492.27,80.7154
492.08,80.6566
491.891,80.539
491.701,80.4803
491.511,80.4214
491.321,80.3039
491.132,80.2451
490.942,80.1276
490.752,80.0688
490.563,79.9512
490.373,79.8924
490.183,79.7749
489.994,79.7161
489.804,79.6573
489.614,79.5398
489.424,79.481
489.235,79.3634
489.045,79.3046
488.855,79.187
488.666,79.0695
488.476,78.9519
488.286,78.8344
488.097,78.7168
487.907,78.5992
487.717,78.4817
487.528,78.3641
487.338,78.2466
487.148,78.129
486.958,78.0114
486.769,77.8939
486.579,77.7763
486.389,77.6588
486.2,77.5412
486.01,77.4236
485.82,77.3061
485.631,77.1885
485.441,77.0709
485.251,76.9534
485.062,76.8946
484.872,76.777
484.682,76.6595
484.492,76.5419
484.303,76.4243
484.113,76.3068
483.923,76.1892
483.734,76.1304
483.544,76.1304
483.354,76.0717
483.165,76.0128
482.975,76.0128
482.785,75.9541
482.595,75.9541
482.406,75.8953
482.216,75.8365
482.026,75.8365
481.837,75.7777
481.647,75.7777
481.457,75.719
481.268,75.719
481.078,75.719
480.888,75.7777
480.699,75.8365
480.509,75.8365
480.319,75.8953
480.129,75.9541
479.94,75.9541
479.75,76.0128
479.56,76.0717
479.371,76.1304
479.181,76.1892
478.991,76.248
478.802,76.3068
478.612,76.3656
478.422,76.4831
478.232,76.5419
478.043,76.6007
477.853,76.6595
477.663,76.777
477.474,76.8358
477.284,76.8946
477.094,76.9534
476.905,76.9534
476.715,76.9534
476.525,76.9534
476.336,76.9534
476.146,76.9534
475.956,76.9534
475.766,76.9534
475.577,76.9534
475.387,76.9534
475.197,76.9534
475.008,76.9534
474.818,76.9534
474.628,76.9534
474.439,76.9534
474.249,76.8946
474.059,76.8946
473.87,76.8946
473.68,76.8946
473.49,76.8946
473.3,76.8946
473.111,76.8946
472.921,76.8946
472.731,76.8946
472.542,76.8946
472.352,76.8946
472.162,76.8946
471.973,76.8946
471.783,76.8946
471.593,76.8946
471.403,76.8946
471.214,76.8946
471.024,76.8358
470.834,76.8358
470.645,76.8358
470.455,76.8358
470.265,76.8358
470.076,76.8358
469.886,76.8358
469.696,76.8358
469.507,76.8358
469.317,76.8358
469.127,76.777
468.937,76.777
468.748,76.777
468.558,76.7183
468.368,76.7183
468.179,76.7183
467.989,76.6595
467.799,76.6595
467.61,76.6595
467.42,76.6007
467.23,76.6007
467.04,76.5419
466.851,76.5419
466.661,76.5419
466.471,76.4831
466.282,76.4831
466.092,76.4831
465.902,76.4243
465.713,76.4243
465.523,76.4243
465.333,76.3656
465.144,76.3656
464.954,76.3656
464.764,76.3068
464.574,76.3068
464.385,76.3068
464.195,76.3068
464.005,76.3068
463.816,76.248
463.626,76.248
463.436,76.248
463.247,76.248
463.057,76.248
462.867,76.248
462.677,76.248
462.488,76.248
462.298,76.1892
462.108,76.1892
461.919,76.1892
461.729,76.1892
461.539,76.1892
461.35,76.1892
461.16,76.1892
460.97,76.1304
460.781,76.1304
460.591,76.0717
460.401,76.0717
460.211,76.0128
460.022,76.0128
459.832,76.0128
459.642,75.9541
459.453,75.9541
459.263,75.8953
459.073,75.8953
458.884,75.8365
458.694,75.8365
458.504,75.7777
458.315,75.7777
458.125,75.719
457.935,75.719
457.745,75.719
457.556,75.6602
457.366,75.6602
457.176,75.6014
456.987,75.6014
456.797,75.5426
456.607,75.5426
456.418,75.4839
456.228,75.4839
456.038,75.425
455.848,75.425
455.659,75.425
455.469,75.3663
455.279,75.3663
455.09,75.3075
454.9,75.3075
454.71,75.3075
454.521,75.3663
454.331,75.3663
454.141,75.425
453.952,75.425
453.762,75.4839
453.572,75.5426
453.382,75.5426
453.193,75.6014
453.003,75.6602
452.813,75.6602
452.624,75.719
452.434,75.7777
452.244,75.7777
452.055,75.8365
451.865,75.8365
451.675,75.8953
451.485,75.9541
451.296,75.9541
451.106,76.0128
450.916,76.0717
450.727,76.0717
450.537,76.1304
450.347,76.1304
450.158,76.1892
449.968,76.248
449.778,76.248
449.589,76.3068
449.399,76.3656
449.209,76.3656
449.019,76.4243
448.83,76.3068
448.64,76.248
448.45,76.1892
448.261,76.0717
448.071,76.0128
447.881,75.9541
447.692,75.8953
447.502,75.7777
447.312,75.719
447.122,75.6602
446.933,75.5426
446.743,75.4839
446.553,75.425
446.364,75.3075
446.174,75.2487
445.984,75.1899
445.795,75.0724
445.605,75.0136
445.415,74.9548
445.226,74.8372
445.036,74.7785
444.846,74.7197
444.656,74.6609
444.467,74.6021
444.277,74.5433
444.087,74.4846
443.898,74.4258
443.708,74.367
443.518,74.3082
443.329,74.2495
443.139,74.1906
442.949,74.1906
442.759,74.1319
442.57,74.0731
442.38,74.0143
442.19,73.9555
442.001,73.8967
441.811,73.838
441.621,73.7792
441.432,73.7204
441.242,73.6617
441.052,73.6617
440.863,73.6028
440.673,73.5441
440.483,73.4853
440.293,73.4265
440.104,73.3677
439.914,73.3089
439.724,73.2502
439.535,73.2502
439.345,73.2502
439.155,73.2502
438.966,73.2502
438.776,73.2502
438.586,73.2502
438.397,73.2502
438.207,73.2502
438.017,73.2502
437.827,73.2502
437.638,73.2502
437.448,73.2502
437.258,73.2502
437.069,73.2502
436.879,73.2502
436.689,73.2502
436.5,73.2502
436.31,73.2502
436.12,73.2502
435.93,73.2502
435.741,73.2502
435.551,73.2502
435.361,73.2502
435.172,73.2502
434.982,73.3089
434.792,73.3089
434.603,73.3677
434.413,73.3677
434.223,73.4265
434.034,73.4853
433.844,73.5441
433.654,73.6028
433.464,73.6617
433.275,73.7204
433.085,73.7792
432.895,73.7792
432.706,73.838
432.516,73.8967
432.326,73.9555
432.137,74.0143
431.947,74.0731
431.757,74.0731
431.568,74.1319
431.378,74.1906
431.188,74.3082
430.998,74.367
430.809,74.4846
430.619,74.5433
430.429,74.6609
430.24,74.7197
430.05,74.8372
429.86,74.8961
429.671,75.0136
429.481,75.0724
429.291,75.1899
429.101,75.2487
428.912,75.3663
428.722,75.425
428.532,75.5426
428.343,75.6014
428.153,75.719
427.963,75.7777
427.774,75.8953
427.584,75.9541
427.394,76.0717
427.204,76.1892
427.015,76.3068
426.825,76.3656
426.635,76.4831
426.446,76.6007
426.256,76.7183
426.066,76.777
425.877,76.8946
425.687,77.0122
425.497,77.1297
425.308,77.1885
425.118,77.3061
424.928,77.4236
424.738,77.5412
424.549,77.6
424.359,77.7175
424.169,77.8351
423.98,77.9526
423.79,78.0114
423.6,78.129
423.411,78.2466
423.221,78.3641
423.031,78.4229
422.842,78.5405
422.652,78.658
422.462,78.7756
422.272,78.8344
422.083,78.8932
421.893,78.9519
421.703,79.0107
421.514,79.0107
421.324,79.0695
421.134,79.1283
420.945,79.187
420.755,79.187
420.565,79.2458
420.375,79.3046
420.186,79.3634
419.996,79.3634
419.806,79.4222
419.617,79.4222
419.427,79.481
419.237,79.5398
419.048,79.5985
418.858,79.5985
418.668,79.6573
418.479,79.6573
418.289,79.7161
418.099,79.7749
417.909,79.8336
417.72,79.8336
417.53,79.8924
417.34,79.8924
417.151,79.9512
416.961,80.01
416.771,80.0688
416.582,80.0688
416.392,80.1276
416.202,80.1863
416.012,80.2451
415.823,80.3039
415.633,80.3627
415.443,80.4214
415.254,80.4803
415.064,80.539
414.874,80.5978
414.685,80.6566
414.495,80.7154
414.305,80.7742
414.116,80.8329
413.926,80.8917
413.736,80.9505
413.546,81.0093
413.357,81.0681
413.167,81.1268
412.977,81.1856
412.788,81.2444
412.598,81.3032
412.408,81.362
412.219,81.4207
412.029,81.4795
411.839,81.5383
411.65,81.5971
411.46,81.6559
411.27,81.7146
411.08,81.8322
410.891,81.891
410.701,82.0086
410.511,82.1261
410.322,82.2437
410.132,82.3025
409.942,82.42
409.753,82.5376
409.563,82.6552
409.373,82.714
409.183,82.8315
408.994,82.9491
408.804,83.0666
408.614,83.1842
408.425,83.3018
408.235,83.3605
408.045,83.4781
407.856,83.5956
407.666,83.7132
407.476,83.772
407.287,83.8896
407.097,84.0071
406.907,84.1247
406.717,84.1835
406.528,84.301
406.338,84.4186
406.148,84.5362
405.959,84.5949
405.769,84.7125
405.579,84.8301
405.39,84.9476
405.2,85.0064
405.01,85.124
404.82,85.2415
404.631,85.3591
404.441,85.4179
404.251,85.5354
404.062,85.653
403.872,85.7705
403.682,85.8881
403.493,86.0057
403.303,86.1232
403.113,86.2996
402.924,86.4171
402.734,86.5935
402.544,86.7111
402.354,86.8874
402.165,87.0049
401.975,87.1225
401.785,87.2401
401.596,87.4164
401.406,87.534
401.216,87.7103
401.027,87.8279
400.837,87.9455
400.647,88.063
400.457,88.2393
400.268,88.3569
400.078,88.5333
399.888,88.6508
399.699,88.7684
399.509,88.886
399.319,89.0623
399.13,89.1799
398.94,89.3562
398.75,89.4738
398.561,89.6501
398.371,89.7677
398.181,89.8853
397.991,90.0028
397.802,90.1204
397.612,90.2379
397.422,90.4143
397.233,90.5319
397.043,90.6494
396.853,90.7669
396.664,90.9433
396.474,91.0609
396.284,91.1784
396.095,91.296
395.905,91.4135
395.715,91.5311
395.525,91.7075
395.336,91.825
395.146,91.9426
394.956,92.0602
394.767,92.2365
394.577,92.3541
394.387,92.4716
394.198,92.5892
394.008,92.7655
393.818,92.8831
393.628,93.0006
393.439,93.1182
393.249,93.2358
393.059,93.3533
392.87,93.5297
392.68,93.6472
392.49,93.7648
392.301,93.8824
392.111,94.0587
391.921,94.1763
391.732,94.2939
391.542,94.4114
391.352,94.529
391.162,94.6465
390.973,94.8228
390.783,94.9404
390.593,95.1168
390.404,95.2343
390.214,95.4107
390.024,95.5282
389.835,95.7046
389.645,95.8809
389.455,96.0573
389.266,96.1748
389.076,96.3512
388.886,96.4687
388.696,96.6451
388.507,96.7626
388.317,96.939
388.127,97.0565
387.938,97.2329
387.748,97.4092
387.558,97.5856
387.369,97.7032
387.179,97.8795
386.989,97.997
386.799,98.1734
386.61,98.291
386.42,98.4673
386.23,98.5848
386.041,98.7612
385.851,98.9376
385.661,99.1139
385.472,99.2314
385.282,99.4078
385.092,99.5254
384.902,99.7017
384.713,99.8193
384.523,99.9956
384.333,100.113
384.144,100.29
383.954,100.466
383.764,100.642
383.575,100.76
383.385,100.936
383.195,101.054
383.006,101.23
382.816,101.348
382.626,101.524
382.436,101.641
382.247,101.818
382.057,101.935
381.867,102.112
381.678,102.229
381.488,102.406
381.298,102.523
381.109,102.7
380.919,102.817
380.729,102.993
380.54,103.111
380.35,103.287
380.16,103.405
379.97,103.581
379.781,103.699
379.591,103.875
379.401,103.993
379.212,104.169
379.022,104.287
378.832,104.404
378.643,104.522
378.453,104.698
378.263,104.816
378.073,104.992
377.884,105.11
377.694,105.286
377.504,105.403
377.315,105.58
377.125,105.697
376.935,105.874
376.746,105.991
376.556,106.168
376.366,106.285
376.177,106.52
375.987,106.697
375.797,106.873
375.607,107.049
375.418,107.284
375.228,107.461
375.038,107.637
374.849,107.814
374.659,108.049
374.469,108.225
374.28,108.401
374.09,108.578
373.9,108.754
373.71,108.93
373.521,109.165
373.331,109.342
373.141,109.518
372.952,109.695
372.762,109.93
372.572,110.106
372.383,110.282
372.193,110.459
372.003,110.576
371.814,110.635
371.624,110.694
371.434,110.694
371.244,110.753
371.055,110.811
370.865,110.87
370.675,110.929
370.486,110.988
370.296,110.988
370.106,111.046
369.917,111.105
369.727,111.164
369.537,111.223
369.348,111.282
369.158,111.282
368.968,111.34
368.778,111.399
368.589,111.458
368.399,111.517
368.209,111.576
368.02,111.576
367.83,111.634
367.64,111.693
367.451,111.693
367.261,111.634
367.071,111.34
366.881,110.988
366.692,110.694
366.502,110.341
366.312,110.047
366.123,109.695
365.933,109.401
365.743,109.048
365.554,108.754
365.364,108.401
365.174,108.107
364.985,107.755
364.795,107.284
364.605,106.814
364.415,105.933
364.226,105.051
364.036,104.228
363.846,103.346
363.657,102.347
363.467,101.289
363.277,100.231
363.088,99.1727
362.898,98.2322
362.708,97.2329
362.518,96.5275
362.329,95.7634
362.139,95.058
361.949,94.2939
361.76,93.8236
361.57,93.3533
361.38,93.0006
361.191,92.5892
361.001,92.2953
360.811,92.0014
360.622,91.8838
360.432,91.7075
360.242,91.7663
360.052,91.825
359.863,91.8838
359.673,91.9426
359.483,92.0014
359.294,92.0602
359.104,92.1189
358.914,92.1777
358.725,92.2365
358.535,92.2953
358.345,92.3541
358.155,92.4128
357.966,92.4716
357.776,92.5304
357.586,92.5892
357.397,92.648
357.207,92.7067
357.017,92.7655
356.828,92.8243
356.638,92.8831
356.448,92.9419
356.259,93.8824
356.069,93.0594
355.879,93.1182
355.689,93.177
355.5,93.2358
355.31,93.2946
355.12,93.3533
354.931,93.4121
354.741,93.4709
354.551,93.5297
354.362,93.5885
354.172,93.6472
353.982,93.706
353.793,93.7648
353.603,93.8236
353.413,93.8824
353.223,93.9411
353.034,93.9999
352.844,94.0587
352.654,94.1175
352.465,94.1763
352.275,94.235
352.085,94.2939
351.896,94.3526
351.706,94.4114
351.516,94.4702
351.326,94.529
351.137,94.5877
350.947,94.5877
350.757,94.6465
350.568,94.7053
350.378,94.7641
350.188,94.8228
349.999,94.8817
349.809,94.9404
349.619,94.9992
349.43,95.058
349.24,95.1168
349.05,95.1756
348.86,95.2343
348.671,95.2931
348.481,95.3519
348.291,95.4107
348.102,95.4695
347.912,95.5282
347.722,95.587
347.533,95.6458
347.343,95.7046
347.153,95.7634
346.964,95.8222
346.774,95.8809
346.584,95.9397
346.394,95.9985
346.205,96.0573
346.015,96.1161
345.825,96.1161
345.636,96.1161
345.446,96.1161
345.256,96.0573
345.067,96.0573
344.877,95.9985
344.687,95.9985
344.497,95.9397
344.308,95.9397
344.118,95.8809
343.928,95.8809
343.739,95.8222
343.549,95.8222
343.359,95.7634
343.17,95.7634
342.98,95.7046
342.79,95.7046
342.6,95.6458
342.411,95.6458
342.221,95.587
342.031,95.587
341.842,95.5282
341.652,95.5282
341.462,95.4695
341.273,95.4695
341.083,95.4107
340.893,95.4107
340.704,95.3519
340.514,95.3519
340.324,95.2931
340.134,95.2931
339.945,95.2343
339.755,95.2343
339.565,95.2343
339.376,95.2343
339.186,95.1756
338.996,95.1756
338.807,95.1168
338.617,95.1168
338.427,95.058
338.237,95.058
338.048,94.9992
337.858,94.9992
337.668,94.9404
337.479,94.9404
337.289,94.9404
337.099,94.9404
336.91,94.8817
336.72,94.8817
336.53,94.8228
336.341,94.8228
336.151,94.7641
335.961,94.7641
335.771,94.7641
335.582,94.8228
335.392,94.8228
335.202,94.8817
335.013,94.8817
334.823,94.9404
334.633,94.9404
334.444,94.9992
334.254,94.9992
334.064,95.058
333.875,95.058
333.685,95.1168
333.495,95.1168
333.305,95.1756
333.116,95.1756
332.926,95.2343
332.736,95.2343
332.547,95.2931
332.357,95.2931
332.167,95.3519
331.978,95.3519
331.788,95.4107
331.598,95.4107
331.408,95.4695
331.219,95.5282
331.029,95.587
330.839,95.587
330.65,95.6458
330.46,95.6458
330.27,95.7046
330.081,95.7046
329.891,95.7634
329.701,95.7634
329.512,95.8222
329.322,95.8222
329.132,95.8809
328.942,95.8809
328.753,95.9397
328.563,95.9397
328.373,95.9985
328.184,95.9985
327.994,96.0573
327.804,96.0573
327.615,96.1161
327.425,96.1161
327.235,96.1748
327.046,96.1748
326.856,96.2336
326.666,96.2924
326.476,96.3512
326.287,96.3512
326.097,96.41
325.907,96.41
325.718,96.5863
325.528,96.7039
325.338,96.8802
325.149,96.9978
324.959,97.1153
324.769,97.2329
324.579,97.4092
324.39,97.5268
324.2,97.7032
324.01,97.8207
323.821,97.997
323.631,98.1146
323.441,98.291
323.252,98.4085
323.062,98.5848
322.872,98.7024
322.682,98.82
322.493,98.9376
322.303,99.1139
322.113,99.2314
321.924,99.4666
321.734,99.6429
321.544,99.9368
321.355,100.231
321.165,100.525
320.975,100.819
320.786,101.171
320.596,101.465
320.406,101.759
320.216,102.053
320.027,102.347
319.837,102.641
319.647,102.993
319.458,103.287
319.268,103.64
319.078,103.934
318.889,104.287
318.699,104.581
318.509,104.933
318.32,105.227
318.13,105.521
317.94,105.815
317.75,106.168
317.561,106.462
317.371,106.814
317.181,107.108
316.992,107.402
316.802,107.696
316.612,107.99
316.423,108.284
316.233,108.578
316.043,108.813
315.853,109.107
315.664,109.342
315.474,109.636
315.284,109.93
315.095,110.224
314.905,110.459
314.715,110.459
314.526,110.4
314.336,110.341
314.146,110.224
313.957,110.165
313.767,110.047
313.577,109.988
313.387,109.871
313.198,109.577
313.008,109.224
312.818,108.93
312.629,108.578
312.439,108.225
312.249,107.872
312.06,107.578
311.87,107.226
311.68,106.873
311.49,106.52
311.301,106.403
311.111,106.226
310.921,106.109
310.732,105.991
310.542,105.874
310.352,105.697
310.163,105.58
309.973,105.462
309.783,105.462
309.594,105.462
309.404,105.639
309.214,105.815
309.024,106.05
308.835,106.226
308.645,106.403
308.455,106.579
308.266,106.755
308.076,106.932
307.886,107.167
307.697,107.343
307.507,107.578
307.317,107.755
307.128,107.99
306.938,108.166
306.748,108.343
306.558,108.519
306.369,108.754
306.179,108.93
305.989,109.048
305.8,109.165
305.61,109.283
305.42,109.342
305.231,109.459
305.041,109.518
304.851,109.636
304.661,109.753
304.472,109.871
304.282,109.93
304.092,109.871
303.903,109.812
303.713,109.636
303.523,109.459
303.334,109.283
303.144,109.107
302.954,108.93
302.765,108.754
302.575,108.578
302.385,108.401
302.195,108.225
302.006,108.049
301.816,107.872
301.626,107.696
301.437,107.52
301.247,107.284
301.057,107.108
300.868,106.873
300.678,106.697
300.488,106.462
300.298,106.285
300.109,106.109
299.919,106.05
299.729,105.991
299.54,105.933
299.35,105.874
299.16,105.815
298.971,105.756
298.781,105.756
298.591,105.697
298.402,105.639
298.212,105.58
298.022,105.521
297.832,105.462
297.643,105.462
297.453,105.403
297.263,105.345
297.074,105.286
296.884,105.168
296.694,105.051
296.505,104.992
296.315,104.874
296.125,104.816
295.935,104.698
295.746,104.639
295.556,104.522
295.366,104.463
295.177,104.345
294.987,104.287
294.797,104.169
294.608,104.11
294.418,103.993
294.228,103.934
294.039,103.816
293.849,103.758
293.659,103.64
293.469,103.581
293.28,103.522
293.09,103.464
292.9,103.346
292.711,103.287
292.521,103.17
292.331,103.17
292.142,103.111
291.952,103.17
291.762,103.17
291.573,103.17
291.383,103.17
291.193,103.229
291.003,103.229
290.814,103.287
290.624,103.287
290.434,103.346
290.245,103.346
290.055,103.405
289.865,103.405
289.676,103.464
289.486,103.464
289.296,103.522
289.106,103.522
288.917,103.522
288.727,103.522
288.537,103.875
288.348,104.228
288.158,104.581
287.968,104.933
287.779,105.286
287.589,105.639
287.399,105.991
287.21,106.344
287.02,106.697
286.83,107.049
286.64,107.52
286.451,107.99
286.261,108.46
286.071,108.93
285.882,109.459
285.692,109.93
285.502,110.4
285.313,110.87
285.123,111.34
284.933,111.811
284.743,112.281
284.554,112.751
284.364,113.163
284.174,113.515
283.985,113.868
283.795,114.162
283.605,114.515
283.416,114.867
283.226,115.22
283.036,115.573
282.847,115.925
282.657,116.278
282.467,116.631
282.277,116.983
282.088,117.336
281.898,117.689
281.708,117.983
281.519,118.277
281.329,118.512
281.139,118.747
280.95,118.982
280.76,119.217
280.57,119.452
280.38,119.687
280.191,119.922
280.001,120.158
279.811,120.393
279.622,120.569
279.432,120.745
279.242,120.922
279.053,120.98
278.863,120.98
278.673,121.039
278.484,121.098
278.294,121.157
278.104,121.216
277.914,121.274
277.725,121.333
277.535,121.392
277.345,121.451
277.156,121.51
276.966,121.51
276.776,121.568
276.587,121.627
276.397,121.745
276.207,121.803
276.018,121.862
275.828,121.921
275.638,121.98
275.448,122.039
275.259,122.097
275.069,122.156
274.879,122.215
274.69,122.274
274.5,122.803
274.31,123.273
274.121,123.978
273.931,124.625
273.741,125.33
273.551,125.977
273.362,126.859
273.172,127.682
272.982,128.74
272.793,129.798
272.603,130.856
272.413,131.914
272.224,132.972
272.034,134.03
271.844,135.206
271.655,136.381
271.465,137.674
271.275,138.968
271.085,140.261
270.896,141.554
270.706,143.082
270.516,144.552
270.327,146.55
270.137,148.549
269.947,150.547
269.758,152.546
269.568,154.545
269.378,156.543
269.188,160.54
268.999,164.479
268.809,167.3
268.619,170.063
268.43,172.003
268.24,173.884
268.05,174.942
267.861,175.941
267.671,175.882
267.481,179.291
267.292,175.529
267.102,175.236
266.912,174.765
266.722,174.236
266.533,159.541
266.343,144.846
266.153,142.671
265.964,140.496
265.774,139.967
265.584,139.379
265.395,138.909
265.205,138.439
265.015,138.38
264.826,138.262
264.636,138.262
264.446,138.203
264.256,138.145
264.067,138.086
263.877,138.145
263.687,138.203
263.498,138.674
263.308,139.085
263.118,139.497
262.929,138.674
262.739,140.496
262.549,141.084
262.359,142.259
262.17,143.376
261.98,144.669
261.79,145.963
261.601,149.96
261.411,153.957
261.221,162.421
261.032,170.886
260.842,179.409
260.652,187.874
260.463,196.397
260.273,204.861
260.083,214.266
259.893,223.671
259.704,228.844
259.514,233.958
259.324,233.958
259.135,233.899
258.945,233.84
258.755,233.782
258.566,233.782
258.376,233.723
258.186,233.488
257.996,235.663
257.807,232.547
257.617,231.901
257.427,228.198
257.238,224.435
257.048,222.202
256.858,219.909
256.669,217.029
256.479,214.149
256.289,211.915
256.1,209.681
255.91,207.859
255.72,206.037
255.53,204.45
255.341,202.804
255.151,201.922
254.961,201.041
254.772,200.57
254.582,200.041
254.392,199.63
254.203,199.218
254.013,198.924
253.823,198.631
253.633,197.984
253.444,197.279
253.254,190.93
253.064,184.582
252.875,183.23
252.685,181.819
252.495,181.702
252.306,181.525
252.116,181.702
251.926,181.819
251.737,182.113
251.547,181.937
251.357,185.228
251.167,187.991
250.978,195.28
250.788,202.569
250.598,214.972
250.409,227.316
250.219,243.422
250.029,258.235
249.84,259.352
249.65,259.175
249.46,251.475
249.271,243.716
249.081,236.015
248.891,228.315
248.701,224.318
248.512,218.851
248.322,222.202
248.132,224.142
247.943,235.957
247.753,247.713
247.563,259.528
247.374,271.284
247.184,276.574
246.994,281.806
246.804,271.754
246.615,282.57
246.425,248.595
246.235,235.486
246.046,222.378
245.856,209.27
245.666,196.162
245.477,182.995
245.287,169.887
245.097,156.778
244.908,141.965
244.718,127.153
244.528,125.154
244.338,123.097
244.149,121.686
243.959,120.275
243.769,119.217
243.58,118.1
243.39,117.219
243.2,116.337
243.011,115.749
242.821,115.102
242.631,114.632
242.441,114.162
242.252,113.809
242.062,113.398
241.872,113.104
241.683,112.751
241.493,112.516
241.303,112.222
241.114,111.987
240.924,111.693
240.734,111.458
240.545,111.164
240.355,111.105
240.165,110.988
239.975,110.988
239.786,110.929
239.596,110.929
239.406,110.929
239.217,110.929
239.027,109.636
238.837,110.929
238.648,110.87
238.458,110.988
238.268,111.046
238.079,111.164
237.889,111.223
237.699,111.282
237.509,111.34
237.32,111.458
237.13,111.517
236.94,111.634
236.751,111.693
236.561,111.811
236.371,111.869
236.182,111.987
235.992,112.046
235.802,112.222
235.612,112.34
235.423,112.457
235.233,112.575
235.043,112.751
234.854,112.869
234.664,112.986
234.474,113.104
234.285,113.28
234.095,113.398
233.905,113.574
233.716,113.692
233.526,113.868
233.336,113.986
233.146,114.221
232.957,114.397
232.767,114.632
232.577,114.867
232.388,115.102
232.198,115.279
232.008,115.514
231.819,115.69
231.629,115.925
231.439,116.102
231.249,116.337
231.06,116.513
230.87,116.748
230.68,116.983
230.491,117.219
230.301,117.395
230.111,117.63
229.922,117.865
229.732,118.159
229.542,118.394
229.353,118.629
229.163,118.864
228.973,119.099
228.783,119.335
228.594,119.629
228.404,119.864
228.214,120.099
228.025,120.334
227.835,120.628
227.645,120.863
227.456,121.098
227.266,121.333
227.076,121.686
226.886,121.98
226.697,122.332
226.507,122.626
226.317,122.979
226.128,123.273
225.938,123.626
225.748,123.92
225.559,124.272
225.369,124.566
225.179,124.919
224.99,125.213
224.8,125.565
224.61,125.918
224.42,126.271
224.231,126.565
224.041,126.917
223.851,127.211
223.662,127.564
223.472,127.858
223.282,128.328
223.093,128.798
222.903,129.327
222.713,129.798
222.523,130.268
222.334,130.738
222.144,131.208
221.954,131.679
221.765,132.208
221.575,132.678
221.385,133.148
221.196,133.618
221.006,134.147
220.816,134.618
220.627,135.088
220.437,135.558
220.247,136.146
220.057,136.675
219.868,137.263
219.678,137.851
219.488,138.439
219.299,138.968
219.109,139.555
218.919,140.143
218.73,140.731
218.54,141.319
218.35,141.907
218.161,142.436
217.971,143.023
217.781,143.611
217.591,144.199
217.402,144.787
217.212,145.375
217.022,145.904
216.833,146.492
216.643,147.021
216.453,147.608
216.264,148.137
216.074,148.725
215.884,149.254
215.694,149.783
215.505,150.312
215.315,150.9
215.125,151.429
214.936,151.958
214.746,152.487
214.556,153.075
214.367,153.604
214.177,154.368
213.987,155.074
213.798,155.838
213.608,156.602
213.418,157.366
213.228,158.071
213.039,158.836
212.849,159.6
212.659,160.364
212.47,161.128
212.28,161.892
212.09,162.598
211.901,163.362
211.711,164.126
211.521,164.89
211.331,165.654
211.142,166.418
210.952,167.124
210.762,167.888
210.573,168.652
210.383,169.416
210.193,170.122
210.004,170.886
209.814,171.65
209.624,172.414
209.435,173.178
209.245,173.942
209.055,174.648
208.865,175.412
208.676,176.176
208.486,177.587
208.296,178.939
208.107,181.172
207.917,183.406
207.727,185.64
207.538,187.815
207.348,189.696
207.158,191.577
206.969,193.458
206.779,195.28
206.589,197.161
206.399,199.042
206.21,200.923
206.02,202.745
205.83,204.509
205.641,206.213
205.451,207.977
205.261,209.681
205.072,211.445
204.882,213.149
204.692,214.854
204.502,216.559
204.313,218.322
204.123,220.027
203.933,221.908
203.744,223.789
203.554,225.67
203.364,227.551
203.175,229.432
202.985,231.313
202.795,233.253
202.606,235.134
202.416,237.015
202.226,238.896
202.036,241.423
201.847,243.892
201.657,247.125
201.467,250.299
201.278,253.473
201.088,256.648
200.898,259.881
200.709,263.055
200.519,265.7
200.329,268.345
200.139,270.579
199.95,272.754
199.76,274.987
199.57,277.162
199.381,279.396
199.191,281.63
199.001,283.863
198.812,286.038
198.622,288.272
198.432,290.447
198.243,292.68
198.053,294.914
197.863,297.148
197.673,299.323
197.484,301.556
197.294,303.731
197.104,305.965
196.915,308.14
196.725,310.315
196.535,312.49
196.346,314.547
196.156,316.546
195.966,318.603
195.776,320.602
195.587,322.6
195.397,324.599
195.207,326.656
195.018,328.655
194.828,330.653
194.638,332.652
194.449,334.533
194.259,336.355
194.069,338.177
193.88,339.941
193.69,341.763
193.5,343.526
193.31,345.348
193.121,347.171
192.931,348.993
192.741,350.756
192.552,353.166
192.362,355.576
192.172,358.163
191.983,360.749
191.793,363.336
191.603,365.863
191.414,368.391
191.224,370.86
191.034,373.152
190.844,375.444
190.655,377.737
190.465,380.029
190.275,382.322
190.086,384.614
189.896,386.907
189.706,389.141
189.517,391.139
189.327,393.079
189.137,395.019
188.947,396.958
188.758,398.898
188.568,400.838
188.378,402.543
188.189,404.188
187.999,405.834
187.809,407.48
187.62,408.773
187.43,410.008
187.24,411.125
187.051,412.183
186.861,413.3
186.671,414.416
186.481,414.887
186.292,415.357
186.102,415.768
185.912,416.18
185.723,416.591
185.533,417.003
185.343,417.414
185.154,417.826
184.964,418.237
184.774,418.649
184.584,418.884
184.395,419.119
184.205,419.295
184.015,415.592
183.826,419.53
183.636,419.53
183.446,419.295
183.257,419.001
183.067,418.766
182.877,418.472
182.688,418.002
182.498,417.473
182.308,416.885
182.118,416.239
181.929,415.416
181.739,414.593
181.549,413.829
181.36,413.006
181.17,411.536
180.98,410.067
180.791,408.068
180.601,406.069
180.411,403.601
180.221,401.073
180.032,398.663
179.842,396.194
179.652,392.785
179.463,389.317
179.273,385.437
179.083,381.558
178.894,378.56
178.704,375.503
178.514,374.092
178.325,372.682
178.135,372.447
177.945,372.211
177.755,372.211
177.566,372.153
177.376,372.211
177.186,372.27
176.997,372.741
176.807,373.152
176.617,373.681
176.428,372.682
176.238,374.739
176.048,375.327
175.859,375.915
175.669,376.503
175.479,377.267
175.289,378.031
175.1,378.913
174.91,379.794
174.72,380.676
174.531,381.558
174.341,382.439
174.151,383.321
173.962,384.732
173.772,386.143
173.582,387.553
173.392,388.964
173.203,390.375
173.013,391.786
172.823,393.314
172.634,394.842
172.444,396.782
172.254,398.663
172.065,400.603
171.875,402.543
171.685,404.541
171.496,406.54
171.306,408.597
171.116,410.654
170.926,412.712
170.737,414.769
170.547,416.885
170.357,418.943
170.168,420.824
169.978,422.705
169.788,424.527
169.599,426.29
169.409,428.112
169.219,429.935
169.029,431.757
168.84,433.52
168.65,435.93
168.46,438.282
168.271,440.868
168.081,443.396
167.891,445.982
167.702,448.51
167.512,452.154
167.322,455.74
167.133,459.913
166.943,464.087
166.753,468.142
166.563,472.198
166.374,476.313
166.184,480.369
165.994,483.073
165.805,485.777
165.615,488.187
165.425,490.538
165.236,492.948
165.046,495.299
164.856,498.297
164.667,501.295
164.477,504.822
164.287,508.29
164.097,511.053
163.908,513.757
163.718,513.698
163.528,513.639
163.339,513.58
163.149,513.463
162.959,513.286
162.77,513.11
162.58,512.934
162.39,512.699
162.2,512.464
162.011,514.286
161.821,511.876
161.631,511.523
161.442,510.818
161.252,510.053
161.062,494.888
160.873,479.664
160.683,469.73
160.493,459.796
160.304,453.094
160.114,446.335
159.924,441.691
159.734,437.047
159.545,433.462
159.355,429.817
159.165,426.114
158.976,422.411
158.786,419.119
158.596,415.827
158.407,413.006
158.217,410.125
158.027,407.304
157.837,404.424
157.648,401.543
157.458,398.663
157.268,395.842
157.079,392.961
156.889,390.14
156.699,387.259
156.51,384.379
156.32,381.499
156.13,369.214
155.941,356.928
155.751,352.872
155.561,348.817
155.371,344.526
155.182,340.176
154.992,336.531
154.802,332.887
154.613,329.948
154.423,326.95
154.233,322.659
154.044,318.309
153.854,312.255
153.664,306.141
153.474,301.086
153.285,296.031
153.095,291.564
152.905,287.096
152.716,283.628
152.526,280.16
152.336,276.692
152.147,273.224
151.957,269.932
151.767,266.582
151.578,263.29
151.388,259.998
151.198,256.648
151.008,253.297
150.819,248.712
150.629,244.127
150.439,239.601
150.25,235.016
150.06,231.254
149.87,227.492
149.681,223.789
149.491,220.027
149.301,215.736
149.112,211.386
148.922,206.625
148.732,201.863
148.542,196.22
148.353,190.577
148.163,184.641
147.973,178.645
147.784,175.177
147.594,171.65
147.404,168.593
147.215,165.478
147.025,163.656
146.835,161.833
146.645,160.07
146.456,158.248
146.266,156.484
146.076,154.662
145.887,153.016
145.697,151.312
145.507,149.842
145.318,148.314
145.128,146.844
144.938,145.316
144.749,143.846
144.559,142.377
144.369,140.907
144.179,139.379
143.99,138.145
143.8,136.851
143.61,135.735
143.421,134.618
143.231,133.56
143.041,132.443
142.852,131.326
142.662,130.209
142.472,129.151
142.282,128.034
142.093,127.094
141.903,126.094
141.713,125.154
141.524,124.155
141.334,123.214
141.144,122.274
140.955,121.333
140.765,120.393
140.575,119.511
140.386,118.629
140.196,117.748
140.006,116.866
139.816,116.043
139.627,115.161
139.437,114.279
139.247,113.398
139.058,112.634
138.868,111.811
138.678,110.988
138.489,110.165
138.299,109.401
138.109,108.578
137.919,107.814
137.73,106.991
137.54,106.168
137.35,105.345
137.161,104.522
136.971,103.699
136.781,102.876
136.592,102.053
136.402,101.289
136.212,100.466
136.023,99.7017
135.833,98.9376
135.643,98.2322
135.453,97.468
135.264,96.7626
135.074,95.9985
134.884,95.2343
134.695,94.4702
134.505,93.7648
134.315,93.0006
134.126,92.2953
133.936,91.5311
133.746,90.8257
133.557,90.0616
133.367,89.3562
133.177,88.6508
132.987,87.9455
132.798,87.1813
132.608,86.476
132.418,85.7118
132.229,85.1827
132.039,84.6537
131.849,84.301
131.66,83.9483
131.47,83.5956
131.28,83.1842
131.09,82.8315
130.901,82.4788
130.711,82.1261
130.521,81.7146
130.332,81.4207
130.142,81.1268
129.952,80.9505
129.763,80.7742
129.573,80.5978
129.383,80.4214
129.194,80.2451
129.004,80.0688
128.814,79.8924
128.624,79.7161
128.435,79.5398
128.245,79.3634
128.055,79.2458
127.866,79.1283
127.676,79.0695
127.486,79.0107
127.297,78.9519
127.107,78.8932
126.917,78.8344
126.727,78.7168
126.538,78.658
126.348,78.5992
126.158,78.5405
125.969,78.4817
125.779,78.4229
125.589,78.3054
125.4,78.2466
125.21,78.1878
125.02,78.129
124.831,78.0702
124.641,78.0114
124.451,77.9526
124.261,77.8939
124.072,77.7763
123.882,77.7763
123.692,77.7175
123.503,77.7175
123.313,77.7175
123.123,77.7175
122.934,77.7175
122.744,77.7175
122.554,77.6588
122.364,77.6588
122.175,77.6588
121.985,77.6588
121.795,77.6588
121.606,77.6588
121.416,77.6588
121.226,77.6588
121.037,77.6588
120.847,77.6588
120.657,77.6588
120.468,77.6588
120.278,77.6588
120.088,77.6588
119.898,77.6588
119.709,77.6588
119.519,77.6588
119.329,77.6588
119.14,77.6588
118.95,77.6588
118.76,77.6588
118.571,77.6588
118.381,77.6588
118.191,77.6588
118.002,77.6
117.812,77.6
117.622,77.6
117.432,77.6
117.243,77.5412
117.053,77.5412
116.863,76.8946
116.674,77.5412
116.484,77.5412
116.294,77.5412
116.105,77.4824
115.915,77.4824
115.725,77.4824
115.535,77.4824
115.346,77.4824
115.156,77.4824
114.966,77.4236
114.777,77.4236
114.587,77.4236
114.397,77.4236
114.208,77.4236
114.018,77.4236
113.828,77.3648
113.639,77.3648
113.449,77.3648
113.259,77.4236
113.069,77.4236
112.88,77.4824
112.69,77.4824
112.5,77.5412
112.311,77.5412
112.121,77.6
111.931,77.6
111.742,77.6588
111.552,77.6588
111.362,77.7175
111.172,77.7175
110.983,77.7763
110.793,77.7763
110.603,77.8351
110.414,77.8351
110.224,77.8939
110.034,77.8939
109.845,77.9526
109.655,77.9526
109.465,78.0114
109.276,78.0114
109.086,78.0702
108.896,78.0702
108.706,78.129
108.517,78.129
108.327,78.1878
108.137,78.1878
107.948,78.1878
107.758,78.1878
107.568,78.1878
107.379,78.1878
107.189,78.2466
106.999,78.2466
106.81,78.2466
106.62,78.2466
106.43,78.2466
106.24,78.2466
106.051,78.2466
105.861,78.2466
105.671,78.2466
105.482,78.2466
105.292,78.3054
105.102,78.3054
104.913,78.3054
104.723,78.3054
104.533,78.3054
104.343,78.3054
104.154,78.3054
103.964,78.3054
103.774,78.3054
103.585,78.3054
103.395,78.3641
103.205,78.3641
103.016,78.3641
102.826,78.3641
102.636,78.3641
102.447,78.3641
102.257,78.3641
102.067,78.3641
101.877,78.3641
101.688,78.3641
101.498,78.3641
101.308,78.3641
101.119,78.3641
100.929,78.3641
100.739,78.3641
100.55,78.3641
100.36,78.3641
100.17,78.3641
99.9805,78.3641
99.7908,78.3641
99.6011,78.3641
99.4114,78.3641
99.2217,78.3641
99.032,78.3641
98.8423,78.3641
98.6526,78.3641
98.4629,78.3641
98.2732,78.3641
98.0835,78.3641
97.8938,78.3641
97.7041,78.3641
97.5144,78.3641
97.3247,78.3641
97.135,78.3641
96.9454,78.3641
96.7557,78.3641
96.566,78.3641
96.3763,78.3641
96.1866,78.3641
95.9969,78.3641
95.8072,78.3641
95.6175,78.3641
95.4278,78.3641
95.2381,78.3641" />
</g>
</svg>
